G04 #@! TF.FileFunction,Soldermask,Top*
%FSLAX46Y46*%
G04 Gerber Fmt 4.6, Leading zero omitted, Abs format (unit mm)*
G04 Created by KiCad (PCBNEW 4.0.0-rc1-stable) date 11/30/2015 8:18:10 PM*
%MOMM*%
G01*
G04 APERTURE LIST*
%ADD10C,0.100000*%
%ADD11R,1.300000X0.900000*%
%ADD12R,1.150000X1.200000*%
%ADD13R,1.598880X1.598880*%
%ADD14R,0.900000X1.300000*%
%ADD15R,2.940000X1.924000*%
%ADD16R,2.559000X1.924000*%
%ADD17R,2.701240X0.900380*%
%ADD18R,2.899360X2.398980*%
%ADD19C,1.299160*%
%ADD20R,0.700000X1.130000*%
%ADD21R,1.130000X0.700000*%
%ADD22R,1.650000X1.650000*%
G04 APERTURE END LIST*
D10*
D11*
X122440000Y-104660000D03*
X122440000Y-106160000D03*
D12*
X120650000Y-85320000D03*
X120650000Y-83820000D03*
X123190000Y-85320000D03*
X123190000Y-83820000D03*
X125730000Y-85320000D03*
X125730000Y-83820000D03*
D11*
X140970000Y-88900000D03*
X140970000Y-87400000D03*
D13*
X134178040Y-101600000D03*
X132080000Y-101600000D03*
X137988040Y-101600000D03*
X135890000Y-101600000D03*
D12*
X135890000Y-85320000D03*
X135890000Y-83820000D03*
X128270000Y-85090000D03*
X128270000Y-83590000D03*
X130810000Y-85320000D03*
X130810000Y-83820000D03*
D13*
X128270000Y-101600000D03*
X130368040Y-101600000D03*
D11*
X125210000Y-104660000D03*
X125210000Y-106160000D03*
X127750000Y-106160000D03*
X127750000Y-104660000D03*
X130290000Y-106160000D03*
X130290000Y-104660000D03*
X132830000Y-106160000D03*
X132830000Y-104660000D03*
X135890000Y-106160000D03*
X135890000Y-104660000D03*
D14*
X141200000Y-106680000D03*
X139700000Y-106680000D03*
D12*
X133096000Y-86614000D03*
X133096000Y-85114000D03*
D14*
X146050000Y-99060000D03*
X147550000Y-99060000D03*
D15*
X158750000Y-88900000D03*
X158750000Y-91440000D03*
X158750000Y-93980000D03*
X158750000Y-96520000D03*
X158750000Y-99060000D03*
X158750000Y-101600000D03*
X158750000Y-88900000D03*
X158750000Y-91440000D03*
X158750000Y-93980000D03*
X158750000Y-96520000D03*
X158750000Y-99060000D03*
X158750000Y-101600000D03*
D16*
X140970000Y-92710000D03*
X140970000Y-95250000D03*
X149225000Y-95250000D03*
X149225000Y-92710000D03*
D17*
X117358160Y-94279720D03*
X117358160Y-95079820D03*
X117358160Y-95879920D03*
X117358160Y-96680020D03*
X117358160Y-97480120D03*
D18*
X117259100Y-91429840D03*
X111760000Y-91429840D03*
X117259100Y-100330000D03*
X111760000Y-100330000D03*
D19*
X114759740Y-93680280D03*
X114759740Y-98079560D03*
D20*
X131165000Y-94184000D03*
X130665000Y-94184000D03*
X130165000Y-94184000D03*
X129665000Y-94184000D03*
X129165000Y-94184000D03*
D21*
X128200000Y-95149000D03*
X128200000Y-95649000D03*
X128200000Y-96149000D03*
X128200000Y-96649000D03*
X128200000Y-97149000D03*
D20*
X129165000Y-98114000D03*
X129665000Y-98114000D03*
X130165000Y-98114000D03*
X130665000Y-98114000D03*
X131165000Y-98114000D03*
D21*
X132130000Y-97149000D03*
X132130000Y-96649000D03*
X132130000Y-96149000D03*
X132130000Y-95649000D03*
X132130000Y-95149000D03*
D22*
X129540000Y-96774000D03*
X130790000Y-96774000D03*
X129540000Y-95524000D03*
X130790000Y-95524000D03*
M02*
