G04 #@! TF.FileFunction,Copper,L2,Bot,Signal*
%FSLAX46Y46*%
G04 Gerber Fmt 4.6, Leading zero omitted, Abs format (unit mm)*
G04 Created by KiCad (PCBNEW 4.0.0-rc1-stable) date 11/30/2015 8:18:10 PM*
%MOMM*%
G01*
G04 APERTURE LIST*
%ADD10C,0.100000*%
%ADD11R,2.540000X1.524000*%
%ADD12C,0.600000*%
%ADD13C,0.250000*%
G04 APERTURE END LIST*
D10*
D11*
X158750000Y-88900000D03*
X158750000Y-91440000D03*
X158750000Y-93980000D03*
X158750000Y-96520000D03*
X158750000Y-99060000D03*
X158750000Y-101600000D03*
D12*
X114759740Y-93680280D03*
X137160000Y-87630000D03*
X121920000Y-87630000D03*
X154940000Y-85852000D03*
X154940000Y-89916000D03*
X115570000Y-96520000D03*
X125730000Y-99060000D03*
X114300000Y-90170000D03*
X154940000Y-96520000D03*
X125730000Y-95250000D03*
X138430000Y-88900000D03*
X126998051Y-88898051D03*
X125728051Y-90168051D03*
X123190000Y-96520000D03*
X119380000Y-96520000D03*
X126979086Y-97539303D03*
X135635996Y-94488000D03*
X137160000Y-103149451D03*
X127000000Y-102870000D03*
X133350000Y-96012000D03*
X133350000Y-93980000D03*
X144780000Y-95250000D03*
X134112000Y-86360000D03*
X139700000Y-100385010D03*
X129540000Y-91440000D03*
X137160000Y-100385010D03*
X144780000Y-91186000D03*
X143256000Y-92710000D03*
X160020000Y-90170000D03*
X154940000Y-97790000D03*
X152654000Y-96774000D03*
X153670000Y-91440000D03*
X136515020Y-93434454D03*
X151130000Y-87630000D03*
X132135011Y-92702354D03*
X153670000Y-99060000D03*
X126491992Y-96774000D03*
X123190000Y-95250000D03*
X133113028Y-98952604D03*
X135890000Y-103149451D03*
D13*
X121920000Y-87630000D02*
X137160000Y-87630000D01*
X154940000Y-89916000D02*
X154940000Y-85852000D01*
X113985159Y-96353754D02*
X113985159Y-98745159D01*
X113985159Y-90484841D02*
X113985159Y-96353754D01*
X113985159Y-96353754D02*
X115403754Y-96353754D01*
X115403754Y-96353754D02*
X115570000Y-96520000D01*
X113985159Y-98745159D02*
X114300000Y-99060000D01*
X114300000Y-99060000D02*
X125730000Y-99060000D01*
X114300000Y-90170000D02*
X113985159Y-90484841D01*
X154940000Y-96520000D02*
X158750000Y-96520000D01*
X125728051Y-95248051D02*
X125730000Y-95250000D01*
X125728051Y-90168051D02*
X125728051Y-95248051D01*
X126998051Y-88898051D02*
X138428051Y-88898051D01*
X138428051Y-88898051D02*
X138430000Y-88900000D01*
X123190000Y-96520000D02*
X119380000Y-96520000D01*
X127000000Y-102870000D02*
X127000000Y-97560217D01*
X127000000Y-97560217D02*
X126979086Y-97539303D01*
X135935995Y-94787999D02*
X135635996Y-94488000D01*
X136144000Y-102133451D02*
X136144000Y-96436264D01*
X136144000Y-94996004D02*
X135935995Y-94787999D01*
X137160000Y-103149451D02*
X136144000Y-102133451D01*
X136144000Y-96436264D02*
X136144000Y-94996004D01*
X136144000Y-96774000D02*
X136144000Y-96436264D01*
X133350000Y-93980000D02*
X133350000Y-96012000D01*
X144780000Y-95250000D02*
X139700000Y-100330000D01*
X139700000Y-100330000D02*
X139700000Y-100385010D01*
X139700000Y-88900000D02*
X137160000Y-86360000D01*
X137160000Y-86360000D02*
X134112000Y-86360000D01*
X139700000Y-100385010D02*
X139700000Y-88900000D01*
X137160000Y-91440000D02*
X129540000Y-91440000D01*
X137160000Y-100385010D02*
X137160000Y-91440000D01*
X143256000Y-92710000D02*
X144780000Y-91186000D01*
X158750000Y-101600000D02*
X159258000Y-101600000D01*
X159258000Y-101600000D02*
X160345001Y-100512999D01*
X160345001Y-100512999D02*
X160345001Y-90495001D01*
X160345001Y-90495001D02*
X160020000Y-90170000D01*
X152654000Y-96774000D02*
X153924000Y-96774000D01*
X153924000Y-96774000D02*
X154940000Y-97790000D01*
X153670000Y-91440000D02*
X158750000Y-91440000D01*
X136215021Y-93134455D02*
X136515020Y-93434454D01*
X135782920Y-92702354D02*
X136215021Y-93134455D01*
X132135011Y-92702354D02*
X135782920Y-92702354D01*
X151130000Y-87630000D02*
X151130000Y-89825002D01*
X151130000Y-89825002D02*
X155284998Y-93980000D01*
X155284998Y-93980000D02*
X157230000Y-93980000D01*
X157230000Y-93980000D02*
X158750000Y-93980000D01*
X153670000Y-99060000D02*
X158750000Y-99060000D01*
X126067728Y-96774000D02*
X126491992Y-96774000D01*
X124714000Y-96774000D02*
X126067728Y-96774000D01*
X123190000Y-95250000D02*
X124714000Y-96774000D01*
X133113028Y-99376868D02*
X133113028Y-98952604D01*
X135890000Y-103149451D02*
X133113028Y-100372479D01*
X133113028Y-100372479D02*
X133113028Y-99376868D01*
M02*
