G04 #@! TF.FileFunction,Copper,L2,Bot,Signal*
%FSLAX46Y46*%
G04 Gerber Fmt 4.6, Leading zero omitted, Abs format (unit mm)*
G04 Created by KiCad (PCBNEW 4.0.0-rc1-stable) date 12/2/2015 11:11:47 PM*
%MOMM*%
G01*
G04 APERTURE LIST*
%ADD10C,0.100000*%
%ADD11O,0.950000X1.250000*%
%ADD12O,1.550000X1.000000*%
%ADD13R,2.540000X1.524000*%
%ADD14C,0.600000*%
%ADD15C,0.250000*%
G04 APERTURE END LIST*
D10*
D11*
X132080000Y-112395000D03*
X132080000Y-117395000D03*
D12*
X129380000Y-111395000D03*
X129380000Y-118395000D03*
D13*
X175895000Y-107950000D03*
X175895000Y-110490000D03*
X175895000Y-113030000D03*
X175895000Y-115570000D03*
X175895000Y-118110000D03*
X175895000Y-120650000D03*
D14*
X133350000Y-120015000D03*
X135890000Y-120015000D03*
X135890000Y-109855000D03*
X169545000Y-107315000D03*
X173355000Y-115570000D03*
X130810000Y-116205000D03*
X129540000Y-122555000D03*
X133350000Y-122555000D03*
X137160000Y-121920000D03*
X140970000Y-121976615D03*
X148590000Y-121920000D03*
X144780000Y-120650000D03*
X146050000Y-118110000D03*
X156210000Y-109855000D03*
X156845000Y-109855000D03*
X160020000Y-109855000D03*
X162560000Y-113030000D03*
X172085000Y-113030000D03*
X133985000Y-114300000D03*
X133985000Y-114300000D03*
X130810000Y-107950000D03*
X168275000Y-122555000D03*
X156845000Y-119380000D03*
X163830000Y-119380000D03*
X153670000Y-119380000D03*
X149225000Y-119380000D03*
X145415000Y-119380000D03*
X143510000Y-123825000D03*
X168275000Y-119380000D03*
X168275000Y-117475000D03*
X135255000Y-114935000D03*
X133350000Y-114935000D03*
X133985000Y-106680000D03*
X149860000Y-111750010D03*
X153670000Y-111290003D03*
X154940000Y-111125000D03*
X154940000Y-123190000D03*
X171450000Y-126365000D03*
X154305000Y-125095000D03*
X152400000Y-123190000D03*
X152400000Y-121920000D03*
X151765000Y-107470013D03*
X151765000Y-105410000D03*
X149225000Y-106045000D03*
X147214990Y-106045000D03*
X149225000Y-106845003D03*
X147214990Y-106845003D03*
X141605000Y-106680000D03*
X141605000Y-105410000D03*
X156210000Y-116840000D03*
X155699449Y-119504449D03*
X153035000Y-118745000D03*
X146849907Y-118122312D03*
X151765000Y-108585000D03*
X145415000Y-105410000D03*
X154305000Y-121285000D03*
X144145000Y-121920000D03*
X139700000Y-120015000D03*
X139700000Y-114935000D03*
X173355000Y-120650000D03*
X171450000Y-120650000D03*
X171450000Y-116840000D03*
X163195000Y-114300000D03*
X173990000Y-114300000D03*
X149860000Y-116205000D03*
X153670000Y-118110000D03*
X161290000Y-116840000D03*
X169545000Y-116840000D03*
X169545000Y-110490000D03*
X175895000Y-111760000D03*
X165100000Y-111760000D03*
X165100000Y-107950000D03*
X153670000Y-107950000D03*
X153670000Y-110490000D03*
X149860000Y-110490000D03*
X149225000Y-107950000D03*
X146685000Y-107950000D03*
X173355000Y-116840000D03*
X149860000Y-118745000D03*
X151130000Y-118745000D03*
X150495000Y-107950000D03*
X149225000Y-105244997D03*
X147320000Y-117475000D03*
X153035000Y-117475000D03*
X155575000Y-115570000D03*
X155575000Y-114300000D03*
X155575000Y-106680000D03*
X155575000Y-105410000D03*
D15*
X135890000Y-120015000D02*
X133350000Y-120015000D01*
X167640000Y-109220000D02*
X136525000Y-109220000D01*
X136525000Y-109220000D02*
X135890000Y-109855000D01*
X169545000Y-107315000D02*
X167640000Y-109220000D01*
X175895000Y-115570000D02*
X173355000Y-115570000D01*
X130810000Y-122555000D02*
X129540000Y-122555000D01*
X133350000Y-122555000D02*
X130810000Y-122555000D01*
X130810000Y-122555000D02*
X130810000Y-116205000D01*
X137216615Y-121976615D02*
X137160000Y-121920000D01*
X140970000Y-121976615D02*
X137216615Y-121976615D01*
X148590000Y-120650000D02*
X146050000Y-120650000D01*
X154305000Y-120650000D02*
X148590000Y-120650000D01*
X148590000Y-120650000D02*
X148590000Y-121920000D01*
X146050000Y-120650000D02*
X144780000Y-120650000D01*
X146050000Y-120650000D02*
X146050000Y-118110000D01*
X154305000Y-109855000D02*
X154305000Y-120650000D01*
X156210000Y-109855000D02*
X154305000Y-109855000D01*
X160020000Y-109855000D02*
X156845000Y-109855000D01*
X172085000Y-113030000D02*
X162560000Y-113030000D01*
X133985000Y-109855000D02*
X133985000Y-114300000D01*
X130810000Y-109855000D02*
X133985000Y-109855000D01*
X130810000Y-107950000D02*
X130810000Y-109855000D01*
X168275000Y-119380000D02*
X168275000Y-122555000D01*
X156845000Y-119380000D02*
X158115000Y-119380000D01*
X163830000Y-119380000D02*
X158115000Y-119380000D01*
X149225000Y-119380000D02*
X153670000Y-119380000D01*
X143510000Y-119380000D02*
X145415000Y-119380000D01*
X143510000Y-123825000D02*
X143510000Y-119380000D01*
X168275000Y-117475000D02*
X168275000Y-119380000D01*
X135128765Y-114935000D02*
X133350000Y-114935000D01*
X135255000Y-114935000D02*
X135128765Y-114935000D01*
X135255000Y-113955002D02*
X135255000Y-114935000D01*
X135255000Y-107950000D02*
X135255000Y-113955002D01*
X133985000Y-106680000D02*
X135255000Y-107950000D01*
X149860000Y-111750010D02*
X153209993Y-111750010D01*
X153209993Y-111750010D02*
X153670000Y-111290003D01*
X154940000Y-123190000D02*
X154940000Y-111125000D01*
X160020000Y-126365000D02*
X171450000Y-126365000D01*
X160020000Y-125095000D02*
X160020000Y-126365000D01*
X154305000Y-125095000D02*
X160020000Y-125095000D01*
X152400000Y-121920000D02*
X152400000Y-123190000D01*
X151765000Y-105410000D02*
X151765000Y-107470013D01*
X147214990Y-106045000D02*
X149225000Y-106045000D01*
X147214990Y-106845003D02*
X149225000Y-106845003D01*
X141605000Y-105410000D02*
X141605000Y-106680000D01*
X155699449Y-117350551D02*
X156210000Y-116840000D01*
X155699449Y-119504449D02*
X155699449Y-117350551D01*
X152744998Y-118110000D02*
X152744998Y-118454998D01*
X152744998Y-118454998D02*
X153035000Y-118745000D01*
X147286483Y-118110000D02*
X152744998Y-118110000D01*
X146849907Y-118122312D02*
X147274171Y-118122312D01*
X147274171Y-118122312D02*
X147286483Y-118110000D01*
X145415000Y-108585000D02*
X151765000Y-108585000D01*
X145415000Y-106045000D02*
X145415000Y-108585000D01*
X145415000Y-105410000D02*
X145415000Y-106045000D01*
X150495000Y-121285000D02*
X154305000Y-121285000D01*
X150495000Y-123190000D02*
X150495000Y-121285000D01*
X147955000Y-123190000D02*
X150495000Y-123190000D01*
X147955000Y-121920000D02*
X147955000Y-123190000D01*
X144145000Y-121920000D02*
X147955000Y-121920000D01*
X139700000Y-114935000D02*
X139700000Y-120015000D01*
X173355000Y-120650000D02*
X175895000Y-120650000D01*
X171450000Y-116840000D02*
X171450000Y-120650000D01*
X173990000Y-114300000D02*
X163195000Y-114300000D01*
X153670000Y-116205000D02*
X149860000Y-116205000D01*
X153670000Y-118110000D02*
X153670000Y-116205000D01*
X169545000Y-116840000D02*
X161290000Y-116840000D01*
X175895000Y-110490000D02*
X169545000Y-110490000D01*
X175895000Y-113030000D02*
X175895000Y-111760000D01*
X165100000Y-111760000D02*
X175895000Y-111760000D01*
X153670000Y-107950000D02*
X165100000Y-107950000D01*
X149860000Y-110490000D02*
X153670000Y-110490000D01*
X146685000Y-107950000D02*
X149225000Y-107950000D01*
X175895000Y-116840000D02*
X175895000Y-118110000D01*
X173355000Y-116840000D02*
X175895000Y-116840000D01*
X151130000Y-118745000D02*
X149860000Y-118745000D01*
X150329997Y-105244997D02*
X150495000Y-105410000D01*
X150495000Y-105410000D02*
X150495000Y-107950000D01*
X149225000Y-105244997D02*
X150329997Y-105244997D01*
X153035000Y-117475000D02*
X147320000Y-117475000D01*
X155575000Y-114300000D02*
X155575000Y-115570000D01*
X155575000Y-105410000D02*
X155575000Y-106680000D01*
M02*
