G04 #@! TF.FileFunction,Soldermask,Top*
%FSLAX46Y46*%
G04 Gerber Fmt 4.6, Leading zero omitted, Abs format (unit mm)*
G04 Created by KiCad (PCBNEW 4.0.0-rc1-stable) date 11/29/2015 8:40:08 PM*
%MOMM*%
G01*
G04 APERTURE LIST*
%ADD10C,0.100000*%
%ADD11R,1.200000X1.150000*%
%ADD12R,1.598880X1.598880*%
%ADD13R,2.940000X1.924000*%
%ADD14R,0.900000X1.300000*%
%ADD15R,1.750000X0.800000*%
%ADD16O,1.350000X1.650000*%
%ADD17O,1.950000X1.400000*%
%ADD18R,0.806400X1.670000*%
%ADD19R,2.559000X1.924000*%
G04 APERTURE END LIST*
D10*
D11*
X128040000Y-125095000D03*
X129540000Y-125095000D03*
X131850000Y-125095000D03*
X133350000Y-125095000D03*
X135890000Y-125095000D03*
X137390000Y-125095000D03*
X139700000Y-125095000D03*
X141200000Y-125095000D03*
X143510000Y-125095000D03*
X145010000Y-125095000D03*
X147320000Y-125095000D03*
X148820000Y-125095000D03*
X151130000Y-125095000D03*
X152630000Y-125095000D03*
D12*
X158750000Y-112395000D03*
X156651960Y-112395000D03*
X158308040Y-116840000D03*
X156210000Y-116840000D03*
X158750000Y-120650000D03*
X156651960Y-120650000D03*
D13*
X175895000Y-107950000D03*
X175895000Y-110490000D03*
X175895000Y-113030000D03*
X175895000Y-115570000D03*
X175895000Y-118110000D03*
X175895000Y-120650000D03*
X175895000Y-107950000D03*
X175895000Y-110490000D03*
X175895000Y-113030000D03*
X175895000Y-115570000D03*
X175895000Y-118110000D03*
X175895000Y-120650000D03*
D14*
X168275000Y-104775000D03*
X169775000Y-104775000D03*
D15*
X132080000Y-113595000D03*
X132080000Y-114245000D03*
X132080000Y-114895000D03*
X132080000Y-115545000D03*
X132080000Y-116195000D03*
D16*
X132080000Y-112395000D03*
X132080000Y-117395000D03*
D17*
X129380000Y-111395000D03*
X129380000Y-118395000D03*
D14*
X128905000Y-104140000D03*
X130405000Y-104140000D03*
X132715000Y-104140000D03*
X134215000Y-104140000D03*
X136525000Y-104140000D03*
X138025000Y-104140000D03*
X140335000Y-104140000D03*
X141835000Y-104140000D03*
X144145000Y-104140000D03*
X145645000Y-104140000D03*
X147840000Y-104140000D03*
X149340000Y-104140000D03*
X151650000Y-104140000D03*
X153150000Y-104140000D03*
X155345000Y-104140000D03*
X156845000Y-104140000D03*
D18*
X148640800Y-110871000D03*
X148005800Y-110871000D03*
X147345400Y-110871000D03*
X146685000Y-110871000D03*
X146050000Y-110871000D03*
X145389600Y-110871000D03*
X144729200Y-110871000D03*
X144094200Y-110871000D03*
X143433800Y-110871000D03*
X142798800Y-110871000D03*
X142798800Y-116205000D03*
X143433800Y-116205000D03*
X144094200Y-116205000D03*
X144729200Y-116205000D03*
X145389600Y-116205000D03*
X146050000Y-116205000D03*
X146685000Y-116205000D03*
X147345400Y-116205000D03*
X148005800Y-116205000D03*
X148640800Y-116205000D03*
D19*
X163322000Y-122174000D03*
X163322000Y-124714000D03*
X171577000Y-124714000D03*
X171577000Y-122174000D03*
M02*
