M48
;DRILL file {KiCad 4.0.0-rc1-stable} date 12/2/2015 11:11:50 PM
;FORMAT={-:-/ absolute / inch / decimal}
FMAT,2
INCH,TZ
T1C0.016
T2C0.020
T3C0.022
%
G90
G05
M72
T1
X5.1Y-4.825
X5.15Y-4.25
X5.15Y-4.575
X5.25Y-4.525
X5.25Y-4.725
X5.25Y-4.825
X5.275Y-4.2
X5.275Y-4.5
X5.275Y-4.5
X5.325Y-4.525
X5.35Y-4.325
X5.35Y-4.725
X5.4Y-4.8
X5.5Y-4.525
X5.5Y-4.725
X5.55Y-4.8022
X5.575Y-4.15
X5.575Y-4.2
X5.65Y-4.875
X5.675Y-4.8
X5.7Y-4.75
X5.725Y-4.15
X5.725Y-4.7
X5.75Y-4.65
X5.775Y-4.25
X5.7815Y-4.6505
X5.7959Y-4.175
X5.7959Y-4.2065
X5.8Y-4.625
X5.85Y-4.8
X5.875Y-4.1435
X5.875Y-4.175
X5.875Y-4.2065
X5.875Y-4.25
X5.875Y-4.7
X5.9Y-4.35
X5.9Y-4.3996
X5.9Y-4.575
X5.9Y-4.675
X5.925Y-4.25
X5.95Y-4.675
X5.975Y-4.15
X5.975Y-4.2311
X5.975Y-4.275
X6.Y-4.8
X6.Y-4.85
X6.025Y-4.625
X6.025Y-4.675
X6.05Y-4.25
X6.05Y-4.35
X6.05Y-4.3815
X6.05Y-4.65
X6.05Y-4.7
X6.075Y-4.775
X6.075Y-4.925
X6.1Y-4.375
X6.1Y-4.85
X6.125Y-4.15
X6.125Y-4.2
X6.125Y-4.5
X6.125Y-4.55
X6.1299Y-4.7049
X6.15Y-4.325
X6.15Y-4.6
X6.175Y-4.325
X6.175Y-4.7
X6.3Y-4.325
X6.35Y-4.6
X6.4Y-4.45
X6.425Y-4.5
X6.45Y-4.7
X6.5Y-4.25
X6.5Y-4.4
X6.625Y-4.625
X6.625Y-4.7
X6.625Y-4.825
X6.675Y-4.225
X6.675Y-4.35
X6.675Y-4.6
X6.75Y-4.6
X6.75Y-4.75
X6.75Y-4.975
X6.775Y-4.45
X6.825Y-4.55
X6.825Y-4.6
X6.825Y-4.75
X6.85Y-4.5
X6.925Y-4.4
T2
X5.0809Y-4.3856G85X5.1065Y-4.3856
G05
X5.0809Y-4.6612G85X5.1065Y-4.6612
G05
T3
X5.2Y-4.4191G85X5.2Y-4.4309
G05
X5.2Y-4.6159G85X5.2Y-4.6278
G05
T0
M30
