G04 #@! TF.FileFunction,Legend,Top*
%FSLAX46Y46*%
G04 Gerber Fmt 4.6, Leading zero omitted, Abs format (unit mm)*
G04 Created by KiCad (PCBNEW 4.0.0-rc1-stable) date 11/29/2015 8:40:08 PM*
%MOMM*%
G01*
G04 APERTURE LIST*
%ADD10C,0.100000*%
%ADD11C,0.150000*%
G04 APERTURE END LIST*
D10*
D11*
X128440000Y-124495000D02*
X129140000Y-124495000D01*
X129140000Y-125695000D02*
X128440000Y-125695000D01*
X132250000Y-124495000D02*
X132950000Y-124495000D01*
X132950000Y-125695000D02*
X132250000Y-125695000D01*
X136290000Y-124495000D02*
X136990000Y-124495000D01*
X136990000Y-125695000D02*
X136290000Y-125695000D01*
X140100000Y-124495000D02*
X140800000Y-124495000D01*
X140800000Y-125695000D02*
X140100000Y-125695000D01*
X143910000Y-124495000D02*
X144610000Y-124495000D01*
X144610000Y-125695000D02*
X143910000Y-125695000D01*
X147720000Y-124495000D02*
X148420000Y-124495000D01*
X148420000Y-125695000D02*
X147720000Y-125695000D01*
X151530000Y-124495000D02*
X152230000Y-124495000D01*
X152230000Y-125695000D02*
X151530000Y-125695000D01*
X156100980Y-113145000D02*
X158800980Y-113145000D01*
X156100980Y-111645000D02*
X158800980Y-111645000D01*
X157600980Y-112545000D02*
X157600980Y-112295000D01*
X157600980Y-112295000D02*
X157450980Y-112445000D01*
X157350980Y-112045000D02*
X157350980Y-112745000D01*
X157700980Y-112395000D02*
X158050980Y-112395000D01*
X157350980Y-112395000D02*
X157700980Y-112045000D01*
X157700980Y-112045000D02*
X157700980Y-112745000D01*
X157700980Y-112745000D02*
X157350980Y-112395000D01*
X155659020Y-117590000D02*
X158359020Y-117590000D01*
X155659020Y-116090000D02*
X158359020Y-116090000D01*
X157159020Y-116990000D02*
X157159020Y-116740000D01*
X157159020Y-116740000D02*
X157009020Y-116890000D01*
X156909020Y-116490000D02*
X156909020Y-117190000D01*
X157259020Y-116840000D02*
X157609020Y-116840000D01*
X156909020Y-116840000D02*
X157259020Y-116490000D01*
X157259020Y-116490000D02*
X157259020Y-117190000D01*
X157259020Y-117190000D02*
X156909020Y-116840000D01*
X156100980Y-121400000D02*
X158800980Y-121400000D01*
X156100980Y-119900000D02*
X158800980Y-119900000D01*
X157600980Y-120800000D02*
X157600980Y-120550000D01*
X157600980Y-120550000D02*
X157450980Y-120700000D01*
X157350980Y-120300000D02*
X157350980Y-121000000D01*
X157700980Y-120650000D02*
X158050980Y-120650000D01*
X157350980Y-120650000D02*
X157700980Y-120300000D01*
X157700980Y-120300000D02*
X157700980Y-121000000D01*
X157700980Y-121000000D02*
X157350980Y-120650000D01*
X169525000Y-105450000D02*
X168525000Y-105450000D01*
X168525000Y-104100000D02*
X169525000Y-104100000D01*
X126700000Y-110545000D02*
X126700000Y-119245000D01*
X133105000Y-110545000D02*
X133105000Y-119245000D01*
X133105000Y-119245000D02*
X126700000Y-119245000D01*
X127930000Y-119245000D02*
X127930000Y-110545000D01*
X126700000Y-110545000D02*
X133105000Y-110545000D01*
X130155000Y-104815000D02*
X129155000Y-104815000D01*
X129155000Y-103465000D02*
X130155000Y-103465000D01*
X133965000Y-104815000D02*
X132965000Y-104815000D01*
X132965000Y-103465000D02*
X133965000Y-103465000D01*
X137775000Y-104815000D02*
X136775000Y-104815000D01*
X136775000Y-103465000D02*
X137775000Y-103465000D01*
X141585000Y-104815000D02*
X140585000Y-104815000D01*
X140585000Y-103465000D02*
X141585000Y-103465000D01*
X145395000Y-104815000D02*
X144395000Y-104815000D01*
X144395000Y-103465000D02*
X145395000Y-103465000D01*
X149090000Y-104815000D02*
X148090000Y-104815000D01*
X148090000Y-103465000D02*
X149090000Y-103465000D01*
X152900000Y-104815000D02*
X151900000Y-104815000D01*
X151900000Y-103465000D02*
X152900000Y-103465000D01*
X156595000Y-104815000D02*
X155595000Y-104815000D01*
X155595000Y-103465000D02*
X156595000Y-103465000D01*
X141909800Y-115316000D02*
X149529800Y-115316000D01*
X149529800Y-111760000D02*
X141909800Y-111760000D01*
X141909800Y-115316000D02*
X141909800Y-111760000D01*
X149529800Y-111760000D02*
X149529800Y-115316000D01*
X149381010Y-112268000D02*
G75*
G03X149381010Y-112268000I-359210J0D01*
G01*
X149529800Y-114173000D02*
X148767800Y-114173000D01*
X148767800Y-114173000D02*
X148767800Y-112903000D01*
X148767800Y-112903000D02*
X149529800Y-112903000D01*
X128623334Y-123552143D02*
X128575715Y-123599762D01*
X128432858Y-123647381D01*
X128337620Y-123647381D01*
X128194762Y-123599762D01*
X128099524Y-123504524D01*
X128051905Y-123409286D01*
X128004286Y-123218810D01*
X128004286Y-123075952D01*
X128051905Y-122885476D01*
X128099524Y-122790238D01*
X128194762Y-122695000D01*
X128337620Y-122647381D01*
X128432858Y-122647381D01*
X128575715Y-122695000D01*
X128623334Y-122742619D01*
X129575715Y-123647381D02*
X129004286Y-123647381D01*
X129290000Y-123647381D02*
X129290000Y-122647381D01*
X129194762Y-122790238D01*
X129099524Y-122885476D01*
X129004286Y-122933095D01*
X132433334Y-123552143D02*
X132385715Y-123599762D01*
X132242858Y-123647381D01*
X132147620Y-123647381D01*
X132004762Y-123599762D01*
X131909524Y-123504524D01*
X131861905Y-123409286D01*
X131814286Y-123218810D01*
X131814286Y-123075952D01*
X131861905Y-122885476D01*
X131909524Y-122790238D01*
X132004762Y-122695000D01*
X132147620Y-122647381D01*
X132242858Y-122647381D01*
X132385715Y-122695000D01*
X132433334Y-122742619D01*
X132814286Y-122742619D02*
X132861905Y-122695000D01*
X132957143Y-122647381D01*
X133195239Y-122647381D01*
X133290477Y-122695000D01*
X133338096Y-122742619D01*
X133385715Y-122837857D01*
X133385715Y-122933095D01*
X133338096Y-123075952D01*
X132766667Y-123647381D01*
X133385715Y-123647381D01*
X136473334Y-123552143D02*
X136425715Y-123599762D01*
X136282858Y-123647381D01*
X136187620Y-123647381D01*
X136044762Y-123599762D01*
X135949524Y-123504524D01*
X135901905Y-123409286D01*
X135854286Y-123218810D01*
X135854286Y-123075952D01*
X135901905Y-122885476D01*
X135949524Y-122790238D01*
X136044762Y-122695000D01*
X136187620Y-122647381D01*
X136282858Y-122647381D01*
X136425715Y-122695000D01*
X136473334Y-122742619D01*
X136806667Y-122647381D02*
X137425715Y-122647381D01*
X137092381Y-123028333D01*
X137235239Y-123028333D01*
X137330477Y-123075952D01*
X137378096Y-123123571D01*
X137425715Y-123218810D01*
X137425715Y-123456905D01*
X137378096Y-123552143D01*
X137330477Y-123599762D01*
X137235239Y-123647381D01*
X136949524Y-123647381D01*
X136854286Y-123599762D01*
X136806667Y-123552143D01*
X140283334Y-123552143D02*
X140235715Y-123599762D01*
X140092858Y-123647381D01*
X139997620Y-123647381D01*
X139854762Y-123599762D01*
X139759524Y-123504524D01*
X139711905Y-123409286D01*
X139664286Y-123218810D01*
X139664286Y-123075952D01*
X139711905Y-122885476D01*
X139759524Y-122790238D01*
X139854762Y-122695000D01*
X139997620Y-122647381D01*
X140092858Y-122647381D01*
X140235715Y-122695000D01*
X140283334Y-122742619D01*
X141140477Y-122980714D02*
X141140477Y-123647381D01*
X140902381Y-122599762D02*
X140664286Y-123314048D01*
X141283334Y-123314048D01*
X144359334Y-123547143D02*
X144311715Y-123594762D01*
X144168858Y-123642381D01*
X144073620Y-123642381D01*
X143930762Y-123594762D01*
X143835524Y-123499524D01*
X143787905Y-123404286D01*
X143740286Y-123213810D01*
X143740286Y-123070952D01*
X143787905Y-122880476D01*
X143835524Y-122785238D01*
X143930762Y-122690000D01*
X144073620Y-122642381D01*
X144168858Y-122642381D01*
X144311715Y-122690000D01*
X144359334Y-122737619D01*
X145264096Y-122642381D02*
X144787905Y-122642381D01*
X144740286Y-123118571D01*
X144787905Y-123070952D01*
X144883143Y-123023333D01*
X145121239Y-123023333D01*
X145216477Y-123070952D01*
X145264096Y-123118571D01*
X145311715Y-123213810D01*
X145311715Y-123451905D01*
X145264096Y-123547143D01*
X145216477Y-123594762D01*
X145121239Y-123642381D01*
X144883143Y-123642381D01*
X144787905Y-123594762D01*
X144740286Y-123547143D01*
X147903334Y-123552143D02*
X147855715Y-123599762D01*
X147712858Y-123647381D01*
X147617620Y-123647381D01*
X147474762Y-123599762D01*
X147379524Y-123504524D01*
X147331905Y-123409286D01*
X147284286Y-123218810D01*
X147284286Y-123075952D01*
X147331905Y-122885476D01*
X147379524Y-122790238D01*
X147474762Y-122695000D01*
X147617620Y-122647381D01*
X147712858Y-122647381D01*
X147855715Y-122695000D01*
X147903334Y-122742619D01*
X148760477Y-122647381D02*
X148570000Y-122647381D01*
X148474762Y-122695000D01*
X148427143Y-122742619D01*
X148331905Y-122885476D01*
X148284286Y-123075952D01*
X148284286Y-123456905D01*
X148331905Y-123552143D01*
X148379524Y-123599762D01*
X148474762Y-123647381D01*
X148665239Y-123647381D01*
X148760477Y-123599762D01*
X148808096Y-123552143D01*
X148855715Y-123456905D01*
X148855715Y-123218810D01*
X148808096Y-123123571D01*
X148760477Y-123075952D01*
X148665239Y-123028333D01*
X148474762Y-123028333D01*
X148379524Y-123075952D01*
X148331905Y-123123571D01*
X148284286Y-123218810D01*
X151713334Y-123552143D02*
X151665715Y-123599762D01*
X151522858Y-123647381D01*
X151427620Y-123647381D01*
X151284762Y-123599762D01*
X151189524Y-123504524D01*
X151141905Y-123409286D01*
X151094286Y-123218810D01*
X151094286Y-123075952D01*
X151141905Y-122885476D01*
X151189524Y-122790238D01*
X151284762Y-122695000D01*
X151427620Y-122647381D01*
X151522858Y-122647381D01*
X151665715Y-122695000D01*
X151713334Y-122742619D01*
X152046667Y-122647381D02*
X152713334Y-122647381D01*
X152284762Y-123647381D01*
X156962885Y-111097381D02*
X156962885Y-110097381D01*
X157200980Y-110097381D01*
X157343838Y-110145000D01*
X157439076Y-110240238D01*
X157486695Y-110335476D01*
X157534314Y-110525952D01*
X157534314Y-110668810D01*
X157486695Y-110859286D01*
X157439076Y-110954524D01*
X157343838Y-111049762D01*
X157200980Y-111097381D01*
X156962885Y-111097381D01*
X158486695Y-111097381D02*
X157915266Y-111097381D01*
X158200980Y-111097381D02*
X158200980Y-110097381D01*
X158105742Y-110240238D01*
X158010504Y-110335476D01*
X157915266Y-110383095D01*
X156520925Y-115542381D02*
X156520925Y-114542381D01*
X156759020Y-114542381D01*
X156901878Y-114590000D01*
X156997116Y-114685238D01*
X157044735Y-114780476D01*
X157092354Y-114970952D01*
X157092354Y-115113810D01*
X157044735Y-115304286D01*
X156997116Y-115399524D01*
X156901878Y-115494762D01*
X156759020Y-115542381D01*
X156520925Y-115542381D01*
X157473306Y-114637619D02*
X157520925Y-114590000D01*
X157616163Y-114542381D01*
X157854259Y-114542381D01*
X157949497Y-114590000D01*
X157997116Y-114637619D01*
X158044735Y-114732857D01*
X158044735Y-114828095D01*
X157997116Y-114970952D01*
X157425687Y-115542381D01*
X158044735Y-115542381D01*
X156962885Y-119352381D02*
X156962885Y-118352381D01*
X157200980Y-118352381D01*
X157343838Y-118400000D01*
X157439076Y-118495238D01*
X157486695Y-118590476D01*
X157534314Y-118780952D01*
X157534314Y-118923810D01*
X157486695Y-119114286D01*
X157439076Y-119209524D01*
X157343838Y-119304762D01*
X157200980Y-119352381D01*
X156962885Y-119352381D01*
X157867647Y-118352381D02*
X158486695Y-118352381D01*
X158153361Y-118733333D01*
X158296219Y-118733333D01*
X158391457Y-118780952D01*
X158439076Y-118828571D01*
X158486695Y-118923810D01*
X158486695Y-119161905D01*
X158439076Y-119257143D01*
X158391457Y-119304762D01*
X158296219Y-119352381D01*
X158010504Y-119352381D01*
X157915266Y-119304762D01*
X157867647Y-119257143D01*
X168858334Y-103327381D02*
X168382143Y-103327381D01*
X168382143Y-102327381D01*
X169715477Y-103327381D02*
X169144048Y-103327381D01*
X169429762Y-103327381D02*
X169429762Y-102327381D01*
X169334524Y-102470238D01*
X169239286Y-102565476D01*
X169144048Y-102613095D01*
X135707381Y-115633995D02*
X134707381Y-115633995D01*
X134707381Y-115253042D01*
X134755000Y-115157804D01*
X134802619Y-115110185D01*
X134897857Y-115062566D01*
X135040714Y-115062566D01*
X135135952Y-115110185D01*
X135183571Y-115157804D01*
X135231190Y-115253042D01*
X135231190Y-115633995D01*
X135707381Y-114110185D02*
X135707381Y-114681614D01*
X135707381Y-114395900D02*
X134707381Y-114395900D01*
X134850238Y-114491138D01*
X134945476Y-114586376D01*
X134993095Y-114681614D01*
X129488334Y-102692381D02*
X129155000Y-102216190D01*
X128916905Y-102692381D02*
X128916905Y-101692381D01*
X129297858Y-101692381D01*
X129393096Y-101740000D01*
X129440715Y-101787619D01*
X129488334Y-101882857D01*
X129488334Y-102025714D01*
X129440715Y-102120952D01*
X129393096Y-102168571D01*
X129297858Y-102216190D01*
X128916905Y-102216190D01*
X130440715Y-102692381D02*
X129869286Y-102692381D01*
X130155000Y-102692381D02*
X130155000Y-101692381D01*
X130059762Y-101835238D01*
X129964524Y-101930476D01*
X129869286Y-101978095D01*
X133298334Y-102692381D02*
X132965000Y-102216190D01*
X132726905Y-102692381D02*
X132726905Y-101692381D01*
X133107858Y-101692381D01*
X133203096Y-101740000D01*
X133250715Y-101787619D01*
X133298334Y-101882857D01*
X133298334Y-102025714D01*
X133250715Y-102120952D01*
X133203096Y-102168571D01*
X133107858Y-102216190D01*
X132726905Y-102216190D01*
X133679286Y-101787619D02*
X133726905Y-101740000D01*
X133822143Y-101692381D01*
X134060239Y-101692381D01*
X134155477Y-101740000D01*
X134203096Y-101787619D01*
X134250715Y-101882857D01*
X134250715Y-101978095D01*
X134203096Y-102120952D01*
X133631667Y-102692381D01*
X134250715Y-102692381D01*
X137108334Y-102692381D02*
X136775000Y-102216190D01*
X136536905Y-102692381D02*
X136536905Y-101692381D01*
X136917858Y-101692381D01*
X137013096Y-101740000D01*
X137060715Y-101787619D01*
X137108334Y-101882857D01*
X137108334Y-102025714D01*
X137060715Y-102120952D01*
X137013096Y-102168571D01*
X136917858Y-102216190D01*
X136536905Y-102216190D01*
X137441667Y-101692381D02*
X138060715Y-101692381D01*
X137727381Y-102073333D01*
X137870239Y-102073333D01*
X137965477Y-102120952D01*
X138013096Y-102168571D01*
X138060715Y-102263810D01*
X138060715Y-102501905D01*
X138013096Y-102597143D01*
X137965477Y-102644762D01*
X137870239Y-102692381D01*
X137584524Y-102692381D01*
X137489286Y-102644762D01*
X137441667Y-102597143D01*
X140918334Y-102692381D02*
X140585000Y-102216190D01*
X140346905Y-102692381D02*
X140346905Y-101692381D01*
X140727858Y-101692381D01*
X140823096Y-101740000D01*
X140870715Y-101787619D01*
X140918334Y-101882857D01*
X140918334Y-102025714D01*
X140870715Y-102120952D01*
X140823096Y-102168571D01*
X140727858Y-102216190D01*
X140346905Y-102216190D01*
X141775477Y-102025714D02*
X141775477Y-102692381D01*
X141537381Y-101644762D02*
X141299286Y-102359048D01*
X141918334Y-102359048D01*
X144728334Y-102692381D02*
X144395000Y-102216190D01*
X144156905Y-102692381D02*
X144156905Y-101692381D01*
X144537858Y-101692381D01*
X144633096Y-101740000D01*
X144680715Y-101787619D01*
X144728334Y-101882857D01*
X144728334Y-102025714D01*
X144680715Y-102120952D01*
X144633096Y-102168571D01*
X144537858Y-102216190D01*
X144156905Y-102216190D01*
X145633096Y-101692381D02*
X145156905Y-101692381D01*
X145109286Y-102168571D01*
X145156905Y-102120952D01*
X145252143Y-102073333D01*
X145490239Y-102073333D01*
X145585477Y-102120952D01*
X145633096Y-102168571D01*
X145680715Y-102263810D01*
X145680715Y-102501905D01*
X145633096Y-102597143D01*
X145585477Y-102644762D01*
X145490239Y-102692381D01*
X145252143Y-102692381D01*
X145156905Y-102644762D01*
X145109286Y-102597143D01*
X148423334Y-102692381D02*
X148090000Y-102216190D01*
X147851905Y-102692381D02*
X147851905Y-101692381D01*
X148232858Y-101692381D01*
X148328096Y-101740000D01*
X148375715Y-101787619D01*
X148423334Y-101882857D01*
X148423334Y-102025714D01*
X148375715Y-102120952D01*
X148328096Y-102168571D01*
X148232858Y-102216190D01*
X147851905Y-102216190D01*
X149280477Y-101692381D02*
X149090000Y-101692381D01*
X148994762Y-101740000D01*
X148947143Y-101787619D01*
X148851905Y-101930476D01*
X148804286Y-102120952D01*
X148804286Y-102501905D01*
X148851905Y-102597143D01*
X148899524Y-102644762D01*
X148994762Y-102692381D01*
X149185239Y-102692381D01*
X149280477Y-102644762D01*
X149328096Y-102597143D01*
X149375715Y-102501905D01*
X149375715Y-102263810D01*
X149328096Y-102168571D01*
X149280477Y-102120952D01*
X149185239Y-102073333D01*
X148994762Y-102073333D01*
X148899524Y-102120952D01*
X148851905Y-102168571D01*
X148804286Y-102263810D01*
X152233334Y-102692381D02*
X151900000Y-102216190D01*
X151661905Y-102692381D02*
X151661905Y-101692381D01*
X152042858Y-101692381D01*
X152138096Y-101740000D01*
X152185715Y-101787619D01*
X152233334Y-101882857D01*
X152233334Y-102025714D01*
X152185715Y-102120952D01*
X152138096Y-102168571D01*
X152042858Y-102216190D01*
X151661905Y-102216190D01*
X152566667Y-101692381D02*
X153233334Y-101692381D01*
X152804762Y-102692381D01*
X155928334Y-102692381D02*
X155595000Y-102216190D01*
X155356905Y-102692381D02*
X155356905Y-101692381D01*
X155737858Y-101692381D01*
X155833096Y-101740000D01*
X155880715Y-101787619D01*
X155928334Y-101882857D01*
X155928334Y-102025714D01*
X155880715Y-102120952D01*
X155833096Y-102168571D01*
X155737858Y-102216190D01*
X155356905Y-102216190D01*
X156499762Y-102120952D02*
X156404524Y-102073333D01*
X156356905Y-102025714D01*
X156309286Y-101930476D01*
X156309286Y-101882857D01*
X156356905Y-101787619D01*
X156404524Y-101740000D01*
X156499762Y-101692381D01*
X156690239Y-101692381D01*
X156785477Y-101740000D01*
X156833096Y-101787619D01*
X156880715Y-101882857D01*
X156880715Y-101930476D01*
X156833096Y-102025714D01*
X156785477Y-102073333D01*
X156690239Y-102120952D01*
X156499762Y-102120952D01*
X156404524Y-102168571D01*
X156356905Y-102216190D01*
X156309286Y-102311429D01*
X156309286Y-102501905D01*
X156356905Y-102597143D01*
X156404524Y-102644762D01*
X156499762Y-102692381D01*
X156690239Y-102692381D01*
X156785477Y-102644762D01*
X156833096Y-102597143D01*
X156880715Y-102501905D01*
X156880715Y-102311429D01*
X156833096Y-102216190D01*
X156785477Y-102168571D01*
X156690239Y-102120952D01*
X144957895Y-113625381D02*
X144957895Y-114434905D01*
X145005514Y-114530143D01*
X145053133Y-114577762D01*
X145148371Y-114625381D01*
X145338848Y-114625381D01*
X145434086Y-114577762D01*
X145481705Y-114530143D01*
X145529324Y-114434905D01*
X145529324Y-113625381D01*
X146529324Y-114625381D02*
X145957895Y-114625381D01*
X146243609Y-114625381D02*
X146243609Y-113625381D01*
X146148371Y-113768238D01*
X146053133Y-113863476D01*
X145957895Y-113911095D01*
X162560095Y-118451381D02*
X162560095Y-119260905D01*
X162607714Y-119356143D01*
X162655333Y-119403762D01*
X162750571Y-119451381D01*
X162941048Y-119451381D01*
X163036286Y-119403762D01*
X163083905Y-119356143D01*
X163131524Y-119260905D01*
X163131524Y-118451381D01*
X163560095Y-118546619D02*
X163607714Y-118499000D01*
X163702952Y-118451381D01*
X163941048Y-118451381D01*
X164036286Y-118499000D01*
X164083905Y-118546619D01*
X164131524Y-118641857D01*
X164131524Y-118737095D01*
X164083905Y-118879952D01*
X163512476Y-119451381D01*
X164131524Y-119451381D01*
M02*
