G04 #@! TF.FileFunction,Copper,L2,Bot,Signal*
%FSLAX46Y46*%
G04 Gerber Fmt 4.6, Leading zero omitted, Abs format (unit mm)*
G04 Created by KiCad (PCBNEW 4.0.0-rc1-stable) date 11/13/2015 11:17:05 PM*
%MOMM*%
G01*
G04 APERTURE LIST*
%ADD10C,0.100000*%
%ADD11C,2.650000*%
%ADD12R,1.524000X2.540000*%
%ADD13C,0.600000*%
%ADD14C,0.381000*%
%ADD15C,0.250000*%
%ADD16C,0.254000*%
G04 APERTURE END LIST*
D10*
D11*
X127000000Y-76200000D03*
X152400000Y-76200000D03*
X152400000Y-101600000D03*
X127000000Y-101600000D03*
D12*
X146050000Y-100330000D03*
X143510000Y-100330000D03*
X140970000Y-100330000D03*
X138430000Y-100330000D03*
X135890000Y-100330000D03*
X133350000Y-100330000D03*
X133350000Y-77470000D03*
X135890000Y-77470000D03*
X138430000Y-77470000D03*
X140970000Y-77470000D03*
X143510000Y-77470000D03*
X146050000Y-77470000D03*
D13*
X138150600Y-97815400D03*
X140970000Y-97815400D03*
X138430000Y-80264000D03*
X141071600Y-80289400D03*
X140970000Y-94043500D03*
X141655800Y-86182200D03*
X137414000Y-90995500D03*
X148590000Y-85090000D03*
X130225800Y-85191600D03*
X130683000Y-96189800D03*
X145923000Y-91744800D03*
X147497800Y-85115400D03*
X137210800Y-83921600D03*
X141478000Y-83947000D03*
X140665200Y-86131400D03*
X134721600Y-86791800D03*
X134366000Y-80213200D03*
X133731000Y-97510600D03*
X137236200Y-80264000D03*
X136677400Y-97536000D03*
X142570200Y-97561400D03*
X142367000Y-79984600D03*
X142367000Y-88595200D03*
X135890000Y-80187800D03*
X144856200Y-90043000D03*
D14*
X138150600Y-97815400D02*
X138150600Y-100050600D01*
X138150600Y-100050600D02*
X138430000Y-100330000D01*
X138430000Y-80264000D02*
X138430000Y-77470000D01*
X130149600Y-81153000D02*
X133667500Y-77635100D01*
X130149600Y-85115400D02*
X130149600Y-81153000D01*
X130225800Y-85191600D02*
X130149600Y-85115400D01*
X133350000Y-100330000D02*
X133350000Y-98831400D01*
X133350000Y-98831400D02*
X130683000Y-96189800D01*
X133350000Y-100330000D02*
X133350000Y-99949000D01*
D15*
X145923000Y-91744800D02*
X147497800Y-90170000D01*
X147497800Y-90170000D02*
X147497800Y-85115400D01*
X135255000Y-83921600D02*
X137210800Y-83921600D01*
X134670800Y-84505800D02*
X135255000Y-83921600D01*
X140665200Y-86131400D02*
X140690600Y-86131400D01*
X141478000Y-85344000D02*
X141478000Y-83947000D01*
X140690600Y-86131400D02*
X141478000Y-85344000D01*
X134670800Y-86741000D02*
X134670800Y-84505800D01*
X134721600Y-86791800D02*
X134670800Y-86741000D01*
X132588000Y-80213200D02*
X134366000Y-80213200D01*
X131191000Y-81610200D02*
X132588000Y-80213200D01*
X131191000Y-94996000D02*
X131191000Y-81610200D01*
X133731000Y-97510600D02*
X131191000Y-94996000D01*
X132994400Y-93853000D02*
X132994400Y-82575400D01*
X137236200Y-80264000D02*
X135610600Y-81889600D01*
X135610600Y-81889600D02*
X133680200Y-81889600D01*
X133680200Y-81889600D02*
X132994400Y-82575400D01*
X132994400Y-93853000D02*
X136677400Y-97536000D01*
X142367000Y-97205800D02*
X142367000Y-97409000D01*
X142519400Y-97561400D02*
X142570200Y-97561400D01*
X142367000Y-97409000D02*
X142519400Y-97561400D01*
X142367000Y-97180400D02*
X142367000Y-97205800D01*
X142367000Y-97205800D02*
X142367000Y-97256600D01*
X142367000Y-88595200D02*
X142367000Y-79984600D01*
X142367000Y-97180400D02*
X142367000Y-88595200D01*
X133172200Y-81026000D02*
X135026400Y-81026000D01*
X135890000Y-80187800D02*
X135864600Y-80187800D01*
X135864600Y-80187800D02*
X135026400Y-81026000D01*
X133172200Y-81026000D02*
X132080000Y-82118200D01*
X132080000Y-82118200D02*
X132080000Y-94513400D01*
X132080000Y-94513400D02*
X132486400Y-94919800D01*
X135890000Y-98323400D02*
X135890000Y-100330000D01*
X132486400Y-94919800D02*
X135890000Y-98323400D01*
X135890000Y-77470000D02*
X135890000Y-80187800D01*
X135877300Y-100317300D02*
X135890000Y-100330000D01*
X140970000Y-100330000D02*
X140970000Y-99415600D01*
X140970000Y-99415600D02*
X133934200Y-92379800D01*
X133934200Y-92379800D02*
X133934200Y-91389200D01*
X140970000Y-77470000D02*
X140970000Y-78943200D01*
X140970000Y-78943200D02*
X137160000Y-82753200D01*
X137160000Y-82753200D02*
X134289800Y-82753200D01*
X134289800Y-82753200D02*
X133934200Y-83108800D01*
X133934200Y-83108800D02*
X133934200Y-91389200D01*
X143510000Y-100330000D02*
X143510000Y-77470000D01*
X144856200Y-90043000D02*
X144856200Y-80137000D01*
X146050000Y-78943200D02*
X146050000Y-77470000D01*
X144856200Y-80137000D02*
X146050000Y-78943200D01*
X146050000Y-100330000D02*
X146050000Y-98958400D01*
X144856200Y-97764600D02*
X144856200Y-90043000D01*
X146050000Y-98958400D02*
X144856200Y-97764600D01*
D16*
G36*
X151638000Y-98298000D02*
X146464402Y-98298000D01*
X145616200Y-97449798D01*
X145616200Y-92629809D01*
X145736201Y-92679638D01*
X146108167Y-92679962D01*
X146451943Y-92537917D01*
X146715192Y-92275127D01*
X146857838Y-91931599D01*
X146857879Y-91884723D01*
X148035201Y-90707401D01*
X148199948Y-90460839D01*
X148257800Y-90170000D01*
X148257800Y-85677863D01*
X148289992Y-85645727D01*
X148432638Y-85302199D01*
X148432962Y-84930233D01*
X148290917Y-84586457D01*
X148028127Y-84323208D01*
X147684599Y-84180562D01*
X147312633Y-84180238D01*
X146968857Y-84322283D01*
X146705608Y-84585073D01*
X146562962Y-84928601D01*
X146562638Y-85300567D01*
X146704683Y-85644343D01*
X146737800Y-85677518D01*
X146737800Y-89855198D01*
X145783320Y-90809678D01*
X145737833Y-90809638D01*
X145616200Y-90859896D01*
X145616200Y-90605463D01*
X145648392Y-90573327D01*
X145791038Y-90229799D01*
X145791362Y-89857833D01*
X145649317Y-89514057D01*
X145616200Y-89480882D01*
X145616200Y-80451802D01*
X146566002Y-79502000D01*
X151638000Y-79502000D01*
X151638000Y-98298000D01*
X151638000Y-98298000D01*
G37*
X151638000Y-98298000D02*
X146464402Y-98298000D01*
X145616200Y-97449798D01*
X145616200Y-92629809D01*
X145736201Y-92679638D01*
X146108167Y-92679962D01*
X146451943Y-92537917D01*
X146715192Y-92275127D01*
X146857838Y-91931599D01*
X146857879Y-91884723D01*
X148035201Y-90707401D01*
X148199948Y-90460839D01*
X148257800Y-90170000D01*
X148257800Y-85677863D01*
X148289992Y-85645727D01*
X148432638Y-85302199D01*
X148432962Y-84930233D01*
X148290917Y-84586457D01*
X148028127Y-84323208D01*
X147684599Y-84180562D01*
X147312633Y-84180238D01*
X146968857Y-84322283D01*
X146705608Y-84585073D01*
X146562962Y-84928601D01*
X146562638Y-85300567D01*
X146704683Y-85644343D01*
X146737800Y-85677518D01*
X146737800Y-89855198D01*
X145783320Y-90809678D01*
X145737833Y-90809638D01*
X145616200Y-90859896D01*
X145616200Y-90605463D01*
X145648392Y-90573327D01*
X145791038Y-90229799D01*
X145791362Y-89857833D01*
X145649317Y-89514057D01*
X145616200Y-89480882D01*
X145616200Y-80451802D01*
X146566002Y-79502000D01*
X151638000Y-79502000D01*
X151638000Y-98298000D01*
G36*
X141432162Y-79797801D02*
X141431838Y-80169767D01*
X141573883Y-80513543D01*
X141607000Y-80546718D01*
X141607000Y-83012112D01*
X141292833Y-83011838D01*
X140949057Y-83153883D01*
X140685808Y-83416673D01*
X140543162Y-83760201D01*
X140542838Y-84132167D01*
X140684883Y-84475943D01*
X140718000Y-84509118D01*
X140718000Y-85029198D01*
X140550898Y-85196300D01*
X140480033Y-85196238D01*
X140136257Y-85338283D01*
X139873008Y-85601073D01*
X139730362Y-85944601D01*
X139730038Y-86316567D01*
X139872083Y-86660343D01*
X140134873Y-86923592D01*
X140478401Y-87066238D01*
X140850367Y-87066562D01*
X141194143Y-86924517D01*
X141457392Y-86661727D01*
X141600038Y-86318199D01*
X141600057Y-86296745D01*
X141607000Y-86289802D01*
X141607000Y-88032737D01*
X141574808Y-88064873D01*
X141432162Y-88408401D01*
X141431838Y-88780367D01*
X141573883Y-89124143D01*
X141607000Y-89157318D01*
X141607000Y-97409000D01*
X141635209Y-97550812D01*
X141635038Y-97746567D01*
X141777083Y-98090343D01*
X141984378Y-98298000D01*
X140927202Y-98298000D01*
X134694200Y-92064998D01*
X134694200Y-87726777D01*
X134906767Y-87726962D01*
X135250543Y-87584917D01*
X135513792Y-87322127D01*
X135656438Y-86978599D01*
X135656762Y-86606633D01*
X135514717Y-86262857D01*
X135430800Y-86178793D01*
X135430800Y-84820602D01*
X135569802Y-84681600D01*
X136648337Y-84681600D01*
X136680473Y-84713792D01*
X137024001Y-84856438D01*
X137395967Y-84856762D01*
X137739743Y-84714717D01*
X138002992Y-84451927D01*
X138145638Y-84108399D01*
X138145962Y-83736433D01*
X138003917Y-83392657D01*
X137799809Y-83188193D01*
X141486002Y-79502000D01*
X141554990Y-79502000D01*
X141432162Y-79797801D01*
X141432162Y-79797801D01*
G37*
X141432162Y-79797801D02*
X141431838Y-80169767D01*
X141573883Y-80513543D01*
X141607000Y-80546718D01*
X141607000Y-83012112D01*
X141292833Y-83011838D01*
X140949057Y-83153883D01*
X140685808Y-83416673D01*
X140543162Y-83760201D01*
X140542838Y-84132167D01*
X140684883Y-84475943D01*
X140718000Y-84509118D01*
X140718000Y-85029198D01*
X140550898Y-85196300D01*
X140480033Y-85196238D01*
X140136257Y-85338283D01*
X139873008Y-85601073D01*
X139730362Y-85944601D01*
X139730038Y-86316567D01*
X139872083Y-86660343D01*
X140134873Y-86923592D01*
X140478401Y-87066238D01*
X140850367Y-87066562D01*
X141194143Y-86924517D01*
X141457392Y-86661727D01*
X141600038Y-86318199D01*
X141600057Y-86296745D01*
X141607000Y-86289802D01*
X141607000Y-88032737D01*
X141574808Y-88064873D01*
X141432162Y-88408401D01*
X141431838Y-88780367D01*
X141573883Y-89124143D01*
X141607000Y-89157318D01*
X141607000Y-97409000D01*
X141635209Y-97550812D01*
X141635038Y-97746567D01*
X141777083Y-98090343D01*
X141984378Y-98298000D01*
X140927202Y-98298000D01*
X134694200Y-92064998D01*
X134694200Y-87726777D01*
X134906767Y-87726962D01*
X135250543Y-87584917D01*
X135513792Y-87322127D01*
X135656438Y-86978599D01*
X135656762Y-86606633D01*
X135514717Y-86262857D01*
X135430800Y-86178793D01*
X135430800Y-84820602D01*
X135569802Y-84681600D01*
X136648337Y-84681600D01*
X136680473Y-84713792D01*
X137024001Y-84856438D01*
X137395967Y-84856762D01*
X137739743Y-84714717D01*
X138002992Y-84451927D01*
X138145638Y-84108399D01*
X138145962Y-83736433D01*
X138003917Y-83392657D01*
X137799809Y-83188193D01*
X141486002Y-79502000D01*
X141554990Y-79502000D01*
X141432162Y-79797801D01*
G36*
X138777598Y-98298000D02*
X137237514Y-98298000D01*
X137469592Y-98066327D01*
X137612238Y-97722799D01*
X137612562Y-97350833D01*
X137470517Y-97007057D01*
X137207727Y-96743808D01*
X136864199Y-96601162D01*
X136817323Y-96601121D01*
X133754400Y-93538198D01*
X133754400Y-93274802D01*
X138777598Y-98298000D01*
X138777598Y-98298000D01*
G37*
X138777598Y-98298000D02*
X137237514Y-98298000D01*
X137469592Y-98066327D01*
X137612238Y-97722799D01*
X137612562Y-97350833D01*
X137470517Y-97007057D01*
X137207727Y-96743808D01*
X136864199Y-96601162D01*
X136817323Y-96601121D01*
X133754400Y-93538198D01*
X133754400Y-93274802D01*
X138777598Y-98298000D01*
G36*
X136845198Y-81993200D02*
X136581802Y-81993200D01*
X137375880Y-81199122D01*
X137421367Y-81199162D01*
X137765143Y-81057117D01*
X138028392Y-80794327D01*
X138171038Y-80450799D01*
X138171362Y-80078833D01*
X138029317Y-79735057D01*
X137796666Y-79502000D01*
X139336398Y-79502000D01*
X136845198Y-81993200D01*
X136845198Y-81993200D01*
G37*
X136845198Y-81993200D02*
X136581802Y-81993200D01*
X137375880Y-81199122D01*
X137421367Y-81199162D01*
X137765143Y-81057117D01*
X138028392Y-80794327D01*
X138171038Y-80450799D01*
X138171362Y-80078833D01*
X138029317Y-79735057D01*
X137796666Y-79502000D01*
X139336398Y-79502000D01*
X136845198Y-81993200D01*
M02*
