M48
;DRILL file {KiCad 4.0.0-rc1-stable} date 11/13/2015 10:57:40 PM
;FORMAT={-:-/ absolute / inch / decimal}
FMAT,2
INCH,TZ
T1C0.016
T2C0.104
%
G90
G05
M72
T1
X5.127Y-3.354
X5.145Y-3.787
X5.265Y-3.839
X5.29Y-3.158
X5.304Y-3.417
X5.35Y-3.157
X5.381Y-3.84
X5.402Y-3.304
X5.403Y-3.16
X5.41Y-3.5825
X5.439Y-3.851
X5.45Y-3.16
X5.538Y-3.391
X5.55Y-3.7025
X5.55Y-3.851
X5.554Y-3.161
X5.57Y-3.305
X5.577Y-3.393
X5.605Y-3.149
X5.605Y-3.488
X5.613Y-3.841
X5.703Y-3.545
X5.745Y-3.612
X5.807Y-3.351
X5.85Y-3.35
T2
X5.Y-3.
X5.Y-4.
X6.Y-3.
X6.Y-4.
T0
M30
