G04 #@! TF.FileFunction,Soldermask,Top*
%FSLAX46Y46*%
G04 Gerber Fmt 4.6, Leading zero omitted, Abs format (unit mm)*
G04 Created by KiCad (PCBNEW 4.0.0-rc1-stable) date 11/13/2015 10:57:34 PM*
%MOMM*%
G01*
G04 APERTURE LIST*
%ADD10C,0.100000*%
%ADD11R,1.598880X1.598880*%
%ADD12R,1.200100X1.200100*%
%ADD13R,0.900000X1.200000*%
%ADD14R,0.800000X1.200000*%
%ADD15C,3.050000*%
%ADD16R,1.150000X1.200000*%
%ADD17R,1.200000X1.150000*%
%ADD18R,1.924000X2.940000*%
%ADD19R,0.900000X1.300000*%
%ADD20R,1.300000X0.900000*%
%ADD21R,0.500000X0.400000*%
%ADD22R,0.400000X0.500000*%
%ADD23C,0.250000*%
%ADD24O,1.245000X0.650000*%
%ADD25R,1.245000X0.650000*%
%ADD26R,0.650000X1.245000*%
G04 APERTURE END LIST*
D10*
D11*
X130624580Y-94792800D03*
X132722620Y-94792800D03*
D12*
X148473200Y-95265240D03*
X146573200Y-95265240D03*
X147523200Y-97264220D03*
X130723600Y-87589360D03*
X132623600Y-87589360D03*
X131673600Y-85590380D03*
D13*
X135947000Y-81523000D03*
D14*
X134347000Y-81523000D03*
X135147000Y-81523000D03*
D13*
X133547000Y-81523000D03*
D14*
X135147000Y-83323000D03*
D13*
X135947000Y-83323000D03*
D14*
X134347000Y-83323000D03*
D13*
X133547000Y-83323000D03*
D15*
X127000000Y-76200000D03*
X152400000Y-76200000D03*
X152400000Y-101600000D03*
X127000000Y-101600000D03*
D16*
X135534400Y-90310400D03*
X135534400Y-88810400D03*
X137617200Y-92722000D03*
X137617200Y-94222000D03*
D17*
X130872800Y-90119200D03*
X132372800Y-90119200D03*
X130872800Y-92557600D03*
X132372800Y-92557600D03*
D16*
X144195800Y-93382400D03*
X144195800Y-94882400D03*
D17*
X147662200Y-93040200D03*
X149162200Y-93040200D03*
X141720000Y-92760800D03*
X140220000Y-92760800D03*
X147713000Y-90754200D03*
X149213000Y-90754200D03*
D16*
X148386800Y-88227600D03*
X148386800Y-86727600D03*
D18*
X133350000Y-77470000D03*
X135890000Y-77470000D03*
X138430000Y-77470000D03*
X140970000Y-77470000D03*
X143510000Y-77470000D03*
X146050000Y-77470000D03*
X133350000Y-77470000D03*
X135890000Y-77470000D03*
X138430000Y-77470000D03*
X140970000Y-77470000D03*
X143510000Y-77470000D03*
X146050000Y-77470000D03*
X146050000Y-100330000D03*
X143510000Y-100330000D03*
X140970000Y-100330000D03*
X138430000Y-100330000D03*
X135890000Y-100330000D03*
X133350000Y-100330000D03*
X146050000Y-100330000D03*
X143510000Y-100330000D03*
X140970000Y-100330000D03*
X138430000Y-100330000D03*
X135890000Y-100330000D03*
X133350000Y-100330000D03*
D19*
X140093000Y-95275400D03*
X141593000Y-95275400D03*
D20*
X134975600Y-94425200D03*
X134975600Y-92925200D03*
D21*
X141400000Y-89875000D03*
X141400000Y-89225000D03*
X141400000Y-88575000D03*
X141400000Y-87925000D03*
D22*
X140675000Y-87200000D03*
X140025000Y-87200000D03*
X139375000Y-87200000D03*
X138725000Y-87200000D03*
D21*
X138000000Y-87925000D03*
X138000000Y-88575000D03*
X138000000Y-89225000D03*
X138000000Y-89875000D03*
D22*
X138725000Y-90600000D03*
X139375000Y-90600000D03*
X140025000Y-90600000D03*
X140675000Y-90600000D03*
D23*
X141400000Y-90600000D03*
D24*
X145953700Y-88537800D03*
D25*
X145953700Y-87737800D03*
X145953700Y-86937800D03*
X145953700Y-86137800D03*
X145953700Y-85337800D03*
X145953700Y-84537800D03*
D26*
X144856200Y-84440300D03*
D25*
X143758700Y-84537800D03*
X143758700Y-85337800D03*
X143758700Y-86137800D03*
X143758700Y-86937800D03*
X143758700Y-87737800D03*
X143758700Y-88537800D03*
D26*
X144856200Y-88605300D03*
D25*
X145956200Y-88537800D03*
M02*
