G04 #@! TF.FileFunction,Copper,L1,Top,Signal*
%FSLAX46Y46*%
G04 Gerber Fmt 4.6, Leading zero omitted, Abs format (unit mm)*
G04 Created by KiCad (PCBNEW 4.0.0-rc1-stable) date 11/13/2015 10:57:34 PM*
%MOMM*%
G01*
G04 APERTURE LIST*
%ADD10C,0.100000*%
%ADD11R,1.198880X1.198880*%
%ADD12R,0.800100X0.800100*%
%ADD13R,0.500000X0.800000*%
%ADD14R,0.400000X0.800000*%
%ADD15C,2.650000*%
%ADD16R,0.750000X0.800000*%
%ADD17R,0.800000X0.750000*%
%ADD18R,1.524000X2.540000*%
%ADD19R,0.500000X0.900000*%
%ADD20R,0.900000X0.500000*%
%ADD21R,0.400000X0.300000*%
%ADD22R,0.300000X0.400000*%
%ADD23C,0.150000*%
%ADD24O,1.145000X0.550000*%
%ADD25R,1.145000X0.550000*%
%ADD26R,0.550000X1.145000*%
%ADD27C,0.600000*%
%ADD28C,0.250000*%
%ADD29C,0.381000*%
%ADD30C,0.254000*%
G04 APERTURE END LIST*
D10*
D11*
X130624580Y-94792800D03*
X132722620Y-94792800D03*
D12*
X148473200Y-95265240D03*
X146573200Y-95265240D03*
X147523200Y-97264220D03*
X130723600Y-87589360D03*
X132623600Y-87589360D03*
X131673600Y-85590380D03*
D13*
X135947000Y-81523000D03*
D14*
X134347000Y-81523000D03*
X135147000Y-81523000D03*
D13*
X133547000Y-81523000D03*
D14*
X135147000Y-83323000D03*
D13*
X135947000Y-83323000D03*
D14*
X134347000Y-83323000D03*
D13*
X133547000Y-83323000D03*
D15*
X127000000Y-76200000D03*
X152400000Y-76200000D03*
X152400000Y-101600000D03*
X127000000Y-101600000D03*
D16*
X135534400Y-90310400D03*
X135534400Y-88810400D03*
X137617200Y-92722000D03*
X137617200Y-94222000D03*
D17*
X130872800Y-90119200D03*
X132372800Y-90119200D03*
X130872800Y-92557600D03*
X132372800Y-92557600D03*
D16*
X144195800Y-93382400D03*
X144195800Y-94882400D03*
D17*
X147662200Y-93040200D03*
X149162200Y-93040200D03*
X141720000Y-92760800D03*
X140220000Y-92760800D03*
X147713000Y-90754200D03*
X149213000Y-90754200D03*
D16*
X148386800Y-88227600D03*
X148386800Y-86727600D03*
D18*
X133350000Y-77470000D03*
X135890000Y-77470000D03*
X138430000Y-77470000D03*
X140970000Y-77470000D03*
X143510000Y-77470000D03*
X146050000Y-77470000D03*
X146050000Y-100330000D03*
X143510000Y-100330000D03*
X140970000Y-100330000D03*
X138430000Y-100330000D03*
X135890000Y-100330000D03*
X133350000Y-100330000D03*
D19*
X140093000Y-95275400D03*
X141593000Y-95275400D03*
D20*
X134975600Y-94425200D03*
X134975600Y-92925200D03*
D21*
X141400000Y-89875000D03*
X141400000Y-89225000D03*
X141400000Y-88575000D03*
X141400000Y-87925000D03*
D22*
X140675000Y-87200000D03*
X140025000Y-87200000D03*
X139375000Y-87200000D03*
X138725000Y-87200000D03*
D21*
X138000000Y-87925000D03*
X138000000Y-88575000D03*
X138000000Y-89225000D03*
X138000000Y-89875000D03*
D22*
X138725000Y-90600000D03*
X139375000Y-90600000D03*
X140025000Y-90600000D03*
X140675000Y-90600000D03*
D23*
X141400000Y-90600000D03*
D24*
X145953700Y-88537800D03*
D25*
X145953700Y-87737800D03*
X145953700Y-86937800D03*
X145953700Y-86137800D03*
X145953700Y-85337800D03*
X145953700Y-84537800D03*
D26*
X144856200Y-84440300D03*
D25*
X143758700Y-84537800D03*
X143758700Y-85337800D03*
X143758700Y-86137800D03*
X143758700Y-86937800D03*
X143758700Y-87737800D03*
X143758700Y-88537800D03*
D26*
X144856200Y-88605300D03*
D27*
X138150600Y-97815400D03*
X140970000Y-97815400D03*
X138430000Y-80264000D03*
X141071600Y-80289400D03*
X140970000Y-94043500D03*
X141655800Y-86182200D03*
X137414000Y-90995500D03*
X148590000Y-85090000D03*
X130225800Y-85191600D03*
X130683000Y-96189800D03*
X145923000Y-91744800D03*
X147497800Y-85115400D03*
X137210800Y-83921600D03*
X141478000Y-83947000D03*
X140665200Y-86131400D03*
X134721600Y-86791800D03*
X134366000Y-80213200D03*
X133731000Y-97510600D03*
X137236200Y-80264000D03*
X136677400Y-97536000D03*
X142570200Y-97561400D03*
X142367000Y-79984600D03*
X142367000Y-88595200D03*
X135890000Y-80187800D03*
X144856200Y-90043000D03*
D28*
X137287000Y-92421200D02*
X137906000Y-92421200D01*
X139375000Y-90952200D02*
X139375000Y-90600000D01*
X137906000Y-92421200D02*
X139375000Y-90952200D01*
X137287000Y-92421200D02*
X137287000Y-92313000D01*
X137287000Y-92313000D02*
X135534400Y-90560400D01*
D29*
X138150600Y-97815400D02*
X140970000Y-97815400D01*
X140970000Y-100330000D02*
X140970000Y-97815400D01*
X141071600Y-77571600D02*
X141071600Y-80289400D01*
X138430000Y-80264000D02*
X138455400Y-80289400D01*
X138455400Y-80289400D02*
X141071600Y-80289400D01*
X141071600Y-77571600D02*
X140970000Y-77470000D01*
D30*
X141793000Y-95275400D02*
X141793000Y-94866500D01*
X141793000Y-94866500D02*
X140970000Y-94043500D01*
X140970000Y-94043500D02*
X139970000Y-93043500D01*
X139970000Y-93043500D02*
X139970000Y-92760800D01*
X143758700Y-86937800D02*
X142411400Y-86937800D01*
X141400000Y-86438000D02*
X141400000Y-87925000D01*
X141400000Y-86438000D02*
X141655800Y-86182200D01*
X142411400Y-86937800D02*
X141655800Y-86182200D01*
X138725000Y-87200000D02*
X138000000Y-87925000D01*
X132622800Y-90119200D02*
X132622800Y-89569800D01*
X132622800Y-89569800D02*
X131673600Y-88620600D01*
X138725000Y-90600000D02*
X137809500Y-90600000D01*
X137809500Y-90600000D02*
X137414000Y-90995500D01*
X143758700Y-87737800D02*
X143758700Y-86937800D01*
X145953700Y-87737800D02*
X145953700Y-85337800D01*
X145953700Y-86937800D02*
X143758700Y-86937800D01*
X148386800Y-86477600D02*
X148386800Y-85293200D01*
X148386800Y-85293200D02*
X148590000Y-85090000D01*
X149463000Y-90754200D02*
X149463000Y-89932000D01*
X149342600Y-86477600D02*
X148386800Y-86477600D01*
X149860000Y-86995000D02*
X149342600Y-86477600D01*
X149860000Y-89535000D02*
X149860000Y-86995000D01*
X149463000Y-89932000D02*
X149860000Y-89535000D01*
X148386800Y-86477600D02*
X147837400Y-86477600D01*
X147837400Y-86477600D02*
X147377200Y-86937800D01*
X147377200Y-86937800D02*
X145953700Y-86937800D01*
X131673600Y-88620600D02*
X131673600Y-85590380D01*
D28*
X139740600Y-95427800D02*
X138573000Y-95427800D01*
X138573000Y-95427800D02*
X137617200Y-94472000D01*
D29*
X143281400Y-96748600D02*
X131241800Y-96748600D01*
X146050000Y-99517200D02*
X143281400Y-96748600D01*
X131241800Y-96748600D02*
X130683000Y-96189800D01*
X146050000Y-100330000D02*
X146050000Y-99517200D01*
X148158200Y-77470000D02*
X146050000Y-77470000D01*
X150926800Y-80238600D02*
X148158200Y-77470000D01*
X150926800Y-95377000D02*
X150926800Y-80238600D01*
X146050000Y-100330000D02*
X148336000Y-100330000D01*
X148336000Y-100330000D02*
X149809200Y-98856800D01*
X130622800Y-90119200D02*
X130622800Y-87690160D01*
X130622800Y-92557600D02*
X130622800Y-90119200D01*
X130622800Y-92557600D02*
X130622800Y-94791020D01*
X130622800Y-94791020D02*
X130624580Y-94792800D01*
X130624580Y-96105980D02*
X130624580Y-94792800D01*
X130683000Y-96189800D02*
X130624580Y-96105980D01*
D30*
X146050000Y-100330000D02*
X146050000Y-99288600D01*
D29*
X149809200Y-96494600D02*
X150926800Y-95377000D01*
X149809200Y-98856800D02*
X149809200Y-96601240D01*
X130225800Y-86918800D02*
X130225800Y-85191600D01*
X149809200Y-96601240D02*
X149809200Y-96494600D01*
X149809200Y-96601240D02*
X148473200Y-95265240D01*
X130723600Y-87589360D02*
X130723600Y-87416600D01*
X130723600Y-87416600D02*
X130225800Y-86918800D01*
X130622800Y-87690160D02*
X130723600Y-87589360D01*
D28*
X144195800Y-93132400D02*
X144535400Y-93132400D01*
X144535400Y-93132400D02*
X145923000Y-91744800D01*
X147497800Y-85115400D02*
X146920200Y-84537800D01*
X146920200Y-84537800D02*
X145953700Y-84537800D01*
X146328640Y-95265240D02*
X143824200Y-92760800D01*
X143824200Y-92760800D02*
X141970000Y-92760800D01*
X140675000Y-90600000D02*
X140025000Y-90600000D01*
X142249400Y-92964000D02*
X142249400Y-92744800D01*
X142249400Y-92744800D02*
X140675000Y-91170400D01*
X140675000Y-91170400D02*
X140675000Y-90600000D01*
X146573200Y-95265240D02*
X146328640Y-95265240D01*
X137236200Y-83947000D02*
X141478000Y-83947000D01*
X137210800Y-83921600D02*
X137236200Y-83947000D01*
X147904200Y-88274400D02*
X147904200Y-90313000D01*
X147904200Y-90313000D02*
X147463000Y-90754200D01*
X147412200Y-93040200D02*
X147412200Y-90805000D01*
X147412200Y-90805000D02*
X147463000Y-90754200D01*
X147412200Y-90805000D02*
X142330000Y-90805000D01*
X142330000Y-90805000D02*
X141400000Y-89875000D01*
X147412200Y-90805000D02*
X147463000Y-90754200D01*
X141400000Y-89875000D02*
X140954400Y-89875000D01*
X140675000Y-89595600D02*
X140675000Y-87200000D01*
X140675000Y-89595600D02*
X140954400Y-89875000D01*
X142430500Y-82994500D02*
X144259300Y-82994500D01*
X144856200Y-83591400D02*
X144856200Y-84440300D01*
X144259300Y-82994500D02*
X144856200Y-83591400D01*
X148386800Y-88477600D02*
X146013900Y-88477600D01*
X146013900Y-88477600D02*
X145953700Y-88537800D01*
X141478000Y-83947000D02*
X142430500Y-82994500D01*
X142430500Y-82994500D02*
X142443200Y-82981800D01*
X140675000Y-86141200D02*
X140675000Y-87200000D01*
X140665200Y-86131400D02*
X140675000Y-86141200D01*
X132623600Y-87589360D02*
X133924040Y-87589360D01*
X133924040Y-87589360D02*
X134721600Y-86791800D01*
X134975600Y-94625200D02*
X132890220Y-94625200D01*
X132890220Y-94625200D02*
X132722620Y-94792800D01*
X133547000Y-81523000D02*
X133547000Y-77667000D01*
X133547000Y-77667000D02*
X133350000Y-77470000D01*
X129057400Y-96164400D02*
X129057400Y-84531200D01*
X132065600Y-81523000D02*
X133547000Y-81523000D01*
X129057400Y-84531200D02*
X132065600Y-81523000D01*
X133350000Y-77971800D02*
X133350000Y-77470000D01*
X133350000Y-100330000D02*
X133223000Y-100330000D01*
X133223000Y-100330000D02*
X129057400Y-96164400D01*
X129057400Y-96164400D02*
X129044700Y-96151700D01*
X129044700Y-96151700D02*
X129032000Y-96139000D01*
X135890000Y-100330000D02*
X135890000Y-99695000D01*
X135890000Y-99695000D02*
X133731000Y-97510600D01*
X134366000Y-80213200D02*
X134366000Y-81504000D01*
X134366000Y-81504000D02*
X134347000Y-81523000D01*
X135890000Y-78689200D02*
X134366000Y-80213200D01*
X135839200Y-100279200D02*
X135890000Y-100330000D01*
X135890000Y-77470000D02*
X135890000Y-78689200D01*
X135890000Y-99542600D02*
X135890000Y-100330000D01*
X135890000Y-78359000D02*
X135890000Y-77470000D01*
X137236200Y-80264000D02*
X137206000Y-80264000D01*
X137206000Y-80264000D02*
X135947000Y-81523000D01*
X138430000Y-79070200D02*
X137236200Y-80264000D01*
X138430000Y-77470000D02*
X138430000Y-79070200D01*
X136677400Y-97536000D02*
X138430000Y-99288600D01*
X138430000Y-99288600D02*
X138430000Y-100330000D01*
X143510000Y-98501200D02*
X143510000Y-100330000D01*
X142570200Y-97561400D02*
X143510000Y-98501200D01*
X143510000Y-99263200D02*
X143510000Y-100330000D01*
X143510000Y-78841600D02*
X143510000Y-77470000D01*
X142417800Y-79933800D02*
X143510000Y-78841600D01*
X142367000Y-88595200D02*
X143701300Y-88595200D01*
X143701300Y-88595200D02*
X143758700Y-88537800D01*
X143510000Y-100330000D02*
X143510000Y-99034600D01*
X142346800Y-88575000D02*
X141400000Y-88575000D01*
X142367000Y-88595200D02*
X142346800Y-88575000D01*
X135147000Y-80930800D02*
X135147000Y-81523000D01*
X135890000Y-80187800D02*
X135147000Y-80930800D01*
X144856200Y-90043000D02*
X143560800Y-90043000D01*
X142742800Y-89225000D02*
X141400000Y-89225000D01*
X143560800Y-90043000D02*
X142742800Y-89225000D01*
X144856200Y-90043000D02*
X144856200Y-88605300D01*
X144856200Y-88605300D02*
X144856200Y-88849200D01*
X140025000Y-86608800D02*
X139293600Y-85877400D01*
X134347000Y-83323000D02*
X134347000Y-84182000D01*
X140025000Y-86608800D02*
X140025000Y-87200000D01*
X134347000Y-84156600D02*
X134347000Y-84182000D01*
X136067800Y-85877400D02*
X134347000Y-84156600D01*
X139293600Y-85877400D02*
X136067800Y-85877400D01*
X139039600Y-86436200D02*
X135763000Y-86436200D01*
X139375000Y-86771600D02*
X139039600Y-86436200D01*
X139375000Y-87200000D02*
X139375000Y-86771600D01*
X133547000Y-84220200D02*
X133547000Y-83323000D01*
X135763000Y-86436200D02*
X133547000Y-84220200D01*
X136474200Y-84658200D02*
X143814800Y-84658200D01*
X135947000Y-83323000D02*
X135947000Y-84131000D01*
X135947000Y-84131000D02*
X136474200Y-84658200D01*
X135147000Y-83323000D02*
X135147000Y-84093000D01*
X136366400Y-85312400D02*
X143814800Y-85344000D01*
X135147000Y-84093000D02*
X136366400Y-85312400D01*
D30*
G36*
X139185000Y-92259490D02*
X139185000Y-92475050D01*
X139343750Y-92633800D01*
X140093000Y-92633800D01*
X140093000Y-92613800D01*
X140347000Y-92613800D01*
X140347000Y-92633800D01*
X140367000Y-92633800D01*
X140367000Y-92887800D01*
X140347000Y-92887800D01*
X140347000Y-93612050D01*
X140505750Y-93770800D01*
X140746309Y-93770800D01*
X140979698Y-93674127D01*
X140981068Y-93672757D01*
X141068110Y-93732231D01*
X141320000Y-93783240D01*
X142120000Y-93783240D01*
X142355317Y-93738962D01*
X142436363Y-93686810D01*
X142540239Y-93666148D01*
X142757768Y-93520800D01*
X143173360Y-93520800D01*
X143173360Y-93782400D01*
X143217638Y-94017717D01*
X143284129Y-94121046D01*
X143282473Y-94122702D01*
X143185800Y-94356091D01*
X143185800Y-94596650D01*
X143344550Y-94755400D01*
X144068800Y-94755400D01*
X144068800Y-94735400D01*
X144322800Y-94735400D01*
X144322800Y-94755400D01*
X144342800Y-94755400D01*
X144342800Y-95009400D01*
X144322800Y-95009400D01*
X144322800Y-95758650D01*
X144481550Y-95917400D01*
X144697110Y-95917400D01*
X144930499Y-95820727D01*
X145109127Y-95642098D01*
X145205800Y-95408709D01*
X145205800Y-95217202D01*
X145525710Y-95537112D01*
X145525710Y-95665290D01*
X145569988Y-95900607D01*
X145709060Y-96116731D01*
X145921260Y-96261721D01*
X146173150Y-96312730D01*
X146795110Y-96312730D01*
X146763452Y-96325843D01*
X146584823Y-96504471D01*
X146488150Y-96737860D01*
X146488150Y-96978470D01*
X146646900Y-97137220D01*
X147396200Y-97137220D01*
X147396200Y-96387920D01*
X147250043Y-96241763D01*
X147424691Y-96129380D01*
X147523832Y-95984283D01*
X147609060Y-96116731D01*
X147794609Y-96243511D01*
X147650200Y-96387920D01*
X147650200Y-97137220D01*
X148399500Y-97137220D01*
X148558250Y-96978470D01*
X148558250Y-96737860D01*
X148461577Y-96504471D01*
X148282948Y-96325843D01*
X148251290Y-96312730D01*
X148353256Y-96312730D01*
X148983700Y-96943173D01*
X148983700Y-98298000D01*
X148052625Y-98298000D01*
X148282948Y-98202597D01*
X148461577Y-98023969D01*
X148558250Y-97790580D01*
X148558250Y-97549970D01*
X148399500Y-97391220D01*
X147650200Y-97391220D01*
X147650200Y-97411220D01*
X147396200Y-97411220D01*
X147396200Y-97391220D01*
X146646900Y-97391220D01*
X146488150Y-97549970D01*
X146488150Y-97790580D01*
X146584823Y-98023969D01*
X146763452Y-98202597D01*
X146993775Y-98298000D01*
X145998233Y-98298000D01*
X143865117Y-96164883D01*
X143597306Y-95985937D01*
X143281400Y-95923100D01*
X142448429Y-95923100D01*
X142478000Y-95851710D01*
X142478000Y-95561150D01*
X142319250Y-95402400D01*
X141718000Y-95402400D01*
X141718000Y-95422400D01*
X141468000Y-95422400D01*
X141468000Y-95402400D01*
X141446000Y-95402400D01*
X141446000Y-95168150D01*
X143185800Y-95168150D01*
X143185800Y-95408709D01*
X143282473Y-95642098D01*
X143461101Y-95820727D01*
X143694490Y-95917400D01*
X143910050Y-95917400D01*
X144068800Y-95758650D01*
X144068800Y-95009400D01*
X143344550Y-95009400D01*
X143185800Y-95168150D01*
X141446000Y-95168150D01*
X141446000Y-95148400D01*
X141468000Y-95148400D01*
X141468000Y-94349150D01*
X141718000Y-94349150D01*
X141718000Y-95148400D01*
X142319250Y-95148400D01*
X142478000Y-94989650D01*
X142478000Y-94699090D01*
X142381327Y-94465701D01*
X142202698Y-94287073D01*
X141969309Y-94190400D01*
X141876750Y-94190400D01*
X141718000Y-94349150D01*
X141468000Y-94349150D01*
X141309250Y-94190400D01*
X141216691Y-94190400D01*
X140983302Y-94287073D01*
X140842064Y-94428310D01*
X140807090Y-94373959D01*
X140594890Y-94228969D01*
X140343000Y-94177960D01*
X139843000Y-94177960D01*
X139607683Y-94222238D01*
X139391559Y-94361310D01*
X139246569Y-94573510D01*
X139227475Y-94667800D01*
X138887802Y-94667800D01*
X138639640Y-94419638D01*
X138639640Y-93822000D01*
X138595362Y-93586683D01*
X138521580Y-93472022D01*
X138588631Y-93373890D01*
X138639640Y-93122000D01*
X138639640Y-93046550D01*
X139185000Y-93046550D01*
X139185000Y-93262110D01*
X139281673Y-93495499D01*
X139460302Y-93674127D01*
X139693691Y-93770800D01*
X139934250Y-93770800D01*
X140093000Y-93612050D01*
X140093000Y-92887800D01*
X139343750Y-92887800D01*
X139185000Y-93046550D01*
X138639640Y-93046550D01*
X138639640Y-92762362D01*
X139215044Y-92186958D01*
X139185000Y-92259490D01*
X139185000Y-92259490D01*
G37*
X139185000Y-92259490D02*
X139185000Y-92475050D01*
X139343750Y-92633800D01*
X140093000Y-92633800D01*
X140093000Y-92613800D01*
X140347000Y-92613800D01*
X140347000Y-92633800D01*
X140367000Y-92633800D01*
X140367000Y-92887800D01*
X140347000Y-92887800D01*
X140347000Y-93612050D01*
X140505750Y-93770800D01*
X140746309Y-93770800D01*
X140979698Y-93674127D01*
X140981068Y-93672757D01*
X141068110Y-93732231D01*
X141320000Y-93783240D01*
X142120000Y-93783240D01*
X142355317Y-93738962D01*
X142436363Y-93686810D01*
X142540239Y-93666148D01*
X142757768Y-93520800D01*
X143173360Y-93520800D01*
X143173360Y-93782400D01*
X143217638Y-94017717D01*
X143284129Y-94121046D01*
X143282473Y-94122702D01*
X143185800Y-94356091D01*
X143185800Y-94596650D01*
X143344550Y-94755400D01*
X144068800Y-94755400D01*
X144068800Y-94735400D01*
X144322800Y-94735400D01*
X144322800Y-94755400D01*
X144342800Y-94755400D01*
X144342800Y-95009400D01*
X144322800Y-95009400D01*
X144322800Y-95758650D01*
X144481550Y-95917400D01*
X144697110Y-95917400D01*
X144930499Y-95820727D01*
X145109127Y-95642098D01*
X145205800Y-95408709D01*
X145205800Y-95217202D01*
X145525710Y-95537112D01*
X145525710Y-95665290D01*
X145569988Y-95900607D01*
X145709060Y-96116731D01*
X145921260Y-96261721D01*
X146173150Y-96312730D01*
X146795110Y-96312730D01*
X146763452Y-96325843D01*
X146584823Y-96504471D01*
X146488150Y-96737860D01*
X146488150Y-96978470D01*
X146646900Y-97137220D01*
X147396200Y-97137220D01*
X147396200Y-96387920D01*
X147250043Y-96241763D01*
X147424691Y-96129380D01*
X147523832Y-95984283D01*
X147609060Y-96116731D01*
X147794609Y-96243511D01*
X147650200Y-96387920D01*
X147650200Y-97137220D01*
X148399500Y-97137220D01*
X148558250Y-96978470D01*
X148558250Y-96737860D01*
X148461577Y-96504471D01*
X148282948Y-96325843D01*
X148251290Y-96312730D01*
X148353256Y-96312730D01*
X148983700Y-96943173D01*
X148983700Y-98298000D01*
X148052625Y-98298000D01*
X148282948Y-98202597D01*
X148461577Y-98023969D01*
X148558250Y-97790580D01*
X148558250Y-97549970D01*
X148399500Y-97391220D01*
X147650200Y-97391220D01*
X147650200Y-97411220D01*
X147396200Y-97411220D01*
X147396200Y-97391220D01*
X146646900Y-97391220D01*
X146488150Y-97549970D01*
X146488150Y-97790580D01*
X146584823Y-98023969D01*
X146763452Y-98202597D01*
X146993775Y-98298000D01*
X145998233Y-98298000D01*
X143865117Y-96164883D01*
X143597306Y-95985937D01*
X143281400Y-95923100D01*
X142448429Y-95923100D01*
X142478000Y-95851710D01*
X142478000Y-95561150D01*
X142319250Y-95402400D01*
X141718000Y-95402400D01*
X141718000Y-95422400D01*
X141468000Y-95422400D01*
X141468000Y-95402400D01*
X141446000Y-95402400D01*
X141446000Y-95168150D01*
X143185800Y-95168150D01*
X143185800Y-95408709D01*
X143282473Y-95642098D01*
X143461101Y-95820727D01*
X143694490Y-95917400D01*
X143910050Y-95917400D01*
X144068800Y-95758650D01*
X144068800Y-95009400D01*
X143344550Y-95009400D01*
X143185800Y-95168150D01*
X141446000Y-95168150D01*
X141446000Y-95148400D01*
X141468000Y-95148400D01*
X141468000Y-94349150D01*
X141718000Y-94349150D01*
X141718000Y-95148400D01*
X142319250Y-95148400D01*
X142478000Y-94989650D01*
X142478000Y-94699090D01*
X142381327Y-94465701D01*
X142202698Y-94287073D01*
X141969309Y-94190400D01*
X141876750Y-94190400D01*
X141718000Y-94349150D01*
X141468000Y-94349150D01*
X141309250Y-94190400D01*
X141216691Y-94190400D01*
X140983302Y-94287073D01*
X140842064Y-94428310D01*
X140807090Y-94373959D01*
X140594890Y-94228969D01*
X140343000Y-94177960D01*
X139843000Y-94177960D01*
X139607683Y-94222238D01*
X139391559Y-94361310D01*
X139246569Y-94573510D01*
X139227475Y-94667800D01*
X138887802Y-94667800D01*
X138639640Y-94419638D01*
X138639640Y-93822000D01*
X138595362Y-93586683D01*
X138521580Y-93472022D01*
X138588631Y-93373890D01*
X138639640Y-93122000D01*
X138639640Y-93046550D01*
X139185000Y-93046550D01*
X139185000Y-93262110D01*
X139281673Y-93495499D01*
X139460302Y-93674127D01*
X139693691Y-93770800D01*
X139934250Y-93770800D01*
X140093000Y-93612050D01*
X140093000Y-92887800D01*
X139343750Y-92887800D01*
X139185000Y-93046550D01*
X138639640Y-93046550D01*
X138639640Y-92762362D01*
X139215044Y-92186958D01*
X139185000Y-92259490D01*
G36*
X141635038Y-97746567D02*
X141777083Y-98090343D01*
X141984378Y-98298000D01*
X138514202Y-98298000D01*
X137790302Y-97574100D01*
X141635188Y-97574100D01*
X141635038Y-97746567D01*
X141635038Y-97746567D01*
G37*
X141635038Y-97746567D02*
X141777083Y-98090343D01*
X141984378Y-98298000D01*
X138514202Y-98298000D01*
X137790302Y-97574100D01*
X141635188Y-97574100D01*
X141635038Y-97746567D01*
G36*
X135763000Y-87196200D02*
X137538011Y-87196200D01*
X137440301Y-87236673D01*
X137261673Y-87415302D01*
X137165000Y-87648691D01*
X137165000Y-87691250D01*
X137323750Y-87850000D01*
X137528837Y-87850000D01*
X137440301Y-87886673D01*
X137326975Y-88000000D01*
X137323750Y-88000000D01*
X137165000Y-88158750D01*
X137165000Y-88201309D01*
X137185168Y-88250000D01*
X137165000Y-88298691D01*
X137165000Y-88341250D01*
X137323750Y-88500000D01*
X137326975Y-88500000D01*
X137401974Y-88575000D01*
X137326975Y-88650000D01*
X137323750Y-88650000D01*
X137165000Y-88808750D01*
X137165000Y-88851309D01*
X137185168Y-88900000D01*
X137165000Y-88948691D01*
X137165000Y-88991250D01*
X137323750Y-89150000D01*
X137326975Y-89150000D01*
X137401974Y-89225000D01*
X137326975Y-89300000D01*
X137323750Y-89300000D01*
X137165000Y-89458750D01*
X137165000Y-89501309D01*
X137185168Y-89550000D01*
X137165000Y-89598691D01*
X137165000Y-89641250D01*
X137323750Y-89800000D01*
X137326975Y-89800000D01*
X137440301Y-89913327D01*
X137528837Y-89950000D01*
X137323750Y-89950000D01*
X137165000Y-90108750D01*
X137165000Y-90151309D01*
X137261673Y-90384698D01*
X137440301Y-90563327D01*
X137673690Y-90660000D01*
X137741250Y-90660000D01*
X137900000Y-90501250D01*
X137900000Y-89950000D01*
X137801250Y-89950000D01*
X137900000Y-89851250D01*
X137900000Y-89248750D01*
X137876250Y-89225000D01*
X137900000Y-89201250D01*
X137900000Y-88598750D01*
X137876250Y-88575000D01*
X137900000Y-88551250D01*
X137900000Y-87948750D01*
X137801250Y-87850000D01*
X137900000Y-87850000D01*
X137900000Y-87778000D01*
X138054974Y-87778000D01*
X138100000Y-87823026D01*
X138100000Y-87850000D01*
X138126975Y-87850000D01*
X138147000Y-87870026D01*
X138147000Y-87901750D01*
X138100000Y-87948750D01*
X138100000Y-88551250D01*
X138123750Y-88575000D01*
X138100000Y-88598750D01*
X138100000Y-89201250D01*
X138123750Y-89225000D01*
X138100000Y-89248750D01*
X138100000Y-89851250D01*
X138147000Y-89898250D01*
X138147000Y-89929974D01*
X138126975Y-89950000D01*
X138100000Y-89950000D01*
X138100000Y-89976974D01*
X138036673Y-90040301D01*
X137940000Y-90273690D01*
X137940000Y-90341250D01*
X138098750Y-90500000D01*
X138100000Y-90500000D01*
X138100000Y-90501250D01*
X138258750Y-90660000D01*
X138326310Y-90660000D01*
X138559699Y-90563327D01*
X138577560Y-90545466D01*
X138577560Y-90674838D01*
X138552398Y-90700000D01*
X138098750Y-90700000D01*
X137940000Y-90858750D01*
X137940000Y-90926310D01*
X138036673Y-91159699D01*
X138064686Y-91187712D01*
X137650600Y-91601798D01*
X136556840Y-90508038D01*
X136556840Y-89910400D01*
X136512562Y-89675083D01*
X136446071Y-89571754D01*
X136447727Y-89570098D01*
X136544400Y-89336709D01*
X136544400Y-89096150D01*
X136385650Y-88937400D01*
X135661400Y-88937400D01*
X135661400Y-88957400D01*
X135407400Y-88957400D01*
X135407400Y-88937400D01*
X134683150Y-88937400D01*
X134524400Y-89096150D01*
X134524400Y-89336709D01*
X134621073Y-89570098D01*
X134622443Y-89571468D01*
X134562969Y-89658510D01*
X134511960Y-89910400D01*
X134511960Y-90710400D01*
X134556238Y-90945717D01*
X134695310Y-91161841D01*
X134907510Y-91306831D01*
X135159400Y-91357840D01*
X135257038Y-91357840D01*
X136578300Y-92679102D01*
X136584852Y-92712039D01*
X136594760Y-92726867D01*
X136594760Y-93122000D01*
X136639038Y-93357317D01*
X136712820Y-93471978D01*
X136645769Y-93570110D01*
X136594760Y-93822000D01*
X136594760Y-94622000D01*
X136639038Y-94857317D01*
X136778110Y-95073441D01*
X136990310Y-95218431D01*
X137242200Y-95269440D01*
X137339838Y-95269440D01*
X137993498Y-95923100D01*
X133669737Y-95923100D01*
X133773501Y-95856330D01*
X133918491Y-95644130D01*
X133969500Y-95392240D01*
X133969500Y-95385200D01*
X134975600Y-95385200D01*
X135266439Y-95327348D01*
X135273485Y-95322640D01*
X135425600Y-95322640D01*
X135660917Y-95278362D01*
X135877041Y-95139290D01*
X136022031Y-94927090D01*
X136073040Y-94675200D01*
X136073040Y-94175200D01*
X136028762Y-93939883D01*
X135889690Y-93723759D01*
X135821594Y-93677231D01*
X135963927Y-93534898D01*
X136060600Y-93301509D01*
X136060600Y-93208950D01*
X135901850Y-93050200D01*
X135102600Y-93050200D01*
X135102600Y-93072200D01*
X134848600Y-93072200D01*
X134848600Y-93050200D01*
X134049350Y-93050200D01*
X133890600Y-93208950D01*
X133890600Y-93301509D01*
X133987273Y-93534898D01*
X134128510Y-93676136D01*
X134074159Y-93711110D01*
X133968874Y-93865200D01*
X133865479Y-93865200D01*
X133786150Y-93741919D01*
X133573950Y-93596929D01*
X133322060Y-93545920D01*
X132951449Y-93545920D01*
X133132498Y-93470927D01*
X133311127Y-93292299D01*
X133407800Y-93058910D01*
X133407800Y-92843350D01*
X133249050Y-92684600D01*
X132499800Y-92684600D01*
X132499800Y-92704600D01*
X132245800Y-92704600D01*
X132245800Y-92684600D01*
X132225800Y-92684600D01*
X132225800Y-92548891D01*
X133890600Y-92548891D01*
X133890600Y-92641450D01*
X134049350Y-92800200D01*
X134848600Y-92800200D01*
X134848600Y-92198950D01*
X135102600Y-92198950D01*
X135102600Y-92800200D01*
X135901850Y-92800200D01*
X136060600Y-92641450D01*
X136060600Y-92548891D01*
X135963927Y-92315502D01*
X135785299Y-92136873D01*
X135551910Y-92040200D01*
X135261350Y-92040200D01*
X135102600Y-92198950D01*
X134848600Y-92198950D01*
X134689850Y-92040200D01*
X134399290Y-92040200D01*
X134165901Y-92136873D01*
X133987273Y-92315502D01*
X133890600Y-92548891D01*
X132225800Y-92548891D01*
X132225800Y-92430600D01*
X132245800Y-92430600D01*
X132245800Y-91706350D01*
X132499800Y-91706350D01*
X132499800Y-92430600D01*
X133249050Y-92430600D01*
X133407800Y-92271850D01*
X133407800Y-92056290D01*
X133311127Y-91822901D01*
X133132498Y-91644273D01*
X132899109Y-91547600D01*
X132658550Y-91547600D01*
X132499800Y-91706350D01*
X132245800Y-91706350D01*
X132087050Y-91547600D01*
X131846491Y-91547600D01*
X131613102Y-91644273D01*
X131611732Y-91645643D01*
X131524690Y-91586169D01*
X131448300Y-91570700D01*
X131448300Y-91108617D01*
X131508117Y-91097362D01*
X131611446Y-91030871D01*
X131613102Y-91032527D01*
X131846491Y-91129200D01*
X132087050Y-91129200D01*
X132245800Y-90970450D01*
X132245800Y-90246200D01*
X132499800Y-90246200D01*
X132499800Y-90970450D01*
X132658550Y-91129200D01*
X132899109Y-91129200D01*
X133132498Y-91032527D01*
X133311127Y-90853899D01*
X133407800Y-90620510D01*
X133407800Y-90404950D01*
X133249050Y-90246200D01*
X132499800Y-90246200D01*
X132245800Y-90246200D01*
X132225800Y-90246200D01*
X132225800Y-89992200D01*
X132245800Y-89992200D01*
X132245800Y-89267950D01*
X132499800Y-89267950D01*
X132499800Y-89992200D01*
X133249050Y-89992200D01*
X133407800Y-89833450D01*
X133407800Y-89617890D01*
X133311127Y-89384501D01*
X133132498Y-89205873D01*
X132899109Y-89109200D01*
X132658550Y-89109200D01*
X132499800Y-89267950D01*
X132245800Y-89267950D01*
X132087050Y-89109200D01*
X131846491Y-89109200D01*
X131613102Y-89205873D01*
X131611732Y-89207243D01*
X131524690Y-89147769D01*
X131448300Y-89132300D01*
X131448300Y-88535088D01*
X131575091Y-88453500D01*
X131674232Y-88308403D01*
X131759460Y-88440851D01*
X131971660Y-88585841D01*
X132223550Y-88636850D01*
X133023650Y-88636850D01*
X133258967Y-88592572D01*
X133475091Y-88453500D01*
X133546247Y-88349360D01*
X133924040Y-88349360D01*
X134214879Y-88291508D01*
X134225979Y-88284091D01*
X134524400Y-88284091D01*
X134524400Y-88524650D01*
X134683150Y-88683400D01*
X135407400Y-88683400D01*
X135407400Y-87934150D01*
X135661400Y-87934150D01*
X135661400Y-88683400D01*
X136385650Y-88683400D01*
X136544400Y-88524650D01*
X136544400Y-88284091D01*
X136447727Y-88050702D01*
X136269099Y-87872073D01*
X136035710Y-87775400D01*
X135820150Y-87775400D01*
X135661400Y-87934150D01*
X135407400Y-87934150D01*
X135248650Y-87775400D01*
X135033090Y-87775400D01*
X134799701Y-87872073D01*
X134621073Y-88050702D01*
X134524400Y-88284091D01*
X134225979Y-88284091D01*
X134461441Y-88126761D01*
X134861280Y-87726922D01*
X134906767Y-87726962D01*
X135250543Y-87584917D01*
X135513792Y-87322127D01*
X135581106Y-87160019D01*
X135763000Y-87196200D01*
X135763000Y-87196200D01*
G37*
X135763000Y-87196200D02*
X137538011Y-87196200D01*
X137440301Y-87236673D01*
X137261673Y-87415302D01*
X137165000Y-87648691D01*
X137165000Y-87691250D01*
X137323750Y-87850000D01*
X137528837Y-87850000D01*
X137440301Y-87886673D01*
X137326975Y-88000000D01*
X137323750Y-88000000D01*
X137165000Y-88158750D01*
X137165000Y-88201309D01*
X137185168Y-88250000D01*
X137165000Y-88298691D01*
X137165000Y-88341250D01*
X137323750Y-88500000D01*
X137326975Y-88500000D01*
X137401974Y-88575000D01*
X137326975Y-88650000D01*
X137323750Y-88650000D01*
X137165000Y-88808750D01*
X137165000Y-88851309D01*
X137185168Y-88900000D01*
X137165000Y-88948691D01*
X137165000Y-88991250D01*
X137323750Y-89150000D01*
X137326975Y-89150000D01*
X137401974Y-89225000D01*
X137326975Y-89300000D01*
X137323750Y-89300000D01*
X137165000Y-89458750D01*
X137165000Y-89501309D01*
X137185168Y-89550000D01*
X137165000Y-89598691D01*
X137165000Y-89641250D01*
X137323750Y-89800000D01*
X137326975Y-89800000D01*
X137440301Y-89913327D01*
X137528837Y-89950000D01*
X137323750Y-89950000D01*
X137165000Y-90108750D01*
X137165000Y-90151309D01*
X137261673Y-90384698D01*
X137440301Y-90563327D01*
X137673690Y-90660000D01*
X137741250Y-90660000D01*
X137900000Y-90501250D01*
X137900000Y-89950000D01*
X137801250Y-89950000D01*
X137900000Y-89851250D01*
X137900000Y-89248750D01*
X137876250Y-89225000D01*
X137900000Y-89201250D01*
X137900000Y-88598750D01*
X137876250Y-88575000D01*
X137900000Y-88551250D01*
X137900000Y-87948750D01*
X137801250Y-87850000D01*
X137900000Y-87850000D01*
X137900000Y-87778000D01*
X138054974Y-87778000D01*
X138100000Y-87823026D01*
X138100000Y-87850000D01*
X138126975Y-87850000D01*
X138147000Y-87870026D01*
X138147000Y-87901750D01*
X138100000Y-87948750D01*
X138100000Y-88551250D01*
X138123750Y-88575000D01*
X138100000Y-88598750D01*
X138100000Y-89201250D01*
X138123750Y-89225000D01*
X138100000Y-89248750D01*
X138100000Y-89851250D01*
X138147000Y-89898250D01*
X138147000Y-89929974D01*
X138126975Y-89950000D01*
X138100000Y-89950000D01*
X138100000Y-89976974D01*
X138036673Y-90040301D01*
X137940000Y-90273690D01*
X137940000Y-90341250D01*
X138098750Y-90500000D01*
X138100000Y-90500000D01*
X138100000Y-90501250D01*
X138258750Y-90660000D01*
X138326310Y-90660000D01*
X138559699Y-90563327D01*
X138577560Y-90545466D01*
X138577560Y-90674838D01*
X138552398Y-90700000D01*
X138098750Y-90700000D01*
X137940000Y-90858750D01*
X137940000Y-90926310D01*
X138036673Y-91159699D01*
X138064686Y-91187712D01*
X137650600Y-91601798D01*
X136556840Y-90508038D01*
X136556840Y-89910400D01*
X136512562Y-89675083D01*
X136446071Y-89571754D01*
X136447727Y-89570098D01*
X136544400Y-89336709D01*
X136544400Y-89096150D01*
X136385650Y-88937400D01*
X135661400Y-88937400D01*
X135661400Y-88957400D01*
X135407400Y-88957400D01*
X135407400Y-88937400D01*
X134683150Y-88937400D01*
X134524400Y-89096150D01*
X134524400Y-89336709D01*
X134621073Y-89570098D01*
X134622443Y-89571468D01*
X134562969Y-89658510D01*
X134511960Y-89910400D01*
X134511960Y-90710400D01*
X134556238Y-90945717D01*
X134695310Y-91161841D01*
X134907510Y-91306831D01*
X135159400Y-91357840D01*
X135257038Y-91357840D01*
X136578300Y-92679102D01*
X136584852Y-92712039D01*
X136594760Y-92726867D01*
X136594760Y-93122000D01*
X136639038Y-93357317D01*
X136712820Y-93471978D01*
X136645769Y-93570110D01*
X136594760Y-93822000D01*
X136594760Y-94622000D01*
X136639038Y-94857317D01*
X136778110Y-95073441D01*
X136990310Y-95218431D01*
X137242200Y-95269440D01*
X137339838Y-95269440D01*
X137993498Y-95923100D01*
X133669737Y-95923100D01*
X133773501Y-95856330D01*
X133918491Y-95644130D01*
X133969500Y-95392240D01*
X133969500Y-95385200D01*
X134975600Y-95385200D01*
X135266439Y-95327348D01*
X135273485Y-95322640D01*
X135425600Y-95322640D01*
X135660917Y-95278362D01*
X135877041Y-95139290D01*
X136022031Y-94927090D01*
X136073040Y-94675200D01*
X136073040Y-94175200D01*
X136028762Y-93939883D01*
X135889690Y-93723759D01*
X135821594Y-93677231D01*
X135963927Y-93534898D01*
X136060600Y-93301509D01*
X136060600Y-93208950D01*
X135901850Y-93050200D01*
X135102600Y-93050200D01*
X135102600Y-93072200D01*
X134848600Y-93072200D01*
X134848600Y-93050200D01*
X134049350Y-93050200D01*
X133890600Y-93208950D01*
X133890600Y-93301509D01*
X133987273Y-93534898D01*
X134128510Y-93676136D01*
X134074159Y-93711110D01*
X133968874Y-93865200D01*
X133865479Y-93865200D01*
X133786150Y-93741919D01*
X133573950Y-93596929D01*
X133322060Y-93545920D01*
X132951449Y-93545920D01*
X133132498Y-93470927D01*
X133311127Y-93292299D01*
X133407800Y-93058910D01*
X133407800Y-92843350D01*
X133249050Y-92684600D01*
X132499800Y-92684600D01*
X132499800Y-92704600D01*
X132245800Y-92704600D01*
X132245800Y-92684600D01*
X132225800Y-92684600D01*
X132225800Y-92548891D01*
X133890600Y-92548891D01*
X133890600Y-92641450D01*
X134049350Y-92800200D01*
X134848600Y-92800200D01*
X134848600Y-92198950D01*
X135102600Y-92198950D01*
X135102600Y-92800200D01*
X135901850Y-92800200D01*
X136060600Y-92641450D01*
X136060600Y-92548891D01*
X135963927Y-92315502D01*
X135785299Y-92136873D01*
X135551910Y-92040200D01*
X135261350Y-92040200D01*
X135102600Y-92198950D01*
X134848600Y-92198950D01*
X134689850Y-92040200D01*
X134399290Y-92040200D01*
X134165901Y-92136873D01*
X133987273Y-92315502D01*
X133890600Y-92548891D01*
X132225800Y-92548891D01*
X132225800Y-92430600D01*
X132245800Y-92430600D01*
X132245800Y-91706350D01*
X132499800Y-91706350D01*
X132499800Y-92430600D01*
X133249050Y-92430600D01*
X133407800Y-92271850D01*
X133407800Y-92056290D01*
X133311127Y-91822901D01*
X133132498Y-91644273D01*
X132899109Y-91547600D01*
X132658550Y-91547600D01*
X132499800Y-91706350D01*
X132245800Y-91706350D01*
X132087050Y-91547600D01*
X131846491Y-91547600D01*
X131613102Y-91644273D01*
X131611732Y-91645643D01*
X131524690Y-91586169D01*
X131448300Y-91570700D01*
X131448300Y-91108617D01*
X131508117Y-91097362D01*
X131611446Y-91030871D01*
X131613102Y-91032527D01*
X131846491Y-91129200D01*
X132087050Y-91129200D01*
X132245800Y-90970450D01*
X132245800Y-90246200D01*
X132499800Y-90246200D01*
X132499800Y-90970450D01*
X132658550Y-91129200D01*
X132899109Y-91129200D01*
X133132498Y-91032527D01*
X133311127Y-90853899D01*
X133407800Y-90620510D01*
X133407800Y-90404950D01*
X133249050Y-90246200D01*
X132499800Y-90246200D01*
X132245800Y-90246200D01*
X132225800Y-90246200D01*
X132225800Y-89992200D01*
X132245800Y-89992200D01*
X132245800Y-89267950D01*
X132499800Y-89267950D01*
X132499800Y-89992200D01*
X133249050Y-89992200D01*
X133407800Y-89833450D01*
X133407800Y-89617890D01*
X133311127Y-89384501D01*
X133132498Y-89205873D01*
X132899109Y-89109200D01*
X132658550Y-89109200D01*
X132499800Y-89267950D01*
X132245800Y-89267950D01*
X132087050Y-89109200D01*
X131846491Y-89109200D01*
X131613102Y-89205873D01*
X131611732Y-89207243D01*
X131524690Y-89147769D01*
X131448300Y-89132300D01*
X131448300Y-88535088D01*
X131575091Y-88453500D01*
X131674232Y-88308403D01*
X131759460Y-88440851D01*
X131971660Y-88585841D01*
X132223550Y-88636850D01*
X133023650Y-88636850D01*
X133258967Y-88592572D01*
X133475091Y-88453500D01*
X133546247Y-88349360D01*
X133924040Y-88349360D01*
X134214879Y-88291508D01*
X134225979Y-88284091D01*
X134524400Y-88284091D01*
X134524400Y-88524650D01*
X134683150Y-88683400D01*
X135407400Y-88683400D01*
X135407400Y-87934150D01*
X135661400Y-87934150D01*
X135661400Y-88683400D01*
X136385650Y-88683400D01*
X136544400Y-88524650D01*
X136544400Y-88284091D01*
X136447727Y-88050702D01*
X136269099Y-87872073D01*
X136035710Y-87775400D01*
X135820150Y-87775400D01*
X135661400Y-87934150D01*
X135407400Y-87934150D01*
X135248650Y-87775400D01*
X135033090Y-87775400D01*
X134799701Y-87872073D01*
X134621073Y-88050702D01*
X134524400Y-88284091D01*
X134225979Y-88284091D01*
X134461441Y-88126761D01*
X134861280Y-87726922D01*
X134906767Y-87726962D01*
X135250543Y-87584917D01*
X135513792Y-87322127D01*
X135581106Y-87160019D01*
X135763000Y-87196200D01*
G36*
X141432162Y-79797801D02*
X141431838Y-80169767D01*
X141573883Y-80513543D01*
X141836673Y-80776792D01*
X142180201Y-80919438D01*
X142552167Y-80919762D01*
X142895943Y-80777717D01*
X143159192Y-80514927D01*
X143301838Y-80171399D01*
X143301879Y-80124523D01*
X143924402Y-79502000D01*
X149022767Y-79502000D01*
X150101300Y-80580533D01*
X150101300Y-89969474D01*
X149972698Y-89840873D01*
X149739309Y-89744200D01*
X149498750Y-89744200D01*
X149340000Y-89902950D01*
X149340000Y-90627200D01*
X149360000Y-90627200D01*
X149360000Y-90881200D01*
X149340000Y-90881200D01*
X149340000Y-91605450D01*
X149498750Y-91764200D01*
X149739309Y-91764200D01*
X149972698Y-91667527D01*
X150101300Y-91538926D01*
X150101300Y-92307367D01*
X150100527Y-92305501D01*
X149921898Y-92126873D01*
X149688509Y-92030200D01*
X149447950Y-92030200D01*
X149289200Y-92188950D01*
X149289200Y-92913200D01*
X149309200Y-92913200D01*
X149309200Y-93167200D01*
X149289200Y-93167200D01*
X149289200Y-93891450D01*
X149447950Y-94050200D01*
X149688509Y-94050200D01*
X149921898Y-93953527D01*
X150100527Y-93774899D01*
X150101300Y-93773033D01*
X150101300Y-95035066D01*
X149755880Y-95380486D01*
X149520690Y-95145296D01*
X149520690Y-94865190D01*
X149476412Y-94629873D01*
X149337340Y-94413749D01*
X149125140Y-94268759D01*
X148873250Y-94217750D01*
X148073150Y-94217750D01*
X147837833Y-94262028D01*
X147621709Y-94401100D01*
X147522568Y-94546197D01*
X147437340Y-94413749D01*
X147225140Y-94268759D01*
X146973250Y-94217750D01*
X146355952Y-94217750D01*
X145440402Y-93302200D01*
X146062680Y-92679922D01*
X146108167Y-92679962D01*
X146451943Y-92537917D01*
X146652200Y-92338009D01*
X146652200Y-92480316D01*
X146614760Y-92665200D01*
X146614760Y-93415200D01*
X146659038Y-93650517D01*
X146798110Y-93866641D01*
X147010310Y-94011631D01*
X147262200Y-94062640D01*
X148062200Y-94062640D01*
X148297517Y-94018362D01*
X148400846Y-93951871D01*
X148402502Y-93953527D01*
X148635891Y-94050200D01*
X148876450Y-94050200D01*
X149035200Y-93891450D01*
X149035200Y-93167200D01*
X149015200Y-93167200D01*
X149015200Y-92913200D01*
X149035200Y-92913200D01*
X149035200Y-92188950D01*
X148876450Y-92030200D01*
X148635891Y-92030200D01*
X148402502Y-92126873D01*
X148401132Y-92128243D01*
X148314090Y-92068769D01*
X148172200Y-92040036D01*
X148172200Y-91765501D01*
X148348317Y-91732362D01*
X148451646Y-91665871D01*
X148453302Y-91667527D01*
X148686691Y-91764200D01*
X148927250Y-91764200D01*
X149086000Y-91605450D01*
X149086000Y-90881200D01*
X149066000Y-90881200D01*
X149066000Y-90627200D01*
X149086000Y-90627200D01*
X149086000Y-89902950D01*
X148927250Y-89744200D01*
X148686691Y-89744200D01*
X148664200Y-89753516D01*
X148664200Y-89275040D01*
X148761800Y-89275040D01*
X148997117Y-89230762D01*
X149213241Y-89091690D01*
X149358231Y-88879490D01*
X149409240Y-88627600D01*
X149409240Y-87827600D01*
X149364962Y-87592283D01*
X149298471Y-87488954D01*
X149300127Y-87487298D01*
X149396800Y-87253909D01*
X149396800Y-87013350D01*
X149238050Y-86854600D01*
X148513800Y-86854600D01*
X148513800Y-86874600D01*
X148259800Y-86874600D01*
X148259800Y-86854600D01*
X147535550Y-86854600D01*
X147376800Y-87013350D01*
X147376800Y-87253909D01*
X147473473Y-87487298D01*
X147474843Y-87488668D01*
X147415369Y-87575710D01*
X147386636Y-87717600D01*
X147161200Y-87717600D01*
X147161200Y-87610798D01*
X147026228Y-87610798D01*
X147064527Y-87572499D01*
X147081339Y-87531911D01*
X147161200Y-87452050D01*
X147161200Y-87223550D01*
X147081339Y-87143689D01*
X147064527Y-87103101D01*
X146899225Y-86937800D01*
X147064527Y-86772499D01*
X147081339Y-86731911D01*
X147161200Y-86652050D01*
X147161200Y-86423550D01*
X147081339Y-86343689D01*
X147064527Y-86303101D01*
X146899225Y-86137800D01*
X147064527Y-85972499D01*
X147073224Y-85951504D01*
X147311001Y-86050238D01*
X147439322Y-86050350D01*
X147376800Y-86201291D01*
X147376800Y-86441850D01*
X147535550Y-86600600D01*
X148259800Y-86600600D01*
X148259800Y-85851350D01*
X148513800Y-85851350D01*
X148513800Y-86600600D01*
X149238050Y-86600600D01*
X149396800Y-86441850D01*
X149396800Y-86201291D01*
X149300127Y-85967902D01*
X149121499Y-85789273D01*
X148888110Y-85692600D01*
X148672550Y-85692600D01*
X148513800Y-85851350D01*
X148259800Y-85851350D01*
X148171982Y-85763532D01*
X148289992Y-85645727D01*
X148432638Y-85302199D01*
X148432962Y-84930233D01*
X148290917Y-84586457D01*
X148028127Y-84323208D01*
X147684599Y-84180562D01*
X147637723Y-84180521D01*
X147457601Y-84000399D01*
X147211039Y-83835652D01*
X146949789Y-83783686D01*
X146778090Y-83666369D01*
X146526200Y-83615360D01*
X145723344Y-83615360D01*
X145595290Y-83416359D01*
X145579194Y-83405361D01*
X145558348Y-83300561D01*
X145393601Y-83053999D01*
X144796701Y-82457099D01*
X144550139Y-82292352D01*
X144259300Y-82234500D01*
X142507047Y-82234500D01*
X142443200Y-82221800D01*
X142152361Y-82279652D01*
X141905799Y-82444399D01*
X141338320Y-83011878D01*
X141292833Y-83011838D01*
X140949057Y-83153883D01*
X140915882Y-83187000D01*
X137798619Y-83187000D01*
X137741127Y-83129408D01*
X137397599Y-82986762D01*
X137025633Y-82986438D01*
X136844440Y-83061305D01*
X136844440Y-82923000D01*
X136800162Y-82687683D01*
X136661090Y-82471559D01*
X136591289Y-82423866D01*
X136648441Y-82387090D01*
X136793431Y-82174890D01*
X136844440Y-81923000D01*
X136844440Y-81700362D01*
X137345706Y-81199096D01*
X137421367Y-81199162D01*
X137765143Y-81057117D01*
X138028392Y-80794327D01*
X138171038Y-80450799D01*
X138171079Y-80403923D01*
X138967401Y-79607601D01*
X139037961Y-79502000D01*
X141554990Y-79502000D01*
X141432162Y-79797801D01*
X141432162Y-79797801D01*
G37*
X141432162Y-79797801D02*
X141431838Y-80169767D01*
X141573883Y-80513543D01*
X141836673Y-80776792D01*
X142180201Y-80919438D01*
X142552167Y-80919762D01*
X142895943Y-80777717D01*
X143159192Y-80514927D01*
X143301838Y-80171399D01*
X143301879Y-80124523D01*
X143924402Y-79502000D01*
X149022767Y-79502000D01*
X150101300Y-80580533D01*
X150101300Y-89969474D01*
X149972698Y-89840873D01*
X149739309Y-89744200D01*
X149498750Y-89744200D01*
X149340000Y-89902950D01*
X149340000Y-90627200D01*
X149360000Y-90627200D01*
X149360000Y-90881200D01*
X149340000Y-90881200D01*
X149340000Y-91605450D01*
X149498750Y-91764200D01*
X149739309Y-91764200D01*
X149972698Y-91667527D01*
X150101300Y-91538926D01*
X150101300Y-92307367D01*
X150100527Y-92305501D01*
X149921898Y-92126873D01*
X149688509Y-92030200D01*
X149447950Y-92030200D01*
X149289200Y-92188950D01*
X149289200Y-92913200D01*
X149309200Y-92913200D01*
X149309200Y-93167200D01*
X149289200Y-93167200D01*
X149289200Y-93891450D01*
X149447950Y-94050200D01*
X149688509Y-94050200D01*
X149921898Y-93953527D01*
X150100527Y-93774899D01*
X150101300Y-93773033D01*
X150101300Y-95035066D01*
X149755880Y-95380486D01*
X149520690Y-95145296D01*
X149520690Y-94865190D01*
X149476412Y-94629873D01*
X149337340Y-94413749D01*
X149125140Y-94268759D01*
X148873250Y-94217750D01*
X148073150Y-94217750D01*
X147837833Y-94262028D01*
X147621709Y-94401100D01*
X147522568Y-94546197D01*
X147437340Y-94413749D01*
X147225140Y-94268759D01*
X146973250Y-94217750D01*
X146355952Y-94217750D01*
X145440402Y-93302200D01*
X146062680Y-92679922D01*
X146108167Y-92679962D01*
X146451943Y-92537917D01*
X146652200Y-92338009D01*
X146652200Y-92480316D01*
X146614760Y-92665200D01*
X146614760Y-93415200D01*
X146659038Y-93650517D01*
X146798110Y-93866641D01*
X147010310Y-94011631D01*
X147262200Y-94062640D01*
X148062200Y-94062640D01*
X148297517Y-94018362D01*
X148400846Y-93951871D01*
X148402502Y-93953527D01*
X148635891Y-94050200D01*
X148876450Y-94050200D01*
X149035200Y-93891450D01*
X149035200Y-93167200D01*
X149015200Y-93167200D01*
X149015200Y-92913200D01*
X149035200Y-92913200D01*
X149035200Y-92188950D01*
X148876450Y-92030200D01*
X148635891Y-92030200D01*
X148402502Y-92126873D01*
X148401132Y-92128243D01*
X148314090Y-92068769D01*
X148172200Y-92040036D01*
X148172200Y-91765501D01*
X148348317Y-91732362D01*
X148451646Y-91665871D01*
X148453302Y-91667527D01*
X148686691Y-91764200D01*
X148927250Y-91764200D01*
X149086000Y-91605450D01*
X149086000Y-90881200D01*
X149066000Y-90881200D01*
X149066000Y-90627200D01*
X149086000Y-90627200D01*
X149086000Y-89902950D01*
X148927250Y-89744200D01*
X148686691Y-89744200D01*
X148664200Y-89753516D01*
X148664200Y-89275040D01*
X148761800Y-89275040D01*
X148997117Y-89230762D01*
X149213241Y-89091690D01*
X149358231Y-88879490D01*
X149409240Y-88627600D01*
X149409240Y-87827600D01*
X149364962Y-87592283D01*
X149298471Y-87488954D01*
X149300127Y-87487298D01*
X149396800Y-87253909D01*
X149396800Y-87013350D01*
X149238050Y-86854600D01*
X148513800Y-86854600D01*
X148513800Y-86874600D01*
X148259800Y-86874600D01*
X148259800Y-86854600D01*
X147535550Y-86854600D01*
X147376800Y-87013350D01*
X147376800Y-87253909D01*
X147473473Y-87487298D01*
X147474843Y-87488668D01*
X147415369Y-87575710D01*
X147386636Y-87717600D01*
X147161200Y-87717600D01*
X147161200Y-87610798D01*
X147026228Y-87610798D01*
X147064527Y-87572499D01*
X147081339Y-87531911D01*
X147161200Y-87452050D01*
X147161200Y-87223550D01*
X147081339Y-87143689D01*
X147064527Y-87103101D01*
X146899225Y-86937800D01*
X147064527Y-86772499D01*
X147081339Y-86731911D01*
X147161200Y-86652050D01*
X147161200Y-86423550D01*
X147081339Y-86343689D01*
X147064527Y-86303101D01*
X146899225Y-86137800D01*
X147064527Y-85972499D01*
X147073224Y-85951504D01*
X147311001Y-86050238D01*
X147439322Y-86050350D01*
X147376800Y-86201291D01*
X147376800Y-86441850D01*
X147535550Y-86600600D01*
X148259800Y-86600600D01*
X148259800Y-85851350D01*
X148513800Y-85851350D01*
X148513800Y-86600600D01*
X149238050Y-86600600D01*
X149396800Y-86441850D01*
X149396800Y-86201291D01*
X149300127Y-85967902D01*
X149121499Y-85789273D01*
X148888110Y-85692600D01*
X148672550Y-85692600D01*
X148513800Y-85851350D01*
X148259800Y-85851350D01*
X148171982Y-85763532D01*
X148289992Y-85645727D01*
X148432638Y-85302199D01*
X148432962Y-84930233D01*
X148290917Y-84586457D01*
X148028127Y-84323208D01*
X147684599Y-84180562D01*
X147637723Y-84180521D01*
X147457601Y-84000399D01*
X147211039Y-83835652D01*
X146949789Y-83783686D01*
X146778090Y-83666369D01*
X146526200Y-83615360D01*
X145723344Y-83615360D01*
X145595290Y-83416359D01*
X145579194Y-83405361D01*
X145558348Y-83300561D01*
X145393601Y-83053999D01*
X144796701Y-82457099D01*
X144550139Y-82292352D01*
X144259300Y-82234500D01*
X142507047Y-82234500D01*
X142443200Y-82221800D01*
X142152361Y-82279652D01*
X141905799Y-82444399D01*
X141338320Y-83011878D01*
X141292833Y-83011838D01*
X140949057Y-83153883D01*
X140915882Y-83187000D01*
X137798619Y-83187000D01*
X137741127Y-83129408D01*
X137397599Y-82986762D01*
X137025633Y-82986438D01*
X136844440Y-83061305D01*
X136844440Y-82923000D01*
X136800162Y-82687683D01*
X136661090Y-82471559D01*
X136591289Y-82423866D01*
X136648441Y-82387090D01*
X136793431Y-82174890D01*
X136844440Y-81923000D01*
X136844440Y-81700362D01*
X137345706Y-81199096D01*
X137421367Y-81199162D01*
X137765143Y-81057117D01*
X138028392Y-80794327D01*
X138171038Y-80450799D01*
X138171079Y-80403923D01*
X138967401Y-79607601D01*
X139037961Y-79502000D01*
X141554990Y-79502000D01*
X141432162Y-79797801D01*
G36*
X142538760Y-86098593D02*
X142538760Y-86412800D01*
X142558650Y-86518505D01*
X142551200Y-86536490D01*
X142551200Y-86652050D01*
X142647601Y-86748451D01*
X142722110Y-86864241D01*
X142819910Y-86931065D01*
X142647873Y-87103101D01*
X142631061Y-87143689D01*
X142551200Y-87223550D01*
X142551200Y-87452050D01*
X142631061Y-87531911D01*
X142647873Y-87572499D01*
X142686172Y-87610798D01*
X142551200Y-87610798D01*
X142551200Y-87660360D01*
X142235000Y-87660084D01*
X142235000Y-87648691D01*
X142138327Y-87415302D01*
X141959699Y-87236673D01*
X141726310Y-87140000D01*
X141658750Y-87140000D01*
X141527002Y-87271748D01*
X141527002Y-87140000D01*
X141472440Y-87140000D01*
X141472440Y-87000000D01*
X141435000Y-86801024D01*
X141435000Y-86684080D01*
X141457392Y-86661727D01*
X141600038Y-86318199D01*
X141600233Y-86094611D01*
X142538760Y-86098593D01*
X142538760Y-86098593D01*
G37*
X142538760Y-86098593D02*
X142538760Y-86412800D01*
X142558650Y-86518505D01*
X142551200Y-86536490D01*
X142551200Y-86652050D01*
X142647601Y-86748451D01*
X142722110Y-86864241D01*
X142819910Y-86931065D01*
X142647873Y-87103101D01*
X142631061Y-87143689D01*
X142551200Y-87223550D01*
X142551200Y-87452050D01*
X142631061Y-87531911D01*
X142647873Y-87572499D01*
X142686172Y-87610798D01*
X142551200Y-87610798D01*
X142551200Y-87660360D01*
X142235000Y-87660084D01*
X142235000Y-87648691D01*
X142138327Y-87415302D01*
X141959699Y-87236673D01*
X141726310Y-87140000D01*
X141658750Y-87140000D01*
X141527002Y-87271748D01*
X141527002Y-87140000D01*
X141472440Y-87140000D01*
X141472440Y-87000000D01*
X141435000Y-86801024D01*
X141435000Y-86684080D01*
X141457392Y-86661727D01*
X141600038Y-86318199D01*
X141600233Y-86094611D01*
X142538760Y-86098593D01*
G36*
X146080700Y-86089050D02*
X146129450Y-86137800D01*
X146080700Y-86186550D01*
X146080700Y-86889050D01*
X146129450Y-86937800D01*
X146080700Y-86986550D01*
X146080700Y-87084800D01*
X145826700Y-87084800D01*
X145826700Y-86986550D01*
X145806700Y-86966550D01*
X145806700Y-86909050D01*
X145826700Y-86889050D01*
X145826700Y-86186550D01*
X145806700Y-86166550D01*
X145806700Y-86109050D01*
X145826700Y-86089050D01*
X145826700Y-85990800D01*
X146080700Y-85990800D01*
X146080700Y-86089050D01*
X146080700Y-86089050D01*
G37*
X146080700Y-86089050D02*
X146129450Y-86137800D01*
X146080700Y-86186550D01*
X146080700Y-86889050D01*
X146129450Y-86937800D01*
X146080700Y-86986550D01*
X146080700Y-87084800D01*
X145826700Y-87084800D01*
X145826700Y-86986550D01*
X145806700Y-86966550D01*
X145806700Y-86909050D01*
X145826700Y-86889050D01*
X145826700Y-86186550D01*
X145806700Y-86166550D01*
X145806700Y-86109050D01*
X145826700Y-86089050D01*
X145826700Y-85990800D01*
X146080700Y-85990800D01*
X146080700Y-86089050D01*
G36*
X132832910Y-82374441D02*
X132902711Y-82422134D01*
X132845559Y-82458910D01*
X132700569Y-82671110D01*
X132649560Y-82923000D01*
X132649560Y-83723000D01*
X132693838Y-83958317D01*
X132787000Y-84103095D01*
X132787000Y-84220200D01*
X132844852Y-84511039D01*
X133009599Y-84757601D01*
X134233716Y-85981718D01*
X134192657Y-85998683D01*
X133929408Y-86261473D01*
X133786762Y-86605001D01*
X133786721Y-86651877D01*
X133609238Y-86829360D01*
X133546613Y-86829360D01*
X133487740Y-86737869D01*
X133275540Y-86592879D01*
X133023650Y-86541870D01*
X132401690Y-86541870D01*
X132433348Y-86528757D01*
X132611977Y-86350129D01*
X132708650Y-86116740D01*
X132708650Y-85876130D01*
X132549900Y-85717380D01*
X131800600Y-85717380D01*
X131800600Y-86466680D01*
X131946757Y-86612837D01*
X131772109Y-86725220D01*
X131672968Y-86870317D01*
X131587740Y-86737869D01*
X131402191Y-86611089D01*
X131546600Y-86466680D01*
X131546600Y-85717380D01*
X131526600Y-85717380D01*
X131526600Y-85463380D01*
X131546600Y-85463380D01*
X131546600Y-84714080D01*
X131800600Y-84714080D01*
X131800600Y-85463380D01*
X132549900Y-85463380D01*
X132708650Y-85304630D01*
X132708650Y-85064020D01*
X132611977Y-84830631D01*
X132433348Y-84652003D01*
X132199959Y-84555330D01*
X131959350Y-84555330D01*
X131800600Y-84714080D01*
X131546600Y-84714080D01*
X131387850Y-84555330D01*
X131147241Y-84555330D01*
X130980658Y-84624331D01*
X130756127Y-84399408D01*
X130412599Y-84256762D01*
X130406645Y-84256757D01*
X132380402Y-82283000D01*
X132774069Y-82283000D01*
X132832910Y-82374441D01*
X132832910Y-82374441D01*
G37*
X132832910Y-82374441D02*
X132902711Y-82422134D01*
X132845559Y-82458910D01*
X132700569Y-82671110D01*
X132649560Y-82923000D01*
X132649560Y-83723000D01*
X132693838Y-83958317D01*
X132787000Y-84103095D01*
X132787000Y-84220200D01*
X132844852Y-84511039D01*
X133009599Y-84757601D01*
X134233716Y-85981718D01*
X134192657Y-85998683D01*
X133929408Y-86261473D01*
X133786762Y-86605001D01*
X133786721Y-86651877D01*
X133609238Y-86829360D01*
X133546613Y-86829360D01*
X133487740Y-86737869D01*
X133275540Y-86592879D01*
X133023650Y-86541870D01*
X132401690Y-86541870D01*
X132433348Y-86528757D01*
X132611977Y-86350129D01*
X132708650Y-86116740D01*
X132708650Y-85876130D01*
X132549900Y-85717380D01*
X131800600Y-85717380D01*
X131800600Y-86466680D01*
X131946757Y-86612837D01*
X131772109Y-86725220D01*
X131672968Y-86870317D01*
X131587740Y-86737869D01*
X131402191Y-86611089D01*
X131546600Y-86466680D01*
X131546600Y-85717380D01*
X131526600Y-85717380D01*
X131526600Y-85463380D01*
X131546600Y-85463380D01*
X131546600Y-84714080D01*
X131800600Y-84714080D01*
X131800600Y-85463380D01*
X132549900Y-85463380D01*
X132708650Y-85304630D01*
X132708650Y-85064020D01*
X132611977Y-84830631D01*
X132433348Y-84652003D01*
X132199959Y-84555330D01*
X131959350Y-84555330D01*
X131800600Y-84714080D01*
X131546600Y-84714080D01*
X131387850Y-84555330D01*
X131147241Y-84555330D01*
X130980658Y-84624331D01*
X130756127Y-84399408D01*
X130412599Y-84256762D01*
X130406645Y-84256757D01*
X132380402Y-82283000D01*
X132774069Y-82283000D01*
X132832910Y-82374441D01*
M02*
