G04 #@! TF.FileFunction,Legend,Top*
%FSLAX46Y46*%
G04 Gerber Fmt 4.6, Leading zero omitted, Abs format (unit mm)*
G04 Created by KiCad (PCBNEW 4.0.0-rc1-stable) date 11/13/2015 10:57:34 PM*
%MOMM*%
G01*
G04 APERTURE LIST*
%ADD10C,0.100000*%
%ADD11C,0.150000*%
G04 APERTURE END LIST*
D10*
D11*
X133273600Y-94042800D02*
X130573600Y-94042800D01*
X133273600Y-95542800D02*
X130573600Y-95542800D01*
X131773600Y-94642800D02*
X131773600Y-94892800D01*
X131773600Y-94892800D02*
X131923600Y-94742800D01*
X132023600Y-95142800D02*
X132023600Y-94442800D01*
X131673600Y-94792800D02*
X131323600Y-94792800D01*
X132023600Y-94792800D02*
X131673600Y-95142800D01*
X131673600Y-95142800D02*
X131673600Y-94442800D01*
X131673600Y-94442800D02*
X132023600Y-94792800D01*
X146224040Y-96916240D02*
X146272300Y-96916240D01*
X149023020Y-96215200D02*
X149023020Y-96916240D01*
X149023020Y-96916240D02*
X148774100Y-96916240D01*
X146224040Y-96916240D02*
X146023380Y-96916240D01*
X146023380Y-96916240D02*
X146023380Y-96215200D01*
X132972760Y-85938360D02*
X132924500Y-85938360D01*
X130173780Y-86639400D02*
X130173780Y-85938360D01*
X130173780Y-85938360D02*
X130422700Y-85938360D01*
X132972760Y-85938360D02*
X133173420Y-85938360D01*
X133173420Y-85938360D02*
X133173420Y-86639400D01*
X133072000Y-82923000D02*
X133072000Y-81923000D01*
X136422000Y-82923000D02*
X136422000Y-81923000D01*
X134934400Y-89910400D02*
X134934400Y-89210400D01*
X136134400Y-89210400D02*
X136134400Y-89910400D01*
X138217200Y-93122000D02*
X138217200Y-93822000D01*
X137017200Y-93822000D02*
X137017200Y-93122000D01*
X131272800Y-89519200D02*
X131972800Y-89519200D01*
X131972800Y-90719200D02*
X131272800Y-90719200D01*
X131272800Y-91957600D02*
X131972800Y-91957600D01*
X131972800Y-93157600D02*
X131272800Y-93157600D01*
X144795800Y-93782400D02*
X144795800Y-94482400D01*
X143595800Y-94482400D02*
X143595800Y-93782400D01*
X148062200Y-92440200D02*
X148762200Y-92440200D01*
X148762200Y-93640200D02*
X148062200Y-93640200D01*
X141320000Y-93360800D02*
X140620000Y-93360800D01*
X140620000Y-92160800D02*
X141320000Y-92160800D01*
X148113000Y-90154200D02*
X148813000Y-90154200D01*
X148813000Y-91354200D02*
X148113000Y-91354200D01*
X147786800Y-87827600D02*
X147786800Y-87127600D01*
X148986800Y-87127600D02*
X148986800Y-87827600D01*
X141343000Y-95950400D02*
X140343000Y-95950400D01*
X140343000Y-94600400D02*
X141343000Y-94600400D01*
X135650600Y-93175200D02*
X135650600Y-94175200D01*
X134300600Y-94175200D02*
X134300600Y-93175200D01*
X127785905Y-95321381D02*
X127785905Y-94321381D01*
X128024000Y-94321381D01*
X128166858Y-94369000D01*
X128262096Y-94464238D01*
X128309715Y-94559476D01*
X128357334Y-94749952D01*
X128357334Y-94892810D01*
X128309715Y-95083286D01*
X128262096Y-95178524D01*
X128166858Y-95273762D01*
X128024000Y-95321381D01*
X127785905Y-95321381D01*
X129309715Y-95321381D02*
X128738286Y-95321381D01*
X129024000Y-95321381D02*
X129024000Y-94321381D01*
X128928762Y-94464238D01*
X128833524Y-94559476D01*
X128738286Y-94607095D01*
X148987024Y-98369381D02*
X148510833Y-98369381D01*
X148510833Y-97369381D01*
X149320357Y-98369381D02*
X149320357Y-97369381D01*
X149558452Y-97369381D01*
X149701310Y-97417000D01*
X149796548Y-97512238D01*
X149844167Y-97607476D01*
X149891786Y-97797952D01*
X149891786Y-97940810D01*
X149844167Y-98131286D01*
X149796548Y-98226524D01*
X149701310Y-98321762D01*
X149558452Y-98369381D01*
X149320357Y-98369381D01*
X150510833Y-97369381D02*
X150701310Y-97369381D01*
X150796548Y-97417000D01*
X150891786Y-97512238D01*
X150939405Y-97702714D01*
X150939405Y-98036048D01*
X150891786Y-98226524D01*
X150796548Y-98321762D01*
X150701310Y-98369381D01*
X150510833Y-98369381D01*
X150415595Y-98321762D01*
X150320357Y-98226524D01*
X150272738Y-98036048D01*
X150272738Y-97702714D01*
X150320357Y-97512238D01*
X150415595Y-97417000D01*
X150510833Y-97369381D01*
X151891786Y-98369381D02*
X151320357Y-98369381D01*
X151606071Y-98369381D02*
X151606071Y-97369381D01*
X151510833Y-97512238D01*
X151415595Y-97607476D01*
X151320357Y-97655095D01*
X128857524Y-84272381D02*
X128381333Y-84272381D01*
X128381333Y-83272381D01*
X129190857Y-84272381D02*
X129190857Y-83272381D01*
X129428952Y-83272381D01*
X129571810Y-83320000D01*
X129667048Y-83415238D01*
X129714667Y-83510476D01*
X129762286Y-83700952D01*
X129762286Y-83843810D01*
X129714667Y-84034286D01*
X129667048Y-84129524D01*
X129571810Y-84224762D01*
X129428952Y-84272381D01*
X129190857Y-84272381D01*
X130381333Y-83272381D02*
X130571810Y-83272381D01*
X130667048Y-83320000D01*
X130762286Y-83415238D01*
X130809905Y-83605714D01*
X130809905Y-83939048D01*
X130762286Y-84129524D01*
X130667048Y-84224762D01*
X130571810Y-84272381D01*
X130381333Y-84272381D01*
X130286095Y-84224762D01*
X130190857Y-84129524D01*
X130143238Y-83939048D01*
X130143238Y-83605714D01*
X130190857Y-83415238D01*
X130286095Y-83320000D01*
X130381333Y-83272381D01*
X131190857Y-83367619D02*
X131238476Y-83320000D01*
X131333714Y-83272381D01*
X131571810Y-83272381D01*
X131667048Y-83320000D01*
X131714667Y-83367619D01*
X131762286Y-83462857D01*
X131762286Y-83558095D01*
X131714667Y-83700952D01*
X131143238Y-84272381D01*
X131762286Y-84272381D01*
X130270334Y-81922881D02*
X129937000Y-81446690D01*
X129698905Y-81922881D02*
X129698905Y-80922881D01*
X130079858Y-80922881D01*
X130175096Y-80970500D01*
X130222715Y-81018119D01*
X130270334Y-81113357D01*
X130270334Y-81256214D01*
X130222715Y-81351452D01*
X130175096Y-81399071D01*
X130079858Y-81446690D01*
X129698905Y-81446690D01*
X130698905Y-81922881D02*
X130698905Y-80922881D01*
X131079858Y-80922881D01*
X131175096Y-80970500D01*
X131222715Y-81018119D01*
X131270334Y-81113357D01*
X131270334Y-81256214D01*
X131222715Y-81351452D01*
X131175096Y-81399071D01*
X131079858Y-81446690D01*
X130698905Y-81446690D01*
X132222715Y-81922881D02*
X131651286Y-81922881D01*
X131937000Y-81922881D02*
X131937000Y-80922881D01*
X131841762Y-81065738D01*
X131746524Y-81160976D01*
X131651286Y-81208595D01*
X133991543Y-89727066D02*
X134039162Y-89774685D01*
X134086781Y-89917542D01*
X134086781Y-90012780D01*
X134039162Y-90155638D01*
X133943924Y-90250876D01*
X133848686Y-90298495D01*
X133658210Y-90346114D01*
X133515352Y-90346114D01*
X133324876Y-90298495D01*
X133229638Y-90250876D01*
X133134400Y-90155638D01*
X133086781Y-90012780D01*
X133086781Y-89917542D01*
X133134400Y-89774685D01*
X133182019Y-89727066D01*
X134086781Y-88774685D02*
X134086781Y-89346114D01*
X134086781Y-89060400D02*
X133086781Y-89060400D01*
X133229638Y-89155638D01*
X133324876Y-89250876D01*
X133372495Y-89346114D01*
X139874343Y-93638666D02*
X139921962Y-93686285D01*
X139969581Y-93829142D01*
X139969581Y-93924380D01*
X139921962Y-94067238D01*
X139826724Y-94162476D01*
X139731486Y-94210095D01*
X139541010Y-94257714D01*
X139398152Y-94257714D01*
X139207676Y-94210095D01*
X139112438Y-94162476D01*
X139017200Y-94067238D01*
X138969581Y-93924380D01*
X138969581Y-93829142D01*
X139017200Y-93686285D01*
X139064819Y-93638666D01*
X139064819Y-93257714D02*
X139017200Y-93210095D01*
X138969581Y-93114857D01*
X138969581Y-92876761D01*
X139017200Y-92781523D01*
X139064819Y-92733904D01*
X139160057Y-92686285D01*
X139255295Y-92686285D01*
X139398152Y-92733904D01*
X139969581Y-93305333D01*
X139969581Y-92686285D01*
X131456134Y-88576343D02*
X131408515Y-88623962D01*
X131265658Y-88671581D01*
X131170420Y-88671581D01*
X131027562Y-88623962D01*
X130932324Y-88528724D01*
X130884705Y-88433486D01*
X130837086Y-88243010D01*
X130837086Y-88100152D01*
X130884705Y-87909676D01*
X130932324Y-87814438D01*
X131027562Y-87719200D01*
X131170420Y-87671581D01*
X131265658Y-87671581D01*
X131408515Y-87719200D01*
X131456134Y-87766819D01*
X131789467Y-87671581D02*
X132408515Y-87671581D01*
X132075181Y-88052533D01*
X132218039Y-88052533D01*
X132313277Y-88100152D01*
X132360896Y-88147771D01*
X132408515Y-88243010D01*
X132408515Y-88481105D01*
X132360896Y-88576343D01*
X132313277Y-88623962D01*
X132218039Y-88671581D01*
X131932324Y-88671581D01*
X131837086Y-88623962D01*
X131789467Y-88576343D01*
X131456134Y-91014743D02*
X131408515Y-91062362D01*
X131265658Y-91109981D01*
X131170420Y-91109981D01*
X131027562Y-91062362D01*
X130932324Y-90967124D01*
X130884705Y-90871886D01*
X130837086Y-90681410D01*
X130837086Y-90538552D01*
X130884705Y-90348076D01*
X130932324Y-90252838D01*
X131027562Y-90157600D01*
X131170420Y-90109981D01*
X131265658Y-90109981D01*
X131408515Y-90157600D01*
X131456134Y-90205219D01*
X132313277Y-90443314D02*
X132313277Y-91109981D01*
X132075181Y-90062362D02*
X131837086Y-90776648D01*
X132456134Y-90776648D01*
X146452943Y-94299066D02*
X146500562Y-94346685D01*
X146548181Y-94489542D01*
X146548181Y-94584780D01*
X146500562Y-94727638D01*
X146405324Y-94822876D01*
X146310086Y-94870495D01*
X146119610Y-94918114D01*
X145976752Y-94918114D01*
X145786276Y-94870495D01*
X145691038Y-94822876D01*
X145595800Y-94727638D01*
X145548181Y-94584780D01*
X145548181Y-94489542D01*
X145595800Y-94346685D01*
X145643419Y-94299066D01*
X145548181Y-93394304D02*
X145548181Y-93870495D01*
X146024371Y-93918114D01*
X145976752Y-93870495D01*
X145929133Y-93775257D01*
X145929133Y-93537161D01*
X145976752Y-93441923D01*
X146024371Y-93394304D01*
X146119610Y-93346685D01*
X146357705Y-93346685D01*
X146452943Y-93394304D01*
X146500562Y-93441923D01*
X146548181Y-93537161D01*
X146548181Y-93775257D01*
X146500562Y-93870495D01*
X146452943Y-93918114D01*
X148245534Y-91497343D02*
X148197915Y-91544962D01*
X148055058Y-91592581D01*
X147959820Y-91592581D01*
X147816962Y-91544962D01*
X147721724Y-91449724D01*
X147674105Y-91354486D01*
X147626486Y-91164010D01*
X147626486Y-91021152D01*
X147674105Y-90830676D01*
X147721724Y-90735438D01*
X147816962Y-90640200D01*
X147959820Y-90592581D01*
X148055058Y-90592581D01*
X148197915Y-90640200D01*
X148245534Y-90687819D01*
X149102677Y-90592581D02*
X148912200Y-90592581D01*
X148816962Y-90640200D01*
X148769343Y-90687819D01*
X148674105Y-90830676D01*
X148626486Y-91021152D01*
X148626486Y-91402105D01*
X148674105Y-91497343D01*
X148721724Y-91544962D01*
X148816962Y-91592581D01*
X149007439Y-91592581D01*
X149102677Y-91544962D01*
X149150296Y-91497343D01*
X149197915Y-91402105D01*
X149197915Y-91164010D01*
X149150296Y-91068771D01*
X149102677Y-91021152D01*
X149007439Y-90973533D01*
X148816962Y-90973533D01*
X148721724Y-91021152D01*
X148674105Y-91068771D01*
X148626486Y-91164010D01*
X140803334Y-95017943D02*
X140755715Y-95065562D01*
X140612858Y-95113181D01*
X140517620Y-95113181D01*
X140374762Y-95065562D01*
X140279524Y-94970324D01*
X140231905Y-94875086D01*
X140184286Y-94684610D01*
X140184286Y-94541752D01*
X140231905Y-94351276D01*
X140279524Y-94256038D01*
X140374762Y-94160800D01*
X140517620Y-94113181D01*
X140612858Y-94113181D01*
X140755715Y-94160800D01*
X140803334Y-94208419D01*
X141136667Y-94113181D02*
X141803334Y-94113181D01*
X141374762Y-95113181D01*
X148296334Y-89211343D02*
X148248715Y-89258962D01*
X148105858Y-89306581D01*
X148010620Y-89306581D01*
X147867762Y-89258962D01*
X147772524Y-89163724D01*
X147724905Y-89068486D01*
X147677286Y-88878010D01*
X147677286Y-88735152D01*
X147724905Y-88544676D01*
X147772524Y-88449438D01*
X147867762Y-88354200D01*
X148010620Y-88306581D01*
X148105858Y-88306581D01*
X148248715Y-88354200D01*
X148296334Y-88401819D01*
X148867762Y-88735152D02*
X148772524Y-88687533D01*
X148724905Y-88639914D01*
X148677286Y-88544676D01*
X148677286Y-88497057D01*
X148724905Y-88401819D01*
X148772524Y-88354200D01*
X148867762Y-88306581D01*
X149058239Y-88306581D01*
X149153477Y-88354200D01*
X149201096Y-88401819D01*
X149248715Y-88497057D01*
X149248715Y-88544676D01*
X149201096Y-88639914D01*
X149153477Y-88687533D01*
X149058239Y-88735152D01*
X148867762Y-88735152D01*
X148772524Y-88782771D01*
X148724905Y-88830390D01*
X148677286Y-88925629D01*
X148677286Y-89116105D01*
X148724905Y-89211343D01*
X148772524Y-89258962D01*
X148867762Y-89306581D01*
X149058239Y-89306581D01*
X149153477Y-89258962D01*
X149201096Y-89211343D01*
X149248715Y-89116105D01*
X149248715Y-88925629D01*
X149201096Y-88830390D01*
X149153477Y-88782771D01*
X149058239Y-88735152D01*
X146843943Y-87644266D02*
X146891562Y-87691885D01*
X146939181Y-87834742D01*
X146939181Y-87929980D01*
X146891562Y-88072838D01*
X146796324Y-88168076D01*
X146701086Y-88215695D01*
X146510610Y-88263314D01*
X146367752Y-88263314D01*
X146177276Y-88215695D01*
X146082038Y-88168076D01*
X145986800Y-88072838D01*
X145939181Y-87929980D01*
X145939181Y-87834742D01*
X145986800Y-87691885D01*
X146034419Y-87644266D01*
X146939181Y-87168076D02*
X146939181Y-86977600D01*
X146891562Y-86882361D01*
X146843943Y-86834742D01*
X146701086Y-86739504D01*
X146510610Y-86691885D01*
X146129657Y-86691885D01*
X146034419Y-86739504D01*
X145986800Y-86787123D01*
X145939181Y-86882361D01*
X145939181Y-87072838D01*
X145986800Y-87168076D01*
X146034419Y-87215695D01*
X146129657Y-87263314D01*
X146367752Y-87263314D01*
X146462990Y-87215695D01*
X146510610Y-87168076D01*
X146558229Y-87072838D01*
X146558229Y-86882361D01*
X146510610Y-86787123D01*
X146462990Y-86739504D01*
X146367752Y-86691885D01*
X140676334Y-93827781D02*
X140343000Y-93351590D01*
X140104905Y-93827781D02*
X140104905Y-92827781D01*
X140485858Y-92827781D01*
X140581096Y-92875400D01*
X140628715Y-92923019D01*
X140676334Y-93018257D01*
X140676334Y-93161114D01*
X140628715Y-93256352D01*
X140581096Y-93303971D01*
X140485858Y-93351590D01*
X140104905Y-93351590D01*
X141628715Y-93827781D02*
X141057286Y-93827781D01*
X141343000Y-93827781D02*
X141343000Y-92827781D01*
X141247762Y-92970638D01*
X141152524Y-93065876D01*
X141057286Y-93113495D01*
X133527981Y-93841866D02*
X133051790Y-94175200D01*
X133527981Y-94413295D02*
X132527981Y-94413295D01*
X132527981Y-94032342D01*
X132575600Y-93937104D01*
X132623219Y-93889485D01*
X132718457Y-93841866D01*
X132861314Y-93841866D01*
X132956552Y-93889485D01*
X133004171Y-93937104D01*
X133051790Y-94032342D01*
X133051790Y-94413295D01*
X132623219Y-93460914D02*
X132575600Y-93413295D01*
X132527981Y-93318057D01*
X132527981Y-93079961D01*
X132575600Y-92984723D01*
X132623219Y-92937104D01*
X132718457Y-92889485D01*
X132813695Y-92889485D01*
X132956552Y-92937104D01*
X133527981Y-93508533D01*
X133527981Y-92889485D01*
X141338095Y-93152381D02*
X141338095Y-93961905D01*
X141385714Y-94057143D01*
X141433333Y-94104762D01*
X141528571Y-94152381D01*
X141719048Y-94152381D01*
X141814286Y-94104762D01*
X141861905Y-94057143D01*
X141909524Y-93961905D01*
X141909524Y-93152381D01*
X142909524Y-94152381D02*
X142338095Y-94152381D01*
X142623809Y-94152381D02*
X142623809Y-93152381D01*
X142528571Y-93295238D01*
X142433333Y-93390476D01*
X142338095Y-93438095D01*
X146494295Y-89590181D02*
X146494295Y-90399705D01*
X146541914Y-90494943D01*
X146589533Y-90542562D01*
X146684771Y-90590181D01*
X146875248Y-90590181D01*
X146970486Y-90542562D01*
X147018105Y-90494943D01*
X147065724Y-90399705D01*
X147065724Y-89590181D01*
X147494295Y-89685419D02*
X147541914Y-89637800D01*
X147637152Y-89590181D01*
X147875248Y-89590181D01*
X147970486Y-89637800D01*
X148018105Y-89685419D01*
X148065724Y-89780657D01*
X148065724Y-89875895D01*
X148018105Y-90018752D01*
X147446676Y-90590181D01*
X148065724Y-90590181D01*
M02*
