G04 #@! TF.FileFunction,Legend,Top*
%FSLAX46Y46*%
G04 Gerber Fmt 4.6, Leading zero omitted, Abs format (unit mm)*
G04 Created by KiCad (PCBNEW 4.0.0-rc1-stable) date 11/13/2015 11:17:05 PM*
%MOMM*%
G01*
G04 APERTURE LIST*
%ADD10C,0.100000*%
%ADD11C,0.150000*%
G04 APERTURE END LIST*
D10*
D11*
X133273600Y-94042800D02*
X130573600Y-94042800D01*
X133273600Y-95542800D02*
X130573600Y-95542800D01*
X131773600Y-94642800D02*
X131773600Y-94892800D01*
X131773600Y-94892800D02*
X131923600Y-94742800D01*
X132023600Y-95142800D02*
X132023600Y-94442800D01*
X131673600Y-94792800D02*
X131323600Y-94792800D01*
X132023600Y-94792800D02*
X131673600Y-95142800D01*
X131673600Y-95142800D02*
X131673600Y-94442800D01*
X131673600Y-94442800D02*
X132023600Y-94792800D01*
X146224040Y-96916240D02*
X146272300Y-96916240D01*
X149023020Y-96215200D02*
X149023020Y-96916240D01*
X149023020Y-96916240D02*
X148774100Y-96916240D01*
X146224040Y-96916240D02*
X146023380Y-96916240D01*
X146023380Y-96916240D02*
X146023380Y-96215200D01*
X132972760Y-85938360D02*
X132924500Y-85938360D01*
X130173780Y-86639400D02*
X130173780Y-85938360D01*
X130173780Y-85938360D02*
X130422700Y-85938360D01*
X132972760Y-85938360D02*
X133173420Y-85938360D01*
X133173420Y-85938360D02*
X133173420Y-86639400D01*
X133072000Y-82923000D02*
X133072000Y-81923000D01*
X136422000Y-82923000D02*
X136422000Y-81923000D01*
X134934400Y-89910400D02*
X134934400Y-89210400D01*
X136134400Y-89210400D02*
X136134400Y-89910400D01*
X138217200Y-93122000D02*
X138217200Y-93822000D01*
X137017200Y-93822000D02*
X137017200Y-93122000D01*
X131272800Y-89519200D02*
X131972800Y-89519200D01*
X131972800Y-90719200D02*
X131272800Y-90719200D01*
X131272800Y-91957600D02*
X131972800Y-91957600D01*
X131972800Y-93157600D02*
X131272800Y-93157600D01*
X144795800Y-93782400D02*
X144795800Y-94482400D01*
X143595800Y-94482400D02*
X143595800Y-93782400D01*
X148062200Y-92440200D02*
X148762200Y-92440200D01*
X148762200Y-93640200D02*
X148062200Y-93640200D01*
X141320000Y-93360800D02*
X140620000Y-93360800D01*
X140620000Y-92160800D02*
X141320000Y-92160800D01*
X148113000Y-90154200D02*
X148813000Y-90154200D01*
X148813000Y-91354200D02*
X148113000Y-91354200D01*
X147786800Y-87827600D02*
X147786800Y-87127600D01*
X148986800Y-87127600D02*
X148986800Y-87827600D01*
X141343000Y-95950400D02*
X140343000Y-95950400D01*
X140343000Y-94600400D02*
X141343000Y-94600400D01*
X135650600Y-93175200D02*
X135650600Y-94175200D01*
X134300600Y-94175200D02*
X134300600Y-93175200D01*
X127785905Y-95321381D02*
X127785905Y-94321381D01*
X128024000Y-94321381D01*
X128166858Y-94369000D01*
X128262096Y-94464238D01*
X128309715Y-94559476D01*
X128357334Y-94749952D01*
X128357334Y-94892810D01*
X128309715Y-95083286D01*
X128262096Y-95178524D01*
X128166858Y-95273762D01*
X128024000Y-95321381D01*
X127785905Y-95321381D01*
X129309715Y-95321381D02*
X128738286Y-95321381D01*
X129024000Y-95321381D02*
X129024000Y-94321381D01*
X128928762Y-94464238D01*
X128833524Y-94559476D01*
X128738286Y-94607095D01*
X148987024Y-98496381D02*
X148510833Y-98496381D01*
X148510833Y-97496381D01*
X149320357Y-98496381D02*
X149320357Y-97496381D01*
X149558452Y-97496381D01*
X149701310Y-97544000D01*
X149796548Y-97639238D01*
X149844167Y-97734476D01*
X149891786Y-97924952D01*
X149891786Y-98067810D01*
X149844167Y-98258286D01*
X149796548Y-98353524D01*
X149701310Y-98448762D01*
X149558452Y-98496381D01*
X149320357Y-98496381D01*
X150510833Y-97496381D02*
X150701310Y-97496381D01*
X150796548Y-97544000D01*
X150891786Y-97639238D01*
X150939405Y-97829714D01*
X150939405Y-98163048D01*
X150891786Y-98353524D01*
X150796548Y-98448762D01*
X150701310Y-98496381D01*
X150510833Y-98496381D01*
X150415595Y-98448762D01*
X150320357Y-98353524D01*
X150272738Y-98163048D01*
X150272738Y-97829714D01*
X150320357Y-97639238D01*
X150415595Y-97544000D01*
X150510833Y-97496381D01*
X151891786Y-98496381D02*
X151320357Y-98496381D01*
X151606071Y-98496381D02*
X151606071Y-97496381D01*
X151510833Y-97639238D01*
X151415595Y-97734476D01*
X151320357Y-97782095D01*
X129111524Y-84526381D02*
X128635333Y-84526381D01*
X128635333Y-83526381D01*
X129444857Y-84526381D02*
X129444857Y-83526381D01*
X129682952Y-83526381D01*
X129825810Y-83574000D01*
X129921048Y-83669238D01*
X129968667Y-83764476D01*
X130016286Y-83954952D01*
X130016286Y-84097810D01*
X129968667Y-84288286D01*
X129921048Y-84383524D01*
X129825810Y-84478762D01*
X129682952Y-84526381D01*
X129444857Y-84526381D01*
X130635333Y-83526381D02*
X130825810Y-83526381D01*
X130921048Y-83574000D01*
X131016286Y-83669238D01*
X131063905Y-83859714D01*
X131063905Y-84193048D01*
X131016286Y-84383524D01*
X130921048Y-84478762D01*
X130825810Y-84526381D01*
X130635333Y-84526381D01*
X130540095Y-84478762D01*
X130444857Y-84383524D01*
X130397238Y-84193048D01*
X130397238Y-83859714D01*
X130444857Y-83669238D01*
X130540095Y-83574000D01*
X130635333Y-83526381D01*
X131444857Y-83621619D02*
X131492476Y-83574000D01*
X131587714Y-83526381D01*
X131825810Y-83526381D01*
X131921048Y-83574000D01*
X131968667Y-83621619D01*
X132016286Y-83716857D01*
X132016286Y-83812095D01*
X131968667Y-83954952D01*
X131397238Y-84526381D01*
X132016286Y-84526381D01*
X137763334Y-82748381D02*
X137430000Y-82272190D01*
X137191905Y-82748381D02*
X137191905Y-81748381D01*
X137572858Y-81748381D01*
X137668096Y-81796000D01*
X137715715Y-81843619D01*
X137763334Y-81938857D01*
X137763334Y-82081714D01*
X137715715Y-82176952D01*
X137668096Y-82224571D01*
X137572858Y-82272190D01*
X137191905Y-82272190D01*
X138191905Y-82748381D02*
X138191905Y-81748381D01*
X138572858Y-81748381D01*
X138668096Y-81796000D01*
X138715715Y-81843619D01*
X138763334Y-81938857D01*
X138763334Y-82081714D01*
X138715715Y-82176952D01*
X138668096Y-82224571D01*
X138572858Y-82272190D01*
X138191905Y-82272190D01*
X139715715Y-82748381D02*
X139144286Y-82748381D01*
X139430000Y-82748381D02*
X139430000Y-81748381D01*
X139334762Y-81891238D01*
X139239524Y-81986476D01*
X139144286Y-82034095D01*
X135469334Y-87733143D02*
X135421715Y-87780762D01*
X135278858Y-87828381D01*
X135183620Y-87828381D01*
X135040762Y-87780762D01*
X134945524Y-87685524D01*
X134897905Y-87590286D01*
X134850286Y-87399810D01*
X134850286Y-87256952D01*
X134897905Y-87066476D01*
X134945524Y-86971238D01*
X135040762Y-86876000D01*
X135183620Y-86828381D01*
X135278858Y-86828381D01*
X135421715Y-86876000D01*
X135469334Y-86923619D01*
X136421715Y-87828381D02*
X135850286Y-87828381D01*
X136136000Y-87828381D02*
X136136000Y-86828381D01*
X136040762Y-86971238D01*
X135945524Y-87066476D01*
X135850286Y-87114095D01*
X137501334Y-96115143D02*
X137453715Y-96162762D01*
X137310858Y-96210381D01*
X137215620Y-96210381D01*
X137072762Y-96162762D01*
X136977524Y-96067524D01*
X136929905Y-95972286D01*
X136882286Y-95781810D01*
X136882286Y-95638952D01*
X136929905Y-95448476D01*
X136977524Y-95353238D01*
X137072762Y-95258000D01*
X137215620Y-95210381D01*
X137310858Y-95210381D01*
X137453715Y-95258000D01*
X137501334Y-95305619D01*
X137882286Y-95305619D02*
X137929905Y-95258000D01*
X138025143Y-95210381D01*
X138263239Y-95210381D01*
X138358477Y-95258000D01*
X138406096Y-95305619D01*
X138453715Y-95400857D01*
X138453715Y-95496095D01*
X138406096Y-95638952D01*
X137834667Y-96210381D01*
X138453715Y-96210381D01*
X128865334Y-90527143D02*
X128817715Y-90574762D01*
X128674858Y-90622381D01*
X128579620Y-90622381D01*
X128436762Y-90574762D01*
X128341524Y-90479524D01*
X128293905Y-90384286D01*
X128246286Y-90193810D01*
X128246286Y-90050952D01*
X128293905Y-89860476D01*
X128341524Y-89765238D01*
X128436762Y-89670000D01*
X128579620Y-89622381D01*
X128674858Y-89622381D01*
X128817715Y-89670000D01*
X128865334Y-89717619D01*
X129198667Y-89622381D02*
X129817715Y-89622381D01*
X129484381Y-90003333D01*
X129627239Y-90003333D01*
X129722477Y-90050952D01*
X129770096Y-90098571D01*
X129817715Y-90193810D01*
X129817715Y-90431905D01*
X129770096Y-90527143D01*
X129722477Y-90574762D01*
X129627239Y-90622381D01*
X129341524Y-90622381D01*
X129246286Y-90574762D01*
X129198667Y-90527143D01*
X128865334Y-92813143D02*
X128817715Y-92860762D01*
X128674858Y-92908381D01*
X128579620Y-92908381D01*
X128436762Y-92860762D01*
X128341524Y-92765524D01*
X128293905Y-92670286D01*
X128246286Y-92479810D01*
X128246286Y-92336952D01*
X128293905Y-92146476D01*
X128341524Y-92051238D01*
X128436762Y-91956000D01*
X128579620Y-91908381D01*
X128674858Y-91908381D01*
X128817715Y-91956000D01*
X128865334Y-92003619D01*
X129722477Y-92241714D02*
X129722477Y-92908381D01*
X129484381Y-91860762D02*
X129246286Y-92575048D01*
X129865334Y-92575048D01*
X145629334Y-93067143D02*
X145581715Y-93114762D01*
X145438858Y-93162381D01*
X145343620Y-93162381D01*
X145200762Y-93114762D01*
X145105524Y-93019524D01*
X145057905Y-92924286D01*
X145010286Y-92733810D01*
X145010286Y-92590952D01*
X145057905Y-92400476D01*
X145105524Y-92305238D01*
X145200762Y-92210000D01*
X145343620Y-92162381D01*
X145438858Y-92162381D01*
X145581715Y-92210000D01*
X145629334Y-92257619D01*
X146534096Y-92162381D02*
X146057905Y-92162381D01*
X146010286Y-92638571D01*
X146057905Y-92590952D01*
X146153143Y-92543333D01*
X146391239Y-92543333D01*
X146486477Y-92590952D01*
X146534096Y-92638571D01*
X146581715Y-92733810D01*
X146581715Y-92971905D01*
X146534096Y-93067143D01*
X146486477Y-93114762D01*
X146391239Y-93162381D01*
X146153143Y-93162381D01*
X146057905Y-93114762D01*
X146010286Y-93067143D01*
X149947334Y-92305143D02*
X149899715Y-92352762D01*
X149756858Y-92400381D01*
X149661620Y-92400381D01*
X149518762Y-92352762D01*
X149423524Y-92257524D01*
X149375905Y-92162286D01*
X149328286Y-91971810D01*
X149328286Y-91828952D01*
X149375905Y-91638476D01*
X149423524Y-91543238D01*
X149518762Y-91448000D01*
X149661620Y-91400381D01*
X149756858Y-91400381D01*
X149899715Y-91448000D01*
X149947334Y-91495619D01*
X150804477Y-91400381D02*
X150614000Y-91400381D01*
X150518762Y-91448000D01*
X150471143Y-91495619D01*
X150375905Y-91638476D01*
X150328286Y-91828952D01*
X150328286Y-92209905D01*
X150375905Y-92305143D01*
X150423524Y-92352762D01*
X150518762Y-92400381D01*
X150709239Y-92400381D01*
X150804477Y-92352762D01*
X150852096Y-92305143D01*
X150899715Y-92209905D01*
X150899715Y-91971810D01*
X150852096Y-91876571D01*
X150804477Y-91828952D01*
X150709239Y-91781333D01*
X150518762Y-91781333D01*
X150423524Y-91828952D01*
X150375905Y-91876571D01*
X150328286Y-91971810D01*
X143089334Y-92305143D02*
X143041715Y-92352762D01*
X142898858Y-92400381D01*
X142803620Y-92400381D01*
X142660762Y-92352762D01*
X142565524Y-92257524D01*
X142517905Y-92162286D01*
X142470286Y-91971810D01*
X142470286Y-91828952D01*
X142517905Y-91638476D01*
X142565524Y-91543238D01*
X142660762Y-91448000D01*
X142803620Y-91400381D01*
X142898858Y-91400381D01*
X143041715Y-91448000D01*
X143089334Y-91495619D01*
X143422667Y-91400381D02*
X144089334Y-91400381D01*
X143660762Y-92400381D01*
X149947334Y-89765143D02*
X149899715Y-89812762D01*
X149756858Y-89860381D01*
X149661620Y-89860381D01*
X149518762Y-89812762D01*
X149423524Y-89717524D01*
X149375905Y-89622286D01*
X149328286Y-89431810D01*
X149328286Y-89288952D01*
X149375905Y-89098476D01*
X149423524Y-89003238D01*
X149518762Y-88908000D01*
X149661620Y-88860381D01*
X149756858Y-88860381D01*
X149899715Y-88908000D01*
X149947334Y-88955619D01*
X150518762Y-89288952D02*
X150423524Y-89241333D01*
X150375905Y-89193714D01*
X150328286Y-89098476D01*
X150328286Y-89050857D01*
X150375905Y-88955619D01*
X150423524Y-88908000D01*
X150518762Y-88860381D01*
X150709239Y-88860381D01*
X150804477Y-88908000D01*
X150852096Y-88955619D01*
X150899715Y-89050857D01*
X150899715Y-89098476D01*
X150852096Y-89193714D01*
X150804477Y-89241333D01*
X150709239Y-89288952D01*
X150518762Y-89288952D01*
X150423524Y-89336571D01*
X150375905Y-89384190D01*
X150328286Y-89479429D01*
X150328286Y-89669905D01*
X150375905Y-89765143D01*
X150423524Y-89812762D01*
X150518762Y-89860381D01*
X150709239Y-89860381D01*
X150804477Y-89812762D01*
X150852096Y-89765143D01*
X150899715Y-89669905D01*
X150899715Y-89479429D01*
X150852096Y-89384190D01*
X150804477Y-89336571D01*
X150709239Y-89288952D01*
X149947334Y-86463143D02*
X149899715Y-86510762D01*
X149756858Y-86558381D01*
X149661620Y-86558381D01*
X149518762Y-86510762D01*
X149423524Y-86415524D01*
X149375905Y-86320286D01*
X149328286Y-86129810D01*
X149328286Y-85986952D01*
X149375905Y-85796476D01*
X149423524Y-85701238D01*
X149518762Y-85606000D01*
X149661620Y-85558381D01*
X149756858Y-85558381D01*
X149899715Y-85606000D01*
X149947334Y-85653619D01*
X150423524Y-86558381D02*
X150614000Y-86558381D01*
X150709239Y-86510762D01*
X150756858Y-86463143D01*
X150852096Y-86320286D01*
X150899715Y-86129810D01*
X150899715Y-85748857D01*
X150852096Y-85653619D01*
X150804477Y-85606000D01*
X150709239Y-85558381D01*
X150518762Y-85558381D01*
X150423524Y-85606000D01*
X150375905Y-85653619D01*
X150328286Y-85748857D01*
X150328286Y-85986952D01*
X150375905Y-86082190D01*
X150423524Y-86129810D01*
X150518762Y-86177429D01*
X150709239Y-86177429D01*
X150804477Y-86129810D01*
X150852096Y-86082190D01*
X150899715Y-85986952D01*
X140803334Y-97480381D02*
X140470000Y-97004190D01*
X140231905Y-97480381D02*
X140231905Y-96480381D01*
X140612858Y-96480381D01*
X140708096Y-96528000D01*
X140755715Y-96575619D01*
X140803334Y-96670857D01*
X140803334Y-96813714D01*
X140755715Y-96908952D01*
X140708096Y-96956571D01*
X140612858Y-97004190D01*
X140231905Y-97004190D01*
X141755715Y-97480381D02*
X141184286Y-97480381D01*
X141470000Y-97480381D02*
X141470000Y-96480381D01*
X141374762Y-96623238D01*
X141279524Y-96718476D01*
X141184286Y-96766095D01*
X134707334Y-92146381D02*
X134374000Y-91670190D01*
X134135905Y-92146381D02*
X134135905Y-91146381D01*
X134516858Y-91146381D01*
X134612096Y-91194000D01*
X134659715Y-91241619D01*
X134707334Y-91336857D01*
X134707334Y-91479714D01*
X134659715Y-91574952D01*
X134612096Y-91622571D01*
X134516858Y-91670190D01*
X134135905Y-91670190D01*
X135088286Y-91241619D02*
X135135905Y-91194000D01*
X135231143Y-91146381D01*
X135469239Y-91146381D01*
X135564477Y-91194000D01*
X135612096Y-91241619D01*
X135659715Y-91336857D01*
X135659715Y-91432095D01*
X135612096Y-91574952D01*
X135040667Y-92146381D01*
X135659715Y-92146381D01*
X138938095Y-85050381D02*
X138938095Y-85859905D01*
X138985714Y-85955143D01*
X139033333Y-86002762D01*
X139128571Y-86050381D01*
X139319048Y-86050381D01*
X139414286Y-86002762D01*
X139461905Y-85955143D01*
X139509524Y-85859905D01*
X139509524Y-85050381D01*
X140509524Y-86050381D02*
X139938095Y-86050381D01*
X140223809Y-86050381D02*
X140223809Y-85050381D01*
X140128571Y-85193238D01*
X140033333Y-85288476D01*
X139938095Y-85336095D01*
X144018095Y-82256381D02*
X144018095Y-83065905D01*
X144065714Y-83161143D01*
X144113333Y-83208762D01*
X144208571Y-83256381D01*
X144399048Y-83256381D01*
X144494286Y-83208762D01*
X144541905Y-83161143D01*
X144589524Y-83065905D01*
X144589524Y-82256381D01*
X145018095Y-82351619D02*
X145065714Y-82304000D01*
X145160952Y-82256381D01*
X145399048Y-82256381D01*
X145494286Y-82304000D01*
X145541905Y-82351619D01*
X145589524Y-82446857D01*
X145589524Y-82542095D01*
X145541905Y-82684952D01*
X144970476Y-83256381D01*
X145589524Y-83256381D01*
M02*
