G04 #@! TF.FileFunction,Legend,Top*
%FSLAX46Y46*%
G04 Gerber Fmt 4.6, Leading zero omitted, Abs format (unit mm)*
G04 Created by KiCad (PCBNEW 4.0.0-rc1-stable) date 12/3/2015 7:42:29 PM*
%MOMM*%
G01*
G04 APERTURE LIST*
%ADD10C,0.100000*%
%ADD11C,0.150000*%
G04 APERTURE END LIST*
D10*
D11*
X121765000Y-105910000D02*
X121765000Y-104910000D01*
X123115000Y-104910000D02*
X123115000Y-105910000D01*
X120050000Y-84920000D02*
X120050000Y-84220000D01*
X121250000Y-84220000D02*
X121250000Y-84920000D01*
X122590000Y-84920000D02*
X122590000Y-84220000D01*
X123790000Y-84220000D02*
X123790000Y-84920000D01*
X125130000Y-84920000D02*
X125130000Y-84220000D01*
X126330000Y-84220000D02*
X126330000Y-84920000D01*
X141645000Y-87650000D02*
X141645000Y-88650000D01*
X140295000Y-88650000D02*
X140295000Y-87650000D01*
X131529020Y-102350000D02*
X134229020Y-102350000D01*
X131529020Y-100850000D02*
X134229020Y-100850000D01*
X133029020Y-101750000D02*
X133029020Y-101500000D01*
X133029020Y-101500000D02*
X132879020Y-101650000D01*
X132779020Y-101250000D02*
X132779020Y-101950000D01*
X133129020Y-101600000D02*
X133479020Y-101600000D01*
X132779020Y-101600000D02*
X133129020Y-101250000D01*
X133129020Y-101250000D02*
X133129020Y-101950000D01*
X133129020Y-101950000D02*
X132779020Y-101600000D01*
X135339020Y-102350000D02*
X138039020Y-102350000D01*
X135339020Y-100850000D02*
X138039020Y-100850000D01*
X136839020Y-101750000D02*
X136839020Y-101500000D01*
X136839020Y-101500000D02*
X136689020Y-101650000D01*
X136589020Y-101250000D02*
X136589020Y-101950000D01*
X136939020Y-101600000D02*
X137289020Y-101600000D01*
X136589020Y-101600000D02*
X136939020Y-101250000D01*
X136939020Y-101250000D02*
X136939020Y-101950000D01*
X136939020Y-101950000D02*
X136589020Y-101600000D01*
X135290000Y-84920000D02*
X135290000Y-84220000D01*
X136490000Y-84220000D02*
X136490000Y-84920000D01*
X127670000Y-84690000D02*
X127670000Y-83990000D01*
X128870000Y-83990000D02*
X128870000Y-84690000D01*
X130210000Y-84920000D02*
X130210000Y-84220000D01*
X131410000Y-84220000D02*
X131410000Y-84920000D01*
X130919020Y-100850000D02*
X128219020Y-100850000D01*
X130919020Y-102350000D02*
X128219020Y-102350000D01*
X129419020Y-101450000D02*
X129419020Y-101700000D01*
X129419020Y-101700000D02*
X129569020Y-101550000D01*
X129669020Y-101950000D02*
X129669020Y-101250000D01*
X129319020Y-101600000D02*
X128969020Y-101600000D01*
X129669020Y-101600000D02*
X129319020Y-101950000D01*
X129319020Y-101950000D02*
X129319020Y-101250000D01*
X129319020Y-101250000D02*
X129669020Y-101600000D01*
X124535000Y-105910000D02*
X124535000Y-104910000D01*
X125885000Y-104910000D02*
X125885000Y-105910000D01*
X128425000Y-104910000D02*
X128425000Y-105910000D01*
X127075000Y-105910000D02*
X127075000Y-104910000D01*
X130965000Y-104910000D02*
X130965000Y-105910000D01*
X129615000Y-105910000D02*
X129615000Y-104910000D01*
X133505000Y-104910000D02*
X133505000Y-105910000D01*
X132155000Y-105910000D02*
X132155000Y-104910000D01*
X136565000Y-104910000D02*
X136565000Y-105910000D01*
X135215000Y-105910000D02*
X135215000Y-104910000D01*
X139950000Y-106005000D02*
X140950000Y-106005000D01*
X140950000Y-107355000D02*
X139950000Y-107355000D01*
X132496000Y-86214000D02*
X132496000Y-85514000D01*
X133696000Y-85514000D02*
X133696000Y-86214000D01*
X147300000Y-99735000D02*
X146300000Y-99735000D01*
X146300000Y-98385000D02*
X147300000Y-98385000D01*
X110309660Y-92029280D02*
X110309660Y-99730560D01*
X109308900Y-92029280D02*
X109308900Y-99730560D01*
X109308900Y-99730560D02*
X118508780Y-99730560D01*
X118508780Y-99730560D02*
X118508780Y-92029280D01*
X118508780Y-92029280D02*
X109308900Y-92029280D01*
X132315000Y-98299000D02*
X131540000Y-98299000D01*
X128015000Y-93999000D02*
X128790000Y-93999000D01*
X128015000Y-98299000D02*
X128790000Y-98299000D01*
X132315000Y-93999000D02*
X132315000Y-94774000D01*
X128015000Y-93999000D02*
X128015000Y-94774000D01*
X128015000Y-98299000D02*
X128015000Y-97524000D01*
X132315000Y-98299000D02*
X132315000Y-97524000D01*
X122333334Y-107952381D02*
X122000000Y-107476190D01*
X121761905Y-107952381D02*
X121761905Y-106952381D01*
X122142858Y-106952381D01*
X122238096Y-107000000D01*
X122285715Y-107047619D01*
X122333334Y-107142857D01*
X122333334Y-107285714D01*
X122285715Y-107380952D01*
X122238096Y-107428571D01*
X122142858Y-107476190D01*
X121761905Y-107476190D01*
X123285715Y-107952381D02*
X122714286Y-107952381D01*
X123000000Y-107952381D02*
X123000000Y-106952381D01*
X122904762Y-107095238D01*
X122809524Y-107190476D01*
X122714286Y-107238095D01*
X117857143Y-85166666D02*
X117904762Y-85214285D01*
X117952381Y-85357142D01*
X117952381Y-85452380D01*
X117904762Y-85595238D01*
X117809524Y-85690476D01*
X117714286Y-85738095D01*
X117523810Y-85785714D01*
X117380952Y-85785714D01*
X117190476Y-85738095D01*
X117095238Y-85690476D01*
X117000000Y-85595238D01*
X116952381Y-85452380D01*
X116952381Y-85357142D01*
X117000000Y-85214285D01*
X117047619Y-85166666D01*
X117952381Y-84214285D02*
X117952381Y-84785714D01*
X117952381Y-84500000D02*
X116952381Y-84500000D01*
X117095238Y-84595238D01*
X117190476Y-84690476D01*
X117238095Y-84785714D01*
X122357143Y-85166666D02*
X122404762Y-85214285D01*
X122452381Y-85357142D01*
X122452381Y-85452380D01*
X122404762Y-85595238D01*
X122309524Y-85690476D01*
X122214286Y-85738095D01*
X122023810Y-85785714D01*
X121880952Y-85785714D01*
X121690476Y-85738095D01*
X121595238Y-85690476D01*
X121500000Y-85595238D01*
X121452381Y-85452380D01*
X121452381Y-85357142D01*
X121500000Y-85214285D01*
X121547619Y-85166666D01*
X121547619Y-84785714D02*
X121500000Y-84738095D01*
X121452381Y-84642857D01*
X121452381Y-84404761D01*
X121500000Y-84309523D01*
X121547619Y-84261904D01*
X121642857Y-84214285D01*
X121738095Y-84214285D01*
X121880952Y-84261904D01*
X122452381Y-84833333D01*
X122452381Y-84214285D01*
X124857143Y-85166666D02*
X124904762Y-85214285D01*
X124952381Y-85357142D01*
X124952381Y-85452380D01*
X124904762Y-85595238D01*
X124809524Y-85690476D01*
X124714286Y-85738095D01*
X124523810Y-85785714D01*
X124380952Y-85785714D01*
X124190476Y-85738095D01*
X124095238Y-85690476D01*
X124000000Y-85595238D01*
X123952381Y-85452380D01*
X123952381Y-85357142D01*
X124000000Y-85214285D01*
X124047619Y-85166666D01*
X123952381Y-84833333D02*
X123952381Y-84214285D01*
X124333333Y-84547619D01*
X124333333Y-84404761D01*
X124380952Y-84309523D01*
X124428571Y-84261904D01*
X124523810Y-84214285D01*
X124761905Y-84214285D01*
X124857143Y-84261904D01*
X124904762Y-84309523D01*
X124952381Y-84404761D01*
X124952381Y-84690476D01*
X124904762Y-84785714D01*
X124857143Y-84833333D01*
X142833334Y-87952381D02*
X142357143Y-87952381D01*
X142357143Y-86952381D01*
X143690477Y-87952381D02*
X143119048Y-87952381D01*
X143404762Y-87952381D02*
X143404762Y-86952381D01*
X143309524Y-87095238D01*
X143214286Y-87190476D01*
X143119048Y-87238095D01*
X132390925Y-99952381D02*
X132390925Y-98952381D01*
X132629020Y-98952381D01*
X132771878Y-99000000D01*
X132867116Y-99095238D01*
X132914735Y-99190476D01*
X132962354Y-99380952D01*
X132962354Y-99523810D01*
X132914735Y-99714286D01*
X132867116Y-99809524D01*
X132771878Y-99904762D01*
X132629020Y-99952381D01*
X132390925Y-99952381D01*
X133343306Y-99047619D02*
X133390925Y-99000000D01*
X133486163Y-98952381D01*
X133724259Y-98952381D01*
X133819497Y-99000000D01*
X133867116Y-99047619D01*
X133914735Y-99142857D01*
X133914735Y-99238095D01*
X133867116Y-99380952D01*
X133295687Y-99952381D01*
X133914735Y-99952381D01*
X136261905Y-99952381D02*
X136261905Y-98952381D01*
X136500000Y-98952381D01*
X136642858Y-99000000D01*
X136738096Y-99095238D01*
X136785715Y-99190476D01*
X136833334Y-99380952D01*
X136833334Y-99523810D01*
X136785715Y-99714286D01*
X136738096Y-99809524D01*
X136642858Y-99904762D01*
X136500000Y-99952381D01*
X136261905Y-99952381D01*
X137166667Y-98952381D02*
X137785715Y-98952381D01*
X137452381Y-99333333D01*
X137595239Y-99333333D01*
X137690477Y-99380952D01*
X137738096Y-99428571D01*
X137785715Y-99523810D01*
X137785715Y-99761905D01*
X137738096Y-99857143D01*
X137690477Y-99904762D01*
X137595239Y-99952381D01*
X137309524Y-99952381D01*
X137214286Y-99904762D01*
X137166667Y-99857143D01*
X137857143Y-84666666D02*
X137904762Y-84714285D01*
X137952381Y-84857142D01*
X137952381Y-84952380D01*
X137904762Y-85095238D01*
X137809524Y-85190476D01*
X137714286Y-85238095D01*
X137523810Y-85285714D01*
X137380952Y-85285714D01*
X137190476Y-85238095D01*
X137095238Y-85190476D01*
X137000000Y-85095238D01*
X136952381Y-84952380D01*
X136952381Y-84857142D01*
X137000000Y-84714285D01*
X137047619Y-84666666D01*
X136952381Y-83809523D02*
X136952381Y-84000000D01*
X137000000Y-84095238D01*
X137047619Y-84142857D01*
X137190476Y-84238095D01*
X137380952Y-84285714D01*
X137761905Y-84285714D01*
X137857143Y-84238095D01*
X137904762Y-84190476D01*
X137952381Y-84095238D01*
X137952381Y-83904761D01*
X137904762Y-83809523D01*
X137857143Y-83761904D01*
X137761905Y-83714285D01*
X137523810Y-83714285D01*
X137428571Y-83761904D01*
X137380952Y-83809523D01*
X137333333Y-83904761D01*
X137333333Y-84095238D01*
X137380952Y-84190476D01*
X137428571Y-84238095D01*
X137523810Y-84285714D01*
X127357143Y-84666666D02*
X127404762Y-84714285D01*
X127452381Y-84857142D01*
X127452381Y-84952380D01*
X127404762Y-85095238D01*
X127309524Y-85190476D01*
X127214286Y-85238095D01*
X127023810Y-85285714D01*
X126880952Y-85285714D01*
X126690476Y-85238095D01*
X126595238Y-85190476D01*
X126500000Y-85095238D01*
X126452381Y-84952380D01*
X126452381Y-84857142D01*
X126500000Y-84714285D01*
X126547619Y-84666666D01*
X126452381Y-83761904D02*
X126452381Y-84238095D01*
X126928571Y-84285714D01*
X126880952Y-84238095D01*
X126833333Y-84142857D01*
X126833333Y-83904761D01*
X126880952Y-83809523D01*
X126928571Y-83761904D01*
X127023810Y-83714285D01*
X127261905Y-83714285D01*
X127357143Y-83761904D01*
X127404762Y-83809523D01*
X127452381Y-83904761D01*
X127452381Y-84142857D01*
X127404762Y-84238095D01*
X127357143Y-84285714D01*
X129857143Y-85166666D02*
X129904762Y-85214285D01*
X129952381Y-85357142D01*
X129952381Y-85452380D01*
X129904762Y-85595238D01*
X129809524Y-85690476D01*
X129714286Y-85738095D01*
X129523810Y-85785714D01*
X129380952Y-85785714D01*
X129190476Y-85738095D01*
X129095238Y-85690476D01*
X129000000Y-85595238D01*
X128952381Y-85452380D01*
X128952381Y-85357142D01*
X129000000Y-85214285D01*
X129047619Y-85166666D01*
X129285714Y-84309523D02*
X129952381Y-84309523D01*
X128904762Y-84547619D02*
X129619048Y-84785714D01*
X129619048Y-84166666D01*
X129261905Y-99952381D02*
X129261905Y-98952381D01*
X129500000Y-98952381D01*
X129642858Y-99000000D01*
X129738096Y-99095238D01*
X129785715Y-99190476D01*
X129833334Y-99380952D01*
X129833334Y-99523810D01*
X129785715Y-99714286D01*
X129738096Y-99809524D01*
X129642858Y-99904762D01*
X129500000Y-99952381D01*
X129261905Y-99952381D01*
X130785715Y-99952381D02*
X130214286Y-99952381D01*
X130500000Y-99952381D02*
X130500000Y-98952381D01*
X130404762Y-99095238D01*
X130309524Y-99190476D01*
X130214286Y-99238095D01*
X124833334Y-107952381D02*
X124500000Y-107476190D01*
X124261905Y-107952381D02*
X124261905Y-106952381D01*
X124642858Y-106952381D01*
X124738096Y-107000000D01*
X124785715Y-107047619D01*
X124833334Y-107142857D01*
X124833334Y-107285714D01*
X124785715Y-107380952D01*
X124738096Y-107428571D01*
X124642858Y-107476190D01*
X124261905Y-107476190D01*
X125214286Y-107047619D02*
X125261905Y-107000000D01*
X125357143Y-106952381D01*
X125595239Y-106952381D01*
X125690477Y-107000000D01*
X125738096Y-107047619D01*
X125785715Y-107142857D01*
X125785715Y-107238095D01*
X125738096Y-107380952D01*
X125166667Y-107952381D01*
X125785715Y-107952381D01*
X127833334Y-107952381D02*
X127500000Y-107476190D01*
X127261905Y-107952381D02*
X127261905Y-106952381D01*
X127642858Y-106952381D01*
X127738096Y-107000000D01*
X127785715Y-107047619D01*
X127833334Y-107142857D01*
X127833334Y-107285714D01*
X127785715Y-107380952D01*
X127738096Y-107428571D01*
X127642858Y-107476190D01*
X127261905Y-107476190D01*
X128166667Y-106952381D02*
X128785715Y-106952381D01*
X128452381Y-107333333D01*
X128595239Y-107333333D01*
X128690477Y-107380952D01*
X128738096Y-107428571D01*
X128785715Y-107523810D01*
X128785715Y-107761905D01*
X128738096Y-107857143D01*
X128690477Y-107904762D01*
X128595239Y-107952381D01*
X128309524Y-107952381D01*
X128214286Y-107904762D01*
X128166667Y-107857143D01*
X130333334Y-107952381D02*
X130000000Y-107476190D01*
X129761905Y-107952381D02*
X129761905Y-106952381D01*
X130142858Y-106952381D01*
X130238096Y-107000000D01*
X130285715Y-107047619D01*
X130333334Y-107142857D01*
X130333334Y-107285714D01*
X130285715Y-107380952D01*
X130238096Y-107428571D01*
X130142858Y-107476190D01*
X129761905Y-107476190D01*
X131190477Y-107285714D02*
X131190477Y-107952381D01*
X130952381Y-106904762D02*
X130714286Y-107619048D01*
X131333334Y-107619048D01*
X132833334Y-107952381D02*
X132500000Y-107476190D01*
X132261905Y-107952381D02*
X132261905Y-106952381D01*
X132642858Y-106952381D01*
X132738096Y-107000000D01*
X132785715Y-107047619D01*
X132833334Y-107142857D01*
X132833334Y-107285714D01*
X132785715Y-107380952D01*
X132738096Y-107428571D01*
X132642858Y-107476190D01*
X132261905Y-107476190D01*
X133738096Y-106952381D02*
X133261905Y-106952381D01*
X133214286Y-107428571D01*
X133261905Y-107380952D01*
X133357143Y-107333333D01*
X133595239Y-107333333D01*
X133690477Y-107380952D01*
X133738096Y-107428571D01*
X133785715Y-107523810D01*
X133785715Y-107761905D01*
X133738096Y-107857143D01*
X133690477Y-107904762D01*
X133595239Y-107952381D01*
X133357143Y-107952381D01*
X133261905Y-107904762D01*
X133214286Y-107857143D01*
X135833334Y-107952381D02*
X135500000Y-107476190D01*
X135261905Y-107952381D02*
X135261905Y-106952381D01*
X135642858Y-106952381D01*
X135738096Y-107000000D01*
X135785715Y-107047619D01*
X135833334Y-107142857D01*
X135833334Y-107285714D01*
X135785715Y-107380952D01*
X135738096Y-107428571D01*
X135642858Y-107476190D01*
X135261905Y-107476190D01*
X136690477Y-106952381D02*
X136500000Y-106952381D01*
X136404762Y-107000000D01*
X136357143Y-107047619D01*
X136261905Y-107190476D01*
X136214286Y-107380952D01*
X136214286Y-107761905D01*
X136261905Y-107857143D01*
X136309524Y-107904762D01*
X136404762Y-107952381D01*
X136595239Y-107952381D01*
X136690477Y-107904762D01*
X136738096Y-107857143D01*
X136785715Y-107761905D01*
X136785715Y-107523810D01*
X136738096Y-107428571D01*
X136690477Y-107380952D01*
X136595239Y-107333333D01*
X136404762Y-107333333D01*
X136309524Y-107380952D01*
X136261905Y-107428571D01*
X136214286Y-107523810D01*
X143333334Y-106452381D02*
X143000000Y-105976190D01*
X142761905Y-106452381D02*
X142761905Y-105452381D01*
X143142858Y-105452381D01*
X143238096Y-105500000D01*
X143285715Y-105547619D01*
X143333334Y-105642857D01*
X143333334Y-105785714D01*
X143285715Y-105880952D01*
X143238096Y-105928571D01*
X143142858Y-105976190D01*
X142761905Y-105976190D01*
X143666667Y-105452381D02*
X144333334Y-105452381D01*
X143904762Y-106452381D01*
X132857143Y-88166666D02*
X132904762Y-88214285D01*
X132952381Y-88357142D01*
X132952381Y-88452380D01*
X132904762Y-88595238D01*
X132809524Y-88690476D01*
X132714286Y-88738095D01*
X132523810Y-88785714D01*
X132380952Y-88785714D01*
X132190476Y-88738095D01*
X132095238Y-88690476D01*
X132000000Y-88595238D01*
X131952381Y-88452380D01*
X131952381Y-88357142D01*
X132000000Y-88214285D01*
X132047619Y-88166666D01*
X131952381Y-87833333D02*
X131952381Y-87166666D01*
X132952381Y-87595238D01*
X146633334Y-97612381D02*
X146300000Y-97136190D01*
X146061905Y-97612381D02*
X146061905Y-96612381D01*
X146442858Y-96612381D01*
X146538096Y-96660000D01*
X146585715Y-96707619D01*
X146633334Y-96802857D01*
X146633334Y-96945714D01*
X146585715Y-97040952D01*
X146538096Y-97088571D01*
X146442858Y-97136190D01*
X146061905Y-97136190D01*
X147204762Y-97040952D02*
X147109524Y-96993333D01*
X147061905Y-96945714D01*
X147014286Y-96850476D01*
X147014286Y-96802857D01*
X147061905Y-96707619D01*
X147109524Y-96660000D01*
X147204762Y-96612381D01*
X147395239Y-96612381D01*
X147490477Y-96660000D01*
X147538096Y-96707619D01*
X147585715Y-96802857D01*
X147585715Y-96850476D01*
X147538096Y-96945714D01*
X147490477Y-96993333D01*
X147395239Y-97040952D01*
X147204762Y-97040952D01*
X147109524Y-97088571D01*
X147061905Y-97136190D01*
X147014286Y-97231429D01*
X147014286Y-97421905D01*
X147061905Y-97517143D01*
X147109524Y-97564762D01*
X147204762Y-97612381D01*
X147395239Y-97612381D01*
X147490477Y-97564762D01*
X147538096Y-97517143D01*
X147585715Y-97421905D01*
X147585715Y-97231429D01*
X147538096Y-97136190D01*
X147490477Y-97088571D01*
X147395239Y-97040952D01*
X142238095Y-90452381D02*
X142238095Y-91261905D01*
X142285714Y-91357143D01*
X142333333Y-91404762D01*
X142428571Y-91452381D01*
X142619048Y-91452381D01*
X142714286Y-91404762D01*
X142761905Y-91357143D01*
X142809524Y-91261905D01*
X142809524Y-90452381D01*
X143238095Y-90547619D02*
X143285714Y-90500000D01*
X143380952Y-90452381D01*
X143619048Y-90452381D01*
X143714286Y-90500000D01*
X143761905Y-90547619D01*
X143809524Y-90642857D01*
X143809524Y-90738095D01*
X143761905Y-90880952D01*
X143190476Y-91452381D01*
X143809524Y-91452381D01*
X113170745Y-103233481D02*
X113170745Y-102233481D01*
X113551698Y-102233481D01*
X113646936Y-102281100D01*
X113694555Y-102328719D01*
X113742174Y-102423957D01*
X113742174Y-102566814D01*
X113694555Y-102662052D01*
X113646936Y-102709671D01*
X113551698Y-102757290D01*
X113170745Y-102757290D01*
X114694555Y-103233481D02*
X114123126Y-103233481D01*
X114408840Y-103233481D02*
X114408840Y-102233481D01*
X114313602Y-102376338D01*
X114218364Y-102471576D01*
X114123126Y-102519195D01*
X132947381Y-96910905D02*
X133756905Y-96910905D01*
X133852143Y-96863286D01*
X133899762Y-96815667D01*
X133947381Y-96720429D01*
X133947381Y-96529952D01*
X133899762Y-96434714D01*
X133852143Y-96387095D01*
X133756905Y-96339476D01*
X132947381Y-96339476D01*
X133947381Y-95339476D02*
X133947381Y-95910905D01*
X133947381Y-95625191D02*
X132947381Y-95625191D01*
X133090238Y-95720429D01*
X133185476Y-95815667D01*
X133233095Y-95910905D01*
M02*
