M48
;DRILL file {KiCad 4.0.0-rc1-stable} date 12/3/2015 7:42:35 PM
;FORMAT={-:-/ absolute / inch / decimal}
FMAT,2
INCH,TZ
T1C0.016
T2C0.035
%
G90
G05
M72
T1
X4.5Y-3.55
X4.5181Y-3.6882
X4.55Y-3.8
X4.7Y-3.8
X4.8Y-3.45
X4.85Y-3.75
X4.85Y-3.8
X4.9499Y-3.5499
X4.95Y-3.75
X4.95Y-3.9
X4.98Y-3.81
X4.9992Y-3.8401
X4.9999Y-3.4999
X5.Y-4.05
X5.1Y-3.6
X5.2022Y-3.6497
X5.2407Y-3.8958
X5.25Y-3.7
X5.25Y-3.78
X5.28Y-3.4
X5.34Y-3.72
X5.35Y-4.061
X5.3746Y-3.6785
X5.4Y-3.45
X5.4Y-3.9522
X5.4Y-4.061
X5.45Y-3.5
X5.5Y-3.9522
X5.64Y-3.65
X5.7Y-3.59
X5.7Y-3.75
X5.95Y-3.45
X6.01Y-3.81
X6.05Y-3.6
X6.05Y-3.9
X6.1Y-3.38
X6.1Y-3.54
X6.1Y-3.8
X6.1Y-3.85
X6.3Y-3.55
T2
X4.5181Y-3.6882
X4.5181Y-3.8614
T0
M30
