G04 #@! TF.FileFunction,Copper,L2,Bot,Signal*
%FSLAX46Y46*%
G04 Gerber Fmt 4.6, Leading zero omitted, Abs format (unit mm)*
G04 Created by KiCad (PCBNEW 4.0.1-stable) date 3/22/2016 7:23:55 PM*
%MOMM*%
G01*
G04 APERTURE LIST*
%ADD10C,0.100000*%
%ADD11R,1.727200X2.032000*%
%ADD12O,1.727200X2.032000*%
%ADD13R,2.032000X1.727200*%
%ADD14O,2.032000X1.727200*%
%ADD15R,0.500000X0.900000*%
%ADD16R,1.000000X1.250000*%
%ADD17R,0.700000X1.300000*%
%ADD18R,0.600000X0.500000*%
%ADD19O,1.500000X1.100000*%
%ADD20O,1.700000X1.200000*%
%ADD21R,1.300000X0.700000*%
%ADD22C,2.650000*%
%ADD23C,0.600000*%
%ADD24C,0.250000*%
%ADD25C,0.248920*%
%ADD26C,0.381000*%
%ADD27C,0.254000*%
G04 APERTURE END LIST*
D10*
D11*
X165735000Y-84328000D03*
D12*
X168275000Y-84328000D03*
X170815000Y-84328000D03*
X173355000Y-84328000D03*
X175895000Y-84328000D03*
X178435000Y-84328000D03*
D13*
X190500000Y-82550000D03*
D14*
X190500000Y-85090000D03*
X190500000Y-87630000D03*
X190500000Y-90170000D03*
D13*
X190500000Y-95250000D03*
D14*
X190500000Y-97790000D03*
X190500000Y-100330000D03*
D15*
X164465000Y-88646000D03*
X165965000Y-88646000D03*
D16*
X172625000Y-99695000D03*
X174625000Y-99695000D03*
D17*
X172725000Y-95885000D03*
X174625000Y-95885000D03*
X179258000Y-95885000D03*
X177358000Y-95885000D03*
X170180000Y-95885000D03*
X168280000Y-95885000D03*
X170175000Y-99695000D03*
X168275000Y-99695000D03*
X181996000Y-95885000D03*
X183896000Y-95885000D03*
X175895000Y-81280000D03*
X173995000Y-81280000D03*
X169550000Y-81280000D03*
X171450000Y-81280000D03*
X167132000Y-81280000D03*
X165232000Y-81280000D03*
D18*
X165735000Y-91694000D03*
X164635000Y-91694000D03*
X165735000Y-94615000D03*
X164635000Y-94615000D03*
D19*
X161415000Y-88903000D03*
X161415000Y-93753000D03*
D20*
X158415000Y-88603000D03*
X158415000Y-94053000D03*
D21*
X184404000Y-81534000D03*
X184404000Y-83434000D03*
D22*
X182245000Y-91440000D03*
X172720000Y-91440000D03*
D23*
X164084000Y-90932000D03*
X182372000Y-94234000D03*
X179517051Y-93786949D03*
X188468000Y-91973400D03*
X178820059Y-97282905D03*
X173482000Y-97789998D03*
X166116000Y-95504000D03*
X182118000Y-97028000D03*
X172412646Y-98483442D03*
X170688000Y-93726000D03*
X185801000Y-81661000D03*
X166116000Y-81280000D03*
X174879000Y-81280000D03*
X170517442Y-81280000D03*
X189103000Y-83947000D03*
X189103000Y-88900000D03*
X185420000Y-100330000D03*
X163576000Y-88900000D03*
X180721000Y-85725000D03*
X174498000Y-85979000D03*
X173736000Y-96266000D03*
X177546000Y-94488000D03*
X178297950Y-95758000D03*
X185166000Y-90932000D03*
X185166000Y-93726000D03*
X184150000Y-88646000D03*
X185674000Y-95758000D03*
X170180000Y-97790000D03*
X169037000Y-101219000D03*
X179070000Y-90932000D03*
X181102000Y-100584000D03*
X184658000Y-100838000D03*
X176022000Y-98806000D03*
X185420000Y-84581998D03*
D24*
X168280000Y-95885000D02*
X168280000Y-93858000D01*
X168280000Y-93858000D02*
X165354000Y-90932000D01*
X165354000Y-90932000D02*
X164084000Y-90932000D01*
X182372000Y-94234000D02*
X183134000Y-94234000D01*
X183134000Y-94234000D02*
X185394600Y-91973400D01*
X185394600Y-91973400D02*
X188468000Y-91973400D01*
X177358000Y-95885000D02*
X177358000Y-95585000D01*
X177358000Y-95585000D02*
X179156051Y-93786949D01*
X179156051Y-93786949D02*
X179517051Y-93786949D01*
X177358000Y-95885000D02*
X177422154Y-95885000D01*
X177422154Y-95885000D02*
X178820059Y-97282905D01*
X173482000Y-98427000D02*
X173482000Y-98214262D01*
X174625000Y-99695000D02*
X174625000Y-99570000D01*
X174853002Y-97789998D02*
X173906264Y-97789998D01*
X176758000Y-95885000D02*
X174853002Y-97789998D01*
X174625000Y-99570000D02*
X173482000Y-98427000D01*
X173482000Y-98214262D02*
X173482000Y-97789998D01*
X177358000Y-95885000D02*
X176758000Y-95885000D01*
X173906264Y-97789998D02*
X173482000Y-97789998D01*
X164592000Y-92118000D02*
X164085000Y-92625000D01*
X164085000Y-94115000D02*
X164585000Y-94615000D01*
X164585000Y-94615000D02*
X164635000Y-94615000D01*
X164085000Y-92625000D02*
X164085000Y-94115000D01*
X164635000Y-94615000D02*
X164635000Y-95115000D01*
X164635000Y-95115000D02*
X164592000Y-95158000D01*
X164592000Y-95158000D02*
X164592000Y-100203000D01*
X164592000Y-100203000D02*
X166243000Y-101854000D01*
X166243000Y-101854000D02*
X174117000Y-101854000D01*
X174117000Y-101854000D02*
X174625000Y-101346000D01*
X174625000Y-101346000D02*
X174625000Y-99695000D01*
X164635000Y-94615000D02*
X161477000Y-94615000D01*
X161477000Y-94615000D02*
X161415000Y-94553000D01*
X161415000Y-94553000D02*
X161415000Y-93753000D01*
X168275000Y-99695000D02*
X167675000Y-99695000D01*
X167675000Y-99695000D02*
X166116000Y-98136000D01*
X166116000Y-98136000D02*
X166116000Y-95496000D01*
X166116000Y-95496000D02*
X165735000Y-95115000D01*
X165816001Y-95204001D02*
X166116000Y-95504000D01*
X165735000Y-95123000D02*
X165816001Y-95204001D01*
X165735000Y-95115000D02*
X165735000Y-95123000D01*
X165735000Y-94615000D02*
X165735000Y-95115000D01*
X182118000Y-97028000D02*
X182118000Y-96007000D01*
X182118000Y-96007000D02*
X181996000Y-95885000D01*
D25*
X172625000Y-98695796D02*
X172412646Y-98483442D01*
D24*
X172112647Y-98183443D02*
X172412646Y-98483442D01*
X171450000Y-94488000D02*
X171450000Y-97520796D01*
D25*
X172625000Y-99695000D02*
X172625000Y-98695796D01*
D24*
X171450000Y-97520796D02*
X172112647Y-98183443D01*
D25*
X168148000Y-91186000D02*
X170688000Y-93726000D01*
X170688000Y-93726000D02*
X171450000Y-94488000D01*
D24*
X172725000Y-95885000D02*
X172125000Y-95885000D01*
X172125000Y-95885000D02*
X171450000Y-95210000D01*
X171450000Y-95210000D02*
X171450000Y-94488000D01*
D25*
X168148000Y-88900000D02*
X168148000Y-91186000D01*
D24*
X175895000Y-81280000D02*
X185420000Y-81280000D01*
X185420000Y-81280000D02*
X185801000Y-81661000D01*
X170815000Y-84328000D02*
X170815000Y-84175600D01*
X170815000Y-84175600D02*
X172440600Y-82550000D01*
X172440600Y-82550000D02*
X174925000Y-82550000D01*
X174925000Y-82550000D02*
X175895000Y-81580000D01*
X175895000Y-81580000D02*
X175895000Y-81280000D01*
D26*
X165965000Y-88900000D02*
X168148000Y-88900000D01*
X168148000Y-88900000D02*
X170800915Y-86247085D01*
X170800915Y-86247085D02*
X170800915Y-84268791D01*
D24*
X169550000Y-81280000D02*
X169550000Y-81580000D01*
X169550000Y-81580000D02*
X170815000Y-82845000D01*
X170815000Y-82845000D02*
X170815000Y-84328000D01*
X167132000Y-81280000D02*
X169550000Y-81280000D01*
X166116000Y-81280000D02*
X165232000Y-81280000D01*
X173995000Y-81280000D02*
X174879000Y-81280000D01*
X171450000Y-81280000D02*
X170517442Y-81280000D01*
X189103000Y-88900000D02*
X189103000Y-83947000D01*
X183896000Y-95758000D02*
X185420000Y-97282000D01*
X185420000Y-97282000D02*
X185420000Y-100330000D01*
D26*
X163576000Y-88900000D02*
X164465000Y-88900000D01*
D24*
X174498000Y-85979000D02*
X180467000Y-85979000D01*
X180467000Y-85979000D02*
X180721000Y-85725000D01*
D25*
X174625000Y-95585000D02*
X174625000Y-95885000D01*
D24*
X173736000Y-96266000D02*
X174035999Y-96565999D01*
X174035999Y-96565999D02*
X174579647Y-96565999D01*
X174579647Y-96565999D02*
X176657646Y-94488000D01*
X176657646Y-94488000D02*
X177546000Y-94488000D01*
X179258000Y-95885000D02*
X178424950Y-95885000D01*
X178424950Y-95885000D02*
X178297950Y-95758000D01*
X185166000Y-90932000D02*
X185166000Y-89662000D01*
X185166000Y-89662000D02*
X184150000Y-88646000D01*
X185166000Y-95250000D02*
X185166000Y-93726000D01*
X185674000Y-95758000D02*
X185166000Y-95250000D01*
D25*
X170180000Y-97790000D02*
X170180000Y-95885000D01*
X169037000Y-100076000D02*
X169037000Y-101219000D01*
X169418000Y-99695000D02*
X169037000Y-100076000D01*
X169672000Y-99695000D02*
X169418000Y-99695000D01*
X170175000Y-99695000D02*
X169672000Y-99695000D01*
D24*
X179623999Y-99105999D02*
X179623999Y-99014001D01*
X179623999Y-99014001D02*
X180594000Y-98044000D01*
X180594000Y-98044000D02*
X180594000Y-93980000D01*
X180594000Y-93980000D02*
X179070000Y-92456000D01*
X179070000Y-92456000D02*
X179070000Y-90932000D01*
X179623999Y-99105999D02*
X181102000Y-100584000D01*
X184658000Y-100838000D02*
X181356000Y-100838000D01*
X181356000Y-100838000D02*
X181102000Y-100584000D01*
X176022000Y-98806000D02*
X176321999Y-99105999D01*
X176321999Y-99105999D02*
X179623999Y-99105999D01*
X183388002Y-82550000D02*
X185120001Y-84281999D01*
X185120001Y-84281999D02*
X185420000Y-84581998D01*
X175895000Y-84175600D02*
X177520600Y-82550000D01*
X177520600Y-82550000D02*
X183388002Y-82550000D01*
X175895000Y-84328000D02*
X175895000Y-84175600D01*
D27*
G36*
X164234560Y-81930000D02*
X164278838Y-82165317D01*
X164417910Y-82381441D01*
X164630110Y-82526431D01*
X164882000Y-82577440D01*
X165582000Y-82577440D01*
X165817317Y-82533162D01*
X166033441Y-82394090D01*
X166155784Y-82215035D01*
X166210862Y-82215083D01*
X166317910Y-82381441D01*
X166530110Y-82526431D01*
X166782000Y-82577440D01*
X167482000Y-82577440D01*
X167717317Y-82533162D01*
X167933441Y-82394090D01*
X168078431Y-82181890D01*
X168107164Y-82040000D01*
X168573258Y-82040000D01*
X168596838Y-82165317D01*
X168735910Y-82381441D01*
X168948110Y-82526431D01*
X169200000Y-82577440D01*
X169472638Y-82577440D01*
X169889280Y-82994082D01*
X169755330Y-83083585D01*
X169545000Y-83398366D01*
X169334670Y-83083585D01*
X168848489Y-82758729D01*
X168275000Y-82644655D01*
X167701511Y-82758729D01*
X167215330Y-83083585D01*
X167200500Y-83105780D01*
X167136927Y-82952302D01*
X166958299Y-82773673D01*
X166724910Y-82677000D01*
X166020750Y-82677000D01*
X165862000Y-82835750D01*
X165862000Y-84201000D01*
X165882000Y-84201000D01*
X165882000Y-84455000D01*
X165862000Y-84455000D01*
X165862000Y-85820250D01*
X166020750Y-85979000D01*
X166724910Y-85979000D01*
X166958299Y-85882327D01*
X167136927Y-85703698D01*
X167200500Y-85550220D01*
X167215330Y-85572415D01*
X167701511Y-85897271D01*
X168275000Y-86011345D01*
X168848489Y-85897271D01*
X169334670Y-85572415D01*
X169545000Y-85257634D01*
X169755330Y-85572415D01*
X169975415Y-85719471D01*
X169975415Y-85905152D01*
X167806066Y-88074500D01*
X166839578Y-88074500D01*
X166818162Y-87960683D01*
X166679090Y-87744559D01*
X166466890Y-87599569D01*
X166215000Y-87548560D01*
X165715000Y-87548560D01*
X165479683Y-87592838D01*
X165263559Y-87731910D01*
X165215866Y-87801711D01*
X165179090Y-87744559D01*
X164966890Y-87599569D01*
X164715000Y-87548560D01*
X164215000Y-87548560D01*
X163979683Y-87592838D01*
X163763559Y-87731910D01*
X163618569Y-87944110D01*
X163614332Y-87965033D01*
X163390833Y-87964838D01*
X163047057Y-88106883D01*
X162783808Y-88369673D01*
X162727525Y-88505218D01*
X162533929Y-88145125D01*
X162173954Y-87851156D01*
X161728883Y-87717320D01*
X161542000Y-87872852D01*
X161542000Y-88776000D01*
X161562000Y-88776000D01*
X161562000Y-89030000D01*
X161542000Y-89030000D01*
X161542000Y-89933148D01*
X161728883Y-90088680D01*
X162173954Y-89954844D01*
X162533929Y-89660875D01*
X162728884Y-89298254D01*
X162782883Y-89428943D01*
X163045673Y-89692192D01*
X163389201Y-89834838D01*
X163761167Y-89835162D01*
X164026570Y-89725500D01*
X164126410Y-89725500D01*
X164215000Y-89743440D01*
X164715000Y-89743440D01*
X164950317Y-89699162D01*
X165166441Y-89560090D01*
X165214134Y-89490289D01*
X165250910Y-89547441D01*
X165463110Y-89692431D01*
X165715000Y-89743440D01*
X166215000Y-89743440D01*
X166310343Y-89725500D01*
X167388540Y-89725500D01*
X167388540Y-91186000D01*
X167446350Y-91476633D01*
X167610981Y-91723019D01*
X169752878Y-93864917D01*
X169752838Y-93911167D01*
X169894883Y-94254943D01*
X170157673Y-94518192D01*
X170324729Y-94587560D01*
X169830000Y-94587560D01*
X169594683Y-94631838D01*
X169378559Y-94770910D01*
X169233569Y-94983110D01*
X169230919Y-94996197D01*
X169094090Y-94783559D01*
X169040000Y-94746601D01*
X169040000Y-93858000D01*
X168982148Y-93567161D01*
X168817401Y-93320599D01*
X166516650Y-91019848D01*
X166499090Y-90992559D01*
X166468373Y-90971571D01*
X165891401Y-90394599D01*
X165644839Y-90229852D01*
X165354000Y-90172000D01*
X164646463Y-90172000D01*
X164614327Y-90139808D01*
X164270799Y-89997162D01*
X163898833Y-89996838D01*
X163555057Y-90138883D01*
X163291808Y-90401673D01*
X163149162Y-90745201D01*
X163148838Y-91117167D01*
X163290883Y-91460943D01*
X163553673Y-91724192D01*
X163700000Y-91784952D01*
X163700000Y-91821002D01*
X163786817Y-91821002D01*
X163836230Y-91841520D01*
X163700000Y-91977750D01*
X163700000Y-92070310D01*
X163796673Y-92303699D01*
X163975302Y-92482327D01*
X164208691Y-92579000D01*
X164349250Y-92579000D01*
X164508000Y-92420250D01*
X164508000Y-91819000D01*
X164488000Y-91819000D01*
X164488000Y-91776742D01*
X164612943Y-91725117D01*
X164646118Y-91692000D01*
X164782000Y-91692000D01*
X164782000Y-91819000D01*
X164762000Y-91819000D01*
X164762000Y-92420250D01*
X164920750Y-92579000D01*
X165061309Y-92579000D01*
X165172283Y-92533033D01*
X165183110Y-92540431D01*
X165435000Y-92591440D01*
X165938638Y-92591440D01*
X167520000Y-94172802D01*
X167520000Y-94744243D01*
X167478559Y-94770910D01*
X167333569Y-94983110D01*
X167282560Y-95235000D01*
X167282560Y-96535000D01*
X167326838Y-96770317D01*
X167465910Y-96986441D01*
X167678110Y-97131431D01*
X167930000Y-97182440D01*
X168630000Y-97182440D01*
X168865317Y-97138162D01*
X169081441Y-96999090D01*
X169226431Y-96786890D01*
X169229081Y-96773803D01*
X169365910Y-96986441D01*
X169420540Y-97023768D01*
X169420540Y-97226998D01*
X169387808Y-97259673D01*
X169245162Y-97603201D01*
X169244838Y-97975167D01*
X169386883Y-98318943D01*
X169540900Y-98473229D01*
X169373559Y-98580910D01*
X169228569Y-98793110D01*
X169225919Y-98806197D01*
X169089090Y-98593559D01*
X168876890Y-98448569D01*
X168625000Y-98397560D01*
X167925000Y-98397560D01*
X167689683Y-98441838D01*
X167572223Y-98517421D01*
X166876000Y-97821198D01*
X166876000Y-96066463D01*
X166908192Y-96034327D01*
X167050838Y-95690799D01*
X167051162Y-95318833D01*
X166909117Y-94975057D01*
X166682440Y-94747984D01*
X166682440Y-94365000D01*
X166638162Y-94129683D01*
X166499090Y-93913559D01*
X166286890Y-93768569D01*
X166035000Y-93717560D01*
X165435000Y-93717560D01*
X165199683Y-93761838D01*
X165175594Y-93777339D01*
X165061309Y-93730000D01*
X164920750Y-93730000D01*
X164762000Y-93888750D01*
X164762000Y-94490000D01*
X164782000Y-94490000D01*
X164782000Y-94740000D01*
X164762000Y-94740000D01*
X164762000Y-95341250D01*
X164920750Y-95500000D01*
X165061309Y-95500000D01*
X165084112Y-95490555D01*
X165180885Y-95635386D01*
X165180838Y-95689167D01*
X165322883Y-96032943D01*
X165356000Y-96066118D01*
X165356000Y-98136000D01*
X165413852Y-98426839D01*
X165578599Y-98673401D01*
X167137599Y-100232401D01*
X167277560Y-100325920D01*
X167277560Y-100345000D01*
X167321838Y-100580317D01*
X167460910Y-100796441D01*
X167673110Y-100941431D01*
X167925000Y-100992440D01*
X168118672Y-100992440D01*
X168102162Y-101032201D01*
X168101838Y-101404167D01*
X168243883Y-101747943D01*
X168506673Y-102011192D01*
X168850201Y-102153838D01*
X169222167Y-102154162D01*
X169565943Y-102012117D01*
X169829192Y-101749327D01*
X169971838Y-101405799D01*
X169972162Y-101033833D01*
X169955059Y-100992440D01*
X170525000Y-100992440D01*
X170760317Y-100948162D01*
X170976441Y-100809090D01*
X171121431Y-100596890D01*
X171172440Y-100345000D01*
X171172440Y-99045000D01*
X171128162Y-98809683D01*
X170989090Y-98593559D01*
X170816568Y-98475680D01*
X170972192Y-98320327D01*
X171031617Y-98177215D01*
X171477524Y-98623122D01*
X171477484Y-98668609D01*
X171535229Y-98808363D01*
X171528569Y-98818110D01*
X171477560Y-99070000D01*
X171477560Y-100320000D01*
X171521838Y-100555317D01*
X171660910Y-100771441D01*
X171873110Y-100916431D01*
X172125000Y-100967440D01*
X173125000Y-100967440D01*
X173360317Y-100923162D01*
X173576441Y-100784090D01*
X173622969Y-100715994D01*
X173765302Y-100858327D01*
X173998691Y-100955000D01*
X174339250Y-100955000D01*
X174498000Y-100796250D01*
X174498000Y-99822000D01*
X174478000Y-99822000D01*
X174478000Y-99568000D01*
X174498000Y-99568000D01*
X174498000Y-98593750D01*
X174339250Y-98435000D01*
X173998691Y-98435000D01*
X173765302Y-98531673D01*
X173624064Y-98672910D01*
X173589090Y-98618559D01*
X173376890Y-98473569D01*
X173347660Y-98467650D01*
X173347808Y-98298275D01*
X173205763Y-97954499D01*
X172942973Y-97691250D01*
X172599445Y-97548604D01*
X172552569Y-97548563D01*
X172210000Y-97205994D01*
X172210000Y-97149027D01*
X172375000Y-97182440D01*
X173075000Y-97182440D01*
X173310317Y-97138162D01*
X173344809Y-97115967D01*
X173549201Y-97200838D01*
X173644549Y-97200921D01*
X173745160Y-97268147D01*
X174035999Y-97325999D01*
X174579647Y-97325999D01*
X174870486Y-97268147D01*
X175008068Y-97176218D01*
X175210317Y-97138162D01*
X175426441Y-96999090D01*
X175571431Y-96786890D01*
X175606441Y-96614007D01*
X176049698Y-96170750D01*
X176373000Y-96170750D01*
X176373000Y-96661310D01*
X176469673Y-96894699D01*
X176648302Y-97073327D01*
X176881691Y-97170000D01*
X177072250Y-97170000D01*
X177231000Y-97011250D01*
X177231000Y-96012000D01*
X176531750Y-96012000D01*
X176373000Y-96170750D01*
X176049698Y-96170750D01*
X176497099Y-95723349D01*
X176531750Y-95758000D01*
X177231000Y-95758000D01*
X177231000Y-95738000D01*
X177362967Y-95738000D01*
X177362788Y-95943167D01*
X177485000Y-96238943D01*
X177485000Y-97011250D01*
X177643750Y-97170000D01*
X177834309Y-97170000D01*
X178067698Y-97073327D01*
X178246327Y-96894699D01*
X178302654Y-96758713D01*
X178304838Y-96770317D01*
X178443910Y-96986441D01*
X178656110Y-97131431D01*
X178908000Y-97182440D01*
X179608000Y-97182440D01*
X179834000Y-97139915D01*
X179834000Y-97729198D01*
X179217199Y-98345999D01*
X176843603Y-98345999D01*
X176815117Y-98277057D01*
X176552327Y-98013808D01*
X176208799Y-97871162D01*
X175836833Y-97870838D01*
X175493057Y-98012883D01*
X175229808Y-98275673D01*
X175163649Y-98435000D01*
X174910750Y-98435000D01*
X174752000Y-98593750D01*
X174752000Y-99568000D01*
X174772000Y-99568000D01*
X174772000Y-99822000D01*
X174752000Y-99822000D01*
X174752000Y-100796250D01*
X174910750Y-100955000D01*
X175251309Y-100955000D01*
X175484698Y-100858327D01*
X175663327Y-100679699D01*
X175760000Y-100446310D01*
X175760000Y-99980750D01*
X175601252Y-99822002D01*
X175760000Y-99822002D01*
X175760000Y-99709612D01*
X175835201Y-99740838D01*
X175930549Y-99740921D01*
X176031160Y-99808147D01*
X176321999Y-99865999D01*
X179309197Y-99865999D01*
X180166878Y-100723680D01*
X180166838Y-100769167D01*
X180308883Y-101112943D01*
X180571673Y-101376192D01*
X180915201Y-101518838D01*
X181033421Y-101518941D01*
X181065160Y-101540148D01*
X181356000Y-101598000D01*
X184095537Y-101598000D01*
X184127673Y-101630192D01*
X184471201Y-101772838D01*
X184843167Y-101773162D01*
X185186943Y-101631117D01*
X185450192Y-101368327D01*
X185493071Y-101265064D01*
X185605167Y-101265162D01*
X185948943Y-101123117D01*
X186212192Y-100860327D01*
X186354838Y-100516799D01*
X186355162Y-100144833D01*
X186213117Y-99801057D01*
X186180000Y-99767882D01*
X186180000Y-97790000D01*
X188816655Y-97790000D01*
X188930729Y-98363489D01*
X189255585Y-98849670D01*
X189570366Y-99060000D01*
X189255585Y-99270330D01*
X188930729Y-99756511D01*
X188816655Y-100330000D01*
X188930729Y-100903489D01*
X189255585Y-101389670D01*
X189741766Y-101714526D01*
X190315255Y-101828600D01*
X190684745Y-101828600D01*
X191258234Y-101714526D01*
X191744415Y-101389670D01*
X192069271Y-100903489D01*
X192183345Y-100330000D01*
X192069271Y-99756511D01*
X191744415Y-99270330D01*
X191429634Y-99060000D01*
X191744415Y-98849670D01*
X192069271Y-98363489D01*
X192183345Y-97790000D01*
X192069271Y-97216511D01*
X191744415Y-96730330D01*
X191722220Y-96715500D01*
X191875698Y-96651927D01*
X192054327Y-96473299D01*
X192151000Y-96239910D01*
X192151000Y-95535750D01*
X191992250Y-95377000D01*
X190627000Y-95377000D01*
X190627000Y-95397000D01*
X190373000Y-95397000D01*
X190373000Y-95377000D01*
X189007750Y-95377000D01*
X188849000Y-95535750D01*
X188849000Y-96239910D01*
X188945673Y-96473299D01*
X189124302Y-96651927D01*
X189277780Y-96715500D01*
X189255585Y-96730330D01*
X188930729Y-97216511D01*
X188816655Y-97790000D01*
X186180000Y-97790000D01*
X186180000Y-97282000D01*
X186122148Y-96991161D01*
X186122148Y-96991160D01*
X185957401Y-96744599D01*
X185892281Y-96679479D01*
X186202943Y-96551117D01*
X186466192Y-96288327D01*
X186608838Y-95944799D01*
X186609162Y-95572833D01*
X186467117Y-95229057D01*
X186204327Y-94965808D01*
X185926000Y-94850236D01*
X185926000Y-94288463D01*
X185954422Y-94260090D01*
X188849000Y-94260090D01*
X188849000Y-94964250D01*
X189007750Y-95123000D01*
X190373000Y-95123000D01*
X190373000Y-93910150D01*
X190627000Y-93910150D01*
X190627000Y-95123000D01*
X191992250Y-95123000D01*
X192151000Y-94964250D01*
X192151000Y-94260090D01*
X192054327Y-94026701D01*
X191875698Y-93848073D01*
X191642309Y-93751400D01*
X190785750Y-93751400D01*
X190627000Y-93910150D01*
X190373000Y-93910150D01*
X190214250Y-93751400D01*
X189357691Y-93751400D01*
X189124302Y-93848073D01*
X188945673Y-94026701D01*
X188849000Y-94260090D01*
X185954422Y-94260090D01*
X185958192Y-94256327D01*
X186100838Y-93912799D01*
X186101162Y-93540833D01*
X185959117Y-93197057D01*
X185696327Y-92933808D01*
X185352799Y-92791162D01*
X184980833Y-92790838D01*
X184637057Y-92932883D01*
X184373808Y-93195673D01*
X184231162Y-93539201D01*
X184230838Y-93911167D01*
X184372883Y-94254943D01*
X184406000Y-94288118D01*
X184406000Y-94619961D01*
X184246000Y-94587560D01*
X183546000Y-94587560D01*
X183310683Y-94631838D01*
X183094559Y-94770910D01*
X182949569Y-94983110D01*
X182946919Y-94996197D01*
X182810090Y-94783559D01*
X182597890Y-94638569D01*
X182346000Y-94587560D01*
X181646000Y-94587560D01*
X181410683Y-94631838D01*
X181354000Y-94668313D01*
X181354000Y-93980000D01*
X181296148Y-93689161D01*
X181296148Y-93689160D01*
X181131401Y-93442599D01*
X179830000Y-92141198D01*
X179830000Y-91828158D01*
X180284660Y-91828158D01*
X180582424Y-92548801D01*
X181133299Y-93100639D01*
X181853421Y-93399659D01*
X182633158Y-93400340D01*
X183353801Y-93102576D01*
X183905639Y-92551701D01*
X184204659Y-91831579D01*
X184205340Y-91051842D01*
X183907576Y-90331199D01*
X183356701Y-89779361D01*
X182636579Y-89480341D01*
X181856842Y-89479660D01*
X181136199Y-89777424D01*
X180584361Y-90328299D01*
X180285341Y-91048421D01*
X180284660Y-91828158D01*
X179830000Y-91828158D01*
X179830000Y-91494463D01*
X179862192Y-91462327D01*
X180004838Y-91118799D01*
X180005162Y-90746833D01*
X179863117Y-90403057D01*
X179600327Y-90139808D01*
X179256799Y-89997162D01*
X178884833Y-89996838D01*
X178541057Y-90138883D01*
X178277808Y-90401673D01*
X178135162Y-90745201D01*
X178134838Y-91117167D01*
X178276883Y-91460943D01*
X178310000Y-91494118D01*
X178310000Y-92456000D01*
X178367852Y-92746839D01*
X178532599Y-92993401D01*
X179834000Y-94294802D01*
X179834000Y-94633326D01*
X179608000Y-94587560D01*
X178908000Y-94587560D01*
X178672683Y-94631838D01*
X178456559Y-94770910D01*
X178420895Y-94823106D01*
X178419256Y-94823105D01*
X178480838Y-94674799D01*
X178481162Y-94302833D01*
X178339117Y-93959057D01*
X178076327Y-93695808D01*
X177732799Y-93553162D01*
X177360833Y-93552838D01*
X177017057Y-93694883D01*
X176983882Y-93728000D01*
X176657646Y-93728000D01*
X176366806Y-93785852D01*
X176120245Y-93950599D01*
X175348905Y-94721939D01*
X175226890Y-94638569D01*
X174975000Y-94587560D01*
X174275000Y-94587560D01*
X174039683Y-94631838D01*
X173823559Y-94770910D01*
X173678569Y-94983110D01*
X173675919Y-94996197D01*
X173539090Y-94783559D01*
X173326890Y-94638569D01*
X173075000Y-94587560D01*
X172375000Y-94587560D01*
X172210000Y-94618607D01*
X172210000Y-94488000D01*
X172152148Y-94197161D01*
X171987401Y-93950599D01*
X171985102Y-93949063D01*
X171623122Y-93587083D01*
X171623162Y-93540833D01*
X171481117Y-93197057D01*
X171218327Y-92933808D01*
X170874799Y-92791162D01*
X170827159Y-92791121D01*
X169864196Y-91828158D01*
X170759660Y-91828158D01*
X171057424Y-92548801D01*
X171608299Y-93100639D01*
X172328421Y-93399659D01*
X173108158Y-93400340D01*
X173828801Y-93102576D01*
X174380639Y-92551701D01*
X174679659Y-91831579D01*
X174680340Y-91051842D01*
X174382576Y-90331199D01*
X173831701Y-89779361D01*
X173111579Y-89480341D01*
X172331842Y-89479660D01*
X171611199Y-89777424D01*
X171059361Y-90328299D01*
X170760341Y-91048421D01*
X170759660Y-91828158D01*
X169864196Y-91828158D01*
X168907460Y-90871422D01*
X168907460Y-89307974D01*
X169384266Y-88831167D01*
X183214838Y-88831167D01*
X183356883Y-89174943D01*
X183619673Y-89438192D01*
X183963201Y-89580838D01*
X184010077Y-89580879D01*
X184406000Y-89976802D01*
X184406000Y-90369537D01*
X184373808Y-90401673D01*
X184231162Y-90745201D01*
X184230838Y-91117167D01*
X184372883Y-91460943D01*
X184635673Y-91724192D01*
X184979201Y-91866838D01*
X185351167Y-91867162D01*
X185694943Y-91725117D01*
X185958192Y-91462327D01*
X186100838Y-91118799D01*
X186101162Y-90746833D01*
X185959117Y-90403057D01*
X185926000Y-90369882D01*
X185926000Y-89662000D01*
X185868148Y-89371161D01*
X185703401Y-89124599D01*
X185085122Y-88506320D01*
X185085162Y-88460833D01*
X184943117Y-88117057D01*
X184680327Y-87853808D01*
X184336799Y-87711162D01*
X183964833Y-87710838D01*
X183621057Y-87852883D01*
X183357808Y-88115673D01*
X183215162Y-88459201D01*
X183214838Y-88831167D01*
X169384266Y-88831167D01*
X171384629Y-86830804D01*
X171384632Y-86830802D01*
X171563578Y-86562990D01*
X171626415Y-86247085D01*
X171626415Y-85738294D01*
X171874670Y-85572415D01*
X172085000Y-85257634D01*
X172295330Y-85572415D01*
X172781511Y-85897271D01*
X173355000Y-86011345D01*
X173563007Y-85969970D01*
X173562838Y-86164167D01*
X173704883Y-86507943D01*
X173967673Y-86771192D01*
X174311201Y-86913838D01*
X174683167Y-86914162D01*
X175026943Y-86772117D01*
X175060118Y-86739000D01*
X180467000Y-86739000D01*
X180757839Y-86681148D01*
X180789399Y-86660060D01*
X180906167Y-86660162D01*
X181249943Y-86518117D01*
X181513192Y-86255327D01*
X181655838Y-85911799D01*
X181656162Y-85539833D01*
X181514117Y-85196057D01*
X181251327Y-84932808D01*
X180907799Y-84790162D01*
X180535833Y-84789838D01*
X180192057Y-84931883D01*
X179928808Y-85194673D01*
X179918706Y-85219000D01*
X179730815Y-85219000D01*
X179819526Y-85086234D01*
X179933600Y-84512745D01*
X179933600Y-84143255D01*
X179819526Y-83569766D01*
X179645956Y-83310000D01*
X183073200Y-83310000D01*
X183106560Y-83343360D01*
X183106560Y-83784000D01*
X183150838Y-84019317D01*
X183289910Y-84235441D01*
X183502110Y-84380431D01*
X183754000Y-84431440D01*
X184194640Y-84431440D01*
X184484878Y-84721678D01*
X184484838Y-84767165D01*
X184626883Y-85110941D01*
X184889673Y-85374190D01*
X185233201Y-85516836D01*
X185605167Y-85517160D01*
X185948943Y-85375115D01*
X186212192Y-85112325D01*
X186354838Y-84768797D01*
X186355162Y-84396831D01*
X186245806Y-84132167D01*
X188167838Y-84132167D01*
X188309883Y-84475943D01*
X188343000Y-84509118D01*
X188343000Y-88337537D01*
X188310808Y-88369673D01*
X188168162Y-88713201D01*
X188167838Y-89085167D01*
X188309883Y-89428943D01*
X188572673Y-89692192D01*
X188885831Y-89822227D01*
X188816655Y-90170000D01*
X188930729Y-90743489D01*
X189255585Y-91229670D01*
X189741766Y-91554526D01*
X190315255Y-91668600D01*
X190684745Y-91668600D01*
X191258234Y-91554526D01*
X191744415Y-91229670D01*
X192069271Y-90743489D01*
X192183345Y-90170000D01*
X192069271Y-89596511D01*
X191744415Y-89110330D01*
X191429634Y-88900000D01*
X191744415Y-88689670D01*
X192069271Y-88203489D01*
X192183345Y-87630000D01*
X192069271Y-87056511D01*
X191744415Y-86570330D01*
X191429634Y-86360000D01*
X191744415Y-86149670D01*
X192069271Y-85663489D01*
X192183345Y-85090000D01*
X192069271Y-84516511D01*
X191744415Y-84030330D01*
X191722220Y-84015500D01*
X191875698Y-83951927D01*
X192054327Y-83773299D01*
X192151000Y-83539910D01*
X192151000Y-82835750D01*
X191992250Y-82677000D01*
X190627000Y-82677000D01*
X190627000Y-82697000D01*
X190373000Y-82697000D01*
X190373000Y-82677000D01*
X189007750Y-82677000D01*
X188849000Y-82835750D01*
X188849000Y-83040279D01*
X188574057Y-83153883D01*
X188310808Y-83416673D01*
X188168162Y-83760201D01*
X188167838Y-84132167D01*
X186245806Y-84132167D01*
X186213117Y-84053055D01*
X185950327Y-83789806D01*
X185701440Y-83686459D01*
X185701440Y-83084000D01*
X185657162Y-82848683D01*
X185518090Y-82632559D01*
X185305890Y-82487569D01*
X185292803Y-82484919D01*
X185314091Y-82471221D01*
X185614201Y-82595838D01*
X185986167Y-82596162D01*
X186329943Y-82454117D01*
X186593192Y-82191327D01*
X186735838Y-81847799D01*
X186736088Y-81560090D01*
X188849000Y-81560090D01*
X188849000Y-82264250D01*
X189007750Y-82423000D01*
X190373000Y-82423000D01*
X190373000Y-81210150D01*
X190627000Y-81210150D01*
X190627000Y-82423000D01*
X191992250Y-82423000D01*
X192151000Y-82264250D01*
X192151000Y-81560090D01*
X192054327Y-81326701D01*
X191875698Y-81148073D01*
X191642309Y-81051400D01*
X190785750Y-81051400D01*
X190627000Y-81210150D01*
X190373000Y-81210150D01*
X190214250Y-81051400D01*
X189357691Y-81051400D01*
X189124302Y-81148073D01*
X188945673Y-81326701D01*
X188849000Y-81560090D01*
X186736088Y-81560090D01*
X186736162Y-81475833D01*
X186594117Y-81132057D01*
X186331327Y-80868808D01*
X185987799Y-80726162D01*
X185932729Y-80726114D01*
X185923579Y-80720000D01*
X192330000Y-80720000D01*
X192330000Y-102160000D01*
X162376213Y-102160000D01*
X160251098Y-101735518D01*
X158509198Y-100569599D01*
X157345990Y-98825712D01*
X156920000Y-96679625D01*
X156920000Y-94370609D01*
X156971538Y-94370609D01*
X156986714Y-94462376D01*
X157233067Y-94882125D01*
X157621299Y-95175647D01*
X158092304Y-95298256D01*
X158288000Y-95135547D01*
X158288000Y-94180000D01*
X158542000Y-94180000D01*
X158542000Y-95135547D01*
X158737696Y-95298256D01*
X159208701Y-95175647D01*
X159596933Y-94882125D01*
X159843286Y-94462376D01*
X159858462Y-94370609D01*
X159733731Y-94180000D01*
X158542000Y-94180000D01*
X158288000Y-94180000D01*
X157096269Y-94180000D01*
X156971538Y-94370609D01*
X156920000Y-94370609D01*
X156920000Y-94062744D01*
X160071197Y-94062744D01*
X160075994Y-94101526D01*
X160296071Y-94510875D01*
X160656046Y-94804844D01*
X161101117Y-94938680D01*
X161288000Y-94783148D01*
X161288000Y-93880000D01*
X161542000Y-93880000D01*
X161542000Y-94783148D01*
X161728883Y-94938680D01*
X161861670Y-94898750D01*
X163700000Y-94898750D01*
X163700000Y-94991310D01*
X163796673Y-95224699D01*
X163975302Y-95403327D01*
X164208691Y-95500000D01*
X164349250Y-95500000D01*
X164508000Y-95341250D01*
X164508000Y-94740000D01*
X163858750Y-94740000D01*
X163700000Y-94898750D01*
X161861670Y-94898750D01*
X162173954Y-94804844D01*
X162533929Y-94510875D01*
X162680262Y-94238690D01*
X163700000Y-94238690D01*
X163700000Y-94331250D01*
X163858750Y-94490000D01*
X164508000Y-94490000D01*
X164508000Y-93888750D01*
X164349250Y-93730000D01*
X164208691Y-93730000D01*
X163975302Y-93826673D01*
X163796673Y-94005301D01*
X163700000Y-94238690D01*
X162680262Y-94238690D01*
X162754006Y-94101526D01*
X162758803Y-94062744D01*
X162633361Y-93880000D01*
X161542000Y-93880000D01*
X161288000Y-93880000D01*
X160196639Y-93880000D01*
X160071197Y-94062744D01*
X156920000Y-94062744D01*
X156920000Y-93735391D01*
X156971538Y-93735391D01*
X157096269Y-93926000D01*
X158288000Y-93926000D01*
X158288000Y-92970453D01*
X158542000Y-92970453D01*
X158542000Y-93926000D01*
X159733731Y-93926000D01*
X159858462Y-93735391D01*
X159843286Y-93643624D01*
X159725689Y-93443256D01*
X160071197Y-93443256D01*
X160196639Y-93626000D01*
X161288000Y-93626000D01*
X161288000Y-92722852D01*
X161542000Y-92722852D01*
X161542000Y-93626000D01*
X162633361Y-93626000D01*
X162758803Y-93443256D01*
X162754006Y-93404474D01*
X162533929Y-92995125D01*
X162173954Y-92701156D01*
X161728883Y-92567320D01*
X161542000Y-92722852D01*
X161288000Y-92722852D01*
X161101117Y-92567320D01*
X160656046Y-92701156D01*
X160296071Y-92995125D01*
X160075994Y-93404474D01*
X160071197Y-93443256D01*
X159725689Y-93443256D01*
X159596933Y-93223875D01*
X159208701Y-92930353D01*
X158737696Y-92807744D01*
X158542000Y-92970453D01*
X158288000Y-92970453D01*
X158092304Y-92807744D01*
X157621299Y-92930353D01*
X157233067Y-93223875D01*
X156986714Y-93643624D01*
X156971538Y-93735391D01*
X156920000Y-93735391D01*
X156920000Y-88920609D01*
X156971538Y-88920609D01*
X156986714Y-89012376D01*
X157233067Y-89432125D01*
X157621299Y-89725647D01*
X158092304Y-89848256D01*
X158288000Y-89685547D01*
X158288000Y-88730000D01*
X158542000Y-88730000D01*
X158542000Y-89685547D01*
X158737696Y-89848256D01*
X159208701Y-89725647D01*
X159596933Y-89432125D01*
X159725688Y-89212744D01*
X160071197Y-89212744D01*
X160075994Y-89251526D01*
X160296071Y-89660875D01*
X160656046Y-89954844D01*
X161101117Y-90088680D01*
X161288000Y-89933148D01*
X161288000Y-89030000D01*
X160196639Y-89030000D01*
X160071197Y-89212744D01*
X159725688Y-89212744D01*
X159843286Y-89012376D01*
X159858462Y-88920609D01*
X159733731Y-88730000D01*
X158542000Y-88730000D01*
X158288000Y-88730000D01*
X157096269Y-88730000D01*
X156971538Y-88920609D01*
X156920000Y-88920609D01*
X156920000Y-88593256D01*
X160071197Y-88593256D01*
X160196639Y-88776000D01*
X161288000Y-88776000D01*
X161288000Y-87872852D01*
X161101117Y-87717320D01*
X160656046Y-87851156D01*
X160296071Y-88145125D01*
X160075994Y-88554474D01*
X160071197Y-88593256D01*
X156920000Y-88593256D01*
X156920000Y-88285391D01*
X156971538Y-88285391D01*
X157096269Y-88476000D01*
X158288000Y-88476000D01*
X158288000Y-87520453D01*
X158542000Y-87520453D01*
X158542000Y-88476000D01*
X159733731Y-88476000D01*
X159858462Y-88285391D01*
X159843286Y-88193624D01*
X159596933Y-87773875D01*
X159208701Y-87480353D01*
X158737696Y-87357744D01*
X158542000Y-87520453D01*
X158288000Y-87520453D01*
X158092304Y-87357744D01*
X157621299Y-87480353D01*
X157233067Y-87773875D01*
X156986714Y-88193624D01*
X156971538Y-88285391D01*
X156920000Y-88285391D01*
X156920000Y-86176214D01*
X157232094Y-84613750D01*
X164236400Y-84613750D01*
X164236400Y-85470309D01*
X164333073Y-85703698D01*
X164511701Y-85882327D01*
X164745090Y-85979000D01*
X165449250Y-85979000D01*
X165608000Y-85820250D01*
X165608000Y-84455000D01*
X164395150Y-84455000D01*
X164236400Y-84613750D01*
X157232094Y-84613750D01*
X157344482Y-84051098D01*
X157923731Y-83185691D01*
X164236400Y-83185691D01*
X164236400Y-84042250D01*
X164395150Y-84201000D01*
X165608000Y-84201000D01*
X165608000Y-82835750D01*
X165449250Y-82677000D01*
X164745090Y-82677000D01*
X164511701Y-82773673D01*
X164333073Y-82952302D01*
X164236400Y-83185691D01*
X157923731Y-83185691D01*
X158510401Y-82309198D01*
X160254289Y-81145990D01*
X162400376Y-80720000D01*
X164234560Y-80720000D01*
X164234560Y-81930000D01*
X164234560Y-81930000D01*
G37*
X164234560Y-81930000D02*
X164278838Y-82165317D01*
X164417910Y-82381441D01*
X164630110Y-82526431D01*
X164882000Y-82577440D01*
X165582000Y-82577440D01*
X165817317Y-82533162D01*
X166033441Y-82394090D01*
X166155784Y-82215035D01*
X166210862Y-82215083D01*
X166317910Y-82381441D01*
X166530110Y-82526431D01*
X166782000Y-82577440D01*
X167482000Y-82577440D01*
X167717317Y-82533162D01*
X167933441Y-82394090D01*
X168078431Y-82181890D01*
X168107164Y-82040000D01*
X168573258Y-82040000D01*
X168596838Y-82165317D01*
X168735910Y-82381441D01*
X168948110Y-82526431D01*
X169200000Y-82577440D01*
X169472638Y-82577440D01*
X169889280Y-82994082D01*
X169755330Y-83083585D01*
X169545000Y-83398366D01*
X169334670Y-83083585D01*
X168848489Y-82758729D01*
X168275000Y-82644655D01*
X167701511Y-82758729D01*
X167215330Y-83083585D01*
X167200500Y-83105780D01*
X167136927Y-82952302D01*
X166958299Y-82773673D01*
X166724910Y-82677000D01*
X166020750Y-82677000D01*
X165862000Y-82835750D01*
X165862000Y-84201000D01*
X165882000Y-84201000D01*
X165882000Y-84455000D01*
X165862000Y-84455000D01*
X165862000Y-85820250D01*
X166020750Y-85979000D01*
X166724910Y-85979000D01*
X166958299Y-85882327D01*
X167136927Y-85703698D01*
X167200500Y-85550220D01*
X167215330Y-85572415D01*
X167701511Y-85897271D01*
X168275000Y-86011345D01*
X168848489Y-85897271D01*
X169334670Y-85572415D01*
X169545000Y-85257634D01*
X169755330Y-85572415D01*
X169975415Y-85719471D01*
X169975415Y-85905152D01*
X167806066Y-88074500D01*
X166839578Y-88074500D01*
X166818162Y-87960683D01*
X166679090Y-87744559D01*
X166466890Y-87599569D01*
X166215000Y-87548560D01*
X165715000Y-87548560D01*
X165479683Y-87592838D01*
X165263559Y-87731910D01*
X165215866Y-87801711D01*
X165179090Y-87744559D01*
X164966890Y-87599569D01*
X164715000Y-87548560D01*
X164215000Y-87548560D01*
X163979683Y-87592838D01*
X163763559Y-87731910D01*
X163618569Y-87944110D01*
X163614332Y-87965033D01*
X163390833Y-87964838D01*
X163047057Y-88106883D01*
X162783808Y-88369673D01*
X162727525Y-88505218D01*
X162533929Y-88145125D01*
X162173954Y-87851156D01*
X161728883Y-87717320D01*
X161542000Y-87872852D01*
X161542000Y-88776000D01*
X161562000Y-88776000D01*
X161562000Y-89030000D01*
X161542000Y-89030000D01*
X161542000Y-89933148D01*
X161728883Y-90088680D01*
X162173954Y-89954844D01*
X162533929Y-89660875D01*
X162728884Y-89298254D01*
X162782883Y-89428943D01*
X163045673Y-89692192D01*
X163389201Y-89834838D01*
X163761167Y-89835162D01*
X164026570Y-89725500D01*
X164126410Y-89725500D01*
X164215000Y-89743440D01*
X164715000Y-89743440D01*
X164950317Y-89699162D01*
X165166441Y-89560090D01*
X165214134Y-89490289D01*
X165250910Y-89547441D01*
X165463110Y-89692431D01*
X165715000Y-89743440D01*
X166215000Y-89743440D01*
X166310343Y-89725500D01*
X167388540Y-89725500D01*
X167388540Y-91186000D01*
X167446350Y-91476633D01*
X167610981Y-91723019D01*
X169752878Y-93864917D01*
X169752838Y-93911167D01*
X169894883Y-94254943D01*
X170157673Y-94518192D01*
X170324729Y-94587560D01*
X169830000Y-94587560D01*
X169594683Y-94631838D01*
X169378559Y-94770910D01*
X169233569Y-94983110D01*
X169230919Y-94996197D01*
X169094090Y-94783559D01*
X169040000Y-94746601D01*
X169040000Y-93858000D01*
X168982148Y-93567161D01*
X168817401Y-93320599D01*
X166516650Y-91019848D01*
X166499090Y-90992559D01*
X166468373Y-90971571D01*
X165891401Y-90394599D01*
X165644839Y-90229852D01*
X165354000Y-90172000D01*
X164646463Y-90172000D01*
X164614327Y-90139808D01*
X164270799Y-89997162D01*
X163898833Y-89996838D01*
X163555057Y-90138883D01*
X163291808Y-90401673D01*
X163149162Y-90745201D01*
X163148838Y-91117167D01*
X163290883Y-91460943D01*
X163553673Y-91724192D01*
X163700000Y-91784952D01*
X163700000Y-91821002D01*
X163786817Y-91821002D01*
X163836230Y-91841520D01*
X163700000Y-91977750D01*
X163700000Y-92070310D01*
X163796673Y-92303699D01*
X163975302Y-92482327D01*
X164208691Y-92579000D01*
X164349250Y-92579000D01*
X164508000Y-92420250D01*
X164508000Y-91819000D01*
X164488000Y-91819000D01*
X164488000Y-91776742D01*
X164612943Y-91725117D01*
X164646118Y-91692000D01*
X164782000Y-91692000D01*
X164782000Y-91819000D01*
X164762000Y-91819000D01*
X164762000Y-92420250D01*
X164920750Y-92579000D01*
X165061309Y-92579000D01*
X165172283Y-92533033D01*
X165183110Y-92540431D01*
X165435000Y-92591440D01*
X165938638Y-92591440D01*
X167520000Y-94172802D01*
X167520000Y-94744243D01*
X167478559Y-94770910D01*
X167333569Y-94983110D01*
X167282560Y-95235000D01*
X167282560Y-96535000D01*
X167326838Y-96770317D01*
X167465910Y-96986441D01*
X167678110Y-97131431D01*
X167930000Y-97182440D01*
X168630000Y-97182440D01*
X168865317Y-97138162D01*
X169081441Y-96999090D01*
X169226431Y-96786890D01*
X169229081Y-96773803D01*
X169365910Y-96986441D01*
X169420540Y-97023768D01*
X169420540Y-97226998D01*
X169387808Y-97259673D01*
X169245162Y-97603201D01*
X169244838Y-97975167D01*
X169386883Y-98318943D01*
X169540900Y-98473229D01*
X169373559Y-98580910D01*
X169228569Y-98793110D01*
X169225919Y-98806197D01*
X169089090Y-98593559D01*
X168876890Y-98448569D01*
X168625000Y-98397560D01*
X167925000Y-98397560D01*
X167689683Y-98441838D01*
X167572223Y-98517421D01*
X166876000Y-97821198D01*
X166876000Y-96066463D01*
X166908192Y-96034327D01*
X167050838Y-95690799D01*
X167051162Y-95318833D01*
X166909117Y-94975057D01*
X166682440Y-94747984D01*
X166682440Y-94365000D01*
X166638162Y-94129683D01*
X166499090Y-93913559D01*
X166286890Y-93768569D01*
X166035000Y-93717560D01*
X165435000Y-93717560D01*
X165199683Y-93761838D01*
X165175594Y-93777339D01*
X165061309Y-93730000D01*
X164920750Y-93730000D01*
X164762000Y-93888750D01*
X164762000Y-94490000D01*
X164782000Y-94490000D01*
X164782000Y-94740000D01*
X164762000Y-94740000D01*
X164762000Y-95341250D01*
X164920750Y-95500000D01*
X165061309Y-95500000D01*
X165084112Y-95490555D01*
X165180885Y-95635386D01*
X165180838Y-95689167D01*
X165322883Y-96032943D01*
X165356000Y-96066118D01*
X165356000Y-98136000D01*
X165413852Y-98426839D01*
X165578599Y-98673401D01*
X167137599Y-100232401D01*
X167277560Y-100325920D01*
X167277560Y-100345000D01*
X167321838Y-100580317D01*
X167460910Y-100796441D01*
X167673110Y-100941431D01*
X167925000Y-100992440D01*
X168118672Y-100992440D01*
X168102162Y-101032201D01*
X168101838Y-101404167D01*
X168243883Y-101747943D01*
X168506673Y-102011192D01*
X168850201Y-102153838D01*
X169222167Y-102154162D01*
X169565943Y-102012117D01*
X169829192Y-101749327D01*
X169971838Y-101405799D01*
X169972162Y-101033833D01*
X169955059Y-100992440D01*
X170525000Y-100992440D01*
X170760317Y-100948162D01*
X170976441Y-100809090D01*
X171121431Y-100596890D01*
X171172440Y-100345000D01*
X171172440Y-99045000D01*
X171128162Y-98809683D01*
X170989090Y-98593559D01*
X170816568Y-98475680D01*
X170972192Y-98320327D01*
X171031617Y-98177215D01*
X171477524Y-98623122D01*
X171477484Y-98668609D01*
X171535229Y-98808363D01*
X171528569Y-98818110D01*
X171477560Y-99070000D01*
X171477560Y-100320000D01*
X171521838Y-100555317D01*
X171660910Y-100771441D01*
X171873110Y-100916431D01*
X172125000Y-100967440D01*
X173125000Y-100967440D01*
X173360317Y-100923162D01*
X173576441Y-100784090D01*
X173622969Y-100715994D01*
X173765302Y-100858327D01*
X173998691Y-100955000D01*
X174339250Y-100955000D01*
X174498000Y-100796250D01*
X174498000Y-99822000D01*
X174478000Y-99822000D01*
X174478000Y-99568000D01*
X174498000Y-99568000D01*
X174498000Y-98593750D01*
X174339250Y-98435000D01*
X173998691Y-98435000D01*
X173765302Y-98531673D01*
X173624064Y-98672910D01*
X173589090Y-98618559D01*
X173376890Y-98473569D01*
X173347660Y-98467650D01*
X173347808Y-98298275D01*
X173205763Y-97954499D01*
X172942973Y-97691250D01*
X172599445Y-97548604D01*
X172552569Y-97548563D01*
X172210000Y-97205994D01*
X172210000Y-97149027D01*
X172375000Y-97182440D01*
X173075000Y-97182440D01*
X173310317Y-97138162D01*
X173344809Y-97115967D01*
X173549201Y-97200838D01*
X173644549Y-97200921D01*
X173745160Y-97268147D01*
X174035999Y-97325999D01*
X174579647Y-97325999D01*
X174870486Y-97268147D01*
X175008068Y-97176218D01*
X175210317Y-97138162D01*
X175426441Y-96999090D01*
X175571431Y-96786890D01*
X175606441Y-96614007D01*
X176049698Y-96170750D01*
X176373000Y-96170750D01*
X176373000Y-96661310D01*
X176469673Y-96894699D01*
X176648302Y-97073327D01*
X176881691Y-97170000D01*
X177072250Y-97170000D01*
X177231000Y-97011250D01*
X177231000Y-96012000D01*
X176531750Y-96012000D01*
X176373000Y-96170750D01*
X176049698Y-96170750D01*
X176497099Y-95723349D01*
X176531750Y-95758000D01*
X177231000Y-95758000D01*
X177231000Y-95738000D01*
X177362967Y-95738000D01*
X177362788Y-95943167D01*
X177485000Y-96238943D01*
X177485000Y-97011250D01*
X177643750Y-97170000D01*
X177834309Y-97170000D01*
X178067698Y-97073327D01*
X178246327Y-96894699D01*
X178302654Y-96758713D01*
X178304838Y-96770317D01*
X178443910Y-96986441D01*
X178656110Y-97131431D01*
X178908000Y-97182440D01*
X179608000Y-97182440D01*
X179834000Y-97139915D01*
X179834000Y-97729198D01*
X179217199Y-98345999D01*
X176843603Y-98345999D01*
X176815117Y-98277057D01*
X176552327Y-98013808D01*
X176208799Y-97871162D01*
X175836833Y-97870838D01*
X175493057Y-98012883D01*
X175229808Y-98275673D01*
X175163649Y-98435000D01*
X174910750Y-98435000D01*
X174752000Y-98593750D01*
X174752000Y-99568000D01*
X174772000Y-99568000D01*
X174772000Y-99822000D01*
X174752000Y-99822000D01*
X174752000Y-100796250D01*
X174910750Y-100955000D01*
X175251309Y-100955000D01*
X175484698Y-100858327D01*
X175663327Y-100679699D01*
X175760000Y-100446310D01*
X175760000Y-99980750D01*
X175601252Y-99822002D01*
X175760000Y-99822002D01*
X175760000Y-99709612D01*
X175835201Y-99740838D01*
X175930549Y-99740921D01*
X176031160Y-99808147D01*
X176321999Y-99865999D01*
X179309197Y-99865999D01*
X180166878Y-100723680D01*
X180166838Y-100769167D01*
X180308883Y-101112943D01*
X180571673Y-101376192D01*
X180915201Y-101518838D01*
X181033421Y-101518941D01*
X181065160Y-101540148D01*
X181356000Y-101598000D01*
X184095537Y-101598000D01*
X184127673Y-101630192D01*
X184471201Y-101772838D01*
X184843167Y-101773162D01*
X185186943Y-101631117D01*
X185450192Y-101368327D01*
X185493071Y-101265064D01*
X185605167Y-101265162D01*
X185948943Y-101123117D01*
X186212192Y-100860327D01*
X186354838Y-100516799D01*
X186355162Y-100144833D01*
X186213117Y-99801057D01*
X186180000Y-99767882D01*
X186180000Y-97790000D01*
X188816655Y-97790000D01*
X188930729Y-98363489D01*
X189255585Y-98849670D01*
X189570366Y-99060000D01*
X189255585Y-99270330D01*
X188930729Y-99756511D01*
X188816655Y-100330000D01*
X188930729Y-100903489D01*
X189255585Y-101389670D01*
X189741766Y-101714526D01*
X190315255Y-101828600D01*
X190684745Y-101828600D01*
X191258234Y-101714526D01*
X191744415Y-101389670D01*
X192069271Y-100903489D01*
X192183345Y-100330000D01*
X192069271Y-99756511D01*
X191744415Y-99270330D01*
X191429634Y-99060000D01*
X191744415Y-98849670D01*
X192069271Y-98363489D01*
X192183345Y-97790000D01*
X192069271Y-97216511D01*
X191744415Y-96730330D01*
X191722220Y-96715500D01*
X191875698Y-96651927D01*
X192054327Y-96473299D01*
X192151000Y-96239910D01*
X192151000Y-95535750D01*
X191992250Y-95377000D01*
X190627000Y-95377000D01*
X190627000Y-95397000D01*
X190373000Y-95397000D01*
X190373000Y-95377000D01*
X189007750Y-95377000D01*
X188849000Y-95535750D01*
X188849000Y-96239910D01*
X188945673Y-96473299D01*
X189124302Y-96651927D01*
X189277780Y-96715500D01*
X189255585Y-96730330D01*
X188930729Y-97216511D01*
X188816655Y-97790000D01*
X186180000Y-97790000D01*
X186180000Y-97282000D01*
X186122148Y-96991161D01*
X186122148Y-96991160D01*
X185957401Y-96744599D01*
X185892281Y-96679479D01*
X186202943Y-96551117D01*
X186466192Y-96288327D01*
X186608838Y-95944799D01*
X186609162Y-95572833D01*
X186467117Y-95229057D01*
X186204327Y-94965808D01*
X185926000Y-94850236D01*
X185926000Y-94288463D01*
X185954422Y-94260090D01*
X188849000Y-94260090D01*
X188849000Y-94964250D01*
X189007750Y-95123000D01*
X190373000Y-95123000D01*
X190373000Y-93910150D01*
X190627000Y-93910150D01*
X190627000Y-95123000D01*
X191992250Y-95123000D01*
X192151000Y-94964250D01*
X192151000Y-94260090D01*
X192054327Y-94026701D01*
X191875698Y-93848073D01*
X191642309Y-93751400D01*
X190785750Y-93751400D01*
X190627000Y-93910150D01*
X190373000Y-93910150D01*
X190214250Y-93751400D01*
X189357691Y-93751400D01*
X189124302Y-93848073D01*
X188945673Y-94026701D01*
X188849000Y-94260090D01*
X185954422Y-94260090D01*
X185958192Y-94256327D01*
X186100838Y-93912799D01*
X186101162Y-93540833D01*
X185959117Y-93197057D01*
X185696327Y-92933808D01*
X185352799Y-92791162D01*
X184980833Y-92790838D01*
X184637057Y-92932883D01*
X184373808Y-93195673D01*
X184231162Y-93539201D01*
X184230838Y-93911167D01*
X184372883Y-94254943D01*
X184406000Y-94288118D01*
X184406000Y-94619961D01*
X184246000Y-94587560D01*
X183546000Y-94587560D01*
X183310683Y-94631838D01*
X183094559Y-94770910D01*
X182949569Y-94983110D01*
X182946919Y-94996197D01*
X182810090Y-94783559D01*
X182597890Y-94638569D01*
X182346000Y-94587560D01*
X181646000Y-94587560D01*
X181410683Y-94631838D01*
X181354000Y-94668313D01*
X181354000Y-93980000D01*
X181296148Y-93689161D01*
X181296148Y-93689160D01*
X181131401Y-93442599D01*
X179830000Y-92141198D01*
X179830000Y-91828158D01*
X180284660Y-91828158D01*
X180582424Y-92548801D01*
X181133299Y-93100639D01*
X181853421Y-93399659D01*
X182633158Y-93400340D01*
X183353801Y-93102576D01*
X183905639Y-92551701D01*
X184204659Y-91831579D01*
X184205340Y-91051842D01*
X183907576Y-90331199D01*
X183356701Y-89779361D01*
X182636579Y-89480341D01*
X181856842Y-89479660D01*
X181136199Y-89777424D01*
X180584361Y-90328299D01*
X180285341Y-91048421D01*
X180284660Y-91828158D01*
X179830000Y-91828158D01*
X179830000Y-91494463D01*
X179862192Y-91462327D01*
X180004838Y-91118799D01*
X180005162Y-90746833D01*
X179863117Y-90403057D01*
X179600327Y-90139808D01*
X179256799Y-89997162D01*
X178884833Y-89996838D01*
X178541057Y-90138883D01*
X178277808Y-90401673D01*
X178135162Y-90745201D01*
X178134838Y-91117167D01*
X178276883Y-91460943D01*
X178310000Y-91494118D01*
X178310000Y-92456000D01*
X178367852Y-92746839D01*
X178532599Y-92993401D01*
X179834000Y-94294802D01*
X179834000Y-94633326D01*
X179608000Y-94587560D01*
X178908000Y-94587560D01*
X178672683Y-94631838D01*
X178456559Y-94770910D01*
X178420895Y-94823106D01*
X178419256Y-94823105D01*
X178480838Y-94674799D01*
X178481162Y-94302833D01*
X178339117Y-93959057D01*
X178076327Y-93695808D01*
X177732799Y-93553162D01*
X177360833Y-93552838D01*
X177017057Y-93694883D01*
X176983882Y-93728000D01*
X176657646Y-93728000D01*
X176366806Y-93785852D01*
X176120245Y-93950599D01*
X175348905Y-94721939D01*
X175226890Y-94638569D01*
X174975000Y-94587560D01*
X174275000Y-94587560D01*
X174039683Y-94631838D01*
X173823559Y-94770910D01*
X173678569Y-94983110D01*
X173675919Y-94996197D01*
X173539090Y-94783559D01*
X173326890Y-94638569D01*
X173075000Y-94587560D01*
X172375000Y-94587560D01*
X172210000Y-94618607D01*
X172210000Y-94488000D01*
X172152148Y-94197161D01*
X171987401Y-93950599D01*
X171985102Y-93949063D01*
X171623122Y-93587083D01*
X171623162Y-93540833D01*
X171481117Y-93197057D01*
X171218327Y-92933808D01*
X170874799Y-92791162D01*
X170827159Y-92791121D01*
X169864196Y-91828158D01*
X170759660Y-91828158D01*
X171057424Y-92548801D01*
X171608299Y-93100639D01*
X172328421Y-93399659D01*
X173108158Y-93400340D01*
X173828801Y-93102576D01*
X174380639Y-92551701D01*
X174679659Y-91831579D01*
X174680340Y-91051842D01*
X174382576Y-90331199D01*
X173831701Y-89779361D01*
X173111579Y-89480341D01*
X172331842Y-89479660D01*
X171611199Y-89777424D01*
X171059361Y-90328299D01*
X170760341Y-91048421D01*
X170759660Y-91828158D01*
X169864196Y-91828158D01*
X168907460Y-90871422D01*
X168907460Y-89307974D01*
X169384266Y-88831167D01*
X183214838Y-88831167D01*
X183356883Y-89174943D01*
X183619673Y-89438192D01*
X183963201Y-89580838D01*
X184010077Y-89580879D01*
X184406000Y-89976802D01*
X184406000Y-90369537D01*
X184373808Y-90401673D01*
X184231162Y-90745201D01*
X184230838Y-91117167D01*
X184372883Y-91460943D01*
X184635673Y-91724192D01*
X184979201Y-91866838D01*
X185351167Y-91867162D01*
X185694943Y-91725117D01*
X185958192Y-91462327D01*
X186100838Y-91118799D01*
X186101162Y-90746833D01*
X185959117Y-90403057D01*
X185926000Y-90369882D01*
X185926000Y-89662000D01*
X185868148Y-89371161D01*
X185703401Y-89124599D01*
X185085122Y-88506320D01*
X185085162Y-88460833D01*
X184943117Y-88117057D01*
X184680327Y-87853808D01*
X184336799Y-87711162D01*
X183964833Y-87710838D01*
X183621057Y-87852883D01*
X183357808Y-88115673D01*
X183215162Y-88459201D01*
X183214838Y-88831167D01*
X169384266Y-88831167D01*
X171384629Y-86830804D01*
X171384632Y-86830802D01*
X171563578Y-86562990D01*
X171626415Y-86247085D01*
X171626415Y-85738294D01*
X171874670Y-85572415D01*
X172085000Y-85257634D01*
X172295330Y-85572415D01*
X172781511Y-85897271D01*
X173355000Y-86011345D01*
X173563007Y-85969970D01*
X173562838Y-86164167D01*
X173704883Y-86507943D01*
X173967673Y-86771192D01*
X174311201Y-86913838D01*
X174683167Y-86914162D01*
X175026943Y-86772117D01*
X175060118Y-86739000D01*
X180467000Y-86739000D01*
X180757839Y-86681148D01*
X180789399Y-86660060D01*
X180906167Y-86660162D01*
X181249943Y-86518117D01*
X181513192Y-86255327D01*
X181655838Y-85911799D01*
X181656162Y-85539833D01*
X181514117Y-85196057D01*
X181251327Y-84932808D01*
X180907799Y-84790162D01*
X180535833Y-84789838D01*
X180192057Y-84931883D01*
X179928808Y-85194673D01*
X179918706Y-85219000D01*
X179730815Y-85219000D01*
X179819526Y-85086234D01*
X179933600Y-84512745D01*
X179933600Y-84143255D01*
X179819526Y-83569766D01*
X179645956Y-83310000D01*
X183073200Y-83310000D01*
X183106560Y-83343360D01*
X183106560Y-83784000D01*
X183150838Y-84019317D01*
X183289910Y-84235441D01*
X183502110Y-84380431D01*
X183754000Y-84431440D01*
X184194640Y-84431440D01*
X184484878Y-84721678D01*
X184484838Y-84767165D01*
X184626883Y-85110941D01*
X184889673Y-85374190D01*
X185233201Y-85516836D01*
X185605167Y-85517160D01*
X185948943Y-85375115D01*
X186212192Y-85112325D01*
X186354838Y-84768797D01*
X186355162Y-84396831D01*
X186245806Y-84132167D01*
X188167838Y-84132167D01*
X188309883Y-84475943D01*
X188343000Y-84509118D01*
X188343000Y-88337537D01*
X188310808Y-88369673D01*
X188168162Y-88713201D01*
X188167838Y-89085167D01*
X188309883Y-89428943D01*
X188572673Y-89692192D01*
X188885831Y-89822227D01*
X188816655Y-90170000D01*
X188930729Y-90743489D01*
X189255585Y-91229670D01*
X189741766Y-91554526D01*
X190315255Y-91668600D01*
X190684745Y-91668600D01*
X191258234Y-91554526D01*
X191744415Y-91229670D01*
X192069271Y-90743489D01*
X192183345Y-90170000D01*
X192069271Y-89596511D01*
X191744415Y-89110330D01*
X191429634Y-88900000D01*
X191744415Y-88689670D01*
X192069271Y-88203489D01*
X192183345Y-87630000D01*
X192069271Y-87056511D01*
X191744415Y-86570330D01*
X191429634Y-86360000D01*
X191744415Y-86149670D01*
X192069271Y-85663489D01*
X192183345Y-85090000D01*
X192069271Y-84516511D01*
X191744415Y-84030330D01*
X191722220Y-84015500D01*
X191875698Y-83951927D01*
X192054327Y-83773299D01*
X192151000Y-83539910D01*
X192151000Y-82835750D01*
X191992250Y-82677000D01*
X190627000Y-82677000D01*
X190627000Y-82697000D01*
X190373000Y-82697000D01*
X190373000Y-82677000D01*
X189007750Y-82677000D01*
X188849000Y-82835750D01*
X188849000Y-83040279D01*
X188574057Y-83153883D01*
X188310808Y-83416673D01*
X188168162Y-83760201D01*
X188167838Y-84132167D01*
X186245806Y-84132167D01*
X186213117Y-84053055D01*
X185950327Y-83789806D01*
X185701440Y-83686459D01*
X185701440Y-83084000D01*
X185657162Y-82848683D01*
X185518090Y-82632559D01*
X185305890Y-82487569D01*
X185292803Y-82484919D01*
X185314091Y-82471221D01*
X185614201Y-82595838D01*
X185986167Y-82596162D01*
X186329943Y-82454117D01*
X186593192Y-82191327D01*
X186735838Y-81847799D01*
X186736088Y-81560090D01*
X188849000Y-81560090D01*
X188849000Y-82264250D01*
X189007750Y-82423000D01*
X190373000Y-82423000D01*
X190373000Y-81210150D01*
X190627000Y-81210150D01*
X190627000Y-82423000D01*
X191992250Y-82423000D01*
X192151000Y-82264250D01*
X192151000Y-81560090D01*
X192054327Y-81326701D01*
X191875698Y-81148073D01*
X191642309Y-81051400D01*
X190785750Y-81051400D01*
X190627000Y-81210150D01*
X190373000Y-81210150D01*
X190214250Y-81051400D01*
X189357691Y-81051400D01*
X189124302Y-81148073D01*
X188945673Y-81326701D01*
X188849000Y-81560090D01*
X186736088Y-81560090D01*
X186736162Y-81475833D01*
X186594117Y-81132057D01*
X186331327Y-80868808D01*
X185987799Y-80726162D01*
X185932729Y-80726114D01*
X185923579Y-80720000D01*
X192330000Y-80720000D01*
X192330000Y-102160000D01*
X162376213Y-102160000D01*
X160251098Y-101735518D01*
X158509198Y-100569599D01*
X157345990Y-98825712D01*
X156920000Y-96679625D01*
X156920000Y-94370609D01*
X156971538Y-94370609D01*
X156986714Y-94462376D01*
X157233067Y-94882125D01*
X157621299Y-95175647D01*
X158092304Y-95298256D01*
X158288000Y-95135547D01*
X158288000Y-94180000D01*
X158542000Y-94180000D01*
X158542000Y-95135547D01*
X158737696Y-95298256D01*
X159208701Y-95175647D01*
X159596933Y-94882125D01*
X159843286Y-94462376D01*
X159858462Y-94370609D01*
X159733731Y-94180000D01*
X158542000Y-94180000D01*
X158288000Y-94180000D01*
X157096269Y-94180000D01*
X156971538Y-94370609D01*
X156920000Y-94370609D01*
X156920000Y-94062744D01*
X160071197Y-94062744D01*
X160075994Y-94101526D01*
X160296071Y-94510875D01*
X160656046Y-94804844D01*
X161101117Y-94938680D01*
X161288000Y-94783148D01*
X161288000Y-93880000D01*
X161542000Y-93880000D01*
X161542000Y-94783148D01*
X161728883Y-94938680D01*
X161861670Y-94898750D01*
X163700000Y-94898750D01*
X163700000Y-94991310D01*
X163796673Y-95224699D01*
X163975302Y-95403327D01*
X164208691Y-95500000D01*
X164349250Y-95500000D01*
X164508000Y-95341250D01*
X164508000Y-94740000D01*
X163858750Y-94740000D01*
X163700000Y-94898750D01*
X161861670Y-94898750D01*
X162173954Y-94804844D01*
X162533929Y-94510875D01*
X162680262Y-94238690D01*
X163700000Y-94238690D01*
X163700000Y-94331250D01*
X163858750Y-94490000D01*
X164508000Y-94490000D01*
X164508000Y-93888750D01*
X164349250Y-93730000D01*
X164208691Y-93730000D01*
X163975302Y-93826673D01*
X163796673Y-94005301D01*
X163700000Y-94238690D01*
X162680262Y-94238690D01*
X162754006Y-94101526D01*
X162758803Y-94062744D01*
X162633361Y-93880000D01*
X161542000Y-93880000D01*
X161288000Y-93880000D01*
X160196639Y-93880000D01*
X160071197Y-94062744D01*
X156920000Y-94062744D01*
X156920000Y-93735391D01*
X156971538Y-93735391D01*
X157096269Y-93926000D01*
X158288000Y-93926000D01*
X158288000Y-92970453D01*
X158542000Y-92970453D01*
X158542000Y-93926000D01*
X159733731Y-93926000D01*
X159858462Y-93735391D01*
X159843286Y-93643624D01*
X159725689Y-93443256D01*
X160071197Y-93443256D01*
X160196639Y-93626000D01*
X161288000Y-93626000D01*
X161288000Y-92722852D01*
X161542000Y-92722852D01*
X161542000Y-93626000D01*
X162633361Y-93626000D01*
X162758803Y-93443256D01*
X162754006Y-93404474D01*
X162533929Y-92995125D01*
X162173954Y-92701156D01*
X161728883Y-92567320D01*
X161542000Y-92722852D01*
X161288000Y-92722852D01*
X161101117Y-92567320D01*
X160656046Y-92701156D01*
X160296071Y-92995125D01*
X160075994Y-93404474D01*
X160071197Y-93443256D01*
X159725689Y-93443256D01*
X159596933Y-93223875D01*
X159208701Y-92930353D01*
X158737696Y-92807744D01*
X158542000Y-92970453D01*
X158288000Y-92970453D01*
X158092304Y-92807744D01*
X157621299Y-92930353D01*
X157233067Y-93223875D01*
X156986714Y-93643624D01*
X156971538Y-93735391D01*
X156920000Y-93735391D01*
X156920000Y-88920609D01*
X156971538Y-88920609D01*
X156986714Y-89012376D01*
X157233067Y-89432125D01*
X157621299Y-89725647D01*
X158092304Y-89848256D01*
X158288000Y-89685547D01*
X158288000Y-88730000D01*
X158542000Y-88730000D01*
X158542000Y-89685547D01*
X158737696Y-89848256D01*
X159208701Y-89725647D01*
X159596933Y-89432125D01*
X159725688Y-89212744D01*
X160071197Y-89212744D01*
X160075994Y-89251526D01*
X160296071Y-89660875D01*
X160656046Y-89954844D01*
X161101117Y-90088680D01*
X161288000Y-89933148D01*
X161288000Y-89030000D01*
X160196639Y-89030000D01*
X160071197Y-89212744D01*
X159725688Y-89212744D01*
X159843286Y-89012376D01*
X159858462Y-88920609D01*
X159733731Y-88730000D01*
X158542000Y-88730000D01*
X158288000Y-88730000D01*
X157096269Y-88730000D01*
X156971538Y-88920609D01*
X156920000Y-88920609D01*
X156920000Y-88593256D01*
X160071197Y-88593256D01*
X160196639Y-88776000D01*
X161288000Y-88776000D01*
X161288000Y-87872852D01*
X161101117Y-87717320D01*
X160656046Y-87851156D01*
X160296071Y-88145125D01*
X160075994Y-88554474D01*
X160071197Y-88593256D01*
X156920000Y-88593256D01*
X156920000Y-88285391D01*
X156971538Y-88285391D01*
X157096269Y-88476000D01*
X158288000Y-88476000D01*
X158288000Y-87520453D01*
X158542000Y-87520453D01*
X158542000Y-88476000D01*
X159733731Y-88476000D01*
X159858462Y-88285391D01*
X159843286Y-88193624D01*
X159596933Y-87773875D01*
X159208701Y-87480353D01*
X158737696Y-87357744D01*
X158542000Y-87520453D01*
X158288000Y-87520453D01*
X158092304Y-87357744D01*
X157621299Y-87480353D01*
X157233067Y-87773875D01*
X156986714Y-88193624D01*
X156971538Y-88285391D01*
X156920000Y-88285391D01*
X156920000Y-86176214D01*
X157232094Y-84613750D01*
X164236400Y-84613750D01*
X164236400Y-85470309D01*
X164333073Y-85703698D01*
X164511701Y-85882327D01*
X164745090Y-85979000D01*
X165449250Y-85979000D01*
X165608000Y-85820250D01*
X165608000Y-84455000D01*
X164395150Y-84455000D01*
X164236400Y-84613750D01*
X157232094Y-84613750D01*
X157344482Y-84051098D01*
X157923731Y-83185691D01*
X164236400Y-83185691D01*
X164236400Y-84042250D01*
X164395150Y-84201000D01*
X165608000Y-84201000D01*
X165608000Y-82835750D01*
X165449250Y-82677000D01*
X164745090Y-82677000D01*
X164511701Y-82773673D01*
X164333073Y-82952302D01*
X164236400Y-83185691D01*
X157923731Y-83185691D01*
X158510401Y-82309198D01*
X160254289Y-81145990D01*
X162400376Y-80720000D01*
X164234560Y-80720000D01*
X164234560Y-81930000D01*
M02*
