M48
;DRILL file {KiCad 4.0.1-stable} date 3/22/2016 7:23:57 PM
;FORMAT={-:-/ absolute / inch / decimal}
FMAT,2
INCH,TZ
T1C0.016
T2C0.026
T3C0.028
T4C0.040
T5C0.104
%
G90
G05
M72
T1
X6.44Y-3.5
X6.46Y-3.58
X6.54Y-3.2
X6.54Y-3.76
X6.655Y-3.985
X6.7Y-3.85
X6.7133Y-3.2
X6.72Y-3.69
X6.7879Y-3.8773
X6.83Y-3.85
X6.84Y-3.79
X6.87Y-3.385
X6.885Y-3.2
X6.93Y-3.89
X6.99Y-3.72
X7.0196Y-3.77
X7.0402Y-3.83
X7.05Y-3.58
X7.0676Y-3.6924
X7.115Y-3.375
X7.13Y-3.96
X7.17Y-3.82
X7.18Y-3.71
X7.25Y-3.49
X7.27Y-3.97
X7.29Y-3.58
X7.29Y-3.69
X7.3Y-3.33
X7.3Y-3.95
X7.31Y-3.77
X7.315Y-3.215
X7.42Y-3.621
X7.445Y-3.305
X7.445Y-3.5
T4
X6.525Y-3.32
X6.625Y-3.32
X6.725Y-3.32
X6.825Y-3.32
X6.925Y-3.32
X7.025Y-3.32
X7.5Y-3.25
X7.5Y-3.35
X7.5Y-3.45
X7.5Y-3.55
X7.5Y-3.75
X7.5Y-3.85
X7.5Y-3.95
T5
X6.8Y-3.6
X7.175Y-3.6
T2
X6.347Y-3.5001G85X6.3628Y-3.5001
G05
X6.347Y-3.6911G85X6.3628Y-3.6911
G05
T3
X6.227Y-3.4883G85X6.2467Y-3.4883
G05
X6.227Y-3.7029G85X6.2467Y-3.7029
G05
T0
M30
