G04 #@! TF.FileFunction,Legend,Top*
%FSLAX46Y46*%
G04 Gerber Fmt 4.6, Leading zero omitted, Abs format (unit mm)*
G04 Created by KiCad (PCBNEW 4.0.1-stable) date 3/22/2016 7:23:55 PM*
%MOMM*%
G01*
G04 APERTURE LIST*
%ADD10C,0.100000*%
%ADD11C,0.203200*%
%ADD12C,0.300000*%
%ADD13C,0.150000*%
G04 APERTURE END LIST*
D10*
D11*
X162523714Y-100765429D02*
X162523714Y-99749429D01*
X162523714Y-100039714D02*
X162596286Y-99894571D01*
X162668857Y-99822000D01*
X162814000Y-99749429D01*
X162959143Y-99749429D01*
X164047715Y-100692857D02*
X163902572Y-100765429D01*
X163612286Y-100765429D01*
X163467143Y-100692857D01*
X163394572Y-100547714D01*
X163394572Y-99967143D01*
X163467143Y-99822000D01*
X163612286Y-99749429D01*
X163902572Y-99749429D01*
X164047715Y-99822000D01*
X164120286Y-99967143D01*
X164120286Y-100112286D01*
X163394572Y-100257429D01*
X164628286Y-99749429D02*
X164991143Y-100765429D01*
X165354001Y-99749429D01*
X166732858Y-100765429D02*
X165862001Y-100765429D01*
X166297429Y-100765429D02*
X166297429Y-99241429D01*
X166152286Y-99459143D01*
X166007144Y-99604286D01*
X165862001Y-99676857D01*
D12*
X160072001Y-98468571D02*
X160072001Y-96968571D01*
X160643429Y-96968571D01*
X160786287Y-97040000D01*
X160857715Y-97111429D01*
X160929144Y-97254286D01*
X160929144Y-97468571D01*
X160857715Y-97611429D01*
X160786287Y-97682857D01*
X160643429Y-97754286D01*
X160072001Y-97754286D01*
X161857715Y-96968571D02*
X162000572Y-96968571D01*
X162143429Y-97040000D01*
X162214858Y-97111429D01*
X162286287Y-97254286D01*
X162357715Y-97540000D01*
X162357715Y-97897143D01*
X162286287Y-98182857D01*
X162214858Y-98325714D01*
X162143429Y-98397143D01*
X162000572Y-98468571D01*
X161857715Y-98468571D01*
X161714858Y-98397143D01*
X161643429Y-98325714D01*
X161572001Y-98182857D01*
X161500572Y-97897143D01*
X161500572Y-97540000D01*
X161572001Y-97254286D01*
X161643429Y-97111429D01*
X161714858Y-97040000D01*
X161857715Y-96968571D01*
X163286286Y-96968571D02*
X163429143Y-96968571D01*
X163572000Y-97040000D01*
X163643429Y-97111429D01*
X163714858Y-97254286D01*
X163786286Y-97540000D01*
X163786286Y-97897143D01*
X163714858Y-98182857D01*
X163643429Y-98325714D01*
X163572000Y-98397143D01*
X163429143Y-98468571D01*
X163286286Y-98468571D01*
X163143429Y-98397143D01*
X163072000Y-98325714D01*
X163000572Y-98182857D01*
X162929143Y-97897143D01*
X162929143Y-97540000D01*
X163000572Y-97254286D01*
X163072000Y-97111429D01*
X163143429Y-97040000D01*
X163286286Y-96968571D01*
X164714857Y-96968571D02*
X164857714Y-96968571D01*
X165000571Y-97040000D01*
X165072000Y-97111429D01*
X165143429Y-97254286D01*
X165214857Y-97540000D01*
X165214857Y-97897143D01*
X165143429Y-98182857D01*
X165072000Y-98325714D01*
X165000571Y-98397143D01*
X164857714Y-98468571D01*
X164714857Y-98468571D01*
X164572000Y-98397143D01*
X164500571Y-98325714D01*
X164429143Y-98182857D01*
X164357714Y-97897143D01*
X164357714Y-97540000D01*
X164429143Y-97254286D01*
X164500571Y-97111429D01*
X164572000Y-97040000D01*
X164714857Y-96968571D01*
X166072000Y-97611429D02*
X165929142Y-97540000D01*
X165857714Y-97468571D01*
X165786285Y-97325714D01*
X165786285Y-97254286D01*
X165857714Y-97111429D01*
X165929142Y-97040000D01*
X166072000Y-96968571D01*
X166357714Y-96968571D01*
X166500571Y-97040000D01*
X166572000Y-97111429D01*
X166643428Y-97254286D01*
X166643428Y-97325714D01*
X166572000Y-97468571D01*
X166500571Y-97540000D01*
X166357714Y-97611429D01*
X166072000Y-97611429D01*
X165929142Y-97682857D01*
X165857714Y-97754286D01*
X165786285Y-97897143D01*
X165786285Y-98182857D01*
X165857714Y-98325714D01*
X165929142Y-98397143D01*
X166072000Y-98468571D01*
X166357714Y-98468571D01*
X166500571Y-98397143D01*
X166572000Y-98325714D01*
X166643428Y-98182857D01*
X166643428Y-97897143D01*
X166572000Y-97754286D01*
X166500571Y-97682857D01*
X166357714Y-97611429D01*
D11*
X165100000Y-90133714D02*
X165021381Y-90290952D01*
X165021381Y-90526809D01*
X165100000Y-90762667D01*
X165257238Y-90919905D01*
X165414476Y-90998524D01*
X165728952Y-91077143D01*
X165964810Y-91077143D01*
X166279286Y-90998524D01*
X166436524Y-90919905D01*
X166593762Y-90762667D01*
X166672381Y-90526809D01*
X166672381Y-90369571D01*
X166593762Y-90133714D01*
X166515143Y-90055095D01*
X165964810Y-90055095D01*
X165964810Y-90369571D01*
X166672381Y-89347524D02*
X165021381Y-89347524D01*
X166672381Y-88404095D01*
X165021381Y-88404095D01*
X166672381Y-87617905D02*
X165021381Y-87617905D01*
X165021381Y-87224810D01*
X165100000Y-86988952D01*
X165257238Y-86831714D01*
X165414476Y-86753095D01*
X165728952Y-86674476D01*
X165964810Y-86674476D01*
X166279286Y-86753095D01*
X166436524Y-86831714D01*
X166593762Y-86988952D01*
X166672381Y-87224810D01*
X166672381Y-87617905D01*
X169029743Y-89504762D02*
X169108362Y-89583381D01*
X169186981Y-89819238D01*
X169186981Y-89976476D01*
X169108362Y-90212334D01*
X168951124Y-90369572D01*
X168793886Y-90448191D01*
X168479410Y-90526810D01*
X168243552Y-90526810D01*
X167929076Y-90448191D01*
X167771838Y-90369572D01*
X167614600Y-90212334D01*
X167535981Y-89976476D01*
X167535981Y-89819238D01*
X167614600Y-89583381D01*
X167693219Y-89504762D01*
X167535981Y-89033048D02*
X167535981Y-88089619D01*
X169186981Y-88561334D02*
X167535981Y-88561334D01*
X169108362Y-87617905D02*
X169186981Y-87382048D01*
X169186981Y-86988952D01*
X169108362Y-86831714D01*
X169029743Y-86753095D01*
X168872505Y-86674476D01*
X168715267Y-86674476D01*
X168558029Y-86753095D01*
X168479410Y-86831714D01*
X168400790Y-86988952D01*
X168322171Y-87303429D01*
X168243552Y-87460667D01*
X168164933Y-87539286D01*
X168007695Y-87617905D01*
X167850457Y-87617905D01*
X167693219Y-87539286D01*
X167614600Y-87460667D01*
X167535981Y-87303429D01*
X167535981Y-86910333D01*
X167614600Y-86674476D01*
X167251380Y-90841286D02*
X167251380Y-86360000D01*
X170050581Y-88168238D02*
X170050581Y-88954429D01*
X170836771Y-89033048D01*
X170758152Y-88954429D01*
X170679533Y-88797191D01*
X170679533Y-88404095D01*
X170758152Y-88246857D01*
X170836771Y-88168238D01*
X170994010Y-88089619D01*
X171387105Y-88089619D01*
X171544343Y-88168238D01*
X171622962Y-88246857D01*
X171701581Y-88404095D01*
X171701581Y-88797191D01*
X171622962Y-88954429D01*
X171544343Y-89033048D01*
X170050581Y-87617905D02*
X171701581Y-87067572D01*
X170050581Y-86517238D01*
X172565181Y-89033048D02*
X172565181Y-88089619D01*
X174216181Y-88561334D02*
X172565181Y-88561334D01*
X172565181Y-87696524D02*
X174216181Y-86595857D01*
X172565181Y-86595857D02*
X174216181Y-87696524D01*
X176730781Y-88246857D02*
X175944590Y-88797191D01*
X176730781Y-89190286D02*
X175079781Y-89190286D01*
X175079781Y-88561333D01*
X175158400Y-88404095D01*
X175237019Y-88325476D01*
X175394257Y-88246857D01*
X175630114Y-88246857D01*
X175787352Y-88325476D01*
X175865971Y-88404095D01*
X175944590Y-88561333D01*
X175944590Y-89190286D01*
X175079781Y-87696524D02*
X176730781Y-86595857D01*
X175079781Y-86595857D02*
X176730781Y-87696524D01*
X179245381Y-89504762D02*
X178459190Y-90055096D01*
X179245381Y-90448191D02*
X177594381Y-90448191D01*
X177594381Y-89819238D01*
X177673000Y-89662000D01*
X177751619Y-89583381D01*
X177908857Y-89504762D01*
X178144714Y-89504762D01*
X178301952Y-89583381D01*
X178380571Y-89662000D01*
X178459190Y-89819238D01*
X178459190Y-90448191D01*
X177594381Y-89033048D02*
X177594381Y-88089619D01*
X179245381Y-88561334D02*
X177594381Y-88561334D01*
X179166762Y-87617905D02*
X179245381Y-87382048D01*
X179245381Y-86988952D01*
X179166762Y-86831714D01*
X179088143Y-86753095D01*
X178930905Y-86674476D01*
X178773667Y-86674476D01*
X178616429Y-86753095D01*
X178537810Y-86831714D01*
X178459190Y-86988952D01*
X178380571Y-87303429D01*
X178301952Y-87460667D01*
X178223333Y-87539286D01*
X178066095Y-87617905D01*
X177908857Y-87617905D01*
X177751619Y-87539286D01*
X177673000Y-87460667D01*
X177594381Y-87303429D01*
X177594381Y-86910333D01*
X177673000Y-86674476D01*
X177309780Y-90841286D02*
X177309780Y-86360000D01*
D13*
X186333000Y-101751000D02*
X186333000Y-101501000D01*
X182983000Y-101751000D02*
X182983000Y-101501000D01*
X182983000Y-98401000D02*
X182983000Y-98651000D01*
X186333000Y-98401000D02*
X186333000Y-98651000D01*
X186333000Y-101751000D02*
X182983000Y-101751000D01*
X186333000Y-98401000D02*
X182983000Y-98401000D01*
X186333000Y-101501000D02*
X187583000Y-101501000D01*
X167005000Y-83058000D02*
X179705000Y-83058000D01*
X179705000Y-83058000D02*
X179705000Y-85598000D01*
X179705000Y-85598000D02*
X167005000Y-85598000D01*
X164185000Y-82778000D02*
X165735000Y-82778000D01*
X167005000Y-83058000D02*
X167005000Y-85598000D01*
X165735000Y-85878000D02*
X164185000Y-85878000D01*
X164185000Y-85878000D02*
X164185000Y-82778000D01*
X169968980Y-80530000D02*
X167268980Y-80530000D01*
X169968980Y-82030000D02*
X167268980Y-82030000D01*
X168468980Y-81130000D02*
X168468980Y-81380000D01*
X168468980Y-81380000D02*
X168618980Y-81230000D01*
X168718980Y-81630000D02*
X168718980Y-80930000D01*
X168368980Y-81280000D02*
X168018980Y-81280000D01*
X168718980Y-81280000D02*
X168368980Y-81630000D01*
X168368980Y-81630000D02*
X168368980Y-80930000D01*
X168368980Y-80930000D02*
X168718980Y-81280000D01*
X178671020Y-80530000D02*
X175971020Y-80530000D01*
X178671020Y-82030000D02*
X175971020Y-82030000D01*
X177171020Y-81130000D02*
X177171020Y-81380000D01*
X177171020Y-81380000D02*
X177321020Y-81230000D01*
X177421020Y-81630000D02*
X177421020Y-80930000D01*
X177071020Y-81280000D02*
X176721020Y-81280000D01*
X177421020Y-81280000D02*
X177071020Y-81630000D01*
X177071020Y-81630000D02*
X177071020Y-80930000D01*
X177071020Y-80930000D02*
X177421020Y-81280000D01*
X174286980Y-80530000D02*
X171586980Y-80530000D01*
X174286980Y-82030000D02*
X171586980Y-82030000D01*
X172786980Y-81130000D02*
X172786980Y-81380000D01*
X172786980Y-81380000D02*
X172936980Y-81230000D01*
X173036980Y-81630000D02*
X173036980Y-80930000D01*
X172686980Y-81280000D02*
X172336980Y-81280000D01*
X173036980Y-81280000D02*
X172686980Y-81630000D01*
X172686980Y-81630000D02*
X172686980Y-80930000D01*
X172686980Y-80930000D02*
X173036980Y-81280000D01*
X189200000Y-81000000D02*
X189200000Y-82550000D01*
X190500000Y-81000000D02*
X189200000Y-81000000D01*
X194691000Y-82423000D02*
X200533000Y-82423000D01*
X200533000Y-82423000D02*
X200533000Y-82677000D01*
X200533000Y-82677000D02*
X194691000Y-82677000D01*
X194691000Y-82677000D02*
X194691000Y-82550000D01*
X194691000Y-82550000D02*
X200533000Y-82550000D01*
X192024000Y-82296000D02*
X191643000Y-82296000D01*
X192024000Y-82804000D02*
X191643000Y-82804000D01*
X192024000Y-84836000D02*
X191643000Y-84836000D01*
X192024000Y-85344000D02*
X191643000Y-85344000D01*
X192024000Y-87376000D02*
X191643000Y-87376000D01*
X192024000Y-87884000D02*
X191643000Y-87884000D01*
X192024000Y-90424000D02*
X191643000Y-90424000D01*
X192024000Y-89916000D02*
X191643000Y-89916000D01*
X192024000Y-81280000D02*
X194564000Y-81280000D01*
X192024000Y-83820000D02*
X194564000Y-83820000D01*
X192024000Y-83820000D02*
X192024000Y-86360000D01*
X192024000Y-86360000D02*
X194564000Y-86360000D01*
X194564000Y-84836000D02*
X200660000Y-84836000D01*
X200660000Y-84836000D02*
X200660000Y-85344000D01*
X200660000Y-85344000D02*
X194564000Y-85344000D01*
X194564000Y-86360000D02*
X194564000Y-83820000D01*
X194564000Y-83820000D02*
X194564000Y-81280000D01*
X200660000Y-82804000D02*
X194564000Y-82804000D01*
X200660000Y-82296000D02*
X200660000Y-82804000D01*
X194564000Y-82296000D02*
X200660000Y-82296000D01*
X192024000Y-83820000D02*
X194564000Y-83820000D01*
X192024000Y-81280000D02*
X192024000Y-83820000D01*
X192024000Y-88900000D02*
X194564000Y-88900000D01*
X192024000Y-88900000D02*
X192024000Y-91440000D01*
X192024000Y-91440000D02*
X194564000Y-91440000D01*
X194564000Y-89916000D02*
X200660000Y-89916000D01*
X200660000Y-89916000D02*
X200660000Y-90424000D01*
X200660000Y-90424000D02*
X194564000Y-90424000D01*
X194564000Y-91440000D02*
X194564000Y-88900000D01*
X194564000Y-88900000D02*
X194564000Y-86360000D01*
X200660000Y-87884000D02*
X194564000Y-87884000D01*
X200660000Y-87376000D02*
X200660000Y-87884000D01*
X194564000Y-87376000D02*
X200660000Y-87376000D01*
X192024000Y-88900000D02*
X194564000Y-88900000D01*
X192024000Y-86360000D02*
X192024000Y-88900000D01*
X192024000Y-86360000D02*
X194564000Y-86360000D01*
X189200000Y-93700000D02*
X189200000Y-95250000D01*
X190500000Y-93700000D02*
X189200000Y-93700000D01*
X194691000Y-95123000D02*
X200533000Y-95123000D01*
X200533000Y-95123000D02*
X200533000Y-95377000D01*
X200533000Y-95377000D02*
X194691000Y-95377000D01*
X194691000Y-95377000D02*
X194691000Y-95250000D01*
X194691000Y-95250000D02*
X200533000Y-95250000D01*
X192024000Y-94996000D02*
X191643000Y-94996000D01*
X192024000Y-95504000D02*
X191643000Y-95504000D01*
X192024000Y-97536000D02*
X191643000Y-97536000D01*
X192024000Y-98044000D02*
X191643000Y-98044000D01*
X192024000Y-100076000D02*
X191643000Y-100076000D01*
X192024000Y-100584000D02*
X191643000Y-100584000D01*
X194564000Y-96520000D02*
X194564000Y-93980000D01*
X200660000Y-95504000D02*
X194564000Y-95504000D01*
X200660000Y-94996000D02*
X200660000Y-95504000D01*
X194564000Y-94996000D02*
X200660000Y-94996000D01*
X192024000Y-96520000D02*
X194564000Y-96520000D01*
X192024000Y-93980000D02*
X192024000Y-96520000D01*
X192024000Y-93980000D02*
X194564000Y-93980000D01*
X192024000Y-99060000D02*
X194564000Y-99060000D01*
X192024000Y-99060000D02*
X192024000Y-101600000D01*
X194564000Y-100076000D02*
X200660000Y-100076000D01*
X200660000Y-100076000D02*
X200660000Y-100584000D01*
X200660000Y-100584000D02*
X194564000Y-100584000D01*
X194564000Y-101600000D02*
X194564000Y-99060000D01*
X194564000Y-99060000D02*
X194564000Y-96520000D01*
X200660000Y-98044000D02*
X194564000Y-98044000D01*
X200660000Y-97536000D02*
X200660000Y-98044000D01*
X194564000Y-97536000D02*
X200660000Y-97536000D01*
X192024000Y-99060000D02*
X194564000Y-99060000D01*
X192024000Y-96520000D02*
X192024000Y-99060000D01*
X192024000Y-96520000D02*
X194564000Y-96520000D01*
X192024000Y-101600000D02*
X194564000Y-101600000D01*
X180181160Y-95123000D02*
X180132900Y-95123000D01*
X177382180Y-95824040D02*
X177382180Y-95123000D01*
X177382180Y-95123000D02*
X177631100Y-95123000D01*
X180181160Y-95123000D02*
X180381820Y-95123000D01*
X180381820Y-95123000D02*
X180381820Y-95824040D01*
X187674160Y-88249760D02*
X187625900Y-88249760D01*
X184875180Y-88950800D02*
X184875180Y-88249760D01*
X184875180Y-88249760D02*
X185124100Y-88249760D01*
X187674160Y-88249760D02*
X187874820Y-88249760D01*
X187874820Y-88249760D02*
X187874820Y-88950800D01*
X187669160Y-95123000D02*
X187620900Y-95123000D01*
X184870180Y-95824040D02*
X184870180Y-95123000D01*
X184870180Y-95123000D02*
X185119100Y-95123000D01*
X187669160Y-95123000D02*
X187869820Y-95123000D01*
X187869820Y-95123000D02*
X187869820Y-95824040D01*
X182583000Y-80991000D02*
X182583000Y-81136000D01*
X186733000Y-80991000D02*
X186733000Y-81136000D01*
X186733000Y-86141000D02*
X186733000Y-85996000D01*
X182583000Y-86141000D02*
X182583000Y-85996000D01*
X182583000Y-80991000D02*
X186733000Y-80991000D01*
X182583000Y-86141000D02*
X186733000Y-86141000D01*
X182583000Y-81136000D02*
X181183000Y-81136000D01*
X168656000Y-99441000D02*
X176276000Y-99441000D01*
X176276000Y-95885000D02*
X168656000Y-95885000D01*
X168656000Y-99441000D02*
X168656000Y-95885000D01*
X176276000Y-95885000D02*
X176276000Y-99441000D01*
X176127210Y-96393000D02*
G75*
G03X176127210Y-96393000I-359210J0D01*
G01*
X176276000Y-98298000D02*
X175514000Y-98298000D01*
X175514000Y-98298000D02*
X175514000Y-97028000D01*
X175514000Y-97028000D02*
X176276000Y-97028000D01*
X155595000Y-87328000D02*
X155595000Y-95328000D01*
X162915000Y-87328000D02*
X162915000Y-95328000D01*
X162915000Y-95328000D02*
X155595000Y-95328000D01*
X156215000Y-95328000D02*
X156215000Y-87328000D01*
X155595000Y-87328000D02*
X162915000Y-87328000D01*
X180115160Y-99425760D02*
X180066900Y-99425760D01*
X177316180Y-100126800D02*
X177316180Y-99425760D01*
X177316180Y-99425760D02*
X177565100Y-99425760D01*
X180115160Y-99425760D02*
X180315820Y-99425760D01*
X180315820Y-99425760D02*
X180315820Y-100126800D01*
X182118095Y-96988381D02*
X182118095Y-97797905D01*
X182165714Y-97893143D01*
X182213333Y-97940762D01*
X182308571Y-97988381D01*
X182499048Y-97988381D01*
X182594286Y-97940762D01*
X182641905Y-97893143D01*
X182689524Y-97797905D01*
X182689524Y-96988381D01*
X183070476Y-96988381D02*
X183689524Y-96988381D01*
X183356190Y-97369333D01*
X183499048Y-97369333D01*
X183594286Y-97416952D01*
X183641905Y-97464571D01*
X183689524Y-97559810D01*
X183689524Y-97797905D01*
X183641905Y-97893143D01*
X183594286Y-97940762D01*
X183499048Y-97988381D01*
X183213333Y-97988381D01*
X183118095Y-97940762D01*
X183070476Y-97893143D01*
X163647381Y-85066095D02*
X162647381Y-85066095D01*
X162647381Y-84685142D01*
X162695000Y-84589904D01*
X162742619Y-84542285D01*
X162837857Y-84494666D01*
X162980714Y-84494666D01*
X163075952Y-84542285D01*
X163123571Y-84589904D01*
X163171190Y-84685142D01*
X163171190Y-85066095D01*
X163647381Y-83542285D02*
X163647381Y-84113714D01*
X163647381Y-83828000D02*
X162647381Y-83828000D01*
X162790238Y-83923238D01*
X162885476Y-84018476D01*
X162933095Y-84113714D01*
X160551905Y-81986381D02*
X160551905Y-80986381D01*
X160790000Y-80986381D01*
X160932858Y-81034000D01*
X161028096Y-81129238D01*
X161075715Y-81224476D01*
X161123334Y-81414952D01*
X161123334Y-81557810D01*
X161075715Y-81748286D01*
X161028096Y-81843524D01*
X160932858Y-81938762D01*
X160790000Y-81986381D01*
X160551905Y-81986381D01*
X162075715Y-81986381D02*
X161504286Y-81986381D01*
X161790000Y-81986381D02*
X161790000Y-80986381D01*
X161694762Y-81129238D01*
X161599524Y-81224476D01*
X161504286Y-81272095D01*
X164615905Y-81986381D02*
X164615905Y-80986381D01*
X164854000Y-80986381D01*
X164996858Y-81034000D01*
X165092096Y-81129238D01*
X165139715Y-81224476D01*
X165187334Y-81414952D01*
X165187334Y-81557810D01*
X165139715Y-81748286D01*
X165092096Y-81843524D01*
X164996858Y-81938762D01*
X164854000Y-81986381D01*
X164615905Y-81986381D01*
X165568286Y-81081619D02*
X165615905Y-81034000D01*
X165711143Y-80986381D01*
X165949239Y-80986381D01*
X166044477Y-81034000D01*
X166092096Y-81081619D01*
X166139715Y-81176857D01*
X166139715Y-81272095D01*
X166092096Y-81414952D01*
X165520667Y-81986381D01*
X166139715Y-81986381D01*
X162583905Y-81986381D02*
X162583905Y-80986381D01*
X162822000Y-80986381D01*
X162964858Y-81034000D01*
X163060096Y-81129238D01*
X163107715Y-81224476D01*
X163155334Y-81414952D01*
X163155334Y-81557810D01*
X163107715Y-81748286D01*
X163060096Y-81843524D01*
X162964858Y-81938762D01*
X162822000Y-81986381D01*
X162583905Y-81986381D01*
X163488667Y-80986381D02*
X164107715Y-80986381D01*
X163774381Y-81367333D01*
X163917239Y-81367333D01*
X164012477Y-81414952D01*
X164060096Y-81462571D01*
X164107715Y-81557810D01*
X164107715Y-81795905D01*
X164060096Y-81891143D01*
X164012477Y-81938762D01*
X163917239Y-81986381D01*
X163631524Y-81986381D01*
X163536286Y-81938762D01*
X163488667Y-81891143D01*
X187626667Y-91019381D02*
X187626667Y-91733667D01*
X187579047Y-91876524D01*
X187483809Y-91971762D01*
X187340952Y-92019381D01*
X187245714Y-92019381D01*
X188626667Y-92019381D02*
X188055238Y-92019381D01*
X188340952Y-92019381D02*
X188340952Y-91019381D01*
X188245714Y-91162238D01*
X188150476Y-91257476D01*
X188055238Y-91305095D01*
X187499667Y-92670381D02*
X187499667Y-93384667D01*
X187452047Y-93527524D01*
X187356809Y-93622762D01*
X187213952Y-93670381D01*
X187118714Y-93670381D01*
X187928238Y-92765619D02*
X187975857Y-92718000D01*
X188071095Y-92670381D01*
X188309191Y-92670381D01*
X188404429Y-92718000D01*
X188452048Y-92765619D01*
X188499667Y-92860857D01*
X188499667Y-92956095D01*
X188452048Y-93098952D01*
X187880619Y-93670381D01*
X188499667Y-93670381D01*
X178720762Y-93892619D02*
X178625524Y-93845000D01*
X178530286Y-93749762D01*
X178387429Y-93606905D01*
X178292190Y-93559286D01*
X178196952Y-93559286D01*
X178244571Y-93797381D02*
X178149333Y-93749762D01*
X178054095Y-93654524D01*
X178006476Y-93464048D01*
X178006476Y-93130714D01*
X178054095Y-92940238D01*
X178149333Y-92845000D01*
X178244571Y-92797381D01*
X178435048Y-92797381D01*
X178530286Y-92845000D01*
X178625524Y-92940238D01*
X178673143Y-93130714D01*
X178673143Y-93464048D01*
X178625524Y-93654524D01*
X178530286Y-93749762D01*
X178435048Y-93797381D01*
X178244571Y-93797381D01*
X179625524Y-93797381D02*
X179054095Y-93797381D01*
X179339809Y-93797381D02*
X179339809Y-92797381D01*
X179244571Y-92940238D01*
X179149333Y-93035476D01*
X179054095Y-93083095D01*
X183419762Y-89193619D02*
X183324524Y-89146000D01*
X183229286Y-89050762D01*
X183086429Y-88907905D01*
X182991190Y-88860286D01*
X182895952Y-88860286D01*
X182943571Y-89098381D02*
X182848333Y-89050762D01*
X182753095Y-88955524D01*
X182705476Y-88765048D01*
X182705476Y-88431714D01*
X182753095Y-88241238D01*
X182848333Y-88146000D01*
X182943571Y-88098381D01*
X183134048Y-88098381D01*
X183229286Y-88146000D01*
X183324524Y-88241238D01*
X183372143Y-88431714D01*
X183372143Y-88765048D01*
X183324524Y-88955524D01*
X183229286Y-89050762D01*
X183134048Y-89098381D01*
X182943571Y-89098381D01*
X183753095Y-88193619D02*
X183800714Y-88146000D01*
X183895952Y-88098381D01*
X184134048Y-88098381D01*
X184229286Y-88146000D01*
X184276905Y-88193619D01*
X184324524Y-88288857D01*
X184324524Y-88384095D01*
X184276905Y-88526952D01*
X183705476Y-89098381D01*
X184324524Y-89098381D01*
X183419762Y-96305619D02*
X183324524Y-96258000D01*
X183229286Y-96162762D01*
X183086429Y-96019905D01*
X182991190Y-95972286D01*
X182895952Y-95972286D01*
X182943571Y-96210381D02*
X182848333Y-96162762D01*
X182753095Y-96067524D01*
X182705476Y-95877048D01*
X182705476Y-95543714D01*
X182753095Y-95353238D01*
X182848333Y-95258000D01*
X182943571Y-95210381D01*
X183134048Y-95210381D01*
X183229286Y-95258000D01*
X183324524Y-95353238D01*
X183372143Y-95543714D01*
X183372143Y-95877048D01*
X183324524Y-96067524D01*
X183229286Y-96162762D01*
X183134048Y-96210381D01*
X182943571Y-96210381D01*
X183705476Y-95210381D02*
X184324524Y-95210381D01*
X183991190Y-95591333D01*
X184134048Y-95591333D01*
X184229286Y-95638952D01*
X184276905Y-95686571D01*
X184324524Y-95781810D01*
X184324524Y-96019905D01*
X184276905Y-96115143D01*
X184229286Y-96162762D01*
X184134048Y-96210381D01*
X183848333Y-96210381D01*
X183753095Y-96162762D01*
X183705476Y-96115143D01*
X181102095Y-86574381D02*
X181102095Y-87383905D01*
X181149714Y-87479143D01*
X181197333Y-87526762D01*
X181292571Y-87574381D01*
X181483048Y-87574381D01*
X181578286Y-87526762D01*
X181625905Y-87479143D01*
X181673524Y-87383905D01*
X181673524Y-86574381D01*
X182673524Y-87574381D02*
X182102095Y-87574381D01*
X182387809Y-87574381D02*
X182387809Y-86574381D01*
X182292571Y-86717238D01*
X182197333Y-86812476D01*
X182102095Y-86860095D01*
X167346381Y-96011905D02*
X168155905Y-96011905D01*
X168251143Y-95964286D01*
X168298762Y-95916667D01*
X168346381Y-95821429D01*
X168346381Y-95630952D01*
X168298762Y-95535714D01*
X168251143Y-95488095D01*
X168155905Y-95440476D01*
X167346381Y-95440476D01*
X167441619Y-95011905D02*
X167394000Y-94964286D01*
X167346381Y-94869048D01*
X167346381Y-94630952D01*
X167394000Y-94535714D01*
X167441619Y-94488095D01*
X167536857Y-94440476D01*
X167632095Y-94440476D01*
X167774952Y-94488095D01*
X168346381Y-95059524D01*
X168346381Y-94440476D01*
X163877667Y-95083381D02*
X163877667Y-95797667D01*
X163830047Y-95940524D01*
X163734809Y-96035762D01*
X163591952Y-96083381D01*
X163496714Y-96083381D01*
X164258619Y-95083381D02*
X164877667Y-95083381D01*
X164544333Y-95464333D01*
X164687191Y-95464333D01*
X164782429Y-95511952D01*
X164830048Y-95559571D01*
X164877667Y-95654810D01*
X164877667Y-95892905D01*
X164830048Y-95988143D01*
X164782429Y-96035762D01*
X164687191Y-96083381D01*
X164401476Y-96083381D01*
X164306238Y-96035762D01*
X164258619Y-95988143D01*
X175926762Y-102528619D02*
X175831524Y-102481000D01*
X175736286Y-102385762D01*
X175593429Y-102242905D01*
X175498190Y-102195286D01*
X175402952Y-102195286D01*
X175450571Y-102433381D02*
X175355333Y-102385762D01*
X175260095Y-102290524D01*
X175212476Y-102100048D01*
X175212476Y-101766714D01*
X175260095Y-101576238D01*
X175355333Y-101481000D01*
X175450571Y-101433381D01*
X175641048Y-101433381D01*
X175736286Y-101481000D01*
X175831524Y-101576238D01*
X175879143Y-101766714D01*
X175879143Y-102100048D01*
X175831524Y-102290524D01*
X175736286Y-102385762D01*
X175641048Y-102433381D01*
X175450571Y-102433381D01*
X176736286Y-101766714D02*
X176736286Y-102433381D01*
X176498190Y-101385762D02*
X176260095Y-102100048D01*
X176879143Y-102100048D01*
M02*
