G04 #@! TF.FileFunction,Copper,L2,Bot,Signal*
%FSLAX46Y46*%
G04 Gerber Fmt 4.6, Leading zero omitted, Abs format (unit mm)*
G04 Created by KiCad (PCBNEW 4.0.1-stable) date 11/13/2016 6:28:18 PM*
%MOMM*%
G01*
G04 APERTURE LIST*
%ADD10C,0.100000*%
%ADD11R,0.500000X0.900000*%
%ADD12R,1.000000X1.250000*%
%ADD13R,0.800000X0.750000*%
%ADD14O,1.100000X1.500000*%
%ADD15O,1.200000X1.700000*%
%ADD16R,1.250000X1.000000*%
%ADD17R,1.550000X0.600000*%
%ADD18R,2.032000X1.727200*%
%ADD19O,2.032000X1.727200*%
%ADD20R,0.900000X0.500000*%
%ADD21R,1.727200X1.727200*%
%ADD22O,1.727200X1.727200*%
%ADD23R,11.000000X3.000000*%
%ADD24O,1.500000X1.100000*%
%ADD25O,1.700000X1.200000*%
%ADD26R,1.000000X3.200000*%
%ADD27R,2.032000X2.032000*%
%ADD28O,2.032000X2.032000*%
%ADD29C,2.650000*%
%ADD30R,1.727200X2.032000*%
%ADD31O,1.727200X2.032000*%
%ADD32R,2.235200X2.235200*%
%ADD33C,0.600000*%
%ADD34C,0.750000*%
%ADD35C,0.250000*%
%ADD36C,1.100000*%
%ADD37C,0.800000*%
%ADD38C,0.457200*%
%ADD39C,0.254000*%
G04 APERTURE END LIST*
D10*
D11*
X137009000Y-113157000D03*
X135509000Y-113157000D03*
D12*
X140827000Y-111125000D03*
X138827000Y-111125000D03*
D13*
X131687000Y-95377000D03*
X130187000Y-95377000D03*
D12*
X140859000Y-104521000D03*
X142859000Y-104521000D03*
X136255000Y-128905000D03*
X134255000Y-128905000D03*
D11*
X136410000Y-131445000D03*
X137910000Y-131445000D03*
D12*
X137430000Y-126365000D03*
X139430000Y-126365000D03*
D14*
X134100000Y-135535000D03*
X138950000Y-135535000D03*
D15*
X133800000Y-138535000D03*
X139250000Y-138535000D03*
D16*
X149860000Y-134890000D03*
X149860000Y-136890000D03*
D11*
X83705000Y-116205000D03*
X85205000Y-116205000D03*
X123087000Y-100457000D03*
X124587000Y-100457000D03*
X124980000Y-102235000D03*
X126480000Y-102235000D03*
D17*
X125410000Y-126365000D03*
X125410000Y-125095000D03*
X125410000Y-123825000D03*
X125410000Y-122555000D03*
X130810000Y-122555000D03*
X130810000Y-123825000D03*
X130810000Y-125095000D03*
X130810000Y-126365000D03*
D18*
X125730000Y-129540000D03*
D19*
X125730000Y-132080000D03*
X125730000Y-134620000D03*
X125730000Y-137160000D03*
D20*
X128905000Y-113550000D03*
X128905000Y-115050000D03*
D21*
X133350000Y-92075000D03*
D22*
X133350000Y-89535000D03*
X135890000Y-92075000D03*
X135890000Y-89535000D03*
X138430000Y-92075000D03*
X138430000Y-89535000D03*
D16*
X127000000Y-98425000D03*
X127000000Y-100425000D03*
D20*
X85979000Y-75033000D03*
X85979000Y-73533000D03*
D23*
X61046000Y-111887000D03*
X54546000Y-111887000D03*
D12*
X74787000Y-85471000D03*
X72787000Y-85471000D03*
X76057000Y-76327000D03*
X74057000Y-76327000D03*
X74295000Y-78740000D03*
X72295000Y-78740000D03*
X58531000Y-72009000D03*
X56531000Y-72009000D03*
X58531000Y-69215000D03*
X56531000Y-69215000D03*
X128921000Y-117221000D03*
X130921000Y-117221000D03*
D16*
X66929000Y-69723000D03*
X66929000Y-67723000D03*
X63881000Y-69691000D03*
X63881000Y-67691000D03*
D18*
X93345000Y-129540000D03*
D19*
X93345000Y-132080000D03*
X93345000Y-134620000D03*
X93345000Y-137160000D03*
D18*
X109220000Y-129540000D03*
D19*
X109220000Y-132080000D03*
X109220000Y-134620000D03*
X109220000Y-137160000D03*
D24*
X50925000Y-73267000D03*
X50925000Y-78117000D03*
D25*
X47925000Y-72967000D03*
X47925000Y-78417000D03*
D11*
X115975000Y-116205000D03*
X117475000Y-116205000D03*
X112891000Y-85217000D03*
X111391000Y-85217000D03*
X86880000Y-116205000D03*
X88380000Y-116205000D03*
X119011000Y-116205000D03*
X120511000Y-116205000D03*
X108077000Y-85217000D03*
X106577000Y-85217000D03*
D20*
X67310000Y-126365000D03*
X67310000Y-124865000D03*
D26*
X76760000Y-101600000D03*
X70560000Y-101600000D03*
D11*
X102870000Y-116840000D03*
X104370000Y-116840000D03*
X124067000Y-86741000D03*
X122567000Y-86741000D03*
X91543000Y-85217000D03*
X90043000Y-85217000D03*
X99580000Y-116840000D03*
X101080000Y-116840000D03*
X127611000Y-87757000D03*
X126111000Y-87757000D03*
X96381000Y-85217000D03*
X94881000Y-85217000D03*
X56630000Y-74422000D03*
X55130000Y-74422000D03*
X56630000Y-76962000D03*
X55130000Y-76962000D03*
D20*
X65151000Y-82677000D03*
X65151000Y-81177000D03*
D11*
X137033000Y-108585000D03*
X135533000Y-108585000D03*
X137160000Y-123825000D03*
X135660000Y-123825000D03*
X135660000Y-121285000D03*
X137160000Y-121285000D03*
D21*
X52070000Y-127254000D03*
D22*
X49530000Y-127254000D03*
X49530000Y-124714000D03*
X52070000Y-122174000D03*
X49530000Y-122174000D03*
D20*
X88265000Y-133997000D03*
X88265000Y-135497000D03*
X60579000Y-83439000D03*
X60579000Y-81939000D03*
X104267000Y-133985000D03*
X104267000Y-135485000D03*
X52705000Y-83542000D03*
X52705000Y-82042000D03*
X121539000Y-133985000D03*
X121539000Y-135485000D03*
D11*
X137033000Y-110629000D03*
X135533000Y-110629000D03*
D20*
X117983000Y-76315000D03*
X117983000Y-74815000D03*
X101727000Y-75807000D03*
X101727000Y-74307000D03*
D11*
X62091000Y-79121000D03*
X60591000Y-79121000D03*
X133477000Y-85471000D03*
X134977000Y-85471000D03*
D18*
X126365000Y-74930000D03*
D19*
X126365000Y-72390000D03*
X126365000Y-69850000D03*
X126365000Y-67310000D03*
D18*
X109855000Y-74930000D03*
D19*
X109855000Y-72390000D03*
X109855000Y-69850000D03*
X109855000Y-67310000D03*
D18*
X93980000Y-74930000D03*
D19*
X93980000Y-72390000D03*
X93980000Y-69850000D03*
X93980000Y-67310000D03*
D23*
X54546000Y-92837000D03*
X61046000Y-92837000D03*
D27*
X63500000Y-127254000D03*
D28*
X63500000Y-124714000D03*
D27*
X57785000Y-127254000D03*
D28*
X57785000Y-124714000D03*
D29*
X48895000Y-137160000D03*
X168910000Y-137160000D03*
X168910000Y-67310000D03*
X48895000Y-67310000D03*
D18*
X146050000Y-137160000D03*
D19*
X146050000Y-134620000D03*
X146050000Y-132080000D03*
D18*
X153670000Y-137160000D03*
D19*
X153670000Y-134620000D03*
X153670000Y-132080000D03*
D18*
X161290000Y-137160000D03*
D19*
X161290000Y-134620000D03*
X161290000Y-132080000D03*
D18*
X146050000Y-67310000D03*
D19*
X146050000Y-69850000D03*
X146050000Y-72390000D03*
D18*
X153670000Y-67310000D03*
D19*
X153670000Y-69850000D03*
X153670000Y-72390000D03*
D18*
X161137600Y-67310000D03*
D19*
X161137600Y-69850000D03*
X161137600Y-72390000D03*
D30*
X151130000Y-126365000D03*
D31*
X153670000Y-126365000D03*
X156210000Y-126365000D03*
X158750000Y-126365000D03*
X161290000Y-126365000D03*
X163830000Y-126365000D03*
X166370000Y-126365000D03*
X168910000Y-126365000D03*
D21*
X146050000Y-121285000D03*
D22*
X146050000Y-118745000D03*
X148590000Y-121285000D03*
X148590000Y-118745000D03*
X151130000Y-121285000D03*
X151130000Y-118745000D03*
X153670000Y-121285000D03*
X153670000Y-118745000D03*
X156210000Y-121285000D03*
X156210000Y-118745000D03*
X158750000Y-121285000D03*
X158750000Y-118745000D03*
X161290000Y-121285000D03*
X161290000Y-118745000D03*
X163830000Y-121285000D03*
X163830000Y-118745000D03*
D21*
X146050000Y-116205000D03*
D22*
X146050000Y-113665000D03*
X148590000Y-116205000D03*
X148590000Y-113665000D03*
X151130000Y-116205000D03*
X151130000Y-113665000D03*
X153670000Y-116205000D03*
X153670000Y-113665000D03*
X156210000Y-116205000D03*
X156210000Y-113665000D03*
X158750000Y-116205000D03*
X158750000Y-113665000D03*
X161290000Y-116205000D03*
X161290000Y-113665000D03*
X163830000Y-116205000D03*
X163830000Y-113665000D03*
D21*
X146050000Y-111125000D03*
D22*
X146050000Y-108585000D03*
X148590000Y-111125000D03*
X148590000Y-108585000D03*
X151130000Y-111125000D03*
X151130000Y-108585000D03*
X153670000Y-111125000D03*
X153670000Y-108585000D03*
X156210000Y-111125000D03*
X156210000Y-108585000D03*
X158750000Y-111125000D03*
X158750000Y-108585000D03*
X161290000Y-111125000D03*
X161290000Y-108585000D03*
X163830000Y-111125000D03*
X163830000Y-108585000D03*
D21*
X146050000Y-106045000D03*
D22*
X146050000Y-103505000D03*
X148590000Y-106045000D03*
X148590000Y-103505000D03*
X151130000Y-106045000D03*
X151130000Y-103505000D03*
X153670000Y-106045000D03*
X153670000Y-103505000D03*
X156210000Y-106045000D03*
X156210000Y-103505000D03*
X158750000Y-106045000D03*
X158750000Y-103505000D03*
X161290000Y-106045000D03*
X161290000Y-103505000D03*
X163830000Y-106045000D03*
X163830000Y-103505000D03*
D18*
X168910000Y-83185000D03*
D19*
X168910000Y-85725000D03*
X168910000Y-88265000D03*
X168910000Y-90805000D03*
X168910000Y-93345000D03*
X168910000Y-95885000D03*
X168910000Y-98425000D03*
X168910000Y-100965000D03*
X168910000Y-103505000D03*
X168910000Y-106045000D03*
X168910000Y-108585000D03*
X168910000Y-111125000D03*
X168910000Y-113665000D03*
X168910000Y-116205000D03*
X168910000Y-118745000D03*
X168910000Y-121285000D03*
D21*
X146050000Y-100965000D03*
D22*
X146050000Y-98425000D03*
X148590000Y-100965000D03*
X148590000Y-98425000D03*
X151130000Y-100965000D03*
X151130000Y-98425000D03*
X153670000Y-100965000D03*
X153670000Y-98425000D03*
X156210000Y-100965000D03*
X156210000Y-98425000D03*
X158750000Y-100965000D03*
X158750000Y-98425000D03*
X161290000Y-100965000D03*
X161290000Y-98425000D03*
X163830000Y-100965000D03*
X163830000Y-98425000D03*
D21*
X146050000Y-95885000D03*
D22*
X146050000Y-93345000D03*
X148590000Y-95885000D03*
X148590000Y-93345000D03*
X151130000Y-95885000D03*
X151130000Y-93345000D03*
X153670000Y-95885000D03*
X153670000Y-93345000D03*
X156210000Y-95885000D03*
X156210000Y-93345000D03*
X158750000Y-95885000D03*
X158750000Y-93345000D03*
X161290000Y-95885000D03*
X161290000Y-93345000D03*
X163830000Y-95885000D03*
X163830000Y-93345000D03*
D21*
X146050000Y-90805000D03*
D22*
X146050000Y-88265000D03*
X148590000Y-90805000D03*
X148590000Y-88265000D03*
X151130000Y-90805000D03*
X151130000Y-88265000D03*
X153670000Y-90805000D03*
X153670000Y-88265000D03*
X156210000Y-90805000D03*
X156210000Y-88265000D03*
X158750000Y-90805000D03*
X158750000Y-88265000D03*
X161290000Y-90805000D03*
X161290000Y-88265000D03*
X163830000Y-90805000D03*
X163830000Y-88265000D03*
D21*
X146050000Y-85725000D03*
D22*
X146050000Y-83185000D03*
X148590000Y-85725000D03*
X148590000Y-83185000D03*
X151130000Y-85725000D03*
X151130000Y-83185000D03*
X153670000Y-85725000D03*
X153670000Y-83185000D03*
X156210000Y-85725000D03*
X156210000Y-83185000D03*
X158750000Y-85725000D03*
X158750000Y-83185000D03*
X161290000Y-85725000D03*
X161290000Y-83185000D03*
X163830000Y-85725000D03*
X163830000Y-83185000D03*
D30*
X151130000Y-78105000D03*
D31*
X153670000Y-78105000D03*
X156210000Y-78105000D03*
X158750000Y-78105000D03*
X161290000Y-78105000D03*
X163830000Y-78105000D03*
X166370000Y-78105000D03*
X168910000Y-78105000D03*
D29*
X52070000Y-102870000D03*
X64770000Y-102870000D03*
D32*
X146050000Y-126365000D03*
X146050000Y-78105000D03*
D16*
X149860000Y-69580000D03*
X149860000Y-67580000D03*
D27*
X140589000Y-116205000D03*
D28*
X140589000Y-113665000D03*
D33*
X88900000Y-114300000D03*
X88138000Y-114554000D03*
X139827000Y-118491000D03*
X131445000Y-100711000D03*
X135820686Y-103759000D03*
X129921000Y-101981000D03*
X139827000Y-120268996D03*
D34*
X132207000Y-127635000D03*
X131953000Y-130429000D03*
X128905000Y-130683000D03*
D33*
X131445000Y-121285000D03*
D34*
X133731000Y-98171000D03*
D33*
X137939383Y-105473081D03*
X138049000Y-110109000D03*
X69723004Y-80645000D03*
X67945000Y-78867000D03*
X72009000Y-80898996D03*
X128905000Y-98425000D03*
X137795000Y-133350000D03*
X134620000Y-133350000D03*
X83820004Y-118110000D03*
D34*
X114300000Y-118110000D03*
D33*
X62738000Y-68834000D03*
X74041000Y-77597000D03*
X70358000Y-84836000D03*
X54102000Y-72644000D03*
X127762000Y-88646000D03*
X113030000Y-84328000D03*
X96520000Y-84328000D03*
X99568000Y-119888000D03*
D34*
X107950000Y-90170000D03*
X108712000Y-89662000D03*
X123063000Y-107060998D03*
X95885000Y-104140000D03*
X95885000Y-100330000D03*
D33*
X129031996Y-93726000D03*
X80010000Y-95377000D03*
X80137000Y-109347000D03*
D34*
X103505000Y-97790000D03*
D33*
X79375000Y-109220000D03*
X79375000Y-95377000D03*
X72644000Y-83566000D03*
D34*
X121285000Y-97155000D03*
X119380000Y-97155000D03*
X121285000Y-107315000D03*
X92710000Y-107314996D03*
X90805000Y-107314996D03*
X87630000Y-97155000D03*
X89535000Y-97154996D03*
X107950004Y-107315000D03*
X106680000Y-107315000D03*
X105410000Y-97790000D03*
D33*
X138811000Y-115951004D03*
X136325508Y-112703016D03*
X134366000Y-117348000D03*
X135001000Y-104267004D03*
X133477000Y-100456996D03*
X135508996Y-102527011D03*
X138811000Y-120269000D03*
D34*
X132460998Y-80645000D03*
D33*
X76708000Y-75184000D03*
X63245998Y-77978000D03*
X67564000Y-70358000D03*
X66040000Y-72898000D03*
X73406000Y-82804000D03*
X73025000Y-81915000D03*
D34*
X104140000Y-114807996D03*
X104902000Y-114300000D03*
X92202000Y-89661990D03*
X91440000Y-90170000D03*
D33*
X57912000Y-73152000D03*
X60706000Y-72644000D03*
X60706000Y-75438000D03*
X59436000Y-75184000D03*
X130937000Y-116459000D03*
X138811000Y-105537000D03*
X139827000Y-109854998D03*
X136727156Y-122486253D03*
X135890000Y-122555000D03*
X129540000Y-97790000D03*
X86359996Y-135382000D03*
X59436000Y-82042000D03*
X65278000Y-79756000D03*
X65278000Y-77724000D03*
X102108000Y-135636000D03*
X51562000Y-82042000D03*
X49276000Y-80772000D03*
X54864000Y-78232000D03*
X119380000Y-135636000D03*
X135001000Y-113919000D03*
X118110000Y-73406000D03*
X132715000Y-112648998D03*
X101600000Y-73152000D03*
X85852000Y-72390000D03*
X59944000Y-79248000D03*
X136017000Y-86995000D03*
X126539814Y-107955840D03*
X110490001Y-114300001D03*
X125981778Y-108909152D03*
X118872000Y-90678000D03*
X112903000Y-92036987D03*
X102616000Y-90678000D03*
X112649002Y-93091000D03*
X86106000Y-90678000D03*
X134493000Y-99187000D03*
X136017000Y-100710998D03*
X133731002Y-96392998D03*
X130311607Y-96183609D03*
X75057000Y-82423000D03*
X123571000Y-96138996D03*
X125222000Y-99568000D03*
X131699000Y-103251000D03*
X129921000Y-107315000D03*
X129921000Y-109855004D03*
X133731000Y-110109000D03*
X135509010Y-115443000D03*
X132969000Y-105283000D03*
X129159000Y-120015004D03*
X130819980Y-107315000D03*
X124841000Y-106553000D03*
X94234000Y-114046000D03*
X97536000Y-114300002D03*
X96266000Y-73405990D03*
X97536000Y-89408000D03*
X79756000Y-70104000D03*
X97282000Y-133858002D03*
X97282000Y-135382002D03*
X98298000Y-114808000D03*
X98298000Y-89916004D03*
X97282000Y-72389994D03*
X79756000Y-68834000D03*
X66294000Y-85852000D03*
X54102000Y-74422004D03*
X54102000Y-75691998D03*
X135724987Y-132715000D03*
X136525000Y-133350000D03*
X86995000Y-114300000D03*
X118872000Y-114046000D03*
X109982000Y-90678000D03*
X102758331Y-114225554D03*
X126238000Y-90678000D03*
X93726000Y-90424000D03*
X63500000Y-79502000D03*
X138430000Y-121285000D03*
X66294000Y-71374000D03*
X68189010Y-71374000D03*
X67310000Y-122682000D03*
X68072000Y-126492000D03*
X133543779Y-104013000D03*
X142113000Y-96393000D03*
X140589000Y-95377000D03*
X140335000Y-99187000D03*
X141351000Y-95885004D03*
X140080998Y-96901000D03*
X127888998Y-109855000D03*
X127889000Y-107315000D03*
X128905000Y-109855000D03*
X128905000Y-107315000D03*
X140842998Y-123571000D03*
X120142000Y-114300000D03*
X120904000Y-114299990D03*
D34*
X133985000Y-73025000D03*
X124968000Y-89662002D03*
X124206004Y-90170000D03*
X137795000Y-70485000D03*
X133985000Y-70485000D03*
D35*
X140716000Y-85344000D02*
X140843000Y-85471000D01*
X88380000Y-116205000D02*
X88380000Y-114820000D01*
X88380000Y-114820000D02*
X88900000Y-114300000D01*
D36*
X88900000Y-129751000D02*
X88900000Y-114724264D01*
X91229000Y-132080000D02*
X88900000Y-129751000D01*
D35*
X88600001Y-114000001D02*
X88900000Y-114300000D01*
D36*
X93345000Y-132080000D02*
X91229000Y-132080000D01*
X88646000Y-114554000D02*
X88900000Y-114300000D01*
X88138000Y-114554000D02*
X88646000Y-114554000D01*
D35*
X88265000Y-113665000D02*
X88600001Y-114000001D01*
X88265000Y-113664996D02*
X88265000Y-113665000D01*
D36*
X88900000Y-114724264D02*
X88900000Y-114300000D01*
D35*
X88265000Y-116090000D02*
X88380000Y-116205000D01*
X142875000Y-117475000D02*
X142859000Y-117459000D01*
X142859000Y-117459000D02*
X142859000Y-104521000D01*
X141859000Y-118491000D02*
X142875000Y-117475000D01*
X139827000Y-118491000D02*
X141859000Y-118491000D01*
X142859000Y-104521000D02*
X142859000Y-103489000D01*
X142859000Y-103489000D02*
X141859000Y-102489000D01*
X141859000Y-102489000D02*
X140081000Y-102489000D01*
X140081000Y-102489000D02*
X137939383Y-104630617D01*
X137939383Y-104630617D02*
X137939383Y-105473081D01*
X139430000Y-126365000D02*
X139827000Y-125968000D01*
X139827000Y-125968000D02*
X139827000Y-120523000D01*
X139827000Y-120523000D02*
X139827000Y-120268996D01*
D37*
X161290000Y-67310000D02*
X153670000Y-67310000D01*
X153670000Y-137160000D02*
X161290000Y-137160000D01*
X131953000Y-130429000D02*
X131953000Y-127889000D01*
X131953000Y-127889000D02*
X132207000Y-127635000D01*
X125730000Y-129540000D02*
X127762000Y-129540000D01*
X127762000Y-129540000D02*
X128905000Y-130683000D01*
D35*
X131445000Y-121285000D02*
X130937000Y-121793000D01*
X130937000Y-121793000D02*
X130937000Y-122428000D01*
X130937000Y-122428000D02*
X130810000Y-122555000D01*
X138430000Y-89535000D02*
X142859000Y-93964000D01*
X142859000Y-93964000D02*
X142859000Y-104521000D01*
X138827000Y-111000000D02*
X138049000Y-110222000D01*
X138049000Y-110222000D02*
X138049000Y-110109000D01*
X138827000Y-111125000D02*
X138827000Y-111000000D01*
X69723000Y-80645000D02*
X69723004Y-80645000D01*
X67945000Y-78867000D02*
X69723000Y-80645000D01*
X72295000Y-78740000D02*
X72295000Y-80612996D01*
X72295000Y-80612996D02*
X72009000Y-80898996D01*
X126480000Y-102235000D02*
X126480000Y-100945000D01*
X126480000Y-100945000D02*
X127000000Y-100425000D01*
X127000000Y-100330000D02*
X128905000Y-98425000D01*
X139430000Y-126365000D02*
X139430000Y-131715000D01*
X139430000Y-131715000D02*
X137795000Y-133350000D01*
X134255000Y-128905000D02*
X134255000Y-132985000D01*
X134255000Y-132985000D02*
X134620000Y-133350000D01*
D37*
X153670000Y-67310000D02*
X150130000Y-67310000D01*
X150130000Y-67310000D02*
X149860000Y-67580000D01*
X146050000Y-67310000D02*
X149590000Y-67310000D01*
X149590000Y-67310000D02*
X149860000Y-67580000D01*
X153670000Y-137160000D02*
X150130000Y-137160000D01*
X150130000Y-137160000D02*
X149860000Y-136890000D01*
X146050000Y-137160000D02*
X149590000Y-137160000D01*
X149590000Y-137160000D02*
X149860000Y-136890000D01*
D35*
X83820004Y-118110000D02*
X83820004Y-116320004D01*
X83820004Y-116320004D02*
X83705000Y-116205000D01*
X83820000Y-118110004D02*
X83820004Y-118110000D01*
X99568000Y-119888000D02*
X99568000Y-116852000D01*
X99568000Y-116852000D02*
X99580000Y-116840000D01*
X115975000Y-116205000D02*
X115975000Y-116405000D01*
X115975000Y-116405000D02*
X114300000Y-118080000D01*
X114300000Y-118080000D02*
X114300000Y-118110000D01*
X62738000Y-68834000D02*
X63881000Y-67691000D01*
X74041000Y-77597000D02*
X74041000Y-76343000D01*
X74041000Y-76343000D02*
X74057000Y-76327000D01*
X72787000Y-85471000D02*
X70993000Y-85471000D01*
X70993000Y-85471000D02*
X70358000Y-84836000D01*
X66929000Y-67723000D02*
X63913000Y-67723000D01*
X63913000Y-67723000D02*
X63881000Y-67691000D01*
X56531000Y-72009000D02*
X54737000Y-72009000D01*
X54737000Y-72009000D02*
X54102000Y-72644000D01*
X56531000Y-69215000D02*
X56531000Y-70090000D01*
X56531000Y-70090000D02*
X56531000Y-72009000D01*
X127611000Y-87757000D02*
X127611000Y-88495000D01*
X127611000Y-88495000D02*
X127762000Y-88646000D01*
X112891000Y-85217000D02*
X112891000Y-84467000D01*
X112891000Y-84467000D02*
X113030000Y-84328000D01*
X96381000Y-85217000D02*
X96381000Y-84467000D01*
X96381000Y-84467000D02*
X96520000Y-84328000D01*
X99683000Y-120003000D02*
X99568000Y-119888000D01*
D37*
X106426000Y-87630000D02*
X106426000Y-87884000D01*
X106426000Y-87884000D02*
X107950000Y-89408000D01*
X107950000Y-89408000D02*
X107950000Y-90170000D01*
X106680000Y-87630000D02*
X108337001Y-89287001D01*
X108337001Y-89287001D02*
X108712000Y-89662000D01*
X106426000Y-87630000D02*
X106680000Y-87630000D01*
X106426000Y-87122000D02*
X106426000Y-87630000D01*
D35*
X106577000Y-85217000D02*
X106577000Y-85917000D01*
X106577000Y-85917000D02*
X106426000Y-86068000D01*
X106426000Y-86068000D02*
X106426000Y-86868000D01*
D36*
X109855000Y-72390000D02*
X107739000Y-72390000D01*
X107739000Y-72390000D02*
X106426000Y-73703000D01*
X106426000Y-73703000D02*
X106426000Y-87122000D01*
X122808998Y-107315000D02*
X123063000Y-107060998D01*
X121285000Y-107315000D02*
X122808998Y-107315000D01*
X95885000Y-104140000D02*
X98679000Y-101346000D01*
X98679000Y-101346000D02*
X100076000Y-101346000D01*
D37*
X122442864Y-100412872D02*
X122442864Y-100315132D01*
X122442864Y-100315132D02*
X128731997Y-94025999D01*
X128731997Y-94025999D02*
X129031996Y-93726000D01*
D36*
X123190000Y-99060000D02*
X121659999Y-97529999D01*
X121659999Y-97529999D02*
X121285000Y-97155000D01*
D37*
X79375000Y-95377000D02*
X79375000Y-100285000D01*
X79375000Y-100285000D02*
X78060000Y-101600000D01*
X78060000Y-101600000D02*
X76760000Y-101600000D01*
X80010000Y-95377000D02*
X80010000Y-99650000D01*
X80010000Y-99650000D02*
X78060000Y-101600000D01*
X79375000Y-109220000D02*
X79375000Y-102915000D01*
X79375000Y-102915000D02*
X78060000Y-101600000D01*
X80137000Y-107315000D02*
X79375000Y-108077000D01*
X79375000Y-108077000D02*
X79375000Y-109220000D01*
X80137000Y-109347000D02*
X80137000Y-107315000D01*
D36*
X103505000Y-97790000D02*
X103505000Y-97917000D01*
X103505000Y-97917000D02*
X100076000Y-101346000D01*
X103505000Y-104140000D02*
X106305001Y-106940001D01*
X103505000Y-97790000D02*
X103505000Y-104140000D01*
X106305001Y-106940001D02*
X106680000Y-107315000D01*
D38*
X74787000Y-85471000D02*
X74787000Y-90789000D01*
X74787000Y-90789000D02*
X79375000Y-95377000D01*
X79375000Y-95377000D02*
X79075001Y-95676999D01*
X79075001Y-95676999D02*
X79075001Y-98184999D01*
X79075001Y-98184999D02*
X76760000Y-100500000D01*
X76760000Y-100500000D02*
X76760000Y-101600000D01*
D35*
X75089000Y-85471000D02*
X75089000Y-85346000D01*
X75089000Y-85346000D02*
X73309000Y-83566000D01*
X73309000Y-83566000D02*
X72644000Y-83566000D01*
D36*
X119380000Y-97685330D02*
X119380000Y-97155000D01*
X119640001Y-105670001D02*
X119380000Y-105410000D01*
X119380000Y-105410000D02*
X119380000Y-97685330D01*
X119640001Y-105670001D02*
X121285000Y-107315000D01*
X122024670Y-107315000D02*
X121285000Y-107315000D01*
X90430001Y-106939997D02*
X90805000Y-107314996D01*
X85090004Y-101600000D02*
X90430001Y-106939997D01*
X87255001Y-97529999D02*
X87630000Y-97155000D01*
X83185000Y-101600000D02*
X87255001Y-97529999D01*
X107575005Y-106940001D02*
X107950004Y-107315000D01*
X105784999Y-99434999D02*
X105784999Y-105149995D01*
X105784999Y-105149995D02*
X107575005Y-106940001D01*
X105410000Y-99060000D02*
X105410000Y-97790000D01*
X112020001Y-105670001D02*
X105784999Y-99434999D01*
X119640001Y-105670001D02*
X112020001Y-105670001D01*
X105784999Y-99434999D02*
X105410000Y-99060000D01*
D35*
X137414004Y-117348000D02*
X138511001Y-116251003D01*
X134366000Y-117348000D02*
X137414004Y-117348000D01*
X138511001Y-116251003D02*
X138811000Y-115951004D01*
X137009000Y-113157000D02*
X136779492Y-113157000D01*
X136779492Y-113157000D02*
X136325508Y-112703016D01*
X137009000Y-113157000D02*
X137009000Y-112457000D01*
X137009000Y-112457000D02*
X137033000Y-112433000D01*
X137033000Y-112433000D02*
X137033000Y-111379000D01*
X136271000Y-119253000D02*
X134665999Y-117647999D01*
X137033000Y-119253000D02*
X136271000Y-119253000D01*
X134665999Y-117647999D02*
X134366000Y-117348000D01*
X135001004Y-104267004D02*
X135001000Y-104267004D01*
D38*
X135508996Y-102527011D02*
X135001000Y-103035007D01*
X135255000Y-102781007D02*
X135001000Y-103035007D01*
D35*
X137033000Y-106299000D02*
X135300999Y-104566999D01*
X135255000Y-104691264D02*
X135300999Y-104645265D01*
X135300999Y-104645265D02*
X135300999Y-104566999D01*
D38*
X135001000Y-103035007D02*
X135001000Y-104267004D01*
D35*
X135300999Y-104566999D02*
X135001004Y-104267004D01*
X137033000Y-111379000D02*
X137033000Y-106299000D01*
X130810000Y-126365000D02*
X131699000Y-126365000D01*
X131699000Y-126365000D02*
X134493000Y-123571000D01*
X134493000Y-123571000D02*
X134493000Y-122301000D01*
X134493000Y-122301000D02*
X135509000Y-121285000D01*
X135509000Y-121285000D02*
X135660000Y-121285000D01*
D38*
X131907001Y-90977999D02*
X131907001Y-95885000D01*
X131907001Y-95885000D02*
X131907001Y-98886997D01*
D35*
X131687000Y-95377000D02*
X131687000Y-95664999D01*
X131687000Y-95664999D02*
X131907001Y-95885000D01*
X137033000Y-108585000D02*
X137033000Y-110629000D01*
X137033000Y-110629000D02*
X137033000Y-111379000D01*
D38*
X133177001Y-100156997D02*
X133477000Y-100456996D01*
X131907001Y-98886997D02*
X133177001Y-100156997D01*
X133350000Y-89535000D02*
X131907001Y-90977999D01*
D35*
X137592699Y-119812699D02*
X138208159Y-119812699D01*
X135660000Y-121285000D02*
X135660000Y-121085000D01*
X137033000Y-119253000D02*
X137592699Y-119812699D01*
X136932301Y-119812699D02*
X138208159Y-119812699D01*
X135660000Y-121085000D02*
X136932301Y-119812699D01*
X138430000Y-120027073D02*
X138488072Y-119969001D01*
X138208159Y-119812699D02*
X138354699Y-119812699D01*
X138511001Y-119969001D02*
X138811000Y-120269000D01*
X138354699Y-119812699D02*
X138511001Y-119969001D01*
X138488072Y-119969001D02*
X138511001Y-119969001D01*
D38*
X132460998Y-80114670D02*
X132460998Y-80645000D01*
X132460998Y-68198998D02*
X132460998Y-80114670D01*
X129921000Y-65659000D02*
X132460998Y-68198998D01*
X76581000Y-65659000D02*
X129921000Y-65659000D01*
X71882000Y-70358000D02*
X76581000Y-65659000D01*
X67564000Y-70358000D02*
X71882000Y-70358000D01*
X71882000Y-70358000D02*
X76708000Y-75184000D01*
D35*
X73669998Y-82540002D02*
X73669998Y-82122998D01*
X76057000Y-77202000D02*
X76057000Y-76327000D01*
X73669998Y-82122998D02*
X76057000Y-79735996D01*
X76057000Y-79735996D02*
X76057000Y-77202000D01*
X73406000Y-82804000D02*
X73669998Y-82540002D01*
X76708000Y-75184000D02*
X76708000Y-75676000D01*
X76708000Y-75676000D02*
X76057000Y-76327000D01*
X63034000Y-77978000D02*
X63245998Y-77978000D01*
X62091000Y-78921000D02*
X63034000Y-77978000D01*
X62091000Y-79121000D02*
X62091000Y-78921000D01*
X66040000Y-75183998D02*
X63545997Y-77678001D01*
X66040000Y-72898000D02*
X66040000Y-75183998D01*
X63545997Y-77678001D02*
X63245998Y-77978000D01*
X67564000Y-70358000D02*
X66929000Y-69723000D01*
X63881000Y-69691000D02*
X66897000Y-69691000D01*
X66897000Y-69691000D02*
X66929000Y-69723000D01*
X62865000Y-82677000D02*
X62091000Y-81903000D01*
X62091000Y-81903000D02*
X62091000Y-79121000D01*
X65151000Y-82677000D02*
X62865000Y-82677000D01*
X62865000Y-82677000D02*
X62738000Y-82804000D01*
X52705000Y-83542000D02*
X60476000Y-83542000D01*
X60476000Y-83542000D02*
X60579000Y-83439000D01*
X62738000Y-82804000D02*
X62103000Y-83439000D01*
X62103000Y-83439000D02*
X60579000Y-83439000D01*
X73406000Y-82804000D02*
X62738000Y-82804000D01*
X73324999Y-81615001D02*
X73025000Y-81915000D01*
X74295000Y-80645000D02*
X73324999Y-81615001D01*
X74295000Y-78740000D02*
X74295000Y-80645000D01*
X104140000Y-114807996D02*
X104140000Y-116610000D01*
X104140000Y-116610000D02*
X104370000Y-116840000D01*
D36*
X104140000Y-115062000D02*
X104140000Y-114807996D01*
X104260999Y-115182999D02*
X104140000Y-115062000D01*
D37*
X104394004Y-114807996D02*
X104140000Y-114807996D01*
X104902000Y-114300000D02*
X104394004Y-114807996D01*
D35*
X104763000Y-115685000D02*
X104260999Y-115182999D01*
D36*
X109220000Y-132080000D02*
X107104000Y-132080000D01*
X104394000Y-115316000D02*
X104260999Y-115182999D01*
X104394000Y-129370000D02*
X104394000Y-115316000D01*
D35*
X104763000Y-116459000D02*
X104763000Y-115685000D01*
D36*
X107104000Y-132080000D02*
X104394000Y-129370000D01*
D37*
X89916000Y-87630000D02*
X89916000Y-87884000D01*
X89916000Y-87884000D02*
X91440000Y-89408000D01*
X91440000Y-89408000D02*
X91440000Y-90170000D01*
X91827001Y-89286991D02*
X92202000Y-89661990D01*
X90170010Y-87630000D02*
X91827001Y-89286991D01*
X89916000Y-87630000D02*
X90170010Y-87630000D01*
X89916000Y-85344000D02*
X89916000Y-87630000D01*
D35*
X90043000Y-85217000D02*
X90043000Y-87249000D01*
X90043000Y-87249000D02*
X89916000Y-87376000D01*
D36*
X93980000Y-72390000D02*
X91864000Y-72390000D01*
X91864000Y-72390000D02*
X89916000Y-74338000D01*
X89916000Y-74338000D02*
X89916000Y-87376000D01*
D35*
X57912000Y-73152000D02*
X57912000Y-72628000D01*
X57912000Y-72628000D02*
X58531000Y-72009000D01*
X60706000Y-75438000D02*
X60706000Y-72644000D01*
X58531000Y-72009000D02*
X58531000Y-72321000D01*
X58531000Y-72321000D02*
X56630000Y-74222000D01*
X56630000Y-74222000D02*
X56630000Y-74422000D01*
X58531000Y-69215000D02*
X59281000Y-69215000D01*
X59281000Y-69215000D02*
X59436000Y-69370000D01*
X59436000Y-69370000D02*
X59436000Y-74759736D01*
X59436000Y-74759736D02*
X59436000Y-75184000D01*
X59136001Y-75483999D02*
X59436000Y-75184000D01*
X57658000Y-76962000D02*
X59136001Y-75483999D01*
X56630000Y-76962000D02*
X57658000Y-76962000D01*
X128937000Y-117475000D02*
X128937000Y-115082000D01*
X128937000Y-115082000D02*
X128905000Y-115050000D01*
X130937000Y-117475000D02*
X130937000Y-116459000D01*
X139110999Y-105237001D02*
X138811000Y-105537000D01*
X140859000Y-104521000D02*
X139827000Y-104521000D01*
X139827000Y-104521000D02*
X139110999Y-105237001D01*
X139827000Y-110000000D02*
X139827000Y-109854998D01*
X140827000Y-111000000D02*
X139827000Y-110000000D01*
X140827000Y-111125000D02*
X140827000Y-111000000D01*
X137160000Y-123825000D02*
X137160000Y-126095000D01*
X137160000Y-126095000D02*
X137430000Y-126365000D01*
X137160000Y-123825000D02*
X137160000Y-122919097D01*
X137160000Y-122919097D02*
X136727156Y-122486253D01*
X136255000Y-128905000D02*
X136255000Y-128030000D01*
X136255000Y-128030000D02*
X136340010Y-127944990D01*
X136340010Y-127944990D02*
X136340010Y-123005010D01*
X136340010Y-123005010D02*
X136189999Y-122854999D01*
X136189999Y-122854999D02*
X135890000Y-122555000D01*
X136410000Y-131445000D02*
X136410000Y-129060000D01*
X136410000Y-129060000D02*
X136255000Y-128905000D01*
X129540000Y-97790000D02*
X127635000Y-97790000D01*
X127635000Y-97790000D02*
X127000000Y-98425000D01*
X88392000Y-135382000D02*
X86359996Y-135382000D01*
X60579000Y-81939000D02*
X59539000Y-81939000D01*
X59539000Y-81939000D02*
X59436000Y-82042000D01*
X65278000Y-77724000D02*
X65278000Y-79756000D01*
X102108000Y-135636000D02*
X104116000Y-135636000D01*
X104116000Y-135636000D02*
X104267000Y-135485000D01*
X52705000Y-82042000D02*
X51562000Y-82042000D01*
X54864000Y-78232000D02*
X52324000Y-80772000D01*
X52324000Y-80772000D02*
X49276000Y-80772000D01*
X119380000Y-135636000D02*
X121388000Y-135636000D01*
X121388000Y-135636000D02*
X121539000Y-135485000D01*
X135509000Y-113157000D02*
X135509000Y-113411000D01*
X135509000Y-113411000D02*
X135001000Y-113919000D01*
X118110000Y-73406000D02*
X118110000Y-74688000D01*
X118110000Y-74688000D02*
X117983000Y-74815000D01*
X133014999Y-112348999D02*
X132715000Y-112648998D01*
X134734998Y-110629000D02*
X133014999Y-112348999D01*
X135533000Y-110629000D02*
X134734998Y-110629000D01*
X101727000Y-74307000D02*
X101727000Y-73279000D01*
X101727000Y-73279000D02*
X101600000Y-73152000D01*
X85979000Y-73533000D02*
X85979000Y-72517000D01*
X85979000Y-72517000D02*
X85852000Y-72390000D01*
X59944000Y-79248000D02*
X60464000Y-79248000D01*
X60464000Y-79248000D02*
X60591000Y-79121000D01*
X134977000Y-85471000D02*
X134977000Y-86463000D01*
X134977000Y-86463000D02*
X135509000Y-86995000D01*
X135509000Y-86995000D02*
X136017000Y-86995000D01*
X125553896Y-107955840D02*
X126115550Y-107955840D01*
X126115550Y-107955840D02*
X126539814Y-107955840D01*
X122384736Y-111125000D02*
X125553896Y-107955840D01*
X113665002Y-111125000D02*
X122384736Y-111125000D01*
X110490001Y-114300001D02*
X113665002Y-111125000D01*
X104267000Y-133985000D02*
X104967000Y-133985000D01*
X104967000Y-133985000D02*
X105602000Y-133350000D01*
X105602000Y-133350000D02*
X110998000Y-133350000D01*
X110998000Y-133350000D02*
X111760000Y-132588000D01*
X111760000Y-115570000D02*
X110790000Y-114600000D01*
X111760000Y-132588000D02*
X111760000Y-115570000D01*
X110790000Y-114600000D02*
X110490001Y-114300001D01*
X125681779Y-109209151D02*
X125981778Y-108909152D01*
X122495930Y-112395000D02*
X125681779Y-109209151D01*
X118110000Y-112395000D02*
X122495930Y-112395000D01*
X116840000Y-113665000D02*
X118110000Y-112395000D01*
X116840000Y-128786000D02*
X116840000Y-113665000D01*
X121539000Y-133985000D02*
X121539000Y-133485000D01*
X121539000Y-133485000D02*
X116840000Y-128786000D01*
X118110000Y-76942000D02*
X118110000Y-89916000D01*
X118110000Y-89916000D02*
X118872000Y-90678000D01*
X117983000Y-76315000D02*
X117983000Y-76815000D01*
X117983000Y-76815000D02*
X118110000Y-76942000D01*
X102616000Y-90678000D02*
X103974987Y-92036987D01*
X112478736Y-92036987D02*
X112903000Y-92036987D01*
X103974987Y-92036987D02*
X112478736Y-92036987D01*
X102108000Y-76688000D02*
X102108000Y-90170000D01*
X102108000Y-90170000D02*
X102616000Y-90678000D01*
X101727000Y-75807000D02*
X101727000Y-76307000D01*
X101727000Y-76307000D02*
X102108000Y-76688000D01*
X86106000Y-90678000D02*
X88519000Y-93091000D01*
X112224738Y-93091000D02*
X112649002Y-93091000D01*
X88519000Y-93091000D02*
X112224738Y-93091000D01*
X85852000Y-75184000D02*
X86106000Y-75438000D01*
X86106000Y-75438000D02*
X86106000Y-90678000D01*
X134493000Y-99187000D02*
X134538601Y-99141399D01*
X134538601Y-99141399D02*
X134538601Y-87548601D01*
X134538601Y-87548601D02*
X133477000Y-86487000D01*
X133477000Y-86487000D02*
X133477000Y-85471000D01*
X129921000Y-120339000D02*
X129921000Y-116320982D01*
X130867991Y-111956009D02*
X131953000Y-110871000D01*
X130867991Y-115373991D02*
X130867991Y-111956009D01*
X125410000Y-123825000D02*
X126435000Y-123825000D01*
X126435000Y-123825000D02*
X129921000Y-120339000D01*
X129921000Y-116320982D02*
X130867991Y-115373991D01*
X131953000Y-110871000D02*
X131953000Y-104013000D01*
X131953000Y-104013000D02*
X135255002Y-100710998D01*
X135255002Y-100710998D02*
X136017000Y-100710998D01*
X125410000Y-123825000D02*
X126111000Y-123825000D01*
X125410000Y-125095000D02*
X125410000Y-123825000D01*
X133350000Y-96011996D02*
X133431003Y-96092999D01*
X133350000Y-92075000D02*
X133350000Y-96011996D01*
X133431003Y-96092999D02*
X133731002Y-96392998D01*
X130187000Y-95377000D02*
X130187000Y-96059002D01*
X130187000Y-96059002D02*
X130311607Y-96183609D01*
X130311607Y-96183609D02*
X130231609Y-96183609D01*
X123571000Y-96138996D02*
X121539004Y-94107000D01*
X121539004Y-94107000D02*
X86741000Y-94107000D01*
X86741000Y-94107000D02*
X75356999Y-82722999D01*
X75356999Y-82722999D02*
X75057000Y-82423000D01*
X124587000Y-100457000D02*
X124587000Y-101842000D01*
X124587000Y-101842000D02*
X124980000Y-102235000D01*
X125222000Y-99568000D02*
X124587000Y-100203000D01*
X124587000Y-100203000D02*
X124587000Y-100457000D01*
X131998999Y-102951001D02*
X131699000Y-103251000D01*
X138430000Y-96520000D02*
X131998999Y-102951001D01*
X138430000Y-92075000D02*
X138430000Y-96520000D01*
X129921000Y-109855000D02*
X129921000Y-107315000D01*
X128905000Y-110871004D02*
X129621001Y-110155003D01*
X129621001Y-110155003D02*
X129921000Y-109855004D01*
X128905000Y-113550000D02*
X128905000Y-110871004D01*
X135533000Y-108585000D02*
X135533000Y-108785000D01*
X135533000Y-108785000D02*
X134209000Y-110109000D01*
X134209000Y-110109000D02*
X133731000Y-110109000D01*
X125410000Y-126365000D02*
X125885000Y-126365000D01*
X125885000Y-126365000D02*
X127635000Y-124615000D01*
X127635000Y-124615000D02*
X127635000Y-123571000D01*
X131953000Y-116713000D02*
X133223000Y-115443000D01*
X127635000Y-123571000D02*
X131953000Y-119253000D01*
X131953000Y-119253000D02*
X131953000Y-116713000D01*
X133223000Y-115443000D02*
X133731000Y-114935000D01*
X133731000Y-114935000D02*
X135001010Y-114935000D01*
X135001010Y-114935000D02*
X135509010Y-115443000D01*
X133223000Y-115443000D02*
X131699000Y-113919000D01*
X131699000Y-113919000D02*
X131699000Y-112395000D01*
X131699000Y-112395000D02*
X132969000Y-111125000D01*
X132969000Y-111125000D02*
X132969000Y-105707264D01*
X132969000Y-105707264D02*
X132969000Y-105283000D01*
X132923001Y-105237001D02*
X132969000Y-105283000D01*
X125410000Y-126365000D02*
X124935000Y-126365000D01*
X125410000Y-122555000D02*
X126619004Y-122555000D01*
X126619004Y-122555000D02*
X128859001Y-120315003D01*
X128859001Y-120315003D02*
X129159000Y-120015004D01*
X128859001Y-119715005D02*
X129159000Y-120015004D01*
X130819980Y-107315000D02*
X130819980Y-110480020D01*
X130819980Y-110480020D02*
X129960485Y-111339515D01*
X129960485Y-111339515D02*
X129960485Y-113779517D01*
X129960485Y-113779517D02*
X129567002Y-114173000D01*
X129567002Y-114173000D02*
X128496998Y-114173000D01*
X128496998Y-114173000D02*
X127889000Y-114780998D01*
X127889000Y-114780998D02*
X127889000Y-118745004D01*
X127889000Y-118745004D02*
X128859001Y-119715005D01*
X124541001Y-106852999D02*
X124841000Y-106553000D01*
X121539000Y-109855000D02*
X124541001Y-106852999D01*
X98425000Y-109855000D02*
X121539000Y-109855000D01*
X94234000Y-114046000D02*
X98425000Y-109855000D01*
X88392000Y-134112000D02*
X91367000Y-134112000D01*
X91367000Y-134112000D02*
X92129000Y-133350000D01*
X92129000Y-133350000D02*
X94234000Y-133350000D01*
X94234000Y-133350000D02*
X95504000Y-132080000D01*
X95504000Y-132080000D02*
X95504000Y-115316000D01*
X95504000Y-115316000D02*
X94533999Y-114345999D01*
X94533999Y-114345999D02*
X94234000Y-114046000D01*
X125730000Y-134620000D02*
X126996000Y-134620000D01*
X126996000Y-134620000D02*
X129921000Y-131695000D01*
X129921000Y-131695000D02*
X129921000Y-129921000D01*
X129921000Y-129921000D02*
X128651000Y-128651000D01*
X128651000Y-128651000D02*
X128651000Y-125509000D01*
X128651000Y-125509000D02*
X130335000Y-123825000D01*
X130335000Y-123825000D02*
X130810000Y-123825000D01*
X95885000Y-134620000D02*
X96012000Y-134620000D01*
X96012000Y-134620000D02*
X96520000Y-134112000D01*
X96520000Y-134112000D02*
X96520000Y-133858000D01*
X97536000Y-114300002D02*
X96520000Y-115316002D01*
X96520000Y-115316002D02*
X96520000Y-134112000D01*
X96520000Y-134112000D02*
X97028000Y-134620000D01*
X97028000Y-134620000D02*
X97409000Y-134620000D01*
X96565999Y-73705989D02*
X96266000Y-73405990D01*
X97536000Y-74675990D02*
X96565999Y-73705989D01*
X97536000Y-89408000D02*
X97536000Y-74675990D01*
X96266000Y-72389998D02*
X96266000Y-73405990D01*
X95885000Y-134620000D02*
X97409000Y-134620000D01*
X93345000Y-134620000D02*
X95885000Y-134620000D01*
X97409000Y-134620000D02*
X109220000Y-134620000D01*
X126365000Y-69850000D02*
X126517400Y-69850000D01*
X93980000Y-69850000D02*
X80010000Y-69850000D01*
X80010000Y-69850000D02*
X79756000Y-70104000D01*
X126365000Y-69850000D02*
X109855000Y-69850000D01*
X93980000Y-69850000D02*
X109855000Y-69850000D01*
X109220000Y-134620000D02*
X125730000Y-134620000D01*
X125730000Y-137160000D02*
X125882400Y-137160000D01*
X125882400Y-137160000D02*
X130429000Y-132613400D01*
X130429000Y-132613400D02*
X130429000Y-129667000D01*
X130429000Y-129667000D02*
X129413000Y-128651000D01*
X129413000Y-128651000D02*
X129413000Y-126017000D01*
X129413000Y-126017000D02*
X130335000Y-125095000D01*
X130335000Y-125095000D02*
X130810000Y-125095000D01*
X97282000Y-133433738D02*
X97282000Y-133858002D01*
X97282000Y-115824000D02*
X97282000Y-133433738D01*
X98298000Y-114808000D02*
X97282000Y-115824000D01*
X97282000Y-136652000D02*
X97282000Y-135382002D01*
X97282000Y-136652000D02*
X96774000Y-137160000D01*
X96774000Y-137160000D02*
X96520000Y-137160000D01*
X96520000Y-137160000D02*
X96901000Y-137160000D01*
X97790000Y-137160000D02*
X97282000Y-136652000D01*
X93345000Y-137160000D02*
X96901000Y-137160000D01*
X96901000Y-137160000D02*
X97409000Y-137160000D01*
X98298000Y-89491740D02*
X98298000Y-89916004D01*
X98298000Y-73405994D02*
X98298000Y-89491740D01*
X97282000Y-72389994D02*
X98298000Y-73405994D01*
X97409000Y-137160000D02*
X109220000Y-137160000D01*
X126517400Y-67310000D02*
X126365000Y-67310000D01*
X79756000Y-68834000D02*
X81280000Y-67310000D01*
X81280000Y-67310000D02*
X93980000Y-67310000D01*
X109855000Y-67310000D02*
X126365000Y-67310000D01*
X93980000Y-67310000D02*
X109855000Y-67310000D01*
X109220000Y-137160000D02*
X125730000Y-137160000D01*
X49530000Y-124714000D02*
X48260000Y-123444000D01*
X48260000Y-123444000D02*
X48260000Y-95123000D01*
X48260000Y-95123000D02*
X50546000Y-92837000D01*
X65046000Y-92837000D02*
X65046000Y-97386000D01*
X65046000Y-97386000D02*
X66294000Y-98634000D01*
D37*
X66294000Y-98634000D02*
X66294000Y-85852000D01*
X70560000Y-101600000D02*
X69260000Y-101600000D01*
X69260000Y-101600000D02*
X66294000Y-98634000D01*
D35*
X54102004Y-74422000D02*
X54102000Y-74422004D01*
X54610000Y-74422000D02*
X54102004Y-74422000D01*
X55130000Y-74422000D02*
X54610000Y-74422000D01*
X54102000Y-75734000D02*
X54102000Y-75691998D01*
X55130000Y-76762000D02*
X54102000Y-75734000D01*
X55130000Y-76962000D02*
X55130000Y-76762000D01*
X135660000Y-123825000D02*
X135890000Y-123825000D01*
X135890000Y-123825000D02*
X135255000Y-124460000D01*
X135255000Y-124460000D02*
X135255000Y-132080000D01*
X135255000Y-132080000D02*
X135890000Y-132715000D01*
X135890000Y-132715000D02*
X135724987Y-132715000D01*
X136525000Y-133350000D02*
X137910000Y-131965000D01*
X137910000Y-131965000D02*
X137910000Y-131445000D01*
X85205000Y-116205000D02*
X86880000Y-116205000D01*
X86995000Y-114300000D02*
X86995000Y-116090000D01*
X86995000Y-116090000D02*
X86880000Y-116205000D01*
X119011000Y-116205000D02*
X117475000Y-116205000D01*
X118872000Y-114046000D02*
X118872000Y-116066000D01*
X111391000Y-85217000D02*
X111391000Y-89269000D01*
X111391000Y-89269000D02*
X109982000Y-90678000D01*
X108077000Y-85217000D02*
X111391000Y-85217000D01*
X102870000Y-116840000D02*
X102870000Y-114337223D01*
X102870000Y-114337223D02*
X102758331Y-114225554D01*
X101080000Y-116840000D02*
X102870000Y-116840000D01*
X126111000Y-87757000D02*
X126111000Y-90551000D01*
X126111000Y-90551000D02*
X126238000Y-90678000D01*
X124067000Y-86741000D02*
X125295000Y-86741000D01*
X125295000Y-86741000D02*
X126111000Y-87557000D01*
X126111000Y-87557000D02*
X126111000Y-87757000D01*
X93726000Y-90424000D02*
X94881000Y-89269000D01*
X94881000Y-89269000D02*
X94881000Y-85217000D01*
X91543000Y-85217000D02*
X94881000Y-85217000D01*
X63500000Y-79726000D02*
X63500000Y-79502000D01*
X65151000Y-81177000D02*
X64951000Y-81177000D01*
X64951000Y-81177000D02*
X63500000Y-79726000D01*
X137160000Y-121285000D02*
X138430000Y-121285000D01*
X68189010Y-71374000D02*
X66294000Y-71374000D01*
X67310000Y-124865000D02*
X67310000Y-122682000D01*
X54233000Y-124968000D02*
X51816000Y-124968000D01*
X51816000Y-124968000D02*
X49530000Y-127254000D01*
X57785000Y-127254000D02*
X56519000Y-127254000D01*
X56519000Y-127254000D02*
X54233000Y-124968000D01*
X63500000Y-127254000D02*
X62234000Y-127254000D01*
X62234000Y-127254000D02*
X57785000Y-127254000D01*
X63500000Y-124714000D02*
X65278000Y-126492000D01*
X65278000Y-126492000D02*
X68072000Y-126492000D01*
X63500000Y-124714000D02*
X57785000Y-124714000D01*
X67310000Y-126365000D02*
X67110000Y-126365000D01*
X63935000Y-124714000D02*
X63500000Y-124714000D01*
X68072000Y-126492000D02*
X67437000Y-126492000D01*
X67437000Y-126492000D02*
X67310000Y-126365000D01*
X133543779Y-103588736D02*
X133543779Y-104013000D01*
X139328999Y-101463001D02*
X135669514Y-101463001D01*
X135669514Y-101463001D02*
X133543779Y-103588736D01*
X142113000Y-98679000D02*
X139328999Y-101463001D01*
X142113000Y-96393000D02*
X142113000Y-98679000D01*
X139319000Y-98171000D02*
X139319000Y-96737996D01*
X139319000Y-96737996D02*
X140589000Y-95467996D01*
X140589000Y-95467996D02*
X140589000Y-95377000D01*
X140335000Y-99187000D02*
X139319000Y-98171000D01*
X140335004Y-96901000D02*
X140080998Y-96901000D01*
X141351000Y-95885004D02*
X140335004Y-96901000D01*
X127889000Y-107315000D02*
X127889000Y-109854998D01*
X127889000Y-109854998D02*
X127888998Y-109855000D01*
X128905000Y-107315000D02*
X128905000Y-109855000D01*
D37*
X141142997Y-123870999D02*
X140842998Y-123571000D01*
X146050000Y-126365000D02*
X143636998Y-126365000D01*
X143636998Y-126365000D02*
X141142997Y-123870999D01*
D36*
X120904000Y-114299990D02*
X120142010Y-114299990D01*
D35*
X120441999Y-114599999D02*
X120142000Y-114300000D01*
X120511000Y-114669000D02*
X120441999Y-114599999D01*
X120511000Y-116205000D02*
X120511000Y-114669000D01*
D36*
X123614000Y-132080000D02*
X120396000Y-128862000D01*
X125730000Y-132080000D02*
X123614000Y-132080000D01*
X120142000Y-114724264D02*
X120142000Y-114300000D01*
X120142010Y-114299990D02*
X120142000Y-114300000D01*
X120396000Y-114978264D02*
X120142000Y-114724264D01*
X120396000Y-128862000D02*
X120396000Y-114978264D01*
D38*
X122567000Y-86741000D02*
X122567000Y-87261002D01*
X122567000Y-87261002D02*
X124968000Y-89662002D01*
D37*
X133985000Y-73025000D02*
X140970000Y-73025000D01*
X140970000Y-73025000D02*
X146050000Y-78105000D01*
X122428000Y-87376000D02*
X122428000Y-87630000D01*
X122428000Y-87630000D02*
X123952000Y-89154000D01*
X123952000Y-89154000D02*
X124206000Y-89154000D01*
X124206000Y-89154000D02*
X124206000Y-90169996D01*
X124206000Y-90169996D02*
X124206004Y-90170000D01*
X124593001Y-89287003D02*
X124968000Y-89662002D01*
X122681998Y-87376000D02*
X124593001Y-89287003D01*
X122428000Y-87376000D02*
X122681998Y-87376000D01*
D36*
X126365000Y-72390000D02*
X124249000Y-72390000D01*
X124249000Y-72390000D02*
X122428000Y-74211000D01*
X122428000Y-74211000D02*
X122428000Y-87376000D01*
D37*
X153670000Y-69850000D02*
X161290000Y-69850000D01*
X153670000Y-69850000D02*
X150130000Y-69850000D01*
X150130000Y-69850000D02*
X149860000Y-69580000D01*
X146050000Y-69850000D02*
X149590000Y-69850000D01*
X149590000Y-69850000D02*
X149860000Y-69580000D01*
X133985000Y-70485000D02*
X137795000Y-70485000D01*
X153670000Y-134620000D02*
X161290000Y-134620000D01*
X153670000Y-134620000D02*
X150130000Y-134620000D01*
X150130000Y-134620000D02*
X149860000Y-134890000D01*
X146050000Y-134620000D02*
X149590000Y-134620000D01*
X149590000Y-134620000D02*
X149860000Y-134890000D01*
D39*
G36*
X72263000Y-105283000D02*
X68632606Y-105283000D01*
X67437000Y-104087394D01*
X67437000Y-102235000D01*
X67426994Y-102185590D01*
X67399803Y-102145197D01*
X64224803Y-98970197D01*
X64182789Y-98942334D01*
X64135000Y-98933000D01*
X47117000Y-98933000D01*
X47117000Y-87757000D01*
X72263000Y-87757000D01*
X72263000Y-105283000D01*
X72263000Y-105283000D01*
G37*
X72263000Y-105283000D02*
X68632606Y-105283000D01*
X67437000Y-104087394D01*
X67437000Y-102235000D01*
X67426994Y-102185590D01*
X67399803Y-102145197D01*
X64224803Y-98970197D01*
X64182789Y-98942334D01*
X64135000Y-98933000D01*
X47117000Y-98933000D01*
X47117000Y-87757000D01*
X72263000Y-87757000D01*
X72263000Y-105283000D01*
G36*
X75970343Y-65048342D02*
X71524286Y-69494400D01*
X68201440Y-69494400D01*
X68201440Y-69223000D01*
X68157162Y-68987683D01*
X68018090Y-68771559D01*
X67805890Y-68626569D01*
X67554000Y-68575560D01*
X66304000Y-68575560D01*
X66068683Y-68619838D01*
X65852559Y-68758910D01*
X65734975Y-68931000D01*
X65093279Y-68931000D01*
X64970090Y-68739559D01*
X64757890Y-68594569D01*
X64506000Y-68543560D01*
X63256000Y-68543560D01*
X63020683Y-68587838D01*
X62804559Y-68726910D01*
X62659569Y-68939110D01*
X62608560Y-69191000D01*
X62608560Y-70191000D01*
X62652838Y-70426317D01*
X62791910Y-70642441D01*
X63004110Y-70787431D01*
X63256000Y-70838440D01*
X64506000Y-70838440D01*
X64741317Y-70794162D01*
X64957441Y-70655090D01*
X65096890Y-70451000D01*
X65699461Y-70451000D01*
X65700838Y-70458317D01*
X65776630Y-70576101D01*
X65765057Y-70580883D01*
X65501808Y-70843673D01*
X65359162Y-71187201D01*
X65358838Y-71559167D01*
X65500883Y-71902943D01*
X65646574Y-72048889D01*
X65511057Y-72104883D01*
X65247808Y-72367673D01*
X65105162Y-72711201D01*
X65104838Y-73083167D01*
X65246883Y-73426943D01*
X65280000Y-73460118D01*
X65280000Y-74869196D01*
X63106318Y-77042878D01*
X63060831Y-77042838D01*
X62717055Y-77184883D01*
X62453806Y-77447673D01*
X62428442Y-77508756D01*
X61913638Y-78023560D01*
X61841000Y-78023560D01*
X61605683Y-78067838D01*
X61389559Y-78206910D01*
X61341866Y-78276711D01*
X61305090Y-78219559D01*
X61092890Y-78074569D01*
X60841000Y-78023560D01*
X60341000Y-78023560D01*
X60105683Y-78067838D01*
X59889559Y-78206910D01*
X59817147Y-78312889D01*
X59758833Y-78312838D01*
X59415057Y-78454883D01*
X59151808Y-78717673D01*
X59009162Y-79061201D01*
X59008838Y-79433167D01*
X59150883Y-79776943D01*
X59413673Y-80040192D01*
X59757201Y-80182838D01*
X60129167Y-80183162D01*
X60141542Y-80178049D01*
X60341000Y-80218440D01*
X60841000Y-80218440D01*
X61076317Y-80174162D01*
X61292441Y-80035090D01*
X61331000Y-79978657D01*
X61331000Y-81126808D01*
X61280890Y-81092569D01*
X61029000Y-81041560D01*
X60129000Y-81041560D01*
X59893683Y-81085838D01*
X59767299Y-81167164D01*
X59622799Y-81107162D01*
X59250833Y-81106838D01*
X58907057Y-81248883D01*
X58643808Y-81511673D01*
X58501162Y-81855201D01*
X58500838Y-82227167D01*
X58642883Y-82570943D01*
X58853572Y-82782000D01*
X53566176Y-82782000D01*
X53606441Y-82756090D01*
X53751431Y-82543890D01*
X53802440Y-82292000D01*
X53802440Y-81792000D01*
X53758162Y-81556683D01*
X53619090Y-81340559D01*
X53406890Y-81195569D01*
X53155000Y-81144560D01*
X53026242Y-81144560D01*
X55003680Y-79167122D01*
X55049167Y-79167162D01*
X55392943Y-79025117D01*
X55656192Y-78762327D01*
X55798838Y-78418799D01*
X55799162Y-78046833D01*
X55750210Y-77928361D01*
X55831441Y-77876090D01*
X55879134Y-77806289D01*
X55915910Y-77863441D01*
X56128110Y-78008431D01*
X56380000Y-78059440D01*
X56880000Y-78059440D01*
X57115317Y-78015162D01*
X57331441Y-77876090D01*
X57436726Y-77722000D01*
X57658000Y-77722000D01*
X57948839Y-77664148D01*
X58195401Y-77499401D01*
X59575680Y-76119122D01*
X59621167Y-76119162D01*
X59935276Y-75989375D01*
X60175673Y-76230192D01*
X60519201Y-76372838D01*
X60891167Y-76373162D01*
X61234943Y-76231117D01*
X61498192Y-75968327D01*
X61640838Y-75624799D01*
X61641162Y-75252833D01*
X61499117Y-74909057D01*
X61466000Y-74875882D01*
X61466000Y-73206463D01*
X61498192Y-73174327D01*
X61640838Y-72830799D01*
X61641162Y-72458833D01*
X61499117Y-72115057D01*
X61236327Y-71851808D01*
X60892799Y-71709162D01*
X60520833Y-71708838D01*
X60196000Y-71843056D01*
X60196000Y-69370000D01*
X60138148Y-69079161D01*
X59973401Y-68832599D01*
X59818401Y-68677599D01*
X59677166Y-68583229D01*
X59634162Y-68354683D01*
X59495090Y-68138559D01*
X59282890Y-67993569D01*
X59031000Y-67942560D01*
X58031000Y-67942560D01*
X57795683Y-67986838D01*
X57579559Y-68125910D01*
X57434569Y-68338110D01*
X57383560Y-68590000D01*
X57383560Y-69840000D01*
X57427838Y-70075317D01*
X57566910Y-70291441D01*
X57779110Y-70436431D01*
X58031000Y-70487440D01*
X58676000Y-70487440D01*
X58676000Y-70736560D01*
X58031000Y-70736560D01*
X57795683Y-70780838D01*
X57579559Y-70919910D01*
X57434569Y-71132110D01*
X57383560Y-71384000D01*
X57383560Y-72081638D01*
X57374599Y-72090599D01*
X57209852Y-72337161D01*
X57161546Y-72580007D01*
X57119808Y-72621673D01*
X57094445Y-72682753D01*
X56452638Y-73324560D01*
X56380000Y-73324560D01*
X56144683Y-73368838D01*
X55928559Y-73507910D01*
X55880866Y-73577711D01*
X55844090Y-73520559D01*
X55631890Y-73375569D01*
X55380000Y-73324560D01*
X54880000Y-73324560D01*
X54644683Y-73368838D01*
X54428559Y-73507910D01*
X54408711Y-73536958D01*
X54288799Y-73487166D01*
X53916833Y-73486842D01*
X53573057Y-73628887D01*
X53309808Y-73891677D01*
X53167162Y-74235205D01*
X53166838Y-74607171D01*
X53308883Y-74950947D01*
X53414707Y-75056955D01*
X53309808Y-75161671D01*
X53167162Y-75505199D01*
X53166838Y-75877165D01*
X53308883Y-76220941D01*
X53571673Y-76484190D01*
X53915201Y-76626836D01*
X53920038Y-76626840D01*
X54232560Y-76939362D01*
X54232560Y-77412000D01*
X54253027Y-77520770D01*
X54071808Y-77701673D01*
X53929162Y-78045201D01*
X53929121Y-78092077D01*
X52009198Y-80012000D01*
X49838463Y-80012000D01*
X49806327Y-79979808D01*
X49462799Y-79837162D01*
X49090833Y-79836838D01*
X48747057Y-79978883D01*
X48483808Y-80241673D01*
X48341162Y-80585201D01*
X48340838Y-80957167D01*
X48482883Y-81300943D01*
X48745673Y-81564192D01*
X49089201Y-81706838D01*
X49461167Y-81707162D01*
X49804943Y-81565117D01*
X49838118Y-81532000D01*
X50761367Y-81532000D01*
X50627162Y-81855201D01*
X50626838Y-82227167D01*
X50768883Y-82570943D01*
X51031673Y-82834192D01*
X51375201Y-82976838D01*
X51701607Y-82977122D01*
X51658569Y-83040110D01*
X51607560Y-83292000D01*
X51607560Y-83693000D01*
X47117000Y-83693000D01*
X47117000Y-73712606D01*
X55932606Y-64897000D01*
X76196843Y-64897000D01*
X75970343Y-65048342D01*
X75970343Y-65048342D01*
G37*
X75970343Y-65048342D02*
X71524286Y-69494400D01*
X68201440Y-69494400D01*
X68201440Y-69223000D01*
X68157162Y-68987683D01*
X68018090Y-68771559D01*
X67805890Y-68626569D01*
X67554000Y-68575560D01*
X66304000Y-68575560D01*
X66068683Y-68619838D01*
X65852559Y-68758910D01*
X65734975Y-68931000D01*
X65093279Y-68931000D01*
X64970090Y-68739559D01*
X64757890Y-68594569D01*
X64506000Y-68543560D01*
X63256000Y-68543560D01*
X63020683Y-68587838D01*
X62804559Y-68726910D01*
X62659569Y-68939110D01*
X62608560Y-69191000D01*
X62608560Y-70191000D01*
X62652838Y-70426317D01*
X62791910Y-70642441D01*
X63004110Y-70787431D01*
X63256000Y-70838440D01*
X64506000Y-70838440D01*
X64741317Y-70794162D01*
X64957441Y-70655090D01*
X65096890Y-70451000D01*
X65699461Y-70451000D01*
X65700838Y-70458317D01*
X65776630Y-70576101D01*
X65765057Y-70580883D01*
X65501808Y-70843673D01*
X65359162Y-71187201D01*
X65358838Y-71559167D01*
X65500883Y-71902943D01*
X65646574Y-72048889D01*
X65511057Y-72104883D01*
X65247808Y-72367673D01*
X65105162Y-72711201D01*
X65104838Y-73083167D01*
X65246883Y-73426943D01*
X65280000Y-73460118D01*
X65280000Y-74869196D01*
X63106318Y-77042878D01*
X63060831Y-77042838D01*
X62717055Y-77184883D01*
X62453806Y-77447673D01*
X62428442Y-77508756D01*
X61913638Y-78023560D01*
X61841000Y-78023560D01*
X61605683Y-78067838D01*
X61389559Y-78206910D01*
X61341866Y-78276711D01*
X61305090Y-78219559D01*
X61092890Y-78074569D01*
X60841000Y-78023560D01*
X60341000Y-78023560D01*
X60105683Y-78067838D01*
X59889559Y-78206910D01*
X59817147Y-78312889D01*
X59758833Y-78312838D01*
X59415057Y-78454883D01*
X59151808Y-78717673D01*
X59009162Y-79061201D01*
X59008838Y-79433167D01*
X59150883Y-79776943D01*
X59413673Y-80040192D01*
X59757201Y-80182838D01*
X60129167Y-80183162D01*
X60141542Y-80178049D01*
X60341000Y-80218440D01*
X60841000Y-80218440D01*
X61076317Y-80174162D01*
X61292441Y-80035090D01*
X61331000Y-79978657D01*
X61331000Y-81126808D01*
X61280890Y-81092569D01*
X61029000Y-81041560D01*
X60129000Y-81041560D01*
X59893683Y-81085838D01*
X59767299Y-81167164D01*
X59622799Y-81107162D01*
X59250833Y-81106838D01*
X58907057Y-81248883D01*
X58643808Y-81511673D01*
X58501162Y-81855201D01*
X58500838Y-82227167D01*
X58642883Y-82570943D01*
X58853572Y-82782000D01*
X53566176Y-82782000D01*
X53606441Y-82756090D01*
X53751431Y-82543890D01*
X53802440Y-82292000D01*
X53802440Y-81792000D01*
X53758162Y-81556683D01*
X53619090Y-81340559D01*
X53406890Y-81195569D01*
X53155000Y-81144560D01*
X53026242Y-81144560D01*
X55003680Y-79167122D01*
X55049167Y-79167162D01*
X55392943Y-79025117D01*
X55656192Y-78762327D01*
X55798838Y-78418799D01*
X55799162Y-78046833D01*
X55750210Y-77928361D01*
X55831441Y-77876090D01*
X55879134Y-77806289D01*
X55915910Y-77863441D01*
X56128110Y-78008431D01*
X56380000Y-78059440D01*
X56880000Y-78059440D01*
X57115317Y-78015162D01*
X57331441Y-77876090D01*
X57436726Y-77722000D01*
X57658000Y-77722000D01*
X57948839Y-77664148D01*
X58195401Y-77499401D01*
X59575680Y-76119122D01*
X59621167Y-76119162D01*
X59935276Y-75989375D01*
X60175673Y-76230192D01*
X60519201Y-76372838D01*
X60891167Y-76373162D01*
X61234943Y-76231117D01*
X61498192Y-75968327D01*
X61640838Y-75624799D01*
X61641162Y-75252833D01*
X61499117Y-74909057D01*
X61466000Y-74875882D01*
X61466000Y-73206463D01*
X61498192Y-73174327D01*
X61640838Y-72830799D01*
X61641162Y-72458833D01*
X61499117Y-72115057D01*
X61236327Y-71851808D01*
X60892799Y-71709162D01*
X60520833Y-71708838D01*
X60196000Y-71843056D01*
X60196000Y-69370000D01*
X60138148Y-69079161D01*
X59973401Y-68832599D01*
X59818401Y-68677599D01*
X59677166Y-68583229D01*
X59634162Y-68354683D01*
X59495090Y-68138559D01*
X59282890Y-67993569D01*
X59031000Y-67942560D01*
X58031000Y-67942560D01*
X57795683Y-67986838D01*
X57579559Y-68125910D01*
X57434569Y-68338110D01*
X57383560Y-68590000D01*
X57383560Y-69840000D01*
X57427838Y-70075317D01*
X57566910Y-70291441D01*
X57779110Y-70436431D01*
X58031000Y-70487440D01*
X58676000Y-70487440D01*
X58676000Y-70736560D01*
X58031000Y-70736560D01*
X57795683Y-70780838D01*
X57579559Y-70919910D01*
X57434569Y-71132110D01*
X57383560Y-71384000D01*
X57383560Y-72081638D01*
X57374599Y-72090599D01*
X57209852Y-72337161D01*
X57161546Y-72580007D01*
X57119808Y-72621673D01*
X57094445Y-72682753D01*
X56452638Y-73324560D01*
X56380000Y-73324560D01*
X56144683Y-73368838D01*
X55928559Y-73507910D01*
X55880866Y-73577711D01*
X55844090Y-73520559D01*
X55631890Y-73375569D01*
X55380000Y-73324560D01*
X54880000Y-73324560D01*
X54644683Y-73368838D01*
X54428559Y-73507910D01*
X54408711Y-73536958D01*
X54288799Y-73487166D01*
X53916833Y-73486842D01*
X53573057Y-73628887D01*
X53309808Y-73891677D01*
X53167162Y-74235205D01*
X53166838Y-74607171D01*
X53308883Y-74950947D01*
X53414707Y-75056955D01*
X53309808Y-75161671D01*
X53167162Y-75505199D01*
X53166838Y-75877165D01*
X53308883Y-76220941D01*
X53571673Y-76484190D01*
X53915201Y-76626836D01*
X53920038Y-76626840D01*
X54232560Y-76939362D01*
X54232560Y-77412000D01*
X54253027Y-77520770D01*
X54071808Y-77701673D01*
X53929162Y-78045201D01*
X53929121Y-78092077D01*
X52009198Y-80012000D01*
X49838463Y-80012000D01*
X49806327Y-79979808D01*
X49462799Y-79837162D01*
X49090833Y-79836838D01*
X48747057Y-79978883D01*
X48483808Y-80241673D01*
X48341162Y-80585201D01*
X48340838Y-80957167D01*
X48482883Y-81300943D01*
X48745673Y-81564192D01*
X49089201Y-81706838D01*
X49461167Y-81707162D01*
X49804943Y-81565117D01*
X49838118Y-81532000D01*
X50761367Y-81532000D01*
X50627162Y-81855201D01*
X50626838Y-82227167D01*
X50768883Y-82570943D01*
X51031673Y-82834192D01*
X51375201Y-82976838D01*
X51701607Y-82977122D01*
X51658569Y-83040110D01*
X51607560Y-83292000D01*
X51607560Y-83693000D01*
X47117000Y-83693000D01*
X47117000Y-73712606D01*
X55932606Y-64897000D01*
X76196843Y-64897000D01*
X75970343Y-65048342D01*
G36*
X75388879Y-75086194D02*
X75321683Y-75098838D01*
X75105559Y-75237910D01*
X74960569Y-75450110D01*
X74909560Y-75702000D01*
X74909560Y-76952000D01*
X74953838Y-77187317D01*
X75054017Y-77343000D01*
X73660000Y-77343000D01*
X73610590Y-77353006D01*
X73568965Y-77381447D01*
X73541685Y-77423841D01*
X73533000Y-77470000D01*
X73533000Y-77529008D01*
X73343559Y-77650910D01*
X73198569Y-77863110D01*
X73147560Y-78115000D01*
X73147560Y-79365000D01*
X73191838Y-79600317D01*
X73330910Y-79816441D01*
X73533000Y-79954523D01*
X73533000Y-80332198D01*
X72885320Y-80979878D01*
X72839833Y-80979838D01*
X72496057Y-81121883D01*
X72232808Y-81384673D01*
X72090162Y-81728201D01*
X72089887Y-82044000D01*
X66109131Y-82044000D01*
X66065090Y-81975559D01*
X65995289Y-81927866D01*
X66052441Y-81891090D01*
X66197431Y-81678890D01*
X66248440Y-81427000D01*
X66248440Y-80927000D01*
X66204162Y-80691683D01*
X66065090Y-80475559D01*
X65955583Y-80400736D01*
X66070192Y-80286327D01*
X66212838Y-79942799D01*
X66213162Y-79570833D01*
X66071117Y-79227057D01*
X66038000Y-79193882D01*
X66038000Y-78286463D01*
X66070192Y-78254327D01*
X66212838Y-77910799D01*
X66213162Y-77538833D01*
X66071117Y-77195057D01*
X65808327Y-76931808D01*
X65496482Y-76802318D01*
X66577401Y-75721399D01*
X66742148Y-75474837D01*
X66800000Y-75183998D01*
X66800000Y-73460463D01*
X66832192Y-73428327D01*
X66974838Y-73084799D01*
X66975162Y-72712833D01*
X66833117Y-72369057D01*
X66687426Y-72223111D01*
X66822943Y-72167117D01*
X66856118Y-72134000D01*
X67626547Y-72134000D01*
X67658683Y-72166192D01*
X68002211Y-72308838D01*
X68374177Y-72309162D01*
X68717953Y-72167117D01*
X68981202Y-71904327D01*
X69123848Y-71560799D01*
X69124143Y-71221600D01*
X71524286Y-71221600D01*
X75388879Y-75086194D01*
X75388879Y-75086194D01*
G37*
X75388879Y-75086194D02*
X75321683Y-75098838D01*
X75105559Y-75237910D01*
X74960569Y-75450110D01*
X74909560Y-75702000D01*
X74909560Y-76952000D01*
X74953838Y-77187317D01*
X75054017Y-77343000D01*
X73660000Y-77343000D01*
X73610590Y-77353006D01*
X73568965Y-77381447D01*
X73541685Y-77423841D01*
X73533000Y-77470000D01*
X73533000Y-77529008D01*
X73343559Y-77650910D01*
X73198569Y-77863110D01*
X73147560Y-78115000D01*
X73147560Y-79365000D01*
X73191838Y-79600317D01*
X73330910Y-79816441D01*
X73533000Y-79954523D01*
X73533000Y-80332198D01*
X72885320Y-80979878D01*
X72839833Y-80979838D01*
X72496057Y-81121883D01*
X72232808Y-81384673D01*
X72090162Y-81728201D01*
X72089887Y-82044000D01*
X66109131Y-82044000D01*
X66065090Y-81975559D01*
X65995289Y-81927866D01*
X66052441Y-81891090D01*
X66197431Y-81678890D01*
X66248440Y-81427000D01*
X66248440Y-80927000D01*
X66204162Y-80691683D01*
X66065090Y-80475559D01*
X65955583Y-80400736D01*
X66070192Y-80286327D01*
X66212838Y-79942799D01*
X66213162Y-79570833D01*
X66071117Y-79227057D01*
X66038000Y-79193882D01*
X66038000Y-78286463D01*
X66070192Y-78254327D01*
X66212838Y-77910799D01*
X66213162Y-77538833D01*
X66071117Y-77195057D01*
X65808327Y-76931808D01*
X65496482Y-76802318D01*
X66577401Y-75721399D01*
X66742148Y-75474837D01*
X66800000Y-75183998D01*
X66800000Y-73460463D01*
X66832192Y-73428327D01*
X66974838Y-73084799D01*
X66975162Y-72712833D01*
X66833117Y-72369057D01*
X66687426Y-72223111D01*
X66822943Y-72167117D01*
X66856118Y-72134000D01*
X67626547Y-72134000D01*
X67658683Y-72166192D01*
X68002211Y-72308838D01*
X68374177Y-72309162D01*
X68717953Y-72167117D01*
X68981202Y-71904327D01*
X69123848Y-71560799D01*
X69124143Y-71221600D01*
X71524286Y-71221600D01*
X75388879Y-75086194D01*
G36*
X123317000Y-98604606D02*
X123317000Y-107002198D01*
X122496198Y-107823000D01*
X75057000Y-107823000D01*
X75057000Y-96647000D01*
X121359394Y-96647000D01*
X123317000Y-98604606D01*
X123317000Y-98604606D01*
G37*
X123317000Y-98604606D02*
X123317000Y-107002198D01*
X122496198Y-107823000D01*
X75057000Y-107823000D01*
X75057000Y-96647000D01*
X121359394Y-96647000D01*
X123317000Y-98604606D01*
G36*
X143764000Y-125028291D02*
X141874853Y-123139143D01*
X141874850Y-123139141D01*
X141574854Y-122839144D01*
X141239075Y-122614785D01*
X140842998Y-122535999D01*
X140446921Y-122614785D01*
X140111142Y-122839144D01*
X139886783Y-123174923D01*
X139807997Y-123571000D01*
X139886783Y-123967077D01*
X140111142Y-124302856D01*
X140411139Y-124602852D01*
X140411141Y-124602855D01*
X142905140Y-127096853D01*
X142905142Y-127096856D01*
X143161521Y-127268162D01*
X143240921Y-127321215D01*
X143636998Y-127400001D01*
X143637003Y-127400000D01*
X143764000Y-127400000D01*
X143764000Y-128725394D01*
X138758394Y-133731000D01*
X137379198Y-133731000D01*
X137459838Y-133536799D01*
X137459879Y-133489923D01*
X138447401Y-132502401D01*
X138491655Y-132436170D01*
X138611441Y-132359090D01*
X138756431Y-132146890D01*
X138807440Y-131895000D01*
X138807440Y-130995000D01*
X138763162Y-130759683D01*
X138624090Y-130543559D01*
X138411890Y-130398569D01*
X138160000Y-130347560D01*
X137660000Y-130347560D01*
X137424683Y-130391838D01*
X137208559Y-130530910D01*
X137170000Y-130587343D01*
X137170000Y-130017539D01*
X137206441Y-129994090D01*
X137351431Y-129781890D01*
X137402440Y-129530000D01*
X137402440Y-128280000D01*
X137358162Y-128044683D01*
X137219090Y-127828559D01*
X137100010Y-127747195D01*
X137100010Y-127637440D01*
X137930000Y-127637440D01*
X138165317Y-127593162D01*
X138381441Y-127454090D01*
X138526431Y-127241890D01*
X138577440Y-126990000D01*
X138577440Y-125740000D01*
X138533162Y-125504683D01*
X138394090Y-125288559D01*
X138181890Y-125143569D01*
X137930000Y-125092560D01*
X137920000Y-125092560D01*
X137920000Y-124653386D01*
X138006431Y-124526890D01*
X138057440Y-124275000D01*
X138057440Y-123375000D01*
X138013162Y-123139683D01*
X137920000Y-122994905D01*
X137920000Y-122919097D01*
X137862148Y-122628258D01*
X137697401Y-122381696D01*
X137662278Y-122346573D01*
X137662295Y-122327237D01*
X137861441Y-122199090D01*
X137934772Y-122091766D01*
X138243201Y-122219838D01*
X138615167Y-122220162D01*
X138958943Y-122078117D01*
X139222192Y-121815327D01*
X139364838Y-121471799D01*
X139365162Y-121099833D01*
X139346764Y-121055307D01*
X139603192Y-120799327D01*
X139745838Y-120455799D01*
X139746162Y-120083833D01*
X139604117Y-119740057D01*
X139341327Y-119476808D01*
X138997799Y-119334162D01*
X138950923Y-119334121D01*
X138892100Y-119275298D01*
X138645538Y-119110551D01*
X138354699Y-119052699D01*
X137907501Y-119052699D01*
X137570401Y-118715599D01*
X137323839Y-118550852D01*
X137033000Y-118493000D01*
X136585802Y-118493000D01*
X136200802Y-118108000D01*
X137414004Y-118108000D01*
X137704843Y-118050148D01*
X137951405Y-117885401D01*
X138925560Y-116911246D01*
X138925560Y-117221000D01*
X138969838Y-117456317D01*
X139108910Y-117672441D01*
X139321110Y-117817431D01*
X139573000Y-117868440D01*
X141605000Y-117868440D01*
X141840317Y-117824162D01*
X142056441Y-117685090D01*
X142201431Y-117472890D01*
X142252440Y-117221000D01*
X142252440Y-115189000D01*
X142208162Y-114953683D01*
X142069090Y-114737559D01*
X141920163Y-114635802D01*
X142146670Y-114296810D01*
X142272345Y-113665000D01*
X142146670Y-113033190D01*
X141788778Y-112497567D01*
X141567586Y-112349771D01*
X141778441Y-112214090D01*
X141923431Y-112001890D01*
X141974440Y-111750000D01*
X141974440Y-111125000D01*
X143764000Y-111125000D01*
X143764000Y-125028291D01*
X143764000Y-125028291D01*
G37*
X143764000Y-125028291D02*
X141874853Y-123139143D01*
X141874850Y-123139141D01*
X141574854Y-122839144D01*
X141239075Y-122614785D01*
X140842998Y-122535999D01*
X140446921Y-122614785D01*
X140111142Y-122839144D01*
X139886783Y-123174923D01*
X139807997Y-123571000D01*
X139886783Y-123967077D01*
X140111142Y-124302856D01*
X140411139Y-124602852D01*
X140411141Y-124602855D01*
X142905140Y-127096853D01*
X142905142Y-127096856D01*
X143161521Y-127268162D01*
X143240921Y-127321215D01*
X143636998Y-127400001D01*
X143637003Y-127400000D01*
X143764000Y-127400000D01*
X143764000Y-128725394D01*
X138758394Y-133731000D01*
X137379198Y-133731000D01*
X137459838Y-133536799D01*
X137459879Y-133489923D01*
X138447401Y-132502401D01*
X138491655Y-132436170D01*
X138611441Y-132359090D01*
X138756431Y-132146890D01*
X138807440Y-131895000D01*
X138807440Y-130995000D01*
X138763162Y-130759683D01*
X138624090Y-130543559D01*
X138411890Y-130398569D01*
X138160000Y-130347560D01*
X137660000Y-130347560D01*
X137424683Y-130391838D01*
X137208559Y-130530910D01*
X137170000Y-130587343D01*
X137170000Y-130017539D01*
X137206441Y-129994090D01*
X137351431Y-129781890D01*
X137402440Y-129530000D01*
X137402440Y-128280000D01*
X137358162Y-128044683D01*
X137219090Y-127828559D01*
X137100010Y-127747195D01*
X137100010Y-127637440D01*
X137930000Y-127637440D01*
X138165317Y-127593162D01*
X138381441Y-127454090D01*
X138526431Y-127241890D01*
X138577440Y-126990000D01*
X138577440Y-125740000D01*
X138533162Y-125504683D01*
X138394090Y-125288559D01*
X138181890Y-125143569D01*
X137930000Y-125092560D01*
X137920000Y-125092560D01*
X137920000Y-124653386D01*
X138006431Y-124526890D01*
X138057440Y-124275000D01*
X138057440Y-123375000D01*
X138013162Y-123139683D01*
X137920000Y-122994905D01*
X137920000Y-122919097D01*
X137862148Y-122628258D01*
X137697401Y-122381696D01*
X137662278Y-122346573D01*
X137662295Y-122327237D01*
X137861441Y-122199090D01*
X137934772Y-122091766D01*
X138243201Y-122219838D01*
X138615167Y-122220162D01*
X138958943Y-122078117D01*
X139222192Y-121815327D01*
X139364838Y-121471799D01*
X139365162Y-121099833D01*
X139346764Y-121055307D01*
X139603192Y-120799327D01*
X139745838Y-120455799D01*
X139746162Y-120083833D01*
X139604117Y-119740057D01*
X139341327Y-119476808D01*
X138997799Y-119334162D01*
X138950923Y-119334121D01*
X138892100Y-119275298D01*
X138645538Y-119110551D01*
X138354699Y-119052699D01*
X137907501Y-119052699D01*
X137570401Y-118715599D01*
X137323839Y-118550852D01*
X137033000Y-118493000D01*
X136585802Y-118493000D01*
X136200802Y-118108000D01*
X137414004Y-118108000D01*
X137704843Y-118050148D01*
X137951405Y-117885401D01*
X138925560Y-116911246D01*
X138925560Y-117221000D01*
X138969838Y-117456317D01*
X139108910Y-117672441D01*
X139321110Y-117817431D01*
X139573000Y-117868440D01*
X141605000Y-117868440D01*
X141840317Y-117824162D01*
X142056441Y-117685090D01*
X142201431Y-117472890D01*
X142252440Y-117221000D01*
X142252440Y-115189000D01*
X142208162Y-114953683D01*
X142069090Y-114737559D01*
X141920163Y-114635802D01*
X142146670Y-114296810D01*
X142272345Y-113665000D01*
X142146670Y-113033190D01*
X141788778Y-112497567D01*
X141567586Y-112349771D01*
X141778441Y-112214090D01*
X141923431Y-112001890D01*
X141974440Y-111750000D01*
X141974440Y-111125000D01*
X143764000Y-111125000D01*
X143764000Y-125028291D01*
G36*
X134495000Y-132080000D02*
X134552852Y-132370839D01*
X134717599Y-132617401D01*
X134790008Y-132689810D01*
X134789825Y-132900167D01*
X134931870Y-133243943D01*
X135194660Y-133507192D01*
X135538188Y-133649838D01*
X135637255Y-133649924D01*
X135670755Y-133731000D01*
X134493000Y-133731000D01*
X134493000Y-127508000D01*
X134482994Y-127458590D01*
X134455803Y-127418197D01*
X133088204Y-126050598D01*
X134495000Y-124643802D01*
X134495000Y-132080000D01*
X134495000Y-132080000D01*
G37*
X134495000Y-132080000D02*
X134552852Y-132370839D01*
X134717599Y-132617401D01*
X134790008Y-132689810D01*
X134789825Y-132900167D01*
X134931870Y-133243943D01*
X135194660Y-133507192D01*
X135538188Y-133649838D01*
X135637255Y-133649924D01*
X135670755Y-133731000D01*
X134493000Y-133731000D01*
X134493000Y-127508000D01*
X134482994Y-127458590D01*
X134455803Y-127418197D01*
X133088204Y-126050598D01*
X134495000Y-124643802D01*
X134495000Y-132080000D01*
G36*
X139679560Y-111750000D02*
X139723838Y-111985317D01*
X139853738Y-112187187D01*
X139389222Y-112497567D01*
X139031330Y-113033190D01*
X138905655Y-113665000D01*
X139031330Y-114296810D01*
X139258499Y-114636792D01*
X139121559Y-114724910D01*
X138976569Y-114937110D01*
X138960566Y-115016134D01*
X138625833Y-115015842D01*
X138282057Y-115157887D01*
X138018808Y-115420677D01*
X137876162Y-115764205D01*
X137876121Y-115811081D01*
X137099202Y-116588000D01*
X134928463Y-116588000D01*
X134896327Y-116555808D01*
X134552799Y-116413162D01*
X134180833Y-116412838D01*
X133837057Y-116554883D01*
X133573808Y-116817673D01*
X133431162Y-117161201D01*
X133430838Y-117533167D01*
X133572883Y-117876943D01*
X133835673Y-118140192D01*
X134179201Y-118282838D01*
X134226077Y-118282879D01*
X135733599Y-119790401D01*
X135821238Y-119848960D01*
X135482638Y-120187560D01*
X135410000Y-120187560D01*
X135174683Y-120231838D01*
X134958559Y-120370910D01*
X134813569Y-120583110D01*
X134762560Y-120835000D01*
X134762560Y-120956638D01*
X133955599Y-121763599D01*
X133790852Y-122010161D01*
X133733000Y-122301000D01*
X133733000Y-123256198D01*
X132226384Y-124762814D01*
X132188162Y-124559683D01*
X132124322Y-124460472D01*
X132181431Y-124376890D01*
X132232440Y-124125000D01*
X132232440Y-123525000D01*
X132188162Y-123289683D01*
X132049090Y-123073559D01*
X131836890Y-122928569D01*
X131585000Y-122877560D01*
X130035000Y-122877560D01*
X129934143Y-122896537D01*
X129659204Y-122621598D01*
X132490401Y-119790401D01*
X132655148Y-119543839D01*
X132713000Y-119253000D01*
X132713000Y-117027802D01*
X134045802Y-115695000D01*
X134601463Y-115695000D01*
X134715893Y-115971943D01*
X134978683Y-116235192D01*
X135322211Y-116377838D01*
X135694177Y-116378162D01*
X136037953Y-116236117D01*
X136301202Y-115973327D01*
X136443848Y-115629799D01*
X136444172Y-115257833D01*
X136302127Y-114914057D01*
X136039337Y-114650808D01*
X135722960Y-114519436D01*
X135793192Y-114449327D01*
X135883873Y-114230943D01*
X135994317Y-114210162D01*
X136210441Y-114071090D01*
X136258134Y-114001289D01*
X136294910Y-114058441D01*
X136507110Y-114203431D01*
X136759000Y-114254440D01*
X137259000Y-114254440D01*
X137494317Y-114210162D01*
X137710441Y-114071090D01*
X137855431Y-113858890D01*
X137906440Y-113607000D01*
X137906440Y-112707000D01*
X137862162Y-112471683D01*
X137793000Y-112364202D01*
X137793000Y-111457386D01*
X137879431Y-111330890D01*
X137921125Y-111125000D01*
X139679560Y-111125000D01*
X139679560Y-111750000D01*
X139679560Y-111750000D01*
G37*
X139679560Y-111750000D02*
X139723838Y-111985317D01*
X139853738Y-112187187D01*
X139389222Y-112497567D01*
X139031330Y-113033190D01*
X138905655Y-113665000D01*
X139031330Y-114296810D01*
X139258499Y-114636792D01*
X139121559Y-114724910D01*
X138976569Y-114937110D01*
X138960566Y-115016134D01*
X138625833Y-115015842D01*
X138282057Y-115157887D01*
X138018808Y-115420677D01*
X137876162Y-115764205D01*
X137876121Y-115811081D01*
X137099202Y-116588000D01*
X134928463Y-116588000D01*
X134896327Y-116555808D01*
X134552799Y-116413162D01*
X134180833Y-116412838D01*
X133837057Y-116554883D01*
X133573808Y-116817673D01*
X133431162Y-117161201D01*
X133430838Y-117533167D01*
X133572883Y-117876943D01*
X133835673Y-118140192D01*
X134179201Y-118282838D01*
X134226077Y-118282879D01*
X135733599Y-119790401D01*
X135821238Y-119848960D01*
X135482638Y-120187560D01*
X135410000Y-120187560D01*
X135174683Y-120231838D01*
X134958559Y-120370910D01*
X134813569Y-120583110D01*
X134762560Y-120835000D01*
X134762560Y-120956638D01*
X133955599Y-121763599D01*
X133790852Y-122010161D01*
X133733000Y-122301000D01*
X133733000Y-123256198D01*
X132226384Y-124762814D01*
X132188162Y-124559683D01*
X132124322Y-124460472D01*
X132181431Y-124376890D01*
X132232440Y-124125000D01*
X132232440Y-123525000D01*
X132188162Y-123289683D01*
X132049090Y-123073559D01*
X131836890Y-122928569D01*
X131585000Y-122877560D01*
X130035000Y-122877560D01*
X129934143Y-122896537D01*
X129659204Y-122621598D01*
X132490401Y-119790401D01*
X132655148Y-119543839D01*
X132713000Y-119253000D01*
X132713000Y-117027802D01*
X134045802Y-115695000D01*
X134601463Y-115695000D01*
X134715893Y-115971943D01*
X134978683Y-116235192D01*
X135322211Y-116377838D01*
X135694177Y-116378162D01*
X136037953Y-116236117D01*
X136301202Y-115973327D01*
X136443848Y-115629799D01*
X136444172Y-115257833D01*
X136302127Y-114914057D01*
X136039337Y-114650808D01*
X135722960Y-114519436D01*
X135793192Y-114449327D01*
X135883873Y-114230943D01*
X135994317Y-114210162D01*
X136210441Y-114071090D01*
X136258134Y-114001289D01*
X136294910Y-114058441D01*
X136507110Y-114203431D01*
X136759000Y-114254440D01*
X137259000Y-114254440D01*
X137494317Y-114210162D01*
X137710441Y-114071090D01*
X137855431Y-113858890D01*
X137906440Y-113607000D01*
X137906440Y-112707000D01*
X137862162Y-112471683D01*
X137793000Y-112364202D01*
X137793000Y-111457386D01*
X137879431Y-111330890D01*
X137921125Y-111125000D01*
X139679560Y-111125000D01*
X139679560Y-111750000D01*
G36*
X131597398Y-68556713D02*
X131597398Y-80091070D01*
X131451174Y-80443217D01*
X131450823Y-80845020D01*
X131604262Y-81216372D01*
X131888132Y-81500737D01*
X132259215Y-81654824D01*
X132661018Y-81655175D01*
X133032370Y-81501736D01*
X133316735Y-81217866D01*
X133470822Y-80846783D01*
X133471173Y-80444980D01*
X133324598Y-80090240D01*
X133324598Y-73804600D01*
X133359228Y-73827738D01*
X133412134Y-73880737D01*
X133481906Y-73909709D01*
X133588923Y-73981215D01*
X133714055Y-74006105D01*
X133783217Y-74034824D01*
X133858764Y-74034890D01*
X133985000Y-74060000D01*
X140541288Y-74060000D01*
X143637000Y-77155711D01*
X143637000Y-118745000D01*
X137599802Y-118745000D01*
X137570401Y-118715599D01*
X137323839Y-118550852D01*
X137033000Y-118493000D01*
X136585802Y-118493000D01*
X136200802Y-118108000D01*
X137414004Y-118108000D01*
X137704843Y-118050148D01*
X137951405Y-117885401D01*
X138925560Y-116911246D01*
X138925560Y-117221000D01*
X138969838Y-117456317D01*
X139108910Y-117672441D01*
X139321110Y-117817431D01*
X139573000Y-117868440D01*
X141605000Y-117868440D01*
X141840317Y-117824162D01*
X142056441Y-117685090D01*
X142201431Y-117472890D01*
X142252440Y-117221000D01*
X142252440Y-115189000D01*
X142208162Y-114953683D01*
X142069090Y-114737559D01*
X141920163Y-114635802D01*
X142146670Y-114296810D01*
X142272345Y-113665000D01*
X142146670Y-113033190D01*
X141788778Y-112497567D01*
X141567586Y-112349771D01*
X141778441Y-112214090D01*
X141923431Y-112001890D01*
X141974440Y-111750000D01*
X141974440Y-110500000D01*
X141930162Y-110264683D01*
X141791090Y-110048559D01*
X141578890Y-109903569D01*
X141327000Y-109852560D01*
X140762003Y-109852560D01*
X140762162Y-109669831D01*
X140620117Y-109326055D01*
X140357327Y-109062806D01*
X140013799Y-108920160D01*
X139641833Y-108919836D01*
X139298057Y-109061881D01*
X139034808Y-109324671D01*
X138892162Y-109668199D01*
X138891838Y-110040165D01*
X139033883Y-110383941D01*
X139296673Y-110647190D01*
X139472326Y-110720128D01*
X139679560Y-110927362D01*
X139679560Y-111750000D01*
X139723838Y-111985317D01*
X139853738Y-112187187D01*
X139389222Y-112497567D01*
X139031330Y-113033190D01*
X138905655Y-113665000D01*
X139031330Y-114296810D01*
X139258499Y-114636792D01*
X139121559Y-114724910D01*
X138976569Y-114937110D01*
X138960566Y-115016134D01*
X138625833Y-115015842D01*
X138282057Y-115157887D01*
X138018808Y-115420677D01*
X137876162Y-115764205D01*
X137876121Y-115811081D01*
X137099202Y-116588000D01*
X134928463Y-116588000D01*
X134896327Y-116555808D01*
X134552799Y-116413162D01*
X134180833Y-116412838D01*
X133837057Y-116554883D01*
X133573808Y-116817673D01*
X133431162Y-117161201D01*
X133430838Y-117533167D01*
X133572883Y-117876943D01*
X133835673Y-118140192D01*
X134179201Y-118282838D01*
X134226077Y-118282879D01*
X134688198Y-118745000D01*
X132713000Y-118745000D01*
X132713000Y-117027802D01*
X134045802Y-115695000D01*
X134601463Y-115695000D01*
X134715893Y-115971943D01*
X134978683Y-116235192D01*
X135322211Y-116377838D01*
X135694177Y-116378162D01*
X136037953Y-116236117D01*
X136301202Y-115973327D01*
X136443848Y-115629799D01*
X136444172Y-115257833D01*
X136302127Y-114914057D01*
X136039337Y-114650808D01*
X135722960Y-114519436D01*
X135793192Y-114449327D01*
X135883873Y-114230943D01*
X135994317Y-114210162D01*
X136210441Y-114071090D01*
X136258134Y-114001289D01*
X136294910Y-114058441D01*
X136507110Y-114203431D01*
X136759000Y-114254440D01*
X137259000Y-114254440D01*
X137494317Y-114210162D01*
X137710441Y-114071090D01*
X137855431Y-113858890D01*
X137906440Y-113607000D01*
X137906440Y-112707000D01*
X137862162Y-112471683D01*
X137793000Y-112364202D01*
X137793000Y-111457386D01*
X137879431Y-111330890D01*
X137930440Y-111079000D01*
X137930440Y-110179000D01*
X137886162Y-109943683D01*
X137793000Y-109798905D01*
X137793000Y-109413386D01*
X137879431Y-109286890D01*
X137930440Y-109035000D01*
X137930440Y-108135000D01*
X137886162Y-107899683D01*
X137793000Y-107754905D01*
X137793000Y-106299000D01*
X137759384Y-106130000D01*
X137735148Y-106008160D01*
X137570401Y-105761599D01*
X137530969Y-105722167D01*
X137875838Y-105722167D01*
X138017883Y-106065943D01*
X138280673Y-106329192D01*
X138624201Y-106471838D01*
X138996167Y-106472162D01*
X139339943Y-106330117D01*
X139603192Y-106067327D01*
X139745838Y-105723799D01*
X139745879Y-105676923D01*
X139867679Y-105555123D01*
X139894910Y-105597441D01*
X140107110Y-105742431D01*
X140359000Y-105793440D01*
X141359000Y-105793440D01*
X141594317Y-105749162D01*
X141810441Y-105610090D01*
X141955431Y-105397890D01*
X142006440Y-105146000D01*
X142006440Y-103896000D01*
X141962162Y-103660683D01*
X141823090Y-103444559D01*
X141610890Y-103299569D01*
X141359000Y-103248560D01*
X140359000Y-103248560D01*
X140123683Y-103292838D01*
X139907559Y-103431910D01*
X139762569Y-103644110D01*
X139735200Y-103779260D01*
X139536160Y-103818852D01*
X139289599Y-103983599D01*
X138671320Y-104601878D01*
X138625833Y-104601838D01*
X138282057Y-104743883D01*
X138018808Y-105006673D01*
X137876162Y-105350201D01*
X137875838Y-105722167D01*
X137530969Y-105722167D01*
X135936122Y-104127320D01*
X135936162Y-104081837D01*
X135864600Y-103908643D01*
X135864600Y-103392722D01*
X135865657Y-103391665D01*
X135865658Y-103391663D01*
X135866255Y-103391066D01*
X136037939Y-103320128D01*
X136301188Y-103057338D01*
X136443834Y-102713810D01*
X136444158Y-102341844D01*
X136395053Y-102223001D01*
X139328999Y-102223001D01*
X139619838Y-102165149D01*
X139866400Y-102000402D01*
X142650401Y-99216401D01*
X142815148Y-98969839D01*
X142873000Y-98679000D01*
X142873000Y-96955463D01*
X142905192Y-96923327D01*
X143047838Y-96579799D01*
X143048162Y-96207833D01*
X142906117Y-95864057D01*
X142643327Y-95600808D01*
X142299799Y-95458162D01*
X142186263Y-95458063D01*
X142144117Y-95356061D01*
X141881327Y-95092812D01*
X141537799Y-94950166D01*
X141424267Y-94950067D01*
X141382117Y-94848057D01*
X141119327Y-94584808D01*
X140775799Y-94442162D01*
X140403833Y-94441838D01*
X140060057Y-94583883D01*
X139796808Y-94846673D01*
X139654162Y-95190201D01*
X139654042Y-95328152D01*
X139190000Y-95792194D01*
X139190000Y-93364262D01*
X139489670Y-93164029D01*
X139814526Y-92677848D01*
X139928600Y-92104359D01*
X139928600Y-92045641D01*
X139814526Y-91472152D01*
X139489670Y-90985971D01*
X139003489Y-90661115D01*
X138430000Y-90547041D01*
X137856511Y-90661115D01*
X137370330Y-90985971D01*
X137160000Y-91300752D01*
X136949670Y-90985971D01*
X136678828Y-90805000D01*
X136949670Y-90624029D01*
X137274526Y-90137848D01*
X137388600Y-89564359D01*
X137388600Y-89505641D01*
X137274526Y-88932152D01*
X136949670Y-88445971D01*
X136463489Y-88121115D01*
X135890000Y-88007041D01*
X135316511Y-88121115D01*
X135298601Y-88133082D01*
X135298601Y-87713149D01*
X135441043Y-87741482D01*
X135486673Y-87787192D01*
X135830201Y-87929838D01*
X136202167Y-87930162D01*
X136545943Y-87788117D01*
X136809192Y-87525327D01*
X136951838Y-87181799D01*
X136952162Y-86809833D01*
X136810117Y-86466057D01*
X136547327Y-86202808D01*
X136203799Y-86060162D01*
X135846322Y-86059851D01*
X135874440Y-85921000D01*
X135874440Y-85344000D01*
X139956000Y-85344000D01*
X140013852Y-85634839D01*
X140178599Y-85881401D01*
X140305599Y-86008401D01*
X140552161Y-86173148D01*
X140843000Y-86231000D01*
X141133839Y-86173148D01*
X141380401Y-86008401D01*
X141545148Y-85761839D01*
X141603000Y-85471000D01*
X141545148Y-85180161D01*
X141380401Y-84933599D01*
X141253401Y-84806599D01*
X141006839Y-84641852D01*
X140716000Y-84584000D01*
X140425161Y-84641852D01*
X140178599Y-84806599D01*
X140013852Y-85053161D01*
X139956000Y-85344000D01*
X135874440Y-85344000D01*
X135874440Y-85021000D01*
X135830162Y-84785683D01*
X135691090Y-84569559D01*
X135478890Y-84424569D01*
X135227000Y-84373560D01*
X134727000Y-84373560D01*
X134491683Y-84417838D01*
X134275559Y-84556910D01*
X134227866Y-84626711D01*
X134191090Y-84569559D01*
X133978890Y-84424569D01*
X133727000Y-84373560D01*
X133227000Y-84373560D01*
X132991683Y-84417838D01*
X132775559Y-84556910D01*
X132630569Y-84769110D01*
X132579560Y-85021000D01*
X132579560Y-85921000D01*
X132623838Y-86156317D01*
X132717000Y-86301095D01*
X132717000Y-86487000D01*
X132774852Y-86777839D01*
X132939599Y-87024401D01*
X133778601Y-87863403D01*
X133778601Y-88092295D01*
X133350000Y-88007041D01*
X132776511Y-88121115D01*
X132290330Y-88445971D01*
X131965474Y-88932152D01*
X131851400Y-89505641D01*
X131851400Y-89564359D01*
X131892534Y-89771152D01*
X131296344Y-90367342D01*
X131109139Y-90647514D01*
X131043401Y-90977999D01*
X131043401Y-94404167D01*
X130937022Y-94472620D01*
X130838890Y-94405569D01*
X130587000Y-94354560D01*
X129832871Y-94354560D01*
X129988211Y-94122077D01*
X130066997Y-93726000D01*
X129988211Y-93329922D01*
X129763852Y-92994144D01*
X129428074Y-92769785D01*
X129286000Y-92741524D01*
X129286000Y-66522600D01*
X129563286Y-66522600D01*
X131597398Y-68556713D01*
X131597398Y-68556713D01*
G37*
X131597398Y-68556713D02*
X131597398Y-80091070D01*
X131451174Y-80443217D01*
X131450823Y-80845020D01*
X131604262Y-81216372D01*
X131888132Y-81500737D01*
X132259215Y-81654824D01*
X132661018Y-81655175D01*
X133032370Y-81501736D01*
X133316735Y-81217866D01*
X133470822Y-80846783D01*
X133471173Y-80444980D01*
X133324598Y-80090240D01*
X133324598Y-73804600D01*
X133359228Y-73827738D01*
X133412134Y-73880737D01*
X133481906Y-73909709D01*
X133588923Y-73981215D01*
X133714055Y-74006105D01*
X133783217Y-74034824D01*
X133858764Y-74034890D01*
X133985000Y-74060000D01*
X140541288Y-74060000D01*
X143637000Y-77155711D01*
X143637000Y-118745000D01*
X137599802Y-118745000D01*
X137570401Y-118715599D01*
X137323839Y-118550852D01*
X137033000Y-118493000D01*
X136585802Y-118493000D01*
X136200802Y-118108000D01*
X137414004Y-118108000D01*
X137704843Y-118050148D01*
X137951405Y-117885401D01*
X138925560Y-116911246D01*
X138925560Y-117221000D01*
X138969838Y-117456317D01*
X139108910Y-117672441D01*
X139321110Y-117817431D01*
X139573000Y-117868440D01*
X141605000Y-117868440D01*
X141840317Y-117824162D01*
X142056441Y-117685090D01*
X142201431Y-117472890D01*
X142252440Y-117221000D01*
X142252440Y-115189000D01*
X142208162Y-114953683D01*
X142069090Y-114737559D01*
X141920163Y-114635802D01*
X142146670Y-114296810D01*
X142272345Y-113665000D01*
X142146670Y-113033190D01*
X141788778Y-112497567D01*
X141567586Y-112349771D01*
X141778441Y-112214090D01*
X141923431Y-112001890D01*
X141974440Y-111750000D01*
X141974440Y-110500000D01*
X141930162Y-110264683D01*
X141791090Y-110048559D01*
X141578890Y-109903569D01*
X141327000Y-109852560D01*
X140762003Y-109852560D01*
X140762162Y-109669831D01*
X140620117Y-109326055D01*
X140357327Y-109062806D01*
X140013799Y-108920160D01*
X139641833Y-108919836D01*
X139298057Y-109061881D01*
X139034808Y-109324671D01*
X138892162Y-109668199D01*
X138891838Y-110040165D01*
X139033883Y-110383941D01*
X139296673Y-110647190D01*
X139472326Y-110720128D01*
X139679560Y-110927362D01*
X139679560Y-111750000D01*
X139723838Y-111985317D01*
X139853738Y-112187187D01*
X139389222Y-112497567D01*
X139031330Y-113033190D01*
X138905655Y-113665000D01*
X139031330Y-114296810D01*
X139258499Y-114636792D01*
X139121559Y-114724910D01*
X138976569Y-114937110D01*
X138960566Y-115016134D01*
X138625833Y-115015842D01*
X138282057Y-115157887D01*
X138018808Y-115420677D01*
X137876162Y-115764205D01*
X137876121Y-115811081D01*
X137099202Y-116588000D01*
X134928463Y-116588000D01*
X134896327Y-116555808D01*
X134552799Y-116413162D01*
X134180833Y-116412838D01*
X133837057Y-116554883D01*
X133573808Y-116817673D01*
X133431162Y-117161201D01*
X133430838Y-117533167D01*
X133572883Y-117876943D01*
X133835673Y-118140192D01*
X134179201Y-118282838D01*
X134226077Y-118282879D01*
X134688198Y-118745000D01*
X132713000Y-118745000D01*
X132713000Y-117027802D01*
X134045802Y-115695000D01*
X134601463Y-115695000D01*
X134715893Y-115971943D01*
X134978683Y-116235192D01*
X135322211Y-116377838D01*
X135694177Y-116378162D01*
X136037953Y-116236117D01*
X136301202Y-115973327D01*
X136443848Y-115629799D01*
X136444172Y-115257833D01*
X136302127Y-114914057D01*
X136039337Y-114650808D01*
X135722960Y-114519436D01*
X135793192Y-114449327D01*
X135883873Y-114230943D01*
X135994317Y-114210162D01*
X136210441Y-114071090D01*
X136258134Y-114001289D01*
X136294910Y-114058441D01*
X136507110Y-114203431D01*
X136759000Y-114254440D01*
X137259000Y-114254440D01*
X137494317Y-114210162D01*
X137710441Y-114071090D01*
X137855431Y-113858890D01*
X137906440Y-113607000D01*
X137906440Y-112707000D01*
X137862162Y-112471683D01*
X137793000Y-112364202D01*
X137793000Y-111457386D01*
X137879431Y-111330890D01*
X137930440Y-111079000D01*
X137930440Y-110179000D01*
X137886162Y-109943683D01*
X137793000Y-109798905D01*
X137793000Y-109413386D01*
X137879431Y-109286890D01*
X137930440Y-109035000D01*
X137930440Y-108135000D01*
X137886162Y-107899683D01*
X137793000Y-107754905D01*
X137793000Y-106299000D01*
X137759384Y-106130000D01*
X137735148Y-106008160D01*
X137570401Y-105761599D01*
X137530969Y-105722167D01*
X137875838Y-105722167D01*
X138017883Y-106065943D01*
X138280673Y-106329192D01*
X138624201Y-106471838D01*
X138996167Y-106472162D01*
X139339943Y-106330117D01*
X139603192Y-106067327D01*
X139745838Y-105723799D01*
X139745879Y-105676923D01*
X139867679Y-105555123D01*
X139894910Y-105597441D01*
X140107110Y-105742431D01*
X140359000Y-105793440D01*
X141359000Y-105793440D01*
X141594317Y-105749162D01*
X141810441Y-105610090D01*
X141955431Y-105397890D01*
X142006440Y-105146000D01*
X142006440Y-103896000D01*
X141962162Y-103660683D01*
X141823090Y-103444559D01*
X141610890Y-103299569D01*
X141359000Y-103248560D01*
X140359000Y-103248560D01*
X140123683Y-103292838D01*
X139907559Y-103431910D01*
X139762569Y-103644110D01*
X139735200Y-103779260D01*
X139536160Y-103818852D01*
X139289599Y-103983599D01*
X138671320Y-104601878D01*
X138625833Y-104601838D01*
X138282057Y-104743883D01*
X138018808Y-105006673D01*
X137876162Y-105350201D01*
X137875838Y-105722167D01*
X137530969Y-105722167D01*
X135936122Y-104127320D01*
X135936162Y-104081837D01*
X135864600Y-103908643D01*
X135864600Y-103392722D01*
X135865657Y-103391665D01*
X135865658Y-103391663D01*
X135866255Y-103391066D01*
X136037939Y-103320128D01*
X136301188Y-103057338D01*
X136443834Y-102713810D01*
X136444158Y-102341844D01*
X136395053Y-102223001D01*
X139328999Y-102223001D01*
X139619838Y-102165149D01*
X139866400Y-102000402D01*
X142650401Y-99216401D01*
X142815148Y-98969839D01*
X142873000Y-98679000D01*
X142873000Y-96955463D01*
X142905192Y-96923327D01*
X143047838Y-96579799D01*
X143048162Y-96207833D01*
X142906117Y-95864057D01*
X142643327Y-95600808D01*
X142299799Y-95458162D01*
X142186263Y-95458063D01*
X142144117Y-95356061D01*
X141881327Y-95092812D01*
X141537799Y-94950166D01*
X141424267Y-94950067D01*
X141382117Y-94848057D01*
X141119327Y-94584808D01*
X140775799Y-94442162D01*
X140403833Y-94441838D01*
X140060057Y-94583883D01*
X139796808Y-94846673D01*
X139654162Y-95190201D01*
X139654042Y-95328152D01*
X139190000Y-95792194D01*
X139190000Y-93364262D01*
X139489670Y-93164029D01*
X139814526Y-92677848D01*
X139928600Y-92104359D01*
X139928600Y-92045641D01*
X139814526Y-91472152D01*
X139489670Y-90985971D01*
X139003489Y-90661115D01*
X138430000Y-90547041D01*
X137856511Y-90661115D01*
X137370330Y-90985971D01*
X137160000Y-91300752D01*
X136949670Y-90985971D01*
X136678828Y-90805000D01*
X136949670Y-90624029D01*
X137274526Y-90137848D01*
X137388600Y-89564359D01*
X137388600Y-89505641D01*
X137274526Y-88932152D01*
X136949670Y-88445971D01*
X136463489Y-88121115D01*
X135890000Y-88007041D01*
X135316511Y-88121115D01*
X135298601Y-88133082D01*
X135298601Y-87713149D01*
X135441043Y-87741482D01*
X135486673Y-87787192D01*
X135830201Y-87929838D01*
X136202167Y-87930162D01*
X136545943Y-87788117D01*
X136809192Y-87525327D01*
X136951838Y-87181799D01*
X136952162Y-86809833D01*
X136810117Y-86466057D01*
X136547327Y-86202808D01*
X136203799Y-86060162D01*
X135846322Y-86059851D01*
X135874440Y-85921000D01*
X135874440Y-85344000D01*
X139956000Y-85344000D01*
X140013852Y-85634839D01*
X140178599Y-85881401D01*
X140305599Y-86008401D01*
X140552161Y-86173148D01*
X140843000Y-86231000D01*
X141133839Y-86173148D01*
X141380401Y-86008401D01*
X141545148Y-85761839D01*
X141603000Y-85471000D01*
X141545148Y-85180161D01*
X141380401Y-84933599D01*
X141253401Y-84806599D01*
X141006839Y-84641852D01*
X140716000Y-84584000D01*
X140425161Y-84641852D01*
X140178599Y-84806599D01*
X140013852Y-85053161D01*
X139956000Y-85344000D01*
X135874440Y-85344000D01*
X135874440Y-85021000D01*
X135830162Y-84785683D01*
X135691090Y-84569559D01*
X135478890Y-84424569D01*
X135227000Y-84373560D01*
X134727000Y-84373560D01*
X134491683Y-84417838D01*
X134275559Y-84556910D01*
X134227866Y-84626711D01*
X134191090Y-84569559D01*
X133978890Y-84424569D01*
X133727000Y-84373560D01*
X133227000Y-84373560D01*
X132991683Y-84417838D01*
X132775559Y-84556910D01*
X132630569Y-84769110D01*
X132579560Y-85021000D01*
X132579560Y-85921000D01*
X132623838Y-86156317D01*
X132717000Y-86301095D01*
X132717000Y-86487000D01*
X132774852Y-86777839D01*
X132939599Y-87024401D01*
X133778601Y-87863403D01*
X133778601Y-88092295D01*
X133350000Y-88007041D01*
X132776511Y-88121115D01*
X132290330Y-88445971D01*
X131965474Y-88932152D01*
X131851400Y-89505641D01*
X131851400Y-89564359D01*
X131892534Y-89771152D01*
X131296344Y-90367342D01*
X131109139Y-90647514D01*
X131043401Y-90977999D01*
X131043401Y-94404167D01*
X130937022Y-94472620D01*
X130838890Y-94405569D01*
X130587000Y-94354560D01*
X129832871Y-94354560D01*
X129988211Y-94122077D01*
X130066997Y-93726000D01*
X129988211Y-93329922D01*
X129763852Y-92994144D01*
X129428074Y-92769785D01*
X129286000Y-92741524D01*
X129286000Y-66522600D01*
X129563286Y-66522600D01*
X131597398Y-68556713D01*
G36*
X131043401Y-98886997D02*
X131094005Y-99141399D01*
X131109139Y-99217482D01*
X131296344Y-99497654D01*
X132566343Y-100767654D01*
X132566346Y-100767656D01*
X132612945Y-100814255D01*
X132683883Y-100985939D01*
X132786481Y-101088717D01*
X131559320Y-102315878D01*
X131513833Y-102315838D01*
X131170057Y-102457883D01*
X130906808Y-102720673D01*
X130764162Y-103064201D01*
X130763838Y-103436167D01*
X130905883Y-103779943D01*
X131168673Y-104043192D01*
X131193000Y-104053294D01*
X131193000Y-106457488D01*
X131006779Y-106380162D01*
X130634813Y-106379838D01*
X130370264Y-106489147D01*
X130107799Y-106380162D01*
X129735833Y-106379838D01*
X129412629Y-106513383D01*
X129091799Y-106380162D01*
X128719833Y-106379838D01*
X128406083Y-106509477D01*
X125229046Y-103332440D01*
X125230000Y-103332440D01*
X125465317Y-103288162D01*
X125681441Y-103149090D01*
X125826431Y-102936890D01*
X125877440Y-102685000D01*
X125877440Y-101785000D01*
X125833162Y-101549683D01*
X125694090Y-101333559D01*
X125481890Y-101188569D01*
X125421507Y-101176341D01*
X125433431Y-101158890D01*
X125484440Y-100907000D01*
X125484440Y-100471234D01*
X125750943Y-100361117D01*
X126014192Y-100098327D01*
X126156838Y-99754799D01*
X126157035Y-99528301D01*
X126375000Y-99572440D01*
X127625000Y-99572440D01*
X127860317Y-99528162D01*
X128076441Y-99389090D01*
X128221431Y-99176890D01*
X128272440Y-98925000D01*
X128272440Y-98550000D01*
X128977537Y-98550000D01*
X129009673Y-98582192D01*
X129353201Y-98724838D01*
X129725167Y-98725162D01*
X130068943Y-98583117D01*
X130332192Y-98320327D01*
X130474838Y-97976799D01*
X130475162Y-97604833D01*
X130333117Y-97261057D01*
X130190813Y-97118504D01*
X130496774Y-97118771D01*
X130840550Y-96976726D01*
X131043401Y-96774229D01*
X131043401Y-98886997D01*
X131043401Y-98886997D01*
G37*
X131043401Y-98886997D02*
X131094005Y-99141399D01*
X131109139Y-99217482D01*
X131296344Y-99497654D01*
X132566343Y-100767654D01*
X132566346Y-100767656D01*
X132612945Y-100814255D01*
X132683883Y-100985939D01*
X132786481Y-101088717D01*
X131559320Y-102315878D01*
X131513833Y-102315838D01*
X131170057Y-102457883D01*
X130906808Y-102720673D01*
X130764162Y-103064201D01*
X130763838Y-103436167D01*
X130905883Y-103779943D01*
X131168673Y-104043192D01*
X131193000Y-104053294D01*
X131193000Y-106457488D01*
X131006779Y-106380162D01*
X130634813Y-106379838D01*
X130370264Y-106489147D01*
X130107799Y-106380162D01*
X129735833Y-106379838D01*
X129412629Y-106513383D01*
X129091799Y-106380162D01*
X128719833Y-106379838D01*
X128406083Y-106509477D01*
X125229046Y-103332440D01*
X125230000Y-103332440D01*
X125465317Y-103288162D01*
X125681441Y-103149090D01*
X125826431Y-102936890D01*
X125877440Y-102685000D01*
X125877440Y-101785000D01*
X125833162Y-101549683D01*
X125694090Y-101333559D01*
X125481890Y-101188569D01*
X125421507Y-101176341D01*
X125433431Y-101158890D01*
X125484440Y-100907000D01*
X125484440Y-100471234D01*
X125750943Y-100361117D01*
X126014192Y-100098327D01*
X126156838Y-99754799D01*
X126157035Y-99528301D01*
X126375000Y-99572440D01*
X127625000Y-99572440D01*
X127860317Y-99528162D01*
X128076441Y-99389090D01*
X128221431Y-99176890D01*
X128272440Y-98925000D01*
X128272440Y-98550000D01*
X128977537Y-98550000D01*
X129009673Y-98582192D01*
X129353201Y-98724838D01*
X129725167Y-98725162D01*
X130068943Y-98583117D01*
X130332192Y-98320327D01*
X130474838Y-97976799D01*
X130475162Y-97604833D01*
X130333117Y-97261057D01*
X130190813Y-97118504D01*
X130496774Y-97118771D01*
X130840550Y-96976726D01*
X131043401Y-96774229D01*
X131043401Y-98886997D01*
G36*
X132795887Y-96524385D02*
X132795840Y-96578165D01*
X132937885Y-96921941D01*
X133200675Y-97185190D01*
X133544203Y-97327836D01*
X133778601Y-97328040D01*
X133778601Y-98579016D01*
X133700808Y-98656673D01*
X133558162Y-99000201D01*
X133557886Y-99316568D01*
X132770601Y-98529283D01*
X132770601Y-96486542D01*
X132795887Y-96524385D01*
X132795887Y-96524385D01*
G37*
X132795887Y-96524385D02*
X132795840Y-96578165D01*
X132937885Y-96921941D01*
X133200675Y-97185190D01*
X133544203Y-97327836D01*
X133778601Y-97328040D01*
X133778601Y-98579016D01*
X133700808Y-98656673D01*
X133558162Y-99000201D01*
X133557886Y-99316568D01*
X132770601Y-98529283D01*
X132770601Y-96486542D01*
X132795887Y-96524385D01*
G36*
X162687000Y-69246772D02*
X162382015Y-68790330D01*
X161895834Y-68465474D01*
X161322345Y-68351400D01*
X160952855Y-68351400D01*
X160379366Y-68465474D01*
X159893185Y-68790330D01*
X159876701Y-68815000D01*
X154930899Y-68815000D01*
X154914415Y-68790330D01*
X154428234Y-68465474D01*
X153854745Y-68351400D01*
X153485255Y-68351400D01*
X152911766Y-68465474D01*
X152425585Y-68790330D01*
X152409101Y-68815000D01*
X151069062Y-68815000D01*
X150949090Y-68628559D01*
X150736890Y-68483569D01*
X150485000Y-68432560D01*
X149235000Y-68432560D01*
X148999683Y-68476838D01*
X148783559Y-68615910D01*
X148647527Y-68815000D01*
X147310899Y-68815000D01*
X147294415Y-68790330D01*
X146808234Y-68465474D01*
X146234745Y-68351400D01*
X145865255Y-68351400D01*
X145291766Y-68465474D01*
X144805585Y-68790330D01*
X144480729Y-69276511D01*
X144366655Y-69850000D01*
X144480729Y-70423489D01*
X144805585Y-70909670D01*
X145120366Y-71120000D01*
X144805585Y-71330330D01*
X144480729Y-71816511D01*
X144366655Y-72390000D01*
X144480729Y-72963489D01*
X144805585Y-73449670D01*
X145291766Y-73774526D01*
X145865255Y-73888600D01*
X146234745Y-73888600D01*
X146808234Y-73774526D01*
X147294415Y-73449670D01*
X147619271Y-72963489D01*
X147733345Y-72390000D01*
X147619271Y-71816511D01*
X147294415Y-71330330D01*
X146979634Y-71120000D01*
X147294415Y-70909670D01*
X147310899Y-70885000D01*
X149589995Y-70885000D01*
X149590000Y-70885001D01*
X149860000Y-70831294D01*
X150130000Y-70885001D01*
X150130005Y-70885000D01*
X152409101Y-70885000D01*
X152425585Y-70909670D01*
X152740366Y-71120000D01*
X152425585Y-71330330D01*
X152100729Y-71816511D01*
X151986655Y-72390000D01*
X152100729Y-72963489D01*
X152425585Y-73449670D01*
X152911766Y-73774526D01*
X153485255Y-73888600D01*
X153854745Y-73888600D01*
X154428234Y-73774526D01*
X154914415Y-73449670D01*
X155239271Y-72963489D01*
X155353345Y-72390000D01*
X155239271Y-71816511D01*
X154914415Y-71330330D01*
X154599634Y-71120000D01*
X154914415Y-70909670D01*
X154930899Y-70885000D01*
X159876701Y-70885000D01*
X159893185Y-70909670D01*
X160207966Y-71120000D01*
X159893185Y-71330330D01*
X159568329Y-71816511D01*
X159454255Y-72390000D01*
X159568329Y-72963489D01*
X159893185Y-73449670D01*
X160379366Y-73774526D01*
X160952855Y-73888600D01*
X161322345Y-73888600D01*
X161895834Y-73774526D01*
X162382015Y-73449670D01*
X162687000Y-72993228D01*
X162687000Y-76195696D01*
X145015352Y-75606641D01*
X141701856Y-72293144D01*
X141366077Y-72068785D01*
X140970000Y-71989999D01*
X140969995Y-71990000D01*
X133985000Y-71990000D01*
X133859868Y-72014890D01*
X133784980Y-72014825D01*
X133715156Y-72043676D01*
X133588923Y-72068785D01*
X133482843Y-72139665D01*
X133413628Y-72168264D01*
X133360161Y-72221638D01*
X133324598Y-72245400D01*
X133324598Y-71264600D01*
X133359228Y-71287738D01*
X133412134Y-71340737D01*
X133481906Y-71369709D01*
X133588923Y-71441215D01*
X133714055Y-71466105D01*
X133783217Y-71494824D01*
X133858764Y-71494890D01*
X133985000Y-71520000D01*
X137795000Y-71520000D01*
X137920132Y-71495110D01*
X137995020Y-71495175D01*
X138064844Y-71466324D01*
X138191077Y-71441215D01*
X138297157Y-71370335D01*
X138366372Y-71341736D01*
X138419839Y-71288362D01*
X138526856Y-71216856D01*
X138597738Y-71110772D01*
X138650737Y-71057866D01*
X138679709Y-70988094D01*
X138751215Y-70881077D01*
X138776105Y-70755945D01*
X138804824Y-70686783D01*
X138804890Y-70611236D01*
X138830000Y-70485000D01*
X138805110Y-70359868D01*
X138805175Y-70284980D01*
X138776324Y-70215156D01*
X138751215Y-70088923D01*
X138680335Y-69982843D01*
X138651736Y-69913628D01*
X138598362Y-69860161D01*
X138526856Y-69753144D01*
X138420772Y-69682262D01*
X138367866Y-69629263D01*
X138298094Y-69600291D01*
X138191077Y-69528785D01*
X138065945Y-69503895D01*
X137996783Y-69475176D01*
X137921236Y-69475110D01*
X137795000Y-69450000D01*
X133985000Y-69450000D01*
X133859868Y-69474890D01*
X133784980Y-69474825D01*
X133715156Y-69503676D01*
X133588923Y-69528785D01*
X133482843Y-69599665D01*
X133413628Y-69628264D01*
X133360161Y-69681638D01*
X133324598Y-69705400D01*
X133324598Y-68198998D01*
X133258860Y-67868513D01*
X133244753Y-67847401D01*
X133071656Y-67588341D01*
X131142314Y-65659000D01*
X162687000Y-65659000D01*
X162687000Y-69246772D01*
X162687000Y-69246772D01*
G37*
X162687000Y-69246772D02*
X162382015Y-68790330D01*
X161895834Y-68465474D01*
X161322345Y-68351400D01*
X160952855Y-68351400D01*
X160379366Y-68465474D01*
X159893185Y-68790330D01*
X159876701Y-68815000D01*
X154930899Y-68815000D01*
X154914415Y-68790330D01*
X154428234Y-68465474D01*
X153854745Y-68351400D01*
X153485255Y-68351400D01*
X152911766Y-68465474D01*
X152425585Y-68790330D01*
X152409101Y-68815000D01*
X151069062Y-68815000D01*
X150949090Y-68628559D01*
X150736890Y-68483569D01*
X150485000Y-68432560D01*
X149235000Y-68432560D01*
X148999683Y-68476838D01*
X148783559Y-68615910D01*
X148647527Y-68815000D01*
X147310899Y-68815000D01*
X147294415Y-68790330D01*
X146808234Y-68465474D01*
X146234745Y-68351400D01*
X145865255Y-68351400D01*
X145291766Y-68465474D01*
X144805585Y-68790330D01*
X144480729Y-69276511D01*
X144366655Y-69850000D01*
X144480729Y-70423489D01*
X144805585Y-70909670D01*
X145120366Y-71120000D01*
X144805585Y-71330330D01*
X144480729Y-71816511D01*
X144366655Y-72390000D01*
X144480729Y-72963489D01*
X144805585Y-73449670D01*
X145291766Y-73774526D01*
X145865255Y-73888600D01*
X146234745Y-73888600D01*
X146808234Y-73774526D01*
X147294415Y-73449670D01*
X147619271Y-72963489D01*
X147733345Y-72390000D01*
X147619271Y-71816511D01*
X147294415Y-71330330D01*
X146979634Y-71120000D01*
X147294415Y-70909670D01*
X147310899Y-70885000D01*
X149589995Y-70885000D01*
X149590000Y-70885001D01*
X149860000Y-70831294D01*
X150130000Y-70885001D01*
X150130005Y-70885000D01*
X152409101Y-70885000D01*
X152425585Y-70909670D01*
X152740366Y-71120000D01*
X152425585Y-71330330D01*
X152100729Y-71816511D01*
X151986655Y-72390000D01*
X152100729Y-72963489D01*
X152425585Y-73449670D01*
X152911766Y-73774526D01*
X153485255Y-73888600D01*
X153854745Y-73888600D01*
X154428234Y-73774526D01*
X154914415Y-73449670D01*
X155239271Y-72963489D01*
X155353345Y-72390000D01*
X155239271Y-71816511D01*
X154914415Y-71330330D01*
X154599634Y-71120000D01*
X154914415Y-70909670D01*
X154930899Y-70885000D01*
X159876701Y-70885000D01*
X159893185Y-70909670D01*
X160207966Y-71120000D01*
X159893185Y-71330330D01*
X159568329Y-71816511D01*
X159454255Y-72390000D01*
X159568329Y-72963489D01*
X159893185Y-73449670D01*
X160379366Y-73774526D01*
X160952855Y-73888600D01*
X161322345Y-73888600D01*
X161895834Y-73774526D01*
X162382015Y-73449670D01*
X162687000Y-72993228D01*
X162687000Y-76195696D01*
X145015352Y-75606641D01*
X141701856Y-72293144D01*
X141366077Y-72068785D01*
X140970000Y-71989999D01*
X140969995Y-71990000D01*
X133985000Y-71990000D01*
X133859868Y-72014890D01*
X133784980Y-72014825D01*
X133715156Y-72043676D01*
X133588923Y-72068785D01*
X133482843Y-72139665D01*
X133413628Y-72168264D01*
X133360161Y-72221638D01*
X133324598Y-72245400D01*
X133324598Y-71264600D01*
X133359228Y-71287738D01*
X133412134Y-71340737D01*
X133481906Y-71369709D01*
X133588923Y-71441215D01*
X133714055Y-71466105D01*
X133783217Y-71494824D01*
X133858764Y-71494890D01*
X133985000Y-71520000D01*
X137795000Y-71520000D01*
X137920132Y-71495110D01*
X137995020Y-71495175D01*
X138064844Y-71466324D01*
X138191077Y-71441215D01*
X138297157Y-71370335D01*
X138366372Y-71341736D01*
X138419839Y-71288362D01*
X138526856Y-71216856D01*
X138597738Y-71110772D01*
X138650737Y-71057866D01*
X138679709Y-70988094D01*
X138751215Y-70881077D01*
X138776105Y-70755945D01*
X138804824Y-70686783D01*
X138804890Y-70611236D01*
X138830000Y-70485000D01*
X138805110Y-70359868D01*
X138805175Y-70284980D01*
X138776324Y-70215156D01*
X138751215Y-70088923D01*
X138680335Y-69982843D01*
X138651736Y-69913628D01*
X138598362Y-69860161D01*
X138526856Y-69753144D01*
X138420772Y-69682262D01*
X138367866Y-69629263D01*
X138298094Y-69600291D01*
X138191077Y-69528785D01*
X138065945Y-69503895D01*
X137996783Y-69475176D01*
X137921236Y-69475110D01*
X137795000Y-69450000D01*
X133985000Y-69450000D01*
X133859868Y-69474890D01*
X133784980Y-69474825D01*
X133715156Y-69503676D01*
X133588923Y-69528785D01*
X133482843Y-69599665D01*
X133413628Y-69628264D01*
X133360161Y-69681638D01*
X133324598Y-69705400D01*
X133324598Y-68198998D01*
X133258860Y-67868513D01*
X133244753Y-67847401D01*
X133071656Y-67588341D01*
X131142314Y-65659000D01*
X162687000Y-65659000D01*
X162687000Y-69246772D01*
M02*
