M48
;DRILL file {KiCad 4.0.1-stable} date 11/13/2016 6:28:17 PM
;FORMAT={-:-/ absolute / inch / decimal}
FMAT,2
INCH,TZ
T1C0.016
T2C0.020
T3C0.026
T4C0.028
T5C0.040
T6C0.055
T7C0.104
%
G90
G05
M72
T1
X1.94Y-3.18
X2.03Y-3.23
X2.13Y-2.86
X2.13Y-2.93
X2.13Y-2.98
X2.16Y-3.08
X2.28Y-2.88
X2.34Y-2.96
X2.34Y-3.23
X2.36Y-3.12
X2.39Y-2.86
X2.39Y-2.97
X2.47Y-2.71
X2.49Y-3.07
X2.5Y-3.13
X2.57Y-3.06
X2.57Y-3.14
X2.6Y-2.87
X2.61Y-2.81
X2.61Y-3.38
X2.65Y-4.83
X2.66Y-2.77
X2.675Y-3.105
X2.68Y-4.98
X2.6846Y-2.81
X2.745Y-3.175
X2.77Y-3.34
X2.835Y-3.185
X2.86Y-3.29
X2.875Y-3.225
X2.89Y-3.26
X2.915Y-3.055
X2.955Y-3.245
X3.02Y-2.96
X3.125Y-3.755
X3.125Y-4.3
X3.14Y-2.71
X3.14Y-2.76
X3.15Y-3.755
X3.155Y-4.305
X3.3Y-4.65
X3.38Y-2.85
X3.39Y-3.57
X3.4Y-5.33
X3.425Y-4.5
X3.47Y-4.51
X3.5Y-4.5
X3.69Y-3.56
X3.71Y-4.49
X3.79Y-2.89
X3.8Y-3.32
X3.83Y-2.85
X3.83Y-5.27
X3.83Y-5.33
X3.84Y-3.52
X3.84Y-4.5
X3.87Y-3.54
X3.87Y-4.52
X3.92Y-4.72
X4.Y-2.88
X4.02Y-5.34
X4.04Y-3.57
X4.0456Y-4.4971
X4.33Y-3.57
X4.35Y-4.5
X4.435Y-3.665
X4.445Y-3.6235
X4.45Y-3.32
X4.65Y-2.89
X4.68Y-3.57
X4.68Y-4.49
X4.7Y-5.34
X4.73Y-4.5
X4.76Y-4.5
X4.865Y-3.785
X4.915Y-4.195
X4.93Y-3.92
X4.9599Y-4.2878
X4.97Y-3.57
X4.9819Y-4.2502
X5.03Y-3.49
X5.035Y-4.325
X5.035Y-4.225
X5.075Y-3.875
X5.075Y-4.225
X5.075Y-4.325
X5.08Y-3.69
X5.085Y-4.725
X5.1Y-3.85
X5.115Y-4.015
X5.115Y-4.225
X5.115Y-4.325
X5.1304Y-3.7868
X5.1504Y-4.225
X5.155Y-4.585
X5.175Y-3.965
X5.175Y-4.775
X5.185Y-4.065
X5.225Y-4.435
X5.235Y-4.145
X5.255Y-3.955
X5.2576Y-4.095
X5.265Y-4.335
X5.265Y-3.795
X5.29Y-4.62
X5.295Y-3.905
X5.3Y-5.25
X5.315Y-4.105
X5.315Y-4.485
X5.335Y-4.0365
X5.335Y-4.545
X5.3435Y-5.225
X5.3473Y-4.085
X5.35Y-4.825
X5.355Y-3.425
X5.355Y-3.965
X5.3671Y-4.4371
X5.375Y-5.25
X5.383Y-4.8223
X5.425Y-5.25
X5.4307Y-4.1525
X5.435Y-4.335
X5.45Y-4.775
X5.465Y-4.155
X5.465Y-4.565
X5.465Y-4.735
X5.505Y-4.325
X5.505Y-4.665
X5.505Y-4.735
X5.515Y-3.815
X5.525Y-3.905
X5.535Y-3.755
X5.545Y-4.865
X5.565Y-3.775
X5.595Y-3.795
T2
X3.45Y-3.825
X3.525Y-3.825
X3.575Y-4.225
X3.6Y-3.55
X3.63Y-3.53
X3.65Y-4.225
X3.775Y-3.95
X3.775Y-4.1
X4.075Y-3.85
X4.1Y-4.52
X4.13Y-4.5
X4.15Y-3.85
X4.2Y-4.225
X4.25Y-3.55
X4.25Y-4.225
X4.28Y-3.53
X4.5Y-4.65
X4.7Y-3.825
X4.775Y-3.825
X4.775Y-4.225
X4.845Y-4.215
X4.89Y-3.55
X4.92Y-3.53
X5.075Y-5.145
X5.195Y-5.135
X5.205Y-5.025
X5.215Y-3.175
X5.265Y-3.865
X5.275Y-2.775
X5.275Y-2.875
X5.425Y-2.775
T5
X1.95Y-4.81
X1.95Y-4.91
X1.95Y-5.01
X2.05Y-4.81
X2.05Y-5.01
X2.275Y-4.91
X2.275Y-5.01
X2.5Y-4.91
X2.5Y-5.01
X3.675Y-5.1
X3.675Y-5.2
X3.675Y-5.3
X3.675Y-5.4
X3.7Y-2.65
X3.7Y-2.75
X3.7Y-2.85
X3.7Y-2.95
X4.3Y-5.1
X4.3Y-5.2
X4.3Y-5.3
X4.3Y-5.4
X4.325Y-2.65
X4.325Y-2.75
X4.325Y-2.85
X4.325Y-2.95
X4.95Y-5.1
X4.95Y-5.2
X4.95Y-5.3
X4.95Y-5.4
X4.975Y-2.65
X4.975Y-2.75
X4.975Y-2.85
X4.975Y-2.95
X5.25Y-3.525
X5.25Y-3.625
X5.35Y-3.525
X5.35Y-3.625
X5.45Y-3.525
X5.45Y-3.625
X5.535Y-4.475
X5.535Y-4.575
X5.75Y-2.65
X5.75Y-2.75
X5.75Y-2.85
X5.75Y-3.075
X5.75Y-3.275
X5.75Y-3.375
X5.75Y-3.475
X5.75Y-3.575
X5.75Y-3.675
X5.75Y-3.775
X5.75Y-3.875
X5.75Y-3.975
X5.75Y-4.075
X5.75Y-4.175
X5.75Y-4.275
X5.75Y-4.375
X5.75Y-4.475
X5.75Y-4.575
X5.75Y-4.675
X5.75Y-4.775
X5.75Y-4.975
X5.75Y-5.2
X5.75Y-5.3
X5.75Y-5.4
X5.85Y-3.275
X5.85Y-3.375
X5.85Y-3.475
X5.85Y-3.575
X5.85Y-3.675
X5.85Y-3.775
X5.85Y-3.875
X5.85Y-3.975
X5.85Y-4.075
X5.85Y-4.175
X5.85Y-4.275
X5.85Y-4.375
X5.85Y-4.475
X5.85Y-4.575
X5.85Y-4.675
X5.85Y-4.775
X5.95Y-3.075
X5.95Y-3.275
X5.95Y-3.375
X5.95Y-3.475
X5.95Y-3.575
X5.95Y-3.675
X5.95Y-3.775
X5.95Y-3.875
X5.95Y-3.975
X5.95Y-4.075
X5.95Y-4.175
X5.95Y-4.275
X5.95Y-4.375
X5.95Y-4.475
X5.95Y-4.575
X5.95Y-4.675
X5.95Y-4.775
X5.95Y-4.975
X6.05Y-2.65
X6.05Y-2.75
X6.05Y-2.85
X6.05Y-3.075
X6.05Y-3.275
X6.05Y-3.375
X6.05Y-3.475
X6.05Y-3.575
X6.05Y-3.675
X6.05Y-3.775
X6.05Y-3.875
X6.05Y-3.975
X6.05Y-4.075
X6.05Y-4.175
X6.05Y-4.275
X6.05Y-4.375
X6.05Y-4.475
X6.05Y-4.575
X6.05Y-4.675
X6.05Y-4.775
X6.05Y-4.975
X6.05Y-5.2
X6.05Y-5.3
X6.05Y-5.4
X6.15Y-3.075
X6.15Y-3.275
X6.15Y-3.375
X6.15Y-3.475
X6.15Y-3.575
X6.15Y-3.675
X6.15Y-3.775
X6.15Y-3.875
X6.15Y-3.975
X6.15Y-4.075
X6.15Y-4.175
X6.15Y-4.275
X6.15Y-4.375
X6.15Y-4.475
X6.15Y-4.575
X6.15Y-4.675
X6.15Y-4.775
X6.15Y-4.975
X6.25Y-3.075
X6.25Y-3.275
X6.25Y-3.375
X6.25Y-3.475
X6.25Y-3.575
X6.25Y-3.675
X6.25Y-3.775
X6.25Y-3.875
X6.25Y-3.975
X6.25Y-4.075
X6.25Y-4.175
X6.25Y-4.275
X6.25Y-4.375
X6.25Y-4.475
X6.25Y-4.575
X6.25Y-4.675
X6.25Y-4.775
X6.25Y-4.975
X6.344Y-2.65
X6.344Y-2.75
X6.344Y-2.85
X6.35Y-3.075
X6.35Y-3.275
X6.35Y-3.375
X6.35Y-3.475
X6.35Y-3.575
X6.35Y-3.675
X6.35Y-3.775
X6.35Y-3.875
X6.35Y-3.975
X6.35Y-4.075
X6.35Y-4.175
X6.35Y-4.275
X6.35Y-4.375
X6.35Y-4.475
X6.35Y-4.575
X6.35Y-4.675
X6.35Y-4.775
X6.35Y-4.975
X6.35Y-5.2
X6.35Y-5.3
X6.35Y-5.4
X6.45Y-3.075
X6.45Y-3.275
X6.45Y-3.375
X6.45Y-3.475
X6.45Y-3.575
X6.45Y-3.675
X6.45Y-3.775
X6.45Y-3.875
X6.45Y-3.975
X6.45Y-4.075
X6.45Y-4.175
X6.45Y-4.275
X6.45Y-4.375
X6.45Y-4.475
X6.45Y-4.575
X6.45Y-4.675
X6.45Y-4.775
X6.45Y-4.975
X6.55Y-3.075
X6.55Y-4.975
X6.65Y-3.075
X6.65Y-3.275
X6.65Y-3.375
X6.65Y-3.475
X6.65Y-3.575
X6.65Y-3.675
X6.65Y-3.775
X6.65Y-3.875
X6.65Y-3.975
X6.65Y-4.075
X6.65Y-4.175
X6.65Y-4.275
X6.65Y-4.375
X6.65Y-4.475
X6.65Y-4.575
X6.65Y-4.675
X6.65Y-4.775
X6.65Y-4.975
T6
X1.99Y-3.655
X1.99Y-4.405
X2.5609Y-3.655
X2.5609Y-4.405
T7
X1.925Y-2.65
X1.925Y-5.4
X2.05Y-4.05
X2.55Y-4.05
X6.65Y-2.65
X6.65Y-5.4
T3
X1.997Y-2.8845G85X2.0128Y-2.8845
G05
X1.997Y-3.0755G85X2.0128Y-3.0755
G05
X5.2795Y-5.3439G85X5.2795Y-5.3281
G05
X5.4705Y-5.3439G85X5.4705Y-5.3281
G05
T4
X1.877Y-2.8727G85X1.8967Y-2.8727
G05
X1.877Y-3.0873G85X1.8967Y-3.0873
G05
X5.2677Y-5.464G85X5.2677Y-5.4443
G05
X5.4823Y-5.464G85X5.4823Y-5.4443
G05
T0
M30
