G04 #@! TF.FileFunction,Soldermask,Top*
%FSLAX46Y46*%
G04 Gerber Fmt 4.6, Leading zero omitted, Abs format (unit mm)*
G04 Created by KiCad (PCBNEW 4.0.1-stable) date 11/13/2016 6:28:19 PM*
%MOMM*%
G01*
G04 APERTURE LIST*
%ADD10C,0.100000*%
%ADD11R,1.198880X1.198880*%
%ADD12R,0.730000X0.300000*%
%ADD13R,0.300000X0.730000*%
%ADD14R,1.250000X1.250000*%
%ADD15R,2.032000X3.657600*%
%ADD16R,2.032000X1.016000*%
%ADD17R,0.400000X1.650000*%
%ADD18O,1.100000X1.500000*%
%ADD19O,1.200000X1.700000*%
%ADD20R,1.425000X2.500000*%
%ADD21R,1.100000X4.600000*%
%ADD22R,10.800000X9.400000*%
%ADD23R,2.032000X1.727200*%
%ADD24O,2.032000X1.727200*%
%ADD25R,0.700000X0.250000*%
%ADD26R,0.830000X1.190000*%
%ADD27R,1.727200X1.727200*%
%ADD28O,1.727200X1.727200*%
%ADD29R,2.999740X1.600200*%
%ADD30R,11.000000X3.000000*%
%ADD31R,1.650000X0.400000*%
%ADD32O,1.500000X1.100000*%
%ADD33O,1.700000X1.200000*%
%ADD34R,2.500000X1.425000*%
%ADD35R,1.651000X3.048000*%
%ADD36R,6.096000X6.096000*%
%ADD37R,1.550000X0.600000*%
%ADD38R,2.032000X2.032000*%
%ADD39O,2.032000X2.032000*%
%ADD40C,2.650000*%
%ADD41R,2.500000X4.000000*%
%ADD42R,4.000000X2.500000*%
%ADD43R,1.727200X2.032000*%
%ADD44O,1.727200X2.032000*%
%ADD45R,2.235200X2.235200*%
%ADD46R,1.300000X1.050000*%
%ADD47C,0.254000*%
G04 APERTURE END LIST*
D10*
G36*
X135262445Y-107337334D02*
X134873536Y-107726243D01*
X133742165Y-106594872D01*
X134131074Y-106205963D01*
X135262445Y-107337334D01*
X135262445Y-107337334D01*
G37*
G36*
X135828130Y-106771648D02*
X135439221Y-107160557D01*
X134307850Y-106029186D01*
X134696759Y-105640277D01*
X135828130Y-106771648D01*
X135828130Y-106771648D01*
G37*
G36*
X136393816Y-106205963D02*
X136004907Y-106594872D01*
X134873536Y-105463501D01*
X135262445Y-105074592D01*
X136393816Y-106205963D01*
X136393816Y-106205963D01*
G37*
G36*
X136959501Y-105640278D02*
X136570592Y-106029187D01*
X135439221Y-104897816D01*
X135828130Y-104508907D01*
X136959501Y-105640278D01*
X136959501Y-105640278D01*
G37*
G36*
X137525187Y-105074592D02*
X137136278Y-105463501D01*
X136004907Y-104332130D01*
X136393816Y-103943221D01*
X137525187Y-105074592D01*
X137525187Y-105074592D01*
G37*
G36*
X138090872Y-104508907D02*
X137701963Y-104897816D01*
X136570592Y-103766445D01*
X136959501Y-103377536D01*
X138090872Y-104508907D01*
X138090872Y-104508907D01*
G37*
G36*
X138656557Y-103943221D02*
X138267648Y-104332130D01*
X137136277Y-103200759D01*
X137525186Y-102811850D01*
X138656557Y-103943221D01*
X138656557Y-103943221D01*
G37*
G36*
X139222243Y-103377536D02*
X138833334Y-103766445D01*
X137701963Y-102635074D01*
X138090872Y-102246165D01*
X139222243Y-103377536D01*
X139222243Y-103377536D01*
G37*
G36*
X138833334Y-100195555D02*
X139222243Y-100584464D01*
X138090872Y-101715835D01*
X137701963Y-101326926D01*
X138833334Y-100195555D01*
X138833334Y-100195555D01*
G37*
G36*
X138267648Y-99629870D02*
X138656557Y-100018779D01*
X137525186Y-101150150D01*
X137136277Y-100761241D01*
X138267648Y-99629870D01*
X138267648Y-99629870D01*
G37*
G36*
X137701963Y-99064184D02*
X138090872Y-99453093D01*
X136959501Y-100584464D01*
X136570592Y-100195555D01*
X137701963Y-99064184D01*
X137701963Y-99064184D01*
G37*
G36*
X137136278Y-98498499D02*
X137525187Y-98887408D01*
X136393816Y-100018779D01*
X136004907Y-99629870D01*
X137136278Y-98498499D01*
X137136278Y-98498499D01*
G37*
G36*
X136570592Y-97932813D02*
X136959501Y-98321722D01*
X135828130Y-99453093D01*
X135439221Y-99064184D01*
X136570592Y-97932813D01*
X136570592Y-97932813D01*
G37*
G36*
X136004907Y-97367128D02*
X136393816Y-97756037D01*
X135262445Y-98887408D01*
X134873536Y-98498499D01*
X136004907Y-97367128D01*
X136004907Y-97367128D01*
G37*
G36*
X135439221Y-96801443D02*
X135828130Y-97190352D01*
X134696759Y-98321723D01*
X134307850Y-97932814D01*
X135439221Y-96801443D01*
X135439221Y-96801443D01*
G37*
G36*
X134873536Y-96235757D02*
X135262445Y-96624666D01*
X134131074Y-97756037D01*
X133742165Y-97367128D01*
X134873536Y-96235757D01*
X134873536Y-96235757D01*
G37*
G36*
X133211835Y-97367128D02*
X132822926Y-97756037D01*
X131691555Y-96624666D01*
X132080464Y-96235757D01*
X133211835Y-97367128D01*
X133211835Y-97367128D01*
G37*
G36*
X132646150Y-97932814D02*
X132257241Y-98321723D01*
X131125870Y-97190352D01*
X131514779Y-96801443D01*
X132646150Y-97932814D01*
X132646150Y-97932814D01*
G37*
G36*
X132080464Y-98498499D02*
X131691555Y-98887408D01*
X130560184Y-97756037D01*
X130949093Y-97367128D01*
X132080464Y-98498499D01*
X132080464Y-98498499D01*
G37*
G36*
X131514779Y-99064184D02*
X131125870Y-99453093D01*
X129994499Y-98321722D01*
X130383408Y-97932813D01*
X131514779Y-99064184D01*
X131514779Y-99064184D01*
G37*
G36*
X130949093Y-99629870D02*
X130560184Y-100018779D01*
X129428813Y-98887408D01*
X129817722Y-98498499D01*
X130949093Y-99629870D01*
X130949093Y-99629870D01*
G37*
G36*
X130383408Y-100195555D02*
X129994499Y-100584464D01*
X128863128Y-99453093D01*
X129252037Y-99064184D01*
X130383408Y-100195555D01*
X130383408Y-100195555D01*
G37*
G36*
X129817723Y-100761241D02*
X129428814Y-101150150D01*
X128297443Y-100018779D01*
X128686352Y-99629870D01*
X129817723Y-100761241D01*
X129817723Y-100761241D01*
G37*
G36*
X129252037Y-101326926D02*
X128863128Y-101715835D01*
X127731757Y-100584464D01*
X128120666Y-100195555D01*
X129252037Y-101326926D01*
X129252037Y-101326926D01*
G37*
G36*
X128863128Y-102246165D02*
X129252037Y-102635074D01*
X128120666Y-103766445D01*
X127731757Y-103377536D01*
X128863128Y-102246165D01*
X128863128Y-102246165D01*
G37*
G36*
X129428814Y-102811850D02*
X129817723Y-103200759D01*
X128686352Y-104332130D01*
X128297443Y-103943221D01*
X129428814Y-102811850D01*
X129428814Y-102811850D01*
G37*
G36*
X129994499Y-103377536D02*
X130383408Y-103766445D01*
X129252037Y-104897816D01*
X128863128Y-104508907D01*
X129994499Y-103377536D01*
X129994499Y-103377536D01*
G37*
G36*
X130560184Y-103943221D02*
X130949093Y-104332130D01*
X129817722Y-105463501D01*
X129428813Y-105074592D01*
X130560184Y-103943221D01*
X130560184Y-103943221D01*
G37*
G36*
X131125870Y-104508907D02*
X131514779Y-104897816D01*
X130383408Y-106029187D01*
X129994499Y-105640278D01*
X131125870Y-104508907D01*
X131125870Y-104508907D01*
G37*
G36*
X131691555Y-105074592D02*
X132080464Y-105463501D01*
X130949093Y-106594872D01*
X130560184Y-106205963D01*
X131691555Y-105074592D01*
X131691555Y-105074592D01*
G37*
G36*
X132257241Y-105640277D02*
X132646150Y-106029186D01*
X131514779Y-107160557D01*
X131125870Y-106771648D01*
X132257241Y-105640277D01*
X132257241Y-105640277D01*
G37*
G36*
X132822926Y-106205963D02*
X133211835Y-106594872D01*
X132080464Y-107726243D01*
X131691555Y-107337334D01*
X132822926Y-106205963D01*
X132822926Y-106205963D01*
G37*
D11*
X137253980Y-85471000D03*
X139352020Y-85471000D03*
D12*
X133925000Y-118380000D03*
X133925000Y-118880000D03*
X133925000Y-119380000D03*
X133925000Y-119880000D03*
X133925000Y-120380000D03*
D13*
X134890000Y-121345000D03*
X135390000Y-121345000D03*
X135890000Y-121345000D03*
X136390000Y-121345000D03*
X136890000Y-121345000D03*
D12*
X137855000Y-120380000D03*
X137855000Y-119880000D03*
X137855000Y-119380000D03*
X137855000Y-118880000D03*
X137855000Y-118380000D03*
D13*
X136890000Y-117415000D03*
X136390000Y-117415000D03*
X135890000Y-117415000D03*
X135390000Y-117415000D03*
X134890000Y-117415000D03*
D14*
X136515000Y-120005000D03*
X136515000Y-118755000D03*
X135265000Y-120005000D03*
X135265000Y-118755000D03*
D15*
X140462000Y-128651000D03*
D16*
X133858000Y-128651000D03*
X133858000Y-130937000D03*
X133858000Y-126365000D03*
D17*
X135225000Y-135660000D03*
X135875000Y-135660000D03*
X136524100Y-135660000D03*
X137175000Y-135660000D03*
X137825000Y-135660000D03*
D18*
X134100000Y-135535000D03*
X138950000Y-135535000D03*
D19*
X133800000Y-138535000D03*
X139250000Y-138535000D03*
D20*
X135562500Y-138785000D03*
X137487500Y-138785000D03*
D21*
X102850000Y-111760000D03*
X104550000Y-111760000D03*
X107950000Y-111760000D03*
D22*
X106250000Y-120910000D03*
D21*
X106250000Y-111760000D03*
X109650000Y-111760000D03*
X118950000Y-111500000D03*
X120650000Y-111500000D03*
X124050000Y-111500000D03*
D22*
X122350000Y-120650000D03*
D21*
X122350000Y-111500000D03*
X125750000Y-111500000D03*
D15*
X139065000Y-70485000D03*
D16*
X132461000Y-70485000D03*
X132461000Y-72771000D03*
X132461000Y-68199000D03*
D15*
X139065000Y-79375000D03*
D16*
X132461000Y-79375000D03*
X132461000Y-81661000D03*
X132461000Y-77089000D03*
D23*
X125730000Y-129540000D03*
D24*
X125730000Y-132080000D03*
X125730000Y-134620000D03*
X125730000Y-137160000D03*
D25*
X71631000Y-83415000D03*
X71631000Y-82915000D03*
X71631000Y-82415000D03*
X71631000Y-81915000D03*
X68831000Y-81915000D03*
X68831000Y-82415000D03*
X68831000Y-82915000D03*
X68831000Y-83415000D03*
D26*
X69816000Y-82070000D03*
X69816000Y-83260000D03*
X70646000Y-82070000D03*
X70646000Y-83260000D03*
D27*
X133350000Y-92075000D03*
D28*
X133350000Y-89535000D03*
X135890000Y-92075000D03*
X135890000Y-89535000D03*
X138430000Y-92075000D03*
X138430000Y-89535000D03*
D21*
X86770000Y-111500000D03*
X88470000Y-111500000D03*
X91870000Y-111500000D03*
D22*
X90170000Y-120650000D03*
D21*
X90170000Y-111500000D03*
X93570000Y-111500000D03*
D29*
X103164640Y-130810000D03*
X98765360Y-130810000D03*
D30*
X61046000Y-111887000D03*
X54546000Y-111887000D03*
D29*
X87289640Y-130810000D03*
X82890360Y-130810000D03*
X119674640Y-130810000D03*
X115275360Y-130810000D03*
X103799640Y-73660000D03*
X99400360Y-73660000D03*
X120309640Y-73660000D03*
X115910360Y-73660000D03*
X88219280Y-73660000D03*
X83820000Y-73660000D03*
D11*
X84234020Y-136906000D03*
X82135980Y-136906000D03*
X58420000Y-82042000D03*
X56321960Y-82042000D03*
X99888040Y-136906000D03*
X97790000Y-136906000D03*
X50358040Y-82042000D03*
X48260000Y-82042000D03*
X116492020Y-137160000D03*
X114393980Y-137160000D03*
X134239000Y-113030000D03*
X134239000Y-115128040D03*
X117254020Y-68072000D03*
X115155980Y-68072000D03*
X129540000Y-113030000D03*
X129540000Y-115128040D03*
X100744020Y-67945000D03*
X98645980Y-67945000D03*
X85504020Y-67945000D03*
X83405980Y-67945000D03*
X58547000Y-79087980D03*
X56448960Y-79087980D03*
D23*
X93345000Y-129540000D03*
D24*
X93345000Y-132080000D03*
X93345000Y-134620000D03*
X93345000Y-137160000D03*
D23*
X109220000Y-129540000D03*
D24*
X109220000Y-132080000D03*
X109220000Y-134620000D03*
X109220000Y-137160000D03*
D31*
X50800000Y-74392000D03*
X50800000Y-75042000D03*
X50800000Y-75691100D03*
X50800000Y-76342000D03*
X50800000Y-76992000D03*
D32*
X50925000Y-73267000D03*
X50925000Y-78117000D03*
D33*
X47925000Y-72967000D03*
X47925000Y-78417000D03*
D34*
X47675000Y-74729500D03*
X47675000Y-76654500D03*
D35*
X75311000Y-121285000D03*
D36*
X73025000Y-127635000D03*
D35*
X70739000Y-121285000D03*
D27*
X52070000Y-127254000D03*
D28*
X49530000Y-127254000D03*
X49530000Y-124714000D03*
X52070000Y-122174000D03*
X49530000Y-122174000D03*
D21*
X110080000Y-92970000D03*
X108380000Y-92970000D03*
X104980000Y-92970000D03*
D22*
X106680000Y-83820000D03*
D21*
X106680000Y-92970000D03*
X103280000Y-92970000D03*
X126365000Y-92970000D03*
X124665000Y-92970000D03*
X121265000Y-92970000D03*
D22*
X122965000Y-83820000D03*
D21*
X122965000Y-92970000D03*
X119565000Y-92970000D03*
X93570000Y-92970000D03*
X91870000Y-92970000D03*
X88470000Y-92970000D03*
D22*
X90170000Y-83820000D03*
D21*
X90170000Y-92970000D03*
X86770000Y-92970000D03*
D13*
X65018000Y-72721000D03*
X64518000Y-72721000D03*
X64018000Y-72721000D03*
X63518000Y-72721000D03*
X63018000Y-72721000D03*
D12*
X62053000Y-73686000D03*
X62053000Y-74186000D03*
X62053000Y-74686000D03*
X62053000Y-75186000D03*
X62053000Y-75686000D03*
D13*
X63018000Y-76651000D03*
X63518000Y-76651000D03*
X64018000Y-76651000D03*
X64518000Y-76651000D03*
X65018000Y-76651000D03*
D12*
X65983000Y-75686000D03*
X65983000Y-75186000D03*
X65983000Y-74686000D03*
X65983000Y-74186000D03*
X65983000Y-73686000D03*
D14*
X63393000Y-75311000D03*
X64643000Y-75311000D03*
X63393000Y-74061000D03*
X64643000Y-74061000D03*
D37*
X72959000Y-67564000D03*
X72959000Y-68834000D03*
X72959000Y-70104000D03*
X72959000Y-71374000D03*
X78359000Y-71374000D03*
X78359000Y-70104000D03*
X78359000Y-68834000D03*
X78359000Y-67564000D03*
D23*
X126365000Y-74930000D03*
D24*
X126365000Y-72390000D03*
X126365000Y-69850000D03*
X126365000Y-67310000D03*
D23*
X109855000Y-74930000D03*
D24*
X109855000Y-72390000D03*
X109855000Y-69850000D03*
X109855000Y-67310000D03*
D23*
X93980000Y-74930000D03*
D24*
X93980000Y-72390000D03*
X93980000Y-69850000D03*
X93980000Y-67310000D03*
D30*
X54546000Y-92837000D03*
X61046000Y-92837000D03*
D38*
X63500000Y-127254000D03*
D39*
X63500000Y-124714000D03*
D38*
X57785000Y-127254000D03*
D39*
X57785000Y-124714000D03*
D40*
X48895000Y-137160000D03*
X168910000Y-137160000D03*
X168910000Y-67310000D03*
X48895000Y-67310000D03*
D41*
X79375000Y-93343000D03*
X79375000Y-99443000D03*
X79375000Y-111381000D03*
X79375000Y-105281000D03*
D42*
X93220000Y-102235000D03*
X87120000Y-102235000D03*
D23*
X146050000Y-137160000D03*
D24*
X146050000Y-134620000D03*
X146050000Y-132080000D03*
D23*
X153670000Y-137160000D03*
D24*
X153670000Y-134620000D03*
X153670000Y-132080000D03*
D23*
X161290000Y-137160000D03*
D24*
X161290000Y-134620000D03*
X161290000Y-132080000D03*
D23*
X146050000Y-67310000D03*
D24*
X146050000Y-69850000D03*
X146050000Y-72390000D03*
D23*
X153670000Y-67310000D03*
D24*
X153670000Y-69850000D03*
X153670000Y-72390000D03*
D23*
X161137600Y-67310000D03*
D24*
X161137600Y-69850000D03*
X161137600Y-72390000D03*
D43*
X151130000Y-126365000D03*
D44*
X153670000Y-126365000D03*
X156210000Y-126365000D03*
X158750000Y-126365000D03*
X161290000Y-126365000D03*
X163830000Y-126365000D03*
X166370000Y-126365000D03*
X168910000Y-126365000D03*
D27*
X146050000Y-121285000D03*
D28*
X146050000Y-118745000D03*
X148590000Y-121285000D03*
X148590000Y-118745000D03*
X151130000Y-121285000D03*
X151130000Y-118745000D03*
X153670000Y-121285000D03*
X153670000Y-118745000D03*
X156210000Y-121285000D03*
X156210000Y-118745000D03*
X158750000Y-121285000D03*
X158750000Y-118745000D03*
X161290000Y-121285000D03*
X161290000Y-118745000D03*
X163830000Y-121285000D03*
X163830000Y-118745000D03*
D27*
X146050000Y-116205000D03*
D28*
X146050000Y-113665000D03*
X148590000Y-116205000D03*
X148590000Y-113665000D03*
X151130000Y-116205000D03*
X151130000Y-113665000D03*
X153670000Y-116205000D03*
X153670000Y-113665000D03*
X156210000Y-116205000D03*
X156210000Y-113665000D03*
X158750000Y-116205000D03*
X158750000Y-113665000D03*
X161290000Y-116205000D03*
X161290000Y-113665000D03*
X163830000Y-116205000D03*
X163830000Y-113665000D03*
D27*
X146050000Y-111125000D03*
D28*
X146050000Y-108585000D03*
X148590000Y-111125000D03*
X148590000Y-108585000D03*
X151130000Y-111125000D03*
X151130000Y-108585000D03*
X153670000Y-111125000D03*
X153670000Y-108585000D03*
X156210000Y-111125000D03*
X156210000Y-108585000D03*
X158750000Y-111125000D03*
X158750000Y-108585000D03*
X161290000Y-111125000D03*
X161290000Y-108585000D03*
X163830000Y-111125000D03*
X163830000Y-108585000D03*
D27*
X146050000Y-106045000D03*
D28*
X146050000Y-103505000D03*
X148590000Y-106045000D03*
X148590000Y-103505000D03*
X151130000Y-106045000D03*
X151130000Y-103505000D03*
X153670000Y-106045000D03*
X153670000Y-103505000D03*
X156210000Y-106045000D03*
X156210000Y-103505000D03*
X158750000Y-106045000D03*
X158750000Y-103505000D03*
X161290000Y-106045000D03*
X161290000Y-103505000D03*
X163830000Y-106045000D03*
X163830000Y-103505000D03*
D23*
X168910000Y-83185000D03*
D24*
X168910000Y-85725000D03*
X168910000Y-88265000D03*
X168910000Y-90805000D03*
X168910000Y-93345000D03*
X168910000Y-95885000D03*
X168910000Y-98425000D03*
X168910000Y-100965000D03*
X168910000Y-103505000D03*
X168910000Y-106045000D03*
X168910000Y-108585000D03*
X168910000Y-111125000D03*
X168910000Y-113665000D03*
X168910000Y-116205000D03*
X168910000Y-118745000D03*
X168910000Y-121285000D03*
D27*
X146050000Y-100965000D03*
D28*
X146050000Y-98425000D03*
X148590000Y-100965000D03*
X148590000Y-98425000D03*
X151130000Y-100965000D03*
X151130000Y-98425000D03*
X153670000Y-100965000D03*
X153670000Y-98425000D03*
X156210000Y-100965000D03*
X156210000Y-98425000D03*
X158750000Y-100965000D03*
X158750000Y-98425000D03*
X161290000Y-100965000D03*
X161290000Y-98425000D03*
X163830000Y-100965000D03*
X163830000Y-98425000D03*
D27*
X146050000Y-95885000D03*
D28*
X146050000Y-93345000D03*
X148590000Y-95885000D03*
X148590000Y-93345000D03*
X151130000Y-95885000D03*
X151130000Y-93345000D03*
X153670000Y-95885000D03*
X153670000Y-93345000D03*
X156210000Y-95885000D03*
X156210000Y-93345000D03*
X158750000Y-95885000D03*
X158750000Y-93345000D03*
X161290000Y-95885000D03*
X161290000Y-93345000D03*
X163830000Y-95885000D03*
X163830000Y-93345000D03*
D27*
X146050000Y-90805000D03*
D28*
X146050000Y-88265000D03*
X148590000Y-90805000D03*
X148590000Y-88265000D03*
X151130000Y-90805000D03*
X151130000Y-88265000D03*
X153670000Y-90805000D03*
X153670000Y-88265000D03*
X156210000Y-90805000D03*
X156210000Y-88265000D03*
X158750000Y-90805000D03*
X158750000Y-88265000D03*
X161290000Y-90805000D03*
X161290000Y-88265000D03*
X163830000Y-90805000D03*
X163830000Y-88265000D03*
D27*
X146050000Y-85725000D03*
D28*
X146050000Y-83185000D03*
X148590000Y-85725000D03*
X148590000Y-83185000D03*
X151130000Y-85725000D03*
X151130000Y-83185000D03*
X153670000Y-85725000D03*
X153670000Y-83185000D03*
X156210000Y-85725000D03*
X156210000Y-83185000D03*
X158750000Y-85725000D03*
X158750000Y-83185000D03*
X161290000Y-85725000D03*
X161290000Y-83185000D03*
X163830000Y-85725000D03*
X163830000Y-83185000D03*
D43*
X151130000Y-78105000D03*
D44*
X153670000Y-78105000D03*
X156210000Y-78105000D03*
X158750000Y-78105000D03*
X161290000Y-78105000D03*
X163830000Y-78105000D03*
X166370000Y-78105000D03*
X168910000Y-78105000D03*
D40*
X52070000Y-102870000D03*
X64770000Y-102870000D03*
D45*
X146050000Y-126365000D03*
X146050000Y-78105000D03*
D46*
X140723000Y-106644000D03*
X138423000Y-106644000D03*
X138423000Y-108494000D03*
X140723000Y-108494000D03*
D38*
X140589000Y-116205000D03*
D39*
X140589000Y-113665000D03*
D47*
G36*
X66548000Y-94488000D02*
X49022000Y-94488000D01*
X49022000Y-91567000D01*
X66548000Y-91567000D01*
X66548000Y-94488000D01*
X66548000Y-94488000D01*
G37*
X66548000Y-94488000D02*
X49022000Y-94488000D01*
X49022000Y-91567000D01*
X66548000Y-91567000D01*
X66548000Y-94488000D01*
G36*
X66548000Y-113538000D02*
X49022000Y-113538000D01*
X49022000Y-110617000D01*
X66548000Y-110617000D01*
X66548000Y-113538000D01*
X66548000Y-113538000D01*
G37*
X66548000Y-113538000D02*
X49022000Y-113538000D01*
X49022000Y-110617000D01*
X66548000Y-110617000D01*
X66548000Y-113538000D01*
G36*
X139954000Y-136398000D02*
X138430000Y-136398000D01*
X138430000Y-134620000D01*
X139954000Y-134620000D01*
X139954000Y-136398000D01*
X139954000Y-136398000D01*
G37*
X139954000Y-136398000D02*
X138430000Y-136398000D01*
X138430000Y-134620000D01*
X139954000Y-134620000D01*
X139954000Y-136398000D01*
G36*
X134620000Y-136398000D02*
X133096000Y-136398000D01*
X133096000Y-134620000D01*
X134620000Y-134620000D01*
X134620000Y-136398000D01*
X134620000Y-136398000D01*
G37*
X134620000Y-136398000D02*
X133096000Y-136398000D01*
X133096000Y-134620000D01*
X134620000Y-134620000D01*
X134620000Y-136398000D01*
G36*
X51816000Y-78994000D02*
X50038000Y-78994000D01*
X50038000Y-77724000D01*
X51816000Y-77724000D01*
X51816000Y-78994000D01*
X51816000Y-78994000D01*
G37*
X51816000Y-78994000D02*
X50038000Y-78994000D01*
X50038000Y-77724000D01*
X51816000Y-77724000D01*
X51816000Y-78994000D01*
G36*
X51816000Y-73660000D02*
X50038000Y-73660000D01*
X50038000Y-72390000D01*
X51816000Y-72390000D01*
X51816000Y-73660000D01*
X51816000Y-73660000D01*
G37*
X51816000Y-73660000D02*
X50038000Y-73660000D01*
X50038000Y-72390000D01*
X51816000Y-72390000D01*
X51816000Y-73660000D01*
M02*
