G04 #@! TF.FileFunction,Legend,Top*
%FSLAX46Y46*%
G04 Gerber Fmt 4.6, Leading zero omitted, Abs format (unit mm)*
G04 Created by KiCad (PCBNEW 4.0.0-rc1-stable) date 12/2/2015 9:18:31 PM*
%MOMM*%
G01*
G04 APERTURE LIST*
%ADD10C,0.100000*%
%ADD11C,0.150000*%
%ADD12C,0.127000*%
G04 APERTURE END LIST*
D10*
D11*
X167081200Y-88765380D02*
X159461200Y-88765380D01*
X159461200Y-92321380D02*
X167081200Y-92321380D01*
X167081200Y-88765380D02*
X167081200Y-92321380D01*
X159461200Y-92321380D02*
X159461200Y-88765380D01*
X160328410Y-91813380D02*
G75*
G03X160328410Y-91813380I-359210J0D01*
G01*
X159461200Y-89908380D02*
X160223200Y-89908380D01*
X160223200Y-89908380D02*
X160223200Y-91178380D01*
X160223200Y-91178380D02*
X159461200Y-91178380D01*
X144140480Y-95844180D02*
X144140480Y-96544180D01*
X142940480Y-96544180D02*
X142940480Y-95844180D01*
X139962180Y-95230900D02*
X139962180Y-95930900D01*
X138762180Y-95930900D02*
X138762180Y-95230900D01*
X144061740Y-91240560D02*
X144061740Y-91940560D01*
X142861740Y-91940560D02*
X142861740Y-91240560D01*
X148904400Y-97198360D02*
X148904400Y-96498360D01*
X150104400Y-96498360D02*
X150104400Y-97198360D01*
X148184160Y-91321840D02*
X148184160Y-92021840D01*
X146984160Y-92021840D02*
X146984160Y-91321840D01*
X152273560Y-91212620D02*
X152273560Y-91912620D01*
X151073560Y-91912620D02*
X151073560Y-91212620D01*
X155785300Y-98572880D02*
X155085300Y-98572880D01*
X155085300Y-97372880D02*
X155785300Y-97372880D01*
X152735980Y-85859420D02*
X152735980Y-83159420D01*
X151235980Y-85859420D02*
X151235980Y-83159420D01*
X152135980Y-84359420D02*
X151885980Y-84359420D01*
X151885980Y-84359420D02*
X152035980Y-84509420D01*
X151635980Y-84609420D02*
X152335980Y-84609420D01*
X151985980Y-84259420D02*
X151985980Y-83909420D01*
X151985980Y-84609420D02*
X151635980Y-84259420D01*
X151635980Y-84259420D02*
X152335980Y-84259420D01*
X152335980Y-84259420D02*
X151985980Y-84609420D01*
X142861650Y-85852784D02*
X142861650Y-83152784D01*
X141361650Y-85852784D02*
X141361650Y-83152784D01*
X142261650Y-84352784D02*
X142011650Y-84352784D01*
X142011650Y-84352784D02*
X142161650Y-84502784D01*
X141761650Y-84602784D02*
X142461650Y-84602784D01*
X142111650Y-84252784D02*
X142111650Y-83902784D01*
X142111650Y-84602784D02*
X141761650Y-84252784D01*
X141761650Y-84252784D02*
X142461650Y-84252784D01*
X142461650Y-84252784D02*
X142111650Y-84602784D01*
X147780440Y-85851800D02*
X147780440Y-83151800D01*
X146280440Y-85851800D02*
X146280440Y-83151800D01*
X147180440Y-84351800D02*
X146930440Y-84351800D01*
X146930440Y-84351800D02*
X147080440Y-84501800D01*
X146680440Y-84601800D02*
X147380440Y-84601800D01*
X147030440Y-84251800D02*
X147030440Y-83901800D01*
X147030440Y-84601800D02*
X146680440Y-84251800D01*
X146680440Y-84251800D02*
X147380440Y-84251800D01*
X147380440Y-84251800D02*
X147030440Y-84601800D01*
X138682100Y-92117100D02*
X138682100Y-91117100D01*
X140032100Y-91117100D02*
X140032100Y-92117100D01*
X127500380Y-85620860D02*
X127500380Y-93322140D01*
X126499620Y-85620860D02*
X126499620Y-93322140D01*
X126499620Y-93322140D02*
X135699500Y-93322140D01*
X135699500Y-93322140D02*
X135699500Y-85620860D01*
X135699500Y-85620860D02*
X126499620Y-85620860D01*
X166906580Y-99112260D02*
X166906580Y-98112260D01*
X168256580Y-98112260D02*
X168256580Y-99112260D01*
X170947720Y-99984880D02*
X170947720Y-98984880D01*
X172297720Y-98984880D02*
X172297720Y-99984880D01*
X151326220Y-80233840D02*
X151326220Y-79233840D01*
X152676220Y-79233840D02*
X152676220Y-80233840D01*
X141501500Y-80282100D02*
X141501500Y-79282100D01*
X142851500Y-79282100D02*
X142851500Y-80282100D01*
X146388460Y-80233840D02*
X146388460Y-79233840D01*
X147738460Y-79233840D02*
X147738460Y-80233840D01*
X154529160Y-92033280D02*
X154529160Y-91033280D01*
X155879160Y-91033280D02*
X155879160Y-92033280D01*
X162373940Y-96608580D02*
X162373940Y-97608580D01*
X161023940Y-97608580D02*
X161023940Y-96608580D01*
X168943660Y-95462280D02*
X168943660Y-94462280D01*
X170293660Y-94462280D02*
X170293660Y-95462280D01*
X162509295Y-89360761D02*
X162509295Y-90170285D01*
X162556914Y-90265523D01*
X162604533Y-90313142D01*
X162699771Y-90360761D01*
X162890248Y-90360761D01*
X162985486Y-90313142D01*
X163033105Y-90265523D01*
X163080724Y-90170285D01*
X163080724Y-89360761D01*
X164080724Y-90360761D02*
X163509295Y-90360761D01*
X163795009Y-90360761D02*
X163795009Y-89360761D01*
X163699771Y-89503618D01*
X163604533Y-89598856D01*
X163509295Y-89646475D01*
X143413480Y-99027343D02*
X143377194Y-99063629D01*
X143268337Y-99099914D01*
X143195766Y-99099914D01*
X143086909Y-99063629D01*
X143014337Y-98991057D01*
X142978052Y-98918486D01*
X142941766Y-98773343D01*
X142941766Y-98664486D01*
X142978052Y-98519343D01*
X143014337Y-98446771D01*
X143086909Y-98374200D01*
X143195766Y-98337914D01*
X143268337Y-98337914D01*
X143377194Y-98374200D01*
X143413480Y-98410486D01*
X143703766Y-98410486D02*
X143740052Y-98374200D01*
X143812623Y-98337914D01*
X143994052Y-98337914D01*
X144066623Y-98374200D01*
X144102909Y-98410486D01*
X144139194Y-98483057D01*
X144139194Y-98555629D01*
X144102909Y-98664486D01*
X143667480Y-99099914D01*
X144139194Y-99099914D01*
X139263120Y-98229783D02*
X139226834Y-98266069D01*
X139117977Y-98302354D01*
X139045406Y-98302354D01*
X138936549Y-98266069D01*
X138863977Y-98193497D01*
X138827692Y-98120926D01*
X138791406Y-97975783D01*
X138791406Y-97866926D01*
X138827692Y-97721783D01*
X138863977Y-97649211D01*
X138936549Y-97576640D01*
X139045406Y-97540354D01*
X139117977Y-97540354D01*
X139226834Y-97576640D01*
X139263120Y-97612926D01*
X139988834Y-98302354D02*
X139553406Y-98302354D01*
X139771120Y-98302354D02*
X139771120Y-97540354D01*
X139698549Y-97649211D01*
X139625977Y-97721783D01*
X139553406Y-97758069D01*
X143340794Y-89601443D02*
X143293175Y-89649062D01*
X143150318Y-89696681D01*
X143055080Y-89696681D01*
X142912222Y-89649062D01*
X142816984Y-89553824D01*
X142769365Y-89458586D01*
X142721746Y-89268110D01*
X142721746Y-89125252D01*
X142769365Y-88934776D01*
X142816984Y-88839538D01*
X142912222Y-88744300D01*
X143055080Y-88696681D01*
X143150318Y-88696681D01*
X143293175Y-88744300D01*
X143340794Y-88791919D01*
X143674127Y-88696681D02*
X144293175Y-88696681D01*
X143959841Y-89077633D01*
X144102699Y-89077633D01*
X144197937Y-89125252D01*
X144245556Y-89172871D01*
X144293175Y-89268110D01*
X144293175Y-89506205D01*
X144245556Y-89601443D01*
X144197937Y-89649062D01*
X144102699Y-89696681D01*
X143816984Y-89696681D01*
X143721746Y-89649062D01*
X143674127Y-89601443D01*
X147960443Y-96469200D02*
X147996729Y-96505486D01*
X148033014Y-96614343D01*
X148033014Y-96686914D01*
X147996729Y-96795771D01*
X147924157Y-96868343D01*
X147851586Y-96904628D01*
X147706443Y-96940914D01*
X147597586Y-96940914D01*
X147452443Y-96904628D01*
X147379871Y-96868343D01*
X147307300Y-96795771D01*
X147271014Y-96686914D01*
X147271014Y-96614343D01*
X147307300Y-96505486D01*
X147343586Y-96469200D01*
X147525014Y-95816057D02*
X148033014Y-95816057D01*
X147234729Y-95997486D02*
X147779014Y-96178914D01*
X147779014Y-95707200D01*
X147417494Y-89782923D02*
X147369875Y-89830542D01*
X147227018Y-89878161D01*
X147131780Y-89878161D01*
X146988922Y-89830542D01*
X146893684Y-89735304D01*
X146846065Y-89640066D01*
X146798446Y-89449590D01*
X146798446Y-89306732D01*
X146846065Y-89116256D01*
X146893684Y-89021018D01*
X146988922Y-88925780D01*
X147131780Y-88878161D01*
X147227018Y-88878161D01*
X147369875Y-88925780D01*
X147417494Y-88973399D01*
X148322256Y-88878161D02*
X147846065Y-88878161D01*
X147798446Y-89354351D01*
X147846065Y-89306732D01*
X147941303Y-89259113D01*
X148179399Y-89259113D01*
X148274637Y-89306732D01*
X148322256Y-89354351D01*
X148369875Y-89449590D01*
X148369875Y-89687685D01*
X148322256Y-89782923D01*
X148274637Y-89830542D01*
X148179399Y-89878161D01*
X147941303Y-89878161D01*
X147846065Y-89830542D01*
X147798446Y-89782923D01*
X151496734Y-89605123D02*
X151449115Y-89652742D01*
X151306258Y-89700361D01*
X151211020Y-89700361D01*
X151068162Y-89652742D01*
X150972924Y-89557504D01*
X150925305Y-89462266D01*
X150877686Y-89271790D01*
X150877686Y-89128932D01*
X150925305Y-88938456D01*
X150972924Y-88843218D01*
X151068162Y-88747980D01*
X151211020Y-88700361D01*
X151306258Y-88700361D01*
X151449115Y-88747980D01*
X151496734Y-88795599D01*
X152353877Y-88700361D02*
X152163400Y-88700361D01*
X152068162Y-88747980D01*
X152020543Y-88795599D01*
X151925305Y-88938456D01*
X151877686Y-89128932D01*
X151877686Y-89509885D01*
X151925305Y-89605123D01*
X151972924Y-89652742D01*
X152068162Y-89700361D01*
X152258639Y-89700361D01*
X152353877Y-89652742D01*
X152401496Y-89605123D01*
X152449115Y-89509885D01*
X152449115Y-89271790D01*
X152401496Y-89176551D01*
X152353877Y-89128932D01*
X152258639Y-89081313D01*
X152068162Y-89081313D01*
X151972924Y-89128932D01*
X151925305Y-89176551D01*
X151877686Y-89271790D01*
X153230243Y-97927160D02*
X153266529Y-97963446D01*
X153302814Y-98072303D01*
X153302814Y-98144874D01*
X153266529Y-98253731D01*
X153193957Y-98326303D01*
X153121386Y-98362588D01*
X152976243Y-98398874D01*
X152867386Y-98398874D01*
X152722243Y-98362588D01*
X152649671Y-98326303D01*
X152577100Y-98253731D01*
X152540814Y-98144874D01*
X152540814Y-98072303D01*
X152577100Y-97963446D01*
X152613386Y-97927160D01*
X152540814Y-97673160D02*
X152540814Y-97165160D01*
X153302814Y-97491731D01*
X149246772Y-82498474D02*
X149246772Y-81736474D01*
X149428200Y-81736474D01*
X149537057Y-81772760D01*
X149609629Y-81845331D01*
X149645914Y-81917903D01*
X149682200Y-82063046D01*
X149682200Y-82171903D01*
X149645914Y-82317046D01*
X149609629Y-82389617D01*
X149537057Y-82462189D01*
X149428200Y-82498474D01*
X149246772Y-82498474D01*
X150407914Y-82498474D02*
X149972486Y-82498474D01*
X150190200Y-82498474D02*
X150190200Y-81736474D01*
X150117629Y-81845331D01*
X150045057Y-81917903D01*
X149972486Y-81954189D01*
X139561752Y-83222374D02*
X139561752Y-82460374D01*
X139743180Y-82460374D01*
X139852037Y-82496660D01*
X139924609Y-82569231D01*
X139960894Y-82641803D01*
X139997180Y-82786946D01*
X139997180Y-82895803D01*
X139960894Y-83040946D01*
X139924609Y-83113517D01*
X139852037Y-83186089D01*
X139743180Y-83222374D01*
X139561752Y-83222374D01*
X140287466Y-82532946D02*
X140323752Y-82496660D01*
X140396323Y-82460374D01*
X140577752Y-82460374D01*
X140650323Y-82496660D01*
X140686609Y-82532946D01*
X140722894Y-82605517D01*
X140722894Y-82678089D01*
X140686609Y-82786946D01*
X140251180Y-83222374D01*
X140722894Y-83222374D01*
X144402992Y-83438274D02*
X144402992Y-82676274D01*
X144584420Y-82676274D01*
X144693277Y-82712560D01*
X144765849Y-82785131D01*
X144802134Y-82857703D01*
X144838420Y-83002846D01*
X144838420Y-83111703D01*
X144802134Y-83256846D01*
X144765849Y-83329417D01*
X144693277Y-83401989D01*
X144584420Y-83438274D01*
X144402992Y-83438274D01*
X145092420Y-82676274D02*
X145564134Y-82676274D01*
X145310134Y-82966560D01*
X145418992Y-82966560D01*
X145491563Y-83002846D01*
X145527849Y-83039131D01*
X145564134Y-83111703D01*
X145564134Y-83293131D01*
X145527849Y-83365703D01*
X145491563Y-83401989D01*
X145418992Y-83438274D01*
X145201277Y-83438274D01*
X145128706Y-83401989D01*
X145092420Y-83365703D01*
X139347914Y-89825961D02*
X138871723Y-89825961D01*
X138871723Y-88825961D01*
X140205057Y-89825961D02*
X139633628Y-89825961D01*
X139919342Y-89825961D02*
X139919342Y-88825961D01*
X139824104Y-88968818D01*
X139728866Y-89064056D01*
X139633628Y-89111675D01*
X130361465Y-96825061D02*
X130361465Y-95825061D01*
X130742418Y-95825061D01*
X130837656Y-95872680D01*
X130885275Y-95920299D01*
X130932894Y-96015537D01*
X130932894Y-96158394D01*
X130885275Y-96253632D01*
X130837656Y-96301251D01*
X130742418Y-96348870D01*
X130361465Y-96348870D01*
X131885275Y-96825061D02*
X131313846Y-96825061D01*
X131599560Y-96825061D02*
X131599560Y-95825061D01*
X131504322Y-95967918D01*
X131409084Y-96063156D01*
X131313846Y-96110775D01*
X166372801Y-98220826D02*
X165896610Y-98554160D01*
X166372801Y-98792255D02*
X165372801Y-98792255D01*
X165372801Y-98411302D01*
X165420420Y-98316064D01*
X165468039Y-98268445D01*
X165563277Y-98220826D01*
X165706134Y-98220826D01*
X165801372Y-98268445D01*
X165848991Y-98316064D01*
X165896610Y-98411302D01*
X165896610Y-98792255D01*
X166372801Y-97268445D02*
X166372801Y-97839874D01*
X166372801Y-97554160D02*
X165372801Y-97554160D01*
X165515658Y-97649398D01*
X165610896Y-97744636D01*
X165658515Y-97839874D01*
X173977561Y-99650846D02*
X173501370Y-99984180D01*
X173977561Y-100222275D02*
X172977561Y-100222275D01*
X172977561Y-99841322D01*
X173025180Y-99746084D01*
X173072799Y-99698465D01*
X173168037Y-99650846D01*
X173310894Y-99650846D01*
X173406132Y-99698465D01*
X173453751Y-99746084D01*
X173501370Y-99841322D01*
X173501370Y-100222275D01*
X173072799Y-99269894D02*
X173025180Y-99222275D01*
X172977561Y-99127037D01*
X172977561Y-98888941D01*
X173025180Y-98793703D01*
X173072799Y-98746084D01*
X173168037Y-98698465D01*
X173263275Y-98698465D01*
X173406132Y-98746084D01*
X173977561Y-99317513D01*
X173977561Y-98698465D01*
X151877734Y-78064621D02*
X151544400Y-77588430D01*
X151306305Y-78064621D02*
X151306305Y-77064621D01*
X151687258Y-77064621D01*
X151782496Y-77112240D01*
X151830115Y-77159859D01*
X151877734Y-77255097D01*
X151877734Y-77397954D01*
X151830115Y-77493192D01*
X151782496Y-77540811D01*
X151687258Y-77588430D01*
X151306305Y-77588430D01*
X152211067Y-77064621D02*
X152830115Y-77064621D01*
X152496781Y-77445573D01*
X152639639Y-77445573D01*
X152734877Y-77493192D01*
X152782496Y-77540811D01*
X152830115Y-77636050D01*
X152830115Y-77874145D01*
X152782496Y-77969383D01*
X152734877Y-78017002D01*
X152639639Y-78064621D01*
X152353924Y-78064621D01*
X152258686Y-78017002D01*
X152211067Y-77969383D01*
X142195254Y-78064621D02*
X141861920Y-77588430D01*
X141623825Y-78064621D02*
X141623825Y-77064621D01*
X142004778Y-77064621D01*
X142100016Y-77112240D01*
X142147635Y-77159859D01*
X142195254Y-77255097D01*
X142195254Y-77397954D01*
X142147635Y-77493192D01*
X142100016Y-77540811D01*
X142004778Y-77588430D01*
X141623825Y-77588430D01*
X143052397Y-77397954D02*
X143052397Y-78064621D01*
X142814301Y-77017002D02*
X142576206Y-77731288D01*
X143195254Y-77731288D01*
X146960294Y-77963021D02*
X146626960Y-77486830D01*
X146388865Y-77963021D02*
X146388865Y-76963021D01*
X146769818Y-76963021D01*
X146865056Y-77010640D01*
X146912675Y-77058259D01*
X146960294Y-77153497D01*
X146960294Y-77296354D01*
X146912675Y-77391592D01*
X146865056Y-77439211D01*
X146769818Y-77486830D01*
X146388865Y-77486830D01*
X147865056Y-76963021D02*
X147388865Y-76963021D01*
X147341246Y-77439211D01*
X147388865Y-77391592D01*
X147484103Y-77343973D01*
X147722199Y-77343973D01*
X147817437Y-77391592D01*
X147865056Y-77439211D01*
X147912675Y-77534450D01*
X147912675Y-77772545D01*
X147865056Y-77867783D01*
X147817437Y-77915402D01*
X147722199Y-77963021D01*
X147484103Y-77963021D01*
X147388865Y-77915402D01*
X147341246Y-77867783D01*
D12*
X155343013Y-89917210D02*
X155173680Y-89675305D01*
X155052727Y-89917210D02*
X155052727Y-89409210D01*
X155246251Y-89409210D01*
X155294632Y-89433400D01*
X155318823Y-89457590D01*
X155343013Y-89505971D01*
X155343013Y-89578543D01*
X155318823Y-89626924D01*
X155294632Y-89651114D01*
X155246251Y-89675305D01*
X155052727Y-89675305D01*
X155778442Y-89409210D02*
X155681680Y-89409210D01*
X155633299Y-89433400D01*
X155609108Y-89457590D01*
X155560727Y-89530162D01*
X155536537Y-89626924D01*
X155536537Y-89820448D01*
X155560727Y-89868829D01*
X155584918Y-89893019D01*
X155633299Y-89917210D01*
X155730061Y-89917210D01*
X155778442Y-89893019D01*
X155802632Y-89868829D01*
X155826823Y-89820448D01*
X155826823Y-89699495D01*
X155802632Y-89651114D01*
X155778442Y-89626924D01*
X155730061Y-89602733D01*
X155633299Y-89602733D01*
X155584918Y-89626924D01*
X155560727Y-89651114D01*
X155536537Y-89699495D01*
D11*
X161555134Y-100018981D02*
X161221800Y-99542790D01*
X160983705Y-100018981D02*
X160983705Y-99018981D01*
X161364658Y-99018981D01*
X161459896Y-99066600D01*
X161507515Y-99114219D01*
X161555134Y-99209457D01*
X161555134Y-99352314D01*
X161507515Y-99447552D01*
X161459896Y-99495171D01*
X161364658Y-99542790D01*
X160983705Y-99542790D01*
X161888467Y-99018981D02*
X162555134Y-99018981D01*
X162126562Y-100018981D01*
X169567860Y-97354934D02*
X169313860Y-96992077D01*
X169132432Y-97354934D02*
X169132432Y-96592934D01*
X169422717Y-96592934D01*
X169495289Y-96629220D01*
X169531574Y-96665506D01*
X169567860Y-96738077D01*
X169567860Y-96846934D01*
X169531574Y-96919506D01*
X169495289Y-96955791D01*
X169422717Y-96992077D01*
X169132432Y-96992077D01*
X170003289Y-96919506D02*
X169930717Y-96883220D01*
X169894432Y-96846934D01*
X169858146Y-96774363D01*
X169858146Y-96738077D01*
X169894432Y-96665506D01*
X169930717Y-96629220D01*
X170003289Y-96592934D01*
X170148432Y-96592934D01*
X170221003Y-96629220D01*
X170257289Y-96665506D01*
X170293574Y-96738077D01*
X170293574Y-96774363D01*
X170257289Y-96846934D01*
X170221003Y-96883220D01*
X170148432Y-96919506D01*
X170003289Y-96919506D01*
X169930717Y-96955791D01*
X169894432Y-96992077D01*
X169858146Y-97064649D01*
X169858146Y-97209791D01*
X169894432Y-97282363D01*
X169930717Y-97318649D01*
X170003289Y-97354934D01*
X170148432Y-97354934D01*
X170221003Y-97318649D01*
X170257289Y-97282363D01*
X170293574Y-97209791D01*
X170293574Y-97064649D01*
X170257289Y-96992077D01*
X170221003Y-96955791D01*
X170148432Y-96919506D01*
X161620295Y-82391001D02*
X161620295Y-83200525D01*
X161667914Y-83295763D01*
X161715533Y-83343382D01*
X161810771Y-83391001D01*
X162001248Y-83391001D01*
X162096486Y-83343382D01*
X162144105Y-83295763D01*
X162191724Y-83200525D01*
X162191724Y-82391001D01*
X162620295Y-82486239D02*
X162667914Y-82438620D01*
X162763152Y-82391001D01*
X163001248Y-82391001D01*
X163096486Y-82438620D01*
X163144105Y-82486239D01*
X163191724Y-82581477D01*
X163191724Y-82676715D01*
X163144105Y-82819572D01*
X162572676Y-83391001D01*
X163191724Y-83391001D01*
M02*
