M48
;DRILL file {KiCad 4.0.0-rc1-stable} date 12/2/2015 9:18:34 PM
;FORMAT={-:-/ absolute / inch / decimal}
FMAT,2
INCH,TZ
T1C0.016
T2C0.035
%
G90
G05
M72
T1
X5.4069Y-3.5498
X5.4235Y-3.6271
X5.5744Y-3.7364
X5.8189Y-3.8426
X5.8898Y-3.3757
X5.8914Y-3.5948
X5.9492Y-3.8449
X6.0502Y-3.5113
X6.0516Y-3.1972
X6.0519Y-3.9466
X6.0886Y-3.3125
X6.0886Y-3.7549
X6.1212Y-3.4574
X6.1695Y-3.691
X6.2246Y-3.354
X6.2279Y-3.4173
X6.2447Y-3.5599
X6.2748Y-3.4489
X6.3181Y-3.5232
X6.3478Y-3.5647
X6.3595Y-3.3877
X6.3653Y-3.6015
X6.3752Y-3.531
X6.3864Y-3.4162
X6.4552Y-3.5918
X6.5161Y-3.7323
X6.5404Y-3.5517
X6.544Y-3.5926
X6.6352Y-3.6439
X6.7279Y-3.768
X6.8022Y-3.7676
X6.8194Y-3.6186
X6.8278Y-3.4584
X6.8515Y-3.5637
X6.863Y-3.6843
T2
X5.1949Y-3.4359
X5.1949Y-3.6091
T0
M30
