M48
;DRILL file {KiCad 4.0.1-stable} date 11/19/2016 2:54:25 PM
;FORMAT={-:-/ absolute / inch / decimal}
FMAT,2
INCH,TZ
T1C0.016
T2C0.040
T3C0.104
%
G90
G05
M72
T1
X5.2547Y-3.325
X5.2661Y-3.23
X5.275Y-2.775
X5.4Y-2.8
X5.42Y-2.86
X5.425Y-2.95
X5.4429Y-2.8005
X5.48Y-2.67
X5.525Y-3.15
X5.525Y-3.325
X5.6Y-2.875
X5.6Y-2.9
X5.68Y-3.42
X5.74Y-2.75
X5.74Y-2.8
X5.92Y-2.8
X5.95Y-2.65
X5.99Y-3.04
X6.Y-2.95
X6.08Y-3.17
X6.11Y-2.87
X6.14Y-3.07
X6.14Y-3.35
X6.16Y-2.91
X6.18Y-3.26
X6.26Y-2.91
X6.28Y-3.17
X6.3Y-3.09
X6.45Y-2.775
X6.55Y-3.1554
X6.62Y-3.1554
X6.69Y-3.4
X6.7Y-3.1554
X6.85Y-3.13
X6.85Y-3.3
X6.875Y-3.361
X6.91Y-2.93
X6.95Y-3.225
X7.Y-3.13
X7.03Y-2.81
X7.05Y-2.81
X7.075Y-3.219
T2
X5.15Y-2.85
X5.15Y-2.95
X5.15Y-3.05
X5.15Y-3.15
X6.15Y-2.675
X6.15Y-2.775
X6.25Y-2.675
X6.25Y-2.775
X6.35Y-2.675
X6.35Y-2.775
X6.625Y-2.675
X6.625Y-2.775
X6.85Y-2.675
X6.85Y-2.775
X7.2Y-2.9
X7.2Y-3.
X7.2Y-3.1
X7.2Y-3.2
X7.331Y-2.9
X7.331Y-3.
X7.331Y-3.1
T3
X5.075Y-2.6
X5.075Y-3.4
X7.375Y-2.6
X7.375Y-3.4
T0
M30
