G04 #@! TF.FileFunction,Soldermask,Top*
%FSLAX46Y46*%
G04 Gerber Fmt 4.6, Leading zero omitted, Abs format (unit mm)*
G04 Created by KiCad (PCBNEW 4.0.1-stable) date 11/19/2016 2:54:23 PM*
%MOMM*%
G01*
G04 APERTURE LIST*
%ADD10C,0.100000*%
%ADD11R,1.543000X0.908000*%
%ADD12R,1.598880X1.598880*%
%ADD13R,2.432000X2.127200*%
%ADD14O,2.432000X2.127200*%
%ADD15R,2.127200X2.127200*%
%ADD16O,2.127200X2.127200*%
%ADD17R,2.432000X2.432000*%
%ADD18O,2.432000X2.432000*%
%ADD19R,1.850000X0.850000*%
%ADD20R,1.050000X1.460000*%
%ADD21R,0.908000X1.543000*%
%ADD22R,5.000000X1.500000*%
%ADD23R,9.800000X11.200000*%
%ADD24C,3.050000*%
G04 APERTURE END LIST*
D10*
D11*
X149225000Y-67310000D03*
X149225000Y-68580000D03*
X149225000Y-69850000D03*
X149225000Y-71120000D03*
X142875000Y-71120000D03*
X142875000Y-69850000D03*
X142875000Y-68580000D03*
X142875000Y-67310000D03*
D12*
X166370000Y-76200000D03*
X166370000Y-78298040D03*
X177800000Y-76200000D03*
X177800000Y-78298040D03*
X173990000Y-76200000D03*
X173990000Y-78298040D03*
X170180000Y-76200000D03*
X170180000Y-78298040D03*
D13*
X186207400Y-73660000D03*
D14*
X186207400Y-76200000D03*
X186207400Y-78740000D03*
D13*
X130810000Y-80010000D03*
D14*
X130810000Y-77470000D03*
X130810000Y-74930000D03*
X130810000Y-72390000D03*
D13*
X182880000Y-73660000D03*
D14*
X182880000Y-76200000D03*
X182880000Y-78740000D03*
X182880000Y-81280000D03*
D15*
X161290000Y-67945000D03*
D16*
X161290000Y-70485000D03*
X158750000Y-67945000D03*
X158750000Y-70485000D03*
X156210000Y-67945000D03*
X156210000Y-70485000D03*
D17*
X168275000Y-70485000D03*
D18*
X168275000Y-67945000D03*
D17*
X173990000Y-70485000D03*
D18*
X173990000Y-67945000D03*
D19*
X171790000Y-83480000D03*
X171790000Y-84130000D03*
X171790000Y-84780000D03*
X171790000Y-85430000D03*
X176190000Y-85430000D03*
X176190000Y-84780000D03*
X176190000Y-84130000D03*
X176190000Y-83480000D03*
D20*
X135890000Y-69850000D03*
X136840000Y-69850000D03*
X137790000Y-69850000D03*
X137790000Y-67650000D03*
X135890000Y-67650000D03*
D21*
X154305000Y-81915000D03*
X155575000Y-81915000D03*
X156845000Y-81915000D03*
X158115000Y-81915000D03*
X159385000Y-81915000D03*
X160655000Y-81915000D03*
X161925000Y-81915000D03*
X161925000Y-75565000D03*
X160655000Y-75565000D03*
X158115000Y-75565000D03*
X156845000Y-75565000D03*
X155575000Y-75565000D03*
X154305000Y-75565000D03*
X159385000Y-75565000D03*
D22*
X136900000Y-83410000D03*
X136900000Y-81710000D03*
X136900000Y-78310000D03*
D23*
X146050000Y-80010000D03*
D22*
X136900000Y-80010000D03*
X136900000Y-76610000D03*
D24*
X128905000Y-66040000D03*
X128905000Y-86360000D03*
X187325000Y-66040000D03*
X187325000Y-86360000D03*
M02*
