G04 #@! TF.FileFunction,Paste,Bot*
%FSLAX46Y46*%
G04 Gerber Fmt 4.6, Leading zero omitted, Abs format (unit mm)*
G04 Created by KiCad (PCBNEW 4.0.1-stable) date 11/19/2016 2:54:23 PM*
%MOMM*%
G01*
G04 APERTURE LIST*
%ADD10C,0.100000*%
%ADD11R,1.000000X1.250000*%
%ADD12R,1.250000X1.000000*%
%ADD13R,0.900000X0.500000*%
%ADD14R,0.500000X0.900000*%
%ADD15R,1.050000X1.300000*%
G04 APERTURE END LIST*
D10*
D11*
X179800000Y-73660000D03*
X177800000Y-73660000D03*
D12*
X144145000Y-81375000D03*
X144145000Y-79375000D03*
X140970000Y-67850000D03*
X140970000Y-69850000D03*
X161925000Y-84360000D03*
X161925000Y-86360000D03*
D11*
X154400000Y-79375000D03*
X152400000Y-79375000D03*
D12*
X154305000Y-86455000D03*
X154305000Y-84455000D03*
D13*
X143510000Y-75045000D03*
X143510000Y-73545000D03*
X173990000Y-76835000D03*
X173990000Y-75335000D03*
X139065000Y-73430000D03*
X139065000Y-74930000D03*
X133985000Y-69850000D03*
X133985000Y-68350000D03*
D14*
X136755000Y-73025000D03*
X135255000Y-73025000D03*
D13*
X134620000Y-83185000D03*
X134620000Y-81685000D03*
X140335000Y-81800000D03*
X140335000Y-83300000D03*
X170180000Y-75450000D03*
X170180000Y-76950000D03*
X165100000Y-67830000D03*
X165100000Y-69330000D03*
X166370000Y-78105000D03*
X166370000Y-76605000D03*
X177800000Y-69330000D03*
X177800000Y-67830000D03*
X177800000Y-77700000D03*
X177800000Y-76200000D03*
D15*
X159040000Y-84074000D03*
X159040000Y-86374000D03*
X157190000Y-86374000D03*
X157190000Y-84074000D03*
D13*
X173990000Y-82550000D03*
X173990000Y-81050000D03*
M02*
