G04 #@! TF.FileFunction,Copper,L2,Bot,Signal*
%FSLAX46Y46*%
G04 Gerber Fmt 4.6, Leading zero omitted, Abs format (unit mm)*
G04 Created by KiCad (PCBNEW 4.0.1-stable) date 11/19/2016 2:54:23 PM*
%MOMM*%
G01*
G04 APERTURE LIST*
%ADD10C,0.100000*%
%ADD11R,1.000000X1.250000*%
%ADD12R,1.250000X1.000000*%
%ADD13R,2.032000X1.727200*%
%ADD14O,2.032000X1.727200*%
%ADD15R,1.727200X1.727200*%
%ADD16O,1.727200X1.727200*%
%ADD17R,2.032000X2.032000*%
%ADD18O,2.032000X2.032000*%
%ADD19R,0.900000X0.500000*%
%ADD20R,0.500000X0.900000*%
%ADD21R,1.050000X1.300000*%
%ADD22C,2.650000*%
%ADD23C,0.600000*%
%ADD24C,0.508000*%
%ADD25C,0.250000*%
%ADD26C,0.254000*%
G04 APERTURE END LIST*
D10*
D11*
X179800000Y-73660000D03*
X177800000Y-73660000D03*
D12*
X144145000Y-81375000D03*
X144145000Y-79375000D03*
X140970000Y-67850000D03*
X140970000Y-69850000D03*
X161925000Y-84360000D03*
X161925000Y-86360000D03*
D11*
X154400000Y-79375000D03*
X152400000Y-79375000D03*
D12*
X154305000Y-86455000D03*
X154305000Y-84455000D03*
D13*
X186207400Y-73660000D03*
D14*
X186207400Y-76200000D03*
X186207400Y-78740000D03*
D13*
X130810000Y-80010000D03*
D14*
X130810000Y-77470000D03*
X130810000Y-74930000D03*
X130810000Y-72390000D03*
D13*
X182880000Y-73660000D03*
D14*
X182880000Y-76200000D03*
X182880000Y-78740000D03*
X182880000Y-81280000D03*
D15*
X161290000Y-67945000D03*
D16*
X161290000Y-70485000D03*
X158750000Y-67945000D03*
X158750000Y-70485000D03*
X156210000Y-67945000D03*
X156210000Y-70485000D03*
D17*
X168275000Y-70485000D03*
D18*
X168275000Y-67945000D03*
D17*
X173990000Y-70485000D03*
D18*
X173990000Y-67945000D03*
D19*
X143510000Y-75045000D03*
X143510000Y-73545000D03*
X173990000Y-76835000D03*
X173990000Y-75335000D03*
X139065000Y-73430000D03*
X139065000Y-74930000D03*
X133985000Y-69850000D03*
X133985000Y-68350000D03*
D20*
X136755000Y-73025000D03*
X135255000Y-73025000D03*
D19*
X134620000Y-83185000D03*
X134620000Y-81685000D03*
X140335000Y-81800000D03*
X140335000Y-83300000D03*
X170180000Y-75450000D03*
X170180000Y-76950000D03*
X165100000Y-67830000D03*
X165100000Y-69330000D03*
X166370000Y-78105000D03*
X166370000Y-76605000D03*
X177800000Y-69330000D03*
X177800000Y-67830000D03*
X177800000Y-77700000D03*
X177800000Y-76200000D03*
D21*
X159040000Y-84074000D03*
X159040000Y-86374000D03*
X157190000Y-86374000D03*
X157190000Y-84074000D03*
D22*
X128905000Y-66040000D03*
X128905000Y-86360000D03*
X187325000Y-66040000D03*
X187325000Y-86360000D03*
D19*
X173990000Y-82550000D03*
X173990000Y-81050000D03*
D23*
X133985000Y-70485000D03*
X142240000Y-73025000D03*
X142240000Y-73660000D03*
X150368000Y-71120000D03*
X179070000Y-71374000D03*
X178562000Y-71374000D03*
X169926000Y-86360000D03*
X140335000Y-80010000D03*
X137160000Y-71120000D03*
X133760000Y-82042000D03*
X144272000Y-86868000D03*
X139192000Y-67818000D03*
X156972000Y-82804000D03*
X155956000Y-85090000D03*
X168148000Y-80146980D03*
X174625000Y-85370000D03*
X166370000Y-80146980D03*
X163829999Y-70485000D03*
X154432000Y-80518000D03*
X151130000Y-67310000D03*
X152400000Y-74930000D03*
X176530000Y-81915000D03*
X177800002Y-79502000D03*
X145796000Y-71120000D03*
X152146000Y-77216000D03*
X173989996Y-79502000D03*
X179705000Y-81762600D03*
X175514000Y-74422000D03*
X170180000Y-80146980D03*
X173990000Y-83820000D03*
X159004000Y-73914000D03*
X160020000Y-78486000D03*
X155956000Y-77978000D03*
X137795000Y-74930000D03*
X137668000Y-72644000D03*
X138248831Y-71132432D03*
X133469010Y-84455000D03*
X140335000Y-84455000D03*
X156464000Y-73914000D03*
X159512000Y-80518000D03*
X145796000Y-69849998D03*
X155194000Y-72898000D03*
D24*
X143510000Y-73545000D02*
X143510000Y-68834000D01*
X143510000Y-68834000D02*
X146939000Y-65405000D01*
X146939000Y-65405000D02*
X176892202Y-65405000D01*
X176892202Y-65405000D02*
X180340000Y-68852798D01*
X180340000Y-68852798D02*
X180340000Y-73812400D01*
D25*
X133985000Y-70485000D02*
X133985000Y-69850000D01*
D24*
X179800000Y-73660000D02*
X180187600Y-73660000D01*
X180187600Y-73660000D02*
X180340000Y-73812400D01*
X182727600Y-76200000D02*
X182880000Y-76200000D01*
X180340000Y-73812400D02*
X182727600Y-76200000D01*
X142240000Y-73025000D02*
X142990000Y-73025000D01*
X142990000Y-73025000D02*
X143510000Y-73545000D01*
X142240000Y-73660000D02*
X142240000Y-73025000D01*
X142240000Y-73660000D02*
X143395000Y-73660000D01*
X143395000Y-73660000D02*
X143510000Y-73545000D01*
X182880000Y-73660000D02*
X187579000Y-73660000D01*
X187579000Y-73660000D02*
X187960000Y-74041000D01*
X187960000Y-74041000D02*
X187960000Y-79502000D01*
X187960000Y-79502000D02*
X179832000Y-87630000D01*
X179832000Y-87630000D02*
X135528088Y-87630000D01*
X135528088Y-87630000D02*
X130810000Y-82911912D01*
X130810000Y-82911912D02*
X130810000Y-81381600D01*
X130810000Y-81381600D02*
X130810000Y-80010000D01*
D25*
X150368000Y-71120000D02*
X155575000Y-71120000D01*
X155575000Y-71120000D02*
X156210000Y-70485000D01*
D24*
X179070000Y-71374000D02*
X177800000Y-72644000D01*
X177800000Y-72644000D02*
X177800000Y-73660000D01*
X178562000Y-71374000D02*
X177800000Y-72136000D01*
X177800000Y-72136000D02*
X177800000Y-73660000D01*
X178562000Y-71374000D02*
X179070000Y-71374000D01*
D25*
X161925000Y-86360000D02*
X169926000Y-86360000D01*
X159040000Y-86875000D02*
X159040000Y-86550000D01*
X157190000Y-84700000D02*
X157190000Y-84575000D01*
X159040000Y-86875000D02*
X161410000Y-86875000D01*
X161410000Y-86875000D02*
X161925000Y-86360000D01*
X154305000Y-84455000D02*
X157070000Y-84455000D01*
X157070000Y-84455000D02*
X157190000Y-84575000D01*
X154305000Y-84455000D02*
X153430000Y-84455000D01*
X153430000Y-84455000D02*
X152400000Y-83425000D01*
X152400000Y-83425000D02*
X152400000Y-80250000D01*
X152400000Y-80250000D02*
X152400000Y-79375000D01*
X152365366Y-79409634D02*
X152400000Y-79375000D01*
X152400000Y-79375000D02*
X144145000Y-79375000D01*
X139065000Y-73430000D02*
X139065000Y-71630000D01*
X139065000Y-71630000D02*
X140845000Y-69850000D01*
X140845000Y-69850000D02*
X140970000Y-69850000D01*
X137160000Y-71120000D02*
X139065000Y-73025000D01*
X139065000Y-73025000D02*
X139065000Y-73430000D01*
X139700000Y-80010000D02*
X135255000Y-75565000D01*
X135255000Y-75565000D02*
X135255000Y-73025000D01*
X140335000Y-80010000D02*
X139700000Y-80010000D01*
X140335000Y-81800000D02*
X140335000Y-80010000D01*
X140335000Y-81800000D02*
X140335000Y-81300000D01*
X140335000Y-81300000D02*
X142260000Y-79375000D01*
X142260000Y-79375000D02*
X143270000Y-79375000D01*
X143270000Y-79375000D02*
X144145000Y-79375000D01*
X137160000Y-71120000D02*
X135255000Y-73025000D01*
X177800000Y-73660000D02*
X177800000Y-76200000D01*
X170180000Y-75450000D02*
X167025000Y-75450000D01*
X167025000Y-75450000D02*
X166370000Y-76105000D01*
X166370000Y-76105000D02*
X166370000Y-76605000D01*
X173990000Y-75335000D02*
X170295000Y-75335000D01*
X170295000Y-75335000D02*
X170180000Y-75450000D01*
X177800000Y-73660000D02*
X175165000Y-73660000D01*
X175165000Y-73660000D02*
X173990000Y-74835000D01*
X173990000Y-74835000D02*
X173990000Y-75335000D01*
X134620000Y-81685000D02*
X134117000Y-81685000D01*
X134117000Y-81685000D02*
X133760000Y-82042000D01*
X144145000Y-81375000D02*
X144145000Y-86741000D01*
X144145000Y-86741000D02*
X144272000Y-86868000D01*
X139192000Y-67818000D02*
X140938000Y-67818000D01*
X140938000Y-67818000D02*
X140970000Y-67850000D01*
X159040000Y-84575000D02*
X159040000Y-83602000D01*
X159040000Y-83602000D02*
X158242000Y-82804000D01*
X158242000Y-82804000D02*
X156972000Y-82804000D01*
X159040000Y-84575000D02*
X161710000Y-84575000D01*
X161710000Y-84575000D02*
X161925000Y-84360000D01*
X154305000Y-86455000D02*
X154591000Y-86455000D01*
X154591000Y-86455000D02*
X155956000Y-85090000D01*
X154305000Y-86455000D02*
X156770000Y-86455000D01*
X156770000Y-86455000D02*
X157190000Y-86875000D01*
X173371020Y-85370000D02*
X168447999Y-80446979D01*
X174625000Y-85370000D02*
X173371020Y-85370000D01*
X168447999Y-80446979D02*
X168148000Y-80146980D01*
X166370000Y-78105000D02*
X166370000Y-80146980D01*
X161290000Y-70485000D02*
X163830000Y-70485000D01*
X151130000Y-67310000D02*
X152146000Y-66294000D01*
X152146000Y-66294000D02*
X162560000Y-66294000D01*
X162560000Y-66294000D02*
X163830000Y-67564000D01*
X163830000Y-67564000D02*
X163830000Y-70485000D01*
X163830000Y-70485000D02*
X163829999Y-70485000D01*
X154432000Y-80518000D02*
X154432000Y-79407000D01*
X154432000Y-79407000D02*
X154400000Y-79375000D01*
X152400000Y-74930000D02*
X154400000Y-76930000D01*
X154400000Y-76930000D02*
X154400000Y-79375000D01*
X173990000Y-81050000D02*
X175665000Y-81050000D01*
X175665000Y-81050000D02*
X176530000Y-81915000D01*
X177800000Y-79501998D02*
X177800002Y-79502000D01*
X177800000Y-77700000D02*
X177800000Y-79501998D01*
X146050000Y-71120000D02*
X145796000Y-71120000D01*
X152146000Y-77216000D02*
X146050000Y-71120000D01*
X173990000Y-76835000D02*
X173990000Y-79501996D01*
X173990000Y-79501996D02*
X173989996Y-79502000D01*
X175813999Y-79039999D02*
X178536600Y-81762600D01*
X178536600Y-81762600D02*
X179705000Y-81762600D01*
X175514000Y-74422000D02*
X175813999Y-74721999D01*
X175813999Y-74721999D02*
X175813999Y-79039999D01*
X170180000Y-76950000D02*
X170180000Y-80146980D01*
X173990000Y-83820000D02*
X173990000Y-82550000D01*
X160020000Y-78486000D02*
X159004000Y-77470000D01*
X159004000Y-77470000D02*
X159004000Y-73914000D01*
X155956000Y-77978000D02*
X155956000Y-77553736D01*
X155956000Y-77553736D02*
X155819001Y-77416737D01*
X155819001Y-77416737D02*
X155819001Y-73034999D01*
X155819001Y-73034999D02*
X157398601Y-71455399D01*
X157398601Y-71455399D02*
X157398601Y-69133601D01*
X157073599Y-68808599D02*
X156210000Y-67945000D01*
X157398601Y-69133601D02*
X157073599Y-68808599D01*
X165100000Y-67830000D02*
X168160000Y-67830000D01*
X168160000Y-67830000D02*
X168275000Y-67945000D01*
X177800000Y-67830000D02*
X174105000Y-67830000D01*
X174105000Y-67830000D02*
X173990000Y-67945000D01*
D24*
X139065000Y-74930000D02*
X137795000Y-74930000D01*
D25*
X143510000Y-75045000D02*
X137910000Y-75045000D01*
X137910000Y-75045000D02*
X137795000Y-74930000D01*
X136755000Y-73025000D02*
X137287000Y-73025000D01*
X137287000Y-73025000D02*
X137668000Y-72644000D01*
X137948832Y-70832433D02*
X138248831Y-71132432D01*
X135466399Y-68350000D02*
X137948832Y-70832433D01*
X133985000Y-68350000D02*
X135466399Y-68350000D01*
X133469010Y-84455000D02*
X133469010Y-84335990D01*
X133469010Y-84335990D02*
X134620000Y-83185000D01*
X140335000Y-84455000D02*
X140335000Y-83300000D01*
X156464000Y-73914000D02*
X157226000Y-73152000D01*
X164846000Y-73152000D02*
X165100000Y-72898000D01*
X157226000Y-73152000D02*
X164846000Y-73152000D01*
X165100000Y-72898000D02*
X165100000Y-69330000D01*
X163322000Y-76200000D02*
X163322000Y-76708000D01*
X163322000Y-76708000D02*
X159512000Y-80518000D01*
X166878000Y-72644000D02*
X163322000Y-76200000D01*
X174986000Y-72644000D02*
X166878000Y-72644000D01*
X177800000Y-69330000D02*
X177800000Y-69830000D01*
X177800000Y-69830000D02*
X174986000Y-72644000D01*
X146095999Y-70149997D02*
X145796000Y-69849998D01*
X148844002Y-72898000D02*
X146095999Y-70149997D01*
X155194000Y-72898000D02*
X148844002Y-72898000D01*
D26*
G36*
X142881382Y-68205382D02*
X142688671Y-68493794D01*
X142621000Y-68834000D01*
X142621000Y-72136000D01*
X142537189Y-72136000D01*
X142426799Y-72090162D01*
X142054833Y-72089838D01*
X141711057Y-72231883D01*
X141447808Y-72494673D01*
X141305162Y-72838201D01*
X141304838Y-73210167D01*
X141351000Y-73321888D01*
X141351000Y-73362811D01*
X141305162Y-73473201D01*
X141304838Y-73845167D01*
X141446883Y-74188943D01*
X141542773Y-74285000D01*
X140015409Y-74285000D01*
X139979090Y-74228559D01*
X139910994Y-74182031D01*
X140053327Y-74039698D01*
X140150000Y-73806309D01*
X140150000Y-73713750D01*
X139991250Y-73555000D01*
X139192000Y-73555000D01*
X139192000Y-73577000D01*
X138938000Y-73577000D01*
X138938000Y-73555000D01*
X138918000Y-73555000D01*
X138918000Y-73305000D01*
X138938000Y-73305000D01*
X138938000Y-72703750D01*
X139192000Y-72703750D01*
X139192000Y-73305000D01*
X139991250Y-73305000D01*
X140150000Y-73146250D01*
X140150000Y-73053691D01*
X140053327Y-72820302D01*
X139874699Y-72641673D01*
X139641310Y-72545000D01*
X139350750Y-72545000D01*
X139192000Y-72703750D01*
X138938000Y-72703750D01*
X138779250Y-72545000D01*
X138603087Y-72545000D01*
X138603162Y-72458833D01*
X138461117Y-72115057D01*
X138413719Y-72067576D01*
X138433998Y-72067594D01*
X138777774Y-71925549D01*
X139041023Y-71662759D01*
X139183669Y-71319231D01*
X139183993Y-70947265D01*
X139041948Y-70603489D01*
X138779158Y-70340240D01*
X138435630Y-70197594D01*
X138388754Y-70197553D01*
X138326951Y-70135750D01*
X139710000Y-70135750D01*
X139710000Y-70476309D01*
X139806673Y-70709698D01*
X139985301Y-70888327D01*
X140218690Y-70985000D01*
X140684250Y-70985000D01*
X140843000Y-70826250D01*
X140843000Y-69977000D01*
X141097000Y-69977000D01*
X141097000Y-70826250D01*
X141255750Y-70985000D01*
X141721310Y-70985000D01*
X141954699Y-70888327D01*
X142133327Y-70709698D01*
X142230000Y-70476309D01*
X142230000Y-70135750D01*
X142071250Y-69977000D01*
X141097000Y-69977000D01*
X140843000Y-69977000D01*
X139868750Y-69977000D01*
X139710000Y-70135750D01*
X138326951Y-70135750D01*
X136194368Y-68003167D01*
X138256838Y-68003167D01*
X138398883Y-68346943D01*
X138661673Y-68610192D01*
X139005201Y-68752838D01*
X139377167Y-68753162D01*
X139720943Y-68611117D01*
X139743774Y-68588326D01*
X139880910Y-68801441D01*
X139949006Y-68847969D01*
X139806673Y-68990302D01*
X139710000Y-69223691D01*
X139710000Y-69564250D01*
X139868750Y-69723000D01*
X140843000Y-69723000D01*
X140843000Y-69703000D01*
X141097000Y-69703000D01*
X141097000Y-69723000D01*
X142071250Y-69723000D01*
X142230000Y-69564250D01*
X142230000Y-69223691D01*
X142133327Y-68990302D01*
X141992090Y-68849064D01*
X142046441Y-68814090D01*
X142191431Y-68601890D01*
X142242440Y-68350000D01*
X142242440Y-67350000D01*
X142198162Y-67114683D01*
X142059090Y-66898559D01*
X141846890Y-66753569D01*
X141595000Y-66702560D01*
X140345000Y-66702560D01*
X140109683Y-66746838D01*
X139893559Y-66885910D01*
X139775975Y-67058000D01*
X139754463Y-67058000D01*
X139722327Y-67025808D01*
X139378799Y-66883162D01*
X139006833Y-66882838D01*
X138663057Y-67024883D01*
X138399808Y-67287673D01*
X138257162Y-67631201D01*
X138256838Y-68003167D01*
X136194368Y-68003167D01*
X136003800Y-67812599D01*
X135757238Y-67647852D01*
X135466399Y-67590000D01*
X134813386Y-67590000D01*
X134686890Y-67503569D01*
X134435000Y-67452560D01*
X133535000Y-67452560D01*
X133299683Y-67496838D01*
X133083559Y-67635910D01*
X132938569Y-67848110D01*
X132887560Y-68100000D01*
X132887560Y-68600000D01*
X132931838Y-68835317D01*
X133070910Y-69051441D01*
X133140711Y-69099134D01*
X133083559Y-69135910D01*
X132938569Y-69348110D01*
X132887560Y-69600000D01*
X132887560Y-70100000D01*
X132931838Y-70335317D01*
X133049970Y-70518899D01*
X133049838Y-70670167D01*
X133191883Y-71013943D01*
X133454673Y-71277192D01*
X133798201Y-71419838D01*
X134170167Y-71420162D01*
X134513943Y-71278117D01*
X134777192Y-71015327D01*
X134919838Y-70671799D01*
X134919975Y-70515012D01*
X135031431Y-70351890D01*
X135082440Y-70100000D01*
X135082440Y-69600000D01*
X135038162Y-69364683D01*
X134899090Y-69148559D01*
X134842657Y-69110000D01*
X135151597Y-69110000D01*
X137313709Y-71272112D01*
X137313669Y-71317599D01*
X137455714Y-71661375D01*
X137503112Y-71708856D01*
X137482833Y-71708838D01*
X137139057Y-71850883D01*
X137052592Y-71937198D01*
X137005000Y-71927560D01*
X136505000Y-71927560D01*
X136269683Y-71971838D01*
X136053559Y-72110910D01*
X136007031Y-72179006D01*
X135864698Y-72036673D01*
X135631309Y-71940000D01*
X135538750Y-71940000D01*
X135380000Y-72098750D01*
X135380000Y-72898000D01*
X135402000Y-72898000D01*
X135402000Y-73152000D01*
X135380000Y-73152000D01*
X135380000Y-73951250D01*
X135538750Y-74110000D01*
X135631309Y-74110000D01*
X135864698Y-74013327D01*
X136005936Y-73872090D01*
X136040910Y-73926441D01*
X136253110Y-74071431D01*
X136505000Y-74122440D01*
X137005000Y-74122440D01*
X137240317Y-74078162D01*
X137456441Y-73939090D01*
X137601431Y-73726890D01*
X137605062Y-73708958D01*
X137799386Y-73579115D01*
X137853167Y-73579162D01*
X137980000Y-73526756D01*
X137980000Y-73557002D01*
X138136748Y-73557002D01*
X137980000Y-73713750D01*
X137980000Y-73806309D01*
X138074101Y-74033489D01*
X137981799Y-73995162D01*
X137609833Y-73994838D01*
X137266057Y-74136883D01*
X137002808Y-74399673D01*
X136860162Y-74743201D01*
X136859838Y-75115167D01*
X137001883Y-75458943D01*
X137264673Y-75722192D01*
X137608201Y-75864838D01*
X137980167Y-75865162D01*
X138091888Y-75819000D01*
X138573322Y-75819000D01*
X138615000Y-75827440D01*
X139515000Y-75827440D01*
X139634258Y-75805000D01*
X142681614Y-75805000D01*
X142808110Y-75891431D01*
X143060000Y-75942440D01*
X143960000Y-75942440D01*
X144195317Y-75898162D01*
X144411441Y-75759090D01*
X144556431Y-75546890D01*
X144607440Y-75295000D01*
X144607440Y-74795000D01*
X144563162Y-74559683D01*
X144424090Y-74343559D01*
X144354289Y-74295866D01*
X144411441Y-74259090D01*
X144556431Y-74046890D01*
X144607440Y-73795000D01*
X144607440Y-73295000D01*
X144563162Y-73059683D01*
X144424090Y-72843559D01*
X144399000Y-72826416D01*
X144399000Y-69202236D01*
X147307236Y-66294000D01*
X151071198Y-66294000D01*
X150990320Y-66374878D01*
X150944833Y-66374838D01*
X150601057Y-66516883D01*
X150337808Y-66779673D01*
X150195162Y-67123201D01*
X150194838Y-67495167D01*
X150336883Y-67838943D01*
X150599673Y-68102192D01*
X150943201Y-68244838D01*
X151315167Y-68245162D01*
X151658943Y-68103117D01*
X151922192Y-67840327D01*
X152064838Y-67496799D01*
X152064879Y-67449923D01*
X152460802Y-67054000D01*
X155018011Y-67054000D01*
X154825474Y-67342152D01*
X154711400Y-67915641D01*
X154711400Y-67974359D01*
X154825474Y-68547848D01*
X155150330Y-69034029D01*
X155421161Y-69214992D01*
X155003179Y-69596510D01*
X154755032Y-70125973D01*
X154875531Y-70358000D01*
X156083000Y-70358000D01*
X156083000Y-70338000D01*
X156337000Y-70338000D01*
X156337000Y-70358000D01*
X156357000Y-70358000D01*
X156357000Y-70612000D01*
X156337000Y-70612000D01*
X156337000Y-70632000D01*
X156083000Y-70632000D01*
X156083000Y-70612000D01*
X154875531Y-70612000D01*
X154755032Y-70844027D01*
X155003179Y-71373490D01*
X155435053Y-71767688D01*
X155842677Y-71936521D01*
X155688335Y-72090863D01*
X155380799Y-71963162D01*
X155008833Y-71962838D01*
X154665057Y-72104883D01*
X154631882Y-72138000D01*
X149158804Y-72138000D01*
X146731122Y-69710318D01*
X146731162Y-69664831D01*
X146589117Y-69321055D01*
X146326327Y-69057806D01*
X145982799Y-68915160D01*
X145610833Y-68914836D01*
X145267057Y-69056881D01*
X145003808Y-69319671D01*
X144861162Y-69663199D01*
X144860838Y-70035165D01*
X145002883Y-70378941D01*
X145108711Y-70484953D01*
X145003808Y-70589673D01*
X144861162Y-70933201D01*
X144860838Y-71305167D01*
X145002883Y-71648943D01*
X145265673Y-71912192D01*
X145609201Y-72054838D01*
X145910298Y-72055100D01*
X151210878Y-77355680D01*
X151210838Y-77401167D01*
X151352883Y-77744943D01*
X151615673Y-78008192D01*
X151872894Y-78115000D01*
X151773691Y-78115000D01*
X151540302Y-78211673D01*
X151361673Y-78390301D01*
X151265000Y-78623690D01*
X151265000Y-79089250D01*
X151423750Y-79248000D01*
X152273000Y-79248000D01*
X152273000Y-79228000D01*
X152527000Y-79228000D01*
X152527000Y-79248000D01*
X152547000Y-79248000D01*
X152547000Y-79502000D01*
X152527000Y-79502000D01*
X152527000Y-80476250D01*
X152685750Y-80635000D01*
X153026309Y-80635000D01*
X153259698Y-80538327D01*
X153400936Y-80397090D01*
X153435910Y-80451441D01*
X153497021Y-80493196D01*
X153496838Y-80703167D01*
X153638883Y-81046943D01*
X153901673Y-81310192D01*
X154245201Y-81452838D01*
X154617167Y-81453162D01*
X154960943Y-81311117D01*
X155224192Y-81048327D01*
X155366838Y-80704799D01*
X155367068Y-80441220D01*
X155496431Y-80251890D01*
X155547440Y-80000000D01*
X155547440Y-78820754D01*
X155769201Y-78912838D01*
X156141167Y-78913162D01*
X156484943Y-78771117D01*
X156748192Y-78508327D01*
X156890838Y-78164799D01*
X156891162Y-77792833D01*
X156749117Y-77449057D01*
X156681755Y-77381578D01*
X156658148Y-77262897D01*
X156579001Y-77144445D01*
X156579001Y-74849101D01*
X156649167Y-74849162D01*
X156992943Y-74707117D01*
X157256192Y-74444327D01*
X157398838Y-74100799D01*
X157398879Y-74053923D01*
X157540802Y-73912000D01*
X158069001Y-73912000D01*
X158068838Y-74099167D01*
X158210883Y-74442943D01*
X158244000Y-74476118D01*
X158244000Y-77470000D01*
X158301852Y-77760839D01*
X158466599Y-78007401D01*
X159084878Y-78625680D01*
X159084838Y-78671167D01*
X159226883Y-79014943D01*
X159489673Y-79278192D01*
X159622042Y-79333156D01*
X159372320Y-79582878D01*
X159326833Y-79582838D01*
X158983057Y-79724883D01*
X158719808Y-79987673D01*
X158577162Y-80331201D01*
X158576838Y-80703167D01*
X158718883Y-81046943D01*
X158981673Y-81310192D01*
X159325201Y-81452838D01*
X159697167Y-81453162D01*
X160040943Y-81311117D01*
X160304192Y-81048327D01*
X160446838Y-80704799D01*
X160446879Y-80657923D01*
X163249802Y-77855000D01*
X165272560Y-77855000D01*
X165272560Y-78355000D01*
X165316838Y-78590317D01*
X165455910Y-78806441D01*
X165610000Y-78911726D01*
X165610000Y-79584517D01*
X165577808Y-79616653D01*
X165435162Y-79960181D01*
X165434838Y-80332147D01*
X165576883Y-80675923D01*
X165839673Y-80939172D01*
X166183201Y-81081818D01*
X166555167Y-81082142D01*
X166898943Y-80940097D01*
X167162192Y-80677307D01*
X167259062Y-80444019D01*
X167354883Y-80675923D01*
X167617673Y-80939172D01*
X167961201Y-81081818D01*
X168008077Y-81081859D01*
X172833619Y-85907401D01*
X173080181Y-86072148D01*
X173371020Y-86130000D01*
X174062537Y-86130000D01*
X174094673Y-86162192D01*
X174438201Y-86304838D01*
X174810167Y-86305162D01*
X175153943Y-86163117D01*
X175417192Y-85900327D01*
X175559838Y-85556799D01*
X175560162Y-85184833D01*
X175418117Y-84841057D01*
X175155327Y-84577808D01*
X174811799Y-84435162D01*
X174697309Y-84435062D01*
X174782192Y-84350327D01*
X174924838Y-84006799D01*
X174925162Y-83634833D01*
X174797067Y-83324818D01*
X174891441Y-83264090D01*
X175036431Y-83051890D01*
X175087440Y-82800000D01*
X175087440Y-82300000D01*
X175043162Y-82064683D01*
X174904090Y-81848559D01*
X174847657Y-81810000D01*
X175350198Y-81810000D01*
X175594878Y-82054680D01*
X175594838Y-82100167D01*
X175736883Y-82443943D01*
X175999673Y-82707192D01*
X176343201Y-82849838D01*
X176715167Y-82850162D01*
X177058943Y-82708117D01*
X177322192Y-82445327D01*
X177464838Y-82101799D01*
X177465131Y-81765933D01*
X177999199Y-82300001D01*
X178245760Y-82464748D01*
X178536600Y-82522600D01*
X179142537Y-82522600D01*
X179174673Y-82554792D01*
X179518201Y-82697438D01*
X179890167Y-82697762D01*
X180233943Y-82555717D01*
X180497192Y-82292927D01*
X180639838Y-81949399D01*
X180640162Y-81577433D01*
X180498117Y-81233657D01*
X180235327Y-80970408D01*
X179891799Y-80827762D01*
X179519833Y-80827438D01*
X179176057Y-80969483D01*
X179142882Y-81002600D01*
X178851402Y-81002600D01*
X178198017Y-80349215D01*
X178328945Y-80295117D01*
X178592194Y-80032327D01*
X178734840Y-79688799D01*
X178735164Y-79316833D01*
X178593119Y-78973057D01*
X178560000Y-78939880D01*
X178560000Y-78505105D01*
X178701441Y-78414090D01*
X178846431Y-78201890D01*
X178897440Y-77950000D01*
X178897440Y-77450000D01*
X178853162Y-77214683D01*
X178714090Y-76998559D01*
X178645994Y-76952031D01*
X178788327Y-76809698D01*
X178885000Y-76576309D01*
X178885000Y-76483750D01*
X178726250Y-76325000D01*
X177927000Y-76325000D01*
X177927000Y-76347000D01*
X177673000Y-76347000D01*
X177673000Y-76325000D01*
X176873750Y-76325000D01*
X176715000Y-76483750D01*
X176715000Y-76576309D01*
X176811673Y-76809698D01*
X176952910Y-76950936D01*
X176898559Y-76985910D01*
X176753569Y-77198110D01*
X176702560Y-77450000D01*
X176702560Y-77950000D01*
X176746838Y-78185317D01*
X176885910Y-78401441D01*
X177040000Y-78506726D01*
X177040000Y-78939539D01*
X177007810Y-78971673D01*
X176952845Y-79104043D01*
X176573999Y-78725197D01*
X176573999Y-75823691D01*
X176715000Y-75823691D01*
X176715000Y-75916250D01*
X176873750Y-76075000D01*
X177673000Y-76075000D01*
X177673000Y-75473750D01*
X177927000Y-75473750D01*
X177927000Y-76075000D01*
X178726250Y-76075000D01*
X178885000Y-75916250D01*
X178885000Y-75823691D01*
X178788327Y-75590302D01*
X178609699Y-75411673D01*
X178376310Y-75315000D01*
X178085750Y-75315000D01*
X177927000Y-75473750D01*
X177673000Y-75473750D01*
X177514250Y-75315000D01*
X177223690Y-75315000D01*
X176990301Y-75411673D01*
X176811673Y-75590302D01*
X176715000Y-75823691D01*
X176573999Y-75823691D01*
X176573999Y-74721999D01*
X176516147Y-74431160D01*
X176449080Y-74330787D01*
X176449162Y-74236833D01*
X176328890Y-73945750D01*
X176665000Y-73945750D01*
X176665000Y-74411310D01*
X176761673Y-74644699D01*
X176940302Y-74823327D01*
X177173691Y-74920000D01*
X177514250Y-74920000D01*
X177673000Y-74761250D01*
X177673000Y-73787000D01*
X176823750Y-73787000D01*
X176665000Y-73945750D01*
X176328890Y-73945750D01*
X176307117Y-73893057D01*
X176044327Y-73629808D01*
X175700799Y-73487162D01*
X175328833Y-73486838D01*
X174985057Y-73628883D01*
X174721808Y-73891673D01*
X174579162Y-74235201D01*
X174578970Y-74455244D01*
X174566310Y-74450000D01*
X174275750Y-74450000D01*
X174117000Y-74608750D01*
X174117000Y-75210000D01*
X174137000Y-75210000D01*
X174137000Y-75460000D01*
X174117000Y-75460000D01*
X174117000Y-75482000D01*
X173863000Y-75482000D01*
X173863000Y-75460000D01*
X173063750Y-75460000D01*
X172905000Y-75618750D01*
X172905000Y-75711309D01*
X173001673Y-75944698D01*
X173142910Y-76085936D01*
X173088559Y-76120910D01*
X172943569Y-76333110D01*
X172892560Y-76585000D01*
X172892560Y-77085000D01*
X172936838Y-77320317D01*
X173075910Y-77536441D01*
X173230000Y-77641726D01*
X173230000Y-78939533D01*
X173197804Y-78971673D01*
X173055158Y-79315201D01*
X173054834Y-79687167D01*
X173196879Y-80030943D01*
X173353344Y-80187682D01*
X173304683Y-80196838D01*
X173088559Y-80335910D01*
X172943569Y-80548110D01*
X172892560Y-80800000D01*
X172892560Y-81300000D01*
X172936838Y-81535317D01*
X173075910Y-81751441D01*
X173145711Y-81799134D01*
X173088559Y-81835910D01*
X172943569Y-82048110D01*
X172892560Y-82300000D01*
X172892560Y-82800000D01*
X172936838Y-83035317D01*
X173075910Y-83251441D01*
X173183234Y-83324772D01*
X173055162Y-83633201D01*
X173054861Y-83979039D01*
X170157783Y-81081961D01*
X170365167Y-81082142D01*
X170708943Y-80940097D01*
X170972192Y-80677307D01*
X171114838Y-80333779D01*
X171115162Y-79961813D01*
X170973117Y-79618037D01*
X170940000Y-79584862D01*
X170940000Y-77755105D01*
X171081441Y-77664090D01*
X171226431Y-77451890D01*
X171277440Y-77200000D01*
X171277440Y-76700000D01*
X171233162Y-76464683D01*
X171094090Y-76248559D01*
X171025994Y-76202031D01*
X171168327Y-76059698D01*
X171265000Y-75826309D01*
X171265000Y-75733750D01*
X171106250Y-75575000D01*
X170307000Y-75575000D01*
X170307000Y-75597000D01*
X170053000Y-75597000D01*
X170053000Y-75575000D01*
X169253750Y-75575000D01*
X169095000Y-75733750D01*
X169095000Y-75826309D01*
X169191673Y-76059698D01*
X169332910Y-76200936D01*
X169278559Y-76235910D01*
X169133569Y-76448110D01*
X169082560Y-76700000D01*
X169082560Y-77200000D01*
X169126838Y-77435317D01*
X169265910Y-77651441D01*
X169420000Y-77756726D01*
X169420000Y-79584517D01*
X169387808Y-79616653D01*
X169245162Y-79960181D01*
X169244980Y-80169158D01*
X169083122Y-80007300D01*
X169083162Y-79961813D01*
X168941117Y-79618037D01*
X168678327Y-79354788D01*
X168334799Y-79212142D01*
X167962833Y-79211818D01*
X167619057Y-79353863D01*
X167355808Y-79616653D01*
X167258938Y-79849941D01*
X167163117Y-79618037D01*
X167130000Y-79584862D01*
X167130000Y-78910105D01*
X167271441Y-78819090D01*
X167416431Y-78606890D01*
X167467440Y-78355000D01*
X167467440Y-77855000D01*
X167423162Y-77619683D01*
X167284090Y-77403559D01*
X167215994Y-77357031D01*
X167358327Y-77214698D01*
X167455000Y-76981309D01*
X167455000Y-76888750D01*
X167296250Y-76730000D01*
X166497000Y-76730000D01*
X166497000Y-76752000D01*
X166243000Y-76752000D01*
X166243000Y-76730000D01*
X165443750Y-76730000D01*
X165285000Y-76888750D01*
X165285000Y-76981309D01*
X165381673Y-77214698D01*
X165522910Y-77355936D01*
X165468559Y-77390910D01*
X165323569Y-77603110D01*
X165272560Y-77855000D01*
X163249802Y-77855000D01*
X163859401Y-77245401D01*
X164024148Y-76998839D01*
X164082000Y-76708000D01*
X164082000Y-76514802D01*
X164368111Y-76228691D01*
X165285000Y-76228691D01*
X165285000Y-76321250D01*
X165443750Y-76480000D01*
X166243000Y-76480000D01*
X166243000Y-75878750D01*
X166497000Y-75878750D01*
X166497000Y-76480000D01*
X167296250Y-76480000D01*
X167455000Y-76321250D01*
X167455000Y-76228691D01*
X167358327Y-75995302D01*
X167179699Y-75816673D01*
X166946310Y-75720000D01*
X166655750Y-75720000D01*
X166497000Y-75878750D01*
X166243000Y-75878750D01*
X166084250Y-75720000D01*
X165793690Y-75720000D01*
X165560301Y-75816673D01*
X165381673Y-75995302D01*
X165285000Y-76228691D01*
X164368111Y-76228691D01*
X165523111Y-75073691D01*
X169095000Y-75073691D01*
X169095000Y-75166250D01*
X169253750Y-75325000D01*
X170053000Y-75325000D01*
X170053000Y-74723750D01*
X170307000Y-74723750D01*
X170307000Y-75325000D01*
X171106250Y-75325000D01*
X171265000Y-75166250D01*
X171265000Y-75073691D01*
X171217366Y-74958691D01*
X172905000Y-74958691D01*
X172905000Y-75051250D01*
X173063750Y-75210000D01*
X173863000Y-75210000D01*
X173863000Y-74608750D01*
X173704250Y-74450000D01*
X173413690Y-74450000D01*
X173180301Y-74546673D01*
X173001673Y-74725302D01*
X172905000Y-74958691D01*
X171217366Y-74958691D01*
X171168327Y-74840302D01*
X170989699Y-74661673D01*
X170756310Y-74565000D01*
X170465750Y-74565000D01*
X170307000Y-74723750D01*
X170053000Y-74723750D01*
X169894250Y-74565000D01*
X169603690Y-74565000D01*
X169370301Y-74661673D01*
X169191673Y-74840302D01*
X169095000Y-75073691D01*
X165523111Y-75073691D01*
X167192802Y-73404000D01*
X174986000Y-73404000D01*
X175276839Y-73346148D01*
X175523401Y-73181401D01*
X175796112Y-72908690D01*
X176665000Y-72908690D01*
X176665000Y-73374250D01*
X176823750Y-73533000D01*
X177673000Y-73533000D01*
X177673000Y-72558750D01*
X177514250Y-72400000D01*
X177173691Y-72400000D01*
X176940302Y-72496673D01*
X176761673Y-72675301D01*
X176665000Y-72908690D01*
X175796112Y-72908690D01*
X178337401Y-70367401D01*
X178456937Y-70188502D01*
X178485317Y-70183162D01*
X178701441Y-70044090D01*
X178846431Y-69831890D01*
X178897440Y-69580000D01*
X178897440Y-69080000D01*
X178853162Y-68844683D01*
X178714090Y-68628559D01*
X178644289Y-68580866D01*
X178701441Y-68544090D01*
X178730917Y-68500951D01*
X179451000Y-69221034D01*
X179451000Y-72387560D01*
X179300000Y-72387560D01*
X179064683Y-72431838D01*
X178848559Y-72570910D01*
X178802031Y-72639006D01*
X178659698Y-72496673D01*
X178426309Y-72400000D01*
X178085750Y-72400000D01*
X177927000Y-72558750D01*
X177927000Y-73533000D01*
X177947000Y-73533000D01*
X177947000Y-73787000D01*
X177927000Y-73787000D01*
X177927000Y-74761250D01*
X178085750Y-74920000D01*
X178426309Y-74920000D01*
X178659698Y-74823327D01*
X178800936Y-74682090D01*
X178835910Y-74736441D01*
X179048110Y-74881431D01*
X179300000Y-74932440D01*
X180202804Y-74932440D01*
X181242066Y-75971702D01*
X181196655Y-76200000D01*
X181310729Y-76773489D01*
X181635585Y-77259670D01*
X181950366Y-77470000D01*
X181635585Y-77680330D01*
X181310729Y-78166511D01*
X181196655Y-78740000D01*
X181310729Y-79313489D01*
X181635585Y-79799670D01*
X181950366Y-80010000D01*
X181635585Y-80220330D01*
X181310729Y-80706511D01*
X181196655Y-81280000D01*
X181310729Y-81853489D01*
X181635585Y-82339670D01*
X182121766Y-82664526D01*
X182695255Y-82778600D01*
X183064745Y-82778600D01*
X183638234Y-82664526D01*
X184124415Y-82339670D01*
X184449271Y-81853489D01*
X184563345Y-81280000D01*
X184449271Y-80706511D01*
X184124415Y-80220330D01*
X183809634Y-80010000D01*
X184124415Y-79799670D01*
X184449271Y-79313489D01*
X184543700Y-78838762D01*
X184638129Y-79313489D01*
X184962985Y-79799670D01*
X185449166Y-80124526D01*
X186022655Y-80238600D01*
X186392145Y-80238600D01*
X186965634Y-80124526D01*
X187451815Y-79799670D01*
X187776671Y-79313489D01*
X187890745Y-78740000D01*
X187776671Y-78166511D01*
X187451815Y-77680330D01*
X187137034Y-77470000D01*
X187451815Y-77259670D01*
X187776671Y-76773489D01*
X187890745Y-76200000D01*
X187776671Y-75626511D01*
X187451815Y-75140330D01*
X187429620Y-75125500D01*
X187583098Y-75061927D01*
X187761727Y-74883299D01*
X187858400Y-74649910D01*
X187858400Y-73945750D01*
X187699650Y-73787000D01*
X186334400Y-73787000D01*
X186334400Y-73807000D01*
X186080400Y-73807000D01*
X186080400Y-73787000D01*
X184715150Y-73787000D01*
X184556400Y-73945750D01*
X184556400Y-74649910D01*
X184653073Y-74883299D01*
X184831702Y-75061927D01*
X184985180Y-75125500D01*
X184962985Y-75140330D01*
X184638129Y-75626511D01*
X184543700Y-76101238D01*
X184449271Y-75626511D01*
X184124415Y-75140330D01*
X184102220Y-75125500D01*
X184255698Y-75061927D01*
X184434327Y-74883299D01*
X184531000Y-74649910D01*
X184531000Y-73945750D01*
X184372250Y-73787000D01*
X183007000Y-73787000D01*
X183007000Y-73807000D01*
X182753000Y-73807000D01*
X182753000Y-73787000D01*
X182733000Y-73787000D01*
X182733000Y-73533000D01*
X182753000Y-73533000D01*
X182753000Y-72320150D01*
X183007000Y-72320150D01*
X183007000Y-73533000D01*
X184372250Y-73533000D01*
X184531000Y-73374250D01*
X184531000Y-72670090D01*
X184556400Y-72670090D01*
X184556400Y-73374250D01*
X184715150Y-73533000D01*
X186080400Y-73533000D01*
X186080400Y-72320150D01*
X186334400Y-72320150D01*
X186334400Y-73533000D01*
X187699650Y-73533000D01*
X187858400Y-73374250D01*
X187858400Y-72670090D01*
X187761727Y-72436701D01*
X187583098Y-72258073D01*
X187349709Y-72161400D01*
X186493150Y-72161400D01*
X186334400Y-72320150D01*
X186080400Y-72320150D01*
X185921650Y-72161400D01*
X185065091Y-72161400D01*
X184831702Y-72258073D01*
X184653073Y-72436701D01*
X184556400Y-72670090D01*
X184531000Y-72670090D01*
X184434327Y-72436701D01*
X184255698Y-72258073D01*
X184022309Y-72161400D01*
X183165750Y-72161400D01*
X183007000Y-72320150D01*
X182753000Y-72320150D01*
X182594250Y-72161400D01*
X181737691Y-72161400D01*
X181504302Y-72258073D01*
X181325673Y-72436701D01*
X181229000Y-72670090D01*
X181229000Y-68852798D01*
X181161329Y-68512592D01*
X180968618Y-68224180D01*
X177641438Y-64897000D01*
X181557394Y-64897000D01*
X189103000Y-72442606D01*
X189103000Y-81227394D01*
X182827394Y-87503000D01*
X159984026Y-87503000D01*
X160103327Y-87383698D01*
X160200000Y-87150309D01*
X160200000Y-86659750D01*
X160186000Y-86645750D01*
X160665000Y-86645750D01*
X160665000Y-86986309D01*
X160761673Y-87219698D01*
X160940301Y-87398327D01*
X161173690Y-87495000D01*
X161639250Y-87495000D01*
X161798000Y-87336250D01*
X161798000Y-86487000D01*
X162052000Y-86487000D01*
X162052000Y-87336250D01*
X162210750Y-87495000D01*
X162676310Y-87495000D01*
X162909699Y-87398327D01*
X163088327Y-87219698D01*
X163185000Y-86986309D01*
X163185000Y-86645750D01*
X163026250Y-86487000D01*
X162052000Y-86487000D01*
X161798000Y-86487000D01*
X160823750Y-86487000D01*
X160665000Y-86645750D01*
X160186000Y-86645750D01*
X160041250Y-86501000D01*
X159167000Y-86501000D01*
X159167000Y-86521000D01*
X158913000Y-86521000D01*
X158913000Y-86501000D01*
X158893000Y-86501000D01*
X158893000Y-86247000D01*
X158913000Y-86247000D01*
X158913000Y-86227000D01*
X159167000Y-86227000D01*
X159167000Y-86247000D01*
X160041250Y-86247000D01*
X160200000Y-86088250D01*
X160200000Y-85597691D01*
X160103327Y-85364302D01*
X160074025Y-85335000D01*
X160870390Y-85335000D01*
X160904006Y-85357969D01*
X160761673Y-85500302D01*
X160665000Y-85733691D01*
X160665000Y-86074250D01*
X160823750Y-86233000D01*
X161798000Y-86233000D01*
X161798000Y-86213000D01*
X162052000Y-86213000D01*
X162052000Y-86233000D01*
X163026250Y-86233000D01*
X163185000Y-86074250D01*
X163185000Y-85733691D01*
X163088327Y-85500302D01*
X162947090Y-85359064D01*
X163001441Y-85324090D01*
X163146431Y-85111890D01*
X163197440Y-84860000D01*
X163197440Y-83860000D01*
X163153162Y-83624683D01*
X163014090Y-83408559D01*
X162801890Y-83263569D01*
X162550000Y-83212560D01*
X161300000Y-83212560D01*
X161064683Y-83256838D01*
X160848559Y-83395910D01*
X160703569Y-83608110D01*
X160661673Y-83815000D01*
X160212440Y-83815000D01*
X160212440Y-83424000D01*
X160168162Y-83188683D01*
X160029090Y-82972559D01*
X159816890Y-82827569D01*
X159565000Y-82776560D01*
X159289362Y-82776560D01*
X158779401Y-82266599D01*
X158532839Y-82101852D01*
X158242000Y-82044000D01*
X157534463Y-82044000D01*
X157502327Y-82011808D01*
X157158799Y-81869162D01*
X156786833Y-81868838D01*
X156443057Y-82010883D01*
X156179808Y-82273673D01*
X156037162Y-82617201D01*
X156036838Y-82989167D01*
X156097242Y-83135355D01*
X156030000Y-83297691D01*
X156030000Y-83788250D01*
X156188750Y-83947000D01*
X157063000Y-83947000D01*
X157063000Y-83927000D01*
X157317000Y-83927000D01*
X157317000Y-83947000D01*
X157337000Y-83947000D01*
X157337000Y-84201000D01*
X157317000Y-84201000D01*
X157317000Y-84221000D01*
X157063000Y-84221000D01*
X157063000Y-84201000D01*
X156253189Y-84201000D01*
X156142799Y-84155162D01*
X155770833Y-84154838D01*
X155444627Y-84289623D01*
X155565000Y-84169250D01*
X155565000Y-83828691D01*
X155468327Y-83595302D01*
X155289699Y-83416673D01*
X155056310Y-83320000D01*
X154590750Y-83320000D01*
X154432000Y-83478750D01*
X154432000Y-84328000D01*
X154452000Y-84328000D01*
X154452000Y-84582000D01*
X154432000Y-84582000D01*
X154432000Y-84602000D01*
X154178000Y-84602000D01*
X154178000Y-84582000D01*
X153203750Y-84582000D01*
X153045000Y-84740750D01*
X153045000Y-85081309D01*
X153141673Y-85314698D01*
X153282910Y-85455936D01*
X153228559Y-85490910D01*
X153083569Y-85703110D01*
X153032560Y-85955000D01*
X153032560Y-86955000D01*
X153076838Y-87190317D01*
X153215910Y-87406441D01*
X153357229Y-87503000D01*
X144959336Y-87503000D01*
X145064192Y-87398327D01*
X145206838Y-87054799D01*
X145207162Y-86682833D01*
X145065117Y-86339057D01*
X144905000Y-86178660D01*
X144905000Y-83828691D01*
X153045000Y-83828691D01*
X153045000Y-84169250D01*
X153203750Y-84328000D01*
X154178000Y-84328000D01*
X154178000Y-83478750D01*
X154019250Y-83320000D01*
X153553690Y-83320000D01*
X153320301Y-83416673D01*
X153141673Y-83595302D01*
X153045000Y-83828691D01*
X144905000Y-83828691D01*
X144905000Y-82497038D01*
X145005317Y-82478162D01*
X145221441Y-82339090D01*
X145366431Y-82126890D01*
X145417440Y-81875000D01*
X145417440Y-80875000D01*
X145373162Y-80639683D01*
X145234090Y-80423559D01*
X145165994Y-80377031D01*
X145308327Y-80234698D01*
X145405000Y-80001309D01*
X145405000Y-79660750D01*
X151265000Y-79660750D01*
X151265000Y-80126310D01*
X151361673Y-80359699D01*
X151540302Y-80538327D01*
X151773691Y-80635000D01*
X152114250Y-80635000D01*
X152273000Y-80476250D01*
X152273000Y-79502000D01*
X151423750Y-79502000D01*
X151265000Y-79660750D01*
X145405000Y-79660750D01*
X145246250Y-79502000D01*
X144272000Y-79502000D01*
X144272000Y-79522000D01*
X144018000Y-79522000D01*
X144018000Y-79502000D01*
X143043750Y-79502000D01*
X142885000Y-79660750D01*
X142885000Y-80001309D01*
X142981673Y-80234698D01*
X143122910Y-80375936D01*
X143068559Y-80410910D01*
X142923569Y-80623110D01*
X142872560Y-80875000D01*
X142872560Y-81875000D01*
X142916838Y-82110317D01*
X143055910Y-82326441D01*
X143268110Y-82471431D01*
X143385000Y-82495102D01*
X143385000Y-86565995D01*
X143337162Y-86681201D01*
X143336838Y-87053167D01*
X143478883Y-87396943D01*
X143584755Y-87503000D01*
X133402606Y-87503000D01*
X130539773Y-84640167D01*
X132533848Y-84640167D01*
X132675893Y-84983943D01*
X132938683Y-85247192D01*
X133282211Y-85389838D01*
X133654177Y-85390162D01*
X133997953Y-85248117D01*
X134261202Y-84985327D01*
X134403848Y-84641799D01*
X134403993Y-84475809D01*
X134797362Y-84082440D01*
X135070000Y-84082440D01*
X135305317Y-84038162D01*
X135521441Y-83899090D01*
X135666431Y-83686890D01*
X135717440Y-83435000D01*
X135717440Y-83050000D01*
X139237560Y-83050000D01*
X139237560Y-83550000D01*
X139281838Y-83785317D01*
X139420910Y-84001441D01*
X139491035Y-84049355D01*
X139400162Y-84268201D01*
X139399838Y-84640167D01*
X139541883Y-84983943D01*
X139804673Y-85247192D01*
X140148201Y-85389838D01*
X140520167Y-85390162D01*
X140863943Y-85248117D01*
X141127192Y-84985327D01*
X141269838Y-84641799D01*
X141270162Y-84269833D01*
X141179603Y-84050664D01*
X141236441Y-84014090D01*
X141381431Y-83801890D01*
X141432440Y-83550000D01*
X141432440Y-83050000D01*
X141388162Y-82814683D01*
X141249090Y-82598559D01*
X141180994Y-82552031D01*
X141323327Y-82409698D01*
X141420000Y-82176309D01*
X141420000Y-82083750D01*
X141261250Y-81925000D01*
X140462000Y-81925000D01*
X140462000Y-81947000D01*
X140208000Y-81947000D01*
X140208000Y-81925000D01*
X139408750Y-81925000D01*
X139250000Y-82083750D01*
X139250000Y-82176309D01*
X139346673Y-82409698D01*
X139487910Y-82550936D01*
X139433559Y-82585910D01*
X139288569Y-82798110D01*
X139237560Y-83050000D01*
X135717440Y-83050000D01*
X135717440Y-82935000D01*
X135673162Y-82699683D01*
X135534090Y-82483559D01*
X135464289Y-82435866D01*
X135521441Y-82399090D01*
X135666431Y-82186890D01*
X135717440Y-81935000D01*
X135717440Y-81435000D01*
X135715313Y-81423691D01*
X139250000Y-81423691D01*
X139250000Y-81516250D01*
X139408750Y-81675000D01*
X140208000Y-81675000D01*
X140208000Y-81073750D01*
X140462000Y-81073750D01*
X140462000Y-81675000D01*
X141261250Y-81675000D01*
X141420000Y-81516250D01*
X141420000Y-81423691D01*
X141323327Y-81190302D01*
X141144699Y-81011673D01*
X140911310Y-80915000D01*
X140620750Y-80915000D01*
X140462000Y-81073750D01*
X140208000Y-81073750D01*
X140049250Y-80915000D01*
X139758690Y-80915000D01*
X139525301Y-81011673D01*
X139346673Y-81190302D01*
X139250000Y-81423691D01*
X135715313Y-81423691D01*
X135673162Y-81199683D01*
X135534090Y-80983559D01*
X135321890Y-80838569D01*
X135070000Y-80787560D01*
X134170000Y-80787560D01*
X133934683Y-80831838D01*
X133718559Y-80970910D01*
X133625653Y-81106882D01*
X133574833Y-81106838D01*
X133231057Y-81248883D01*
X132967808Y-81511673D01*
X132825162Y-81855201D01*
X132824838Y-82227167D01*
X132966883Y-82570943D01*
X133229673Y-82834192D01*
X133522560Y-82955810D01*
X133522560Y-83207638D01*
X133158618Y-83571580D01*
X132940067Y-83661883D01*
X132676818Y-83924673D01*
X132534172Y-84268201D01*
X132533848Y-84640167D01*
X130539773Y-84640167D01*
X127127000Y-81227394D01*
X127127000Y-80295750D01*
X129159000Y-80295750D01*
X129159000Y-80999910D01*
X129255673Y-81233299D01*
X129434302Y-81411927D01*
X129667691Y-81508600D01*
X130524250Y-81508600D01*
X130683000Y-81349850D01*
X130683000Y-80137000D01*
X130937000Y-80137000D01*
X130937000Y-81349850D01*
X131095750Y-81508600D01*
X131952309Y-81508600D01*
X132185698Y-81411927D01*
X132364327Y-81233299D01*
X132461000Y-80999910D01*
X132461000Y-80295750D01*
X132302250Y-80137000D01*
X130937000Y-80137000D01*
X130683000Y-80137000D01*
X129317750Y-80137000D01*
X129159000Y-80295750D01*
X127127000Y-80295750D01*
X127127000Y-72390000D01*
X129126655Y-72390000D01*
X129240729Y-72963489D01*
X129565585Y-73449670D01*
X129880366Y-73660000D01*
X129565585Y-73870330D01*
X129240729Y-74356511D01*
X129126655Y-74930000D01*
X129240729Y-75503489D01*
X129565585Y-75989670D01*
X129880366Y-76200000D01*
X129565585Y-76410330D01*
X129240729Y-76896511D01*
X129126655Y-77470000D01*
X129240729Y-78043489D01*
X129565585Y-78529670D01*
X129587780Y-78544500D01*
X129434302Y-78608073D01*
X129255673Y-78786701D01*
X129159000Y-79020090D01*
X129159000Y-79724250D01*
X129317750Y-79883000D01*
X130683000Y-79883000D01*
X130683000Y-79863000D01*
X130937000Y-79863000D01*
X130937000Y-79883000D01*
X132302250Y-79883000D01*
X132461000Y-79724250D01*
X132461000Y-79020090D01*
X132364327Y-78786701D01*
X132326317Y-78748691D01*
X142885000Y-78748691D01*
X142885000Y-79089250D01*
X143043750Y-79248000D01*
X144018000Y-79248000D01*
X144018000Y-78398750D01*
X144272000Y-78398750D01*
X144272000Y-79248000D01*
X145246250Y-79248000D01*
X145405000Y-79089250D01*
X145405000Y-78748691D01*
X145308327Y-78515302D01*
X145129699Y-78336673D01*
X144896310Y-78240000D01*
X144430750Y-78240000D01*
X144272000Y-78398750D01*
X144018000Y-78398750D01*
X143859250Y-78240000D01*
X143393690Y-78240000D01*
X143160301Y-78336673D01*
X142981673Y-78515302D01*
X142885000Y-78748691D01*
X132326317Y-78748691D01*
X132185698Y-78608073D01*
X132032220Y-78544500D01*
X132054415Y-78529670D01*
X132379271Y-78043489D01*
X132493345Y-77470000D01*
X132379271Y-76896511D01*
X132054415Y-76410330D01*
X131739634Y-76200000D01*
X132054415Y-75989670D01*
X132379271Y-75503489D01*
X132493345Y-74930000D01*
X132379271Y-74356511D01*
X132054415Y-73870330D01*
X131739634Y-73660000D01*
X132054415Y-73449670D01*
X132147238Y-73310750D01*
X134370000Y-73310750D01*
X134370000Y-73601310D01*
X134466673Y-73834699D01*
X134645302Y-74013327D01*
X134878691Y-74110000D01*
X134971250Y-74110000D01*
X135130000Y-73951250D01*
X135130000Y-73152000D01*
X134528750Y-73152000D01*
X134370000Y-73310750D01*
X132147238Y-73310750D01*
X132379271Y-72963489D01*
X132481670Y-72448690D01*
X134370000Y-72448690D01*
X134370000Y-72739250D01*
X134528750Y-72898000D01*
X135130000Y-72898000D01*
X135130000Y-72098750D01*
X134971250Y-71940000D01*
X134878691Y-71940000D01*
X134645302Y-72036673D01*
X134466673Y-72215301D01*
X134370000Y-72448690D01*
X132481670Y-72448690D01*
X132493345Y-72390000D01*
X132379271Y-71816511D01*
X132054415Y-71330330D01*
X131568234Y-71005474D01*
X130994745Y-70891400D01*
X130625255Y-70891400D01*
X130051766Y-71005474D01*
X129565585Y-71330330D01*
X129240729Y-71816511D01*
X129126655Y-72390000D01*
X127127000Y-72390000D01*
X127127000Y-71172606D01*
X133402606Y-64897000D01*
X146189764Y-64897000D01*
X142881382Y-68205382D01*
X142881382Y-68205382D01*
G37*
X142881382Y-68205382D02*
X142688671Y-68493794D01*
X142621000Y-68834000D01*
X142621000Y-72136000D01*
X142537189Y-72136000D01*
X142426799Y-72090162D01*
X142054833Y-72089838D01*
X141711057Y-72231883D01*
X141447808Y-72494673D01*
X141305162Y-72838201D01*
X141304838Y-73210167D01*
X141351000Y-73321888D01*
X141351000Y-73362811D01*
X141305162Y-73473201D01*
X141304838Y-73845167D01*
X141446883Y-74188943D01*
X141542773Y-74285000D01*
X140015409Y-74285000D01*
X139979090Y-74228559D01*
X139910994Y-74182031D01*
X140053327Y-74039698D01*
X140150000Y-73806309D01*
X140150000Y-73713750D01*
X139991250Y-73555000D01*
X139192000Y-73555000D01*
X139192000Y-73577000D01*
X138938000Y-73577000D01*
X138938000Y-73555000D01*
X138918000Y-73555000D01*
X138918000Y-73305000D01*
X138938000Y-73305000D01*
X138938000Y-72703750D01*
X139192000Y-72703750D01*
X139192000Y-73305000D01*
X139991250Y-73305000D01*
X140150000Y-73146250D01*
X140150000Y-73053691D01*
X140053327Y-72820302D01*
X139874699Y-72641673D01*
X139641310Y-72545000D01*
X139350750Y-72545000D01*
X139192000Y-72703750D01*
X138938000Y-72703750D01*
X138779250Y-72545000D01*
X138603087Y-72545000D01*
X138603162Y-72458833D01*
X138461117Y-72115057D01*
X138413719Y-72067576D01*
X138433998Y-72067594D01*
X138777774Y-71925549D01*
X139041023Y-71662759D01*
X139183669Y-71319231D01*
X139183993Y-70947265D01*
X139041948Y-70603489D01*
X138779158Y-70340240D01*
X138435630Y-70197594D01*
X138388754Y-70197553D01*
X138326951Y-70135750D01*
X139710000Y-70135750D01*
X139710000Y-70476309D01*
X139806673Y-70709698D01*
X139985301Y-70888327D01*
X140218690Y-70985000D01*
X140684250Y-70985000D01*
X140843000Y-70826250D01*
X140843000Y-69977000D01*
X141097000Y-69977000D01*
X141097000Y-70826250D01*
X141255750Y-70985000D01*
X141721310Y-70985000D01*
X141954699Y-70888327D01*
X142133327Y-70709698D01*
X142230000Y-70476309D01*
X142230000Y-70135750D01*
X142071250Y-69977000D01*
X141097000Y-69977000D01*
X140843000Y-69977000D01*
X139868750Y-69977000D01*
X139710000Y-70135750D01*
X138326951Y-70135750D01*
X136194368Y-68003167D01*
X138256838Y-68003167D01*
X138398883Y-68346943D01*
X138661673Y-68610192D01*
X139005201Y-68752838D01*
X139377167Y-68753162D01*
X139720943Y-68611117D01*
X139743774Y-68588326D01*
X139880910Y-68801441D01*
X139949006Y-68847969D01*
X139806673Y-68990302D01*
X139710000Y-69223691D01*
X139710000Y-69564250D01*
X139868750Y-69723000D01*
X140843000Y-69723000D01*
X140843000Y-69703000D01*
X141097000Y-69703000D01*
X141097000Y-69723000D01*
X142071250Y-69723000D01*
X142230000Y-69564250D01*
X142230000Y-69223691D01*
X142133327Y-68990302D01*
X141992090Y-68849064D01*
X142046441Y-68814090D01*
X142191431Y-68601890D01*
X142242440Y-68350000D01*
X142242440Y-67350000D01*
X142198162Y-67114683D01*
X142059090Y-66898559D01*
X141846890Y-66753569D01*
X141595000Y-66702560D01*
X140345000Y-66702560D01*
X140109683Y-66746838D01*
X139893559Y-66885910D01*
X139775975Y-67058000D01*
X139754463Y-67058000D01*
X139722327Y-67025808D01*
X139378799Y-66883162D01*
X139006833Y-66882838D01*
X138663057Y-67024883D01*
X138399808Y-67287673D01*
X138257162Y-67631201D01*
X138256838Y-68003167D01*
X136194368Y-68003167D01*
X136003800Y-67812599D01*
X135757238Y-67647852D01*
X135466399Y-67590000D01*
X134813386Y-67590000D01*
X134686890Y-67503569D01*
X134435000Y-67452560D01*
X133535000Y-67452560D01*
X133299683Y-67496838D01*
X133083559Y-67635910D01*
X132938569Y-67848110D01*
X132887560Y-68100000D01*
X132887560Y-68600000D01*
X132931838Y-68835317D01*
X133070910Y-69051441D01*
X133140711Y-69099134D01*
X133083559Y-69135910D01*
X132938569Y-69348110D01*
X132887560Y-69600000D01*
X132887560Y-70100000D01*
X132931838Y-70335317D01*
X133049970Y-70518899D01*
X133049838Y-70670167D01*
X133191883Y-71013943D01*
X133454673Y-71277192D01*
X133798201Y-71419838D01*
X134170167Y-71420162D01*
X134513943Y-71278117D01*
X134777192Y-71015327D01*
X134919838Y-70671799D01*
X134919975Y-70515012D01*
X135031431Y-70351890D01*
X135082440Y-70100000D01*
X135082440Y-69600000D01*
X135038162Y-69364683D01*
X134899090Y-69148559D01*
X134842657Y-69110000D01*
X135151597Y-69110000D01*
X137313709Y-71272112D01*
X137313669Y-71317599D01*
X137455714Y-71661375D01*
X137503112Y-71708856D01*
X137482833Y-71708838D01*
X137139057Y-71850883D01*
X137052592Y-71937198D01*
X137005000Y-71927560D01*
X136505000Y-71927560D01*
X136269683Y-71971838D01*
X136053559Y-72110910D01*
X136007031Y-72179006D01*
X135864698Y-72036673D01*
X135631309Y-71940000D01*
X135538750Y-71940000D01*
X135380000Y-72098750D01*
X135380000Y-72898000D01*
X135402000Y-72898000D01*
X135402000Y-73152000D01*
X135380000Y-73152000D01*
X135380000Y-73951250D01*
X135538750Y-74110000D01*
X135631309Y-74110000D01*
X135864698Y-74013327D01*
X136005936Y-73872090D01*
X136040910Y-73926441D01*
X136253110Y-74071431D01*
X136505000Y-74122440D01*
X137005000Y-74122440D01*
X137240317Y-74078162D01*
X137456441Y-73939090D01*
X137601431Y-73726890D01*
X137605062Y-73708958D01*
X137799386Y-73579115D01*
X137853167Y-73579162D01*
X137980000Y-73526756D01*
X137980000Y-73557002D01*
X138136748Y-73557002D01*
X137980000Y-73713750D01*
X137980000Y-73806309D01*
X138074101Y-74033489D01*
X137981799Y-73995162D01*
X137609833Y-73994838D01*
X137266057Y-74136883D01*
X137002808Y-74399673D01*
X136860162Y-74743201D01*
X136859838Y-75115167D01*
X137001883Y-75458943D01*
X137264673Y-75722192D01*
X137608201Y-75864838D01*
X137980167Y-75865162D01*
X138091888Y-75819000D01*
X138573322Y-75819000D01*
X138615000Y-75827440D01*
X139515000Y-75827440D01*
X139634258Y-75805000D01*
X142681614Y-75805000D01*
X142808110Y-75891431D01*
X143060000Y-75942440D01*
X143960000Y-75942440D01*
X144195317Y-75898162D01*
X144411441Y-75759090D01*
X144556431Y-75546890D01*
X144607440Y-75295000D01*
X144607440Y-74795000D01*
X144563162Y-74559683D01*
X144424090Y-74343559D01*
X144354289Y-74295866D01*
X144411441Y-74259090D01*
X144556431Y-74046890D01*
X144607440Y-73795000D01*
X144607440Y-73295000D01*
X144563162Y-73059683D01*
X144424090Y-72843559D01*
X144399000Y-72826416D01*
X144399000Y-69202236D01*
X147307236Y-66294000D01*
X151071198Y-66294000D01*
X150990320Y-66374878D01*
X150944833Y-66374838D01*
X150601057Y-66516883D01*
X150337808Y-66779673D01*
X150195162Y-67123201D01*
X150194838Y-67495167D01*
X150336883Y-67838943D01*
X150599673Y-68102192D01*
X150943201Y-68244838D01*
X151315167Y-68245162D01*
X151658943Y-68103117D01*
X151922192Y-67840327D01*
X152064838Y-67496799D01*
X152064879Y-67449923D01*
X152460802Y-67054000D01*
X155018011Y-67054000D01*
X154825474Y-67342152D01*
X154711400Y-67915641D01*
X154711400Y-67974359D01*
X154825474Y-68547848D01*
X155150330Y-69034029D01*
X155421161Y-69214992D01*
X155003179Y-69596510D01*
X154755032Y-70125973D01*
X154875531Y-70358000D01*
X156083000Y-70358000D01*
X156083000Y-70338000D01*
X156337000Y-70338000D01*
X156337000Y-70358000D01*
X156357000Y-70358000D01*
X156357000Y-70612000D01*
X156337000Y-70612000D01*
X156337000Y-70632000D01*
X156083000Y-70632000D01*
X156083000Y-70612000D01*
X154875531Y-70612000D01*
X154755032Y-70844027D01*
X155003179Y-71373490D01*
X155435053Y-71767688D01*
X155842677Y-71936521D01*
X155688335Y-72090863D01*
X155380799Y-71963162D01*
X155008833Y-71962838D01*
X154665057Y-72104883D01*
X154631882Y-72138000D01*
X149158804Y-72138000D01*
X146731122Y-69710318D01*
X146731162Y-69664831D01*
X146589117Y-69321055D01*
X146326327Y-69057806D01*
X145982799Y-68915160D01*
X145610833Y-68914836D01*
X145267057Y-69056881D01*
X145003808Y-69319671D01*
X144861162Y-69663199D01*
X144860838Y-70035165D01*
X145002883Y-70378941D01*
X145108711Y-70484953D01*
X145003808Y-70589673D01*
X144861162Y-70933201D01*
X144860838Y-71305167D01*
X145002883Y-71648943D01*
X145265673Y-71912192D01*
X145609201Y-72054838D01*
X145910298Y-72055100D01*
X151210878Y-77355680D01*
X151210838Y-77401167D01*
X151352883Y-77744943D01*
X151615673Y-78008192D01*
X151872894Y-78115000D01*
X151773691Y-78115000D01*
X151540302Y-78211673D01*
X151361673Y-78390301D01*
X151265000Y-78623690D01*
X151265000Y-79089250D01*
X151423750Y-79248000D01*
X152273000Y-79248000D01*
X152273000Y-79228000D01*
X152527000Y-79228000D01*
X152527000Y-79248000D01*
X152547000Y-79248000D01*
X152547000Y-79502000D01*
X152527000Y-79502000D01*
X152527000Y-80476250D01*
X152685750Y-80635000D01*
X153026309Y-80635000D01*
X153259698Y-80538327D01*
X153400936Y-80397090D01*
X153435910Y-80451441D01*
X153497021Y-80493196D01*
X153496838Y-80703167D01*
X153638883Y-81046943D01*
X153901673Y-81310192D01*
X154245201Y-81452838D01*
X154617167Y-81453162D01*
X154960943Y-81311117D01*
X155224192Y-81048327D01*
X155366838Y-80704799D01*
X155367068Y-80441220D01*
X155496431Y-80251890D01*
X155547440Y-80000000D01*
X155547440Y-78820754D01*
X155769201Y-78912838D01*
X156141167Y-78913162D01*
X156484943Y-78771117D01*
X156748192Y-78508327D01*
X156890838Y-78164799D01*
X156891162Y-77792833D01*
X156749117Y-77449057D01*
X156681755Y-77381578D01*
X156658148Y-77262897D01*
X156579001Y-77144445D01*
X156579001Y-74849101D01*
X156649167Y-74849162D01*
X156992943Y-74707117D01*
X157256192Y-74444327D01*
X157398838Y-74100799D01*
X157398879Y-74053923D01*
X157540802Y-73912000D01*
X158069001Y-73912000D01*
X158068838Y-74099167D01*
X158210883Y-74442943D01*
X158244000Y-74476118D01*
X158244000Y-77470000D01*
X158301852Y-77760839D01*
X158466599Y-78007401D01*
X159084878Y-78625680D01*
X159084838Y-78671167D01*
X159226883Y-79014943D01*
X159489673Y-79278192D01*
X159622042Y-79333156D01*
X159372320Y-79582878D01*
X159326833Y-79582838D01*
X158983057Y-79724883D01*
X158719808Y-79987673D01*
X158577162Y-80331201D01*
X158576838Y-80703167D01*
X158718883Y-81046943D01*
X158981673Y-81310192D01*
X159325201Y-81452838D01*
X159697167Y-81453162D01*
X160040943Y-81311117D01*
X160304192Y-81048327D01*
X160446838Y-80704799D01*
X160446879Y-80657923D01*
X163249802Y-77855000D01*
X165272560Y-77855000D01*
X165272560Y-78355000D01*
X165316838Y-78590317D01*
X165455910Y-78806441D01*
X165610000Y-78911726D01*
X165610000Y-79584517D01*
X165577808Y-79616653D01*
X165435162Y-79960181D01*
X165434838Y-80332147D01*
X165576883Y-80675923D01*
X165839673Y-80939172D01*
X166183201Y-81081818D01*
X166555167Y-81082142D01*
X166898943Y-80940097D01*
X167162192Y-80677307D01*
X167259062Y-80444019D01*
X167354883Y-80675923D01*
X167617673Y-80939172D01*
X167961201Y-81081818D01*
X168008077Y-81081859D01*
X172833619Y-85907401D01*
X173080181Y-86072148D01*
X173371020Y-86130000D01*
X174062537Y-86130000D01*
X174094673Y-86162192D01*
X174438201Y-86304838D01*
X174810167Y-86305162D01*
X175153943Y-86163117D01*
X175417192Y-85900327D01*
X175559838Y-85556799D01*
X175560162Y-85184833D01*
X175418117Y-84841057D01*
X175155327Y-84577808D01*
X174811799Y-84435162D01*
X174697309Y-84435062D01*
X174782192Y-84350327D01*
X174924838Y-84006799D01*
X174925162Y-83634833D01*
X174797067Y-83324818D01*
X174891441Y-83264090D01*
X175036431Y-83051890D01*
X175087440Y-82800000D01*
X175087440Y-82300000D01*
X175043162Y-82064683D01*
X174904090Y-81848559D01*
X174847657Y-81810000D01*
X175350198Y-81810000D01*
X175594878Y-82054680D01*
X175594838Y-82100167D01*
X175736883Y-82443943D01*
X175999673Y-82707192D01*
X176343201Y-82849838D01*
X176715167Y-82850162D01*
X177058943Y-82708117D01*
X177322192Y-82445327D01*
X177464838Y-82101799D01*
X177465131Y-81765933D01*
X177999199Y-82300001D01*
X178245760Y-82464748D01*
X178536600Y-82522600D01*
X179142537Y-82522600D01*
X179174673Y-82554792D01*
X179518201Y-82697438D01*
X179890167Y-82697762D01*
X180233943Y-82555717D01*
X180497192Y-82292927D01*
X180639838Y-81949399D01*
X180640162Y-81577433D01*
X180498117Y-81233657D01*
X180235327Y-80970408D01*
X179891799Y-80827762D01*
X179519833Y-80827438D01*
X179176057Y-80969483D01*
X179142882Y-81002600D01*
X178851402Y-81002600D01*
X178198017Y-80349215D01*
X178328945Y-80295117D01*
X178592194Y-80032327D01*
X178734840Y-79688799D01*
X178735164Y-79316833D01*
X178593119Y-78973057D01*
X178560000Y-78939880D01*
X178560000Y-78505105D01*
X178701441Y-78414090D01*
X178846431Y-78201890D01*
X178897440Y-77950000D01*
X178897440Y-77450000D01*
X178853162Y-77214683D01*
X178714090Y-76998559D01*
X178645994Y-76952031D01*
X178788327Y-76809698D01*
X178885000Y-76576309D01*
X178885000Y-76483750D01*
X178726250Y-76325000D01*
X177927000Y-76325000D01*
X177927000Y-76347000D01*
X177673000Y-76347000D01*
X177673000Y-76325000D01*
X176873750Y-76325000D01*
X176715000Y-76483750D01*
X176715000Y-76576309D01*
X176811673Y-76809698D01*
X176952910Y-76950936D01*
X176898559Y-76985910D01*
X176753569Y-77198110D01*
X176702560Y-77450000D01*
X176702560Y-77950000D01*
X176746838Y-78185317D01*
X176885910Y-78401441D01*
X177040000Y-78506726D01*
X177040000Y-78939539D01*
X177007810Y-78971673D01*
X176952845Y-79104043D01*
X176573999Y-78725197D01*
X176573999Y-75823691D01*
X176715000Y-75823691D01*
X176715000Y-75916250D01*
X176873750Y-76075000D01*
X177673000Y-76075000D01*
X177673000Y-75473750D01*
X177927000Y-75473750D01*
X177927000Y-76075000D01*
X178726250Y-76075000D01*
X178885000Y-75916250D01*
X178885000Y-75823691D01*
X178788327Y-75590302D01*
X178609699Y-75411673D01*
X178376310Y-75315000D01*
X178085750Y-75315000D01*
X177927000Y-75473750D01*
X177673000Y-75473750D01*
X177514250Y-75315000D01*
X177223690Y-75315000D01*
X176990301Y-75411673D01*
X176811673Y-75590302D01*
X176715000Y-75823691D01*
X176573999Y-75823691D01*
X176573999Y-74721999D01*
X176516147Y-74431160D01*
X176449080Y-74330787D01*
X176449162Y-74236833D01*
X176328890Y-73945750D01*
X176665000Y-73945750D01*
X176665000Y-74411310D01*
X176761673Y-74644699D01*
X176940302Y-74823327D01*
X177173691Y-74920000D01*
X177514250Y-74920000D01*
X177673000Y-74761250D01*
X177673000Y-73787000D01*
X176823750Y-73787000D01*
X176665000Y-73945750D01*
X176328890Y-73945750D01*
X176307117Y-73893057D01*
X176044327Y-73629808D01*
X175700799Y-73487162D01*
X175328833Y-73486838D01*
X174985057Y-73628883D01*
X174721808Y-73891673D01*
X174579162Y-74235201D01*
X174578970Y-74455244D01*
X174566310Y-74450000D01*
X174275750Y-74450000D01*
X174117000Y-74608750D01*
X174117000Y-75210000D01*
X174137000Y-75210000D01*
X174137000Y-75460000D01*
X174117000Y-75460000D01*
X174117000Y-75482000D01*
X173863000Y-75482000D01*
X173863000Y-75460000D01*
X173063750Y-75460000D01*
X172905000Y-75618750D01*
X172905000Y-75711309D01*
X173001673Y-75944698D01*
X173142910Y-76085936D01*
X173088559Y-76120910D01*
X172943569Y-76333110D01*
X172892560Y-76585000D01*
X172892560Y-77085000D01*
X172936838Y-77320317D01*
X173075910Y-77536441D01*
X173230000Y-77641726D01*
X173230000Y-78939533D01*
X173197804Y-78971673D01*
X173055158Y-79315201D01*
X173054834Y-79687167D01*
X173196879Y-80030943D01*
X173353344Y-80187682D01*
X173304683Y-80196838D01*
X173088559Y-80335910D01*
X172943569Y-80548110D01*
X172892560Y-80800000D01*
X172892560Y-81300000D01*
X172936838Y-81535317D01*
X173075910Y-81751441D01*
X173145711Y-81799134D01*
X173088559Y-81835910D01*
X172943569Y-82048110D01*
X172892560Y-82300000D01*
X172892560Y-82800000D01*
X172936838Y-83035317D01*
X173075910Y-83251441D01*
X173183234Y-83324772D01*
X173055162Y-83633201D01*
X173054861Y-83979039D01*
X170157783Y-81081961D01*
X170365167Y-81082142D01*
X170708943Y-80940097D01*
X170972192Y-80677307D01*
X171114838Y-80333779D01*
X171115162Y-79961813D01*
X170973117Y-79618037D01*
X170940000Y-79584862D01*
X170940000Y-77755105D01*
X171081441Y-77664090D01*
X171226431Y-77451890D01*
X171277440Y-77200000D01*
X171277440Y-76700000D01*
X171233162Y-76464683D01*
X171094090Y-76248559D01*
X171025994Y-76202031D01*
X171168327Y-76059698D01*
X171265000Y-75826309D01*
X171265000Y-75733750D01*
X171106250Y-75575000D01*
X170307000Y-75575000D01*
X170307000Y-75597000D01*
X170053000Y-75597000D01*
X170053000Y-75575000D01*
X169253750Y-75575000D01*
X169095000Y-75733750D01*
X169095000Y-75826309D01*
X169191673Y-76059698D01*
X169332910Y-76200936D01*
X169278559Y-76235910D01*
X169133569Y-76448110D01*
X169082560Y-76700000D01*
X169082560Y-77200000D01*
X169126838Y-77435317D01*
X169265910Y-77651441D01*
X169420000Y-77756726D01*
X169420000Y-79584517D01*
X169387808Y-79616653D01*
X169245162Y-79960181D01*
X169244980Y-80169158D01*
X169083122Y-80007300D01*
X169083162Y-79961813D01*
X168941117Y-79618037D01*
X168678327Y-79354788D01*
X168334799Y-79212142D01*
X167962833Y-79211818D01*
X167619057Y-79353863D01*
X167355808Y-79616653D01*
X167258938Y-79849941D01*
X167163117Y-79618037D01*
X167130000Y-79584862D01*
X167130000Y-78910105D01*
X167271441Y-78819090D01*
X167416431Y-78606890D01*
X167467440Y-78355000D01*
X167467440Y-77855000D01*
X167423162Y-77619683D01*
X167284090Y-77403559D01*
X167215994Y-77357031D01*
X167358327Y-77214698D01*
X167455000Y-76981309D01*
X167455000Y-76888750D01*
X167296250Y-76730000D01*
X166497000Y-76730000D01*
X166497000Y-76752000D01*
X166243000Y-76752000D01*
X166243000Y-76730000D01*
X165443750Y-76730000D01*
X165285000Y-76888750D01*
X165285000Y-76981309D01*
X165381673Y-77214698D01*
X165522910Y-77355936D01*
X165468559Y-77390910D01*
X165323569Y-77603110D01*
X165272560Y-77855000D01*
X163249802Y-77855000D01*
X163859401Y-77245401D01*
X164024148Y-76998839D01*
X164082000Y-76708000D01*
X164082000Y-76514802D01*
X164368111Y-76228691D01*
X165285000Y-76228691D01*
X165285000Y-76321250D01*
X165443750Y-76480000D01*
X166243000Y-76480000D01*
X166243000Y-75878750D01*
X166497000Y-75878750D01*
X166497000Y-76480000D01*
X167296250Y-76480000D01*
X167455000Y-76321250D01*
X167455000Y-76228691D01*
X167358327Y-75995302D01*
X167179699Y-75816673D01*
X166946310Y-75720000D01*
X166655750Y-75720000D01*
X166497000Y-75878750D01*
X166243000Y-75878750D01*
X166084250Y-75720000D01*
X165793690Y-75720000D01*
X165560301Y-75816673D01*
X165381673Y-75995302D01*
X165285000Y-76228691D01*
X164368111Y-76228691D01*
X165523111Y-75073691D01*
X169095000Y-75073691D01*
X169095000Y-75166250D01*
X169253750Y-75325000D01*
X170053000Y-75325000D01*
X170053000Y-74723750D01*
X170307000Y-74723750D01*
X170307000Y-75325000D01*
X171106250Y-75325000D01*
X171265000Y-75166250D01*
X171265000Y-75073691D01*
X171217366Y-74958691D01*
X172905000Y-74958691D01*
X172905000Y-75051250D01*
X173063750Y-75210000D01*
X173863000Y-75210000D01*
X173863000Y-74608750D01*
X173704250Y-74450000D01*
X173413690Y-74450000D01*
X173180301Y-74546673D01*
X173001673Y-74725302D01*
X172905000Y-74958691D01*
X171217366Y-74958691D01*
X171168327Y-74840302D01*
X170989699Y-74661673D01*
X170756310Y-74565000D01*
X170465750Y-74565000D01*
X170307000Y-74723750D01*
X170053000Y-74723750D01*
X169894250Y-74565000D01*
X169603690Y-74565000D01*
X169370301Y-74661673D01*
X169191673Y-74840302D01*
X169095000Y-75073691D01*
X165523111Y-75073691D01*
X167192802Y-73404000D01*
X174986000Y-73404000D01*
X175276839Y-73346148D01*
X175523401Y-73181401D01*
X175796112Y-72908690D01*
X176665000Y-72908690D01*
X176665000Y-73374250D01*
X176823750Y-73533000D01*
X177673000Y-73533000D01*
X177673000Y-72558750D01*
X177514250Y-72400000D01*
X177173691Y-72400000D01*
X176940302Y-72496673D01*
X176761673Y-72675301D01*
X176665000Y-72908690D01*
X175796112Y-72908690D01*
X178337401Y-70367401D01*
X178456937Y-70188502D01*
X178485317Y-70183162D01*
X178701441Y-70044090D01*
X178846431Y-69831890D01*
X178897440Y-69580000D01*
X178897440Y-69080000D01*
X178853162Y-68844683D01*
X178714090Y-68628559D01*
X178644289Y-68580866D01*
X178701441Y-68544090D01*
X178730917Y-68500951D01*
X179451000Y-69221034D01*
X179451000Y-72387560D01*
X179300000Y-72387560D01*
X179064683Y-72431838D01*
X178848559Y-72570910D01*
X178802031Y-72639006D01*
X178659698Y-72496673D01*
X178426309Y-72400000D01*
X178085750Y-72400000D01*
X177927000Y-72558750D01*
X177927000Y-73533000D01*
X177947000Y-73533000D01*
X177947000Y-73787000D01*
X177927000Y-73787000D01*
X177927000Y-74761250D01*
X178085750Y-74920000D01*
X178426309Y-74920000D01*
X178659698Y-74823327D01*
X178800936Y-74682090D01*
X178835910Y-74736441D01*
X179048110Y-74881431D01*
X179300000Y-74932440D01*
X180202804Y-74932440D01*
X181242066Y-75971702D01*
X181196655Y-76200000D01*
X181310729Y-76773489D01*
X181635585Y-77259670D01*
X181950366Y-77470000D01*
X181635585Y-77680330D01*
X181310729Y-78166511D01*
X181196655Y-78740000D01*
X181310729Y-79313489D01*
X181635585Y-79799670D01*
X181950366Y-80010000D01*
X181635585Y-80220330D01*
X181310729Y-80706511D01*
X181196655Y-81280000D01*
X181310729Y-81853489D01*
X181635585Y-82339670D01*
X182121766Y-82664526D01*
X182695255Y-82778600D01*
X183064745Y-82778600D01*
X183638234Y-82664526D01*
X184124415Y-82339670D01*
X184449271Y-81853489D01*
X184563345Y-81280000D01*
X184449271Y-80706511D01*
X184124415Y-80220330D01*
X183809634Y-80010000D01*
X184124415Y-79799670D01*
X184449271Y-79313489D01*
X184543700Y-78838762D01*
X184638129Y-79313489D01*
X184962985Y-79799670D01*
X185449166Y-80124526D01*
X186022655Y-80238600D01*
X186392145Y-80238600D01*
X186965634Y-80124526D01*
X187451815Y-79799670D01*
X187776671Y-79313489D01*
X187890745Y-78740000D01*
X187776671Y-78166511D01*
X187451815Y-77680330D01*
X187137034Y-77470000D01*
X187451815Y-77259670D01*
X187776671Y-76773489D01*
X187890745Y-76200000D01*
X187776671Y-75626511D01*
X187451815Y-75140330D01*
X187429620Y-75125500D01*
X187583098Y-75061927D01*
X187761727Y-74883299D01*
X187858400Y-74649910D01*
X187858400Y-73945750D01*
X187699650Y-73787000D01*
X186334400Y-73787000D01*
X186334400Y-73807000D01*
X186080400Y-73807000D01*
X186080400Y-73787000D01*
X184715150Y-73787000D01*
X184556400Y-73945750D01*
X184556400Y-74649910D01*
X184653073Y-74883299D01*
X184831702Y-75061927D01*
X184985180Y-75125500D01*
X184962985Y-75140330D01*
X184638129Y-75626511D01*
X184543700Y-76101238D01*
X184449271Y-75626511D01*
X184124415Y-75140330D01*
X184102220Y-75125500D01*
X184255698Y-75061927D01*
X184434327Y-74883299D01*
X184531000Y-74649910D01*
X184531000Y-73945750D01*
X184372250Y-73787000D01*
X183007000Y-73787000D01*
X183007000Y-73807000D01*
X182753000Y-73807000D01*
X182753000Y-73787000D01*
X182733000Y-73787000D01*
X182733000Y-73533000D01*
X182753000Y-73533000D01*
X182753000Y-72320150D01*
X183007000Y-72320150D01*
X183007000Y-73533000D01*
X184372250Y-73533000D01*
X184531000Y-73374250D01*
X184531000Y-72670090D01*
X184556400Y-72670090D01*
X184556400Y-73374250D01*
X184715150Y-73533000D01*
X186080400Y-73533000D01*
X186080400Y-72320150D01*
X186334400Y-72320150D01*
X186334400Y-73533000D01*
X187699650Y-73533000D01*
X187858400Y-73374250D01*
X187858400Y-72670090D01*
X187761727Y-72436701D01*
X187583098Y-72258073D01*
X187349709Y-72161400D01*
X186493150Y-72161400D01*
X186334400Y-72320150D01*
X186080400Y-72320150D01*
X185921650Y-72161400D01*
X185065091Y-72161400D01*
X184831702Y-72258073D01*
X184653073Y-72436701D01*
X184556400Y-72670090D01*
X184531000Y-72670090D01*
X184434327Y-72436701D01*
X184255698Y-72258073D01*
X184022309Y-72161400D01*
X183165750Y-72161400D01*
X183007000Y-72320150D01*
X182753000Y-72320150D01*
X182594250Y-72161400D01*
X181737691Y-72161400D01*
X181504302Y-72258073D01*
X181325673Y-72436701D01*
X181229000Y-72670090D01*
X181229000Y-68852798D01*
X181161329Y-68512592D01*
X180968618Y-68224180D01*
X177641438Y-64897000D01*
X181557394Y-64897000D01*
X189103000Y-72442606D01*
X189103000Y-81227394D01*
X182827394Y-87503000D01*
X159984026Y-87503000D01*
X160103327Y-87383698D01*
X160200000Y-87150309D01*
X160200000Y-86659750D01*
X160186000Y-86645750D01*
X160665000Y-86645750D01*
X160665000Y-86986309D01*
X160761673Y-87219698D01*
X160940301Y-87398327D01*
X161173690Y-87495000D01*
X161639250Y-87495000D01*
X161798000Y-87336250D01*
X161798000Y-86487000D01*
X162052000Y-86487000D01*
X162052000Y-87336250D01*
X162210750Y-87495000D01*
X162676310Y-87495000D01*
X162909699Y-87398327D01*
X163088327Y-87219698D01*
X163185000Y-86986309D01*
X163185000Y-86645750D01*
X163026250Y-86487000D01*
X162052000Y-86487000D01*
X161798000Y-86487000D01*
X160823750Y-86487000D01*
X160665000Y-86645750D01*
X160186000Y-86645750D01*
X160041250Y-86501000D01*
X159167000Y-86501000D01*
X159167000Y-86521000D01*
X158913000Y-86521000D01*
X158913000Y-86501000D01*
X158893000Y-86501000D01*
X158893000Y-86247000D01*
X158913000Y-86247000D01*
X158913000Y-86227000D01*
X159167000Y-86227000D01*
X159167000Y-86247000D01*
X160041250Y-86247000D01*
X160200000Y-86088250D01*
X160200000Y-85597691D01*
X160103327Y-85364302D01*
X160074025Y-85335000D01*
X160870390Y-85335000D01*
X160904006Y-85357969D01*
X160761673Y-85500302D01*
X160665000Y-85733691D01*
X160665000Y-86074250D01*
X160823750Y-86233000D01*
X161798000Y-86233000D01*
X161798000Y-86213000D01*
X162052000Y-86213000D01*
X162052000Y-86233000D01*
X163026250Y-86233000D01*
X163185000Y-86074250D01*
X163185000Y-85733691D01*
X163088327Y-85500302D01*
X162947090Y-85359064D01*
X163001441Y-85324090D01*
X163146431Y-85111890D01*
X163197440Y-84860000D01*
X163197440Y-83860000D01*
X163153162Y-83624683D01*
X163014090Y-83408559D01*
X162801890Y-83263569D01*
X162550000Y-83212560D01*
X161300000Y-83212560D01*
X161064683Y-83256838D01*
X160848559Y-83395910D01*
X160703569Y-83608110D01*
X160661673Y-83815000D01*
X160212440Y-83815000D01*
X160212440Y-83424000D01*
X160168162Y-83188683D01*
X160029090Y-82972559D01*
X159816890Y-82827569D01*
X159565000Y-82776560D01*
X159289362Y-82776560D01*
X158779401Y-82266599D01*
X158532839Y-82101852D01*
X158242000Y-82044000D01*
X157534463Y-82044000D01*
X157502327Y-82011808D01*
X157158799Y-81869162D01*
X156786833Y-81868838D01*
X156443057Y-82010883D01*
X156179808Y-82273673D01*
X156037162Y-82617201D01*
X156036838Y-82989167D01*
X156097242Y-83135355D01*
X156030000Y-83297691D01*
X156030000Y-83788250D01*
X156188750Y-83947000D01*
X157063000Y-83947000D01*
X157063000Y-83927000D01*
X157317000Y-83927000D01*
X157317000Y-83947000D01*
X157337000Y-83947000D01*
X157337000Y-84201000D01*
X157317000Y-84201000D01*
X157317000Y-84221000D01*
X157063000Y-84221000D01*
X157063000Y-84201000D01*
X156253189Y-84201000D01*
X156142799Y-84155162D01*
X155770833Y-84154838D01*
X155444627Y-84289623D01*
X155565000Y-84169250D01*
X155565000Y-83828691D01*
X155468327Y-83595302D01*
X155289699Y-83416673D01*
X155056310Y-83320000D01*
X154590750Y-83320000D01*
X154432000Y-83478750D01*
X154432000Y-84328000D01*
X154452000Y-84328000D01*
X154452000Y-84582000D01*
X154432000Y-84582000D01*
X154432000Y-84602000D01*
X154178000Y-84602000D01*
X154178000Y-84582000D01*
X153203750Y-84582000D01*
X153045000Y-84740750D01*
X153045000Y-85081309D01*
X153141673Y-85314698D01*
X153282910Y-85455936D01*
X153228559Y-85490910D01*
X153083569Y-85703110D01*
X153032560Y-85955000D01*
X153032560Y-86955000D01*
X153076838Y-87190317D01*
X153215910Y-87406441D01*
X153357229Y-87503000D01*
X144959336Y-87503000D01*
X145064192Y-87398327D01*
X145206838Y-87054799D01*
X145207162Y-86682833D01*
X145065117Y-86339057D01*
X144905000Y-86178660D01*
X144905000Y-83828691D01*
X153045000Y-83828691D01*
X153045000Y-84169250D01*
X153203750Y-84328000D01*
X154178000Y-84328000D01*
X154178000Y-83478750D01*
X154019250Y-83320000D01*
X153553690Y-83320000D01*
X153320301Y-83416673D01*
X153141673Y-83595302D01*
X153045000Y-83828691D01*
X144905000Y-83828691D01*
X144905000Y-82497038D01*
X145005317Y-82478162D01*
X145221441Y-82339090D01*
X145366431Y-82126890D01*
X145417440Y-81875000D01*
X145417440Y-80875000D01*
X145373162Y-80639683D01*
X145234090Y-80423559D01*
X145165994Y-80377031D01*
X145308327Y-80234698D01*
X145405000Y-80001309D01*
X145405000Y-79660750D01*
X151265000Y-79660750D01*
X151265000Y-80126310D01*
X151361673Y-80359699D01*
X151540302Y-80538327D01*
X151773691Y-80635000D01*
X152114250Y-80635000D01*
X152273000Y-80476250D01*
X152273000Y-79502000D01*
X151423750Y-79502000D01*
X151265000Y-79660750D01*
X145405000Y-79660750D01*
X145246250Y-79502000D01*
X144272000Y-79502000D01*
X144272000Y-79522000D01*
X144018000Y-79522000D01*
X144018000Y-79502000D01*
X143043750Y-79502000D01*
X142885000Y-79660750D01*
X142885000Y-80001309D01*
X142981673Y-80234698D01*
X143122910Y-80375936D01*
X143068559Y-80410910D01*
X142923569Y-80623110D01*
X142872560Y-80875000D01*
X142872560Y-81875000D01*
X142916838Y-82110317D01*
X143055910Y-82326441D01*
X143268110Y-82471431D01*
X143385000Y-82495102D01*
X143385000Y-86565995D01*
X143337162Y-86681201D01*
X143336838Y-87053167D01*
X143478883Y-87396943D01*
X143584755Y-87503000D01*
X133402606Y-87503000D01*
X130539773Y-84640167D01*
X132533848Y-84640167D01*
X132675893Y-84983943D01*
X132938683Y-85247192D01*
X133282211Y-85389838D01*
X133654177Y-85390162D01*
X133997953Y-85248117D01*
X134261202Y-84985327D01*
X134403848Y-84641799D01*
X134403993Y-84475809D01*
X134797362Y-84082440D01*
X135070000Y-84082440D01*
X135305317Y-84038162D01*
X135521441Y-83899090D01*
X135666431Y-83686890D01*
X135717440Y-83435000D01*
X135717440Y-83050000D01*
X139237560Y-83050000D01*
X139237560Y-83550000D01*
X139281838Y-83785317D01*
X139420910Y-84001441D01*
X139491035Y-84049355D01*
X139400162Y-84268201D01*
X139399838Y-84640167D01*
X139541883Y-84983943D01*
X139804673Y-85247192D01*
X140148201Y-85389838D01*
X140520167Y-85390162D01*
X140863943Y-85248117D01*
X141127192Y-84985327D01*
X141269838Y-84641799D01*
X141270162Y-84269833D01*
X141179603Y-84050664D01*
X141236441Y-84014090D01*
X141381431Y-83801890D01*
X141432440Y-83550000D01*
X141432440Y-83050000D01*
X141388162Y-82814683D01*
X141249090Y-82598559D01*
X141180994Y-82552031D01*
X141323327Y-82409698D01*
X141420000Y-82176309D01*
X141420000Y-82083750D01*
X141261250Y-81925000D01*
X140462000Y-81925000D01*
X140462000Y-81947000D01*
X140208000Y-81947000D01*
X140208000Y-81925000D01*
X139408750Y-81925000D01*
X139250000Y-82083750D01*
X139250000Y-82176309D01*
X139346673Y-82409698D01*
X139487910Y-82550936D01*
X139433559Y-82585910D01*
X139288569Y-82798110D01*
X139237560Y-83050000D01*
X135717440Y-83050000D01*
X135717440Y-82935000D01*
X135673162Y-82699683D01*
X135534090Y-82483559D01*
X135464289Y-82435866D01*
X135521441Y-82399090D01*
X135666431Y-82186890D01*
X135717440Y-81935000D01*
X135717440Y-81435000D01*
X135715313Y-81423691D01*
X139250000Y-81423691D01*
X139250000Y-81516250D01*
X139408750Y-81675000D01*
X140208000Y-81675000D01*
X140208000Y-81073750D01*
X140462000Y-81073750D01*
X140462000Y-81675000D01*
X141261250Y-81675000D01*
X141420000Y-81516250D01*
X141420000Y-81423691D01*
X141323327Y-81190302D01*
X141144699Y-81011673D01*
X140911310Y-80915000D01*
X140620750Y-80915000D01*
X140462000Y-81073750D01*
X140208000Y-81073750D01*
X140049250Y-80915000D01*
X139758690Y-80915000D01*
X139525301Y-81011673D01*
X139346673Y-81190302D01*
X139250000Y-81423691D01*
X135715313Y-81423691D01*
X135673162Y-81199683D01*
X135534090Y-80983559D01*
X135321890Y-80838569D01*
X135070000Y-80787560D01*
X134170000Y-80787560D01*
X133934683Y-80831838D01*
X133718559Y-80970910D01*
X133625653Y-81106882D01*
X133574833Y-81106838D01*
X133231057Y-81248883D01*
X132967808Y-81511673D01*
X132825162Y-81855201D01*
X132824838Y-82227167D01*
X132966883Y-82570943D01*
X133229673Y-82834192D01*
X133522560Y-82955810D01*
X133522560Y-83207638D01*
X133158618Y-83571580D01*
X132940067Y-83661883D01*
X132676818Y-83924673D01*
X132534172Y-84268201D01*
X132533848Y-84640167D01*
X130539773Y-84640167D01*
X127127000Y-81227394D01*
X127127000Y-80295750D01*
X129159000Y-80295750D01*
X129159000Y-80999910D01*
X129255673Y-81233299D01*
X129434302Y-81411927D01*
X129667691Y-81508600D01*
X130524250Y-81508600D01*
X130683000Y-81349850D01*
X130683000Y-80137000D01*
X130937000Y-80137000D01*
X130937000Y-81349850D01*
X131095750Y-81508600D01*
X131952309Y-81508600D01*
X132185698Y-81411927D01*
X132364327Y-81233299D01*
X132461000Y-80999910D01*
X132461000Y-80295750D01*
X132302250Y-80137000D01*
X130937000Y-80137000D01*
X130683000Y-80137000D01*
X129317750Y-80137000D01*
X129159000Y-80295750D01*
X127127000Y-80295750D01*
X127127000Y-72390000D01*
X129126655Y-72390000D01*
X129240729Y-72963489D01*
X129565585Y-73449670D01*
X129880366Y-73660000D01*
X129565585Y-73870330D01*
X129240729Y-74356511D01*
X129126655Y-74930000D01*
X129240729Y-75503489D01*
X129565585Y-75989670D01*
X129880366Y-76200000D01*
X129565585Y-76410330D01*
X129240729Y-76896511D01*
X129126655Y-77470000D01*
X129240729Y-78043489D01*
X129565585Y-78529670D01*
X129587780Y-78544500D01*
X129434302Y-78608073D01*
X129255673Y-78786701D01*
X129159000Y-79020090D01*
X129159000Y-79724250D01*
X129317750Y-79883000D01*
X130683000Y-79883000D01*
X130683000Y-79863000D01*
X130937000Y-79863000D01*
X130937000Y-79883000D01*
X132302250Y-79883000D01*
X132461000Y-79724250D01*
X132461000Y-79020090D01*
X132364327Y-78786701D01*
X132326317Y-78748691D01*
X142885000Y-78748691D01*
X142885000Y-79089250D01*
X143043750Y-79248000D01*
X144018000Y-79248000D01*
X144018000Y-78398750D01*
X144272000Y-78398750D01*
X144272000Y-79248000D01*
X145246250Y-79248000D01*
X145405000Y-79089250D01*
X145405000Y-78748691D01*
X145308327Y-78515302D01*
X145129699Y-78336673D01*
X144896310Y-78240000D01*
X144430750Y-78240000D01*
X144272000Y-78398750D01*
X144018000Y-78398750D01*
X143859250Y-78240000D01*
X143393690Y-78240000D01*
X143160301Y-78336673D01*
X142981673Y-78515302D01*
X142885000Y-78748691D01*
X132326317Y-78748691D01*
X132185698Y-78608073D01*
X132032220Y-78544500D01*
X132054415Y-78529670D01*
X132379271Y-78043489D01*
X132493345Y-77470000D01*
X132379271Y-76896511D01*
X132054415Y-76410330D01*
X131739634Y-76200000D01*
X132054415Y-75989670D01*
X132379271Y-75503489D01*
X132493345Y-74930000D01*
X132379271Y-74356511D01*
X132054415Y-73870330D01*
X131739634Y-73660000D01*
X132054415Y-73449670D01*
X132147238Y-73310750D01*
X134370000Y-73310750D01*
X134370000Y-73601310D01*
X134466673Y-73834699D01*
X134645302Y-74013327D01*
X134878691Y-74110000D01*
X134971250Y-74110000D01*
X135130000Y-73951250D01*
X135130000Y-73152000D01*
X134528750Y-73152000D01*
X134370000Y-73310750D01*
X132147238Y-73310750D01*
X132379271Y-72963489D01*
X132481670Y-72448690D01*
X134370000Y-72448690D01*
X134370000Y-72739250D01*
X134528750Y-72898000D01*
X135130000Y-72898000D01*
X135130000Y-72098750D01*
X134971250Y-71940000D01*
X134878691Y-71940000D01*
X134645302Y-72036673D01*
X134466673Y-72215301D01*
X134370000Y-72448690D01*
X132481670Y-72448690D01*
X132493345Y-72390000D01*
X132379271Y-71816511D01*
X132054415Y-71330330D01*
X131568234Y-71005474D01*
X130994745Y-70891400D01*
X130625255Y-70891400D01*
X130051766Y-71005474D01*
X129565585Y-71330330D01*
X129240729Y-71816511D01*
X129126655Y-72390000D01*
X127127000Y-72390000D01*
X127127000Y-71172606D01*
X133402606Y-64897000D01*
X146189764Y-64897000D01*
X142881382Y-68205382D01*
M02*
