G04 #@! TF.FileFunction,Paste,Top*
%FSLAX46Y46*%
G04 Gerber Fmt 4.6, Leading zero omitted, Abs format (unit mm)*
G04 Created by KiCad (PCBNEW 4.0.1-stable) date 11/19/2016 2:54:23 PM*
%MOMM*%
G01*
G04 APERTURE LIST*
%ADD10C,0.100000*%
%ADD11R,1.143000X0.508000*%
%ADD12R,1.198880X1.198880*%
%ADD13R,1.450000X0.450000*%
%ADD14R,0.650000X1.060000*%
%ADD15R,0.508000X1.143000*%
%ADD16R,4.600000X1.100000*%
%ADD17R,9.400000X10.800000*%
G04 APERTURE END LIST*
D10*
D11*
X149225000Y-67310000D03*
X149225000Y-68580000D03*
X149225000Y-69850000D03*
X149225000Y-71120000D03*
X142875000Y-71120000D03*
X142875000Y-69850000D03*
X142875000Y-68580000D03*
X142875000Y-67310000D03*
D12*
X166370000Y-76200000D03*
X166370000Y-78298040D03*
X177800000Y-76200000D03*
X177800000Y-78298040D03*
X173990000Y-76200000D03*
X173990000Y-78298040D03*
X170180000Y-76200000D03*
X170180000Y-78298040D03*
D13*
X171790000Y-83480000D03*
X171790000Y-84130000D03*
X171790000Y-84780000D03*
X171790000Y-85430000D03*
X176190000Y-85430000D03*
X176190000Y-84780000D03*
X176190000Y-84130000D03*
X176190000Y-83480000D03*
D14*
X135890000Y-69850000D03*
X136840000Y-69850000D03*
X137790000Y-69850000D03*
X137790000Y-67650000D03*
X135890000Y-67650000D03*
D15*
X154305000Y-81915000D03*
X155575000Y-81915000D03*
X156845000Y-81915000D03*
X158115000Y-81915000D03*
X159385000Y-81915000D03*
X160655000Y-81915000D03*
X161925000Y-81915000D03*
X161925000Y-75565000D03*
X160655000Y-75565000D03*
X158115000Y-75565000D03*
X156845000Y-75565000D03*
X155575000Y-75565000D03*
X154305000Y-75565000D03*
X159385000Y-75565000D03*
D16*
X136900000Y-83410000D03*
X136900000Y-81710000D03*
X136900000Y-78310000D03*
D17*
X146050000Y-80010000D03*
D16*
X136900000Y-80010000D03*
X136900000Y-76610000D03*
M02*
