G04 #@! TF.FileFunction,Legend,Bot*
%FSLAX46Y46*%
G04 Gerber Fmt 4.6, Leading zero omitted, Abs format (unit mm)*
G04 Created by KiCad (PCBNEW 4.0.1-stable) date 11/19/2016 2:54:23 PM*
%MOMM*%
G01*
G04 APERTURE LIST*
%ADD10C,0.100000*%
%ADD11C,0.150000*%
G04 APERTURE END LIST*
D10*
D11*
X178300000Y-72810000D02*
X179300000Y-72810000D01*
X179300000Y-74510000D02*
X178300000Y-74510000D01*
X144995000Y-79875000D02*
X144995000Y-80875000D01*
X143295000Y-80875000D02*
X143295000Y-79875000D01*
X140120000Y-69350000D02*
X140120000Y-68350000D01*
X141820000Y-68350000D02*
X141820000Y-69350000D01*
X161075000Y-85860000D02*
X161075000Y-84860000D01*
X162775000Y-84860000D02*
X162775000Y-85860000D01*
X152900000Y-78525000D02*
X153900000Y-78525000D01*
X153900000Y-80225000D02*
X152900000Y-80225000D01*
X155155000Y-84955000D02*
X155155000Y-85955000D01*
X153455000Y-85955000D02*
X153455000Y-84955000D01*
X142835000Y-73795000D02*
X142835000Y-74795000D01*
X144185000Y-74795000D02*
X144185000Y-73795000D01*
X173315000Y-75585000D02*
X173315000Y-76585000D01*
X174665000Y-76585000D02*
X174665000Y-75585000D01*
X139740000Y-74680000D02*
X139740000Y-73680000D01*
X138390000Y-73680000D02*
X138390000Y-74680000D01*
X133310000Y-68600000D02*
X133310000Y-69600000D01*
X134660000Y-69600000D02*
X134660000Y-68600000D01*
X135505000Y-73700000D02*
X136505000Y-73700000D01*
X136505000Y-72350000D02*
X135505000Y-72350000D01*
X133945000Y-81935000D02*
X133945000Y-82935000D01*
X135295000Y-82935000D02*
X135295000Y-81935000D01*
X141010000Y-83050000D02*
X141010000Y-82050000D01*
X139660000Y-82050000D02*
X139660000Y-83050000D01*
X170855000Y-76700000D02*
X170855000Y-75700000D01*
X169505000Y-75700000D02*
X169505000Y-76700000D01*
X165775000Y-69080000D02*
X165775000Y-68080000D01*
X164425000Y-68080000D02*
X164425000Y-69080000D01*
X165695000Y-76855000D02*
X165695000Y-77855000D01*
X167045000Y-77855000D02*
X167045000Y-76855000D01*
X177125000Y-68080000D02*
X177125000Y-69080000D01*
X178475000Y-69080000D02*
X178475000Y-68080000D01*
X177125000Y-76450000D02*
X177125000Y-77450000D01*
X178475000Y-77450000D02*
X178475000Y-76450000D01*
X173315000Y-81300000D02*
X173315000Y-82300000D01*
X174665000Y-82300000D02*
X174665000Y-81300000D01*
X178966666Y-71917143D02*
X179014285Y-71964762D01*
X179157142Y-72012381D01*
X179252380Y-72012381D01*
X179395238Y-71964762D01*
X179490476Y-71869524D01*
X179538095Y-71774286D01*
X179585714Y-71583810D01*
X179585714Y-71440952D01*
X179538095Y-71250476D01*
X179490476Y-71155238D01*
X179395238Y-71060000D01*
X179252380Y-71012381D01*
X179157142Y-71012381D01*
X179014285Y-71060000D01*
X178966666Y-71107619D01*
X178014285Y-72012381D02*
X178585714Y-72012381D01*
X178300000Y-72012381D02*
X178300000Y-71012381D01*
X178395238Y-71155238D01*
X178490476Y-71250476D01*
X178585714Y-71298095D01*
X146602143Y-80208334D02*
X146649762Y-80160715D01*
X146697381Y-80017858D01*
X146697381Y-79922620D01*
X146649762Y-79779762D01*
X146554524Y-79684524D01*
X146459286Y-79636905D01*
X146268810Y-79589286D01*
X146125952Y-79589286D01*
X145935476Y-79636905D01*
X145840238Y-79684524D01*
X145745000Y-79779762D01*
X145697381Y-79922620D01*
X145697381Y-80017858D01*
X145745000Y-80160715D01*
X145792619Y-80208334D01*
X145792619Y-80589286D02*
X145745000Y-80636905D01*
X145697381Y-80732143D01*
X145697381Y-80970239D01*
X145745000Y-81065477D01*
X145792619Y-81113096D01*
X145887857Y-81160715D01*
X145983095Y-81160715D01*
X146125952Y-81113096D01*
X146697381Y-80541667D01*
X146697381Y-81160715D01*
X139227143Y-68683334D02*
X139274762Y-68635715D01*
X139322381Y-68492858D01*
X139322381Y-68397620D01*
X139274762Y-68254762D01*
X139179524Y-68159524D01*
X139084286Y-68111905D01*
X138893810Y-68064286D01*
X138750952Y-68064286D01*
X138560476Y-68111905D01*
X138465238Y-68159524D01*
X138370000Y-68254762D01*
X138322381Y-68397620D01*
X138322381Y-68492858D01*
X138370000Y-68635715D01*
X138417619Y-68683334D01*
X138322381Y-69016667D02*
X138322381Y-69635715D01*
X138703333Y-69302381D01*
X138703333Y-69445239D01*
X138750952Y-69540477D01*
X138798571Y-69588096D01*
X138893810Y-69635715D01*
X139131905Y-69635715D01*
X139227143Y-69588096D01*
X139274762Y-69540477D01*
X139322381Y-69445239D01*
X139322381Y-69159524D01*
X139274762Y-69064286D01*
X139227143Y-69016667D01*
X164822143Y-85193334D02*
X164869762Y-85145715D01*
X164917381Y-85002858D01*
X164917381Y-84907620D01*
X164869762Y-84764762D01*
X164774524Y-84669524D01*
X164679286Y-84621905D01*
X164488810Y-84574286D01*
X164345952Y-84574286D01*
X164155476Y-84621905D01*
X164060238Y-84669524D01*
X163965000Y-84764762D01*
X163917381Y-84907620D01*
X163917381Y-85002858D01*
X163965000Y-85145715D01*
X164012619Y-85193334D01*
X164250714Y-86050477D02*
X164917381Y-86050477D01*
X163869762Y-85812381D02*
X164584048Y-85574286D01*
X164584048Y-86193334D01*
X153296666Y-81637143D02*
X153344285Y-81684762D01*
X153487142Y-81732381D01*
X153582380Y-81732381D01*
X153725238Y-81684762D01*
X153820476Y-81589524D01*
X153868095Y-81494286D01*
X153915714Y-81303810D01*
X153915714Y-81160952D01*
X153868095Y-80970476D01*
X153820476Y-80875238D01*
X153725238Y-80780000D01*
X153582380Y-80732381D01*
X153487142Y-80732381D01*
X153344285Y-80780000D01*
X153296666Y-80827619D01*
X152391904Y-80732381D02*
X152868095Y-80732381D01*
X152915714Y-81208571D01*
X152868095Y-81160952D01*
X152772857Y-81113333D01*
X152534761Y-81113333D01*
X152439523Y-81160952D01*
X152391904Y-81208571D01*
X152344285Y-81303810D01*
X152344285Y-81541905D01*
X152391904Y-81637143D01*
X152439523Y-81684762D01*
X152534761Y-81732381D01*
X152772857Y-81732381D01*
X152868095Y-81684762D01*
X152915714Y-81637143D01*
X152757143Y-84653334D02*
X152804762Y-84605715D01*
X152852381Y-84462858D01*
X152852381Y-84367620D01*
X152804762Y-84224762D01*
X152709524Y-84129524D01*
X152614286Y-84081905D01*
X152423810Y-84034286D01*
X152280952Y-84034286D01*
X152090476Y-84081905D01*
X151995238Y-84129524D01*
X151900000Y-84224762D01*
X151852381Y-84367620D01*
X151852381Y-84462858D01*
X151900000Y-84605715D01*
X151947619Y-84653334D01*
X151852381Y-85510477D02*
X151852381Y-85320000D01*
X151900000Y-85224762D01*
X151947619Y-85177143D01*
X152090476Y-85081905D01*
X152280952Y-85034286D01*
X152661905Y-85034286D01*
X152757143Y-85081905D01*
X152804762Y-85129524D01*
X152852381Y-85224762D01*
X152852381Y-85415239D01*
X152804762Y-85510477D01*
X152757143Y-85558096D01*
X152661905Y-85605715D01*
X152423810Y-85605715D01*
X152328571Y-85558096D01*
X152280952Y-85510477D01*
X152233333Y-85415239D01*
X152233333Y-85224762D01*
X152280952Y-85129524D01*
X152328571Y-85081905D01*
X152423810Y-85034286D01*
X145862381Y-74128334D02*
X145386190Y-73795000D01*
X145862381Y-73556905D02*
X144862381Y-73556905D01*
X144862381Y-73937858D01*
X144910000Y-74033096D01*
X144957619Y-74080715D01*
X145052857Y-74128334D01*
X145195714Y-74128334D01*
X145290952Y-74080715D01*
X145338571Y-74033096D01*
X145386190Y-73937858D01*
X145386190Y-73556905D01*
X145862381Y-75080715D02*
X145862381Y-74509286D01*
X145862381Y-74795000D02*
X144862381Y-74795000D01*
X145005238Y-74699762D01*
X145100476Y-74604524D01*
X145148095Y-74509286D01*
X176342381Y-75918334D02*
X175866190Y-75585000D01*
X176342381Y-75346905D02*
X175342381Y-75346905D01*
X175342381Y-75727858D01*
X175390000Y-75823096D01*
X175437619Y-75870715D01*
X175532857Y-75918334D01*
X175675714Y-75918334D01*
X175770952Y-75870715D01*
X175818571Y-75823096D01*
X175866190Y-75727858D01*
X175866190Y-75346905D01*
X175437619Y-76299286D02*
X175390000Y-76346905D01*
X175342381Y-76442143D01*
X175342381Y-76680239D01*
X175390000Y-76775477D01*
X175437619Y-76823096D01*
X175532857Y-76870715D01*
X175628095Y-76870715D01*
X175770952Y-76823096D01*
X176342381Y-76251667D01*
X176342381Y-76870715D01*
X141422381Y-73994111D02*
X140946190Y-73660777D01*
X141422381Y-73422682D02*
X140422381Y-73422682D01*
X140422381Y-73803635D01*
X140470000Y-73898873D01*
X140517619Y-73946492D01*
X140612857Y-73994111D01*
X140755714Y-73994111D01*
X140850952Y-73946492D01*
X140898571Y-73898873D01*
X140946190Y-73803635D01*
X140946190Y-73422682D01*
X140422381Y-74327444D02*
X140422381Y-74946492D01*
X140803333Y-74613158D01*
X140803333Y-74756016D01*
X140850952Y-74851254D01*
X140898571Y-74898873D01*
X140993810Y-74946492D01*
X141231905Y-74946492D01*
X141327143Y-74898873D01*
X141374762Y-74851254D01*
X141422381Y-74756016D01*
X141422381Y-74470301D01*
X141374762Y-74375063D01*
X141327143Y-74327444D01*
X136337381Y-68933334D02*
X135861190Y-68600000D01*
X136337381Y-68361905D02*
X135337381Y-68361905D01*
X135337381Y-68742858D01*
X135385000Y-68838096D01*
X135432619Y-68885715D01*
X135527857Y-68933334D01*
X135670714Y-68933334D01*
X135765952Y-68885715D01*
X135813571Y-68838096D01*
X135861190Y-68742858D01*
X135861190Y-68361905D01*
X135670714Y-69790477D02*
X136337381Y-69790477D01*
X135289762Y-69552381D02*
X136004048Y-69314286D01*
X136004048Y-69933334D01*
X136691666Y-75382381D02*
X137025000Y-74906190D01*
X137263095Y-75382381D02*
X137263095Y-74382381D01*
X136882142Y-74382381D01*
X136786904Y-74430000D01*
X136739285Y-74477619D01*
X136691666Y-74572857D01*
X136691666Y-74715714D01*
X136739285Y-74810952D01*
X136786904Y-74858571D01*
X136882142Y-74906190D01*
X137263095Y-74906190D01*
X135786904Y-74382381D02*
X136263095Y-74382381D01*
X136310714Y-74858571D01*
X136263095Y-74810952D01*
X136167857Y-74763333D01*
X135929761Y-74763333D01*
X135834523Y-74810952D01*
X135786904Y-74858571D01*
X135739285Y-74953810D01*
X135739285Y-75191905D01*
X135786904Y-75287143D01*
X135834523Y-75334762D01*
X135929761Y-75382381D01*
X136167857Y-75382381D01*
X136263095Y-75334762D01*
X136310714Y-75287143D01*
X136972381Y-82268334D02*
X136496190Y-81935000D01*
X136972381Y-81696905D02*
X135972381Y-81696905D01*
X135972381Y-82077858D01*
X136020000Y-82173096D01*
X136067619Y-82220715D01*
X136162857Y-82268334D01*
X136305714Y-82268334D01*
X136400952Y-82220715D01*
X136448571Y-82173096D01*
X136496190Y-82077858D01*
X136496190Y-81696905D01*
X135972381Y-83125477D02*
X135972381Y-82935000D01*
X136020000Y-82839762D01*
X136067619Y-82792143D01*
X136210476Y-82696905D01*
X136400952Y-82649286D01*
X136781905Y-82649286D01*
X136877143Y-82696905D01*
X136924762Y-82744524D01*
X136972381Y-82839762D01*
X136972381Y-83030239D01*
X136924762Y-83125477D01*
X136877143Y-83173096D01*
X136781905Y-83220715D01*
X136543810Y-83220715D01*
X136448571Y-83173096D01*
X136400952Y-83125477D01*
X136353333Y-83030239D01*
X136353333Y-82839762D01*
X136400952Y-82744524D01*
X136448571Y-82696905D01*
X136543810Y-82649286D01*
X138887381Y-82383334D02*
X138411190Y-82050000D01*
X138887381Y-81811905D02*
X137887381Y-81811905D01*
X137887381Y-82192858D01*
X137935000Y-82288096D01*
X137982619Y-82335715D01*
X138077857Y-82383334D01*
X138220714Y-82383334D01*
X138315952Y-82335715D01*
X138363571Y-82288096D01*
X138411190Y-82192858D01*
X138411190Y-81811905D01*
X137887381Y-82716667D02*
X137887381Y-83383334D01*
X138887381Y-82954762D01*
X168732381Y-76033334D02*
X168256190Y-75700000D01*
X168732381Y-75461905D02*
X167732381Y-75461905D01*
X167732381Y-75842858D01*
X167780000Y-75938096D01*
X167827619Y-75985715D01*
X167922857Y-76033334D01*
X168065714Y-76033334D01*
X168160952Y-75985715D01*
X168208571Y-75938096D01*
X168256190Y-75842858D01*
X168256190Y-75461905D01*
X168160952Y-76604762D02*
X168113333Y-76509524D01*
X168065714Y-76461905D01*
X167970476Y-76414286D01*
X167922857Y-76414286D01*
X167827619Y-76461905D01*
X167780000Y-76509524D01*
X167732381Y-76604762D01*
X167732381Y-76795239D01*
X167780000Y-76890477D01*
X167827619Y-76938096D01*
X167922857Y-76985715D01*
X167970476Y-76985715D01*
X168065714Y-76938096D01*
X168113333Y-76890477D01*
X168160952Y-76795239D01*
X168160952Y-76604762D01*
X168208571Y-76509524D01*
X168256190Y-76461905D01*
X168351429Y-76414286D01*
X168541905Y-76414286D01*
X168637143Y-76461905D01*
X168684762Y-76509524D01*
X168732381Y-76604762D01*
X168732381Y-76795239D01*
X168684762Y-76890477D01*
X168637143Y-76938096D01*
X168541905Y-76985715D01*
X168351429Y-76985715D01*
X168256190Y-76938096D01*
X168208571Y-76890477D01*
X168160952Y-76795239D01*
X165552381Y-71473334D02*
X165076190Y-71140000D01*
X165552381Y-70901905D02*
X164552381Y-70901905D01*
X164552381Y-71282858D01*
X164600000Y-71378096D01*
X164647619Y-71425715D01*
X164742857Y-71473334D01*
X164885714Y-71473334D01*
X164980952Y-71425715D01*
X165028571Y-71378096D01*
X165076190Y-71282858D01*
X165076190Y-70901905D01*
X165552381Y-71949524D02*
X165552381Y-72140000D01*
X165504762Y-72235239D01*
X165457143Y-72282858D01*
X165314286Y-72378096D01*
X165123810Y-72425715D01*
X164742857Y-72425715D01*
X164647619Y-72378096D01*
X164600000Y-72330477D01*
X164552381Y-72235239D01*
X164552381Y-72044762D01*
X164600000Y-71949524D01*
X164647619Y-71901905D01*
X164742857Y-71854286D01*
X164980952Y-71854286D01*
X165076190Y-71901905D01*
X165123810Y-71949524D01*
X165171429Y-72044762D01*
X165171429Y-72235239D01*
X165123810Y-72330477D01*
X165076190Y-72378096D01*
X164980952Y-72425715D01*
X168722381Y-76712143D02*
X168246190Y-76378809D01*
X168722381Y-76140714D02*
X167722381Y-76140714D01*
X167722381Y-76521667D01*
X167770000Y-76616905D01*
X167817619Y-76664524D01*
X167912857Y-76712143D01*
X168055714Y-76712143D01*
X168150952Y-76664524D01*
X168198571Y-76616905D01*
X168246190Y-76521667D01*
X168246190Y-76140714D01*
X168722381Y-77664524D02*
X168722381Y-77093095D01*
X168722381Y-77378809D02*
X167722381Y-77378809D01*
X167865238Y-77283571D01*
X167960476Y-77188333D01*
X168008095Y-77093095D01*
X167722381Y-78283571D02*
X167722381Y-78378810D01*
X167770000Y-78474048D01*
X167817619Y-78521667D01*
X167912857Y-78569286D01*
X168103333Y-78616905D01*
X168341429Y-78616905D01*
X168531905Y-78569286D01*
X168627143Y-78521667D01*
X168674762Y-78474048D01*
X168722381Y-78378810D01*
X168722381Y-78283571D01*
X168674762Y-78188333D01*
X168627143Y-78140714D01*
X168531905Y-78093095D01*
X168341429Y-78045476D01*
X168103333Y-78045476D01*
X167912857Y-78093095D01*
X167817619Y-78140714D01*
X167770000Y-78188333D01*
X167722381Y-78283571D01*
X180152381Y-67937143D02*
X179676190Y-67603809D01*
X180152381Y-67365714D02*
X179152381Y-67365714D01*
X179152381Y-67746667D01*
X179200000Y-67841905D01*
X179247619Y-67889524D01*
X179342857Y-67937143D01*
X179485714Y-67937143D01*
X179580952Y-67889524D01*
X179628571Y-67841905D01*
X179676190Y-67746667D01*
X179676190Y-67365714D01*
X180152381Y-68889524D02*
X180152381Y-68318095D01*
X180152381Y-68603809D02*
X179152381Y-68603809D01*
X179295238Y-68508571D01*
X179390476Y-68413333D01*
X179438095Y-68318095D01*
X180152381Y-69841905D02*
X180152381Y-69270476D01*
X180152381Y-69556190D02*
X179152381Y-69556190D01*
X179295238Y-69460952D01*
X179390476Y-69365714D01*
X179438095Y-69270476D01*
X180157381Y-76307143D02*
X179681190Y-75973809D01*
X180157381Y-75735714D02*
X179157381Y-75735714D01*
X179157381Y-76116667D01*
X179205000Y-76211905D01*
X179252619Y-76259524D01*
X179347857Y-76307143D01*
X179490714Y-76307143D01*
X179585952Y-76259524D01*
X179633571Y-76211905D01*
X179681190Y-76116667D01*
X179681190Y-75735714D01*
X180157381Y-77259524D02*
X180157381Y-76688095D01*
X180157381Y-76973809D02*
X179157381Y-76973809D01*
X179300238Y-76878571D01*
X179395476Y-76783333D01*
X179443095Y-76688095D01*
X179252619Y-77640476D02*
X179205000Y-77688095D01*
X179157381Y-77783333D01*
X179157381Y-78021429D01*
X179205000Y-78116667D01*
X179252619Y-78164286D01*
X179347857Y-78211905D01*
X179443095Y-78211905D01*
X179585952Y-78164286D01*
X180157381Y-77592857D01*
X180157381Y-78211905D01*
X159071190Y-87802809D02*
X159547381Y-87802809D01*
X158547381Y-87469476D02*
X159071190Y-87802809D01*
X158547381Y-88136143D01*
X159547381Y-88993286D02*
X159547381Y-88421857D01*
X159547381Y-88707571D02*
X158547381Y-88707571D01*
X158690238Y-88612333D01*
X158785476Y-88517095D01*
X158833095Y-88421857D01*
X176342381Y-81157143D02*
X175866190Y-80823809D01*
X176342381Y-80585714D02*
X175342381Y-80585714D01*
X175342381Y-80966667D01*
X175390000Y-81061905D01*
X175437619Y-81109524D01*
X175532857Y-81157143D01*
X175675714Y-81157143D01*
X175770952Y-81109524D01*
X175818571Y-81061905D01*
X175866190Y-80966667D01*
X175866190Y-80585714D01*
X176342381Y-82109524D02*
X176342381Y-81538095D01*
X176342381Y-81823809D02*
X175342381Y-81823809D01*
X175485238Y-81728571D01*
X175580476Y-81633333D01*
X175628095Y-81538095D01*
X175342381Y-82442857D02*
X175342381Y-83061905D01*
X175723333Y-82728571D01*
X175723333Y-82871429D01*
X175770952Y-82966667D01*
X175818571Y-83014286D01*
X175913810Y-83061905D01*
X176151905Y-83061905D01*
X176247143Y-83014286D01*
X176294762Y-82966667D01*
X176342381Y-82871429D01*
X176342381Y-82585714D01*
X176294762Y-82490476D01*
X176247143Y-82442857D01*
M02*
