G04 #@! TF.FileFunction,Copper,L1,Top,Signal*
%FSLAX46Y46*%
G04 Gerber Fmt 4.6, Leading zero omitted, Abs format (unit mm)*
G04 Created by KiCad (PCBNEW 4.0.0-rc1-stable) date 11/29/2015 8:31:11 PM*
%MOMM*%
G01*
G04 APERTURE LIST*
%ADD10C,0.100000*%
%ADD11R,0.750000X0.800000*%
%ADD12R,0.800000X0.750000*%
%ADD13R,1.198880X1.198880*%
%ADD14R,2.540000X1.524000*%
%ADD15R,0.900000X0.500000*%
%ADD16R,2.301240X0.500380*%
%ADD17R,2.499360X1.998980*%
%ADD18R,0.500000X0.900000*%
%ADD19R,0.730000X0.300000*%
%ADD20R,0.300000X0.730000*%
%ADD21R,1.250000X1.250000*%
%ADD22R,2.159000X1.524000*%
%ADD23C,0.600000*%
%ADD24C,0.250000*%
G04 APERTURE END LIST*
D10*
D11*
X144780000Y-100330000D03*
X144780000Y-101830000D03*
D12*
X145820000Y-104140000D03*
X147320000Y-104140000D03*
D11*
X170826428Y-99935000D03*
X170826428Y-101435000D03*
D12*
X140970000Y-111760000D03*
X142470000Y-111760000D03*
D11*
X162040000Y-100330000D03*
X162040000Y-101830000D03*
D12*
X147550000Y-111760000D03*
X146050000Y-111760000D03*
D11*
X158000000Y-98540000D03*
X158000000Y-97040000D03*
D13*
X172720000Y-106459020D03*
X172720000Y-104360980D03*
X147320000Y-91660980D03*
X147320000Y-93759020D03*
X156210000Y-111318040D03*
X156210000Y-109220000D03*
D14*
X177800000Y-97790000D03*
X177800000Y-100330000D03*
X177800000Y-102870000D03*
X177800000Y-105410000D03*
X177800000Y-107950000D03*
X177800000Y-110490000D03*
D15*
X144780000Y-96520000D03*
X144780000Y-98020000D03*
D16*
X135138160Y-99369880D03*
X135138160Y-100169980D03*
X135138160Y-100970080D03*
X135138160Y-101770180D03*
X135138160Y-102570280D03*
D17*
X135039100Y-96520000D03*
X129540000Y-96520000D03*
X135039100Y-105420160D03*
X129540000Y-105420160D03*
D18*
X147550000Y-107950000D03*
X146050000Y-107950000D03*
X151360000Y-113030000D03*
X149860000Y-113030000D03*
X161060000Y-106680000D03*
X162560000Y-106680000D03*
X165330000Y-99060000D03*
X163830000Y-99060000D03*
X161060000Y-110490000D03*
X162560000Y-110490000D03*
X165100000Y-109220000D03*
X166600000Y-109220000D03*
D15*
X165100000Y-93230000D03*
X165100000Y-94730000D03*
D18*
X150380000Y-109220000D03*
X151880000Y-109220000D03*
D19*
X154365000Y-102600000D03*
X154365000Y-102100000D03*
X154365000Y-101600000D03*
X154365000Y-101100000D03*
X154365000Y-100600000D03*
D20*
X153400000Y-99635000D03*
X152900000Y-99635000D03*
X152400000Y-99635000D03*
X151900000Y-99635000D03*
X151400000Y-99635000D03*
D19*
X150435000Y-100600000D03*
X150435000Y-101100000D03*
X150435000Y-101600000D03*
X150435000Y-102100000D03*
X150435000Y-102600000D03*
D20*
X151400000Y-103565000D03*
X151900000Y-103565000D03*
X152400000Y-103565000D03*
X152900000Y-103565000D03*
X153400000Y-103565000D03*
D21*
X151775000Y-100975000D03*
X151775000Y-102225000D03*
X153025000Y-100975000D03*
X153025000Y-102225000D03*
D22*
X177800000Y-92710000D03*
X177800000Y-90170000D03*
X169545000Y-90170000D03*
X169545000Y-92710000D03*
D23*
X175260000Y-104140000D03*
X139700000Y-107950000D03*
X137160000Y-107950000D03*
X156210000Y-101600000D03*
X160020000Y-101600000D03*
X140970000Y-104140000D03*
X143510000Y-104140000D03*
X146050000Y-95250000D03*
X149860000Y-95250000D03*
X156210000Y-95250000D03*
X161290000Y-95355010D03*
X149860000Y-96520000D03*
X148590000Y-110489276D03*
X153670000Y-110490000D03*
X152400000Y-105410000D03*
X154940000Y-105410000D03*
X162560000Y-95355010D03*
X162560000Y-92604990D03*
X148590000Y-102870000D03*
X148590000Y-100330000D03*
X157374990Y-104140000D03*
X156210000Y-107950000D03*
X175260000Y-97790000D03*
X168910000Y-101600000D03*
X168910000Y-104140000D03*
X173990000Y-101600000D03*
X173990000Y-104140000D03*
X152400000Y-106680000D03*
X156210000Y-102870000D03*
X173990000Y-109220000D03*
X149860000Y-97790000D03*
X148590000Y-105410000D03*
X152400000Y-96520000D03*
X166370000Y-101600000D03*
X166370000Y-105410000D03*
X166370000Y-107950000D03*
D24*
X143844880Y-99369880D02*
X143930120Y-99369880D01*
X143930120Y-99369880D02*
X144780000Y-98520000D01*
X144780000Y-98520000D02*
X144780000Y-98020000D01*
X135138160Y-99369880D02*
X143844880Y-99369880D01*
X143844880Y-99369880D02*
X144780000Y-100305000D01*
X144780000Y-100305000D02*
X144780000Y-100330000D01*
X162040000Y-101830000D02*
X162040000Y-101805000D01*
X162040000Y-101805000D02*
X162740001Y-101104999D01*
X162740001Y-101104999D02*
X162740001Y-100780010D01*
X162740001Y-100780010D02*
X170821438Y-100780010D01*
X170821438Y-100780010D02*
X170826428Y-100785000D01*
X170826428Y-100785000D02*
X170826428Y-101435000D01*
X153025000Y-100975000D02*
X153025000Y-102225000D01*
X151775000Y-100975000D02*
X151775000Y-102225000D01*
X151775000Y-102225000D02*
X153025000Y-102225000D01*
X153025000Y-100975000D02*
X153650000Y-101600000D01*
X153650000Y-101600000D02*
X154365000Y-101600000D01*
X150435000Y-101600000D02*
X151150000Y-101600000D01*
X151150000Y-101600000D02*
X151775000Y-100975000D01*
X173361540Y-102870000D02*
X175226488Y-102870000D01*
X175226488Y-102870000D02*
X176280000Y-102870000D01*
X175260000Y-104140000D02*
X175260000Y-102903512D01*
X175260000Y-102903512D02*
X175226488Y-102870000D01*
X142470000Y-105410000D02*
X142470000Y-107840938D01*
X142470000Y-107840938D02*
X142470000Y-110182753D01*
X139700000Y-107950000D02*
X142360938Y-107950000D01*
X142360938Y-107950000D02*
X142470000Y-107840938D01*
X135138160Y-102570280D02*
X136038590Y-102570280D01*
X136038590Y-102570280D02*
X137160000Y-103691690D01*
X137160000Y-103691690D02*
X137160000Y-107950000D01*
X172720000Y-104360980D02*
X172720000Y-103511540D01*
X172720000Y-103511540D02*
X173361540Y-102870000D01*
X176280000Y-102870000D02*
X177800000Y-102870000D01*
X170826428Y-101435000D02*
X170826428Y-103316848D01*
X171870560Y-104360980D02*
X172720000Y-104360980D01*
X170826428Y-103316848D02*
X171870560Y-104360980D01*
X156210000Y-101600000D02*
X155584990Y-101600000D01*
X155584990Y-101600000D02*
X154365000Y-101600000D01*
X162040000Y-101830000D02*
X160250000Y-101830000D01*
X160250000Y-101830000D02*
X160020000Y-101600000D01*
X146930000Y-101600000D02*
X147304282Y-101600000D01*
X147304282Y-101600000D02*
X149820000Y-101600000D01*
X147320000Y-104140000D02*
X147320000Y-101615718D01*
X147320000Y-101615718D02*
X147304282Y-101600000D01*
X144780000Y-101830000D02*
X146700000Y-101830000D01*
X146700000Y-101830000D02*
X146930000Y-101600000D01*
X142445000Y-101805000D02*
X142470000Y-101830000D01*
X142470000Y-101830000D02*
X144780000Y-101830000D01*
X142445000Y-105410000D02*
X142445000Y-101805000D01*
X142470000Y-110182753D02*
X142470000Y-110490000D01*
X142470000Y-110182753D02*
X142470000Y-111760000D01*
X142470000Y-111760000D02*
X146050000Y-111760000D01*
X142470000Y-110490000D02*
X142495000Y-110490000D01*
X149820000Y-101600000D02*
X150435000Y-101600000D01*
X142445000Y-105410000D02*
X142470000Y-105410000D01*
X140809980Y-100169980D02*
X140970000Y-100330000D01*
X135138160Y-100169980D02*
X140809980Y-100169980D01*
X140970000Y-104140000D02*
X140970000Y-100330000D01*
X145820000Y-104140000D02*
X143510000Y-104140000D01*
X145820000Y-104140000D02*
X145820000Y-107720000D01*
X145820000Y-107720000D02*
X146050000Y-107950000D01*
X162040000Y-100330000D02*
X170431428Y-100330000D01*
X170431428Y-100330000D02*
X170826428Y-99935000D01*
X170826428Y-95896428D02*
X169545000Y-94615000D01*
X169545000Y-94615000D02*
X169545000Y-92710000D01*
X170826428Y-99935000D02*
X170826428Y-95896428D01*
X146050000Y-95250000D02*
X144780000Y-96520000D01*
X156210000Y-95250000D02*
X149860000Y-95250000D01*
X162040000Y-100330000D02*
X162040000Y-96105010D01*
X162040000Y-96105010D02*
X161290000Y-95355010D01*
X147320000Y-100330000D02*
X147320000Y-100543651D01*
X147320000Y-100543651D02*
X147320000Y-101149990D01*
X147320000Y-96520000D02*
X147320000Y-100543651D01*
X144780000Y-96520000D02*
X147320000Y-96520000D01*
X147320000Y-101149990D02*
X147369990Y-101100000D01*
X147369990Y-101100000D02*
X150435000Y-101100000D01*
X140970000Y-113030000D02*
X149860000Y-113030000D01*
X140970000Y-111760000D02*
X140970000Y-113030000D01*
X138430000Y-101600000D02*
X138430000Y-104140000D01*
X139903272Y-111760000D02*
X138430000Y-110286728D01*
X138430000Y-110286728D02*
X138430000Y-104140000D01*
X140970000Y-111760000D02*
X139903272Y-111760000D01*
X138430000Y-101600000D02*
X137800080Y-100970080D01*
X137800080Y-100970080D02*
X135138160Y-100970080D01*
X158750000Y-106680000D02*
X153670000Y-106680000D01*
X158750000Y-106680000D02*
X160020000Y-106680000D01*
X158750000Y-101600000D02*
X158750000Y-106680000D01*
X165100000Y-97187367D02*
X165330000Y-97417367D01*
X165330000Y-97417367D02*
X165330000Y-99060000D01*
X149040010Y-97339990D02*
X149040010Y-98805010D01*
X149040010Y-98805010D02*
X150435000Y-100200000D01*
X150435000Y-100200000D02*
X150435000Y-100600000D01*
X149860000Y-96520000D02*
X149040010Y-97339990D01*
X150435000Y-99635000D02*
X150435000Y-100600000D01*
X151400000Y-99635000D02*
X150435000Y-99635000D01*
X148590000Y-110745000D02*
X148590000Y-110489276D01*
X153670000Y-106680000D02*
X153670000Y-110490000D01*
X153670000Y-106680000D02*
X153797021Y-106680000D01*
X161060000Y-106680000D02*
X161060000Y-109184813D01*
X161060000Y-109184813D02*
X161060000Y-110490000D01*
X165100000Y-109220000D02*
X161095187Y-109220000D01*
X161095187Y-109220000D02*
X161060000Y-109184813D01*
X160020000Y-100330000D02*
X158750000Y-101600000D01*
X160020000Y-95250000D02*
X160020000Y-100330000D01*
X160540000Y-94730000D02*
X160020000Y-95250000D01*
X165100000Y-94730000D02*
X160540000Y-94730000D01*
X159997844Y-106680000D02*
X161060000Y-106680000D01*
X165100000Y-94730000D02*
X165100000Y-97187367D01*
X153670000Y-106680000D02*
X153670000Y-104450000D01*
X153670000Y-104450000D02*
X153400000Y-104180000D01*
X147550000Y-111760000D02*
X147575000Y-111760000D01*
X147575000Y-111760000D02*
X148590000Y-110745000D01*
X153400000Y-104180000D02*
X153400000Y-103565000D01*
X152400000Y-105410000D02*
X152400000Y-103565000D01*
X157480000Y-105410000D02*
X154940000Y-105410000D01*
X158000000Y-98540000D02*
X158000000Y-104890000D01*
X158000000Y-104890000D02*
X157480000Y-105410000D01*
X165100000Y-91440000D02*
X166370000Y-90170000D01*
X166370000Y-90170000D02*
X169545000Y-90170000D01*
X165100000Y-93230000D02*
X165100000Y-91440000D01*
X158000000Y-94730000D02*
X159500000Y-93230000D01*
X159500000Y-93230000D02*
X165100000Y-93230000D01*
X158000000Y-97040000D02*
X158000000Y-94730000D01*
X172720000Y-106459020D02*
X162780980Y-106459020D01*
X162780980Y-106459020D02*
X162560000Y-106680000D01*
X162560000Y-95355010D02*
X162560000Y-98290000D01*
X162560000Y-98290000D02*
X163330000Y-99060000D01*
X163330000Y-99060000D02*
X163830000Y-99060000D01*
X147320000Y-91660980D02*
X161615990Y-91660980D01*
X161615990Y-91660980D02*
X162560000Y-92604990D01*
X148590000Y-102870000D02*
X149360000Y-102100000D01*
X149360000Y-102100000D02*
X150435000Y-102100000D01*
X148590000Y-95878460D02*
X148590000Y-100330000D01*
X147320000Y-93759020D02*
X147320000Y-94608460D01*
X147320000Y-94608460D02*
X148590000Y-95878460D01*
X157501400Y-111760000D02*
X161490000Y-111760000D01*
X161490000Y-111760000D02*
X162560000Y-110690000D01*
X162560000Y-110690000D02*
X162560000Y-110490000D01*
X156210000Y-111318040D02*
X157059440Y-111318040D01*
X157059440Y-111318040D02*
X157501400Y-111760000D01*
X157374990Y-104140000D02*
X157374990Y-102975010D01*
X157374990Y-102975010D02*
X157480000Y-102870000D01*
X157480000Y-100330000D02*
X156210000Y-99060000D01*
X156210000Y-99060000D02*
X156210000Y-96520000D01*
X157480000Y-102870000D02*
X157480000Y-100330000D01*
X153670000Y-96520000D02*
X153670000Y-97790000D01*
X153670000Y-97790000D02*
X152900000Y-98560000D01*
X152900000Y-98560000D02*
X152900000Y-99020000D01*
X152900000Y-99020000D02*
X152900000Y-99635000D01*
X156210000Y-96520000D02*
X153670000Y-96520000D01*
X156210000Y-109220000D02*
X156210000Y-107950000D01*
X175260000Y-97790000D02*
X177800000Y-97790000D01*
X168910000Y-104140000D02*
X168910000Y-101600000D01*
X177800000Y-92710000D02*
X177800000Y-97790000D01*
X173990000Y-101600000D02*
X173990000Y-93662500D01*
X173990000Y-93662500D02*
X177482500Y-90170000D01*
X177482500Y-90170000D02*
X177800000Y-90170000D01*
X177292000Y-105410000D02*
X175260000Y-105410000D01*
X175260000Y-105410000D02*
X173990000Y-104140000D01*
X177800000Y-105410000D02*
X177292000Y-105410000D01*
X152400000Y-106680000D02*
X151774999Y-106054999D01*
X151774999Y-106054999D02*
X151774999Y-104305001D01*
X151774999Y-104305001D02*
X151900000Y-104180000D01*
X151900000Y-104180000D02*
X151900000Y-103565000D01*
X156210000Y-102870000D02*
X154635000Y-102870000D01*
X154635000Y-102870000D02*
X154365000Y-102600000D01*
X152400000Y-113030000D02*
X152400000Y-111760000D01*
X156138078Y-113030000D02*
X152400000Y-113030000D01*
X173990000Y-113030000D02*
X156138078Y-113030000D01*
X173990000Y-111760000D02*
X173990000Y-113030000D01*
X173990000Y-109220000D02*
X173990000Y-111760000D01*
X152400000Y-111760000D02*
X152400000Y-110440000D01*
X152400000Y-110440000D02*
X151880000Y-109920000D01*
X151880000Y-109920000D02*
X151880000Y-109220000D01*
X129540000Y-96520000D02*
X129540000Y-105420160D01*
X129540000Y-96520000D02*
X135039100Y-96520000D01*
X135039100Y-105420160D02*
X129540000Y-105420160D01*
X151130000Y-97790000D02*
X151900000Y-98560000D01*
X151900000Y-98560000D02*
X151900000Y-99635000D01*
X149860000Y-97790000D02*
X151130000Y-97790000D01*
X147550000Y-107950000D02*
X147550000Y-106450000D01*
X147550000Y-106450000D02*
X148590000Y-105410000D01*
X152400000Y-99060000D02*
X152400000Y-99635000D01*
X152400000Y-96520000D02*
X152400000Y-99060000D01*
X166370000Y-105410000D02*
X166370000Y-101600000D01*
X173645002Y-107950000D02*
X166370000Y-107950000D01*
X151360000Y-113030000D02*
X151360000Y-113230000D01*
X173926410Y-113730000D02*
X174615001Y-113041409D01*
X151360000Y-113230000D02*
X151860000Y-113730000D01*
X151860000Y-113730000D02*
X173926410Y-113730000D01*
X174615001Y-113041409D02*
X174615001Y-108919999D01*
X174615001Y-108919999D02*
X173645002Y-107950000D01*
X166600000Y-109220000D02*
X166600000Y-109420000D01*
X166600000Y-109420000D02*
X163777519Y-112242481D01*
X163777519Y-112242481D02*
X154152481Y-112242481D01*
X154152481Y-112242481D02*
X152850010Y-110940010D01*
X152850010Y-110940010D02*
X152850010Y-108400010D01*
X152850010Y-108400010D02*
X150310010Y-105860010D01*
X150310010Y-105860010D02*
X150310010Y-104254990D01*
X150310010Y-104254990D02*
X151000000Y-103565000D01*
X151000000Y-103565000D02*
X151400000Y-103565000D01*
X149860000Y-105410000D02*
X149860000Y-105255638D01*
X149860000Y-105255638D02*
X149860000Y-104140000D01*
X149860000Y-107950000D02*
X149860000Y-105255638D01*
X150380000Y-108470000D02*
X149860000Y-107950000D01*
X150380000Y-109220000D02*
X150380000Y-108470000D01*
X149860000Y-102870000D02*
X150165000Y-102870000D01*
X150165000Y-102870000D02*
X150435000Y-102600000D01*
X149860000Y-104140000D02*
X149860000Y-102870000D01*
M02*
