G04 #@! TF.FileFunction,Copper,L2,Bot,Signal*
%FSLAX46Y46*%
G04 Gerber Fmt 4.6, Leading zero omitted, Abs format (unit mm)*
G04 Created by KiCad (PCBNEW 4.0.0-rc1-stable) date 12/2/2015 9:08:29 PM*
%MOMM*%
G01*
G04 APERTURE LIST*
%ADD10C,0.100000*%
%ADD11R,2.540000X1.524000*%
%ADD12C,0.600000*%
%ADD13C,0.250000*%
G04 APERTURE END LIST*
D10*
D11*
X177800000Y-97790000D03*
X177800000Y-100330000D03*
X177800000Y-102870000D03*
X177800000Y-105410000D03*
X177800000Y-107950000D03*
X177800000Y-110490000D03*
D12*
X175260000Y-104140000D03*
X139700000Y-107950000D03*
X137160000Y-107950000D03*
X156210000Y-101600000D03*
X160020000Y-101600000D03*
X140970000Y-104140000D03*
X143510000Y-104140000D03*
X146050000Y-95250000D03*
X149860000Y-95250000D03*
X156210000Y-95250000D03*
X161290000Y-95355010D03*
X149860000Y-96520000D03*
X148590000Y-110489276D03*
X153670000Y-110490000D03*
X152400000Y-105410000D03*
X154940000Y-105410000D03*
X162560000Y-95355010D03*
X162560000Y-92604990D03*
X148590000Y-102870000D03*
X148590000Y-100330000D03*
X157374990Y-104140000D03*
X156210000Y-107950000D03*
X175260000Y-97790000D03*
X168910000Y-101600000D03*
X168910000Y-104140000D03*
X173990000Y-101600000D03*
X173990000Y-104140000D03*
X152400000Y-106680000D03*
X156210000Y-102870000D03*
X173990000Y-109220000D03*
X149860000Y-97790000D03*
X148590000Y-105410000D03*
X152400000Y-96520000D03*
X166370000Y-101600000D03*
X166370000Y-105410000D03*
X166370000Y-107950000D03*
D13*
X177800000Y-105410000D02*
X177292000Y-105410000D01*
X177292000Y-105410000D02*
X176022000Y-104140000D01*
X176022000Y-104140000D02*
X175260000Y-104140000D01*
X137160000Y-107950000D02*
X139700000Y-107950000D01*
X157480000Y-101600000D02*
X156210000Y-101600000D01*
X160020000Y-101600000D02*
X157374990Y-101600000D01*
X157480000Y-101600000D02*
X157374990Y-101600000D01*
X143510000Y-104140000D02*
X140970000Y-104140000D01*
X149860000Y-95250000D02*
X146050000Y-95250000D01*
X156315010Y-95355010D02*
X156210000Y-95250000D01*
X161290000Y-95355010D02*
X156315010Y-95355010D01*
X147964999Y-104765001D02*
X147964999Y-98415001D01*
X147964999Y-98415001D02*
X149860000Y-96520000D01*
X149215001Y-107305001D02*
X147964999Y-106054999D01*
X147964999Y-106054999D02*
X147964999Y-104765001D01*
X148590000Y-110489276D02*
X149215001Y-109864275D01*
X149215001Y-109864275D02*
X149215001Y-107305001D01*
X153670000Y-110490000D02*
X148590724Y-110490000D01*
X148590724Y-110490000D02*
X148590000Y-110489276D01*
X154940000Y-105410000D02*
X152400000Y-105410000D01*
X162560000Y-92604990D02*
X162560000Y-95355010D01*
X148590000Y-100330000D02*
X148590000Y-102870000D01*
X156210000Y-107950000D02*
X156210000Y-105304990D01*
X156210000Y-105304990D02*
X157374990Y-104140000D01*
X168910000Y-97790000D02*
X175260000Y-97790000D01*
X168910000Y-101600000D02*
X168910000Y-97790000D01*
X168910000Y-105410000D02*
X168910000Y-104140000D01*
X168910000Y-110490000D02*
X168910000Y-105410000D01*
X172720000Y-110490000D02*
X168910000Y-110490000D01*
X177800000Y-110490000D02*
X172720000Y-110490000D01*
X173990000Y-102244990D02*
X173990000Y-101600000D01*
X173990000Y-104140000D02*
X173990000Y-102244990D01*
X159200010Y-102050010D02*
X159025019Y-102225001D01*
X159025019Y-102225001D02*
X155584999Y-102225001D01*
X160020000Y-102870000D02*
X159200010Y-102050010D01*
X171450000Y-102870000D02*
X160020000Y-102870000D01*
X172094999Y-102225001D02*
X171450000Y-102870000D01*
X155565001Y-104784999D02*
X155565001Y-104913601D01*
X155565001Y-104913601D02*
X155565001Y-105710001D01*
X155565001Y-102244999D02*
X155565001Y-104913601D01*
X177800000Y-100330000D02*
X172720000Y-100330000D01*
X172720000Y-100330000D02*
X172094999Y-100955001D01*
X172094999Y-100955001D02*
X172094999Y-102225001D01*
X155584999Y-102225001D02*
X155565001Y-102244999D01*
X155565001Y-105710001D02*
X154595002Y-106680000D01*
X154595002Y-106680000D02*
X152400000Y-106680000D01*
X177800000Y-100330000D02*
X177292000Y-100330000D01*
X170816410Y-104140000D02*
X170191409Y-103514999D01*
X170191409Y-103514999D02*
X156854999Y-103514999D01*
X156854999Y-103514999D02*
X156210000Y-102870000D01*
X177800000Y-102870000D02*
X177292000Y-102870000D01*
X177292000Y-102870000D02*
X175396999Y-100974999D01*
X172545009Y-102119989D02*
X172545009Y-102411401D01*
X175396999Y-100974999D02*
X173689999Y-100974999D01*
X173689999Y-100974999D02*
X172545009Y-102119989D01*
X172545009Y-102411401D02*
X170816410Y-104140000D01*
X175472132Y-107737868D02*
X173990000Y-109220000D01*
X176029998Y-107737868D02*
X175472132Y-107737868D01*
X176029998Y-107737868D02*
X177587868Y-107737868D01*
X177587868Y-107737868D02*
X177800000Y-107950000D01*
X148590000Y-105410000D02*
X149215001Y-104784999D01*
X149215001Y-104784999D02*
X149215001Y-98434999D01*
X149215001Y-98434999D02*
X149860000Y-97790000D01*
X152400000Y-90170000D02*
X152400000Y-96520000D01*
X163830000Y-90170000D02*
X152400000Y-90170000D01*
X163830000Y-92949988D02*
X163830000Y-90170000D01*
X163830000Y-96520000D02*
X163830000Y-92949988D01*
X166370000Y-96520000D02*
X163830000Y-96520000D01*
X166370000Y-101600000D02*
X166370000Y-96520000D01*
X166370000Y-107950000D02*
X166370000Y-105410000D01*
M02*
