M48
;DRILL file {KiCad 4.0.0-rc1-stable} date 11/29/2015 8:31:25 PM
;FORMAT={-:-/ absolute / inch / decimal}
FMAT,2
INCH,TZ
T1C0.016
%
G90
G05
M72
T1
X5.4Y-4.25
X5.5Y-4.25
X5.55Y-4.1
X5.65Y-4.1
X5.75Y-3.75
X5.85Y-3.95
X5.85Y-4.05
X5.85Y-4.15
X5.85Y-4.35
X5.9Y-3.75
X5.9Y-3.8
X5.9Y-3.85
X6.Y-3.8
X6.Y-4.15
X6.Y-4.2
X6.05Y-4.35
X6.1Y-4.15
X6.15Y-3.75
X6.15Y-4.
X6.15Y-4.05
X6.15Y-4.25
X6.1959Y-4.1
X6.3Y-4.
X6.35Y-3.7541
X6.4Y-3.6459
X6.4Y-3.7541
X6.55Y-4.
X6.55Y-4.15
X6.55Y-4.25
X6.65Y-4.
X6.65Y-4.1
X6.85Y-4.
X6.85Y-4.1
X6.85Y-4.3
X6.9Y-3.85
X6.9Y-4.1
T0
M30
