G04 #@! TF.FileFunction,Legend,Top*
%FSLAX46Y46*%
G04 Gerber Fmt 4.6, Leading zero omitted, Abs format (unit mm)*
G04 Created by KiCad (PCBNEW 4.0.0-rc1-stable) date 12/2/2015 9:08:29 PM*
%MOMM*%
G01*
G04 APERTURE LIST*
%ADD10C,0.100000*%
%ADD11C,0.150000*%
G04 APERTURE END LIST*
D10*
D11*
X145380000Y-100730000D02*
X145380000Y-101430000D01*
X144180000Y-101430000D02*
X144180000Y-100730000D01*
X146220000Y-103540000D02*
X146920000Y-103540000D01*
X146920000Y-104740000D02*
X146220000Y-104740000D01*
X171426428Y-100335000D02*
X171426428Y-101035000D01*
X170226428Y-101035000D02*
X170226428Y-100335000D01*
X141370000Y-111160000D02*
X142070000Y-111160000D01*
X142070000Y-112360000D02*
X141370000Y-112360000D01*
X162640000Y-100730000D02*
X162640000Y-101430000D01*
X161440000Y-101430000D02*
X161440000Y-100730000D01*
X147150000Y-112360000D02*
X146450000Y-112360000D01*
X146450000Y-111160000D02*
X147150000Y-111160000D01*
X157400000Y-98140000D02*
X157400000Y-97440000D01*
X158600000Y-97440000D02*
X158600000Y-98140000D01*
X171970000Y-103810000D02*
X171970000Y-106510000D01*
X173470000Y-103810000D02*
X173470000Y-106510000D01*
X172570000Y-105310000D02*
X172820000Y-105310000D01*
X172820000Y-105310000D02*
X172670000Y-105160000D01*
X173070000Y-105060000D02*
X172370000Y-105060000D01*
X172720000Y-105410000D02*
X172720000Y-105760000D01*
X172720000Y-105060000D02*
X173070000Y-105410000D01*
X173070000Y-105410000D02*
X172370000Y-105410000D01*
X172370000Y-105410000D02*
X172720000Y-105060000D01*
X148070000Y-94310000D02*
X148070000Y-91610000D01*
X146570000Y-94310000D02*
X146570000Y-91610000D01*
X147470000Y-92810000D02*
X147220000Y-92810000D01*
X147220000Y-92810000D02*
X147370000Y-92960000D01*
X146970000Y-93060000D02*
X147670000Y-93060000D01*
X147320000Y-92710000D02*
X147320000Y-92360000D01*
X147320000Y-93060000D02*
X146970000Y-92710000D01*
X146970000Y-92710000D02*
X147670000Y-92710000D01*
X147670000Y-92710000D02*
X147320000Y-93060000D01*
X155460000Y-108669020D02*
X155460000Y-111369020D01*
X156960000Y-108669020D02*
X156960000Y-111369020D01*
X156060000Y-110169020D02*
X156310000Y-110169020D01*
X156310000Y-110169020D02*
X156160000Y-110019020D01*
X156560000Y-109919020D02*
X155860000Y-109919020D01*
X156210000Y-110269020D02*
X156210000Y-110619020D01*
X156210000Y-109919020D02*
X156560000Y-110269020D01*
X156560000Y-110269020D02*
X155860000Y-110269020D01*
X155860000Y-110269020D02*
X156210000Y-109919020D01*
X144105000Y-97770000D02*
X144105000Y-96770000D01*
X145455000Y-96770000D02*
X145455000Y-97770000D01*
X128089660Y-97119440D02*
X128089660Y-104820720D01*
X127088900Y-97119440D02*
X127088900Y-104820720D01*
X127088900Y-104820720D02*
X136288780Y-104820720D01*
X136288780Y-104820720D02*
X136288780Y-97119440D01*
X136288780Y-97119440D02*
X127088900Y-97119440D01*
X146300000Y-107275000D02*
X147300000Y-107275000D01*
X147300000Y-108625000D02*
X146300000Y-108625000D01*
X150110000Y-112355000D02*
X151110000Y-112355000D01*
X151110000Y-113705000D02*
X150110000Y-113705000D01*
X162310000Y-107355000D02*
X161310000Y-107355000D01*
X161310000Y-106005000D02*
X162310000Y-106005000D01*
X164080000Y-98385000D02*
X165080000Y-98385000D01*
X165080000Y-99735000D02*
X164080000Y-99735000D01*
X162310000Y-111165000D02*
X161310000Y-111165000D01*
X161310000Y-109815000D02*
X162310000Y-109815000D01*
X166350000Y-109895000D02*
X165350000Y-109895000D01*
X165350000Y-108545000D02*
X166350000Y-108545000D01*
X164425000Y-94480000D02*
X164425000Y-93480000D01*
X165775000Y-93480000D02*
X165775000Y-94480000D01*
X151630000Y-109895000D02*
X150630000Y-109895000D01*
X150630000Y-108545000D02*
X151630000Y-108545000D01*
X150250000Y-103750000D02*
X150250000Y-102975000D01*
X154550000Y-99450000D02*
X154550000Y-100225000D01*
X150250000Y-99450000D02*
X150250000Y-100225000D01*
X154550000Y-103750000D02*
X153775000Y-103750000D01*
X154550000Y-99450000D02*
X153775000Y-99450000D01*
X150250000Y-99450000D02*
X151025000Y-99450000D01*
X150250000Y-103750000D02*
X151025000Y-103750000D01*
X147037143Y-101246666D02*
X147084762Y-101294285D01*
X147132381Y-101437142D01*
X147132381Y-101532380D01*
X147084762Y-101675238D01*
X146989524Y-101770476D01*
X146894286Y-101818095D01*
X146703810Y-101865714D01*
X146560952Y-101865714D01*
X146370476Y-101818095D01*
X146275238Y-101770476D01*
X146180000Y-101675238D01*
X146132381Y-101532380D01*
X146132381Y-101437142D01*
X146180000Y-101294285D01*
X146227619Y-101246666D01*
X147132381Y-100294285D02*
X147132381Y-100865714D01*
X147132381Y-100580000D02*
X146132381Y-100580000D01*
X146275238Y-100675238D01*
X146370476Y-100770476D01*
X146418095Y-100865714D01*
X146403334Y-102597143D02*
X146355715Y-102644762D01*
X146212858Y-102692381D01*
X146117620Y-102692381D01*
X145974762Y-102644762D01*
X145879524Y-102549524D01*
X145831905Y-102454286D01*
X145784286Y-102263810D01*
X145784286Y-102120952D01*
X145831905Y-101930476D01*
X145879524Y-101835238D01*
X145974762Y-101740000D01*
X146117620Y-101692381D01*
X146212858Y-101692381D01*
X146355715Y-101740000D01*
X146403334Y-101787619D01*
X146784286Y-101787619D02*
X146831905Y-101740000D01*
X146927143Y-101692381D01*
X147165239Y-101692381D01*
X147260477Y-101740000D01*
X147308096Y-101787619D01*
X147355715Y-101882857D01*
X147355715Y-101978095D01*
X147308096Y-102120952D01*
X146736667Y-102692381D01*
X147355715Y-102692381D01*
X173083571Y-100851666D02*
X173131190Y-100899285D01*
X173178809Y-101042142D01*
X173178809Y-101137380D01*
X173131190Y-101280238D01*
X173035952Y-101375476D01*
X172940714Y-101423095D01*
X172750238Y-101470714D01*
X172607380Y-101470714D01*
X172416904Y-101423095D01*
X172321666Y-101375476D01*
X172226428Y-101280238D01*
X172178809Y-101137380D01*
X172178809Y-101042142D01*
X172226428Y-100899285D01*
X172274047Y-100851666D01*
X172178809Y-100518333D02*
X172178809Y-99899285D01*
X172559761Y-100232619D01*
X172559761Y-100089761D01*
X172607380Y-99994523D01*
X172654999Y-99946904D01*
X172750238Y-99899285D01*
X172988333Y-99899285D01*
X173083571Y-99946904D01*
X173131190Y-99994523D01*
X173178809Y-100089761D01*
X173178809Y-100375476D01*
X173131190Y-100470714D01*
X173083571Y-100518333D01*
X141553334Y-110217143D02*
X141505715Y-110264762D01*
X141362858Y-110312381D01*
X141267620Y-110312381D01*
X141124762Y-110264762D01*
X141029524Y-110169524D01*
X140981905Y-110074286D01*
X140934286Y-109883810D01*
X140934286Y-109740952D01*
X140981905Y-109550476D01*
X141029524Y-109455238D01*
X141124762Y-109360000D01*
X141267620Y-109312381D01*
X141362858Y-109312381D01*
X141505715Y-109360000D01*
X141553334Y-109407619D01*
X142410477Y-109645714D02*
X142410477Y-110312381D01*
X142172381Y-109264762D02*
X141934286Y-109979048D01*
X142553334Y-109979048D01*
X164297143Y-101246666D02*
X164344762Y-101294285D01*
X164392381Y-101437142D01*
X164392381Y-101532380D01*
X164344762Y-101675238D01*
X164249524Y-101770476D01*
X164154286Y-101818095D01*
X163963810Y-101865714D01*
X163820952Y-101865714D01*
X163630476Y-101818095D01*
X163535238Y-101770476D01*
X163440000Y-101675238D01*
X163392381Y-101532380D01*
X163392381Y-101437142D01*
X163440000Y-101294285D01*
X163487619Y-101246666D01*
X163392381Y-100341904D02*
X163392381Y-100818095D01*
X163868571Y-100865714D01*
X163820952Y-100818095D01*
X163773333Y-100722857D01*
X163773333Y-100484761D01*
X163820952Y-100389523D01*
X163868571Y-100341904D01*
X163963810Y-100294285D01*
X164201905Y-100294285D01*
X164297143Y-100341904D01*
X164344762Y-100389523D01*
X164392381Y-100484761D01*
X164392381Y-100722857D01*
X164344762Y-100818095D01*
X164297143Y-100865714D01*
X146633334Y-113387143D02*
X146585715Y-113434762D01*
X146442858Y-113482381D01*
X146347620Y-113482381D01*
X146204762Y-113434762D01*
X146109524Y-113339524D01*
X146061905Y-113244286D01*
X146014286Y-113053810D01*
X146014286Y-112910952D01*
X146061905Y-112720476D01*
X146109524Y-112625238D01*
X146204762Y-112530000D01*
X146347620Y-112482381D01*
X146442858Y-112482381D01*
X146585715Y-112530000D01*
X146633334Y-112577619D01*
X147490477Y-112482381D02*
X147300000Y-112482381D01*
X147204762Y-112530000D01*
X147157143Y-112577619D01*
X147061905Y-112720476D01*
X147014286Y-112910952D01*
X147014286Y-113291905D01*
X147061905Y-113387143D01*
X147109524Y-113434762D01*
X147204762Y-113482381D01*
X147395239Y-113482381D01*
X147490477Y-113434762D01*
X147538096Y-113387143D01*
X147585715Y-113291905D01*
X147585715Y-113053810D01*
X147538096Y-112958571D01*
X147490477Y-112910952D01*
X147395239Y-112863333D01*
X147204762Y-112863333D01*
X147109524Y-112910952D01*
X147061905Y-112958571D01*
X147014286Y-113053810D01*
X156457143Y-97956666D02*
X156504762Y-98004285D01*
X156552381Y-98147142D01*
X156552381Y-98242380D01*
X156504762Y-98385238D01*
X156409524Y-98480476D01*
X156314286Y-98528095D01*
X156123810Y-98575714D01*
X155980952Y-98575714D01*
X155790476Y-98528095D01*
X155695238Y-98480476D01*
X155600000Y-98385238D01*
X155552381Y-98242380D01*
X155552381Y-98147142D01*
X155600000Y-98004285D01*
X155647619Y-97956666D01*
X155552381Y-97623333D02*
X155552381Y-96956666D01*
X156552381Y-97385238D01*
X174922381Y-106148095D02*
X173922381Y-106148095D01*
X173922381Y-105910000D01*
X173970000Y-105767142D01*
X174065238Y-105671904D01*
X174160476Y-105624285D01*
X174350952Y-105576666D01*
X174493810Y-105576666D01*
X174684286Y-105624285D01*
X174779524Y-105671904D01*
X174874762Y-105767142D01*
X174922381Y-105910000D01*
X174922381Y-106148095D01*
X174922381Y-104624285D02*
X174922381Y-105195714D01*
X174922381Y-104910000D02*
X173922381Y-104910000D01*
X174065238Y-105005238D01*
X174160476Y-105100476D01*
X174208095Y-105195714D01*
X146022381Y-93448095D02*
X145022381Y-93448095D01*
X145022381Y-93210000D01*
X145070000Y-93067142D01*
X145165238Y-92971904D01*
X145260476Y-92924285D01*
X145450952Y-92876666D01*
X145593810Y-92876666D01*
X145784286Y-92924285D01*
X145879524Y-92971904D01*
X145974762Y-93067142D01*
X146022381Y-93210000D01*
X146022381Y-93448095D01*
X145117619Y-92495714D02*
X145070000Y-92448095D01*
X145022381Y-92352857D01*
X145022381Y-92114761D01*
X145070000Y-92019523D01*
X145117619Y-91971904D01*
X145212857Y-91924285D01*
X145308095Y-91924285D01*
X145450952Y-91971904D01*
X146022381Y-92543333D01*
X146022381Y-91924285D01*
X158412381Y-111007115D02*
X157412381Y-111007115D01*
X157412381Y-110769020D01*
X157460000Y-110626162D01*
X157555238Y-110530924D01*
X157650476Y-110483305D01*
X157840952Y-110435686D01*
X157983810Y-110435686D01*
X158174286Y-110483305D01*
X158269524Y-110530924D01*
X158364762Y-110626162D01*
X158412381Y-110769020D01*
X158412381Y-111007115D01*
X157412381Y-110102353D02*
X157412381Y-109483305D01*
X157793333Y-109816639D01*
X157793333Y-109673781D01*
X157840952Y-109578543D01*
X157888571Y-109530924D01*
X157983810Y-109483305D01*
X158221905Y-109483305D01*
X158317143Y-109530924D01*
X158364762Y-109578543D01*
X158412381Y-109673781D01*
X158412381Y-109959496D01*
X158364762Y-110054734D01*
X158317143Y-110102353D01*
X147132381Y-97436666D02*
X147132381Y-97912857D01*
X146132381Y-97912857D01*
X147132381Y-96579523D02*
X147132381Y-97150952D01*
X147132381Y-96865238D02*
X146132381Y-96865238D01*
X146275238Y-96960476D01*
X146370476Y-97055714D01*
X146418095Y-97150952D01*
X130950745Y-108323641D02*
X130950745Y-107323641D01*
X131331698Y-107323641D01*
X131426936Y-107371260D01*
X131474555Y-107418879D01*
X131522174Y-107514117D01*
X131522174Y-107656974D01*
X131474555Y-107752212D01*
X131426936Y-107799831D01*
X131331698Y-107847450D01*
X130950745Y-107847450D01*
X132474555Y-108323641D02*
X131903126Y-108323641D01*
X132188840Y-108323641D02*
X132188840Y-107323641D01*
X132093602Y-107466498D01*
X131998364Y-107561736D01*
X131903126Y-107609355D01*
X146633334Y-110302381D02*
X146300000Y-109826190D01*
X146061905Y-110302381D02*
X146061905Y-109302381D01*
X146442858Y-109302381D01*
X146538096Y-109350000D01*
X146585715Y-109397619D01*
X146633334Y-109492857D01*
X146633334Y-109635714D01*
X146585715Y-109730952D01*
X146538096Y-109778571D01*
X146442858Y-109826190D01*
X146061905Y-109826190D01*
X147585715Y-110302381D02*
X147014286Y-110302381D01*
X147300000Y-110302381D02*
X147300000Y-109302381D01*
X147204762Y-109445238D01*
X147109524Y-109540476D01*
X147014286Y-109588095D01*
X150443334Y-115382381D02*
X150110000Y-114906190D01*
X149871905Y-115382381D02*
X149871905Y-114382381D01*
X150252858Y-114382381D01*
X150348096Y-114430000D01*
X150395715Y-114477619D01*
X150443334Y-114572857D01*
X150443334Y-114715714D01*
X150395715Y-114810952D01*
X150348096Y-114858571D01*
X150252858Y-114906190D01*
X149871905Y-114906190D01*
X150824286Y-114477619D02*
X150871905Y-114430000D01*
X150967143Y-114382381D01*
X151205239Y-114382381D01*
X151300477Y-114430000D01*
X151348096Y-114477619D01*
X151395715Y-114572857D01*
X151395715Y-114668095D01*
X151348096Y-114810952D01*
X150776667Y-115382381D01*
X151395715Y-115382381D01*
X161643334Y-105232381D02*
X161310000Y-104756190D01*
X161071905Y-105232381D02*
X161071905Y-104232381D01*
X161452858Y-104232381D01*
X161548096Y-104280000D01*
X161595715Y-104327619D01*
X161643334Y-104422857D01*
X161643334Y-104565714D01*
X161595715Y-104660952D01*
X161548096Y-104708571D01*
X161452858Y-104756190D01*
X161071905Y-104756190D01*
X161976667Y-104232381D02*
X162595715Y-104232381D01*
X162262381Y-104613333D01*
X162405239Y-104613333D01*
X162500477Y-104660952D01*
X162548096Y-104708571D01*
X162595715Y-104803810D01*
X162595715Y-105041905D01*
X162548096Y-105137143D01*
X162500477Y-105184762D01*
X162405239Y-105232381D01*
X162119524Y-105232381D01*
X162024286Y-105184762D01*
X161976667Y-105137143D01*
X164413334Y-101412381D02*
X164080000Y-100936190D01*
X163841905Y-101412381D02*
X163841905Y-100412381D01*
X164222858Y-100412381D01*
X164318096Y-100460000D01*
X164365715Y-100507619D01*
X164413334Y-100602857D01*
X164413334Y-100745714D01*
X164365715Y-100840952D01*
X164318096Y-100888571D01*
X164222858Y-100936190D01*
X163841905Y-100936190D01*
X165270477Y-100745714D02*
X165270477Y-101412381D01*
X165032381Y-100364762D02*
X164794286Y-101079048D01*
X165413334Y-101079048D01*
X161643334Y-109042381D02*
X161310000Y-108566190D01*
X161071905Y-109042381D02*
X161071905Y-108042381D01*
X161452858Y-108042381D01*
X161548096Y-108090000D01*
X161595715Y-108137619D01*
X161643334Y-108232857D01*
X161643334Y-108375714D01*
X161595715Y-108470952D01*
X161548096Y-108518571D01*
X161452858Y-108566190D01*
X161071905Y-108566190D01*
X162548096Y-108042381D02*
X162071905Y-108042381D01*
X162024286Y-108518571D01*
X162071905Y-108470952D01*
X162167143Y-108423333D01*
X162405239Y-108423333D01*
X162500477Y-108470952D01*
X162548096Y-108518571D01*
X162595715Y-108613810D01*
X162595715Y-108851905D01*
X162548096Y-108947143D01*
X162500477Y-108994762D01*
X162405239Y-109042381D01*
X162167143Y-109042381D01*
X162071905Y-108994762D01*
X162024286Y-108947143D01*
X165683334Y-107772381D02*
X165350000Y-107296190D01*
X165111905Y-107772381D02*
X165111905Y-106772381D01*
X165492858Y-106772381D01*
X165588096Y-106820000D01*
X165635715Y-106867619D01*
X165683334Y-106962857D01*
X165683334Y-107105714D01*
X165635715Y-107200952D01*
X165588096Y-107248571D01*
X165492858Y-107296190D01*
X165111905Y-107296190D01*
X166540477Y-106772381D02*
X166350000Y-106772381D01*
X166254762Y-106820000D01*
X166207143Y-106867619D01*
X166111905Y-107010476D01*
X166064286Y-107200952D01*
X166064286Y-107581905D01*
X166111905Y-107677143D01*
X166159524Y-107724762D01*
X166254762Y-107772381D01*
X166445239Y-107772381D01*
X166540477Y-107724762D01*
X166588096Y-107677143D01*
X166635715Y-107581905D01*
X166635715Y-107343810D01*
X166588096Y-107248571D01*
X166540477Y-107200952D01*
X166445239Y-107153333D01*
X166254762Y-107153333D01*
X166159524Y-107200952D01*
X166111905Y-107248571D01*
X166064286Y-107343810D01*
X167452381Y-94146666D02*
X166976190Y-94480000D01*
X167452381Y-94718095D02*
X166452381Y-94718095D01*
X166452381Y-94337142D01*
X166500000Y-94241904D01*
X166547619Y-94194285D01*
X166642857Y-94146666D01*
X166785714Y-94146666D01*
X166880952Y-94194285D01*
X166928571Y-94241904D01*
X166976190Y-94337142D01*
X166976190Y-94718095D01*
X166452381Y-93813333D02*
X166452381Y-93146666D01*
X167452381Y-93575238D01*
X150963334Y-107772381D02*
X150630000Y-107296190D01*
X150391905Y-107772381D02*
X150391905Y-106772381D01*
X150772858Y-106772381D01*
X150868096Y-106820000D01*
X150915715Y-106867619D01*
X150963334Y-106962857D01*
X150963334Y-107105714D01*
X150915715Y-107200952D01*
X150868096Y-107248571D01*
X150772858Y-107296190D01*
X150391905Y-107296190D01*
X151534762Y-107200952D02*
X151439524Y-107153333D01*
X151391905Y-107105714D01*
X151344286Y-107010476D01*
X151344286Y-106962857D01*
X151391905Y-106867619D01*
X151439524Y-106820000D01*
X151534762Y-106772381D01*
X151725239Y-106772381D01*
X151820477Y-106820000D01*
X151868096Y-106867619D01*
X151915715Y-106962857D01*
X151915715Y-107010476D01*
X151868096Y-107105714D01*
X151820477Y-107153333D01*
X151725239Y-107200952D01*
X151534762Y-107200952D01*
X151439524Y-107248571D01*
X151391905Y-107296190D01*
X151344286Y-107391429D01*
X151344286Y-107581905D01*
X151391905Y-107677143D01*
X151439524Y-107724762D01*
X151534762Y-107772381D01*
X151725239Y-107772381D01*
X151820477Y-107724762D01*
X151868096Y-107677143D01*
X151915715Y-107581905D01*
X151915715Y-107391429D01*
X151868096Y-107296190D01*
X151820477Y-107248571D01*
X151725239Y-107200952D01*
X151638095Y-104382381D02*
X151638095Y-105191905D01*
X151685714Y-105287143D01*
X151733333Y-105334762D01*
X151828571Y-105382381D01*
X152019048Y-105382381D01*
X152114286Y-105334762D01*
X152161905Y-105287143D01*
X152209524Y-105191905D01*
X152209524Y-104382381D01*
X153209524Y-105382381D02*
X152638095Y-105382381D01*
X152923809Y-105382381D02*
X152923809Y-104382381D01*
X152828571Y-104525238D01*
X152733333Y-104620476D01*
X152638095Y-104668095D01*
X177038095Y-95337381D02*
X177038095Y-96146905D01*
X177085714Y-96242143D01*
X177133333Y-96289762D01*
X177228571Y-96337381D01*
X177419048Y-96337381D01*
X177514286Y-96289762D01*
X177561905Y-96242143D01*
X177609524Y-96146905D01*
X177609524Y-95337381D01*
X178038095Y-95432619D02*
X178085714Y-95385000D01*
X178180952Y-95337381D01*
X178419048Y-95337381D01*
X178514286Y-95385000D01*
X178561905Y-95432619D01*
X178609524Y-95527857D01*
X178609524Y-95623095D01*
X178561905Y-95765952D01*
X177990476Y-96337381D01*
X178609524Y-96337381D01*
M02*
