M48
;DRILL file {KiCad 4.0.0-rc1-stable} date 12/2/2015 8:58:01 PM
;FORMAT={-:-/ absolute / inch / decimal}
FMAT,2
INCH,TZ
T1C0.016
T2C0.035
%
G90
G05
M72
T1
X5.16Y-4.68
X5.3677Y-4.2846
X5.3678Y-4.38
X5.39Y-4.26
X5.41Y-4.55
X5.42Y-4.7331
X5.4594Y-4.7085
X5.53Y-4.4059
X5.54Y-4.24
X5.5546Y-4.51
X5.5909Y-4.3295
X5.6Y-4.69
X5.6385Y-4.53
X5.67Y-4.53
X5.7Y-4.7354
X5.7532Y-4.56
X5.76Y-4.61
X5.7704Y-4.31
X5.78Y-4.47
X5.808Y-4.451
X5.82Y-4.31
X5.83Y-4.68
X5.8412Y-4.3787
X5.8719Y-4.4219
X5.89Y-4.2218
X5.89Y-4.4646
X5.89Y-4.76
X5.9Y-4.27
X5.9Y-4.5
T2
X5.1977Y-4.3934
X5.1977Y-4.5666
T0
M30
