G04 #@! TF.FileFunction,Legend,Top*
%FSLAX46Y46*%
G04 Gerber Fmt 4.6, Leading zero omitted, Abs format (unit mm)*
G04 Created by KiCad (PCBNEW 4.0.0-rc1-stable) date 12/2/2015 8:57:58 PM*
%MOMM*%
G01*
G04 APERTURE LIST*
%ADD10C,0.100000*%
%ADD11C,0.150000*%
G04 APERTURE END LIST*
D10*
D11*
X138346000Y-107858000D02*
X139046000Y-107858000D01*
X139046000Y-109058000D02*
X138346000Y-109058000D01*
X140300000Y-117772000D02*
X140300000Y-118472000D01*
X139100000Y-118472000D02*
X139100000Y-117772000D01*
X137322000Y-118460000D02*
X137322000Y-117760000D01*
X138522000Y-117760000D02*
X138522000Y-118460000D01*
X143656000Y-115986000D02*
X144356000Y-115986000D01*
X144356000Y-117186000D02*
X143656000Y-117186000D01*
X138588000Y-114462000D02*
X139288000Y-114462000D01*
X139288000Y-115662000D02*
X138588000Y-115662000D01*
X148752000Y-110586000D02*
X148752000Y-109886000D01*
X149952000Y-109886000D02*
X149952000Y-110586000D01*
X149190000Y-114204000D02*
X149190000Y-114904000D01*
X147990000Y-114904000D02*
X147990000Y-114204000D01*
X140728000Y-115240000D02*
X140728000Y-117940000D01*
X142228000Y-115240000D02*
X142228000Y-117940000D01*
X141328000Y-116740000D02*
X141578000Y-116740000D01*
X141578000Y-116740000D02*
X141428000Y-116590000D01*
X141828000Y-116490000D02*
X141128000Y-116490000D01*
X141478000Y-116840000D02*
X141478000Y-117190000D01*
X141478000Y-116490000D02*
X141828000Y-116840000D01*
X141828000Y-116840000D02*
X141128000Y-116840000D01*
X141128000Y-116840000D02*
X141478000Y-116490000D01*
X144483020Y-119368000D02*
X147183020Y-119368000D01*
X144483020Y-117868000D02*
X147183020Y-117868000D01*
X145983020Y-118768000D02*
X145983020Y-118518000D01*
X145983020Y-118518000D02*
X145833020Y-118668000D01*
X145733020Y-118268000D02*
X145733020Y-118968000D01*
X146083020Y-118618000D02*
X146433020Y-118618000D01*
X145733020Y-118618000D02*
X146083020Y-118268000D01*
X146083020Y-118268000D02*
X146083020Y-118968000D01*
X146083020Y-118968000D02*
X145733020Y-118618000D01*
X141720000Y-111361020D02*
X141720000Y-108661020D01*
X140220000Y-111361020D02*
X140220000Y-108661020D01*
X141120000Y-109861020D02*
X140870000Y-109861020D01*
X140870000Y-109861020D02*
X141020000Y-110011020D01*
X140620000Y-110111020D02*
X141320000Y-110111020D01*
X140970000Y-109761020D02*
X140970000Y-109411020D01*
X140970000Y-110111020D02*
X140620000Y-109761020D01*
X140620000Y-109761020D02*
X141320000Y-109761020D01*
X141320000Y-109761020D02*
X140970000Y-110111020D01*
X138184000Y-112355000D02*
X139184000Y-112355000D01*
X139184000Y-113705000D02*
X138184000Y-113705000D01*
X127571500Y-109941360D02*
X127571500Y-117642640D01*
X126570740Y-109941360D02*
X126570740Y-117642640D01*
X126570740Y-117642640D02*
X135770620Y-117642640D01*
X135770620Y-117642640D02*
X135770620Y-109941360D01*
X135770620Y-109941360D02*
X126570740Y-109941360D01*
X147067000Y-113519000D02*
X146292000Y-113519000D01*
X142767000Y-109219000D02*
X143542000Y-109219000D01*
X142767000Y-113519000D02*
X143542000Y-113519000D01*
X147067000Y-109219000D02*
X147067000Y-109994000D01*
X142767000Y-109219000D02*
X142767000Y-109994000D01*
X142767000Y-113519000D02*
X142767000Y-112744000D01*
X147067000Y-113519000D02*
X147067000Y-112744000D01*
X138529334Y-106915143D02*
X138481715Y-106962762D01*
X138338858Y-107010381D01*
X138243620Y-107010381D01*
X138100762Y-106962762D01*
X138005524Y-106867524D01*
X137957905Y-106772286D01*
X137910286Y-106581810D01*
X137910286Y-106438952D01*
X137957905Y-106248476D01*
X138005524Y-106153238D01*
X138100762Y-106058000D01*
X138243620Y-106010381D01*
X138338858Y-106010381D01*
X138481715Y-106058000D01*
X138529334Y-106105619D01*
X139434096Y-106010381D02*
X138957905Y-106010381D01*
X138910286Y-106486571D01*
X138957905Y-106438952D01*
X139053143Y-106391333D01*
X139291239Y-106391333D01*
X139386477Y-106438952D01*
X139434096Y-106486571D01*
X139481715Y-106581810D01*
X139481715Y-106819905D01*
X139434096Y-106915143D01*
X139386477Y-106962762D01*
X139291239Y-107010381D01*
X139053143Y-107010381D01*
X138957905Y-106962762D01*
X138910286Y-106915143D01*
X141957143Y-118288666D02*
X142004762Y-118336285D01*
X142052381Y-118479142D01*
X142052381Y-118574380D01*
X142004762Y-118717238D01*
X141909524Y-118812476D01*
X141814286Y-118860095D01*
X141623810Y-118907714D01*
X141480952Y-118907714D01*
X141290476Y-118860095D01*
X141195238Y-118812476D01*
X141100000Y-118717238D01*
X141052381Y-118574380D01*
X141052381Y-118479142D01*
X141100000Y-118336285D01*
X141147619Y-118288666D01*
X142052381Y-117336285D02*
X142052381Y-117907714D01*
X142052381Y-117622000D02*
X141052381Y-117622000D01*
X141195238Y-117717238D01*
X141290476Y-117812476D01*
X141338095Y-117907714D01*
X136379143Y-118276666D02*
X136426762Y-118324285D01*
X136474381Y-118467142D01*
X136474381Y-118562380D01*
X136426762Y-118705238D01*
X136331524Y-118800476D01*
X136236286Y-118848095D01*
X136045810Y-118895714D01*
X135902952Y-118895714D01*
X135712476Y-118848095D01*
X135617238Y-118800476D01*
X135522000Y-118705238D01*
X135474381Y-118562380D01*
X135474381Y-118467142D01*
X135522000Y-118324285D01*
X135569619Y-118276666D01*
X135569619Y-117895714D02*
X135522000Y-117848095D01*
X135474381Y-117752857D01*
X135474381Y-117514761D01*
X135522000Y-117419523D01*
X135569619Y-117371904D01*
X135664857Y-117324285D01*
X135760095Y-117324285D01*
X135902952Y-117371904D01*
X136474381Y-117943333D01*
X136474381Y-117324285D01*
X143839334Y-115043143D02*
X143791715Y-115090762D01*
X143648858Y-115138381D01*
X143553620Y-115138381D01*
X143410762Y-115090762D01*
X143315524Y-114995524D01*
X143267905Y-114900286D01*
X143220286Y-114709810D01*
X143220286Y-114566952D01*
X143267905Y-114376476D01*
X143315524Y-114281238D01*
X143410762Y-114186000D01*
X143553620Y-114138381D01*
X143648858Y-114138381D01*
X143791715Y-114186000D01*
X143839334Y-114233619D01*
X144172667Y-114138381D02*
X144791715Y-114138381D01*
X144458381Y-114519333D01*
X144601239Y-114519333D01*
X144696477Y-114566952D01*
X144744096Y-114614571D01*
X144791715Y-114709810D01*
X144791715Y-114947905D01*
X144744096Y-115043143D01*
X144696477Y-115090762D01*
X144601239Y-115138381D01*
X144315524Y-115138381D01*
X144220286Y-115090762D01*
X144172667Y-115043143D01*
X138771334Y-113519143D02*
X138723715Y-113566762D01*
X138580858Y-113614381D01*
X138485620Y-113614381D01*
X138342762Y-113566762D01*
X138247524Y-113471524D01*
X138199905Y-113376286D01*
X138152286Y-113185810D01*
X138152286Y-113042952D01*
X138199905Y-112852476D01*
X138247524Y-112757238D01*
X138342762Y-112662000D01*
X138485620Y-112614381D01*
X138580858Y-112614381D01*
X138723715Y-112662000D01*
X138771334Y-112709619D01*
X139628477Y-112947714D02*
X139628477Y-113614381D01*
X139390381Y-112566762D02*
X139152286Y-113281048D01*
X139771334Y-113281048D01*
X147809143Y-110402666D02*
X147856762Y-110450285D01*
X147904381Y-110593142D01*
X147904381Y-110688380D01*
X147856762Y-110831238D01*
X147761524Y-110926476D01*
X147666286Y-110974095D01*
X147475810Y-111021714D01*
X147332952Y-111021714D01*
X147142476Y-110974095D01*
X147047238Y-110926476D01*
X146952000Y-110831238D01*
X146904381Y-110688380D01*
X146904381Y-110593142D01*
X146952000Y-110450285D01*
X146999619Y-110402666D01*
X146904381Y-109545523D02*
X146904381Y-109736000D01*
X146952000Y-109831238D01*
X146999619Y-109878857D01*
X147142476Y-109974095D01*
X147332952Y-110021714D01*
X147713905Y-110021714D01*
X147809143Y-109974095D01*
X147856762Y-109926476D01*
X147904381Y-109831238D01*
X147904381Y-109640761D01*
X147856762Y-109545523D01*
X147809143Y-109497904D01*
X147713905Y-109450285D01*
X147475810Y-109450285D01*
X147380571Y-109497904D01*
X147332952Y-109545523D01*
X147285333Y-109640761D01*
X147285333Y-109831238D01*
X147332952Y-109926476D01*
X147380571Y-109974095D01*
X147475810Y-110021714D01*
X150847143Y-114720666D02*
X150894762Y-114768285D01*
X150942381Y-114911142D01*
X150942381Y-115006380D01*
X150894762Y-115149238D01*
X150799524Y-115244476D01*
X150704286Y-115292095D01*
X150513810Y-115339714D01*
X150370952Y-115339714D01*
X150180476Y-115292095D01*
X150085238Y-115244476D01*
X149990000Y-115149238D01*
X149942381Y-115006380D01*
X149942381Y-114911142D01*
X149990000Y-114768285D01*
X150037619Y-114720666D01*
X149942381Y-114387333D02*
X149942381Y-113720666D01*
X150942381Y-114149238D01*
X143680381Y-117578095D02*
X142680381Y-117578095D01*
X142680381Y-117340000D01*
X142728000Y-117197142D01*
X142823238Y-117101904D01*
X142918476Y-117054285D01*
X143108952Y-117006666D01*
X143251810Y-117006666D01*
X143442286Y-117054285D01*
X143537524Y-117101904D01*
X143632762Y-117197142D01*
X143680381Y-117340000D01*
X143680381Y-117578095D01*
X143680381Y-116054285D02*
X143680381Y-116625714D01*
X143680381Y-116340000D02*
X142680381Y-116340000D01*
X142823238Y-116435238D01*
X142918476Y-116530476D01*
X142966095Y-116625714D01*
X145344925Y-117320381D02*
X145344925Y-116320381D01*
X145583020Y-116320381D01*
X145725878Y-116368000D01*
X145821116Y-116463238D01*
X145868735Y-116558476D01*
X145916354Y-116748952D01*
X145916354Y-116891810D01*
X145868735Y-117082286D01*
X145821116Y-117177524D01*
X145725878Y-117272762D01*
X145583020Y-117320381D01*
X145344925Y-117320381D01*
X146297306Y-116415619D02*
X146344925Y-116368000D01*
X146440163Y-116320381D01*
X146678259Y-116320381D01*
X146773497Y-116368000D01*
X146821116Y-116415619D01*
X146868735Y-116510857D01*
X146868735Y-116606095D01*
X146821116Y-116748952D01*
X146249687Y-117320381D01*
X146868735Y-117320381D01*
X139672381Y-110499115D02*
X138672381Y-110499115D01*
X138672381Y-110261020D01*
X138720000Y-110118162D01*
X138815238Y-110022924D01*
X138910476Y-109975305D01*
X139100952Y-109927686D01*
X139243810Y-109927686D01*
X139434286Y-109975305D01*
X139529524Y-110022924D01*
X139624762Y-110118162D01*
X139672381Y-110261020D01*
X139672381Y-110499115D01*
X138672381Y-109594353D02*
X138672381Y-108975305D01*
X139053333Y-109308639D01*
X139053333Y-109165781D01*
X139100952Y-109070543D01*
X139148571Y-109022924D01*
X139243810Y-108975305D01*
X139481905Y-108975305D01*
X139577143Y-109022924D01*
X139624762Y-109070543D01*
X139672381Y-109165781D01*
X139672381Y-109451496D01*
X139624762Y-109546734D01*
X139577143Y-109594353D01*
X138517334Y-115382381D02*
X138041143Y-115382381D01*
X138041143Y-114382381D01*
X139374477Y-115382381D02*
X138803048Y-115382381D01*
X139088762Y-115382381D02*
X139088762Y-114382381D01*
X138993524Y-114525238D01*
X138898286Y-114620476D01*
X138803048Y-114668095D01*
X126622585Y-120599461D02*
X126622585Y-119599461D01*
X127003538Y-119599461D01*
X127098776Y-119647080D01*
X127146395Y-119694699D01*
X127194014Y-119789937D01*
X127194014Y-119932794D01*
X127146395Y-120028032D01*
X127098776Y-120075651D01*
X127003538Y-120123270D01*
X126622585Y-120123270D01*
X128146395Y-120599461D02*
X127574966Y-120599461D01*
X127860680Y-120599461D02*
X127860680Y-119599461D01*
X127765442Y-119742318D01*
X127670204Y-119837556D01*
X127574966Y-119885175D01*
X147699381Y-112130905D02*
X148508905Y-112130905D01*
X148604143Y-112083286D01*
X148651762Y-112035667D01*
X148699381Y-111940429D01*
X148699381Y-111749952D01*
X148651762Y-111654714D01*
X148604143Y-111607095D01*
X148508905Y-111559476D01*
X147699381Y-111559476D01*
X148699381Y-110559476D02*
X148699381Y-111130905D01*
X148699381Y-110845191D02*
X147699381Y-110845191D01*
X147842238Y-110940429D01*
X147937476Y-111035667D01*
X147985095Y-111130905D01*
M02*
