G04 #@! TF.FileFunction,Legend,Bot*
%FSLAX46Y46*%
G04 Gerber Fmt 4.6, Leading zero omitted, Abs format (unit mm)*
G04 Created by KiCad (PCBNEW 4.0.0-rc1-stable) date 12/22/2015 11:03:48 PM*
%MOMM*%
G01*
G04 APERTURE LIST*
%ADD10C,0.100000*%
G04 APERTURE END LIST*
D10*
X102600095Y-105949619D02*
X102600095Y-106949619D01*
X103171524Y-105949619D02*
X102742952Y-106521048D01*
X103171524Y-106949619D02*
X102600095Y-106378190D01*
X103981048Y-105997238D02*
X103885810Y-105949619D01*
X103695333Y-105949619D01*
X103600095Y-105997238D01*
X103552476Y-106092476D01*
X103552476Y-106473429D01*
X103600095Y-106568667D01*
X103695333Y-106616286D01*
X103885810Y-106616286D01*
X103981048Y-106568667D01*
X104028667Y-106473429D01*
X104028667Y-106378190D01*
X103552476Y-106282952D01*
X104362000Y-106616286D02*
X104600095Y-105949619D01*
X104838191Y-106616286D01*
X105219143Y-105949619D02*
X105219143Y-106616286D01*
X105219143Y-106949619D02*
X105171524Y-106902000D01*
X105219143Y-106854381D01*
X105266762Y-106902000D01*
X105219143Y-106949619D01*
X105219143Y-106854381D01*
X105695333Y-106616286D02*
X105695333Y-105949619D01*
X105695333Y-106521048D02*
X105742952Y-106568667D01*
X105838190Y-106616286D01*
X105981048Y-106616286D01*
X106076286Y-106568667D01*
X106123905Y-106473429D01*
X106123905Y-105949619D01*
X102600095Y-105449619D02*
X102600095Y-104640095D01*
X102647714Y-104544857D01*
X102695333Y-104497238D01*
X102790571Y-104449619D01*
X102981048Y-104449619D01*
X103076286Y-104497238D01*
X103123905Y-104544857D01*
X103171524Y-104640095D01*
X103171524Y-105449619D01*
X103600095Y-104497238D02*
X103742952Y-104449619D01*
X103981048Y-104449619D01*
X104076286Y-104497238D01*
X104123905Y-104544857D01*
X104171524Y-104640095D01*
X104171524Y-104735333D01*
X104123905Y-104830571D01*
X104076286Y-104878190D01*
X103981048Y-104925810D01*
X103790571Y-104973429D01*
X103695333Y-105021048D01*
X103647714Y-105068667D01*
X103600095Y-105163905D01*
X103600095Y-105259143D01*
X103647714Y-105354381D01*
X103695333Y-105402000D01*
X103790571Y-105449619D01*
X104028667Y-105449619D01*
X104171524Y-105402000D01*
X104933429Y-104973429D02*
X105076286Y-104925810D01*
X105123905Y-104878190D01*
X105171524Y-104782952D01*
X105171524Y-104640095D01*
X105123905Y-104544857D01*
X105076286Y-104497238D01*
X104981048Y-104449619D01*
X104600095Y-104449619D01*
X104600095Y-105449619D01*
X104933429Y-105449619D01*
X105028667Y-105402000D01*
X105076286Y-105354381D01*
X105123905Y-105259143D01*
X105123905Y-105163905D01*
X105076286Y-105068667D01*
X105028667Y-105021048D01*
X104933429Y-104973429D01*
X104600095Y-104973429D01*
X106219143Y-105116286D02*
X106600095Y-105116286D01*
X106362000Y-105449619D02*
X106362000Y-104592476D01*
X106409619Y-104497238D01*
X106504857Y-104449619D01*
X106600095Y-104449619D01*
X107076286Y-104449619D02*
X106981048Y-104497238D01*
X106933429Y-104544857D01*
X106885810Y-104640095D01*
X106885810Y-104925810D01*
X106933429Y-105021048D01*
X106981048Y-105068667D01*
X107076286Y-105116286D01*
X107219144Y-105116286D01*
X107314382Y-105068667D01*
X107362001Y-105021048D01*
X107409620Y-104925810D01*
X107409620Y-104640095D01*
X107362001Y-104544857D01*
X107314382Y-104497238D01*
X107219144Y-104449619D01*
X107076286Y-104449619D01*
X108552477Y-104497238D02*
X108647715Y-104449619D01*
X108838191Y-104449619D01*
X108933430Y-104497238D01*
X108981049Y-104592476D01*
X108981049Y-104640095D01*
X108933430Y-104735333D01*
X108838191Y-104782952D01*
X108695334Y-104782952D01*
X108600096Y-104830571D01*
X108552477Y-104925810D01*
X108552477Y-104973429D01*
X108600096Y-105068667D01*
X108695334Y-105116286D01*
X108838191Y-105116286D01*
X108933430Y-105068667D01*
X109790573Y-104497238D02*
X109695335Y-104449619D01*
X109504858Y-104449619D01*
X109409620Y-104497238D01*
X109362001Y-104592476D01*
X109362001Y-104973429D01*
X109409620Y-105068667D01*
X109504858Y-105116286D01*
X109695335Y-105116286D01*
X109790573Y-105068667D01*
X109838192Y-104973429D01*
X109838192Y-104878190D01*
X109362001Y-104782952D01*
X110266763Y-104449619D02*
X110266763Y-105116286D01*
X110266763Y-104925810D02*
X110314382Y-105021048D01*
X110362001Y-105068667D01*
X110457239Y-105116286D01*
X110552478Y-105116286D01*
X110885811Y-104449619D02*
X110885811Y-105116286D01*
X110885811Y-105449619D02*
X110838192Y-105402000D01*
X110885811Y-105354381D01*
X110933430Y-105402000D01*
X110885811Y-105449619D01*
X110885811Y-105354381D01*
X111790573Y-104449619D02*
X111790573Y-104973429D01*
X111742954Y-105068667D01*
X111647716Y-105116286D01*
X111457239Y-105116286D01*
X111362001Y-105068667D01*
X111790573Y-104497238D02*
X111695335Y-104449619D01*
X111457239Y-104449619D01*
X111362001Y-104497238D01*
X111314382Y-104592476D01*
X111314382Y-104687714D01*
X111362001Y-104782952D01*
X111457239Y-104830571D01*
X111695335Y-104830571D01*
X111790573Y-104878190D01*
X112409620Y-104449619D02*
X112314382Y-104497238D01*
X112266763Y-104592476D01*
X112266763Y-105449619D01*
X102790571Y-103949619D02*
X102981048Y-103949619D01*
X103076286Y-103902000D01*
X103171524Y-103806762D01*
X103219143Y-103616286D01*
X103219143Y-103282952D01*
X103171524Y-103092476D01*
X103076286Y-102997238D01*
X102981048Y-102949619D01*
X102790571Y-102949619D01*
X102695333Y-102997238D01*
X102600095Y-103092476D01*
X102552476Y-103282952D01*
X102552476Y-103616286D01*
X102600095Y-103806762D01*
X102695333Y-103902000D01*
X102790571Y-103949619D01*
X103647714Y-103616286D02*
X103647714Y-102616286D01*
X103647714Y-103568667D02*
X103742952Y-103616286D01*
X103933429Y-103616286D01*
X104028667Y-103568667D01*
X104076286Y-103521048D01*
X104123905Y-103425810D01*
X104123905Y-103140095D01*
X104076286Y-103044857D01*
X104028667Y-102997238D01*
X103933429Y-102949619D01*
X103742952Y-102949619D01*
X103647714Y-102997238D01*
X104933429Y-102997238D02*
X104838191Y-102949619D01*
X104647714Y-102949619D01*
X104552476Y-102997238D01*
X104504857Y-103092476D01*
X104504857Y-103473429D01*
X104552476Y-103568667D01*
X104647714Y-103616286D01*
X104838191Y-103616286D01*
X104933429Y-103568667D01*
X104981048Y-103473429D01*
X104981048Y-103378190D01*
X104504857Y-103282952D01*
X105409619Y-103616286D02*
X105409619Y-102949619D01*
X105409619Y-103521048D02*
X105457238Y-103568667D01*
X105552476Y-103616286D01*
X105695334Y-103616286D01*
X105790572Y-103568667D01*
X105838191Y-103473429D01*
X105838191Y-102949619D01*
X107647715Y-102949619D02*
X107314381Y-103425810D01*
X107076286Y-102949619D02*
X107076286Y-103949619D01*
X107457239Y-103949619D01*
X107552477Y-103902000D01*
X107600096Y-103854381D01*
X107647715Y-103759143D01*
X107647715Y-103616286D01*
X107600096Y-103521048D01*
X107552477Y-103473429D01*
X107457239Y-103425810D01*
X107076286Y-103425810D01*
X108219143Y-102949619D02*
X108123905Y-102997238D01*
X108076286Y-103044857D01*
X108028667Y-103140095D01*
X108028667Y-103425810D01*
X108076286Y-103521048D01*
X108123905Y-103568667D01*
X108219143Y-103616286D01*
X108362001Y-103616286D01*
X108457239Y-103568667D01*
X108504858Y-103521048D01*
X108552477Y-103425810D01*
X108552477Y-103140095D01*
X108504858Y-103044857D01*
X108457239Y-102997238D01*
X108362001Y-102949619D01*
X108219143Y-102949619D01*
X108981048Y-102949619D02*
X108981048Y-103949619D01*
X108981048Y-103568667D02*
X109076286Y-103616286D01*
X109266763Y-103616286D01*
X109362001Y-103568667D01*
X109409620Y-103521048D01*
X109457239Y-103425810D01*
X109457239Y-103140095D01*
X109409620Y-103044857D01*
X109362001Y-102997238D01*
X109266763Y-102949619D01*
X109076286Y-102949619D01*
X108981048Y-102997238D01*
X110028667Y-102949619D02*
X109933429Y-102997238D01*
X109885810Y-103044857D01*
X109838191Y-103140095D01*
X109838191Y-103425810D01*
X109885810Y-103521048D01*
X109933429Y-103568667D01*
X110028667Y-103616286D01*
X110171525Y-103616286D01*
X110266763Y-103568667D01*
X110314382Y-103521048D01*
X110362001Y-103425810D01*
X110362001Y-103140095D01*
X110314382Y-103044857D01*
X110266763Y-102997238D01*
X110171525Y-102949619D01*
X110028667Y-102949619D01*
X110647715Y-103616286D02*
X111028667Y-103616286D01*
X110790572Y-103949619D02*
X110790572Y-103092476D01*
X110838191Y-102997238D01*
X110933429Y-102949619D01*
X111028667Y-102949619D01*
X111362001Y-102949619D02*
X111362001Y-103616286D01*
X111362001Y-103949619D02*
X111314382Y-103902000D01*
X111362001Y-103854381D01*
X111409620Y-103902000D01*
X111362001Y-103949619D01*
X111362001Y-103854381D01*
X112266763Y-102997238D02*
X112171525Y-102949619D01*
X111981048Y-102949619D01*
X111885810Y-102997238D01*
X111838191Y-103044857D01*
X111790572Y-103140095D01*
X111790572Y-103425810D01*
X111838191Y-103521048D01*
X111885810Y-103568667D01*
X111981048Y-103616286D01*
X112171525Y-103616286D01*
X112266763Y-103568667D01*
X112647715Y-102997238D02*
X112742953Y-102949619D01*
X112933429Y-102949619D01*
X113028668Y-102997238D01*
X113076287Y-103092476D01*
X113076287Y-103140095D01*
X113028668Y-103235333D01*
X112933429Y-103282952D01*
X112790572Y-103282952D01*
X112695334Y-103330571D01*
X112647715Y-103425810D01*
X112647715Y-103473429D01*
X112695334Y-103568667D01*
X112790572Y-103616286D01*
X112933429Y-103616286D01*
X113028668Y-103568667D01*
M02*
