G04 #@! TF.FileFunction,Legend,Top*
%FSLAX46Y46*%
G04 Gerber Fmt 4.6, Leading zero omitted, Abs format (unit mm)*
G04 Created by KiCad (PCBNEW 4.0.0-rc1-stable) date 12/22/2015 11:03:48 PM*
%MOMM*%
G01*
G04 APERTURE LIST*
%ADD10C,0.100000*%
%ADD11C,0.150000*%
G04 APERTURE END LIST*
D10*
D11*
X101673660Y-110327440D02*
X101673660Y-118028720D01*
X100672900Y-110327440D02*
X100672900Y-118028720D01*
X100672900Y-118028720D02*
X109872780Y-118028720D01*
X109872780Y-118028720D02*
X109872780Y-110327440D01*
X109872780Y-110327440D02*
X100672900Y-110327440D01*
X118473600Y-123632600D02*
X119473600Y-123632600D01*
X119473600Y-124982600D02*
X118473600Y-124982600D01*
X145856400Y-118688600D02*
X145856400Y-117988600D01*
X147056400Y-117988600D02*
X147056400Y-118688600D01*
X123440900Y-105621000D02*
X123440900Y-104921000D01*
X124640900Y-104921000D02*
X124640900Y-105621000D01*
X139049200Y-118726700D02*
X139049200Y-118026700D01*
X140249200Y-118026700D02*
X140249200Y-118726700D01*
X145856400Y-112541800D02*
X145856400Y-111841800D01*
X147056400Y-111841800D02*
X147056400Y-112541800D01*
X146881800Y-123644100D02*
X147581800Y-123644100D01*
X147581800Y-124844100D02*
X146881800Y-124844100D01*
X140925500Y-123542500D02*
X141625500Y-123542500D01*
X141625500Y-124742500D02*
X140925500Y-124742500D01*
X117516200Y-116909800D02*
X117516200Y-117609800D01*
X116316200Y-117609800D02*
X116316200Y-116909800D01*
X113360900Y-125127820D02*
X113360900Y-122427820D01*
X111860900Y-125127820D02*
X111860900Y-122427820D01*
X112760900Y-123627820D02*
X112510900Y-123627820D01*
X112510900Y-123627820D02*
X112660900Y-123777820D01*
X112260900Y-123877820D02*
X112960900Y-123877820D01*
X112610900Y-123527820D02*
X112610900Y-123177820D01*
X112610900Y-123877820D02*
X112260900Y-123527820D01*
X112260900Y-123527820D02*
X112960900Y-123527820D01*
X112960900Y-123527820D02*
X112610900Y-123877820D01*
X109906500Y-125204020D02*
X109906500Y-122504020D01*
X108406500Y-125204020D02*
X108406500Y-122504020D01*
X109306500Y-123704020D02*
X109056500Y-123704020D01*
X109056500Y-123704020D02*
X109206500Y-123854020D01*
X108806500Y-123954020D02*
X109506500Y-123954020D01*
X109156500Y-123604020D02*
X109156500Y-123254020D01*
X109156500Y-123954020D02*
X108806500Y-123604020D01*
X108806500Y-123604020D02*
X109506500Y-123604020D01*
X109506500Y-123604020D02*
X109156500Y-123954020D01*
X104710800Y-121927820D02*
X104710800Y-124627820D01*
X106210800Y-121927820D02*
X106210800Y-124627820D01*
X105310800Y-123427820D02*
X105560800Y-123427820D01*
X105560800Y-123427820D02*
X105410800Y-123277820D01*
X105810800Y-123177820D02*
X105110800Y-123177820D01*
X105460800Y-123527820D02*
X105460800Y-123877820D01*
X105460800Y-123177820D02*
X105810800Y-123527820D01*
X105810800Y-123527820D02*
X105110800Y-123527820D01*
X105110800Y-123527820D02*
X105460800Y-123177820D01*
X133672200Y-124931800D02*
X132672200Y-124931800D01*
X132672200Y-123581800D02*
X133672200Y-123581800D01*
X140248000Y-111653700D02*
X140248000Y-112653700D01*
X138898000Y-112653700D02*
X138898000Y-111653700D01*
X126191900Y-124868300D02*
X125191900Y-124868300D01*
X125191900Y-123518300D02*
X126191900Y-123518300D01*
X117515000Y-110955200D02*
X117515000Y-111955200D01*
X116165000Y-111955200D02*
X116165000Y-110955200D01*
X116126900Y-105643300D02*
X116126900Y-104643300D01*
X117476900Y-104643300D02*
X117476900Y-105643300D01*
X124754000Y-116645500D02*
X124754000Y-117645500D01*
X123404000Y-117645500D02*
X123404000Y-116645500D01*
X123442100Y-112070200D02*
X123442100Y-111070200D01*
X124792100Y-111070200D02*
X124792100Y-112070200D01*
X132426900Y-104878500D02*
X131426900Y-104878500D01*
X131426900Y-103528500D02*
X132426900Y-103528500D01*
X132960000Y-111642000D02*
X132960000Y-112417000D01*
X128660000Y-115942000D02*
X128660000Y-115167000D01*
X132960000Y-115942000D02*
X132960000Y-115167000D01*
X128660000Y-111642000D02*
X129435000Y-111642000D01*
X128660000Y-115942000D02*
X129435000Y-115942000D01*
X132960000Y-115942000D02*
X132185000Y-115942000D01*
X132960000Y-111642000D02*
X132185000Y-111642000D01*
X104534745Y-121531641D02*
X104534745Y-120531641D01*
X104915698Y-120531641D01*
X105010936Y-120579260D01*
X105058555Y-120626879D01*
X105106174Y-120722117D01*
X105106174Y-120864974D01*
X105058555Y-120960212D01*
X105010936Y-121007831D01*
X104915698Y-121055450D01*
X104534745Y-121055450D01*
X106058555Y-121531641D02*
X105487126Y-121531641D01*
X105772840Y-121531641D02*
X105772840Y-120531641D01*
X105677602Y-120674498D01*
X105582364Y-120769736D01*
X105487126Y-120817355D01*
X118806934Y-126659981D02*
X118473600Y-126183790D01*
X118235505Y-126659981D02*
X118235505Y-125659981D01*
X118616458Y-125659981D01*
X118711696Y-125707600D01*
X118759315Y-125755219D01*
X118806934Y-125850457D01*
X118806934Y-125993314D01*
X118759315Y-126088552D01*
X118711696Y-126136171D01*
X118616458Y-126183790D01*
X118235505Y-126183790D01*
X119711696Y-125659981D02*
X119235505Y-125659981D01*
X119187886Y-126136171D01*
X119235505Y-126088552D01*
X119330743Y-126040933D01*
X119568839Y-126040933D01*
X119664077Y-126088552D01*
X119711696Y-126136171D01*
X119759315Y-126231410D01*
X119759315Y-126469505D01*
X119711696Y-126564743D01*
X119664077Y-126612362D01*
X119568839Y-126659981D01*
X119330743Y-126659981D01*
X119235505Y-126612362D01*
X119187886Y-126564743D01*
X144913543Y-118505266D02*
X144961162Y-118552885D01*
X145008781Y-118695742D01*
X145008781Y-118790980D01*
X144961162Y-118933838D01*
X144865924Y-119029076D01*
X144770686Y-119076695D01*
X144580210Y-119124314D01*
X144437352Y-119124314D01*
X144246876Y-119076695D01*
X144151638Y-119029076D01*
X144056400Y-118933838D01*
X144008781Y-118790980D01*
X144008781Y-118695742D01*
X144056400Y-118552885D01*
X144104019Y-118505266D01*
X145008781Y-117552885D02*
X145008781Y-118124314D01*
X145008781Y-117838600D02*
X144008781Y-117838600D01*
X144151638Y-117933838D01*
X144246876Y-118029076D01*
X144294495Y-118124314D01*
X122498043Y-105437666D02*
X122545662Y-105485285D01*
X122593281Y-105628142D01*
X122593281Y-105723380D01*
X122545662Y-105866238D01*
X122450424Y-105961476D01*
X122355186Y-106009095D01*
X122164710Y-106056714D01*
X122021852Y-106056714D01*
X121831376Y-106009095D01*
X121736138Y-105961476D01*
X121640900Y-105866238D01*
X121593281Y-105723380D01*
X121593281Y-105628142D01*
X121640900Y-105485285D01*
X121688519Y-105437666D01*
X121688519Y-105056714D02*
X121640900Y-105009095D01*
X121593281Y-104913857D01*
X121593281Y-104675761D01*
X121640900Y-104580523D01*
X121688519Y-104532904D01*
X121783757Y-104485285D01*
X121878995Y-104485285D01*
X122021852Y-104532904D01*
X122593281Y-105104333D01*
X122593281Y-104485285D01*
X138106343Y-118543366D02*
X138153962Y-118590985D01*
X138201581Y-118733842D01*
X138201581Y-118829080D01*
X138153962Y-118971938D01*
X138058724Y-119067176D01*
X137963486Y-119114795D01*
X137773010Y-119162414D01*
X137630152Y-119162414D01*
X137439676Y-119114795D01*
X137344438Y-119067176D01*
X137249200Y-118971938D01*
X137201581Y-118829080D01*
X137201581Y-118733842D01*
X137249200Y-118590985D01*
X137296819Y-118543366D01*
X137201581Y-118210033D02*
X137201581Y-117590985D01*
X137582533Y-117924319D01*
X137582533Y-117781461D01*
X137630152Y-117686223D01*
X137677771Y-117638604D01*
X137773010Y-117590985D01*
X138011105Y-117590985D01*
X138106343Y-117638604D01*
X138153962Y-117686223D01*
X138201581Y-117781461D01*
X138201581Y-118067176D01*
X138153962Y-118162414D01*
X138106343Y-118210033D01*
X144913543Y-112358466D02*
X144961162Y-112406085D01*
X145008781Y-112548942D01*
X145008781Y-112644180D01*
X144961162Y-112787038D01*
X144865924Y-112882276D01*
X144770686Y-112929895D01*
X144580210Y-112977514D01*
X144437352Y-112977514D01*
X144246876Y-112929895D01*
X144151638Y-112882276D01*
X144056400Y-112787038D01*
X144008781Y-112644180D01*
X144008781Y-112548942D01*
X144056400Y-112406085D01*
X144104019Y-112358466D01*
X144342114Y-111501323D02*
X145008781Y-111501323D01*
X143961162Y-111739419D02*
X144675448Y-111977514D01*
X144675448Y-111358466D01*
X147065134Y-122701243D02*
X147017515Y-122748862D01*
X146874658Y-122796481D01*
X146779420Y-122796481D01*
X146636562Y-122748862D01*
X146541324Y-122653624D01*
X146493705Y-122558386D01*
X146446086Y-122367910D01*
X146446086Y-122225052D01*
X146493705Y-122034576D01*
X146541324Y-121939338D01*
X146636562Y-121844100D01*
X146779420Y-121796481D01*
X146874658Y-121796481D01*
X147017515Y-121844100D01*
X147065134Y-121891719D01*
X147969896Y-121796481D02*
X147493705Y-121796481D01*
X147446086Y-122272671D01*
X147493705Y-122225052D01*
X147588943Y-122177433D01*
X147827039Y-122177433D01*
X147922277Y-122225052D01*
X147969896Y-122272671D01*
X148017515Y-122367910D01*
X148017515Y-122606005D01*
X147969896Y-122701243D01*
X147922277Y-122748862D01*
X147827039Y-122796481D01*
X147588943Y-122796481D01*
X147493705Y-122748862D01*
X147446086Y-122701243D01*
X141108834Y-122599643D02*
X141061215Y-122647262D01*
X140918358Y-122694881D01*
X140823120Y-122694881D01*
X140680262Y-122647262D01*
X140585024Y-122552024D01*
X140537405Y-122456786D01*
X140489786Y-122266310D01*
X140489786Y-122123452D01*
X140537405Y-121932976D01*
X140585024Y-121837738D01*
X140680262Y-121742500D01*
X140823120Y-121694881D01*
X140918358Y-121694881D01*
X141061215Y-121742500D01*
X141108834Y-121790119D01*
X141965977Y-121694881D02*
X141775500Y-121694881D01*
X141680262Y-121742500D01*
X141632643Y-121790119D01*
X141537405Y-121932976D01*
X141489786Y-122123452D01*
X141489786Y-122504405D01*
X141537405Y-122599643D01*
X141585024Y-122647262D01*
X141680262Y-122694881D01*
X141870739Y-122694881D01*
X141965977Y-122647262D01*
X142013596Y-122599643D01*
X142061215Y-122504405D01*
X142061215Y-122266310D01*
X142013596Y-122171071D01*
X141965977Y-122123452D01*
X141870739Y-122075833D01*
X141680262Y-122075833D01*
X141585024Y-122123452D01*
X141537405Y-122171071D01*
X141489786Y-122266310D01*
X119173343Y-117426466D02*
X119220962Y-117474085D01*
X119268581Y-117616942D01*
X119268581Y-117712180D01*
X119220962Y-117855038D01*
X119125724Y-117950276D01*
X119030486Y-117997895D01*
X118840010Y-118045514D01*
X118697152Y-118045514D01*
X118506676Y-117997895D01*
X118411438Y-117950276D01*
X118316200Y-117855038D01*
X118268581Y-117712180D01*
X118268581Y-117616942D01*
X118316200Y-117474085D01*
X118363819Y-117426466D01*
X118268581Y-117093133D02*
X118268581Y-116426466D01*
X119268581Y-116855038D01*
X111313281Y-124265915D02*
X110313281Y-124265915D01*
X110313281Y-124027820D01*
X110360900Y-123884962D01*
X110456138Y-123789724D01*
X110551376Y-123742105D01*
X110741852Y-123694486D01*
X110884710Y-123694486D01*
X111075186Y-123742105D01*
X111170424Y-123789724D01*
X111265662Y-123884962D01*
X111313281Y-124027820D01*
X111313281Y-124265915D01*
X111313281Y-122742105D02*
X111313281Y-123313534D01*
X111313281Y-123027820D02*
X110313281Y-123027820D01*
X110456138Y-123123058D01*
X110551376Y-123218296D01*
X110598995Y-123313534D01*
X107858881Y-124342115D02*
X106858881Y-124342115D01*
X106858881Y-124104020D01*
X106906500Y-123961162D01*
X107001738Y-123865924D01*
X107096976Y-123818305D01*
X107287452Y-123770686D01*
X107430310Y-123770686D01*
X107620786Y-123818305D01*
X107716024Y-123865924D01*
X107811262Y-123961162D01*
X107858881Y-124104020D01*
X107858881Y-124342115D01*
X106954119Y-123389734D02*
X106906500Y-123342115D01*
X106858881Y-123246877D01*
X106858881Y-123008781D01*
X106906500Y-122913543D01*
X106954119Y-122865924D01*
X107049357Y-122818305D01*
X107144595Y-122818305D01*
X107287452Y-122865924D01*
X107858881Y-123437353D01*
X107858881Y-122818305D01*
X107663181Y-124265915D02*
X106663181Y-124265915D01*
X106663181Y-124027820D01*
X106710800Y-123884962D01*
X106806038Y-123789724D01*
X106901276Y-123742105D01*
X107091752Y-123694486D01*
X107234610Y-123694486D01*
X107425086Y-123742105D01*
X107520324Y-123789724D01*
X107615562Y-123884962D01*
X107663181Y-124027820D01*
X107663181Y-124265915D01*
X106663181Y-123361153D02*
X106663181Y-122742105D01*
X107044133Y-123075439D01*
X107044133Y-122932581D01*
X107091752Y-122837343D01*
X107139371Y-122789724D01*
X107234610Y-122742105D01*
X107472705Y-122742105D01*
X107567943Y-122789724D01*
X107615562Y-122837343D01*
X107663181Y-122932581D01*
X107663181Y-123218296D01*
X107615562Y-123313534D01*
X107567943Y-123361153D01*
X133005534Y-122809181D02*
X132529343Y-122809181D01*
X132529343Y-121809181D01*
X133862677Y-122809181D02*
X133291248Y-122809181D01*
X133576962Y-122809181D02*
X133576962Y-121809181D01*
X133481724Y-121952038D01*
X133386486Y-122047276D01*
X133291248Y-122094895D01*
X138125381Y-112320366D02*
X137649190Y-112653700D01*
X138125381Y-112891795D02*
X137125381Y-112891795D01*
X137125381Y-112510842D01*
X137173000Y-112415604D01*
X137220619Y-112367985D01*
X137315857Y-112320366D01*
X137458714Y-112320366D01*
X137553952Y-112367985D01*
X137601571Y-112415604D01*
X137649190Y-112510842D01*
X137649190Y-112891795D01*
X138125381Y-111367985D02*
X138125381Y-111939414D01*
X138125381Y-111653700D02*
X137125381Y-111653700D01*
X137268238Y-111748938D01*
X137363476Y-111844176D01*
X137411095Y-111939414D01*
X125525234Y-122745681D02*
X125191900Y-122269490D01*
X124953805Y-122745681D02*
X124953805Y-121745681D01*
X125334758Y-121745681D01*
X125429996Y-121793300D01*
X125477615Y-121840919D01*
X125525234Y-121936157D01*
X125525234Y-122079014D01*
X125477615Y-122174252D01*
X125429996Y-122221871D01*
X125334758Y-122269490D01*
X124953805Y-122269490D01*
X125906186Y-121840919D02*
X125953805Y-121793300D01*
X126049043Y-121745681D01*
X126287139Y-121745681D01*
X126382377Y-121793300D01*
X126429996Y-121840919D01*
X126477615Y-121936157D01*
X126477615Y-122031395D01*
X126429996Y-122174252D01*
X125858567Y-122745681D01*
X126477615Y-122745681D01*
X115392381Y-111621866D02*
X114916190Y-111955200D01*
X115392381Y-112193295D02*
X114392381Y-112193295D01*
X114392381Y-111812342D01*
X114440000Y-111717104D01*
X114487619Y-111669485D01*
X114582857Y-111621866D01*
X114725714Y-111621866D01*
X114820952Y-111669485D01*
X114868571Y-111717104D01*
X114916190Y-111812342D01*
X114916190Y-112193295D01*
X114392381Y-111288533D02*
X114392381Y-110669485D01*
X114773333Y-111002819D01*
X114773333Y-110859961D01*
X114820952Y-110764723D01*
X114868571Y-110717104D01*
X114963810Y-110669485D01*
X115201905Y-110669485D01*
X115297143Y-110717104D01*
X115344762Y-110764723D01*
X115392381Y-110859961D01*
X115392381Y-111145676D01*
X115344762Y-111240914D01*
X115297143Y-111288533D01*
X119154281Y-105309966D02*
X118678090Y-105643300D01*
X119154281Y-105881395D02*
X118154281Y-105881395D01*
X118154281Y-105500442D01*
X118201900Y-105405204D01*
X118249519Y-105357585D01*
X118344757Y-105309966D01*
X118487614Y-105309966D01*
X118582852Y-105357585D01*
X118630471Y-105405204D01*
X118678090Y-105500442D01*
X118678090Y-105881395D01*
X118487614Y-104452823D02*
X119154281Y-104452823D01*
X118106662Y-104690919D02*
X118820948Y-104929014D01*
X118820948Y-104309966D01*
X122631381Y-117312166D02*
X122155190Y-117645500D01*
X122631381Y-117883595D02*
X121631381Y-117883595D01*
X121631381Y-117502642D01*
X121679000Y-117407404D01*
X121726619Y-117359785D01*
X121821857Y-117312166D01*
X121964714Y-117312166D01*
X122059952Y-117359785D01*
X122107571Y-117407404D01*
X122155190Y-117502642D01*
X122155190Y-117883595D01*
X121631381Y-116455023D02*
X121631381Y-116645500D01*
X121679000Y-116740738D01*
X121726619Y-116788357D01*
X121869476Y-116883595D01*
X122059952Y-116931214D01*
X122440905Y-116931214D01*
X122536143Y-116883595D01*
X122583762Y-116835976D01*
X122631381Y-116740738D01*
X122631381Y-116550261D01*
X122583762Y-116455023D01*
X122536143Y-116407404D01*
X122440905Y-116359785D01*
X122202810Y-116359785D01*
X122107571Y-116407404D01*
X122059952Y-116455023D01*
X122012333Y-116550261D01*
X122012333Y-116740738D01*
X122059952Y-116835976D01*
X122107571Y-116883595D01*
X122202810Y-116931214D01*
X126469481Y-111736866D02*
X125993290Y-112070200D01*
X126469481Y-112308295D02*
X125469481Y-112308295D01*
X125469481Y-111927342D01*
X125517100Y-111832104D01*
X125564719Y-111784485D01*
X125659957Y-111736866D01*
X125802814Y-111736866D01*
X125898052Y-111784485D01*
X125945671Y-111832104D01*
X125993290Y-111927342D01*
X125993290Y-112308295D01*
X125469481Y-111403533D02*
X125469481Y-110736866D01*
X126469481Y-111165438D01*
X131760234Y-103131881D02*
X131426900Y-102655690D01*
X131188805Y-103131881D02*
X131188805Y-102131881D01*
X131569758Y-102131881D01*
X131664996Y-102179500D01*
X131712615Y-102227119D01*
X131760234Y-102322357D01*
X131760234Y-102465214D01*
X131712615Y-102560452D01*
X131664996Y-102608071D01*
X131569758Y-102655690D01*
X131188805Y-102655690D01*
X132331662Y-102560452D02*
X132236424Y-102512833D01*
X132188805Y-102465214D01*
X132141186Y-102369976D01*
X132141186Y-102322357D01*
X132188805Y-102227119D01*
X132236424Y-102179500D01*
X132331662Y-102131881D01*
X132522139Y-102131881D01*
X132617377Y-102179500D01*
X132664996Y-102227119D01*
X132712615Y-102322357D01*
X132712615Y-102369976D01*
X132664996Y-102465214D01*
X132617377Y-102512833D01*
X132522139Y-102560452D01*
X132331662Y-102560452D01*
X132236424Y-102608071D01*
X132188805Y-102655690D01*
X132141186Y-102750929D01*
X132141186Y-102941405D01*
X132188805Y-103036643D01*
X132236424Y-103084262D01*
X132331662Y-103131881D01*
X132522139Y-103131881D01*
X132617377Y-103084262D01*
X132664996Y-103036643D01*
X132712615Y-102941405D01*
X132712615Y-102750929D01*
X132664996Y-102655690D01*
X132617377Y-102608071D01*
X132522139Y-102560452D01*
X130048095Y-109914381D02*
X130048095Y-110723905D01*
X130095714Y-110819143D01*
X130143333Y-110866762D01*
X130238571Y-110914381D01*
X130429048Y-110914381D01*
X130524286Y-110866762D01*
X130571905Y-110819143D01*
X130619524Y-110723905D01*
X130619524Y-109914381D01*
X131619524Y-110914381D02*
X131048095Y-110914381D01*
X131333809Y-110914381D02*
X131333809Y-109914381D01*
X131238571Y-110057238D01*
X131143333Y-110152476D01*
X131048095Y-110200095D01*
X145923095Y-109307381D02*
X145923095Y-110116905D01*
X145970714Y-110212143D01*
X146018333Y-110259762D01*
X146113571Y-110307381D01*
X146304048Y-110307381D01*
X146399286Y-110259762D01*
X146446905Y-110212143D01*
X146494524Y-110116905D01*
X146494524Y-109307381D01*
X146923095Y-109402619D02*
X146970714Y-109355000D01*
X147065952Y-109307381D01*
X147304048Y-109307381D01*
X147399286Y-109355000D01*
X147446905Y-109402619D01*
X147494524Y-109497857D01*
X147494524Y-109593095D01*
X147446905Y-109735952D01*
X146875476Y-110307381D01*
X147494524Y-110307381D01*
M02*
