M48
;DRILL file {KiCad 4.0.0-rc1-stable} date 12/22/2015 11:03:57 PM
;FORMAT={-:-/ absolute / inch / decimal}
FMAT,2
INCH,TZ
T1C0.016
T2C0.035
%
G90
G05
M72
T1
X4.155Y-4.7625
X4.3965Y-4.4059
X4.3975Y-4.6283
X4.4315Y-4.6283
X4.46Y-4.44
X4.46Y-4.55
X4.4665Y-4.516
X4.5211Y-4.3755
X4.5225Y-4.5145
X4.524Y-4.5985
X4.53Y-4.69
X4.5565Y-4.8445
X4.56Y-4.55
X4.628Y-4.2135
X4.6464Y-4.6934
X4.6635Y-4.39
X4.6919Y-4.4531
X4.7391Y-4.748
X4.744Y-4.8405
X4.8131Y-4.471
X4.888Y-4.4705
X4.9285Y-4.19
X4.94Y-4.365
X5.003Y-4.7234
X5.0415Y-4.673
X5.076Y-4.897
X5.13Y-4.3
X5.1475Y-4.9575
X5.1625Y-4.2156
X5.1635Y-4.1487
X5.175Y-4.289
X5.2Y-4.36
X5.2776Y-4.4176
X5.33Y-4.393
X5.3324Y-4.5824
X5.34Y-4.1
X5.36Y-4.54
X5.389Y-4.6064
X5.399Y-4.772
X5.438Y-4.5121
X5.4495Y-4.6064
X5.45Y-4.6556
X5.4825Y-4.5835
X5.56Y-4.2
X5.5655Y-4.3345
X5.5901Y-4.69
X5.5905Y-4.7255
X5.6147Y-4.5945
X5.625Y-4.69
X5.6419Y-4.561
X5.6515Y-4.42
X5.68Y-4.15
X5.6945Y-4.5614
X5.71Y-4.49
X5.82Y-4.2755
X5.8261Y-4.6649
X5.8315Y-4.4121
X5.8345Y-4.3335
X5.8507Y-4.612
X5.868Y-4.454
T2
X4.1781Y-4.4086
X4.1781Y-4.5818
T0
M30
