G04 #@! TF.FileFunction,Copper,L2,Bot,Signal*
%FSLAX46Y46*%
G04 Gerber Fmt 4.6, Leading zero omitted, Abs format (unit mm)*
G04 Created by KiCad (PCBNEW 4.0.0-rc1-stable) date 12/22/2015 11:03:48 PM*
%MOMM*%
G01*
G04 APERTURE LIST*
%ADD10C,0.100000*%
%ADD11R,2.540000X1.524000*%
%ADD12C,0.600000*%
%ADD13C,0.250000*%
G04 APERTURE END LIST*
D10*
D11*
X150876000Y-107950000D03*
X150876000Y-110490000D03*
X150876000Y-113030000D03*
X150876000Y-115570000D03*
X150876000Y-118110000D03*
X150876000Y-120650000D03*
D12*
X113284000Y-112776000D03*
X115824000Y-115570000D03*
X114909600Y-116801900D03*
X142873799Y-119127201D03*
X141998700Y-120027700D03*
X135442956Y-116392956D03*
X135382000Y-111582200D03*
X117551200Y-107022900D03*
X125183900Y-106426000D03*
X149047200Y-113131600D03*
X147981800Y-118489000D03*
X114871500Y-114668300D03*
X113449100Y-114706400D03*
X141224000Y-106680000D03*
X138430000Y-118251710D03*
X138417300Y-117001690D03*
X141989400Y-119126700D03*
X113284000Y-115570000D03*
X128930400Y-124383800D03*
X130746500Y-125920500D03*
X115062000Y-119126000D03*
X115735100Y-123050300D03*
X120497600Y-122948700D03*
X127076200Y-119974190D03*
X118452900Y-111506000D03*
X122252910Y-113563300D03*
X137134600Y-121208800D03*
X136880600Y-117001690D03*
X135636000Y-104140000D03*
X125476000Y-110870209D03*
X112560100Y-117558871D03*
X114836229Y-111137700D03*
X111696500Y-117558871D03*
X111671100Y-111909571D03*
X130302000Y-109219990D03*
X134051044Y-112207044D03*
X119173001Y-113109999D03*
X118018549Y-119212349D03*
X120373310Y-120599200D03*
X105537000Y-120967500D03*
X147828000Y-108597700D03*
X144272000Y-105410000D03*
X145034000Y-114046000D03*
X131445000Y-108940600D03*
X141364390Y-110096300D03*
X148196300Y-110070900D03*
X128054100Y-118694200D03*
X139255500Y-116420900D03*
X142614410Y-116700300D03*
X143548100Y-112268000D03*
X148120100Y-112066810D03*
X143304090Y-115849400D03*
X144639104Y-115859390D03*
X148606810Y-117144800D03*
X136144014Y-115316000D03*
X138125060Y-114608052D03*
X132080000Y-110744002D03*
X124155200Y-113550700D03*
X131127500Y-107076410D03*
X131152900Y-105376380D03*
D13*
X115824000Y-115570000D02*
X115824000Y-114695798D01*
X115824000Y-114695798D02*
X113904202Y-112776000D01*
X113904202Y-112776000D02*
X113284000Y-112776000D01*
X114871500Y-116763800D02*
X114909600Y-116801900D01*
X141998700Y-120027700D02*
X141998700Y-120002300D01*
X141998700Y-120002300D02*
X142873799Y-119127201D01*
X135082001Y-116032001D02*
X135142957Y-116092957D01*
X135142957Y-116092957D02*
X135442956Y-116392956D01*
X135382000Y-111582200D02*
X135082001Y-111882199D01*
X135082001Y-111882199D02*
X135082001Y-116032001D01*
X148132800Y-113042700D02*
X148221700Y-113131600D01*
X148221700Y-113131600D02*
X149047200Y-113131600D01*
X147993100Y-113182400D02*
X148132800Y-113042700D01*
X147993100Y-114185700D02*
X147993100Y-113182400D01*
X147981800Y-117956200D02*
X147981800Y-114197000D01*
X147981800Y-114197000D02*
X147993100Y-114185700D01*
X149047200Y-113131600D02*
X148622936Y-113131600D01*
X125183900Y-106426000D02*
X124587000Y-107022900D01*
X124587000Y-107022900D02*
X117551200Y-107022900D01*
X149047200Y-113131600D02*
X149047200Y-114249200D01*
X149047200Y-114249200D02*
X150368000Y-115570000D01*
X150368000Y-115570000D02*
X150876000Y-115570000D01*
X147981800Y-117956200D02*
X147981800Y-118489000D01*
X113449100Y-114706400D02*
X114833400Y-114706400D01*
X114833400Y-114706400D02*
X114871500Y-114668300D01*
X141224000Y-106680000D02*
X141989391Y-107445391D01*
X141989391Y-107445391D02*
X141989391Y-110067491D01*
X141989391Y-110067491D02*
X141989400Y-110067500D01*
X138417300Y-117001690D02*
X138417300Y-118239010D01*
X138417300Y-118239010D02*
X138430000Y-118251710D01*
X141989400Y-110067500D02*
X141989400Y-119126700D01*
X115534601Y-117031778D02*
X115534601Y-116501899D01*
X115534601Y-116501899D02*
X114602702Y-115570000D01*
X114602702Y-115570000D02*
X113284000Y-115570000D01*
X130746500Y-125920500D02*
X130467100Y-125920500D01*
X130467100Y-125920500D02*
X128930400Y-124383800D01*
X115062000Y-119126000D02*
X115062000Y-118701736D01*
X115534601Y-117031778D02*
X115534601Y-117421499D01*
X115534601Y-118229135D02*
X115534601Y-117031778D01*
X115062000Y-118701736D02*
X115534601Y-118229135D01*
X120497600Y-122948700D02*
X115836700Y-122948700D01*
X115836700Y-122948700D02*
X115735100Y-123050300D01*
X127076200Y-119974190D02*
X127760221Y-120658211D01*
X127760221Y-120658211D02*
X133571712Y-120658210D01*
X133571712Y-120658210D02*
X136580601Y-117649321D01*
X136580601Y-117649321D02*
X136580601Y-117301689D01*
X136580601Y-117301689D02*
X136880600Y-117001690D01*
X122252910Y-113563300D02*
X120510200Y-113563300D01*
X120510200Y-113563300D02*
X118452900Y-111506000D01*
X136880600Y-117001690D02*
X136880600Y-120954800D01*
X136880600Y-120954800D02*
X137134600Y-121208800D01*
X125476000Y-110870209D02*
X125476000Y-110128278D01*
X125476000Y-110128278D02*
X131464278Y-104140000D01*
X131464278Y-104140000D02*
X135636000Y-104140000D01*
X113284000Y-111137700D02*
X112560100Y-111861600D01*
X112560100Y-111861600D02*
X112560100Y-117558871D01*
X114836229Y-111137700D02*
X113284000Y-111137700D01*
X111671100Y-111909571D02*
X111671100Y-117533471D01*
X111671100Y-117533471D02*
X111696500Y-117558871D01*
X130601999Y-109519989D02*
X130302000Y-109219990D01*
X130810010Y-109728000D02*
X130601999Y-109519989D01*
X134051044Y-111782780D02*
X131996264Y-109728000D01*
X134051044Y-112207044D02*
X134051044Y-111782780D01*
X131996264Y-109728000D02*
X130810010Y-109728000D01*
X118018549Y-119212349D02*
X119173001Y-118057897D01*
X119173001Y-118057897D02*
X119173001Y-113109999D01*
X105537000Y-120967500D02*
X105905300Y-120599200D01*
X105905300Y-120599200D02*
X120373310Y-120599200D01*
X147637500Y-120650000D02*
X147356799Y-120369299D01*
X147356799Y-120369299D02*
X147356799Y-109068901D01*
X147356799Y-109068901D02*
X147828000Y-108597700D01*
X150876000Y-120650000D02*
X147637500Y-120650000D01*
X150622000Y-120650000D02*
X150876000Y-120650000D01*
X145034000Y-114046000D02*
X144272000Y-113284000D01*
X144272000Y-113284000D02*
X144272000Y-105410000D01*
X141364390Y-110096300D02*
X140208690Y-108940600D01*
X140208690Y-108940600D02*
X131445000Y-108940600D01*
X150876000Y-110490000D02*
X149356000Y-110490000D01*
X149356000Y-110490000D02*
X148936900Y-110070900D01*
X148936900Y-110070900D02*
X148196300Y-110070900D01*
X139255500Y-116420900D02*
X138955501Y-116120901D01*
X138955501Y-116120901D02*
X136836387Y-116120901D01*
X136836387Y-116120901D02*
X135041801Y-117915487D01*
X135041801Y-117915487D02*
X135041801Y-118551711D01*
X135041801Y-118551711D02*
X133385311Y-120208201D01*
X127784699Y-119883201D02*
X127784699Y-118963601D01*
X133385311Y-120208201D02*
X128109699Y-120208201D01*
X128109699Y-120208201D02*
X127784699Y-119883201D01*
X127784699Y-118963601D02*
X128054100Y-118694200D01*
X143548100Y-112268000D02*
X142614410Y-113201690D01*
X142614410Y-113201690D02*
X142614410Y-116700300D01*
X150876000Y-113030000D02*
X150368000Y-113030000D01*
X149404810Y-112066810D02*
X148120100Y-112066810D01*
X150368000Y-113030000D02*
X149404810Y-112066810D01*
X144639104Y-115859390D02*
X143314080Y-115859390D01*
X143314080Y-115859390D02*
X143304090Y-115849400D01*
X150876000Y-118110000D02*
X149356000Y-118110000D01*
X148606810Y-117360810D02*
X148606810Y-117144800D01*
X149356000Y-118110000D02*
X148606810Y-117360810D01*
X136568278Y-115316000D02*
X136144014Y-115316000D01*
X138125060Y-114608052D02*
X137417112Y-115316000D01*
X137417112Y-115316000D02*
X136568278Y-115316000D01*
X126961898Y-110744002D02*
X131655736Y-110744002D01*
X131655736Y-110744002D02*
X132080000Y-110744002D01*
X124155200Y-113550700D02*
X126961898Y-110744002D01*
X131152900Y-105376380D02*
X131152900Y-107051010D01*
X131152900Y-107051010D02*
X131127500Y-107076410D01*
M02*
