G04 #@! TF.FileFunction,Soldermask,Top*
%FSLAX46Y46*%
G04 Gerber Fmt 4.6, Leading zero omitted, Abs format (unit mm)*
G04 Created by KiCad (PCBNEW 4.0.0-rc1-stable) date 12/22/2015 11:03:48 PM*
%MOMM*%
G01*
G04 APERTURE LIST*
%ADD10C,0.100000*%
%ADD11R,2.701240X0.900380*%
%ADD12R,2.899360X2.398980*%
%ADD13C,1.299160*%
%ADD14R,0.900000X1.300000*%
%ADD15R,1.150000X1.200000*%
%ADD16R,1.200000X1.150000*%
%ADD17R,1.598880X1.598880*%
%ADD18R,2.940000X1.924000*%
%ADD19R,1.300000X0.900000*%
%ADD20R,1.130000X0.700000*%
%ADD21R,0.700000X1.130000*%
%ADD22R,1.650000X1.650000*%
%ADD23R,2.559000X1.924000*%
G04 APERTURE END LIST*
D10*
D11*
X108722160Y-112577880D03*
X108722160Y-113377980D03*
X108722160Y-114178080D03*
X108722160Y-114978180D03*
X108722160Y-115778280D03*
D12*
X108623100Y-109728000D03*
X103124000Y-109728000D03*
X108623100Y-118628160D03*
X103124000Y-118628160D03*
D13*
X106123740Y-111978440D03*
X106123740Y-116377720D03*
D14*
X119723600Y-124307600D03*
X118223600Y-124307600D03*
D15*
X146456400Y-119088600D03*
X146456400Y-117588600D03*
X124040900Y-106021000D03*
X124040900Y-104521000D03*
X139649200Y-119126700D03*
X139649200Y-117626700D03*
X146456400Y-112941800D03*
X146456400Y-111441800D03*
D16*
X146481800Y-124244100D03*
X147981800Y-124244100D03*
X140525500Y-124142500D03*
X142025500Y-124142500D03*
D15*
X116916200Y-116509800D03*
X116916200Y-118009800D03*
D17*
X112610900Y-122478800D03*
X112610900Y-124576840D03*
X109156500Y-122555000D03*
X109156500Y-124653040D03*
X105460800Y-124576840D03*
X105460800Y-122478800D03*
D18*
X150876000Y-107950000D03*
X150876000Y-110490000D03*
X150876000Y-113030000D03*
X150876000Y-115570000D03*
X150876000Y-118110000D03*
X150876000Y-120650000D03*
X150876000Y-107950000D03*
X150876000Y-110490000D03*
X150876000Y-113030000D03*
X150876000Y-115570000D03*
X150876000Y-118110000D03*
X150876000Y-120650000D03*
D14*
X132422200Y-124256800D03*
X133922200Y-124256800D03*
D19*
X139573000Y-112903700D03*
X139573000Y-111403700D03*
D14*
X124941900Y-124193300D03*
X126441900Y-124193300D03*
D19*
X116840000Y-112205200D03*
X116840000Y-110705200D03*
X116801900Y-104393300D03*
X116801900Y-105893300D03*
X124079000Y-117895500D03*
X124079000Y-116395500D03*
X124117100Y-110820200D03*
X124117100Y-112320200D03*
D14*
X131176900Y-104203500D03*
X132676900Y-104203500D03*
D20*
X128845000Y-112792000D03*
X128845000Y-113292000D03*
X128845000Y-113792000D03*
X128845000Y-114292000D03*
X128845000Y-114792000D03*
D21*
X129810000Y-115757000D03*
X130310000Y-115757000D03*
X130810000Y-115757000D03*
X131310000Y-115757000D03*
X131810000Y-115757000D03*
D20*
X132775000Y-114792000D03*
X132775000Y-114292000D03*
X132775000Y-113792000D03*
X132775000Y-113292000D03*
X132775000Y-112792000D03*
D21*
X131810000Y-111827000D03*
X131310000Y-111827000D03*
X130810000Y-111827000D03*
X130310000Y-111827000D03*
X129810000Y-111827000D03*
D22*
X131435000Y-114417000D03*
X131435000Y-113167000D03*
X130185000Y-114417000D03*
X130185000Y-113167000D03*
D23*
X146685000Y-106680000D03*
X146685000Y-104140000D03*
X138430000Y-104140000D03*
X138430000Y-106680000D03*
M02*
