G04 #@! TF.FileFunction,Profile,NP*
%FSLAX46Y46*%
G04 Gerber Fmt 4.6, Leading zero omitted, Abs format (unit mm)*
G04 Created by KiCad (PCBNEW 4.0.0-rc1-stable) date 10/19/2015 9:11:09 PM*
%MOMM*%
G01*
G04 APERTURE LIST*
%ADD10C,0.100000*%
%ADD11C,0.150000*%
G04 APERTURE END LIST*
D10*
D11*
X130810000Y-99060000D02*
X130810000Y-101600000D01*
X124460000Y-99060000D02*
X130810000Y-99060000D01*
X124460000Y-105410000D02*
X124460000Y-99060000D01*
X127000000Y-105410000D02*
X124460000Y-105410000D01*
X127000000Y-123190000D02*
X127000000Y-105410000D01*
X148590000Y-127000000D02*
X130810000Y-127000000D01*
X152400000Y-105410000D02*
X152400000Y-123190000D01*
X148590000Y-101600000D02*
X130810000Y-101600000D01*
X154940000Y-105410000D02*
X152400000Y-105410000D01*
X154940000Y-99060000D02*
X154940000Y-105410000D01*
X148590000Y-99060000D02*
X154940000Y-99060000D01*
X148590000Y-101600000D02*
X148590000Y-99060000D01*
X124460000Y-123190000D02*
X127000000Y-123190000D01*
X124460000Y-129540000D02*
X124460000Y-123190000D01*
X130810000Y-129540000D02*
X124460000Y-129540000D01*
X130810000Y-127000000D02*
X130810000Y-129540000D01*
X148590000Y-129540000D02*
X148590000Y-127000000D01*
X154940000Y-129540000D02*
X148590000Y-129540000D01*
X154940000Y-123190000D02*
X154940000Y-129540000D01*
X152400000Y-123190000D02*
X154940000Y-123190000D01*
M02*
