M48
;DRILL file {KiCad 4.0.0-rc1-stable} date 10/19/2015 7:45:22 PM
;FORMAT={-:-/ absolute / inch / decimal}
FMAT,2
INCH,TZ
T1C0.013
T2C0.016
T3C0.084
%
G90
G05
M72
T1
X5.125Y-4.4
X5.125Y-4.5
X5.135Y-4.25
X5.145Y-4.6
X5.15Y-4.36
X5.16Y-4.73
X5.1905Y-4.7299
X5.25Y-4.155
X5.325Y-4.38
X5.325Y-4.46
X5.34Y-4.506
X5.345Y-4.36
X5.355Y-4.46
X5.4Y-4.145
X5.405Y-4.855
X5.45Y-4.35
X5.465Y-4.68
X5.47Y-4.28
X5.47Y-4.64
X5.49Y-4.66
X5.5Y-4.87
X5.5Y-4.125
X5.5092Y-4.36
X5.51Y-4.64
X5.52Y-4.164
X5.55Y-4.69
X5.55Y-4.835
X5.555Y-4.765
X5.56Y-4.16
X5.5641Y-4.2591
X5.565Y-4.36
X5.57Y-4.64
X5.5955Y-4.3549
X5.6Y-4.64
X5.6Y-4.85
X5.635Y-4.49
X5.635Y-4.53
X5.64Y-4.41
X5.68Y-4.43
X5.7Y-4.47
X5.7Y-4.825
X5.735Y-4.515
X5.825Y-4.635
X5.83Y-4.55
X5.855Y-4.39
X5.855Y-4.695
X5.88Y-4.5
T2
X5.05Y-4.18
X5.05Y-4.815
X5.18Y-4.95
X5.185Y-4.05
X5.205Y-4.145
X5.29Y-4.46
X5.3Y-4.42
X5.32Y-4.575
X5.59Y-4.735
X5.65Y-4.3
X5.695Y-4.765
X5.805Y-4.415
X5.815Y-4.05
X5.815Y-4.95
X5.95Y-4.185
X5.95Y-4.815
T3
X5.Y-4.
X5.Y-5.
X6.Y-4.
X6.Y-5.
T0
M30
