G04 #@! TF.FileFunction,Legend,Bot*
%FSLAX46Y46*%
G04 Gerber Fmt 4.6, Leading zero omitted, Abs format (unit mm)*
G04 Created by KiCad (PCBNEW 4.0.0-rc1-stable) date 10/19/2015 7:45:35 PM*
%MOMM*%
G01*
G04 APERTURE LIST*
%ADD10C,0.100000*%
%ADD11C,0.152400*%
G04 APERTURE END LIST*
D10*
D11*
X149149406Y-110142262D02*
X149149406Y-109507262D01*
X148937739Y-109960833D01*
X148726072Y-109507262D01*
X148726072Y-110142262D01*
X148151549Y-110142262D02*
X148151549Y-109809643D01*
X148181787Y-109749167D01*
X148242263Y-109718929D01*
X148363215Y-109718929D01*
X148423692Y-109749167D01*
X148151549Y-110112024D02*
X148212025Y-110142262D01*
X148363215Y-110142262D01*
X148423692Y-110112024D01*
X148453930Y-110051548D01*
X148453930Y-109991071D01*
X148423692Y-109930595D01*
X148363215Y-109900357D01*
X148212025Y-109900357D01*
X148151549Y-109870119D01*
X147909644Y-110142262D02*
X147577025Y-109718929D01*
X147909644Y-109718929D02*
X147577025Y-110142262D01*
X146851310Y-110142262D02*
X146851310Y-109507262D01*
X146609405Y-109507262D01*
X146548929Y-109537500D01*
X146518690Y-109567738D01*
X146488452Y-109628214D01*
X146488452Y-109718929D01*
X146518690Y-109779405D01*
X146548929Y-109809643D01*
X146609405Y-109839881D01*
X146851310Y-109839881D01*
X146216310Y-110142262D02*
X146216310Y-109718929D01*
X146216310Y-109839881D02*
X146186071Y-109779405D01*
X146155833Y-109749167D01*
X146095357Y-109718929D01*
X146034881Y-109718929D01*
X145732500Y-110142262D02*
X145792976Y-110112024D01*
X145823215Y-110081786D01*
X145853453Y-110021310D01*
X145853453Y-109839881D01*
X145823215Y-109779405D01*
X145792976Y-109749167D01*
X145732500Y-109718929D01*
X145641786Y-109718929D01*
X145581310Y-109749167D01*
X145551072Y-109779405D01*
X145520834Y-109839881D01*
X145520834Y-110021310D01*
X145551072Y-110081786D01*
X145581310Y-110112024D01*
X145641786Y-110142262D01*
X145732500Y-110142262D01*
X145248691Y-110142262D02*
X145248691Y-109507262D01*
X145188214Y-109900357D02*
X145006786Y-110142262D01*
X145006786Y-109718929D02*
X145248691Y-109960833D01*
X144643928Y-110142262D02*
X144704404Y-110112024D01*
X144734643Y-110081786D01*
X144764881Y-110021310D01*
X144764881Y-109839881D01*
X144734643Y-109779405D01*
X144704404Y-109749167D01*
X144643928Y-109718929D01*
X144553214Y-109718929D01*
X144492738Y-109749167D01*
X144462500Y-109779405D01*
X144432262Y-109839881D01*
X144432262Y-110021310D01*
X144462500Y-110081786D01*
X144492738Y-110112024D01*
X144553214Y-110142262D01*
X144643928Y-110142262D01*
X144160119Y-109718929D02*
X144160119Y-110353929D01*
X144160119Y-109749167D02*
X144099642Y-109718929D01*
X143978690Y-109718929D01*
X143918214Y-109749167D01*
X143887976Y-109779405D01*
X143857738Y-109839881D01*
X143857738Y-110021310D01*
X143887976Y-110081786D01*
X143918214Y-110112024D01*
X143978690Y-110142262D01*
X144099642Y-110142262D01*
X144160119Y-110112024D01*
X143343690Y-110112024D02*
X143404166Y-110142262D01*
X143525118Y-110142262D01*
X143585595Y-110112024D01*
X143615833Y-110051548D01*
X143615833Y-109809643D01*
X143585595Y-109749167D01*
X143525118Y-109718929D01*
X143404166Y-109718929D01*
X143343690Y-109749167D01*
X143313452Y-109809643D01*
X143313452Y-109870119D01*
X143615833Y-109930595D01*
X143041309Y-109718929D02*
X143041309Y-110142262D01*
X143041309Y-109779405D02*
X143011070Y-109749167D01*
X142950594Y-109718929D01*
X142859880Y-109718929D01*
X142799404Y-109749167D01*
X142769166Y-109809643D01*
X142769166Y-110142262D01*
X142466785Y-110142262D02*
X142466785Y-109507262D01*
X142406308Y-109900357D02*
X142224880Y-110142262D01*
X142224880Y-109718929D02*
X142466785Y-109960833D01*
X141862022Y-110142262D02*
X141922498Y-110112024D01*
X141952737Y-110081786D01*
X141982975Y-110021310D01*
X141982975Y-109839881D01*
X141952737Y-109779405D01*
X141922498Y-109749167D01*
X141862022Y-109718929D01*
X141771308Y-109718929D01*
X141710832Y-109749167D01*
X141680594Y-109779405D01*
X141650356Y-109839881D01*
X141650356Y-110021310D01*
X141680594Y-110081786D01*
X141710832Y-110112024D01*
X141771308Y-110142262D01*
X141862022Y-110142262D01*
X146491476Y-122240524D02*
X146612429Y-122180048D01*
X146672905Y-122119571D01*
X146733381Y-121998619D01*
X146733381Y-121635762D01*
X146672905Y-121514810D01*
X146612429Y-121454333D01*
X146491476Y-121393857D01*
X146310048Y-121393857D01*
X146189096Y-121454333D01*
X146128619Y-121514810D01*
X146068143Y-121635762D01*
X146068143Y-121998619D01*
X146128619Y-122119571D01*
X146189096Y-122180048D01*
X146310048Y-122240524D01*
X146491476Y-122240524D01*
X145523857Y-121393857D02*
X145523857Y-122663857D01*
X145523857Y-121454333D02*
X145402905Y-121393857D01*
X145161000Y-121393857D01*
X145040048Y-121454333D01*
X144979571Y-121514810D01*
X144919095Y-121635762D01*
X144919095Y-121998619D01*
X144979571Y-122119571D01*
X145040048Y-122180048D01*
X145161000Y-122240524D01*
X145402905Y-122240524D01*
X145523857Y-122180048D01*
X143891000Y-122180048D02*
X144011952Y-122240524D01*
X144253857Y-122240524D01*
X144374809Y-122180048D01*
X144435285Y-122059095D01*
X144435285Y-121575286D01*
X144374809Y-121454333D01*
X144253857Y-121393857D01*
X144011952Y-121393857D01*
X143891000Y-121454333D01*
X143830523Y-121575286D01*
X143830523Y-121696238D01*
X144435285Y-121817190D01*
X143286238Y-121393857D02*
X143286238Y-122240524D01*
X143286238Y-121514810D02*
X143225762Y-121454333D01*
X143104809Y-121393857D01*
X142923381Y-121393857D01*
X142802429Y-121454333D01*
X142741952Y-121575286D01*
X142741952Y-122240524D01*
X142137190Y-122240524D02*
X142137190Y-121393857D01*
X142137190Y-121635762D02*
X142076714Y-121514810D01*
X142016238Y-121454333D01*
X141895285Y-121393857D01*
X141774333Y-121393857D01*
X141169571Y-122240524D02*
X141290524Y-122180048D01*
X141351000Y-122119571D01*
X141411476Y-121998619D01*
X141411476Y-121635762D01*
X141351000Y-121514810D01*
X141290524Y-121454333D01*
X141169571Y-121393857D01*
X140988143Y-121393857D01*
X140867191Y-121454333D01*
X140806714Y-121514810D01*
X140746238Y-121635762D01*
X140746238Y-121998619D01*
X140806714Y-122119571D01*
X140867191Y-122180048D01*
X140988143Y-122240524D01*
X141169571Y-122240524D01*
X140201952Y-122240524D02*
X140201952Y-120970524D01*
X140201952Y-121454333D02*
X140081000Y-121393857D01*
X139839095Y-121393857D01*
X139718143Y-121454333D01*
X139657666Y-121514810D01*
X139597190Y-121635762D01*
X139597190Y-121998619D01*
X139657666Y-122119571D01*
X139718143Y-122180048D01*
X139839095Y-122240524D01*
X140081000Y-122240524D01*
X140201952Y-122180048D01*
X138871475Y-122240524D02*
X138992428Y-122180048D01*
X139052904Y-122119571D01*
X139113380Y-121998619D01*
X139113380Y-121635762D01*
X139052904Y-121514810D01*
X138992428Y-121454333D01*
X138871475Y-121393857D01*
X138690047Y-121393857D01*
X138569095Y-121454333D01*
X138508618Y-121514810D01*
X138448142Y-121635762D01*
X138448142Y-121998619D01*
X138508618Y-122119571D01*
X138569095Y-122180048D01*
X138690047Y-122240524D01*
X138871475Y-122240524D01*
X138085285Y-121393857D02*
X137601475Y-121393857D01*
X137903856Y-120970524D02*
X137903856Y-122059095D01*
X137843380Y-122180048D01*
X137722427Y-122240524D01*
X137601475Y-122240524D01*
X137178142Y-122240524D02*
X137178142Y-121393857D01*
X137178142Y-120970524D02*
X137238618Y-121031000D01*
X137178142Y-121091476D01*
X137117666Y-121031000D01*
X137178142Y-120970524D01*
X137178142Y-121091476D01*
X136029094Y-122180048D02*
X136150047Y-122240524D01*
X136391951Y-122240524D01*
X136512904Y-122180048D01*
X136573380Y-122119571D01*
X136633856Y-121998619D01*
X136633856Y-121635762D01*
X136573380Y-121514810D01*
X136512904Y-121454333D01*
X136391951Y-121393857D01*
X136150047Y-121393857D01*
X136029094Y-121454333D01*
X135545285Y-122180048D02*
X135424333Y-122240524D01*
X135182428Y-122240524D01*
X135061476Y-122180048D01*
X135001000Y-122059095D01*
X135001000Y-121998619D01*
X135061476Y-121877667D01*
X135182428Y-121817190D01*
X135363857Y-121817190D01*
X135484809Y-121756714D01*
X135545285Y-121635762D01*
X135545285Y-121575286D01*
X135484809Y-121454333D01*
X135363857Y-121393857D01*
X135182428Y-121393857D01*
X135061476Y-121454333D01*
X134456714Y-122119571D02*
X134396238Y-122180048D01*
X134456714Y-122240524D01*
X134517190Y-122180048D01*
X134456714Y-122119571D01*
X134456714Y-122240524D01*
X133307666Y-122180048D02*
X133428619Y-122240524D01*
X133670523Y-122240524D01*
X133791476Y-122180048D01*
X133851952Y-122119571D01*
X133912428Y-121998619D01*
X133912428Y-121635762D01*
X133851952Y-121514810D01*
X133791476Y-121454333D01*
X133670523Y-121393857D01*
X133428619Y-121393857D01*
X133307666Y-121454333D01*
X132219095Y-122240524D02*
X132219095Y-121575286D01*
X132279572Y-121454333D01*
X132400524Y-121393857D01*
X132642429Y-121393857D01*
X132763381Y-121454333D01*
X132219095Y-122180048D02*
X132340048Y-122240524D01*
X132642429Y-122240524D01*
X132763381Y-122180048D01*
X132823857Y-122059095D01*
X132823857Y-121938143D01*
X132763381Y-121817190D01*
X132642429Y-121756714D01*
X132340048Y-121756714D01*
X132219095Y-121696238D01*
X149128238Y-107508524D02*
X149128238Y-106661857D01*
X149128238Y-106782810D02*
X149067762Y-106722333D01*
X148946809Y-106661857D01*
X148765381Y-106661857D01*
X148644429Y-106722333D01*
X148583952Y-106843286D01*
X148583952Y-107508524D01*
X148583952Y-106843286D02*
X148523476Y-106722333D01*
X148402524Y-106661857D01*
X148221095Y-106661857D01*
X148100143Y-106722333D01*
X148039667Y-106843286D01*
X148039667Y-107508524D01*
X147253476Y-107508524D02*
X147374429Y-107448048D01*
X147434905Y-107387571D01*
X147495381Y-107266619D01*
X147495381Y-106903762D01*
X147434905Y-106782810D01*
X147374429Y-106722333D01*
X147253476Y-106661857D01*
X147072048Y-106661857D01*
X146951096Y-106722333D01*
X146890619Y-106782810D01*
X146830143Y-106903762D01*
X146830143Y-107266619D01*
X146890619Y-107387571D01*
X146951096Y-107448048D01*
X147072048Y-107508524D01*
X147253476Y-107508524D01*
X145741571Y-107508524D02*
X145741571Y-106238524D01*
X145741571Y-107448048D02*
X145862524Y-107508524D01*
X146104428Y-107508524D01*
X146225381Y-107448048D01*
X146285857Y-107387571D01*
X146346333Y-107266619D01*
X146346333Y-106903762D01*
X146285857Y-106782810D01*
X146225381Y-106722333D01*
X146104428Y-106661857D01*
X145862524Y-106661857D01*
X145741571Y-106722333D01*
X144592523Y-106661857D02*
X144592523Y-107508524D01*
X145136809Y-106661857D02*
X145136809Y-107327095D01*
X145076333Y-107448048D01*
X144955380Y-107508524D01*
X144773952Y-107508524D01*
X144653000Y-107448048D01*
X144592523Y-107387571D01*
X143806332Y-107508524D02*
X143927285Y-107448048D01*
X143987761Y-107327095D01*
X143987761Y-106238524D01*
X142778237Y-107508524D02*
X142778237Y-106843286D01*
X142838714Y-106722333D01*
X142959666Y-106661857D01*
X143201571Y-106661857D01*
X143322523Y-106722333D01*
X142778237Y-107448048D02*
X142899190Y-107508524D01*
X143201571Y-107508524D01*
X143322523Y-107448048D01*
X143382999Y-107327095D01*
X143382999Y-107206143D01*
X143322523Y-107085190D01*
X143201571Y-107024714D01*
X142899190Y-107024714D01*
X142778237Y-106964238D01*
X142173475Y-107508524D02*
X142173475Y-106661857D01*
X142173475Y-106903762D02*
X142112999Y-106782810D01*
X142052523Y-106722333D01*
X141931570Y-106661857D01*
X141810618Y-106661857D01*
X141205856Y-106782810D02*
X141326809Y-106722333D01*
X141387285Y-106661857D01*
X141447761Y-106540905D01*
X141447761Y-106480429D01*
X141387285Y-106359476D01*
X141326809Y-106299000D01*
X141205856Y-106238524D01*
X140963952Y-106238524D01*
X140842999Y-106299000D01*
X140782523Y-106359476D01*
X140722047Y-106480429D01*
X140722047Y-106540905D01*
X140782523Y-106661857D01*
X140842999Y-106722333D01*
X140963952Y-106782810D01*
X141205856Y-106782810D01*
X141326809Y-106843286D01*
X141387285Y-106903762D01*
X141447761Y-107024714D01*
X141447761Y-107266619D01*
X141387285Y-107387571D01*
X141326809Y-107448048D01*
X141205856Y-107508524D01*
X140963952Y-107508524D01*
X140842999Y-107448048D01*
X140782523Y-107387571D01*
X140722047Y-107266619D01*
X140722047Y-107024714D01*
X140782523Y-106903762D01*
X140842999Y-106843286D01*
X140963952Y-106782810D01*
X140177761Y-107387571D02*
X140117285Y-107448048D01*
X140177761Y-107508524D01*
X140238237Y-107448048D01*
X140177761Y-107387571D01*
X140177761Y-107508524D01*
X139028713Y-107448048D02*
X139149666Y-107508524D01*
X139391570Y-107508524D01*
X139512523Y-107448048D01*
X139572999Y-107387571D01*
X139633475Y-107266619D01*
X139633475Y-106903762D01*
X139572999Y-106782810D01*
X139512523Y-106722333D01*
X139391570Y-106661857D01*
X139149666Y-106661857D01*
X139028713Y-106722333D01*
X138302999Y-107508524D02*
X138423952Y-107448048D01*
X138484428Y-107387571D01*
X138544904Y-107266619D01*
X138544904Y-106903762D01*
X138484428Y-106782810D01*
X138423952Y-106722333D01*
X138302999Y-106661857D01*
X138121571Y-106661857D01*
X138000619Y-106722333D01*
X137940142Y-106782810D01*
X137879666Y-106903762D01*
X137879666Y-107266619D01*
X137940142Y-107387571D01*
X138000619Y-107448048D01*
X138121571Y-107508524D01*
X138302999Y-107508524D01*
X137335380Y-107508524D02*
X137335380Y-106661857D01*
X137335380Y-106782810D02*
X137274904Y-106722333D01*
X137153951Y-106661857D01*
X136972523Y-106661857D01*
X136851571Y-106722333D01*
X136791094Y-106843286D01*
X136791094Y-107508524D01*
X136791094Y-106843286D02*
X136730618Y-106722333D01*
X136609666Y-106661857D01*
X136428237Y-106661857D01*
X136307285Y-106722333D01*
X136246809Y-106843286D01*
X136246809Y-107508524D01*
X134734904Y-106178048D02*
X135823476Y-107810905D01*
X134069666Y-106238524D02*
X133948714Y-106238524D01*
X133827762Y-106299000D01*
X133767285Y-106359476D01*
X133706809Y-106480429D01*
X133646333Y-106722333D01*
X133646333Y-107024714D01*
X133706809Y-107266619D01*
X133767285Y-107387571D01*
X133827762Y-107448048D01*
X133948714Y-107508524D01*
X134069666Y-107508524D01*
X134190619Y-107448048D01*
X134251095Y-107387571D01*
X134311571Y-107266619D01*
X134372047Y-107024714D01*
X134372047Y-106722333D01*
X134311571Y-106480429D01*
X134251095Y-106359476D01*
X134190619Y-106299000D01*
X134069666Y-106238524D01*
X132860142Y-106238524D02*
X132739190Y-106238524D01*
X132618238Y-106299000D01*
X132557761Y-106359476D01*
X132497285Y-106480429D01*
X132436809Y-106722333D01*
X132436809Y-107024714D01*
X132497285Y-107266619D01*
X132557761Y-107387571D01*
X132618238Y-107448048D01*
X132739190Y-107508524D01*
X132860142Y-107508524D01*
X132981095Y-107448048D01*
X133041571Y-107387571D01*
X133102047Y-107266619D01*
X133162523Y-107024714D01*
X133162523Y-106722333D01*
X133102047Y-106480429D01*
X133041571Y-106359476D01*
X132981095Y-106299000D01*
X132860142Y-106238524D01*
X131348237Y-106238524D02*
X131590142Y-106238524D01*
X131711094Y-106299000D01*
X131771571Y-106359476D01*
X131892523Y-106540905D01*
X131952999Y-106782810D01*
X131952999Y-107266619D01*
X131892523Y-107387571D01*
X131832047Y-107448048D01*
X131711094Y-107508524D01*
X131469190Y-107508524D01*
X131348237Y-107448048D01*
X131287761Y-107387571D01*
X131227285Y-107266619D01*
X131227285Y-106964238D01*
X131287761Y-106843286D01*
X131348237Y-106782810D01*
X131469190Y-106722333D01*
X131711094Y-106722333D01*
X131832047Y-106782810D01*
X131892523Y-106843286D01*
X131952999Y-106964238D01*
X144522976Y-104133953D02*
X144492738Y-104043238D01*
X144492738Y-103892048D01*
X144522976Y-103831572D01*
X144553214Y-103801334D01*
X144613690Y-103771095D01*
X144674167Y-103771095D01*
X144734643Y-103801334D01*
X144764881Y-103831572D01*
X144795119Y-103892048D01*
X144825357Y-104013000D01*
X144855595Y-104073476D01*
X144885833Y-104103715D01*
X144946310Y-104133953D01*
X145006786Y-104133953D01*
X145067262Y-104103715D01*
X145097500Y-104073476D01*
X145127738Y-104013000D01*
X145127738Y-103861810D01*
X145097500Y-103771095D01*
X144553214Y-103136095D02*
X144522976Y-103166333D01*
X144492738Y-103257048D01*
X144492738Y-103317524D01*
X144522976Y-103408238D01*
X144583452Y-103468714D01*
X144643929Y-103498953D01*
X144764881Y-103529191D01*
X144855595Y-103529191D01*
X144976548Y-103498953D01*
X145037024Y-103468714D01*
X145097500Y-103408238D01*
X145127738Y-103317524D01*
X145127738Y-103257048D01*
X145097500Y-103166333D01*
X145067262Y-103136095D01*
X144492738Y-102561572D02*
X144492738Y-102863953D01*
X145127738Y-102863953D01*
X142587738Y-104115810D02*
X142587738Y-103752953D01*
X141952738Y-103934381D02*
X142587738Y-103934381D01*
X142587738Y-103601762D02*
X141952738Y-103178428D01*
X142587738Y-103178428D02*
X141952738Y-103601762D01*
X139412738Y-103737833D02*
X139715119Y-103949500D01*
X139412738Y-104100691D02*
X140047738Y-104100691D01*
X140047738Y-103858786D01*
X140017500Y-103798310D01*
X139987262Y-103768071D01*
X139926786Y-103737833D01*
X139836071Y-103737833D01*
X139775595Y-103768071D01*
X139745357Y-103798310D01*
X139715119Y-103858786D01*
X139715119Y-104100691D01*
X140047738Y-103526167D02*
X139412738Y-103102833D01*
X140047738Y-103102833D02*
X139412738Y-103526167D01*
X137477500Y-103734809D02*
X137507738Y-103795286D01*
X137507738Y-103886000D01*
X137477500Y-103976714D01*
X137417024Y-104037190D01*
X137356548Y-104067429D01*
X137235595Y-104097667D01*
X137144881Y-104097667D01*
X137023929Y-104067429D01*
X136963452Y-104037190D01*
X136902976Y-103976714D01*
X136872738Y-103886000D01*
X136872738Y-103825524D01*
X136902976Y-103734809D01*
X136933214Y-103704571D01*
X137144881Y-103704571D01*
X137144881Y-103825524D01*
X136872738Y-103432429D02*
X137507738Y-103432429D01*
X136872738Y-103069571D01*
X137507738Y-103069571D01*
X136872738Y-102767191D02*
X137507738Y-102767191D01*
X137507738Y-102616000D01*
X137477500Y-102525286D01*
X137417024Y-102464810D01*
X137356548Y-102434571D01*
X137235595Y-102404333D01*
X137144881Y-102404333D01*
X137023929Y-102434571D01*
X136963452Y-102464810D01*
X136902976Y-102525286D01*
X136872738Y-102616000D01*
X136872738Y-102767191D01*
X134332738Y-104121857D02*
X134967738Y-104121857D01*
X134514167Y-103910190D01*
X134967738Y-103698523D01*
X134332738Y-103698523D01*
X134967738Y-103275190D02*
X134967738Y-103154238D01*
X134937500Y-103093762D01*
X134877024Y-103033285D01*
X134756071Y-103003047D01*
X134544405Y-103003047D01*
X134423452Y-103033285D01*
X134362976Y-103093762D01*
X134332738Y-103154238D01*
X134332738Y-103275190D01*
X134362976Y-103335666D01*
X134423452Y-103396143D01*
X134544405Y-103426381D01*
X134756071Y-103426381D01*
X134877024Y-103396143D01*
X134937500Y-103335666D01*
X134967738Y-103275190D01*
X134362976Y-102761143D02*
X134332738Y-102670428D01*
X134332738Y-102519238D01*
X134362976Y-102458762D01*
X134393214Y-102428524D01*
X134453690Y-102398285D01*
X134514167Y-102398285D01*
X134574643Y-102428524D01*
X134604881Y-102458762D01*
X134635119Y-102519238D01*
X134665357Y-102640190D01*
X134695595Y-102700666D01*
X134725833Y-102730905D01*
X134786310Y-102761143D01*
X134846786Y-102761143D01*
X134907262Y-102730905D01*
X134937500Y-102700666D01*
X134967738Y-102640190D01*
X134967738Y-102489000D01*
X134937500Y-102398285D01*
X134332738Y-102126143D02*
X134967738Y-102126143D01*
X132300738Y-103879953D02*
X132300738Y-104182334D01*
X131998357Y-104212572D01*
X132028595Y-104182334D01*
X132058833Y-104121857D01*
X132058833Y-103970667D01*
X132028595Y-103910191D01*
X131998357Y-103879953D01*
X131937881Y-103849714D01*
X131786690Y-103849714D01*
X131726214Y-103879953D01*
X131695976Y-103910191D01*
X131665738Y-103970667D01*
X131665738Y-104121857D01*
X131695976Y-104182334D01*
X131726214Y-104212572D01*
X132300738Y-103668286D02*
X131665738Y-103456619D01*
X132300738Y-103244952D01*
X144522976Y-126104953D02*
X144492738Y-126014238D01*
X144492738Y-125863048D01*
X144522976Y-125802572D01*
X144553214Y-125772334D01*
X144613690Y-125742095D01*
X144674167Y-125742095D01*
X144734643Y-125772334D01*
X144764881Y-125802572D01*
X144795119Y-125863048D01*
X144825357Y-125984000D01*
X144855595Y-126044476D01*
X144885833Y-126074715D01*
X144946310Y-126104953D01*
X145006786Y-126104953D01*
X145067262Y-126074715D01*
X145097500Y-126044476D01*
X145127738Y-125984000D01*
X145127738Y-125832810D01*
X145097500Y-125742095D01*
X144553214Y-125107095D02*
X144522976Y-125137333D01*
X144492738Y-125228048D01*
X144492738Y-125288524D01*
X144522976Y-125379238D01*
X144583452Y-125439714D01*
X144643929Y-125469953D01*
X144764881Y-125500191D01*
X144855595Y-125500191D01*
X144976548Y-125469953D01*
X145037024Y-125439714D01*
X145097500Y-125379238D01*
X145127738Y-125288524D01*
X145127738Y-125228048D01*
X145097500Y-125137333D01*
X145067262Y-125107095D01*
X144492738Y-124532572D02*
X144492738Y-124834953D01*
X145127738Y-124834953D01*
X141952738Y-125073833D02*
X142255119Y-125285500D01*
X141952738Y-125436691D02*
X142587738Y-125436691D01*
X142587738Y-125194786D01*
X142557500Y-125134310D01*
X142527262Y-125104071D01*
X142466786Y-125073833D01*
X142376071Y-125073833D01*
X142315595Y-125104071D01*
X142285357Y-125134310D01*
X142255119Y-125194786D01*
X142255119Y-125436691D01*
X142587738Y-124862167D02*
X141952738Y-124438833D01*
X142587738Y-124438833D02*
X141952738Y-124862167D01*
X140047738Y-125451810D02*
X140047738Y-125088953D01*
X139412738Y-125270381D02*
X140047738Y-125270381D01*
X140047738Y-124937762D02*
X139412738Y-124514428D01*
X140047738Y-124514428D02*
X139412738Y-124937762D01*
X136842500Y-124865191D02*
X136812262Y-124804714D01*
X136812262Y-124714000D01*
X136842500Y-124623286D01*
X136902976Y-124562810D01*
X136963452Y-124532571D01*
X137084405Y-124502333D01*
X137175119Y-124502333D01*
X137296071Y-124532571D01*
X137356548Y-124562810D01*
X137417024Y-124623286D01*
X137447262Y-124714000D01*
X137447262Y-124774476D01*
X137417024Y-124865191D01*
X137386786Y-124895429D01*
X137175119Y-124895429D01*
X137175119Y-124774476D01*
X137447262Y-125167571D02*
X136812262Y-125167571D01*
X137447262Y-125530429D01*
X136812262Y-125530429D01*
X137447262Y-125832809D02*
X136812262Y-125832809D01*
X136812262Y-125984000D01*
X136842500Y-126074714D01*
X136902976Y-126135190D01*
X136963452Y-126165429D01*
X137084405Y-126195667D01*
X137175119Y-126195667D01*
X137296071Y-126165429D01*
X137356548Y-126135190D01*
X137417024Y-126074714D01*
X137447262Y-125984000D01*
X137447262Y-125832809D01*
X134332738Y-126473857D02*
X134967738Y-126473857D01*
X134514167Y-126262190D01*
X134967738Y-126050523D01*
X134332738Y-126050523D01*
X134967738Y-125627190D02*
X134967738Y-125506238D01*
X134937500Y-125445762D01*
X134877024Y-125385285D01*
X134756071Y-125355047D01*
X134544405Y-125355047D01*
X134423452Y-125385285D01*
X134362976Y-125445762D01*
X134332738Y-125506238D01*
X134332738Y-125627190D01*
X134362976Y-125687666D01*
X134423452Y-125748143D01*
X134544405Y-125778381D01*
X134756071Y-125778381D01*
X134877024Y-125748143D01*
X134937500Y-125687666D01*
X134967738Y-125627190D01*
X134362976Y-125113143D02*
X134332738Y-125022428D01*
X134332738Y-124871238D01*
X134362976Y-124810762D01*
X134393214Y-124780524D01*
X134453690Y-124750285D01*
X134514167Y-124750285D01*
X134574643Y-124780524D01*
X134604881Y-124810762D01*
X134635119Y-124871238D01*
X134665357Y-124992190D01*
X134695595Y-125052666D01*
X134725833Y-125082905D01*
X134786310Y-125113143D01*
X134846786Y-125113143D01*
X134907262Y-125082905D01*
X134937500Y-125052666D01*
X134967738Y-124992190D01*
X134967738Y-124841000D01*
X134937500Y-124750285D01*
X134332738Y-124478143D02*
X134967738Y-124478143D01*
X132427738Y-124961953D02*
X132427738Y-125264334D01*
X132125357Y-125294572D01*
X132155595Y-125264334D01*
X132185833Y-125203857D01*
X132185833Y-125052667D01*
X132155595Y-124992191D01*
X132125357Y-124961953D01*
X132064881Y-124931714D01*
X131913690Y-124931714D01*
X131853214Y-124961953D01*
X131822976Y-124992191D01*
X131792738Y-125052667D01*
X131792738Y-125203857D01*
X131822976Y-125264334D01*
X131853214Y-125294572D01*
X132427738Y-124750286D02*
X131792738Y-124538619D01*
X132427738Y-124326952D01*
X129627691Y-122207262D02*
X129627691Y-121572262D01*
X129476500Y-121572262D01*
X129385786Y-121602500D01*
X129325310Y-121662976D01*
X129295071Y-121723452D01*
X129264833Y-121844405D01*
X129264833Y-121935119D01*
X129295071Y-122056071D01*
X129325310Y-122116548D01*
X129385786Y-122177024D01*
X129476500Y-122207262D01*
X129627691Y-122207262D01*
X128690310Y-121572262D02*
X128992691Y-121572262D01*
X129022929Y-121874643D01*
X128992691Y-121844405D01*
X128932214Y-121814167D01*
X128781024Y-121814167D01*
X128720548Y-121844405D01*
X128690310Y-121874643D01*
X128660071Y-121935119D01*
X128660071Y-122086310D01*
X128690310Y-122146786D01*
X128720548Y-122177024D01*
X128781024Y-122207262D01*
X128932214Y-122207262D01*
X128992691Y-122177024D01*
X129022929Y-122146786D01*
X129627691Y-119667262D02*
X129627691Y-119032262D01*
X129476500Y-119032262D01*
X129385786Y-119062500D01*
X129325310Y-119122976D01*
X129295071Y-119183452D01*
X129264833Y-119304405D01*
X129264833Y-119395119D01*
X129295071Y-119516071D01*
X129325310Y-119576548D01*
X129385786Y-119637024D01*
X129476500Y-119667262D01*
X129627691Y-119667262D01*
X128720548Y-119032262D02*
X128841500Y-119032262D01*
X128901976Y-119062500D01*
X128932214Y-119092738D01*
X128992691Y-119183452D01*
X129022929Y-119304405D01*
X129022929Y-119546310D01*
X128992691Y-119606786D01*
X128962452Y-119637024D01*
X128901976Y-119667262D01*
X128781024Y-119667262D01*
X128720548Y-119637024D01*
X128690310Y-119606786D01*
X128660071Y-119546310D01*
X128660071Y-119395119D01*
X128690310Y-119334643D01*
X128720548Y-119304405D01*
X128781024Y-119274167D01*
X128901976Y-119274167D01*
X128962452Y-119304405D01*
X128992691Y-119334643D01*
X129022929Y-119395119D01*
X129627691Y-117127262D02*
X129627691Y-116492262D01*
X129476500Y-116492262D01*
X129385786Y-116522500D01*
X129325310Y-116582976D01*
X129295071Y-116643452D01*
X129264833Y-116764405D01*
X129264833Y-116855119D01*
X129295071Y-116976071D01*
X129325310Y-117036548D01*
X129385786Y-117097024D01*
X129476500Y-117127262D01*
X129627691Y-117127262D01*
X129053167Y-116492262D02*
X128629833Y-116492262D01*
X128901976Y-117127262D01*
X129261809Y-113982500D02*
X129322286Y-113952262D01*
X129413000Y-113952262D01*
X129503714Y-113982500D01*
X129564190Y-114042976D01*
X129594429Y-114103452D01*
X129624667Y-114224405D01*
X129624667Y-114315119D01*
X129594429Y-114436071D01*
X129564190Y-114496548D01*
X129503714Y-114557024D01*
X129413000Y-114587262D01*
X129352524Y-114587262D01*
X129261809Y-114557024D01*
X129231571Y-114526786D01*
X129231571Y-114315119D01*
X129352524Y-114315119D01*
X128959429Y-114587262D02*
X128959429Y-113952262D01*
X128596571Y-114587262D01*
X128596571Y-113952262D01*
X128294191Y-114587262D02*
X128294191Y-113952262D01*
X128143000Y-113952262D01*
X128052286Y-113982500D01*
X127991810Y-114042976D01*
X127961571Y-114103452D01*
X127931333Y-114224405D01*
X127931333Y-114315119D01*
X127961571Y-114436071D01*
X127991810Y-114496548D01*
X128052286Y-114557024D01*
X128143000Y-114587262D01*
X128294191Y-114587262D01*
X129416024Y-111714643D02*
X129325310Y-111744881D01*
X129295071Y-111775119D01*
X129264833Y-111835595D01*
X129264833Y-111926310D01*
X129295071Y-111986786D01*
X129325310Y-112017024D01*
X129385786Y-112047262D01*
X129627691Y-112047262D01*
X129627691Y-111412262D01*
X129416024Y-111412262D01*
X129355548Y-111442500D01*
X129325310Y-111472738D01*
X129295071Y-111533214D01*
X129295071Y-111593690D01*
X129325310Y-111654167D01*
X129355548Y-111684405D01*
X129416024Y-111714643D01*
X129627691Y-111714643D01*
X128871738Y-111412262D02*
X128811262Y-111412262D01*
X128750786Y-111442500D01*
X128720548Y-111472738D01*
X128690310Y-111533214D01*
X128660071Y-111654167D01*
X128660071Y-111805357D01*
X128690310Y-111926310D01*
X128720548Y-111986786D01*
X128750786Y-112017024D01*
X128811262Y-112047262D01*
X128871738Y-112047262D01*
X128932214Y-112017024D01*
X128962452Y-111986786D01*
X128992691Y-111926310D01*
X129022929Y-111805357D01*
X129022929Y-111654167D01*
X128992691Y-111533214D01*
X128962452Y-111472738D01*
X128932214Y-111442500D01*
X128871738Y-111412262D01*
X129279953Y-108872262D02*
X129582334Y-108872262D01*
X129612572Y-109174643D01*
X129582334Y-109144405D01*
X129521857Y-109114167D01*
X129370667Y-109114167D01*
X129310191Y-109144405D01*
X129279953Y-109174643D01*
X129249714Y-109235119D01*
X129249714Y-109386310D01*
X129279953Y-109446786D01*
X129310191Y-109477024D01*
X129370667Y-109507262D01*
X129521857Y-109507262D01*
X129582334Y-109477024D01*
X129612572Y-109446786D01*
X129068286Y-108872262D02*
X128856619Y-109507262D01*
X128644952Y-108872262D01*
X150361953Y-121572262D02*
X150664334Y-121572262D01*
X150694572Y-121874643D01*
X150664334Y-121844405D01*
X150603857Y-121814167D01*
X150452667Y-121814167D01*
X150392191Y-121844405D01*
X150361953Y-121874643D01*
X150331714Y-121935119D01*
X150331714Y-122086310D01*
X150361953Y-122146786D01*
X150392191Y-122177024D01*
X150452667Y-122207262D01*
X150603857Y-122207262D01*
X150664334Y-122177024D01*
X150694572Y-122146786D01*
X150150286Y-121572262D02*
X149938619Y-122207262D01*
X149726952Y-121572262D01*
X150473833Y-119606786D02*
X150504071Y-119637024D01*
X150594786Y-119667262D01*
X150655262Y-119667262D01*
X150745976Y-119637024D01*
X150806452Y-119576548D01*
X150836691Y-119516071D01*
X150866929Y-119395119D01*
X150866929Y-119304405D01*
X150836691Y-119183452D01*
X150806452Y-119122976D01*
X150745976Y-119062500D01*
X150655262Y-119032262D01*
X150594786Y-119032262D01*
X150504071Y-119062500D01*
X150473833Y-119092738D01*
X150080738Y-119032262D02*
X150020262Y-119032262D01*
X149959786Y-119062500D01*
X149929548Y-119092738D01*
X149899310Y-119153214D01*
X149869071Y-119274167D01*
X149869071Y-119425357D01*
X149899310Y-119546310D01*
X149929548Y-119606786D01*
X149959786Y-119637024D01*
X150020262Y-119667262D01*
X150080738Y-119667262D01*
X150141214Y-119637024D01*
X150171452Y-119606786D01*
X150201691Y-119546310D01*
X150231929Y-119425357D01*
X150231929Y-119274167D01*
X150201691Y-119153214D01*
X150171452Y-119092738D01*
X150141214Y-119062500D01*
X150080738Y-119032262D01*
X152121810Y-116945833D02*
X151819429Y-116945833D01*
X152182286Y-117127262D02*
X151970619Y-116492262D01*
X151758952Y-117127262D01*
X151214666Y-116522500D02*
X151275143Y-116492262D01*
X151365857Y-116492262D01*
X151456571Y-116522500D01*
X151517047Y-116582976D01*
X151547286Y-116643452D01*
X151577524Y-116764405D01*
X151577524Y-116855119D01*
X151547286Y-116976071D01*
X151517047Y-117036548D01*
X151456571Y-117097024D01*
X151365857Y-117127262D01*
X151305381Y-117127262D01*
X151214666Y-117097024D01*
X151184428Y-117066786D01*
X151184428Y-116855119D01*
X151305381Y-116855119D01*
X150912286Y-117127262D02*
X150912286Y-116492262D01*
X150549428Y-117127262D01*
X150549428Y-116492262D01*
X150247048Y-117127262D02*
X150247048Y-116492262D01*
X150095857Y-116492262D01*
X150005143Y-116522500D01*
X149944667Y-116582976D01*
X149914428Y-116643452D01*
X149884190Y-116764405D01*
X149884190Y-116855119D01*
X149914428Y-116976071D01*
X149944667Y-117036548D01*
X150005143Y-117097024D01*
X150095857Y-117127262D01*
X150247048Y-117127262D01*
X150969738Y-114526786D02*
X150999976Y-114557024D01*
X151090691Y-114587262D01*
X151151167Y-114587262D01*
X151241881Y-114557024D01*
X151302357Y-114496548D01*
X151332596Y-114436071D01*
X151362834Y-114315119D01*
X151362834Y-114224405D01*
X151332596Y-114103452D01*
X151302357Y-114042976D01*
X151241881Y-113982500D01*
X151151167Y-113952262D01*
X151090691Y-113952262D01*
X150999976Y-113982500D01*
X150969738Y-114012738D01*
X150758072Y-113952262D02*
X150334738Y-113952262D01*
X150606881Y-114587262D01*
X150002119Y-113952262D02*
X150002119Y-114103452D01*
X150153310Y-114042976D02*
X150002119Y-114103452D01*
X149850929Y-114042976D01*
X150092834Y-114224405D02*
X150002119Y-114103452D01*
X149911405Y-114224405D01*
X150969738Y-111986786D02*
X150999976Y-112017024D01*
X151090691Y-112047262D01*
X151151167Y-112047262D01*
X151241881Y-112017024D01*
X151302357Y-111956548D01*
X151332596Y-111896071D01*
X151362834Y-111775119D01*
X151362834Y-111684405D01*
X151332596Y-111563452D01*
X151302357Y-111502976D01*
X151241881Y-111442500D01*
X151151167Y-111412262D01*
X151090691Y-111412262D01*
X150999976Y-111442500D01*
X150969738Y-111472738D01*
X150425453Y-111412262D02*
X150546405Y-111412262D01*
X150606881Y-111442500D01*
X150637119Y-111472738D01*
X150697596Y-111563452D01*
X150727834Y-111684405D01*
X150727834Y-111926310D01*
X150697596Y-111986786D01*
X150667357Y-112017024D01*
X150606881Y-112047262D01*
X150485929Y-112047262D01*
X150425453Y-112017024D01*
X150395215Y-111986786D01*
X150364976Y-111926310D01*
X150364976Y-111775119D01*
X150395215Y-111714643D01*
X150425453Y-111684405D01*
X150485929Y-111654167D01*
X150606881Y-111654167D01*
X150667357Y-111684405D01*
X150697596Y-111714643D01*
X150727834Y-111775119D01*
X150002119Y-111412262D02*
X150002119Y-111563452D01*
X150153310Y-111502976D02*
X150002119Y-111563452D01*
X149850929Y-111502976D01*
X150092834Y-111684405D02*
X150002119Y-111563452D01*
X149911405Y-111684405D01*
X151504953Y-109477024D02*
X151414238Y-109507262D01*
X151263048Y-109507262D01*
X151202572Y-109477024D01*
X151172334Y-109446786D01*
X151142095Y-109386310D01*
X151142095Y-109325833D01*
X151172334Y-109265357D01*
X151202572Y-109235119D01*
X151263048Y-109204881D01*
X151384000Y-109174643D01*
X151444476Y-109144405D01*
X151474715Y-109114167D01*
X151504953Y-109053690D01*
X151504953Y-108993214D01*
X151474715Y-108932738D01*
X151444476Y-108902500D01*
X151384000Y-108872262D01*
X151232810Y-108872262D01*
X151142095Y-108902500D01*
X150507095Y-109446786D02*
X150537333Y-109477024D01*
X150628048Y-109507262D01*
X150688524Y-109507262D01*
X150779238Y-109477024D01*
X150839714Y-109416548D01*
X150869953Y-109356071D01*
X150900191Y-109235119D01*
X150900191Y-109144405D01*
X150869953Y-109023452D01*
X150839714Y-108962976D01*
X150779238Y-108902500D01*
X150688524Y-108872262D01*
X150628048Y-108872262D01*
X150537333Y-108902500D01*
X150507095Y-108932738D01*
X149932572Y-109507262D02*
X150234953Y-109507262D01*
X150234953Y-108872262D01*
M02*
