G04 #@! TF.FileFunction,Legend,Top*
%FSLAX46Y46*%
G04 Gerber Fmt 4.6, Leading zero omitted, Abs format (unit mm)*
G04 Created by KiCad (PCBNEW 4.0.0-rc1-stable) date 10/19/2015 11:16:30 PM*
%MOMM*%
G01*
G04 APERTURE LIST*
%ADD10C,0.100000*%
%ADD11C,0.152400*%
%ADD12C,0.150000*%
G04 APERTURE END LIST*
D10*
D11*
X132451928Y-121886738D02*
X132482166Y-121856500D01*
X132542643Y-121826262D01*
X132693833Y-121826262D01*
X132754309Y-121856500D01*
X132784547Y-121886738D01*
X132814786Y-121947214D01*
X132814786Y-122007690D01*
X132784547Y-122098405D01*
X132421690Y-122461262D01*
X132814786Y-122461262D01*
X133086928Y-122400786D02*
X133117167Y-122431024D01*
X133086928Y-122461262D01*
X133056690Y-122431024D01*
X133086928Y-122400786D01*
X133086928Y-122461262D01*
X133510262Y-121826262D02*
X133570738Y-121826262D01*
X133631214Y-121856500D01*
X133661452Y-121886738D01*
X133691690Y-121947214D01*
X133721929Y-122068167D01*
X133721929Y-122219357D01*
X133691690Y-122340310D01*
X133661452Y-122400786D01*
X133631214Y-122431024D01*
X133570738Y-122461262D01*
X133510262Y-122461262D01*
X133449786Y-122431024D01*
X133419548Y-122400786D01*
X133389309Y-122340310D01*
X133359071Y-122219357D01*
X133359071Y-122068167D01*
X133389309Y-121947214D01*
X133419548Y-121886738D01*
X133449786Y-121856500D01*
X133510262Y-121826262D01*
X134266214Y-122037929D02*
X134266214Y-122461262D01*
X134115024Y-121796024D02*
X133963833Y-122249595D01*
X134356929Y-122249595D01*
X134689548Y-122098405D02*
X134629072Y-122068167D01*
X134598833Y-122037929D01*
X134568595Y-121977452D01*
X134568595Y-121947214D01*
X134598833Y-121886738D01*
X134629072Y-121856500D01*
X134689548Y-121826262D01*
X134810500Y-121826262D01*
X134870976Y-121856500D01*
X134901214Y-121886738D01*
X134931453Y-121947214D01*
X134931453Y-121977452D01*
X134901214Y-122037929D01*
X134870976Y-122068167D01*
X134810500Y-122098405D01*
X134689548Y-122098405D01*
X134629072Y-122128643D01*
X134598833Y-122158881D01*
X134568595Y-122219357D01*
X134568595Y-122340310D01*
X134598833Y-122400786D01*
X134629072Y-122431024D01*
X134689548Y-122461262D01*
X134810500Y-122461262D01*
X134870976Y-122431024D01*
X134901214Y-122400786D01*
X134931453Y-122340310D01*
X134931453Y-122219357D01*
X134901214Y-122158881D01*
X134870976Y-122128643D01*
X134810500Y-122098405D01*
X135112881Y-121826262D02*
X135324548Y-122461262D01*
X135536215Y-121826262D01*
X136201453Y-122279833D02*
X136503834Y-122279833D01*
X136140977Y-122461262D02*
X136352644Y-121826262D01*
X136564311Y-122461262D01*
X136775977Y-122461262D02*
X136775977Y-122037929D01*
X136775977Y-122158881D02*
X136806216Y-122098405D01*
X136836454Y-122068167D01*
X136896930Y-122037929D01*
X136957406Y-122037929D01*
X137410977Y-122431024D02*
X137350501Y-122461262D01*
X137229549Y-122461262D01*
X137169072Y-122431024D01*
X137138834Y-122370548D01*
X137138834Y-122128643D01*
X137169072Y-122068167D01*
X137229549Y-122037929D01*
X137350501Y-122037929D01*
X137410977Y-122068167D01*
X137441215Y-122128643D01*
X137441215Y-122189119D01*
X137138834Y-122249595D01*
X137622644Y-122037929D02*
X137864549Y-122037929D01*
X137713358Y-122461262D02*
X137713358Y-121916976D01*
X137743597Y-121856500D01*
X137804073Y-121826262D01*
X137864549Y-121826262D01*
X132424713Y-120810262D02*
X132817809Y-120810262D01*
X132606142Y-121052167D01*
X132696856Y-121052167D01*
X132757332Y-121082405D01*
X132787570Y-121112643D01*
X132817809Y-121173119D01*
X132817809Y-121324310D01*
X132787570Y-121384786D01*
X132757332Y-121415024D01*
X132696856Y-121445262D01*
X132515428Y-121445262D01*
X132454951Y-121415024D01*
X132424713Y-121384786D01*
X133089951Y-121384786D02*
X133120190Y-121415024D01*
X133089951Y-121445262D01*
X133059713Y-121415024D01*
X133089951Y-121384786D01*
X133089951Y-121445262D01*
X133331856Y-120810262D02*
X133724952Y-120810262D01*
X133513285Y-121052167D01*
X133603999Y-121052167D01*
X133664475Y-121082405D01*
X133694713Y-121112643D01*
X133724952Y-121173119D01*
X133724952Y-121324310D01*
X133694713Y-121384786D01*
X133664475Y-121415024D01*
X133603999Y-121445262D01*
X133422571Y-121445262D01*
X133362094Y-121415024D01*
X133331856Y-121384786D01*
X133906380Y-120810262D02*
X134118047Y-121445262D01*
X134329714Y-120810262D01*
X135025190Y-121445262D02*
X135025190Y-121021929D01*
X135025190Y-120810262D02*
X134994952Y-120840500D01*
X135025190Y-120870738D01*
X135055429Y-120840500D01*
X135025190Y-120810262D01*
X135025190Y-120870738D01*
X135327571Y-121021929D02*
X135327571Y-121445262D01*
X135327571Y-121082405D02*
X135357810Y-121052167D01*
X135418286Y-121021929D01*
X135509000Y-121021929D01*
X135569476Y-121052167D01*
X135599714Y-121112643D01*
X135599714Y-121445262D01*
X136355667Y-120780024D02*
X135811381Y-121596452D01*
X136658048Y-121445262D02*
X136597572Y-121415024D01*
X136567333Y-121384786D01*
X136537095Y-121324310D01*
X136537095Y-121142881D01*
X136567333Y-121082405D01*
X136597572Y-121052167D01*
X136658048Y-121021929D01*
X136748762Y-121021929D01*
X136809238Y-121052167D01*
X136839476Y-121082405D01*
X136869714Y-121142881D01*
X136869714Y-121324310D01*
X136839476Y-121384786D01*
X136809238Y-121415024D01*
X136748762Y-121445262D01*
X136658048Y-121445262D01*
X137414000Y-121021929D02*
X137414000Y-121445262D01*
X137141857Y-121021929D02*
X137141857Y-121354548D01*
X137172096Y-121415024D01*
X137232572Y-121445262D01*
X137323286Y-121445262D01*
X137383762Y-121415024D01*
X137414000Y-121384786D01*
X137625667Y-121021929D02*
X137867572Y-121021929D01*
X137716381Y-120810262D02*
X137716381Y-121354548D01*
X137746620Y-121415024D01*
X137807096Y-121445262D01*
X137867572Y-121445262D01*
X138079238Y-121021929D02*
X138079238Y-121656929D01*
X138079238Y-121052167D02*
X138139715Y-121021929D01*
X138260667Y-121021929D01*
X138321143Y-121052167D01*
X138351381Y-121082405D01*
X138381619Y-121142881D01*
X138381619Y-121324310D01*
X138351381Y-121384786D01*
X138321143Y-121415024D01*
X138260667Y-121445262D01*
X138139715Y-121445262D01*
X138079238Y-121415024D01*
X138925905Y-121021929D02*
X138925905Y-121445262D01*
X138653762Y-121021929D02*
X138653762Y-121354548D01*
X138684001Y-121415024D01*
X138744477Y-121445262D01*
X138835191Y-121445262D01*
X138895667Y-121415024D01*
X138925905Y-121384786D01*
X139137572Y-121021929D02*
X139379477Y-121021929D01*
X139228286Y-120810262D02*
X139228286Y-121354548D01*
X139258525Y-121415024D01*
X139319001Y-121445262D01*
X139379477Y-121445262D01*
X139560905Y-121415024D02*
X139621382Y-121445262D01*
X139742334Y-121445262D01*
X139802810Y-121415024D01*
X139833048Y-121354548D01*
X139833048Y-121324310D01*
X139802810Y-121263833D01*
X139742334Y-121233595D01*
X139651620Y-121233595D01*
X139591143Y-121203357D01*
X139560905Y-121142881D01*
X139560905Y-121112643D01*
X139591143Y-121052167D01*
X139651620Y-121021929D01*
X139742334Y-121021929D01*
X139802810Y-121052167D01*
X128774976Y-109174643D02*
X128865690Y-109204881D01*
X128895929Y-109235119D01*
X128926167Y-109295595D01*
X128926167Y-109386310D01*
X128895929Y-109446786D01*
X128865690Y-109477024D01*
X128805214Y-109507262D01*
X128563309Y-109507262D01*
X128563309Y-108872262D01*
X128774976Y-108872262D01*
X128835452Y-108902500D01*
X128865690Y-108932738D01*
X128895929Y-108993214D01*
X128895929Y-109053690D01*
X128865690Y-109114167D01*
X128835452Y-109144405D01*
X128774976Y-109174643D01*
X128563309Y-109174643D01*
X129530929Y-109507262D02*
X129168071Y-109507262D01*
X129349500Y-109507262D02*
X129349500Y-108872262D01*
X129289024Y-108962976D01*
X129228548Y-109023452D01*
X129168071Y-109053690D01*
X128436309Y-112047262D02*
X128436309Y-111412262D01*
X128587500Y-111412262D01*
X128678214Y-111442500D01*
X128738690Y-111502976D01*
X128768929Y-111563452D01*
X128799167Y-111684405D01*
X128799167Y-111775119D01*
X128768929Y-111896071D01*
X128738690Y-111956548D01*
X128678214Y-112017024D01*
X128587500Y-112047262D01*
X128436309Y-112047262D01*
X129041071Y-111472738D02*
X129071309Y-111442500D01*
X129131786Y-111412262D01*
X129282976Y-111412262D01*
X129343452Y-111442500D01*
X129373690Y-111472738D01*
X129403929Y-111533214D01*
X129403929Y-111593690D01*
X129373690Y-111684405D01*
X129010833Y-112047262D01*
X129403929Y-112047262D01*
X128436309Y-114587262D02*
X128436309Y-113952262D01*
X128587500Y-113952262D01*
X128678214Y-113982500D01*
X128738690Y-114042976D01*
X128768929Y-114103452D01*
X128799167Y-114224405D01*
X128799167Y-114315119D01*
X128768929Y-114436071D01*
X128738690Y-114496548D01*
X128678214Y-114557024D01*
X128587500Y-114587262D01*
X128436309Y-114587262D01*
X129010833Y-113952262D02*
X129403929Y-113952262D01*
X129192262Y-114194167D01*
X129282976Y-114194167D01*
X129343452Y-114224405D01*
X129373690Y-114254643D01*
X129403929Y-114315119D01*
X129403929Y-114466310D01*
X129373690Y-114526786D01*
X129343452Y-114557024D01*
X129282976Y-114587262D01*
X129101548Y-114587262D01*
X129041071Y-114557024D01*
X129010833Y-114526786D01*
X128167191Y-116522500D02*
X128106714Y-116492262D01*
X128016000Y-116492262D01*
X127925286Y-116522500D01*
X127864810Y-116582976D01*
X127834571Y-116643452D01*
X127804333Y-116764405D01*
X127804333Y-116855119D01*
X127834571Y-116976071D01*
X127864810Y-117036548D01*
X127925286Y-117097024D01*
X128016000Y-117127262D01*
X128076476Y-117127262D01*
X128167191Y-117097024D01*
X128197429Y-117066786D01*
X128197429Y-116855119D01*
X128076476Y-116855119D01*
X128469571Y-117127262D02*
X128469571Y-116492262D01*
X128832429Y-117127262D01*
X128832429Y-116492262D01*
X129134809Y-117127262D02*
X129134809Y-116492262D01*
X129286000Y-116492262D01*
X129376714Y-116522500D01*
X129437190Y-116582976D01*
X129467429Y-116643452D01*
X129497667Y-116764405D01*
X129497667Y-116855119D01*
X129467429Y-116976071D01*
X129437190Y-117036548D01*
X129376714Y-117097024D01*
X129286000Y-117127262D01*
X129134809Y-117127262D01*
X128563309Y-119667262D02*
X128563309Y-119032262D01*
X128714500Y-119032262D01*
X128805214Y-119062500D01*
X128865690Y-119122976D01*
X128895929Y-119183452D01*
X128926167Y-119304405D01*
X128926167Y-119395119D01*
X128895929Y-119516071D01*
X128865690Y-119576548D01*
X128805214Y-119637024D01*
X128714500Y-119667262D01*
X128563309Y-119667262D01*
X129470452Y-119243929D02*
X129470452Y-119667262D01*
X129319262Y-119002024D02*
X129168071Y-119455595D01*
X129561167Y-119455595D01*
X129165047Y-121572262D02*
X128862666Y-121572262D01*
X128832428Y-121874643D01*
X128862666Y-121844405D01*
X128923143Y-121814167D01*
X129074333Y-121814167D01*
X129134809Y-121844405D01*
X129165047Y-121874643D01*
X129195286Y-121935119D01*
X129195286Y-122086310D01*
X129165047Y-122146786D01*
X129134809Y-122177024D01*
X129074333Y-122207262D01*
X128923143Y-122207262D01*
X128862666Y-122177024D01*
X128832428Y-122146786D01*
X129376714Y-121572262D02*
X129588381Y-122207262D01*
X129800048Y-121572262D01*
X150247047Y-108872262D02*
X149944666Y-108872262D01*
X149914428Y-109174643D01*
X149944666Y-109144405D01*
X150005143Y-109114167D01*
X150156333Y-109114167D01*
X150216809Y-109144405D01*
X150247047Y-109174643D01*
X150277286Y-109235119D01*
X150277286Y-109386310D01*
X150247047Y-109446786D01*
X150216809Y-109477024D01*
X150156333Y-109507262D01*
X150005143Y-109507262D01*
X149944666Y-109477024D01*
X149914428Y-109446786D01*
X150458714Y-108872262D02*
X150670381Y-109507262D01*
X150882048Y-108872262D01*
X149977928Y-112017024D02*
X150068643Y-112047262D01*
X150219833Y-112047262D01*
X150280309Y-112017024D01*
X150310547Y-111986786D01*
X150340786Y-111926310D01*
X150340786Y-111865833D01*
X150310547Y-111805357D01*
X150280309Y-111775119D01*
X150219833Y-111744881D01*
X150098881Y-111714643D01*
X150038405Y-111684405D01*
X150008166Y-111654167D01*
X149977928Y-111593690D01*
X149977928Y-111533214D01*
X150008166Y-111472738D01*
X150038405Y-111442500D01*
X150098881Y-111412262D01*
X150250071Y-111412262D01*
X150340786Y-111442500D01*
X150612928Y-112047262D02*
X150612928Y-111412262D01*
X150764119Y-111412262D01*
X150854833Y-111442500D01*
X150915309Y-111502976D01*
X150945548Y-111563452D01*
X150975786Y-111684405D01*
X150975786Y-111775119D01*
X150945548Y-111896071D01*
X150915309Y-111956548D01*
X150854833Y-112017024D01*
X150764119Y-112047262D01*
X150612928Y-112047262D01*
X151217690Y-111865833D02*
X151520071Y-111865833D01*
X151157214Y-112047262D02*
X151368881Y-111412262D01*
X151580548Y-112047262D01*
X149884190Y-114405833D02*
X150186571Y-114405833D01*
X149823714Y-114587262D02*
X150035381Y-113952262D01*
X150247048Y-114587262D01*
X150791334Y-113982500D02*
X150730857Y-113952262D01*
X150640143Y-113952262D01*
X150549429Y-113982500D01*
X150488953Y-114042976D01*
X150458714Y-114103452D01*
X150428476Y-114224405D01*
X150428476Y-114315119D01*
X150458714Y-114436071D01*
X150488953Y-114496548D01*
X150549429Y-114557024D01*
X150640143Y-114587262D01*
X150700619Y-114587262D01*
X150791334Y-114557024D01*
X150821572Y-114526786D01*
X150821572Y-114315119D01*
X150700619Y-114315119D01*
X151093714Y-114587262D02*
X151093714Y-113952262D01*
X151456572Y-114587262D01*
X151456572Y-113952262D01*
X151758952Y-114587262D02*
X151758952Y-113952262D01*
X151910143Y-113952262D01*
X152000857Y-113982500D01*
X152061333Y-114042976D01*
X152091572Y-114103452D01*
X152121810Y-114224405D01*
X152121810Y-114315119D01*
X152091572Y-114436071D01*
X152061333Y-114496548D01*
X152000857Y-114557024D01*
X151910143Y-114587262D01*
X151758952Y-114587262D01*
X150135167Y-117066786D02*
X150104929Y-117097024D01*
X150014214Y-117127262D01*
X149953738Y-117127262D01*
X149863024Y-117097024D01*
X149802548Y-117036548D01*
X149772309Y-116976071D01*
X149742071Y-116855119D01*
X149742071Y-116764405D01*
X149772309Y-116643452D01*
X149802548Y-116582976D01*
X149863024Y-116522500D01*
X149953738Y-116492262D01*
X150014214Y-116492262D01*
X150104929Y-116522500D01*
X150135167Y-116552738D01*
X150346833Y-116492262D02*
X150739929Y-116492262D01*
X150528262Y-116734167D01*
X150618976Y-116734167D01*
X150679452Y-116764405D01*
X150709690Y-116794643D01*
X150739929Y-116855119D01*
X150739929Y-117006310D01*
X150709690Y-117066786D01*
X150679452Y-117097024D01*
X150618976Y-117127262D01*
X150437548Y-117127262D01*
X150377071Y-117097024D01*
X150346833Y-117066786D01*
X150135167Y-119606786D02*
X150104929Y-119637024D01*
X150014214Y-119667262D01*
X149953738Y-119667262D01*
X149863024Y-119637024D01*
X149802548Y-119576548D01*
X149772309Y-119516071D01*
X149742071Y-119395119D01*
X149742071Y-119304405D01*
X149772309Y-119183452D01*
X149802548Y-119122976D01*
X149863024Y-119062500D01*
X149953738Y-119032262D01*
X150014214Y-119032262D01*
X150104929Y-119062500D01*
X150135167Y-119092738D01*
X150377071Y-119092738D02*
X150407309Y-119062500D01*
X150467786Y-119032262D01*
X150618976Y-119032262D01*
X150679452Y-119062500D01*
X150709690Y-119092738D01*
X150739929Y-119153214D01*
X150739929Y-119213690D01*
X150709690Y-119304405D01*
X150346833Y-119667262D01*
X150739929Y-119667262D01*
X150135167Y-122273786D02*
X150104929Y-122304024D01*
X150014214Y-122334262D01*
X149953738Y-122334262D01*
X149863024Y-122304024D01*
X149802548Y-122243548D01*
X149772309Y-122183071D01*
X149742071Y-122062119D01*
X149742071Y-121971405D01*
X149772309Y-121850452D01*
X149802548Y-121789976D01*
X149863024Y-121729500D01*
X149953738Y-121699262D01*
X150014214Y-121699262D01*
X150104929Y-121729500D01*
X150135167Y-121759738D01*
X150739929Y-122334262D02*
X150377071Y-122334262D01*
X150558500Y-122334262D02*
X150558500Y-121699262D01*
X150498024Y-121789976D01*
X150437548Y-121850452D01*
X150377071Y-121880690D01*
X147099262Y-124834953D02*
X147099262Y-125137334D01*
X147401643Y-125167572D01*
X147371405Y-125137334D01*
X147341167Y-125076857D01*
X147341167Y-124925667D01*
X147371405Y-124865191D01*
X147401643Y-124834953D01*
X147462119Y-124804714D01*
X147613310Y-124804714D01*
X147673786Y-124834953D01*
X147704024Y-124865191D01*
X147734262Y-124925667D01*
X147734262Y-125076857D01*
X147704024Y-125137334D01*
X147673786Y-125167572D01*
X147099262Y-124623286D02*
X147734262Y-124411619D01*
X147099262Y-124199952D01*
X145037024Y-126120072D02*
X145067262Y-126029357D01*
X145067262Y-125878167D01*
X145037024Y-125817691D01*
X145006786Y-125787453D01*
X144946310Y-125757214D01*
X144885833Y-125757214D01*
X144825357Y-125787453D01*
X144795119Y-125817691D01*
X144764881Y-125878167D01*
X144734643Y-125999119D01*
X144704405Y-126059595D01*
X144674167Y-126089834D01*
X144613690Y-126120072D01*
X144553214Y-126120072D01*
X144492738Y-126089834D01*
X144462500Y-126059595D01*
X144432262Y-125999119D01*
X144432262Y-125847929D01*
X144462500Y-125757214D01*
X145067262Y-125485072D02*
X144432262Y-125485072D01*
X144432262Y-125333881D01*
X144462500Y-125243167D01*
X144522976Y-125182691D01*
X144583452Y-125152452D01*
X144704405Y-125122214D01*
X144795119Y-125122214D01*
X144916071Y-125152452D01*
X144976548Y-125182691D01*
X145037024Y-125243167D01*
X145067262Y-125333881D01*
X145067262Y-125485072D01*
X144885833Y-124880310D02*
X144885833Y-124577929D01*
X145067262Y-124940786D02*
X144432262Y-124729119D01*
X145067262Y-124517452D01*
X141922500Y-125832809D02*
X141892262Y-125893286D01*
X141892262Y-125984000D01*
X141922500Y-126074714D01*
X141982976Y-126135190D01*
X142043452Y-126165429D01*
X142164405Y-126195667D01*
X142255119Y-126195667D01*
X142376071Y-126165429D01*
X142436548Y-126135190D01*
X142497024Y-126074714D01*
X142527262Y-125984000D01*
X142527262Y-125923524D01*
X142497024Y-125832809D01*
X142466786Y-125802571D01*
X142255119Y-125802571D01*
X142255119Y-125923524D01*
X142527262Y-125530429D02*
X141892262Y-125530429D01*
X142527262Y-125167571D01*
X141892262Y-125167571D01*
X142527262Y-124865191D02*
X141892262Y-124865191D01*
X141892262Y-124714000D01*
X141922500Y-124623286D01*
X141982976Y-124562810D01*
X142043452Y-124532571D01*
X142164405Y-124502333D01*
X142255119Y-124502333D01*
X142376071Y-124532571D01*
X142436548Y-124562810D01*
X142497024Y-124623286D01*
X142527262Y-124714000D01*
X142527262Y-124865191D01*
X140084024Y-125578810D02*
X140114262Y-125488095D01*
X140114262Y-125336905D01*
X140084024Y-125276429D01*
X140053786Y-125246191D01*
X139993310Y-125215952D01*
X139932833Y-125215952D01*
X139872357Y-125246191D01*
X139842119Y-125276429D01*
X139811881Y-125336905D01*
X139781643Y-125457857D01*
X139751405Y-125518333D01*
X139721167Y-125548572D01*
X139660690Y-125578810D01*
X139600214Y-125578810D01*
X139539738Y-125548572D01*
X139509500Y-125518333D01*
X139479262Y-125457857D01*
X139479262Y-125306667D01*
X139509500Y-125215952D01*
X140084024Y-124974048D02*
X140114262Y-124883333D01*
X140114262Y-124732143D01*
X140084024Y-124671667D01*
X140053786Y-124641429D01*
X139993310Y-124611190D01*
X139932833Y-124611190D01*
X139872357Y-124641429D01*
X139842119Y-124671667D01*
X139811881Y-124732143D01*
X139781643Y-124853095D01*
X139751405Y-124913571D01*
X139721167Y-124943810D01*
X139660690Y-124974048D01*
X139600214Y-124974048D01*
X139539738Y-124943810D01*
X139509500Y-124913571D01*
X139479262Y-124853095D01*
X139479262Y-124701905D01*
X139509500Y-124611190D01*
X139369800Y-125699762D02*
X139369800Y-124490238D01*
X137417024Y-126165429D02*
X137447262Y-126074714D01*
X137447262Y-125923524D01*
X137417024Y-125863048D01*
X137386786Y-125832810D01*
X137326310Y-125802571D01*
X137265833Y-125802571D01*
X137205357Y-125832810D01*
X137175119Y-125863048D01*
X137144881Y-125923524D01*
X137114643Y-126044476D01*
X137084405Y-126104952D01*
X137054167Y-126135191D01*
X136993690Y-126165429D01*
X136933214Y-126165429D01*
X136872738Y-126135191D01*
X136842500Y-126104952D01*
X136812262Y-126044476D01*
X136812262Y-125893286D01*
X136842500Y-125802571D01*
X137386786Y-125167571D02*
X137417024Y-125197809D01*
X137447262Y-125288524D01*
X137447262Y-125349000D01*
X137417024Y-125439714D01*
X137356548Y-125500190D01*
X137296071Y-125530429D01*
X137175119Y-125560667D01*
X137084405Y-125560667D01*
X136963452Y-125530429D01*
X136902976Y-125500190D01*
X136842500Y-125439714D01*
X136812262Y-125349000D01*
X136812262Y-125288524D01*
X136842500Y-125197809D01*
X136872738Y-125167571D01*
X137447262Y-124895429D02*
X136812262Y-124895429D01*
X137447262Y-124532571D02*
X137084405Y-124804714D01*
X136812262Y-124532571D02*
X137175119Y-124895429D01*
X147099262Y-103879953D02*
X147099262Y-104182334D01*
X147401643Y-104212572D01*
X147371405Y-104182334D01*
X147341167Y-104121857D01*
X147341167Y-103970667D01*
X147371405Y-103910191D01*
X147401643Y-103879953D01*
X147462119Y-103849714D01*
X147613310Y-103849714D01*
X147673786Y-103879953D01*
X147704024Y-103910191D01*
X147734262Y-103970667D01*
X147734262Y-104121857D01*
X147704024Y-104182334D01*
X147673786Y-104212572D01*
X147099262Y-103668286D02*
X147734262Y-103456619D01*
X147099262Y-103244952D01*
X145037024Y-104022072D02*
X145067262Y-103931357D01*
X145067262Y-103780167D01*
X145037024Y-103719691D01*
X145006786Y-103689453D01*
X144946310Y-103659214D01*
X144885833Y-103659214D01*
X144825357Y-103689453D01*
X144795119Y-103719691D01*
X144764881Y-103780167D01*
X144734643Y-103901119D01*
X144704405Y-103961595D01*
X144674167Y-103991834D01*
X144613690Y-104022072D01*
X144553214Y-104022072D01*
X144492738Y-103991834D01*
X144462500Y-103961595D01*
X144432262Y-103901119D01*
X144432262Y-103749929D01*
X144462500Y-103659214D01*
X145067262Y-103387072D02*
X144432262Y-103387072D01*
X144432262Y-103235881D01*
X144462500Y-103145167D01*
X144522976Y-103084691D01*
X144583452Y-103054452D01*
X144704405Y-103024214D01*
X144795119Y-103024214D01*
X144916071Y-103054452D01*
X144976548Y-103084691D01*
X145037024Y-103145167D01*
X145067262Y-103235881D01*
X145067262Y-103387072D01*
X144885833Y-102782310D02*
X144885833Y-102479929D01*
X145067262Y-102842786D02*
X144432262Y-102631119D01*
X145067262Y-102419452D01*
X141922500Y-103734809D02*
X141892262Y-103795286D01*
X141892262Y-103886000D01*
X141922500Y-103976714D01*
X141982976Y-104037190D01*
X142043452Y-104067429D01*
X142164405Y-104097667D01*
X142255119Y-104097667D01*
X142376071Y-104067429D01*
X142436548Y-104037190D01*
X142497024Y-103976714D01*
X142527262Y-103886000D01*
X142527262Y-103825524D01*
X142497024Y-103734809D01*
X142466786Y-103704571D01*
X142255119Y-103704571D01*
X142255119Y-103825524D01*
X142527262Y-103432429D02*
X141892262Y-103432429D01*
X142527262Y-103069571D01*
X141892262Y-103069571D01*
X142527262Y-102767191D02*
X141892262Y-102767191D01*
X141892262Y-102616000D01*
X141922500Y-102525286D01*
X141982976Y-102464810D01*
X142043452Y-102434571D01*
X142164405Y-102404333D01*
X142255119Y-102404333D01*
X142376071Y-102434571D01*
X142436548Y-102464810D01*
X142497024Y-102525286D01*
X142527262Y-102616000D01*
X142527262Y-102767191D01*
X140114262Y-103598738D02*
X139811881Y-103810405D01*
X140114262Y-103961596D02*
X139479262Y-103961596D01*
X139479262Y-103719691D01*
X139509500Y-103659215D01*
X139539738Y-103628976D01*
X139600214Y-103598738D01*
X139690929Y-103598738D01*
X139751405Y-103628976D01*
X139781643Y-103659215D01*
X139811881Y-103719691D01*
X139811881Y-103961596D01*
X140084024Y-103356834D02*
X140114262Y-103266119D01*
X140114262Y-103114929D01*
X140084024Y-103054453D01*
X140053786Y-103024215D01*
X139993310Y-102993976D01*
X139932833Y-102993976D01*
X139872357Y-103024215D01*
X139842119Y-103054453D01*
X139811881Y-103114929D01*
X139781643Y-103235881D01*
X139751405Y-103296357D01*
X139721167Y-103326596D01*
X139660690Y-103356834D01*
X139600214Y-103356834D01*
X139539738Y-103326596D01*
X139509500Y-103296357D01*
X139479262Y-103235881D01*
X139479262Y-103084691D01*
X139509500Y-102993976D01*
X139479262Y-102812548D02*
X139479262Y-102449691D01*
X140114262Y-102631119D02*
X139479262Y-102631119D01*
X139369800Y-104112786D02*
X139369800Y-102389214D01*
X137417024Y-104067429D02*
X137447262Y-103976714D01*
X137447262Y-103825524D01*
X137417024Y-103765048D01*
X137386786Y-103734810D01*
X137326310Y-103704571D01*
X137265833Y-103704571D01*
X137205357Y-103734810D01*
X137175119Y-103765048D01*
X137144881Y-103825524D01*
X137114643Y-103946476D01*
X137084405Y-104006952D01*
X137054167Y-104037191D01*
X136993690Y-104067429D01*
X136933214Y-104067429D01*
X136872738Y-104037191D01*
X136842500Y-104006952D01*
X136812262Y-103946476D01*
X136812262Y-103795286D01*
X136842500Y-103704571D01*
X137386786Y-103069571D02*
X137417024Y-103099809D01*
X137447262Y-103190524D01*
X137447262Y-103251000D01*
X137417024Y-103341714D01*
X137356548Y-103402190D01*
X137296071Y-103432429D01*
X137175119Y-103462667D01*
X137084405Y-103462667D01*
X136963452Y-103432429D01*
X136902976Y-103402190D01*
X136842500Y-103341714D01*
X136812262Y-103251000D01*
X136812262Y-103190524D01*
X136842500Y-103099809D01*
X136872738Y-103069571D01*
X137447262Y-102797429D02*
X136812262Y-102797429D01*
X137447262Y-102434571D02*
X137084405Y-102706714D01*
X136812262Y-102434571D02*
X137175119Y-102797429D01*
X134907262Y-126600857D02*
X134272262Y-126600857D01*
X134725833Y-126389190D01*
X134272262Y-126177523D01*
X134907262Y-126177523D01*
X134907262Y-125875143D02*
X134272262Y-125875143D01*
X134877024Y-125603000D02*
X134907262Y-125512285D01*
X134907262Y-125361095D01*
X134877024Y-125300619D01*
X134846786Y-125270381D01*
X134786310Y-125240142D01*
X134725833Y-125240142D01*
X134665357Y-125270381D01*
X134635119Y-125300619D01*
X134604881Y-125361095D01*
X134574643Y-125482047D01*
X134544405Y-125542523D01*
X134514167Y-125572762D01*
X134453690Y-125603000D01*
X134393214Y-125603000D01*
X134332738Y-125572762D01*
X134302500Y-125542523D01*
X134272262Y-125482047D01*
X134272262Y-125330857D01*
X134302500Y-125240142D01*
X134272262Y-124847047D02*
X134272262Y-124726095D01*
X134302500Y-124665619D01*
X134362976Y-124605142D01*
X134483929Y-124574904D01*
X134695595Y-124574904D01*
X134816548Y-124605142D01*
X134877024Y-124665619D01*
X134907262Y-124726095D01*
X134907262Y-124847047D01*
X134877024Y-124907523D01*
X134816548Y-124968000D01*
X134695595Y-124998238D01*
X134483929Y-124998238D01*
X134362976Y-124968000D01*
X134302500Y-124907523D01*
X134272262Y-124847047D01*
X134907262Y-103994857D02*
X134272262Y-103994857D01*
X134725833Y-103783190D01*
X134272262Y-103571523D01*
X134907262Y-103571523D01*
X134907262Y-103269143D02*
X134272262Y-103269143D01*
X134877024Y-102997000D02*
X134907262Y-102906285D01*
X134907262Y-102755095D01*
X134877024Y-102694619D01*
X134846786Y-102664381D01*
X134786310Y-102634142D01*
X134725833Y-102634142D01*
X134665357Y-102664381D01*
X134635119Y-102694619D01*
X134604881Y-102755095D01*
X134574643Y-102876047D01*
X134544405Y-102936523D01*
X134514167Y-102966762D01*
X134453690Y-102997000D01*
X134393214Y-102997000D01*
X134332738Y-102966762D01*
X134302500Y-102936523D01*
X134272262Y-102876047D01*
X134272262Y-102724857D01*
X134302500Y-102634142D01*
X134272262Y-102241047D02*
X134272262Y-102120095D01*
X134302500Y-102059619D01*
X134362976Y-101999142D01*
X134483929Y-101968904D01*
X134695595Y-101968904D01*
X134816548Y-101999142D01*
X134877024Y-102059619D01*
X134907262Y-102120095D01*
X134907262Y-102241047D01*
X134877024Y-102301523D01*
X134816548Y-102362000D01*
X134695595Y-102392238D01*
X134483929Y-102392238D01*
X134362976Y-102362000D01*
X134302500Y-102301523D01*
X134272262Y-102241047D01*
D12*
X142325000Y-111675000D02*
X142325000Y-112200000D01*
X137075000Y-116925000D02*
X137075000Y-116400000D01*
X142325000Y-116925000D02*
X142325000Y-116400000D01*
X137075000Y-111675000D02*
X137600000Y-111675000D01*
X137075000Y-116925000D02*
X137600000Y-116925000D01*
X142325000Y-116925000D02*
X141800000Y-116925000D01*
X142325000Y-111675000D02*
X141800000Y-111675000D01*
X138599980Y-106057000D02*
X135899980Y-106057000D01*
X138599980Y-107557000D02*
X135899980Y-107557000D01*
X137099980Y-106657000D02*
X137099980Y-106907000D01*
X137099980Y-106907000D02*
X137249980Y-106757000D01*
X137349980Y-107157000D02*
X137349980Y-106457000D01*
X136999980Y-106807000D02*
X136649980Y-106807000D01*
X137349980Y-106807000D02*
X136999980Y-107157000D01*
X136999980Y-107157000D02*
X136999980Y-106457000D01*
X136999980Y-106457000D02*
X137349980Y-106807000D01*
X146921020Y-106057000D02*
X144221020Y-106057000D01*
X146921020Y-107557000D02*
X144221020Y-107557000D01*
X145421020Y-106657000D02*
X145421020Y-106907000D01*
X145421020Y-106907000D02*
X145571020Y-106757000D01*
X145671020Y-107157000D02*
X145671020Y-106457000D01*
X145321020Y-106807000D02*
X144971020Y-106807000D01*
X145671020Y-106807000D02*
X145321020Y-107157000D01*
X145321020Y-107157000D02*
X145321020Y-106457000D01*
X145321020Y-106457000D02*
X145671020Y-106807000D01*
X133477000Y-110834160D02*
X133477000Y-110785900D01*
X132775960Y-108035180D02*
X133477000Y-108035180D01*
X133477000Y-108035180D02*
X133477000Y-108284100D01*
X133477000Y-110834160D02*
X133477000Y-111034820D01*
X133477000Y-111034820D02*
X132775960Y-111034820D01*
X147640000Y-118012160D02*
X147640000Y-117963900D01*
X146938960Y-115213180D02*
X147640000Y-115213180D01*
X147640000Y-115213180D02*
X147640000Y-115462100D01*
X147640000Y-118012160D02*
X147640000Y-118212820D01*
X147640000Y-118212820D02*
X146938960Y-118212820D01*
X132226000Y-106080000D02*
X132926000Y-106080000D01*
X132926000Y-107280000D02*
X132226000Y-107280000D01*
X132250000Y-111668000D02*
X132950000Y-111668000D01*
X132950000Y-112868000D02*
X132250000Y-112868000D01*
X146601000Y-112938000D02*
X147301000Y-112938000D01*
X147301000Y-114138000D02*
X146601000Y-114138000D01*
X146523000Y-119931000D02*
X146523000Y-120631000D01*
X145323000Y-120631000D02*
X145323000Y-119931000D01*
X132950000Y-114900000D02*
X132250000Y-114900000D01*
X132250000Y-113700000D02*
X132950000Y-113700000D01*
X135036000Y-118321000D02*
X135036000Y-117621000D01*
X136236000Y-117621000D02*
X136236000Y-118321000D01*
X145800000Y-112054000D02*
X144800000Y-112054000D01*
X144800000Y-110704000D02*
X145800000Y-110704000D01*
X143895000Y-119674000D02*
X142895000Y-119674000D01*
X142895000Y-118324000D02*
X143895000Y-118324000D01*
X136545000Y-108545000D02*
X137545000Y-108545000D01*
X137545000Y-109895000D02*
X136545000Y-109895000D01*
X144788000Y-108545000D02*
X145788000Y-108545000D01*
X145788000Y-109895000D02*
X144788000Y-109895000D01*
X144947000Y-115566000D02*
X144947000Y-116566000D01*
X143597000Y-116566000D02*
X143597000Y-115566000D01*
X141863000Y-110149000D02*
X140863000Y-110149000D01*
X140863000Y-108799000D02*
X141863000Y-108799000D01*
X140736000Y-106259000D02*
X141736000Y-106259000D01*
X141736000Y-107609000D02*
X140736000Y-107609000D01*
X136794119Y-118397262D02*
X136794119Y-117762262D01*
X137459358Y-118336786D02*
X137429120Y-118367024D01*
X137338405Y-118397262D01*
X137277929Y-118397262D01*
X137187215Y-118367024D01*
X137126739Y-118306548D01*
X137096500Y-118246071D01*
X137066262Y-118125119D01*
X137066262Y-118034405D01*
X137096500Y-117913452D01*
X137126739Y-117852976D01*
X137187215Y-117792500D01*
X137277929Y-117762262D01*
X137338405Y-117762262D01*
X137429120Y-117792500D01*
X137459358Y-117822738D01*
X138064120Y-118397262D02*
X137701262Y-118397262D01*
X137882691Y-118397262D02*
X137882691Y-117762262D01*
X137822215Y-117852976D01*
X137761739Y-117913452D01*
X137701262Y-117943690D01*
X139733262Y-107668786D02*
X139098262Y-107668786D01*
X139098262Y-107426881D01*
X139128500Y-107366405D01*
X139158738Y-107336166D01*
X139219214Y-107305928D01*
X139309929Y-107305928D01*
X139370405Y-107336166D01*
X139400643Y-107366405D01*
X139430881Y-107426881D01*
X139430881Y-107668786D01*
X139098262Y-106912833D02*
X139098262Y-106791881D01*
X139128500Y-106731405D01*
X139188976Y-106670928D01*
X139309929Y-106640690D01*
X139521595Y-106640690D01*
X139642548Y-106670928D01*
X139703024Y-106731405D01*
X139733262Y-106791881D01*
X139733262Y-106912833D01*
X139703024Y-106973309D01*
X139642548Y-107033786D01*
X139521595Y-107064024D01*
X139309929Y-107064024D01*
X139188976Y-107033786D01*
X139128500Y-106973309D01*
X139098262Y-106912833D01*
X139098262Y-106429024D02*
X139733262Y-106277833D01*
X139279690Y-106156881D01*
X139733262Y-106035928D01*
X139098262Y-105884738D01*
X147958024Y-107623429D02*
X147988262Y-107532714D01*
X147988262Y-107381524D01*
X147958024Y-107321048D01*
X147927786Y-107290810D01*
X147867310Y-107260571D01*
X147806833Y-107260571D01*
X147746357Y-107290810D01*
X147716119Y-107321048D01*
X147685881Y-107381524D01*
X147655643Y-107502476D01*
X147625405Y-107562952D01*
X147595167Y-107593191D01*
X147534690Y-107623429D01*
X147474214Y-107623429D01*
X147413738Y-107593191D01*
X147383500Y-107562952D01*
X147353262Y-107502476D01*
X147353262Y-107351286D01*
X147383500Y-107260571D01*
X147927786Y-106625571D02*
X147958024Y-106655809D01*
X147988262Y-106746524D01*
X147988262Y-106807000D01*
X147958024Y-106897714D01*
X147897548Y-106958190D01*
X147837071Y-106988429D01*
X147716119Y-107018667D01*
X147625405Y-107018667D01*
X147504452Y-106988429D01*
X147443976Y-106958190D01*
X147383500Y-106897714D01*
X147353262Y-106807000D01*
X147353262Y-106746524D01*
X147383500Y-106655809D01*
X147413738Y-106625571D01*
X147988262Y-106353429D02*
X147353262Y-106353429D01*
X147988262Y-105990571D02*
X147625405Y-106262714D01*
X147353262Y-105990571D02*
X147716119Y-106353429D01*
X135364022Y-110290953D02*
X135364022Y-110593334D01*
X134729022Y-110593334D01*
X135364022Y-110079286D02*
X134729022Y-110079286D01*
X134729022Y-109928095D01*
X134759260Y-109837381D01*
X134819736Y-109776905D01*
X134880212Y-109746666D01*
X135001165Y-109716428D01*
X135091879Y-109716428D01*
X135212831Y-109746666D01*
X135273308Y-109776905D01*
X135333784Y-109837381D01*
X135364022Y-109928095D01*
X135364022Y-110079286D01*
X134729022Y-109323333D02*
X134729022Y-109202381D01*
X134759260Y-109141905D01*
X134819736Y-109081428D01*
X134940689Y-109051190D01*
X135152355Y-109051190D01*
X135273308Y-109081428D01*
X135333784Y-109141905D01*
X135364022Y-109202381D01*
X135364022Y-109323333D01*
X135333784Y-109383809D01*
X135273308Y-109444286D01*
X135152355Y-109474524D01*
X134940689Y-109474524D01*
X134819736Y-109444286D01*
X134759260Y-109383809D01*
X134729022Y-109323333D01*
X135364022Y-108446428D02*
X135364022Y-108809286D01*
X135364022Y-108627857D02*
X134729022Y-108627857D01*
X134819736Y-108688333D01*
X134880212Y-108748809D01*
X134910450Y-108809286D01*
X147090190Y-118651262D02*
X147090190Y-119165310D01*
X147120429Y-119225786D01*
X147150667Y-119256024D01*
X147211143Y-119286262D01*
X147332095Y-119286262D01*
X147392571Y-119256024D01*
X147422810Y-119225786D01*
X147453048Y-119165310D01*
X147453048Y-118651262D01*
X148088048Y-119286262D02*
X147725190Y-119286262D01*
X147906619Y-119286262D02*
X147906619Y-118651262D01*
X147846143Y-118741976D01*
X147785667Y-118802452D01*
X147725190Y-118832690D01*
D11*
X132784548Y-120429262D02*
X132421690Y-120429262D01*
X132603119Y-120429262D02*
X132603119Y-119794262D01*
X132542643Y-119884976D01*
X132482167Y-119945452D01*
X132421690Y-119975690D01*
X133328833Y-119794262D02*
X133207881Y-119794262D01*
X133147405Y-119824500D01*
X133117167Y-119854738D01*
X133056690Y-119945452D01*
X133026452Y-120066405D01*
X133026452Y-120308310D01*
X133056690Y-120368786D01*
X133086929Y-120399024D01*
X133147405Y-120429262D01*
X133268357Y-120429262D01*
X133328833Y-120399024D01*
X133359071Y-120368786D01*
X133389310Y-120308310D01*
X133389310Y-120157119D01*
X133359071Y-120096643D01*
X133328833Y-120066405D01*
X133268357Y-120036167D01*
X133147405Y-120036167D01*
X133086929Y-120066405D01*
X133056690Y-120096643D01*
X133026452Y-120157119D01*
X133661452Y-120429262D02*
X133661452Y-119794262D01*
X133873119Y-120247833D01*
X134084786Y-119794262D01*
X134084786Y-120429262D01*
X134387166Y-120429262D02*
X134387166Y-119794262D01*
X134387166Y-120096643D02*
X134750024Y-120096643D01*
X134750024Y-120429262D02*
X134750024Y-119794262D01*
X134991928Y-120005929D02*
X135324547Y-120005929D01*
X134991928Y-120429262D01*
X135324547Y-120429262D01*
D12*
X134719786Y-106785833D02*
X134750024Y-106816071D01*
X134780262Y-106906786D01*
X134780262Y-106967262D01*
X134750024Y-107057976D01*
X134689548Y-107118452D01*
X134629071Y-107148691D01*
X134508119Y-107178929D01*
X134417405Y-107178929D01*
X134296452Y-107148691D01*
X134235976Y-107118452D01*
X134175500Y-107057976D01*
X134145262Y-106967262D01*
X134145262Y-106906786D01*
X134175500Y-106816071D01*
X134205738Y-106785833D01*
X134780262Y-106181071D02*
X134780262Y-106543929D01*
X134780262Y-106362500D02*
X134145262Y-106362500D01*
X134235976Y-106422976D01*
X134296452Y-106483452D01*
X134326690Y-106543929D01*
X135862786Y-112373833D02*
X135893024Y-112404071D01*
X135923262Y-112494786D01*
X135923262Y-112555262D01*
X135893024Y-112645976D01*
X135832548Y-112706452D01*
X135772071Y-112736691D01*
X135651119Y-112766929D01*
X135560405Y-112766929D01*
X135439452Y-112736691D01*
X135378976Y-112706452D01*
X135318500Y-112645976D01*
X135288262Y-112555262D01*
X135288262Y-112494786D01*
X135318500Y-112404071D01*
X135348738Y-112373833D01*
X135348738Y-112131929D02*
X135318500Y-112101691D01*
X135288262Y-112041214D01*
X135288262Y-111890024D01*
X135318500Y-111829548D01*
X135348738Y-111799310D01*
X135409214Y-111769071D01*
X135469690Y-111769071D01*
X135560405Y-111799310D01*
X135923262Y-112162167D01*
X135923262Y-111769071D01*
X148992167Y-113510786D02*
X148961929Y-113541024D01*
X148871214Y-113571262D01*
X148810738Y-113571262D01*
X148720024Y-113541024D01*
X148659548Y-113480548D01*
X148629309Y-113420071D01*
X148599071Y-113299119D01*
X148599071Y-113208405D01*
X148629309Y-113087452D01*
X148659548Y-113026976D01*
X148720024Y-112966500D01*
X148810738Y-112936262D01*
X148871214Y-112936262D01*
X148961929Y-112966500D01*
X148992167Y-112996738D01*
X149203833Y-112936262D02*
X149596929Y-112936262D01*
X149385262Y-113178167D01*
X149475976Y-113178167D01*
X149536452Y-113208405D01*
X149566690Y-113238643D01*
X149596929Y-113299119D01*
X149596929Y-113450310D01*
X149566690Y-113510786D01*
X149536452Y-113541024D01*
X149475976Y-113571262D01*
X149294548Y-113571262D01*
X149234071Y-113541024D01*
X149203833Y-113510786D01*
X147341167Y-120876786D02*
X147310929Y-120907024D01*
X147220214Y-120937262D01*
X147159738Y-120937262D01*
X147069024Y-120907024D01*
X147008548Y-120846548D01*
X146978309Y-120786071D01*
X146948071Y-120665119D01*
X146948071Y-120574405D01*
X146978309Y-120453452D01*
X147008548Y-120392976D01*
X147069024Y-120332500D01*
X147159738Y-120302262D01*
X147220214Y-120302262D01*
X147310929Y-120332500D01*
X147341167Y-120362738D01*
X147885452Y-120513929D02*
X147885452Y-120937262D01*
X147734262Y-120272024D02*
X147583071Y-120725595D01*
X147976167Y-120725595D01*
X134973786Y-114532833D02*
X135004024Y-114563071D01*
X135034262Y-114653786D01*
X135034262Y-114714262D01*
X135004024Y-114804976D01*
X134943548Y-114865452D01*
X134883071Y-114895691D01*
X134762119Y-114925929D01*
X134671405Y-114925929D01*
X134550452Y-114895691D01*
X134489976Y-114865452D01*
X134429500Y-114804976D01*
X134399262Y-114714262D01*
X134399262Y-114653786D01*
X134429500Y-114563071D01*
X134459738Y-114532833D01*
X134399262Y-113958310D02*
X134399262Y-114260691D01*
X134701643Y-114290929D01*
X134671405Y-114260691D01*
X134641167Y-114200214D01*
X134641167Y-114049024D01*
X134671405Y-113988548D01*
X134701643Y-113958310D01*
X134762119Y-113928071D01*
X134913310Y-113928071D01*
X134973786Y-113958310D01*
X135004024Y-113988548D01*
X135034262Y-114049024D01*
X135034262Y-114200214D01*
X135004024Y-114260691D01*
X134973786Y-114290929D01*
X137054167Y-119479786D02*
X137023929Y-119510024D01*
X136933214Y-119540262D01*
X136872738Y-119540262D01*
X136782024Y-119510024D01*
X136721548Y-119449548D01*
X136691309Y-119389071D01*
X136661071Y-119268119D01*
X136661071Y-119177405D01*
X136691309Y-119056452D01*
X136721548Y-118995976D01*
X136782024Y-118935500D01*
X136872738Y-118905262D01*
X136933214Y-118905262D01*
X137023929Y-118935500D01*
X137054167Y-118965738D01*
X137598452Y-118905262D02*
X137477500Y-118905262D01*
X137417024Y-118935500D01*
X137386786Y-118965738D01*
X137326309Y-119056452D01*
X137296071Y-119177405D01*
X137296071Y-119419310D01*
X137326309Y-119479786D01*
X137356548Y-119510024D01*
X137417024Y-119540262D01*
X137537976Y-119540262D01*
X137598452Y-119510024D01*
X137628690Y-119479786D01*
X137658929Y-119419310D01*
X137658929Y-119268119D01*
X137628690Y-119207643D01*
X137598452Y-119177405D01*
X137537976Y-119147167D01*
X137417024Y-119147167D01*
X137356548Y-119177405D01*
X137326309Y-119207643D01*
X137296071Y-119268119D01*
X147120429Y-110807500D02*
X147059952Y-110777262D01*
X146969238Y-110777262D01*
X146878524Y-110807500D01*
X146818048Y-110867976D01*
X146787809Y-110928452D01*
X146757571Y-111049405D01*
X146757571Y-111140119D01*
X146787809Y-111261071D01*
X146818048Y-111321548D01*
X146878524Y-111382024D01*
X146969238Y-111412262D01*
X147029714Y-111412262D01*
X147120429Y-111382024D01*
X147150667Y-111351786D01*
X147150667Y-111140119D01*
X147029714Y-111140119D01*
X147785667Y-111351786D02*
X147755429Y-111382024D01*
X147664714Y-111412262D01*
X147604238Y-111412262D01*
X147513524Y-111382024D01*
X147453048Y-111321548D01*
X147422809Y-111261071D01*
X147392571Y-111140119D01*
X147392571Y-111049405D01*
X147422809Y-110928452D01*
X147453048Y-110867976D01*
X147513524Y-110807500D01*
X147604238Y-110777262D01*
X147664714Y-110777262D01*
X147755429Y-110807500D01*
X147785667Y-110837738D01*
X148390429Y-111412262D02*
X148027571Y-111412262D01*
X148209000Y-111412262D02*
X148209000Y-110777262D01*
X148148524Y-110867976D01*
X148088048Y-110928452D01*
X148027571Y-110958690D01*
X143277166Y-120683262D02*
X142974785Y-120683262D01*
X142974785Y-120048262D01*
X143821453Y-120683262D02*
X143458595Y-120683262D01*
X143640024Y-120683262D02*
X143640024Y-120048262D01*
X143579548Y-120138976D01*
X143519072Y-120199452D01*
X143458595Y-120229690D01*
X139352262Y-109706833D02*
X139049881Y-109918500D01*
X139352262Y-110069691D02*
X138717262Y-110069691D01*
X138717262Y-109827786D01*
X138747500Y-109767310D01*
X138777738Y-109737071D01*
X138838214Y-109706833D01*
X138928929Y-109706833D01*
X138989405Y-109737071D01*
X139019643Y-109767310D01*
X139049881Y-109827786D01*
X139049881Y-110069691D01*
X139352262Y-109102071D02*
X139352262Y-109464929D01*
X139352262Y-109283500D02*
X138717262Y-109283500D01*
X138807976Y-109343976D01*
X138868452Y-109404452D01*
X138898690Y-109464929D01*
X147480262Y-109325833D02*
X147177881Y-109537500D01*
X147480262Y-109688691D02*
X146845262Y-109688691D01*
X146845262Y-109446786D01*
X146875500Y-109386310D01*
X146905738Y-109356071D01*
X146966214Y-109325833D01*
X147056929Y-109325833D01*
X147117405Y-109356071D01*
X147147643Y-109386310D01*
X147177881Y-109446786D01*
X147177881Y-109688691D01*
X146905738Y-109083929D02*
X146875500Y-109053691D01*
X146845262Y-108993214D01*
X146845262Y-108842024D01*
X146875500Y-108781548D01*
X146905738Y-108751310D01*
X146966214Y-108721071D01*
X147026690Y-108721071D01*
X147117405Y-108751310D01*
X147480262Y-109114167D01*
X147480262Y-108721071D01*
X144305262Y-114151833D02*
X144002881Y-114363500D01*
X144305262Y-114514691D02*
X143670262Y-114514691D01*
X143670262Y-114272786D01*
X143700500Y-114212310D01*
X143730738Y-114182071D01*
X143791214Y-114151833D01*
X143881929Y-114151833D01*
X143942405Y-114182071D01*
X143972643Y-114212310D01*
X144002881Y-114272786D01*
X144002881Y-114514691D01*
X143670262Y-113940167D02*
X143670262Y-113547071D01*
X143912167Y-113758738D01*
X143912167Y-113668024D01*
X143942405Y-113607548D01*
X143972643Y-113577310D01*
X144033119Y-113547071D01*
X144184310Y-113547071D01*
X144244786Y-113577310D01*
X144275024Y-113607548D01*
X144305262Y-113668024D01*
X144305262Y-113849452D01*
X144275024Y-113909929D01*
X144244786Y-113940167D01*
X143289262Y-107039833D02*
X142986881Y-107251500D01*
X143289262Y-107402691D02*
X142654262Y-107402691D01*
X142654262Y-107160786D01*
X142684500Y-107100310D01*
X142714738Y-107070071D01*
X142775214Y-107039833D01*
X142865929Y-107039833D01*
X142926405Y-107070071D01*
X142956643Y-107100310D01*
X142986881Y-107160786D01*
X142986881Y-107402691D01*
X142865929Y-106495548D02*
X143289262Y-106495548D01*
X142624024Y-106646738D02*
X143077595Y-106797929D01*
X143077595Y-106404833D01*
X143543262Y-110341833D02*
X143240881Y-110553500D01*
X143543262Y-110704691D02*
X142908262Y-110704691D01*
X142908262Y-110462786D01*
X142938500Y-110402310D01*
X142968738Y-110372071D01*
X143029214Y-110341833D01*
X143119929Y-110341833D01*
X143180405Y-110372071D01*
X143210643Y-110402310D01*
X143240881Y-110462786D01*
X143240881Y-110704691D01*
X142908262Y-109767310D02*
X142908262Y-110069691D01*
X143210643Y-110099929D01*
X143180405Y-110069691D01*
X143150167Y-110009214D01*
X143150167Y-109858024D01*
X143180405Y-109797548D01*
X143210643Y-109767310D01*
X143271119Y-109737071D01*
X143422310Y-109737071D01*
X143482786Y-109767310D01*
X143513024Y-109797548D01*
X143543262Y-109858024D01*
X143543262Y-110009214D01*
X143513024Y-110069691D01*
X143482786Y-110099929D01*
M02*
