G04 #@! TF.FileFunction,Drawing*
%FSLAX46Y46*%
G04 Gerber Fmt 4.6, Leading zero omitted, Abs format (unit mm)*
G04 Created by KiCad (PCBNEW 4.0.0-rc1-stable) date 10/19/2015 9:11:09 PM*
%MOMM*%
G01*
G04 APERTURE LIST*
%ADD10C,0.100000*%
%ADD11C,0.152400*%
G04 APERTURE END LIST*
D10*
D11*
X137840357Y-134259562D02*
X137477499Y-134259562D01*
X137658928Y-134259562D02*
X137658928Y-133624562D01*
X137598452Y-133715276D01*
X137537976Y-133775752D01*
X137477499Y-133805990D01*
X138112499Y-134199086D02*
X138142738Y-134229324D01*
X138112499Y-134259562D01*
X138082261Y-134229324D01*
X138112499Y-134199086D01*
X138112499Y-134259562D01*
X138535833Y-133624562D02*
X138596309Y-133624562D01*
X138656785Y-133654800D01*
X138687023Y-133685038D01*
X138717261Y-133745514D01*
X138747500Y-133866467D01*
X138747500Y-134017657D01*
X138717261Y-134138610D01*
X138687023Y-134199086D01*
X138656785Y-134229324D01*
X138596309Y-134259562D01*
X138535833Y-134259562D01*
X138475357Y-134229324D01*
X138445119Y-134199086D01*
X138414880Y-134138610D01*
X138384642Y-134017657D01*
X138384642Y-133866467D01*
X138414880Y-133745514D01*
X138445119Y-133685038D01*
X138475357Y-133654800D01*
X138535833Y-133624562D01*
X139140595Y-133624562D02*
X139201071Y-133624562D01*
X139261547Y-133654800D01*
X139291785Y-133685038D01*
X139322023Y-133745514D01*
X139352262Y-133866467D01*
X139352262Y-134017657D01*
X139322023Y-134138610D01*
X139291785Y-134199086D01*
X139261547Y-134229324D01*
X139201071Y-134259562D01*
X139140595Y-134259562D01*
X139080119Y-134229324D01*
X139049881Y-134199086D01*
X139019642Y-134138610D01*
X138989404Y-134017657D01*
X138989404Y-133866467D01*
X139019642Y-133745514D01*
X139049881Y-133685038D01*
X139080119Y-133654800D01*
X139140595Y-133624562D01*
X139745357Y-133624562D02*
X139805833Y-133624562D01*
X139866309Y-133654800D01*
X139896547Y-133685038D01*
X139926785Y-133745514D01*
X139957024Y-133866467D01*
X139957024Y-134017657D01*
X139926785Y-134138610D01*
X139896547Y-134199086D01*
X139866309Y-134229324D01*
X139805833Y-134259562D01*
X139745357Y-134259562D01*
X139684881Y-134229324D01*
X139654643Y-134199086D01*
X139624404Y-134138610D01*
X139594166Y-134017657D01*
X139594166Y-133866467D01*
X139624404Y-133745514D01*
X139654643Y-133685038D01*
X139684881Y-133654800D01*
X139745357Y-133624562D01*
X140350119Y-133624562D02*
X140410595Y-133624562D01*
X140471071Y-133654800D01*
X140501309Y-133685038D01*
X140531547Y-133745514D01*
X140561786Y-133866467D01*
X140561786Y-134017657D01*
X140531547Y-134138610D01*
X140501309Y-134199086D01*
X140471071Y-134229324D01*
X140410595Y-134259562D01*
X140350119Y-134259562D01*
X140289643Y-134229324D01*
X140259405Y-134199086D01*
X140229166Y-134138610D01*
X140198928Y-134017657D01*
X140198928Y-133866467D01*
X140229166Y-133745514D01*
X140259405Y-133685038D01*
X140289643Y-133654800D01*
X140350119Y-133624562D01*
X141317738Y-134259562D02*
X141317738Y-133836229D01*
X141317738Y-133624562D02*
X141287500Y-133654800D01*
X141317738Y-133685038D01*
X141347977Y-133654800D01*
X141317738Y-133624562D01*
X141317738Y-133685038D01*
X141620119Y-133836229D02*
X141620119Y-134259562D01*
X141620119Y-133896705D02*
X141650358Y-133866467D01*
X141710834Y-133836229D01*
X141801548Y-133836229D01*
X141862024Y-133866467D01*
X141892262Y-133926943D01*
X141892262Y-134259562D01*
X127000000Y-133350000D02*
X152400000Y-133350000D01*
X127000000Y-127000000D02*
X127000000Y-134594600D01*
X152400000Y-127000000D02*
X152400000Y-134594600D01*
X152400000Y-133350000D02*
X151273496Y-133936421D01*
X152400000Y-133350000D02*
X151273496Y-132763579D01*
X127000000Y-133350000D02*
X128126504Y-133936421D01*
X127000000Y-133350000D02*
X128126504Y-132763579D01*
X160294562Y-128436310D02*
X160294562Y-128375834D01*
X160324800Y-128315358D01*
X160355038Y-128285120D01*
X160415514Y-128254882D01*
X160536467Y-128224643D01*
X160687657Y-128224643D01*
X160808610Y-128254882D01*
X160869086Y-128285120D01*
X160899324Y-128315358D01*
X160929562Y-128375834D01*
X160929562Y-128436310D01*
X160899324Y-128496786D01*
X160869086Y-128527024D01*
X160808610Y-128557263D01*
X160687657Y-128587501D01*
X160536467Y-128587501D01*
X160415514Y-128557263D01*
X160355038Y-128527024D01*
X160324800Y-128496786D01*
X160294562Y-128436310D01*
X160869086Y-127952501D02*
X160899324Y-127922262D01*
X160929562Y-127952501D01*
X160899324Y-127982739D01*
X160869086Y-127952501D01*
X160929562Y-127952501D01*
X160355038Y-127680358D02*
X160324800Y-127650120D01*
X160294562Y-127589643D01*
X160294562Y-127438453D01*
X160324800Y-127377977D01*
X160355038Y-127347739D01*
X160415514Y-127317500D01*
X160475990Y-127317500D01*
X160566705Y-127347739D01*
X160929562Y-127710596D01*
X160929562Y-127317500D01*
X160294562Y-126742977D02*
X160294562Y-127045358D01*
X160596943Y-127075596D01*
X160566705Y-127045358D01*
X160536467Y-126984881D01*
X160536467Y-126833691D01*
X160566705Y-126773215D01*
X160596943Y-126742977D01*
X160657419Y-126712738D01*
X160808610Y-126712738D01*
X160869086Y-126742977D01*
X160899324Y-126773215D01*
X160929562Y-126833691D01*
X160929562Y-126984881D01*
X160899324Y-127045358D01*
X160869086Y-127075596D01*
X160294562Y-126319643D02*
X160294562Y-126259167D01*
X160324800Y-126198691D01*
X160355038Y-126168453D01*
X160415514Y-126138215D01*
X160536467Y-126107976D01*
X160687657Y-126107976D01*
X160808610Y-126138215D01*
X160869086Y-126168453D01*
X160899324Y-126198691D01*
X160929562Y-126259167D01*
X160929562Y-126319643D01*
X160899324Y-126380119D01*
X160869086Y-126410357D01*
X160808610Y-126440596D01*
X160687657Y-126470834D01*
X160536467Y-126470834D01*
X160415514Y-126440596D01*
X160355038Y-126410357D01*
X160324800Y-126380119D01*
X160294562Y-126319643D01*
X160294562Y-125714881D02*
X160294562Y-125654405D01*
X160324800Y-125593929D01*
X160355038Y-125563691D01*
X160415514Y-125533453D01*
X160536467Y-125503214D01*
X160687657Y-125503214D01*
X160808610Y-125533453D01*
X160869086Y-125563691D01*
X160899324Y-125593929D01*
X160929562Y-125654405D01*
X160929562Y-125714881D01*
X160899324Y-125775357D01*
X160869086Y-125805595D01*
X160808610Y-125835834D01*
X160687657Y-125866072D01*
X160536467Y-125866072D01*
X160415514Y-125835834D01*
X160355038Y-125805595D01*
X160324800Y-125775357D01*
X160294562Y-125714881D01*
X160929562Y-124747262D02*
X160506229Y-124747262D01*
X160294562Y-124747262D02*
X160324800Y-124777500D01*
X160355038Y-124747262D01*
X160324800Y-124717023D01*
X160294562Y-124747262D01*
X160355038Y-124747262D01*
X160506229Y-124444881D02*
X160929562Y-124444881D01*
X160566705Y-124444881D02*
X160536467Y-124414642D01*
X160506229Y-124354166D01*
X160506229Y-124263452D01*
X160536467Y-124202976D01*
X160596943Y-124172738D01*
X160929562Y-124172738D01*
X160020000Y-129540000D02*
X160020000Y-123190000D01*
X154940000Y-129540000D02*
X161264600Y-129540000D01*
X154940000Y-123190000D02*
X161264600Y-123190000D01*
X160020000Y-123190000D02*
X160606421Y-124316504D01*
X160020000Y-123190000D02*
X159433579Y-124316504D01*
X160020000Y-129540000D02*
X160606421Y-128413496D01*
X160020000Y-129540000D02*
X159433579Y-128413496D01*
X157754562Y-116371310D02*
X157754562Y-116310834D01*
X157784800Y-116250358D01*
X157815038Y-116220120D01*
X157875514Y-116189882D01*
X157996467Y-116159643D01*
X158147657Y-116159643D01*
X158268610Y-116189882D01*
X158329086Y-116220120D01*
X158359324Y-116250358D01*
X158389562Y-116310834D01*
X158389562Y-116371310D01*
X158359324Y-116431786D01*
X158329086Y-116462024D01*
X158268610Y-116492263D01*
X158147657Y-116522501D01*
X157996467Y-116522501D01*
X157875514Y-116492263D01*
X157815038Y-116462024D01*
X157784800Y-116431786D01*
X157754562Y-116371310D01*
X158329086Y-115887501D02*
X158359324Y-115857262D01*
X158389562Y-115887501D01*
X158359324Y-115917739D01*
X158329086Y-115887501D01*
X158389562Y-115887501D01*
X157754562Y-115645596D02*
X157754562Y-115222262D01*
X158389562Y-115494405D01*
X157754562Y-114859405D02*
X157754562Y-114798929D01*
X157784800Y-114738453D01*
X157815038Y-114708215D01*
X157875514Y-114677977D01*
X157996467Y-114647738D01*
X158147657Y-114647738D01*
X158268610Y-114677977D01*
X158329086Y-114708215D01*
X158359324Y-114738453D01*
X158389562Y-114798929D01*
X158389562Y-114859405D01*
X158359324Y-114919881D01*
X158329086Y-114950119D01*
X158268610Y-114980358D01*
X158147657Y-115010596D01*
X157996467Y-115010596D01*
X157875514Y-114980358D01*
X157815038Y-114950119D01*
X157784800Y-114919881D01*
X157754562Y-114859405D01*
X157754562Y-114254643D02*
X157754562Y-114194167D01*
X157784800Y-114133691D01*
X157815038Y-114103453D01*
X157875514Y-114073215D01*
X157996467Y-114042976D01*
X158147657Y-114042976D01*
X158268610Y-114073215D01*
X158329086Y-114103453D01*
X158359324Y-114133691D01*
X158389562Y-114194167D01*
X158389562Y-114254643D01*
X158359324Y-114315119D01*
X158329086Y-114345357D01*
X158268610Y-114375596D01*
X158147657Y-114405834D01*
X157996467Y-114405834D01*
X157875514Y-114375596D01*
X157815038Y-114345357D01*
X157784800Y-114315119D01*
X157754562Y-114254643D01*
X157754562Y-113649881D02*
X157754562Y-113589405D01*
X157784800Y-113528929D01*
X157815038Y-113498691D01*
X157875514Y-113468453D01*
X157996467Y-113438214D01*
X158147657Y-113438214D01*
X158268610Y-113468453D01*
X158329086Y-113498691D01*
X158359324Y-113528929D01*
X158389562Y-113589405D01*
X158389562Y-113649881D01*
X158359324Y-113710357D01*
X158329086Y-113740595D01*
X158268610Y-113770834D01*
X158147657Y-113801072D01*
X157996467Y-113801072D01*
X157875514Y-113770834D01*
X157815038Y-113740595D01*
X157784800Y-113710357D01*
X157754562Y-113649881D01*
X158389562Y-112682262D02*
X157966229Y-112682262D01*
X157754562Y-112682262D02*
X157784800Y-112712500D01*
X157815038Y-112682262D01*
X157784800Y-112652023D01*
X157754562Y-112682262D01*
X157815038Y-112682262D01*
X157966229Y-112379881D02*
X158389562Y-112379881D01*
X158026705Y-112379881D02*
X157996467Y-112349642D01*
X157966229Y-112289166D01*
X157966229Y-112198452D01*
X157996467Y-112137976D01*
X158056943Y-112107738D01*
X158389562Y-112107738D01*
X157480000Y-123190000D02*
X157480000Y-105410000D01*
X154940000Y-123190000D02*
X158724600Y-123190000D01*
X154940000Y-105410000D02*
X158724600Y-105410000D01*
X157480000Y-105410000D02*
X158066421Y-106536504D01*
X157480000Y-105410000D02*
X156893579Y-106536504D01*
X157480000Y-123190000D02*
X158066421Y-122063496D01*
X157480000Y-123190000D02*
X156893579Y-122063496D01*
M02*
