G04 #@! TF.FileFunction,Copper,L4,Bot,Signal*
%FSLAX46Y46*%
G04 Gerber Fmt 4.6, Leading zero omitted, Abs format (unit mm)*
G04 Created by KiCad (PCBNEW 4.0.0-rc1-stable) date 10/19/2015 9:11:09 PM*
%MOMM*%
G01*
G04 APERTURE LIST*
%ADD10C,0.100000*%
%ADD11C,2.130000*%
%ADD12R,1.524000X2.540000*%
%ADD13R,2.540000X1.524000*%
%ADD14C,0.635000*%
%ADD15C,0.508000*%
%ADD16C,0.304800*%
%ADD17C,0.152400*%
G04 APERTURE END LIST*
D10*
D11*
X127000000Y-127000000D03*
X152400000Y-127000000D03*
X152400000Y-101600000D03*
X127000000Y-101600000D03*
D12*
X146050000Y-125730000D03*
X143510000Y-125730000D03*
X140970000Y-125730000D03*
X138430000Y-125730000D03*
X135890000Y-125730000D03*
X133350000Y-125730000D03*
X133350000Y-102870000D03*
X135890000Y-102870000D03*
X138430000Y-102870000D03*
X140970000Y-102870000D03*
X143510000Y-102870000D03*
X146050000Y-102870000D03*
D13*
X151130000Y-107950000D03*
X151130000Y-110490000D03*
X151130000Y-113030000D03*
X151130000Y-115570000D03*
X151130000Y-118110000D03*
X151130000Y-120650000D03*
X128270000Y-120650000D03*
X128270000Y-118110000D03*
X128270000Y-115570000D03*
X128270000Y-113030000D03*
X128270000Y-110490000D03*
X128270000Y-107950000D03*
D14*
X135128000Y-116205000D03*
X143510000Y-109220006D03*
X132207000Y-105283000D03*
X134620000Y-112268000D03*
D15*
X135636000Y-114452420D03*
X136017000Y-113284000D03*
X139700000Y-104775004D03*
X130175000Y-114299998D03*
X139699998Y-123698000D03*
D14*
X141986006Y-120269000D03*
X134366000Y-113284000D03*
D15*
X149352000Y-114299998D03*
X143129000Y-114046000D03*
D14*
X144653000Y-121031000D03*
X147447000Y-112141000D03*
D15*
X142125587Y-110614483D03*
X142240000Y-117856000D03*
X137287000Y-123317000D03*
X130174990Y-111760000D03*
X135255000Y-111252000D03*
X135255000Y-113284000D03*
X130683000Y-116840000D03*
X131064000Y-120142000D03*
X131839539Y-120139666D03*
X138938000Y-117856000D03*
X139446000Y-118364000D03*
X130429004Y-107950000D03*
X139954000Y-117856000D03*
X141327236Y-108180236D03*
X140970000Y-119126000D03*
X141478000Y-117856000D03*
X133350000Y-105537000D03*
X138811000Y-118872000D03*
X143129000Y-115062000D03*
X144780000Y-113538000D03*
X145669000Y-114680998D03*
X144272000Y-112522000D03*
X148717000Y-119253000D03*
X147955000Y-117729000D03*
X143256000Y-112014000D03*
X148082000Y-115569998D03*
X141350998Y-110744000D03*
X144780000Y-122555000D03*
X148717000Y-111506000D03*
X141097000Y-121031000D03*
X139932610Y-110744000D03*
X130810000Y-110744000D03*
X135763000Y-110744000D03*
D14*
X147700988Y-102870000D03*
X151130000Y-106299000D03*
X128270000Y-106172000D03*
X131699000Y-102870000D03*
X128270000Y-122301000D03*
X131572000Y-125730000D03*
X147701000Y-125730000D03*
X151130000Y-122301000D03*
D15*
X141223986Y-105664000D03*
X137160000Y-105283000D03*
X140208000Y-105765610D03*
X142240000Y-123190000D03*
X138938000Y-108712000D03*
X140970000Y-122809000D03*
X138430000Y-110490010D03*
D16*
X139699998Y-104775006D02*
X139700000Y-104775004D01*
X139700000Y-104648000D02*
X139700000Y-104775004D01*
X138430000Y-103378000D02*
X139700000Y-104648000D01*
X138430000Y-102870000D02*
X138430000Y-103378000D01*
X130047998Y-114299998D02*
X130175000Y-114299998D01*
X128778000Y-113030000D02*
X130047998Y-114299998D01*
X128270000Y-113030000D02*
X128778000Y-113030000D01*
X139699998Y-123952002D02*
X139699998Y-123698000D01*
X138430000Y-125730000D02*
X138430000Y-125222000D01*
X138430000Y-125222000D02*
X139699998Y-123952002D01*
X149555200Y-114503198D02*
X149352000Y-114299998D01*
X150622000Y-115570000D02*
X149555200Y-114503198D01*
X151130000Y-115570000D02*
X150622000Y-115570000D01*
D17*
X142163507Y-117398507D02*
X140843000Y-116078000D01*
X142240000Y-117856000D02*
X142240000Y-117496790D01*
X142240000Y-117496790D02*
X142163507Y-117420297D01*
X142163507Y-117420297D02*
X142163507Y-117398507D01*
X142240000Y-118215210D02*
X142240000Y-117856000D01*
X137287000Y-123317000D02*
X137646210Y-123317000D01*
X137646210Y-123317000D02*
X142240000Y-118723210D01*
X142240000Y-118723210D02*
X142240000Y-118215210D01*
X140843000Y-116078000D02*
X140843000Y-112256280D01*
X140843000Y-112256280D02*
X142125587Y-110973693D01*
X142125587Y-110973693D02*
X142125587Y-110614483D01*
X135255000Y-111252000D02*
X130683000Y-111252000D01*
X130683000Y-111252000D02*
X130175000Y-111760000D01*
X130175000Y-111760000D02*
X130174990Y-111760000D01*
X135255000Y-113284000D02*
X131699000Y-116840000D01*
X131699000Y-116840000D02*
X130683000Y-116840000D01*
X130810001Y-120395999D02*
X131064000Y-120142000D01*
X128270000Y-120650000D02*
X130556000Y-120650000D01*
X130556000Y-120650000D02*
X130810001Y-120395999D01*
X128270000Y-118110000D02*
X129794000Y-118110000D01*
X129794000Y-118110000D02*
X131823666Y-120139666D01*
X131823666Y-120139666D02*
X131839539Y-120139666D01*
X128270000Y-115570000D02*
X128651000Y-115570000D01*
X128651000Y-115570000D02*
X130937000Y-117856000D01*
X130937000Y-117856000D02*
X138938000Y-117856000D01*
X128270000Y-110490000D02*
X129692400Y-110490000D01*
X129692400Y-110490000D02*
X129946400Y-110236000D01*
X136017000Y-110236000D02*
X139446000Y-113665000D01*
X129946400Y-110236000D02*
X136017000Y-110236000D01*
X139446000Y-113665000D02*
X139446000Y-118004790D01*
X139446000Y-118004790D02*
X139446000Y-118364000D01*
X139954000Y-117856000D02*
X139954000Y-113665000D01*
X139954000Y-113665000D02*
X136144000Y-109855000D01*
X136144000Y-109855000D02*
X132334004Y-109855000D01*
X132334004Y-109855000D02*
X130683003Y-108203999D01*
X130683003Y-108203999D02*
X130429004Y-107950000D01*
X135890000Y-125730000D02*
X135890000Y-122555000D01*
X135890000Y-122555000D02*
X138938000Y-119507000D01*
X138938000Y-119507000D02*
X140589000Y-119507000D01*
X140589000Y-119507000D02*
X140970000Y-119126000D01*
X133350000Y-105537000D02*
X133350000Y-106426000D01*
X133350000Y-106426000D02*
X140462000Y-113538000D01*
X140462000Y-113538000D02*
X140462000Y-116480790D01*
X140462000Y-116480790D02*
X141478000Y-117496790D01*
X141478000Y-117496790D02*
X141478000Y-117856000D01*
X141224001Y-118109999D02*
X141478000Y-117856000D01*
X140462000Y-118872000D02*
X141224001Y-118109999D01*
X138811000Y-118872000D02*
X140462000Y-118872000D01*
X143129000Y-115062000D02*
X143764000Y-114427000D01*
X143764000Y-114427000D02*
X143764000Y-112141000D01*
X143764000Y-112141000D02*
X145415000Y-110490000D01*
X145415000Y-110490000D02*
X147701000Y-110490000D01*
X147701000Y-110490000D02*
X151130000Y-110490000D01*
X145033999Y-113284001D02*
X144780000Y-113538000D01*
X145288000Y-113030000D02*
X145033999Y-113284001D01*
X151130000Y-113030000D02*
X145288000Y-113030000D01*
X145922999Y-114934997D02*
X145669000Y-114680998D01*
X149098002Y-118110000D02*
X145922999Y-114934997D01*
X151130000Y-118110000D02*
X149098002Y-118110000D01*
X144272000Y-114808000D02*
X144272000Y-112881210D01*
X148717000Y-119253000D02*
X144272000Y-114808000D01*
X144272000Y-112881210D02*
X144272000Y-112522000D01*
X146050000Y-125730000D02*
X146050000Y-125222000D01*
X146050000Y-125222000D02*
X141859000Y-121031000D01*
X141859000Y-121031000D02*
X141456210Y-121031000D01*
X141456210Y-121031000D02*
X141097000Y-121031000D01*
X146050000Y-102870000D02*
X146050000Y-104626610D01*
X146050000Y-104626610D02*
X139932610Y-110744000D01*
X151130000Y-107950000D02*
X150622000Y-107950000D01*
X150622000Y-107950000D02*
X146050000Y-103378000D01*
X146050000Y-103378000D02*
X146050000Y-102870000D01*
X135763000Y-110744000D02*
X130810000Y-110744000D01*
D16*
X147701000Y-102870000D02*
X147700988Y-102870000D01*
X151130000Y-106299000D02*
X147701000Y-102870000D01*
X131572000Y-125730000D02*
X128270000Y-122428000D01*
X128270000Y-122428000D02*
X128270000Y-122301000D01*
X151130000Y-122301000D02*
X147701000Y-125730000D01*
X128270000Y-107950000D02*
X128270000Y-106172000D01*
X133350000Y-102870000D02*
X131699000Y-102870000D01*
X133350000Y-125730000D02*
X131572000Y-125730000D01*
X151130000Y-120650000D02*
X151130000Y-122301000D01*
D17*
X140969987Y-105410001D02*
X141223986Y-105664000D01*
X137160000Y-105283000D02*
X140842986Y-105283000D01*
X140842986Y-105283000D02*
X140969987Y-105410001D01*
X140208000Y-105765610D02*
X136372610Y-105765610D01*
X136372610Y-105765610D02*
X135890000Y-105283000D01*
X135890000Y-105283000D02*
X135890000Y-102870000D01*
X143510000Y-125730000D02*
X143510000Y-124460000D01*
X143510000Y-124460000D02*
X142240000Y-123190000D01*
X140970000Y-102870000D02*
X140970000Y-103378000D01*
X141884400Y-104292400D02*
X141884400Y-105765600D01*
X140970000Y-103378000D02*
X141884400Y-104292400D01*
X141884400Y-105765600D02*
X138938000Y-108712000D01*
X138683999Y-110236011D02*
X138430000Y-110490010D01*
X138683999Y-110109223D02*
X138683999Y-110236011D01*
X143510000Y-102870000D02*
X143510000Y-105283222D01*
X143510000Y-105283222D02*
X138683999Y-110109223D01*
X140970000Y-125730000D02*
X140970000Y-122809000D01*
M02*
